<?xml version="1.0" standalone="no"?>
<!DOCTYPE svg PUBLIC "-//W3C//DTD SVG 1.1//EN" "http://www.w3.org/Graphics/SVG/1.1/DTD/svg11.dtd" >
<svg xmlns="http://www.w3.org/2000/svg" xmlns:xlink="http://www.w3.org/1999/xlink" version="1.1">
<metadata>
Created by FontForge 20201107 at Wed Apr 12 12:05:17 2023
 By 
Copyright 2022 The Instrument Sans Project Authors (https://github.com/Instrument/instrument-sans)
</metadata>
<defs>
<font id="InstrumentSansCondensed-Bold" horiz-adv-x="479" >
  <font-face 
    font-family="Instrument Sans Condensed"
    font-weight="700"
    font-stretch="condensed"
    units-per-em="1000"
    panose-1="0 0 0 0 0 0 0 0 0 0"
    ascent="800"
    descent="-200"
    x-height="510"
    cap-height="720"
    bbox="-67 -339 1660 986"
    underline-thickness="38"
    underline-position="-199"
    unicode-range="U+0020-2212"
  />
<missing-glyph horiz-adv-x="514" 
d="M50 0v720h414v-720h-414zM192 110h130v500h-130v-500z" />
    <glyph glyph-name="f_f_i" unicode="ffi" horiz-adv-x="732" 
d="M67 0v576q0 77 39 115.5t106 38.5q17 0 30 -1.5t25 -5.5v-115q-5 2 -12 3t-15 1q-16 0 -25.5 -10t-9.5 -30v-572h-138zM308 0v576q0 77 39 115.5t106 38.5q14 0 26 -1.5t24 -5.5v-115q-5 2 -10.5 3t-12.5 1q-16 0 -25 -9.5t-9 -30.5v-572h-138zM546 0v510h138v-510h-138z
M10 402v108h583v-108h-583zM551 577v143h140v-143h-140z" />
    <glyph glyph-name="f_f_l" unicode="ffl" horiz-adv-x="728" 
d="M308 0v566q0 77 40.5 115.5t114.5 38.5h134v-118h-106q-24 0 -34.5 -13t-10.5 -37v-552h-138zM67 0v566q0 77 40.5 115.5t114.5 38.5q17 0 30 -1.5t25 -5.5v-115q-5 2 -12 3t-15 1q-24 0 -34.5 -13t-10.5 -37v-552h-138zM10 392v118h489v-118h-489zM546 0v720h138v-720
h-138z" />
    <glyph glyph-name="f_i" unicode="fi" horiz-adv-x="477" 
d="M67 0v576q0 77 39 115.5t106 38.5q14 0 26 -1.5t24 -5.5v-115q-5 2 -10.5 3t-12.5 1q-16 0 -25 -9.5t-9 -30.5v-572h-138zM305 0v510h138v-510h-138zM10 392v118h342v-118h-342zM310 577v143h140v-143h-140z" />
    <glyph glyph-name="f_l" unicode="fl" horiz-adv-x="487" 
d="M67 0v566q0 77 40.5 115.5t114.5 38.5h134v-118h-106q-24 0 -34.5 -13t-10.5 -37v-552h-138zM10 392v118h248v-118h-248zM305 0v720h138v-720h-138z" />
    <glyph glyph-name="w_w_w.liga" unicode="www" horiz-adv-x="1684" 
d="M131 0l-107 510h136l54 -367h-9l61 367h140l62 -367h-9l61 367h140l62 -367h-9l61 367h140l62 -367h-9l61 367h140l62 -367h-9l61 367h140l62 -367h-9l53 367h132l-107 -510h-150l-58 361h10l-56 -361h-150l-58 361h10l-56 -361h-150l-58 361h10l-56 -361h-150l-58 361
h10l-56 -361h-150l-58 361h10l-58 -361h-150z" />
    <glyph glyph-name="hyphen_greater.liga" unicode="&#x2d;&#x3e;" horiz-adv-x="650" 
d="M60 420h484l-55 -52l-322 322h163l328 -330l-328 -330h-163l322 322l55 -52h-484v120z" />
    <glyph glyph-name="less_hyphen.liga" unicode="&#x3c;&#x2d;" horiz-adv-x="650" 
d="M658 300h-484l55 52l322 -322h-163l-328 330l328 330h163l-322 -322l-55 52h484v-120z" />
    <glyph glyph-name=".notdef" horiz-adv-x="514" 
d="M50 0v720h414v-720h-414zM192 110h130v500h-130v-500z" />
    <glyph glyph-name=".null" horiz-adv-x="0" 
 />
    <glyph glyph-name="nonmarkingreturn" horiz-adv-x="333" 
 />
    <glyph glyph-name="space" unicode=" " horiz-adv-x="140" 
 />
    <glyph glyph-name="exclam" unicode="!" horiz-adv-x="258" 
d="M73 254l-22 486h156l-22 -486h-112zM50 0v158h158v-158h-158z" />
    <glyph glyph-name="quotedbl" unicode="&#x22;" horiz-adv-x="413" 
d="M87 446l-33 126q-10 38 -15 61.5t-5 45.5q0 17 7.5 33t23.5 27t42 11t42 -11t23.5 -27t7.5 -33q0 -22 -5 -45.5t-15 -61.5l-33 -126h-40zM286 446l-33 126q-10 38 -15 61.5t-5 45.5q0 17 7.5 33t23.5 27t42 11t42 -11t23.5 -27t7.5 -33q0 -22 -5 -45.5t-15 -61.5
l-33 -126h-40z" />
    <glyph glyph-name="numbersign" unicode="#" horiz-adv-x="496" 
d="M34 0l100 720h120l-100 -720h-120zM242 0l100 720h120l-100 -720h-120zM37 522h447v-112h-447v112zM12 320h447v-112h-447v112z" />
    <glyph glyph-name="dollar" unicode="$" horiz-adv-x="454" 
d="M179 696v134h112v-134h-112zM291 20v-129h-112v129h112zM232 -10q-103 0 -155.5 63.5t-52.5 176.5h133q0 -64 22 -97t59 -33q27 0 44 17.5t17 49.5q0 29 -16 57t-52 55l-74 56q-57 44 -83 94.5t-26 111.5q0 60 22.5 102.5t65 64.5t101.5 22q92 0 140 -55t48 -161h-130
q0 56 -16 81t-45 25q-24 0 -39 -15.5t-15 -47.5q0 -31 16.5 -56t49.5 -51l73 -56q62 -47 87 -100t25 -113q0 -91 -53.5 -141t-145.5 -50z" />
    <glyph glyph-name="percent" unicode="%" horiz-adv-x="621" 
d="M48 0l435 720h94l-435 -720h-94zM458 -10q-36 0 -65.5 19t-47 58t-17.5 98t17.5 97.5t47 57.5t65.5 19q37 0 66.5 -19t47 -57.5t17.5 -97.5t-18 -98t-47.5 -58t-65.5 -19zM458 73q24 0 39 23.5t15 69.5q0 44 -14.5 67t-39.5 23t-39 -23.5t-14 -66.5q0 -46 14 -69.5
t39 -23.5zM162 381q-36 0 -65.5 19t-47 58t-17.5 98t17.5 97.5t46.5 57.5t66 19t66 -19t46.5 -57.5t17.5 -97.5t-17.5 -98t-47 -58t-65.5 -19zM162 464q24 0 39 23.5t15 69.5q0 44 -14.5 67t-39.5 23t-39 -23.5t-14 -66.5q0 -45 14 -69t39 -24z" />
    <glyph glyph-name="ampersand" unicode="&#x26;" horiz-adv-x="596" 
d="M441 0l-286 418q-22 34 -36 60t-20.5 48.5t-6.5 44.5q0 47 23 82.5t64 56t93 20.5q54 0 94.5 -20t63 -56t22.5 -83q0 -63 -42.5 -113.5t-134.5 -94.5l-39 91q51 27 73.5 54t22.5 61q0 28 -15 43.5t-43 15.5q-27 0 -42.5 -15t-15.5 -41q0 -13 4 -27t13 -30.5t22 -35.5
l335 -479h-149zM245 -10q-67 0 -118.5 25.5t-80 71t-28.5 105.5q0 74 46 134.5t137 107.5l63 -82q-41 -22 -67 -44t-37.5 -47.5t-11.5 -56.5q0 -52 29.5 -82t80.5 -30q42 0 75.5 20.5t57 59t36 93t12.5 123.5h120q0 -71 -14.5 -132.5t-42 -110.5t-66 -83.5t-87 -53
t-104.5 -18.5z" />
    <glyph glyph-name="quotesingle" unicode="'" horiz-adv-x="214" 
d="M87 446l-33 126q-10 38 -15 61.5t-5 45.5q0 17 7.5 33t23.5 27t42 11t42 -11t23.5 -27t7.5 -33q0 -22 -5 -45.5t-15 -61.5l-33 -126h-40z" />
    <glyph glyph-name="parenleft" unicode="(" horiz-adv-x="376" 
d="M220 -110q-80 101 -120 208t-40 222q0 113 40.5 221t119.5 209h126q-75 -101 -115.5 -209t-40.5 -221q0 -115 40 -222t116 -208h-126z" />
    <glyph glyph-name="parenright" unicode=")" horiz-adv-x="376" 
d="M156 750q80 -100 120 -207.5t40 -222.5q0 -113 -40 -221t-120 -209h-126q75 101 115.5 209t40.5 221q0 115 -40 222.5t-116 207.5h126z" />
    <glyph glyph-name="asterisk" unicode="*" horiz-adv-x="406" 
d="M144 410l26 108l-81 -77l-59 103l107 31l-107 31l59 103l81 -77l-26 108h118l-26 -108l81 77l59 -103l-107 -31l107 -31l-59 -103l-81 77l26 -108h-118z" />
    <glyph glyph-name="plus" unicode="+" horiz-adv-x="551" 
d="M225 133v477h102v-477h-102zM50 322v98h451v-98h-451z" />
    <glyph glyph-name="comma" unicode="," horiz-adv-x="242" 
d="M42 -159v69q47 13 62.5 38.5t15.5 65.5l54 -14h-132v158h158v-114q0 -73 -39 -128t-119 -75z" />
    <glyph glyph-name="hyphen" unicode="-" horiz-adv-x="354" 
d="M44 212v120h266v-120h-266z" />
    <glyph glyph-name="period" unicode="." horiz-adv-x="242" 
d="M42 0v158h158v-158h-158z" />
    <glyph glyph-name="slash" unicode="/" horiz-adv-x="306" 
d="M35 -80l120 850h116l-120 -850h-116z" />
    <glyph glyph-name="zero" unicode="0" horiz-adv-x="496" 
d="M248 -10q-67 0 -116 38.5t-75.5 120.5t-26.5 214q0 130 26 211t75 118.5t116 37.5q69 0 118 -37.5t75 -118.5t26 -212q0 -132 -26.5 -214t-75 -120t-116.5 -38zM247 100q23 0 40 23.5t27 81t10 159.5q0 101 -9.5 156.5t-27 77.5t-40.5 22q-22 0 -39 -21.5t-26.5 -77
t-9.5 -157.5t9.5 -159.5t26.5 -81t39 -23.5z" />
    <glyph glyph-name="one" unicode="1" horiz-adv-x="347" 
d="M159 0v646l31 -55q-14 -34 -41 -61.5t-61.5 -45t-69.5 -23.5v142q40 10 73.5 26.5t60 39.5t44.5 51h101v-720h-138z" />
    <glyph glyph-name="two" unicode="2" horiz-adv-x="426" 
d="M31 0v90q57 78 100.5 143t72 119t43 100t14.5 87q0 43 -13 63t-40 20q-33 0 -49 -27.5t-16 -83.5h-129q0 102 54 160.5t148 58.5q86 0 135.5 -49t49.5 -135q0 -42 -15 -94t-45 -113t-74 -130t-103 -146l-24 43h270v-106h-379z" />
    <glyph glyph-name="three" unicode="3" horiz-adv-x="448" 
d="M223 -10q-65 0 -110.5 27.5t-69 81t-23.5 130.5h129q0 -70 17 -100.5t54 -30.5q32 0 49 25.5t17 75.5q0 58 -18.5 90.5t-67.5 32.5h-47v106h44q42 0 59 31t17 80q0 41 -14.5 62t-43.5 21q-31 0 -45.5 -26t-14.5 -85h-129q0 67 24.5 116t69.5 76t105 27q56 0 97.5 -23
t65 -64t23.5 -96q0 -49 -18.5 -89.5t-49 -64.5t-68.5 -24v21q43 0 77 -25.5t54 -70t20 -100.5q0 -62 -25 -108t-70.5 -71t-107.5 -25z" />
    <glyph glyph-name="four" unicode="4" horiz-adv-x="447" 
d="M239 0v180l9 20v378l48 -1l-170 -357l-8 16h319v-106h-427v106l230 484h137v-720h-138z" />
    <glyph glyph-name="five" unicode="5" horiz-adv-x="456" 
d="M228 -10q-97 0 -149.5 61t-52.5 169h129q0 -63 19 -92.5t53 -29.5q32 0 48.5 31t16.5 104q0 74 -15 106.5t-48 32.5q-24 0 -40 -12.5t-23 -43.5h-112l16 404h332v-106h-273l70 64l-10 -257l-32 -1q12 24 38 39t67 15q56 0 94.5 -29t58 -81.5t19.5 -124.5
q0 -81 -24.5 -136.5t-70.5 -84t-111 -28.5z" />
    <glyph glyph-name="six" unicode="6" horiz-adv-x="476" 
d="M246 -10q-103 0 -159.5 87t-56.5 268q0 130 25 215t75 127.5t125 42.5q85 0 133 -52t52 -147h-128q-4 49 -20 70t-42 21q-43 0 -61.5 -61.5t-18.5 -206.5v-23l-33 11q10 40 29 65t47 37t64 12q53 0 92 -26.5t60 -76.5t21 -120q0 -76 -26 -130.5t-71.5 -83.5t-106.5 -29z
M239 98q32 0 51.5 32.5t19.5 99.5q0 68 -19 100t-52 32q-32 0 -51.5 -31.5t-19.5 -99.5q0 -45 9 -74.5t25 -44t37 -14.5z" />
    <glyph glyph-name="seven" unicode="7" horiz-adv-x="420" 
d="M101 0q12 194 60 351.5t133 281.5l73 -19h-355v106h396v-104q-47 -79 -81.5 -173.5t-56 -205t-29.5 -237.5h-140z" />
    <glyph glyph-name="eight" unicode="8" horiz-adv-x="464" 
d="M232 -10q-62 0 -109 26t-73 73t-26 109q0 54 20.5 97.5t54.5 69t76 25.5l10 -21q-43 0 -76 21t-51.5 59t-18.5 88q0 58 24.5 101.5t68 67.5t100.5 24q58 0 101.5 -24t67.5 -67.5t24 -101.5q0 -50 -18.5 -88t-51 -59t-76.5 -21l10 21q42 0 76.5 -25.5t54.5 -69t20 -97.5
q0 -62 -26 -109t-72.5 -73t-109.5 -26zM232 98q32 0 50 30t18 83t-18 82.5t-50 29.5t-50 -29.5t-18 -82.5q0 -54 18 -83.5t50 -29.5zM232 427q26 0 40.5 26t14.5 72q0 47 -14.5 72t-41.5 25q-25 0 -39.5 -25.5t-14.5 -71.5t15 -72t40 -26z" />
    <glyph glyph-name="nine" unicode="9" horiz-adv-x="476" 
d="M229 -10q-51 0 -94 24t-69.5 73t-29.5 122h129q4 -64 23.5 -87.5t44.5 -23.5q18 0 31.5 11t23 39.5t14 81t4.5 136.5v23l33 1q-9 -40 -28.5 -65t-47.5 -37t-64 -12q-53 0 -92 26.5t-60 75t-21 115.5q0 73 25 126t72 82t112 29q110 0 160.5 -90t50.5 -271
q0 -139 -23 -222.5t-70.5 -120t-123.5 -36.5zM237 370q33 0 52 31t19 94q0 42 -8.5 70.5t-24.5 42.5t-38 14q-33 0 -52 -31.5t-19 -94.5q0 -64 18.5 -95t52.5 -31z" />
    <glyph glyph-name="colon" unicode=":" horiz-adv-x="242" 
d="M42 0v158h158v-158h-158zM42 336v158h158v-158h-158z" />
    <glyph glyph-name="semicolon" unicode=";" horiz-adv-x="242" 
d="M42 -159v69q47 13 62.5 38.5t15.5 65.5l54 -14h-132v158h158v-114q0 -73 -39 -128t-119 -75zM42 336v158h158v-158h-158z" />
    <glyph glyph-name="less" unicode="&#x3c;" horiz-adv-x="551" 
d="M501 570v-105l-333 -105v22l333 -105v-105l-451 150v98z" />
    <glyph glyph-name="equal" unicode="=" horiz-adv-x="551" 
d="M50 422v98h451v-98h-451zM50 222v98h451v-98h-451z" />
    <glyph glyph-name="greater" unicode="&#x3e;" horiz-adv-x="551" 
d="M50 172v105l333 105v-22l-333 105v105l451 -150v-98z" />
    <glyph glyph-name="question" unicode="?" horiz-adv-x="420" 
d="M139 254q0 51 8.5 89t22 66.5t28 51t28 42t22 39t8.5 42.5q0 30 -11 44t-32 14q-25 0 -39.5 -20.5t-14.5 -70.5h-129q0 65 24 109t66.5 67t97.5 23t95 -21.5t61.5 -59.5t21.5 -87q0 -35 -9 -62t-23.5 -49.5t-31 -44t-31 -46t-23.5 -55t-9 -71.5h-130zM124 0v158h158v-158
h-158z" />
    <glyph glyph-name="at" unicode="@" horiz-adv-x="781" 
d="M390 -10q-111 0 -192 41.5t-124.5 117t-43.5 177.5q0 84 28.5 157.5t82.5 129t129.5 86.5t169.5 31q95 0 164.5 -36t108 -101.5t38.5 -156.5q0 -59 -17.5 -110.5t-48 -91t-69.5 -61.5t-82 -22q-30 0 -56.5 11.5t-42 34t-13.5 53.5l22 -3q-36 -60 -71 -77.5t-62 -17.5
q-43 0 -75 32.5t-32 99.5q0 45 12.5 95t36.5 94t57 71.5t75 27.5q40 0 61.5 -27t23.5 -77l-10 2l20 82h108l-75 -274q-4 -15 3.5 -26t26.5 -11q21 0 41.5 13.5t36.5 38t25.5 57.5t9.5 72q0 66 -25 115t-74 76t-122 27q-72 0 -129.5 -23.5t-97.5 -65.5t-61.5 -99t-21.5 -125
q0 -78 30.5 -134.5t89.5 -87.5t143 -31q54 0 101.5 12t85.5 28l30 -76q-42 -22 -97 -35t-118 -13zM351 247q23 0 40.5 20.5t28.5 50.5t16.5 59.5t5.5 47.5q0 26 -10 39t-27 13q-22 0 -39 -19.5t-28 -48.5t-17 -58.5t-6 -49.5q0 -28 10 -41t26 -13z" />
    <glyph glyph-name="A" unicode="A" horiz-adv-x="490" 
d="M12 0l141 720h105l-113 -720h-133zM335 0l-113 720h115l141 -720h-143zM110 265h270v-110h-270v110z" />
    <glyph glyph-name="B" unicode="B" horiz-adv-x="471" 
d="M164 0v106h62q38 0 59.5 28t21.5 78q0 55 -23 84.5t-63 29.5h-57v102h54q36 0 56 23t20 70t-19 70t-54 23h-57v106h84q81 0 132.5 -49t51.5 -133q0 -53 -19 -91t-49.5 -58t-67.5 -20v21q41 0 75 -24t55 -67.5t21 -102.5t-24 -103.5t-67 -68.5t-100 -24h-92zM50 0v720h142
v-720h-142z" />
    <glyph glyph-name="C" unicode="C" horiz-adv-x="503" 
d="M259 -10q-55 0 -98 24t-72 71t-44 116t-15 159t15 159t44.5 116t73 71t99.5 24q68 0 115.5 -34.5t72.5 -99.5t25 -159h-140q0 94 -19 137.5t-57 43.5q-29 0 -48 -24.5t-28 -80t-9 -149.5t9.5 -152t28.5 -84t47 -26q37 0 56 45t19 136h141q0 -92 -25.5 -157.5t-74 -100.5
t-116.5 -35z" />
    <glyph glyph-name="D" unicode="D" horiz-adv-x="531" 
d="M128 0v110h104q44 0 71.5 26t40.5 82t13 146q0 88 -13 142t-40.5 79t-71.5 25h-92v110h92q83 0 143.5 -40.5t93 -120.5t32.5 -197t-33 -198t-93 -122.5t-142 -41.5h-105zM50 0v720h142v-720h-142z" />
    <glyph glyph-name="E" unicode="E" horiz-adv-x="420" 
d="M50 0v720h142v-720h-142zM122 0v110h260v-110h-260zM122 317v108h242v-108h-242zM122 610v110h252v-110h-252z" />
    <glyph glyph-name="F" unicode="F" horiz-adv-x="390" 
d="M50 0v720h142v-720h-142zM122 286v110h226v-110h-226zM122 610v110h236v-110h-236z" />
    <glyph glyph-name="G" unicode="G" horiz-adv-x="513" 
d="M271 -10q-80 0 -134 39.5t-80.5 119.5t-26.5 201q0 124 27.5 208.5t80.5 128t131 43.5q67 0 112.5 -30.5t69.5 -89t24 -143.5h-140q0 80 -17.5 115.5t-54.5 35.5q-31 0 -50.5 -27t-29 -84.5t-9.5 -149.5q0 -95 10.5 -151t34.5 -80t63 -24q17 0 29.5 4.5t22.5 14.5
l141 -33q-26 -45 -81.5 -71.5t-122.5 -26.5zM333 78v238l31 -31h-105v110h216v-307z" />
    <glyph glyph-name="H" unicode="H" horiz-adv-x="514" 
d="M50 0v720h142v-720h-142zM322 0v720h142v-720h-142zM122 430h270v-110h-270v110z" />
    <glyph glyph-name="I" unicode="I" horiz-adv-x="242" 
d="M50 0v720h142v-720h-142z" />
    <glyph glyph-name="J" unicode="J" horiz-adv-x="302" 
d="M87 -10q-27 0 -46 3.5t-31 9.5v107q8 -3 20 -5.5t24 -2.5q28 0 44 11.5t16 36.5v570h142v-590q0 -75 -47.5 -107.5t-121.5 -32.5z" />
    <glyph glyph-name="K" unicode="K" horiz-adv-x="504" 
d="M50 0v720h142v-720h-142zM176 374l149 346h147l-159 -346h-137zM338 0l-167 374h142l179 -374h-154z" />
    <glyph glyph-name="L" unicode="L" horiz-adv-x="390" 
d="M50 0v720h142v-720h-142zM122 0v110h236v-110h-236z" />
    <glyph glyph-name="M" unicode="M" horiz-adv-x="704" 
d="M50 0v720h199l152 -676h-97l150 676h200v-720h-138v622l21 -1l-137 -621h-104l-137 621l21 1v-622h-130z" />
    <glyph glyph-name="N" unicode="N" horiz-adv-x="519" 
d="M50 0v720h168l156 -616l-35 -2v618h130v-720h-168l-156 616l35 2v-618h-130z" />
    <glyph glyph-name="O" unicode="O" horiz-adv-x="536" 
d="M268 -10q-58 0 -102.5 24t-74.5 71.5t-45.5 117t-15.5 160.5q0 120 27 201.5t80 123.5t130 42q79 0 132 -41.5t80 -123.5t27 -203q0 -91 -15.5 -160.5t-45.5 -116.5t-74.5 -71t-102.5 -24zM267 102q33 0 54 27.5t31 85.5t10 149q0 90 -10 146t-31 82t-54 26
q-32 0 -53 -26t-30.5 -81.5t-9.5 -146.5t10 -149t30.5 -85.5t52.5 -27.5z" />
    <glyph glyph-name="P" unicode="P" horiz-adv-x="468" 
d="M50 0v720h181q67 0 115.5 -27.5t75 -78t26.5 -120.5q0 -69 -26 -119t-74.5 -77t-116.5 -27h-71v110h68q39 0 58.5 27.5t19.5 87.5q0 59 -19.5 86.5t-58.5 27.5h-36v-610h-142z" />
    <glyph glyph-name="Q" unicode="Q" horiz-adv-x="546" 
d="M288 -10q-91 0 -148 42.5t-83.5 126t-26.5 204.5q0 120 27 201.5t80 123.5t130 42q79 0 132 -41.5t80 -123.5t27 -203q0 -77 -13.5 -139t-45.5 -105.5t-90 -67.5zM267 102q33 0 54 27.5t31 85.5t10 149q0 90 -10 146t-31 82t-54 26q-32 0 -53 -26t-30.5 -81.5
t-9.5 -146.5t10 -149t30.5 -85.5t52.5 -27.5zM288 -10l-20 90l260 30v-110q-35 0 -66 -1.5t-60 -3.5t-57 -3.5t-57 -1.5z" />
    <glyph glyph-name="R" unicode="R" horiz-adv-x="468" 
d="M50 0v720h181q62 0 108.5 -27t72.5 -74.5t26 -110.5q0 -62 -25.5 -109t-72 -73.5t-109.5 -26.5h-71v102h64q35 0 55.5 28t20.5 77t-20.5 76.5t-55.5 27.5h-32v-610h-142zM312 0l-140 374h135l159 -374h-154z" />
    <glyph glyph-name="S" unicode="S" horiz-adv-x="454" 
d="M232 -10q-103 0 -155.5 63.5t-52.5 176.5h133q0 -64 22 -97t59 -33q27 0 44 17.5t17 49.5q0 29 -16 57t-52 55l-74 56q-57 44 -83 94.5t-26 111.5q0 60 22.5 102.5t65 64.5t101.5 22q92 0 140 -55t48 -161h-130q0 56 -16 81t-45 25q-24 0 -39 -15.5t-15 -47.5
q0 -31 16.5 -56t49.5 -51l73 -56q62 -47 87 -100t25 -113q0 -91 -53.5 -141t-145.5 -50z" />
    <glyph glyph-name="T" unicode="T" horiz-adv-x="430" 
d="M144 0v610h-134v110h410v-110h-134v-610h-142z" />
    <glyph glyph-name="U" unicode="U" horiz-adv-x="498" 
d="M249 -10q-100 0 -151.5 58.5t-51.5 158.5v513h142v-546q0 -36 16.5 -54t44.5 -18q29 0 45 18t16 54v546h142v-513q0 -100 -51.5 -158.5t-151.5 -58.5z" />
    <glyph glyph-name="V" unicode="V" horiz-adv-x="490" 
d="M153 0l-141 720h143l98 -621h-5l97 621h133l-141 -720h-184z" />
    <glyph glyph-name="W" unicode="W" horiz-adv-x="679" 
d="M108 0l-86 720h133l57 -686h-18l76 686h144l76 -686h-18l57 686h128l-86 -720h-174l-71 692h28l-72 -692h-174z" />
    <glyph glyph-name="X" unicode="X" horiz-adv-x="469" 
d="M313 0l-122 320l-170 400h150l111 -293l181 -427h-150zM222 442l104 278h137l-189 -446zM249 275l-106 -275h-137l191 443z" />
    <glyph glyph-name="Y" unicode="Y" horiz-adv-x="506" 
d="M182 0v306l-174 414h156l134 -376h-69l133 376h136l-174 -414v-306h-142z" />
    <glyph glyph-name="Z" unicode="Z" horiz-adv-x="453" 
d="M42 0v100l211 528l18 -18h-221v110h361v-80l-223 -548l-18 18h245v-110h-373z" />
    <glyph glyph-name="bracketleft" unicode="[" horiz-adv-x="376" 
d="M70 -108v858h266v-108h-136v-642h136v-108h-266z" />
    <glyph glyph-name="backslash" unicode="\" horiz-adv-x="306" 
d="M35 770h116l120 -850h-116z" />
    <glyph glyph-name="bracketright" unicode="]" horiz-adv-x="376" 
d="M306 750v-858h-266v108h136v642h-136v108h266z" />
    <glyph glyph-name="asciicircum" unicode="^" horiz-adv-x="551" 
d="M189 491h-94l123 249h115l123 -249h-94l-117 208h61z" />
    <glyph glyph-name="underscore" unicode="_" horiz-adv-x="366" 
d="M0 -158v108h366v-108h-366z" />
    <glyph glyph-name="grave" unicode="`" horiz-adv-x="354" 
d="M182 583l-122 157h168l62 -157h-108z" />
    <glyph glyph-name="a" unicode="a" horiz-adv-x="418" 
d="M262 0q-7 18 -9.5 39.5t-2.5 45.5h-4v271q0 35 -9.5 49.5t-30.5 14.5t-32 -16t-11 -48h-121q0 71 47 117.5t127 46.5q78 0 120 -42t42 -118v-275q0 -21 2.5 -42.5t9.5 -42.5h-128zM140 -10q-46 0 -77 35t-31 96q0 55 24 91.5t87 68.5l137 70v-103l-57 -31
q-32 -17 -45.5 -36.5t-13.5 -43.5q0 -23 11 -35t29 -12t30 10.5t12 26.5l9 -55q-16 -43 -45 -62.5t-70 -19.5z" />
    <glyph glyph-name="b" unicode="b" 
d="M293 -10q-44 0 -81 29t-45 83h7v-102h-130v720h138v-309l-8 1q10 52 46 80t80 28q48 0 82.5 -31t53 -88.5t18.5 -138.5q0 -83 -20 -144.5t-56 -94.5t-85 -33zM244 100q32 0 50 38.5t18 118.5t-17.5 116.5t-49.5 36.5q-31 0 -49.5 -38.5t-18.5 -118.5q0 -79 18 -116
t49 -37z" />
    <glyph glyph-name="c" unicode="c" horiz-adv-x="418" 
d="M215 -10q-55 0 -99 31t-69.5 90.5t-25.5 145.5t26.5 144.5t72 88.5t100.5 30q51 0 92 -23t64.5 -70t23.5 -119h-122q0 59 -15.5 81.5t-38.5 22.5q-16 0 -30.5 -12.5t-23.5 -46t-9 -96.5q0 -64 9 -98.5t23.5 -47.5t30.5 -13q23 0 38.5 22.5t15.5 81.5h122
q0 -71 -25.5 -118t-67.5 -70.5t-92 -23.5z" />
    <glyph glyph-name="d" unicode="d" 
d="M302 0v99l8 -1q-10 -52 -46.5 -80t-84.5 -28t-82.5 31t-53 88.5t-18.5 138.5q0 84 20 145t56 94t85 33q44 0 81 -29t45 -83h-15v312h138v-720h-133zM234 100q32 0 50 38.5t18 118.5t-17.5 116.5t-49.5 36.5q-31 0 -49.5 -38.5t-18.5 -118.5q0 -79 18 -116t49 -37z" />
    <glyph glyph-name="e" unicode="e" horiz-adv-x="440" 
d="M225 -10q-61 0 -107 33.5t-71.5 93.5t-25.5 140q0 81 26 140t73 91t111 32q61 0 102.5 -29.5t63.5 -85.5t22 -136q0 -14 -0.5 -26t-2.5 -22h-311v89h223l-28 -31q0 75 -18 108t-52 33t-52 -38.5t-18 -124.5q0 -88 17 -127.5t53 -39.5q26 0 40 18t19 54h122
q-13 -75 -59 -123.5t-127 -48.5z" />
    <glyph glyph-name="f" unicode="f" horiz-adv-x="301" 
d="M67 0v576q0 77 41.5 115.5t123.5 38.5q17 0 30 -1.5t25 -5.5v-105q-5 2 -12 3t-15 1q-28 0 -41.5 -13t-13.5 -37v-572h-138zM10 402v108h273v-108h-273z" />
    <glyph glyph-name="g" unicode="g" 
d="M241 -215q-85 0 -137.5 46t-56.5 123h130q2 -23 18.5 -37t41.5 -14q27 0 43.5 18t16.5 49v147h7q-7 -50 -38.5 -79.5t-78.5 -29.5q-49 0 -85.5 31t-56.5 88t-20 134q0 80 21 138t59 89.5t90 31.5q50 0 80 -29t37 -83h-7v102h130v-512q0 -102 -50.5 -157.5t-143.5 -55.5z
M234 118q32 0 50 37t18 111t-17.5 109t-49.5 35q-31 0 -49.5 -37t-18.5 -111q0 -73 18 -108.5t49 -35.5z" />
    <glyph glyph-name="h" unicode="h" horiz-adv-x="462" 
d="M44 0v720h138v-720h-138zM284 0v360q0 26 -11 38t-32 12q-19 0 -32.5 -10t-20 -26t-6.5 -36l-18 73q20 53 56 81t88 28q53 0 83.5 -34t30.5 -95v-391h-138z" />
    <glyph glyph-name="i" unicode="i" horiz-adv-x="226" 
d="M44 0v510h138v-510h-138zM41 573v147h144v-147h-144z" />
    <glyph glyph-name="j" unicode="j" horiz-adv-x="226" 
d="M35 -215q-17 0 -30 1.5t-25 5.5v105q5 -2 12 -3t15 -1q16 0 26.5 7.5t10.5 25.5v584h138v-594q0 -63 -36.5 -97t-110.5 -34zM41 573v147h144v-147h-144z" />
    <glyph glyph-name="k" unicode="k" horiz-adv-x="439" 
d="M44 0v720h138v-720h-138zM283 0l-112 265l106 245h142l-133 -268l2 47l141 -289h-146z" />
    <glyph glyph-name="l" unicode="l" horiz-adv-x="226" 
d="M44 0v720h138v-720h-138z" />
    <glyph glyph-name="m" unicode="m" horiz-adv-x="680" 
d="M44 0v510h133v-96h5v-414h-138zM273 0v360q0 26 -9 38t-28 12q-17 0 -29 -9t-18.5 -25t-6.5 -38l-18 73q20 58 55 83.5t84 25.5t78.5 -34t29.5 -95v-391h-138zM502 0v360q0 26 -9 38t-28 12q-17 0 -29 -9t-18.5 -25t-6.5 -38l-18 73q20 58 55 83.5t84 25.5t78.5 -34
t29.5 -95v-391h-138z" />
    <glyph glyph-name="n" unicode="n" horiz-adv-x="462" 
d="M44 0v510h133v-96h5v-414h-138zM284 0v360q0 26 -11 38t-32 12q-19 0 -32.5 -10t-20 -26t-6.5 -36l-18 73q20 53 56 81t88 28q53 0 83.5 -34t30.5 -95v-391h-138z" />
    <glyph glyph-name="o" unicode="o" horiz-adv-x="460" 
d="M230 -10q-62 0 -109.5 33t-73.5 93t-26 141t26 140t73 91t110 32t110 -32t73 -91t26 -140t-26 -141t-73 -93t-110 -33zM230 98q20 0 35 15t23.5 50t8.5 94q0 86 -18.5 120.5t-48.5 34.5t-48.5 -34.5t-18.5 -120.5q0 -59 8.5 -94t23.5 -50t35 -15z" />
    <glyph glyph-name="p" unicode="p" 
d="M293 -10q-44 0 -81 29t-45 83h15v-307h-138v715h133v-99l-8 1q10 52 46.5 80t84.5 28t82.5 -31t53 -88.5t18.5 -138.5q0 -83 -20 -144.5t-56 -94.5t-85 -33zM244 100q33 0 50.5 38.5t17.5 118.5t-17 116.5t-50 36.5t-50.5 -38.5t-17.5 -118.5q0 -79 17 -116t50 -37z" />
    <glyph glyph-name="q" unicode="q" 
d="M297 -205v304l13 -1q-10 -52 -46.5 -80t-84.5 -28t-82.5 31t-53 88.5t-18.5 138.5q0 84 20 145t57.5 94t89.5 33q44 0 78 -29t42 -83h-10v102h133v-715h-138zM234 100q33 0 50.5 38.5t17.5 118.5t-17 116.5t-50 36.5t-50.5 -38.5t-17.5 -118.5q0 -79 17 -116t50 -37z" />
    <glyph glyph-name="r" unicode="r" horiz-adv-x="312" 
d="M44 0v510h133v-126h5v-384h-138zM182 290l-16 91q14 75 42.5 107t69.5 32q11 0 20 -3v-137q-3 1 -9 1.5t-16 0.5q-41 0 -66 -20t-25 -72z" />
    <glyph glyph-name="s" unicode="s" horiz-adv-x="367" 
d="M190 -10q-77 0 -121.5 44t-48.5 125h111q3 -34 19.5 -51.5t42.5 -17.5q19 0 30.5 10t11.5 29q0 18 -9.5 31t-41.5 32l-59 35q-42 25 -64 61t-22 87q0 64 41 104.5t107 40.5q72 0 113 -40.5t45 -112.5h-111q-2 29 -13 41t-28 12q-16 0 -27 -9.5t-11 -27.5q0 -16 10 -29.5
t36 -28.5l67 -39q38 -22 60.5 -61t22.5 -88q0 -67 -42.5 -107t-118.5 -40z" />
    <glyph glyph-name="t" unicode="t" horiz-adv-x="313" 
d="M228 -10q-78 0 -115.5 37.5t-37.5 114.5v467l138 61v-528q0 -22 12.5 -33t38.5 -11q10 0 18.5 2t16.5 6v-104q-10 -6 -29 -9t-42 -3zM10 402v108h285v-108h-285z" />
    <glyph glyph-name="u" unicode="u" horiz-adv-x="454" 
d="M150 -10q-33 0 -58 14t-38.5 41.5t-13.5 67.5v397h138v-362q0 -24 10.5 -36t28.5 -12t30 10t18.5 26.5t6.5 35.5l18 -73q-19 -52 -54.5 -80.5t-85.5 -28.5zM277 0v96h-5v414h138v-510h-133z" />
    <glyph glyph-name="v" unicode="v" horiz-adv-x="426" 
d="M138 0l-124 510h142l69 -435h-19l68 435h138l-124 -510h-150z" />
    <glyph glyph-name="w" unicode="w" horiz-adv-x="668" 
d="M131 0l-107 510h136l54 -367h-9l61 367h140l62 -367h-9l53 367h132l-107 -510h-150l-58 361h10l-58 -361h-150z" />
    <glyph glyph-name="x" unicode="x" horiz-adv-x="424" 
d="M270 0l-92 217l-151 293h142l81 -195l162 -315h-142zM190 312l84 198h136l-160 -310zM230 187l-82 -187h-136l157 299z" />
    <glyph glyph-name="y" unicode="y" horiz-adv-x="426" 
d="M103 -205l75 296l24 29l74 390h136l-180 -715h-129zM167 -16l-153 526h147l91 -451z" />
    <glyph glyph-name="z" unicode="z" horiz-adv-x="399" 
d="M35 0v98l175 320l15 -16h-182v108h322v-78l-187 -340l-15 16h206v-108h-334z" />
    <glyph glyph-name="braceleft" unicode="{" horiz-adv-x="376" 
d="M237 -109q-57 0 -92.5 20t-48.5 57t-3 89l23 122q9 46 -8 67t-59 21h-29v107h29q42 0 59 21t8 67l-23 122q-10 52 3 89t48.5 57t92.5 20h99v-108h-75q-28 0 -42.5 -15t-8.5 -44l21 -104q12 -59 -0.5 -101t-56.5 -57q44 -16 56.5 -58t0.5 -101l-21 -104q-6 -28 8.5 -43.5
t42.5 -15.5h75v-108h-99z" />
    <glyph glyph-name="bar" unicode="|" horiz-adv-x="220" 
d="M50 -130v920h120v-920h-120z" />
    <glyph glyph-name="braceright" unicode="}" horiz-adv-x="376" 
d="M139 750q57 0 92.5 -20t48.5 -57t3 -89l-23 -122q-9 -46 8 -67t59 -21h29v-107h-29q-42 0 -59 -21t-8 -67l23 -122q10 -52 -3 -89t-48.5 -57t-92.5 -20h-99v108h75q28 0 42.5 15.5t8.5 43.5l-21 104q-12 59 1 101t56 57q-43 16 -56 58t-1 101l21 104q6 29 -8.5 44
t-42.5 15h-75v108h99z" />
    <glyph glyph-name="asciitilde" unicode="~" horiz-adv-x="551" 
d="M357 277q32 0 59.5 15.5t45 49t17.5 86.5h-80q0 -26 -11 -39.5t-30 -13.5q-18 0 -35.5 9.5t-36.5 22t-41.5 22t-50.5 9.5q-31 0 -58.5 -15.5t-45 -48.5t-17.5 -87h80q0 26 11 39.5t31 13.5q18 0 35 -9.5t35.5 -22t41 -22t50.5 -9.5z" />
    <glyph glyph-name="uni00A0" unicode="&#xa0;" horiz-adv-x="140" 
 />
    <glyph glyph-name="exclamdown" unicode="&#xa1;" horiz-adv-x="258" 
d="M51 -203l22 459h112l22 -459h-156zM208 510v-158h-158v158h158z" />
    <glyph glyph-name="cent" unicode="&#xa2;" horiz-adv-x="418" 
d="M160 482v134h112v-134h-112zM272 20v-129h-112v129h112zM215 -10q-55 0 -99 31t-69.5 90.5t-25.5 145.5t26.5 144.5t72 88.5t100.5 30q51 0 92 -23t64.5 -70t23.5 -119h-122q0 59 -15.5 81.5t-38.5 22.5q-16 0 -30.5 -12.5t-23.5 -46t-9 -96.5q0 -64 9 -98.5t23.5 -47.5
t30.5 -13q23 0 38.5 22.5t15.5 81.5h122q0 -71 -25.5 -118t-67.5 -70.5t-92 -23.5z" />
    <glyph glyph-name="sterling" unicode="&#xa3;" horiz-adv-x="446" 
d="M30 0v120q35 55 48 99t13 81t-9 69.5t-21.5 63t-21.5 62t-9 67.5q0 49 23 87t65.5 59.5t99.5 21.5q58 0 102.5 -24.5t70 -72t25.5 -117.5h-129q0 51 -16.5 78.5t-45.5 27.5q-25 0 -40 -14t-15 -50q0 -25 7.5 -52t18 -56t18 -63t7.5 -73q0 -46 -15.5 -101.5t-56.5 -123.5
l-13 31h260v-120h-366zM10 292v98h329v-98h-329z" />
    <glyph glyph-name="yen" unicode="&#xa5;" horiz-adv-x="466" 
d="M162 0v296l-154 424h156l126 -416h-93l125 416h136l-154 -424v-296h-142zM29 242v98h409v-98h-409zM202 382h-173v98h150zM310 480h128v-98h-159z" />
    <glyph glyph-name="section" unicode="&#xa7;" horiz-adv-x="369" 
d="M185 235l3 65q19 0 30.5 10t11.5 29q0 18 -9.5 31t-41.5 32l-59 35q-42 25 -64 61t-22 87q0 64 41 104.5t107 40.5q72 0 113 -40.5t45 -112.5h-111q-2 29 -13 41t-28 12q-16 0 -27 -9.5t-11 -27.5q0 -16 10 -29.5t36 -28.5l67 -39q38 -22 60.5 -51t22.5 -78
q0 -55 -42.5 -93.5t-118.5 -38.5zM188 -28q-72 0 -112.5 40.5t-45.5 112.5h111q2 -29 13.5 -41t27.5 -12q17 0 27.5 9.5t10.5 27.5q0 17 -10 30t-36 28l-67 39q-38 23 -60.5 51.5t-22.5 77.5q0 56 42.5 94t118.5 38l-3 -65q-19 0 -30.5 -10t-11.5 -29q0 -18 10 -31t41 -32
l59 -35q42 -25 64 -61t22 -87q0 -64 -41 -104.5t-107 -40.5z" />
    <glyph glyph-name="dieresis" unicode="&#xa8;" horiz-adv-x="469" 
d="M268 575v145h141v-145h-141zM60 575v145h141v-145h-141z" />
    <glyph glyph-name="copyright" unicode="&#xa9;" horiz-adv-x="810" 
d="M405 -15q-78 0 -146 29t-119.5 80.5t-80.5 119.5t-29 146t29 146t80.5 119.5t119.5 80.5t146 29t146 -29t119.5 -80.5t80.5 -119.5t29 -146t-29 -146t-80.5 -119.5t-119.5 -80.5t-146 -29zM405 50q64 0 119.5 24t98 67t66.5 99t24 120t-24 120t-66.5 99t-98 67t-119.5 24
t-119.5 -24t-98 -67t-66.5 -99t-24 -120t24 -120t66.5 -99t98 -67t119.5 -24zM413 140q-62 0 -111 28.5t-76.5 79t-27.5 114.5t27.5 113t76 77t111.5 28q80 0 134 -45.5t64 -119.5h-92q-7 41 -36 64.5t-70 23.5q-54 0 -88 -38.5t-34 -102.5t34.5 -104.5t89.5 -40.5
q38 0 66.5 24t37.5 64h93q-12 -75 -66.5 -120t-132.5 -45z" />
    <glyph glyph-name="ordfeminine" unicode="&#xaa;" horiz-adv-x="281" 
d="M169 418q-4 11 -5.5 25.5t-1.5 25.5h-2v160q0 15 -4.5 22.5t-14.5 7.5t-16 -7.5t-6 -20.5h-81q0 42 29 70.5t78 28.5q48 0 74 -25.5t26 -72.5v-163q0 -12 2 -25t6 -26h-84zM96 412q-26 0 -45 21t-19 58q0 32 14 56t52 43l84 44v-73l-47 -26q-8 -4 -12.5 -10.5t-4.5 -17.5
t5.5 -17.5t15.5 -6.5q9 0 15 4t6 11l5 -38q-9 -23 -25.5 -35.5t-43.5 -12.5z" />
    <glyph glyph-name="guillemotleft" unicode="&#xab;" horiz-adv-x="464" 
d="M137 68l-102 183l102 183h112l-98 -183l98 -183h-112zM307 68l-102 183l102 183h112l-98 -183l98 -183h-112z" />
    <glyph glyph-name="registered" unicode="&#xae;" horiz-adv-x="810" 
d="M405 -15q-78 0 -146 29t-119.5 80.5t-80.5 119.5t-29 146t29 146t80.5 119.5t119.5 80.5t146 29t146 -29t119.5 -80.5t80.5 -119.5t29 -146t-29 -146t-80.5 -119.5t-119.5 -80.5t-146 -29zM405 50q64 0 119.5 24t98 67t66.5 99t24 120t-24 120t-66.5 99t-98 67t-119.5 24
t-119.5 -24t-98 -67t-66.5 -99t-24 -120t24 -120t66.5 -99t98 -67t119.5 -24zM240 145v430h198q70 0 109 -31.5t39 -87.5q0 -87 -114 -111v16q51 2 79 -23t28 -71v-71q0 -10 1.5 -22.5t3.5 -28.5h-93q-2 8 -3 20.5t-1 30.5v46q0 41 -17.5 60.5t-55.5 19.5h-138v73h157
q29 0 45 13.5t16 39.5q0 25 -15.5 38t-45.5 13h-101v-354h-92z" />
    <glyph glyph-name="macron" unicode="&#xaf;" horiz-adv-x="411" 
d="M60 622v98h287v-98h-287z" />
    <glyph glyph-name="degree" unicode="&#xb0;" horiz-adv-x="366" 
d="M184 449q-40 0 -73 19.5t-52 52.5t-19 72t19 71.5t52 51.5t73 19q41 0 73 -19t50.5 -51.5t18.5 -71.5t-18.5 -72t-50.5 -52.5t-73 -19.5zM185 510q34 0 56.5 24.5t22.5 58.5q0 33 -22.5 57t-56.5 24q-36 0 -59.5 -24t-23.5 -57q0 -34 23.5 -58.5t59.5 -24.5z" />
    <glyph glyph-name="acute" unicode="&#xb4;" horiz-adv-x="354" 
d="M168 583h-108l62 157h168z" />
    <glyph glyph-name="paragraph" unicode="&#xb6;" horiz-adv-x="553" 
d="M242 -130v456h-26q-57 0 -101.5 24.5t-69.5 68.5t-25 101q0 59 25 104t70 70.5t104 25.5h284v-850h-105v750h-51v-750h-105z" />
    <glyph glyph-name="periodcentered" unicode="&#xb7;" horiz-adv-x="158" 
d="M0 295v158h158v-158h-158z" />
    <glyph glyph-name="cedilla" unicode="&#xb8;" horiz-adv-x="301" 
d="M169 -215q-49 0 -78 24.5t-31 66.5h76q1 -10 10.5 -17.5t22.5 -7.5t20.5 7t7.5 19q0 17 -17.5 27t-55.5 13l17 95h70l-8 -48q34 -10 53 -34t19 -56q0 -40 -29.5 -64.5t-76.5 -24.5z" />
    <glyph glyph-name="ordmasculine" unicode="&#xba;" horiz-adv-x="322" 
d="M161 412q-38 0 -67.5 19.5t-46.5 55.5t-17 85q0 74 36.5 116t94.5 42q59 0 95 -42t36 -116q0 -73 -36.5 -116.5t-94.5 -43.5zM161 494q15 0 23.5 16t8.5 62q0 44 -8.5 60t-23.5 16t-23 -16t-8 -60q0 -45 8 -61.5t23 -16.5z" />
    <glyph glyph-name="guillemotright" unicode="&#xbb;" horiz-adv-x="464" 
d="M327 434l102 -183l-102 -183h-112l98 183l-98 183h112zM157 434l102 -183l-102 -183h-112l98 183l-98 183h112z" />
    <glyph glyph-name="questiondown" unicode="&#xbf;" horiz-adv-x="420" 
d="M202 -215q-55 0 -95 21.5t-61.5 59.5t-21.5 87q0 36 9 62t23.5 47t31 40t31 40.5t23.5 49t9 64.5h130q0 -47 -8.5 -81.5t-22 -60.5t-28 -45.5t-28 -37t-22 -35t-8.5 -39.5q0 -28 11.5 -41t30.5 -13q24 0 37.5 19.5t13.5 61.5h133q0 -64 -24 -108.5t-66.5 -67.5t-97.5 -23
zM296 510v-158h-158v158h158z" />
    <glyph glyph-name="Agrave" unicode="&#xc0;" horiz-adv-x="490" 
d="M12 0l141 720h105l-113 -720h-133zM335 0l-113 720h115l141 -720h-143zM110 265h270v-110h-270v110zM222 793l-122 157h168l62 -157h-108z" />
    <glyph glyph-name="Aacute" unicode="&#xc1;" horiz-adv-x="490" 
d="M12 0l141 720h105l-113 -720h-133zM335 0l-113 720h115l141 -720h-143zM110 265h270v-110h-270v110zM268 793h-108l62 157h168z" />
    <glyph glyph-name="Acircumflex" unicode="&#xc2;" horiz-adv-x="490" 
d="M12 0l141 720h105l-113 -720h-133zM335 0l-113 720h115l141 -720h-143zM110 265h270v-110h-270v110zM80 793l102 157h126l102 -157h-101l-114 117h100l-114 -117h-101z" />
    <glyph glyph-name="Atilde" unicode="&#xc3;" horiz-adv-x="490" 
d="M12 0l141 720h105l-113 -720h-133zM335 0l-113 720h115l141 -720h-143zM110 265h270v-110h-270v110zM308 811q-25 0 -42 6t-29.5 14.5t-24 14.5t-25.5 6t-24 -8t-10 -28h-82q0 38 13 69t38.5 49t61.5 18q26 0 42 -6t27.5 -14.5t22.5 -14.5t26 -6q14 0 24 8t10 28h82
q0 -38 -13.5 -69t-38 -49t-58.5 -18z" />
    <glyph glyph-name="Adieresis" unicode="&#xc4;" horiz-adv-x="490" 
d="M12 0l141 720h105l-113 -720h-133zM335 0l-113 720h115l141 -720h-143zM110 265h270v-110h-270v110zM278 785v145h141v-145h-141zM70 785v145h141v-145h-141z" />
    <glyph glyph-name="Aring" unicode="&#xc5;" horiz-adv-x="490" 
d="M12 0l141 720h105l-113 -720h-133zM335 0l-113 720h115l141 -720h-143zM110 265h270v-110h-270v110zM245 771q-46 0 -77 31.5t-31 76.5q0 44 31 75.5t77 31.5t76.5 -31.5t30.5 -75.5q0 -45 -30.5 -76.5t-76.5 -31.5zM246 840q16 0 26 11.5t10 27.5t-10.5 27t-26.5 11
q-17 0 -27.5 -11t-10.5 -27t10.5 -27.5t28.5 -11.5z" />
    <glyph glyph-name="AE" unicode="&#xc6;" horiz-adv-x="710" 
d="M12 0l141 720h116l-123 -720h-134zM340 0v720h142v-720h-142zM412 0v110h260v-110h-260zM182 317v108h472v-108h-472zM182 610v110h482v-110h-482z" />
    <glyph glyph-name="Ccedilla" unicode="&#xc7;" horiz-adv-x="503" 
d="M259 -10q-55 0 -98 24t-72 71t-44 116t-15 159t15 159t44.5 116t73 71t99.5 24q68 0 115.5 -34.5t72.5 -99.5t25 -159h-140q0 94 -19 137.5t-57 43.5q-29 0 -48 -24.5t-28 -80t-9 -149.5t9.5 -152t28.5 -84t47 -26q37 0 56 45t19 136h141q0 -92 -25.5 -157.5t-74 -100.5
t-116.5 -35zM253 -215q-49 0 -78 24.5t-31 66.5h76q1 -10 10.5 -17.5t22.5 -7.5t20.5 7t7.5 19q0 17 -17.5 27t-55.5 13l17 95h70l-8 -48q34 -10 53 -34t19 -56q0 -40 -29.5 -64.5t-76.5 -24.5z" />
    <glyph glyph-name="Egrave" unicode="&#xc8;" horiz-adv-x="420" 
d="M50 0v720h142v-720h-142zM122 0v110h260v-110h-260zM122 317v108h242v-108h-242zM122 610v110h252v-110h-252zM197 793l-122 157h168l62 -157h-108z" />
    <glyph glyph-name="Eacute" unicode="&#xc9;" horiz-adv-x="420" 
d="M50 0v720h142v-720h-142zM122 0v110h260v-110h-260zM122 317v108h242v-108h-242zM122 610v110h252v-110h-252zM243 793h-108l62 157h168z" />
    <glyph glyph-name="Ecircumflex" unicode="&#xca;" horiz-adv-x="420" 
d="M50 0v720h142v-720h-142zM122 0v110h260v-110h-260zM122 317v108h242v-108h-242zM122 610v110h252v-110h-252zM55 793l102 157h126l102 -157h-101l-114 117h100l-114 -117h-101z" />
    <glyph glyph-name="Edieresis" unicode="&#xcb;" horiz-adv-x="420" 
d="M50 0v720h142v-720h-142zM122 0v110h260v-110h-260zM122 317v108h242v-108h-242zM122 610v110h252v-110h-252zM253 785v145h141v-145h-141zM45 785v145h141v-145h-141z" />
    <glyph glyph-name="Igrave" unicode="&#xcc;" horiz-adv-x="242" 
d="M50 0v720h142v-720h-142zM98 793l-122 157h168l62 -157h-108z" />
    <glyph glyph-name="Iacute" unicode="&#xcd;" horiz-adv-x="242" 
d="M50 0v720h142v-720h-142zM144 793h-108l62 157h168z" />
    <glyph glyph-name="Icircumflex" unicode="&#xce;" horiz-adv-x="242" 
d="M50 0v720h142v-720h-142zM-44 793l102 157h126l102 -157h-101l-114 117h100l-114 -117h-101z" />
    <glyph glyph-name="Idieresis" unicode="&#xcf;" horiz-adv-x="242" 
d="M50 0v720h142v-720h-142zM154 785v145h141v-145h-141zM-54 785v145h141v-145h-141z" />
    <glyph glyph-name="Eth" unicode="&#xd0;" horiz-adv-x="541" 
d="M10 307v110h277v-110h-277zM138 0v110h104q44 0 71.5 26t40.5 82t13 146q0 88 -13 142t-40.5 79t-71.5 25h-92v110h92q83 0 143.5 -40.5t93 -120.5t32.5 -197t-33 -198t-93 -122.5t-142 -41.5h-105zM60 0v720h142v-720h-142z" />
    <glyph glyph-name="Ntilde" unicode="&#xd1;" horiz-adv-x="519" 
d="M50 0v720h168l156 -616l-35 -2v618h130v-720h-168l-156 616l35 2v-618h-130zM323 811q-25 0 -42 6t-29.5 14.5t-24 14.5t-25.5 6t-24 -8t-10 -28h-82q0 38 13 69t38.5 49t61.5 18q26 0 42 -6t27.5 -14.5t22.5 -14.5t26 -6q14 0 24 8t10 28h82q0 -38 -13.5 -69t-38 -49
t-58.5 -18z" />
    <glyph glyph-name="Ograve" unicode="&#xd2;" horiz-adv-x="536" 
d="M268 -10q-58 0 -102.5 24t-74.5 71.5t-45.5 117t-15.5 160.5q0 120 27 201.5t80 123.5t130 42q79 0 132 -41.5t80 -123.5t27 -203q0 -91 -15.5 -160.5t-45.5 -116.5t-74.5 -71t-102.5 -24zM267 102q33 0 54 27.5t31 85.5t10 149q0 90 -10 146t-31 82t-54 26
q-32 0 -53 -26t-30.5 -81.5t-9.5 -146.5t10 -149t30.5 -85.5t52.5 -27.5zM245 793l-122 157h168l62 -157h-108z" />
    <glyph glyph-name="Oacute" unicode="&#xd3;" horiz-adv-x="536" 
d="M268 -10q-58 0 -102.5 24t-74.5 71.5t-45.5 117t-15.5 160.5q0 120 27 201.5t80 123.5t130 42q79 0 132 -41.5t80 -123.5t27 -203q0 -91 -15.5 -160.5t-45.5 -116.5t-74.5 -71t-102.5 -24zM267 102q33 0 54 27.5t31 85.5t10 149q0 90 -10 146t-31 82t-54 26
q-32 0 -53 -26t-30.5 -81.5t-9.5 -146.5t10 -149t30.5 -85.5t52.5 -27.5zM291 793h-108l62 157h168z" />
    <glyph glyph-name="Ocircumflex" unicode="&#xd4;" horiz-adv-x="536" 
d="M268 -10q-58 0 -102.5 24t-74.5 71.5t-45.5 117t-15.5 160.5q0 120 27 201.5t80 123.5t130 42q79 0 132 -41.5t80 -123.5t27 -203q0 -91 -15.5 -160.5t-45.5 -116.5t-74.5 -71t-102.5 -24zM267 102q33 0 54 27.5t31 85.5t10 149q0 90 -10 146t-31 82t-54 26
q-32 0 -53 -26t-30.5 -81.5t-9.5 -146.5t10 -149t30.5 -85.5t52.5 -27.5zM103 793l102 157h126l102 -157h-101l-114 117h100l-114 -117h-101z" />
    <glyph glyph-name="Otilde" unicode="&#xd5;" horiz-adv-x="536" 
d="M268 -10q-58 0 -102.5 24t-74.5 71.5t-45.5 117t-15.5 160.5q0 120 27 201.5t80 123.5t130 42q79 0 132 -41.5t80 -123.5t27 -203q0 -91 -15.5 -160.5t-45.5 -116.5t-74.5 -71t-102.5 -24zM267 102q33 0 54 27.5t31 85.5t10 149q0 90 -10 146t-31 82t-54 26
q-32 0 -53 -26t-30.5 -81.5t-9.5 -146.5t10 -149t30.5 -85.5t52.5 -27.5zM331 811q-25 0 -42 6t-29.5 14.5t-24 14.5t-25.5 6t-24 -8t-10 -28h-82q0 38 13 69t38.5 49t61.5 18q26 0 42 -6t27.5 -14.5t22.5 -14.5t26 -6q14 0 24 8t10 28h82q0 -38 -13.5 -69t-38 -49
t-58.5 -18z" />
    <glyph glyph-name="Odieresis" unicode="&#xd6;" horiz-adv-x="536" 
d="M268 -10q-58 0 -102.5 24t-74.5 71.5t-45.5 117t-15.5 160.5q0 120 27 201.5t80 123.5t130 42q79 0 132 -41.5t80 -123.5t27 -203q0 -91 -15.5 -160.5t-45.5 -116.5t-74.5 -71t-102.5 -24zM267 102q33 0 54 27.5t31 85.5t10 149q0 90 -10 146t-31 82t-54 26
q-32 0 -53 -26t-30.5 -81.5t-9.5 -146.5t10 -149t30.5 -85.5t52.5 -27.5zM301 785v145h141v-145h-141zM93 785v145h141v-145h-141z" />
    <glyph glyph-name="multiply" unicode="&#xd7;" horiz-adv-x="551" 
d="M430 149l-377 377l69 69l377 -377zM122 149l-69 69l377 377l69 -69z" />
    <glyph glyph-name="Oslash" unicode="&#xd8;" horiz-adv-x="536" 
d="M82 -10l-76 51l448 689l76 -51zM268 -10q-58 0 -102.5 24t-74.5 71.5t-45.5 117t-15.5 160.5q0 120 27 201.5t80 123.5t130 42q79 0 132 -41.5t80 -123.5t27 -203q0 -91 -15.5 -160.5t-45.5 -116.5t-74.5 -71t-102.5 -24zM267 102q33 0 54 27.5t31 85.5t10 149
q0 90 -10 146t-31 82t-54 26q-32 0 -53 -26t-30.5 -81.5t-9.5 -146.5t10 -149t30.5 -85.5t52.5 -27.5z" />
    <glyph glyph-name="Ugrave" unicode="&#xd9;" horiz-adv-x="498" 
d="M249 -10q-100 0 -151.5 58.5t-51.5 158.5v513h142v-546q0 -36 16.5 -54t44.5 -18q29 0 45 18t16 54v546h142v-513q0 -100 -51.5 -158.5t-151.5 -58.5zM226 793l-122 157h168l62 -157h-108z" />
    <glyph glyph-name="Uacute" unicode="&#xda;" horiz-adv-x="498" 
d="M249 -10q-100 0 -151.5 58.5t-51.5 158.5v513h142v-546q0 -36 16.5 -54t44.5 -18q29 0 45 18t16 54v546h142v-513q0 -100 -51.5 -158.5t-151.5 -58.5zM272 793h-108l62 157h168z" />
    <glyph glyph-name="Ucircumflex" unicode="&#xdb;" horiz-adv-x="498" 
d="M249 -10q-100 0 -151.5 58.5t-51.5 158.5v513h142v-546q0 -36 16.5 -54t44.5 -18q29 0 45 18t16 54v546h142v-513q0 -100 -51.5 -158.5t-151.5 -58.5zM84 793l102 157h126l102 -157h-101l-114 117h100l-114 -117h-101z" />
    <glyph glyph-name="Udieresis" unicode="&#xdc;" horiz-adv-x="498" 
d="M249 -10q-100 0 -151.5 58.5t-51.5 158.5v513h142v-546q0 -36 16.5 -54t44.5 -18q29 0 45 18t16 54v546h142v-513q0 -100 -51.5 -158.5t-151.5 -58.5zM282 785v145h141v-145h-141zM74 785v145h141v-145h-141z" />
    <glyph glyph-name="Yacute" unicode="&#xdd;" horiz-adv-x="506" 
d="M182 0v306l-174 414h156l134 -376h-69l133 376h136l-174 -414v-306h-142zM276 793h-108l62 157h168z" />
    <glyph glyph-name="Thorn" unicode="&#xde;" horiz-adv-x="468" 
d="M160 160v110h58q39 0 63.5 22t24.5 78t-24.5 78t-63.5 22h-58v110h61q63 0 114.5 -24.5t82 -71t30.5 -114.5q0 -67 -30.5 -114t-82 -71.5t-114.5 -24.5h-61zM50 0v720h142v-720h-142z" />
    <glyph glyph-name="germandbls" unicode="&#xdf;" horiz-adv-x="492" 
d="M277 -10q-16 0 -30.5 3t-25.5 9v104q8 -4 17 -6t20 -2q32 0 49 26.5t17 84.5q0 62 -17.5 92t-58.5 30h-27v108h18q20 0 33.5 11t20 31.5t6.5 51.5q0 44 -14.5 66.5t-42.5 22.5q-29 0 -44.5 -24t-15.5 -76v-522h-138v526q0 92 50 148t147 56q61 0 104.5 -25t67.5 -67.5
t24 -95.5q0 -46 -18 -83t-46 -58.5t-60 -21.5v21q43 0 77 -26t54 -71t20 -104q0 -65 -24 -112t-66.5 -72t-96.5 -25z" />
    <glyph glyph-name="agrave" unicode="&#xe0;" horiz-adv-x="418" 
d="M262 0q-7 18 -9.5 39.5t-2.5 45.5h-4v271q0 35 -9.5 49.5t-30.5 14.5t-32 -16t-11 -48h-121q0 71 47 117.5t127 46.5q78 0 120 -42t42 -118v-275q0 -21 2.5 -42.5t9.5 -42.5h-128zM140 -10q-46 0 -77 35t-31 96q0 55 24 91.5t87 68.5l137 70v-103l-57 -31
q-32 -17 -45.5 -36.5t-13.5 -43.5q0 -23 11 -35t29 -12t30 10.5t12 26.5l9 -55q-16 -43 -45 -62.5t-70 -19.5zM186 583l-122 157h168l62 -157h-108z" />
    <glyph glyph-name="aacute" unicode="&#xe1;" horiz-adv-x="418" 
d="M262 0q-7 18 -9.5 39.5t-2.5 45.5h-4v271q0 35 -9.5 49.5t-30.5 14.5t-32 -16t-11 -48h-121q0 71 47 117.5t127 46.5q78 0 120 -42t42 -118v-275q0 -21 2.5 -42.5t9.5 -42.5h-128zM140 -10q-46 0 -77 35t-31 96q0 55 24 91.5t87 68.5l137 70v-103l-57 -31
q-32 -17 -45.5 -36.5t-13.5 -43.5q0 -23 11 -35t29 -12t30 10.5t12 26.5l9 -55q-16 -43 -45 -62.5t-70 -19.5zM232 583h-108l62 157h168z" />
    <glyph glyph-name="acircumflex" unicode="&#xe2;" horiz-adv-x="418" 
d="M262 0q-7 18 -9.5 39.5t-2.5 45.5h-4v271q0 35 -9.5 49.5t-30.5 14.5t-32 -16t-11 -48h-121q0 71 47 117.5t127 46.5q78 0 120 -42t42 -118v-275q0 -21 2.5 -42.5t9.5 -42.5h-128zM140 -10q-46 0 -77 35t-31 96q0 55 24 91.5t87 68.5l137 70v-103l-57 -31
q-32 -17 -45.5 -36.5t-13.5 -43.5q0 -23 11 -35t29 -12t30 10.5t12 26.5l9 -55q-16 -43 -45 -62.5t-70 -19.5zM44 583l102 157h126l102 -157h-101l-114 117h100l-114 -117h-101z" />
    <glyph glyph-name="atilde" unicode="&#xe3;" horiz-adv-x="418" 
d="M262 0q-7 18 -9.5 39.5t-2.5 45.5h-4v271q0 35 -9.5 49.5t-30.5 14.5t-32 -16t-11 -48h-121q0 71 47 117.5t127 46.5q78 0 120 -42t42 -118v-275q0 -21 2.5 -42.5t9.5 -42.5h-128zM140 -10q-46 0 -77 35t-31 96q0 55 24 91.5t87 68.5l137 70v-103l-57 -31
q-32 -17 -45.5 -36.5t-13.5 -43.5q0 -23 11 -35t29 -12t30 10.5t12 26.5l9 -55q-16 -43 -45 -62.5t-70 -19.5zM272 601q-25 0 -42 6t-29.5 14.5t-24 14.5t-25.5 6t-24 -8t-10 -28h-82q0 38 13 69t38.5 49t61.5 18q26 0 42 -6t27.5 -14.5t22.5 -14.5t26 -6q14 0 24 8t10 28
h82q0 -38 -13.5 -69t-38 -49t-58.5 -18z" />
    <glyph glyph-name="adieresis" unicode="&#xe4;" horiz-adv-x="418" 
d="M262 0q-7 18 -9.5 39.5t-2.5 45.5h-4v271q0 35 -9.5 49.5t-30.5 14.5t-32 -16t-11 -48h-121q0 71 47 117.5t127 46.5q78 0 120 -42t42 -118v-275q0 -21 2.5 -42.5t9.5 -42.5h-128zM140 -10q-46 0 -77 35t-31 96q0 55 24 91.5t87 68.5l137 70v-103l-57 -31
q-32 -17 -45.5 -36.5t-13.5 -43.5q0 -23 11 -35t29 -12t30 10.5t12 26.5l9 -55q-16 -43 -45 -62.5t-70 -19.5zM242 575v145h141v-145h-141zM34 575v145h141v-145h-141z" />
    <glyph glyph-name="aring" unicode="&#xe5;" horiz-adv-x="418" 
d="M262 0q-7 18 -9.5 39.5t-2.5 45.5h-4v271q0 35 -9.5 49.5t-30.5 14.5t-32 -16t-11 -48h-121q0 71 47 117.5t127 46.5q78 0 120 -42t42 -118v-275q0 -21 2.5 -42.5t9.5 -42.5h-128zM140 -10q-46 0 -77 35t-31 96q0 55 24 91.5t87 68.5l137 70v-103l-57 -31
q-32 -17 -45.5 -36.5t-13.5 -43.5q0 -23 11 -35t29 -12t30 10.5t12 26.5l9 -55q-16 -43 -45 -62.5t-70 -19.5zM209 561q-46 0 -77 31.5t-31 76.5q0 44 31 75.5t77 31.5t76.5 -31.5t30.5 -75.5q0 -45 -30.5 -76.5t-76.5 -31.5zM210 630q16 0 26 11.5t10 27.5t-10.5 27
t-26.5 11q-17 0 -27.5 -11t-10.5 -27t10.5 -27.5t28.5 -11.5z" />
    <glyph glyph-name="ae" unicode="&#xe6;" horiz-adv-x="658" 
d="M258 105v251q0 35 -9.5 49.5t-32.5 14.5q-22 0 -34.5 -16t-12.5 -48h-121q0 71 47.5 117.5t129.5 46.5q80 0 122.5 -42t42.5 -118v-255h-132zM172 -10q-61 0 -100.5 37.5t-39.5 98.5q0 59 32.5 102t114.5 64l113 29v-93l-66 -17q-31 -8 -46.5 -24t-15.5 -43
q0 -26 13.5 -40t32.5 -14q13 0 24 5t17.5 15.5t6.5 26.5l79 -25q-31 -73 -72.5 -97.5t-92.5 -24.5zM449 -10q-58 0 -100 33.5t-65 93.5t-23 140q0 81 23 140t66.5 91t104.5 32q58 0 98.5 -29.5t62 -85.5t21.5 -136q0 -14 -0.5 -26t-2.5 -22h-299v89h211l-20 -31
q0 75 -16.5 108t-51.5 33q-23 0 -38 -17t-22.5 -52.5t-7.5 -93.5q0 -88 16.5 -127.5t49.5 -39.5q23 0 37 18t19 54h117q-13 -75 -58 -123.5t-122 -48.5z" />
    <glyph glyph-name="ccedilla" unicode="&#xe7;" horiz-adv-x="418" 
d="M215 -10q-55 0 -99 31t-69.5 90.5t-25.5 145.5t26.5 144.5t72 88.5t100.5 30q51 0 92 -23t64.5 -70t23.5 -119h-122q0 59 -15.5 81.5t-38.5 22.5q-16 0 -30.5 -12.5t-23.5 -46t-9 -96.5q0 -64 9 -98.5t23.5 -47.5t30.5 -13q23 0 38.5 22.5t15.5 81.5h122
q0 -71 -25.5 -118t-67.5 -70.5t-92 -23.5zM210 -215q-49 0 -78 24.5t-31 66.5h76q1 -10 10.5 -17.5t22.5 -7.5t20.5 7t7.5 19q0 17 -17.5 27t-55.5 13l17 95h70l-8 -48q34 -10 53 -34t19 -56q0 -40 -29.5 -64.5t-76.5 -24.5z" />
    <glyph glyph-name="egrave" unicode="&#xe8;" horiz-adv-x="440" 
d="M225 -10q-61 0 -107 33.5t-71.5 93.5t-25.5 140q0 81 26 140t73 91t111 32q61 0 102.5 -29.5t63.5 -85.5t22 -136q0 -14 -0.5 -26t-2.5 -22h-311v89h223l-28 -31q0 75 -18 108t-52 33t-52 -38.5t-18 -124.5q0 -88 17 -127.5t53 -39.5q26 0 40 18t19 54h122
q-13 -75 -59 -123.5t-127 -48.5zM208 583l-122 157h168l62 -157h-108z" />
    <glyph glyph-name="eacute" unicode="&#xe9;" horiz-adv-x="440" 
d="M225 -10q-61 0 -107 33.5t-71.5 93.5t-25.5 140q0 81 26 140t73 91t111 32q61 0 102.5 -29.5t63.5 -85.5t22 -136q0 -14 -0.5 -26t-2.5 -22h-311v89h223l-28 -31q0 75 -18 108t-52 33t-52 -38.5t-18 -124.5q0 -88 17 -127.5t53 -39.5q26 0 40 18t19 54h122
q-13 -75 -59 -123.5t-127 -48.5zM254 583h-108l62 157h168z" />
    <glyph glyph-name="ecircumflex" unicode="&#xea;" horiz-adv-x="440" 
d="M225 -10q-61 0 -107 33.5t-71.5 93.5t-25.5 140q0 81 26 140t73 91t111 32q61 0 102.5 -29.5t63.5 -85.5t22 -136q0 -14 -0.5 -26t-2.5 -22h-311v89h223l-28 -31q0 75 -18 108t-52 33t-52 -38.5t-18 -124.5q0 -88 17 -127.5t53 -39.5q26 0 40 18t19 54h122
q-13 -75 -59 -123.5t-127 -48.5zM66 583l102 157h126l102 -157h-101l-114 117h100l-114 -117h-101z" />
    <glyph glyph-name="edieresis" unicode="&#xeb;" horiz-adv-x="440" 
d="M225 -10q-61 0 -107 33.5t-71.5 93.5t-25.5 140q0 81 26 140t73 91t111 32q61 0 102.5 -29.5t63.5 -85.5t22 -136q0 -14 -0.5 -26t-2.5 -22h-311v89h223l-28 -31q0 75 -18 108t-52 33t-52 -38.5t-18 -124.5q0 -88 17 -127.5t53 -39.5q26 0 40 18t19 54h122
q-13 -75 -59 -123.5t-127 -48.5zM264 575v145h141v-145h-141zM56 575v145h141v-145h-141z" />
    <glyph glyph-name="igrave" unicode="&#xec;" horiz-adv-x="226" 
d="M44 0v510h138v-510h-138zM90 583l-122 157h168l62 -157h-108z" />
    <glyph glyph-name="iacute" unicode="&#xed;" horiz-adv-x="226" 
d="M44 0v510h138v-510h-138zM136 583h-108l62 157h168z" />
    <glyph glyph-name="icircumflex" unicode="&#xee;" horiz-adv-x="226" 
d="M44 0v510h138v-510h-138zM-52 583l102 157h126l102 -157h-101l-114 117h100l-114 -117h-101z" />
    <glyph glyph-name="idieresis" unicode="&#xef;" horiz-adv-x="226" 
d="M44 0v510h138v-510h-138zM146 575v145h141v-145h-141zM-62 575v145h141v-145h-141z" />
    <glyph glyph-name="eth" unicode="&#xf0;" horiz-adv-x="471" 
d="M235 -10q-65 0 -112 30t-72 90t-25 148q0 83 26 138t70 82.5t97 27.5q36 0 59 -14t37.5 -39.5t23.5 -60.5l-33 -61v23q0 102 -30 163.5t-85.5 89.5t-134.5 28l25 95q79 0 145.5 -24.5t116 -76t76.5 -132t27 -192.5q0 -151 -50.5 -233t-160.5 -82zM237 98q23 0 38.5 15.5
t24 50.5t8.5 92q0 58 -8.5 92t-24 49t-38.5 15q-34 0 -52.5 -35t-18.5 -122q0 -57 8.5 -91.5t24.5 -50t38 -15.5zM139 512l-42 71l275 172l42 -71z" />
    <glyph glyph-name="ntilde" unicode="&#xf1;" horiz-adv-x="462" 
d="M44 0v510h133v-96h5v-414h-138zM284 0v360q0 26 -11 38t-32 12q-19 0 -32.5 -10t-20 -26t-6.5 -36l-18 73q20 53 56 81t88 28q53 0 83.5 -34t30.5 -95v-391h-138zM308 601q-25 0 -42 6t-29.5 14.5t-24 14.5t-25.5 6t-24 -8t-10 -28h-82q0 38 13 69t38.5 49t61.5 18
q26 0 42 -6t27.5 -14.5t22.5 -14.5t26 -6q14 0 24 8t10 28h82q0 -38 -13.5 -69t-38 -49t-58.5 -18z" />
    <glyph glyph-name="ograve" unicode="&#xf2;" horiz-adv-x="460" 
d="M230 -10q-62 0 -109.5 33t-73.5 93t-26 141t26 140t73 91t110 32t110 -32t73 -91t26 -140t-26 -141t-73 -93t-110 -33zM230 98q20 0 35 15t23.5 50t8.5 94q0 86 -18.5 120.5t-48.5 34.5t-48.5 -34.5t-18.5 -120.5q0 -59 8.5 -94t23.5 -50t35 -15zM207 583l-122 157h168
l62 -157h-108z" />
    <glyph glyph-name="oacute" unicode="&#xf3;" horiz-adv-x="460" 
d="M230 -10q-62 0 -109.5 33t-73.5 93t-26 141t26 140t73 91t110 32t110 -32t73 -91t26 -140t-26 -141t-73 -93t-110 -33zM230 98q20 0 35 15t23.5 50t8.5 94q0 86 -18.5 120.5t-48.5 34.5t-48.5 -34.5t-18.5 -120.5q0 -59 8.5 -94t23.5 -50t35 -15zM253 583h-108l62 157
h168z" />
    <glyph glyph-name="ocircumflex" unicode="&#xf4;" horiz-adv-x="460" 
d="M230 -10q-62 0 -109.5 33t-73.5 93t-26 141t26 140t73 91t110 32t110 -32t73 -91t26 -140t-26 -141t-73 -93t-110 -33zM230 98q20 0 35 15t23.5 50t8.5 94q0 86 -18.5 120.5t-48.5 34.5t-48.5 -34.5t-18.5 -120.5q0 -59 8.5 -94t23.5 -50t35 -15zM65 583l102 157h126
l102 -157h-101l-114 117h100l-114 -117h-101z" />
    <glyph glyph-name="otilde" unicode="&#xf5;" horiz-adv-x="460" 
d="M230 -10q-62 0 -109.5 33t-73.5 93t-26 141t26 140t73 91t110 32t110 -32t73 -91t26 -140t-26 -141t-73 -93t-110 -33zM230 98q20 0 35 15t23.5 50t8.5 94q0 86 -18.5 120.5t-48.5 34.5t-48.5 -34.5t-18.5 -120.5q0 -59 8.5 -94t23.5 -50t35 -15zM293 601q-25 0 -42 6
t-29.5 14.5t-24 14.5t-25.5 6t-24 -8t-10 -28h-82q0 38 13 69t38.5 49t61.5 18q26 0 42 -6t27.5 -14.5t22.5 -14.5t26 -6q14 0 24 8t10 28h82q0 -38 -13.5 -69t-38 -49t-58.5 -18z" />
    <glyph glyph-name="odieresis" unicode="&#xf6;" horiz-adv-x="460" 
d="M230 -10q-62 0 -109.5 33t-73.5 93t-26 141t26 140t73 91t110 32t110 -32t73 -91t26 -140t-26 -141t-73 -93t-110 -33zM230 98q20 0 35 15t23.5 50t8.5 94q0 86 -18.5 120.5t-48.5 34.5t-48.5 -34.5t-18.5 -120.5q0 -59 8.5 -94t23.5 -50t35 -15zM263 575v145h141v-145
h-141zM55 575v145h141v-145h-141z" />
    <glyph glyph-name="divide" unicode="&#xf7;" horiz-adv-x="551" 
d="M50 322v98h451v-98h-451zM276 485q-29 0 -48.5 18.5t-19.5 49.5q0 29 19.5 48t48.5 19q26 0 46.5 -19t20.5 -48q0 -31 -20.5 -49.5t-46.5 -18.5zM276 123q-29 0 -48.5 18.5t-19.5 49.5q0 29 19.5 48t48.5 19q26 0 46.5 -19t20.5 -48q0 -31 -20.5 -49.5t-46.5 -18.5z" />
    <glyph glyph-name="oslash" unicode="&#xf8;" horiz-adv-x="460" 
d="M230 -10q-62 0 -109.5 33t-73.5 93t-26 141t26 140t73 91t110 32t110 -32t73 -91t26 -140t-26 -141t-73 -93t-110 -33zM230 85q24 0 40 16.5t24.5 54.5t8.5 101q0 94 -19 131t-54 37t-54 -37t-19 -131q0 -63 8.5 -101t25 -54.5t39.5 -16.5zM80 -5l-66 56l366 464l66 -56z
" />
    <glyph glyph-name="ugrave" unicode="&#xf9;" horiz-adv-x="454" 
d="M150 -10q-33 0 -58 14t-38.5 41.5t-13.5 67.5v397h138v-362q0 -24 10.5 -36t28.5 -12t30 10t18.5 26.5t6.5 35.5l18 -73q-19 -52 -54.5 -80.5t-85.5 -28.5zM277 0v96h-5v414h138v-510h-133zM204 583l-122 157h168l62 -157h-108z" />
    <glyph glyph-name="uacute" unicode="&#xfa;" horiz-adv-x="454" 
d="M150 -10q-33 0 -58 14t-38.5 41.5t-13.5 67.5v397h138v-362q0 -24 10.5 -36t28.5 -12t30 10t18.5 26.5t6.5 35.5l18 -73q-19 -52 -54.5 -80.5t-85.5 -28.5zM277 0v96h-5v414h138v-510h-133zM250 583h-108l62 157h168z" />
    <glyph glyph-name="ucircumflex" unicode="&#xfb;" horiz-adv-x="454" 
d="M150 -10q-33 0 -58 14t-38.5 41.5t-13.5 67.5v397h138v-362q0 -24 10.5 -36t28.5 -12t30 10t18.5 26.5t6.5 35.5l18 -73q-19 -52 -54.5 -80.5t-85.5 -28.5zM277 0v96h-5v414h138v-510h-133zM62 583l102 157h126l102 -157h-101l-114 117h100l-114 -117h-101z" />
    <glyph glyph-name="udieresis" unicode="&#xfc;" horiz-adv-x="454" 
d="M150 -10q-33 0 -58 14t-38.5 41.5t-13.5 67.5v397h138v-362q0 -24 10.5 -36t28.5 -12t30 10t18.5 26.5t6.5 35.5l18 -73q-19 -52 -54.5 -80.5t-85.5 -28.5zM277 0v96h-5v414h138v-510h-133zM260 575v145h141v-145h-141zM52 575v145h141v-145h-141z" />
    <glyph glyph-name="yacute" unicode="&#xfd;" horiz-adv-x="426" 
d="M103 -205l75 296l24 29l74 390h136l-180 -715h-129zM167 -16l-153 526h147l91 -451zM246 583h-108l62 157h168z" />
    <glyph glyph-name="thorn" unicode="&#xfe;" 
d="M293 -10q-44 0 -81 29t-45 83h15v-307h-138v925h138v-309l-13 1q10 52 46.5 80t84.5 28t82.5 -31t53 -88.5t18.5 -138.5q0 -83 -20 -144.5t-56 -94.5t-85 -33zM244 100q33 0 50.5 38.5t17.5 118.5t-17 116.5t-50 36.5t-50.5 -38.5t-17.5 -118.5q0 -79 17 -116t50 -37z
" />
    <glyph glyph-name="ydieresis" unicode="&#xff;" horiz-adv-x="426" 
d="M103 -205l75 296l24 29l74 390h136l-180 -715h-129zM167 -16l-153 526h147l91 -451zM256 575v145h141v-145h-141zM48 575v145h141v-145h-141z" />
    <glyph glyph-name="Amacron" unicode="&#x100;" horiz-adv-x="490" 
d="M12 0l141 720h105l-113 -720h-133zM335 0l-113 720h115l141 -720h-143zM110 265h270v-110h-270v110zM101 832v98h287v-98h-287z" />
    <glyph glyph-name="amacron" unicode="&#x101;" horiz-adv-x="418" 
d="M262 0q-7 18 -9.5 39.5t-2.5 45.5h-4v271q0 35 -9.5 49.5t-30.5 14.5t-32 -16t-11 -48h-121q0 71 47 117.5t127 46.5q78 0 120 -42t42 -118v-275q0 -21 2.5 -42.5t9.5 -42.5h-128zM140 -10q-46 0 -77 35t-31 96q0 55 24 91.5t87 68.5l137 70v-103l-57 -31
q-32 -17 -45.5 -36.5t-13.5 -43.5q0 -23 11 -35t29 -12t30 10.5t12 26.5l9 -55q-16 -43 -45 -62.5t-70 -19.5zM65 622v98h287v-98h-287z" />
    <glyph glyph-name="Abreve" unicode="&#x102;" horiz-adv-x="490" 
d="M12 0l141 720h105l-113 -720h-133zM335 0l-113 720h115l141 -720h-143zM110 265h270v-110h-270v110zM245 784q-41 0 -76.5 19.5t-57 56.5t-21.5 90h91q0 -23 16 -44.5t48 -21.5t48 21.5t16 44.5h91q0 -53 -21.5 -90t-57 -56.5t-76.5 -19.5z" />
    <glyph glyph-name="abreve" unicode="&#x103;" horiz-adv-x="418" 
d="M262 0q-7 18 -9.5 39.5t-2.5 45.5h-4v271q0 35 -9.5 49.5t-30.5 14.5t-32 -16t-11 -48h-121q0 71 47 117.5t127 46.5q78 0 120 -42t42 -118v-275q0 -21 2.5 -42.5t9.5 -42.5h-128zM140 -10q-46 0 -77 35t-31 96q0 55 24 91.5t87 68.5l137 70v-103l-57 -31
q-32 -17 -45.5 -36.5t-13.5 -43.5q0 -23 11 -35t29 -12t30 10.5t12 26.5l9 -55q-16 -43 -45 -62.5t-70 -19.5zM209 574q-41 0 -76.5 19.5t-57 56.5t-21.5 90h91q0 -23 16 -44.5t48 -21.5t48 21.5t16 44.5h91q0 -53 -21.5 -90t-57 -56.5t-76.5 -19.5z" />
    <glyph glyph-name="Aogonek" unicode="&#x104;" horiz-adv-x="490" 
d="M12 0l141 720h105l-113 -720h-133zM335 0l-113 720h115l141 -720h-143zM110 265h270v-110h-270v110zM408 -216q-46 0 -70 23t-24 61q0 44 33 81.5t84 67.5l47 -17q-44 -38 -65 -67t-21 -54q0 -16 8 -22.5t19 -6.5q17 0 35 14l27 -60q-14 -9 -32.5 -14.5t-40.5 -5.5z" />
    <glyph glyph-name="aogonek" unicode="&#x105;" horiz-adv-x="418" 
d="M262 0q-7 18 -9.5 39.5t-2.5 45.5h-4v271q0 35 -9.5 49.5t-30.5 14.5t-32 -16t-11 -48h-121q0 71 47 117.5t127 46.5q78 0 120 -42t42 -118v-275q0 -21 2.5 -42.5t9.5 -42.5h-128zM140 -10q-46 0 -77 35t-31 96q0 55 24 91.5t87 68.5l137 70v-103l-57 -31
q-32 -17 -45.5 -36.5t-13.5 -43.5q0 -23 11 -35t29 -12t30 10.5t12 26.5l9 -55q-16 -43 -45 -62.5t-70 -19.5zM320 -216q-46 0 -70 23t-24 61q0 44 33 81.5t84 67.5l47 -17q-44 -38 -65 -67t-21 -54q0 -16 8 -22.5t19 -6.5q17 0 35 14l27 -60q-14 -9 -32.5 -14.5t-40.5 -5.5
z" />
    <glyph glyph-name="Cacute" unicode="&#x106;" horiz-adv-x="503" 
d="M259 -10q-55 0 -98 24t-72 71t-44 116t-15 159t15 159t44.5 116t73 71t99.5 24q68 0 115.5 -34.5t72.5 -99.5t25 -159h-140q0 94 -19 137.5t-57 43.5q-29 0 -48 -24.5t-28 -80t-9 -149.5t9.5 -152t28.5 -84t47 -26q37 0 56 45t19 136h141q0 -92 -25.5 -157.5t-74 -100.5
t-116.5 -35zM285 793h-108l62 157h168z" />
    <glyph glyph-name="cacute" unicode="&#x107;" horiz-adv-x="418" 
d="M215 -10q-55 0 -99 31t-69.5 90.5t-25.5 145.5t26.5 144.5t72 88.5t100.5 30q51 0 92 -23t64.5 -70t23.5 -119h-122q0 59 -15.5 81.5t-38.5 22.5q-16 0 -30.5 -12.5t-23.5 -46t-9 -96.5q0 -64 9 -98.5t23.5 -47.5t30.5 -13q23 0 38.5 22.5t15.5 81.5h122
q0 -71 -25.5 -118t-67.5 -70.5t-92 -23.5zM242 583h-108l62 157h168z" />
    <glyph glyph-name="Cdotaccent" unicode="&#x10a;" horiz-adv-x="503" 
d="M259 -10q-55 0 -98 24t-72 71t-44 116t-15 159t15 159t44.5 116t73 71t99.5 24q68 0 115.5 -34.5t72.5 -99.5t25 -159h-140q0 94 -19 137.5t-57 43.5q-29 0 -48 -24.5t-28 -80t-9 -149.5t9.5 -152t28.5 -84t47 -26q37 0 56 45t19 136h141q0 -92 -25.5 -157.5t-74 -100.5
t-116.5 -35zM190 783v147h144v-147h-144z" />
    <glyph glyph-name="cdotaccent" unicode="&#x10b;" horiz-adv-x="418" 
d="M215 -10q-55 0 -99 31t-69.5 90.5t-25.5 145.5t26.5 144.5t72 88.5t100.5 30q51 0 92 -23t64.5 -70t23.5 -119h-122q0 59 -15.5 81.5t-38.5 22.5q-16 0 -30.5 -12.5t-23.5 -46t-9 -96.5q0 -64 9 -98.5t23.5 -47.5t30.5 -13q23 0 38.5 22.5t15.5 81.5h122
q0 -71 -25.5 -118t-67.5 -70.5t-92 -23.5zM147 573v147h144v-147h-144z" />
    <glyph glyph-name="Ccaron" unicode="&#x10c;" horiz-adv-x="503" 
d="M259 -10q-55 0 -98 24t-72 71t-44 116t-15 159t15 159t44.5 116t73 71t99.5 24q68 0 115.5 -34.5t72.5 -99.5t25 -159h-140q0 94 -19 137.5t-57 43.5q-29 0 -48 -24.5t-28 -80t-9 -149.5t9.5 -152t28.5 -84t47 -26q37 0 56 45t19 136h141q0 -92 -25.5 -157.5t-74 -100.5
t-116.5 -35zM199 793l-102 157h101l114 -117h-100l114 117h101l-102 -157h-126z" />
    <glyph glyph-name="ccaron" unicode="&#x10d;" horiz-adv-x="418" 
d="M215 -10q-55 0 -99 31t-69.5 90.5t-25.5 145.5t26.5 144.5t72 88.5t100.5 30q51 0 92 -23t64.5 -70t23.5 -119h-122q0 59 -15.5 81.5t-38.5 22.5q-16 0 -30.5 -12.5t-23.5 -46t-9 -96.5q0 -64 9 -98.5t23.5 -47.5t30.5 -13q23 0 38.5 22.5t15.5 81.5h122
q0 -71 -25.5 -118t-67.5 -70.5t-92 -23.5zM156 583l-102 157h101l114 -117h-100l114 117h101l-102 -157h-126z" />
    <glyph glyph-name="Dcaron" unicode="&#x10e;" horiz-adv-x="531" 
d="M128 0v110h104q44 0 71.5 26t40.5 82t13 146q0 88 -13 142t-40.5 79t-71.5 25h-92v110h92q83 0 143.5 -40.5t93 -120.5t32.5 -197t-33 -198t-93 -122.5t-142 -41.5h-105zM50 0v720h142v-720h-142zM203 793l-102 157h101l114 -117h-100l114 117h101l-102 -157h-126z" />
    <glyph glyph-name="dcaron" unicode="&#x10f;" horiz-adv-x="593" 
d="M302 0v99l8 -1q-10 -52 -46.5 -80t-84.5 -28t-82.5 31t-53 88.5t-18.5 138.5q0 84 20 145t56 94t85 33q44 0 81 -29t45 -83h-15v312h138v-720h-133zM234 100q32 0 50 38.5t18 118.5t-17.5 116.5t-49.5 36.5q-31 0 -49.5 -38.5t-18.5 -118.5q0 -79 18 -116t49 -37z
M569 483h-90v237h116z" />
    <glyph glyph-name="Dcroat" unicode="&#x110;" horiz-adv-x="541" 
d="M10 307v110h277v-110h-277zM138 0v110h104q44 0 71.5 26t40.5 82t13 146q0 88 -13 142t-40.5 79t-71.5 25h-92v110h92q83 0 143.5 -40.5t93 -120.5t32.5 -197t-33 -198t-93 -122.5t-142 -41.5h-105zM60 0v720h142v-720h-142z" />
    <glyph glyph-name="dcroat" unicode="&#x111;" 
d="M172 578v93h307v-93h-307zM302 0v99l8 -1q-10 -52 -46.5 -80t-84.5 -28t-82.5 31t-53 88.5t-18.5 138.5q0 84 20 145t56 94t85 33q44 0 81 -29t45 -83h-15v312h138v-720h-133zM234 100q32 0 50 38.5t18 118.5t-17.5 116.5t-49.5 36.5q-31 0 -49.5 -38.5t-18.5 -118.5
q0 -79 18 -116t49 -37z" />
    <glyph glyph-name="Emacron" unicode="&#x112;" horiz-adv-x="420" 
d="M50 0v720h142v-720h-142zM122 0v110h260v-110h-260zM122 317v108h242v-108h-242zM122 610v110h252v-110h-252zM76 832v98h287v-98h-287z" />
    <glyph glyph-name="emacron" unicode="&#x113;" horiz-adv-x="440" 
d="M225 -10q-61 0 -107 33.5t-71.5 93.5t-25.5 140q0 81 26 140t73 91t111 32q61 0 102.5 -29.5t63.5 -85.5t22 -136q0 -14 -0.5 -26t-2.5 -22h-311v89h223l-28 -31q0 75 -18 108t-52 33t-52 -38.5t-18 -124.5q0 -88 17 -127.5t53 -39.5q26 0 40 18t19 54h122
q-13 -75 -59 -123.5t-127 -48.5zM87 622v98h287v-98h-287z" />
    <glyph glyph-name="Edotaccent" unicode="&#x116;" horiz-adv-x="420" 
d="M50 0v720h142v-720h-142zM122 0v110h260v-110h-260zM122 317v108h242v-108h-242zM122 610v110h252v-110h-252zM148 783v147h144v-147h-144z" />
    <glyph glyph-name="edotaccent" unicode="&#x117;" horiz-adv-x="440" 
d="M225 -10q-61 0 -107 33.5t-71.5 93.5t-25.5 140q0 81 26 140t73 91t111 32q61 0 102.5 -29.5t63.5 -85.5t22 -136q0 -14 -0.5 -26t-2.5 -22h-311v89h223l-28 -31q0 75 -18 108t-52 33t-52 -38.5t-18 -124.5q0 -88 17 -127.5t53 -39.5q26 0 40 18t19 54h122
q-13 -75 -59 -123.5t-127 -48.5zM159 573v147h144v-147h-144z" />
    <glyph glyph-name="Eogonek" unicode="&#x118;" horiz-adv-x="420" 
d="M50 0v720h142v-720h-142zM122 0v110h260v-110h-260zM122 317v108h242v-108h-242zM122 610v110h252v-110h-252zM272 -216q-46 0 -70 23t-24 61q0 44 33 81.5t84 67.5l47 -17q-44 -38 -65 -67t-21 -54q0 -16 8 -22.5t19 -6.5q17 0 35 14l27 -60q-14 -9 -32.5 -14.5
t-40.5 -5.5z" />
    <glyph glyph-name="eogonek" unicode="&#x119;" horiz-adv-x="440" 
d="M225 -10q-61 0 -107 33.5t-71.5 93.5t-25.5 140q0 81 26 140t73 91t111 32q61 0 102.5 -29.5t63.5 -85.5t22 -136q0 -14 -0.5 -26t-2.5 -22h-311v89h223l-28 -31q0 75 -18 108t-52 33t-52 -38.5t-18 -124.5q0 -88 17 -127.5t53 -39.5q26 0 40 18t19 54h122
q-13 -75 -59 -123.5t-127 -48.5zM259 -196q-46 0 -70 23t-24 61q0 44 33 81.5t84 67.5l47 -17q-44 -38 -65 -67t-21 -54q0 -16 8 -22.5t19 -6.5q17 0 35 14l27 -60q-14 -9 -32.5 -14.5t-40.5 -5.5z" />
    <glyph glyph-name="Ecaron" unicode="&#x11a;" horiz-adv-x="420" 
d="M50 0v720h142v-720h-142zM122 0v110h260v-110h-260zM122 317v108h242v-108h-242zM122 610v110h252v-110h-252zM157 793l-102 157h101l114 -117h-100l114 117h101l-102 -157h-126z" />
    <glyph glyph-name="ecaron" unicode="&#x11b;" horiz-adv-x="440" 
d="M225 -10q-61 0 -107 33.5t-71.5 93.5t-25.5 140q0 81 26 140t73 91t111 32q61 0 102.5 -29.5t63.5 -85.5t22 -136q0 -14 -0.5 -26t-2.5 -22h-311v89h223l-28 -31q0 75 -18 108t-52 33t-52 -38.5t-18 -124.5q0 -88 17 -127.5t53 -39.5q26 0 40 18t19 54h122
q-13 -75 -59 -123.5t-127 -48.5zM168 583l-102 157h101l114 -117h-100l114 117h101l-102 -157h-126z" />
    <glyph glyph-name="Gbreve" unicode="&#x11e;" horiz-adv-x="513" 
d="M271 -10q-80 0 -134 39.5t-80.5 119.5t-26.5 201q0 124 27.5 208.5t80.5 128t131 43.5q67 0 112.5 -30.5t69.5 -89t24 -143.5h-140q0 80 -17.5 115.5t-54.5 35.5q-31 0 -50.5 -27t-29 -84.5t-9.5 -149.5q0 -95 10.5 -151t34.5 -80t63 -24q17 0 29.5 4.5t22.5 14.5
l141 -33q-26 -45 -81.5 -71.5t-122.5 -26.5zM333 78v238l31 -31h-105v110h216v-307zM267 784q-41 0 -76.5 19.5t-57 56.5t-21.5 90h91q0 -23 16 -44.5t48 -21.5t48 21.5t16 44.5h91q0 -53 -21.5 -90t-57 -56.5t-76.5 -19.5z" />
    <glyph glyph-name="gbreve" unicode="&#x11f;" 
d="M241 -215q-85 0 -137.5 46t-56.5 123h130q2 -23 18.5 -37t41.5 -14q27 0 43.5 18t16.5 49v147h7q-7 -50 -38.5 -79.5t-78.5 -29.5q-49 0 -85.5 31t-56.5 88t-20 134q0 80 21 138t59 89.5t90 31.5q50 0 80 -29t37 -83h-7v102h130v-512q0 -102 -50.5 -157.5t-143.5 -55.5z
M234 118q32 0 50 37t18 111t-17.5 109t-49.5 35q-31 0 -49.5 -37t-18.5 -111q0 -73 18 -108.5t49 -35.5zM235 574q-41 0 -76.5 19.5t-57 56.5t-21.5 90h91q0 -23 16 -44.5t48 -21.5t48 21.5t16 44.5h91q0 -53 -21.5 -90t-57 -56.5t-76.5 -19.5z" />
    <glyph glyph-name="Gdotaccent" unicode="&#x120;" horiz-adv-x="513" 
d="M271 -10q-80 0 -134 39.5t-80.5 119.5t-26.5 201q0 124 27.5 208.5t80.5 128t131 43.5q67 0 112.5 -30.5t69.5 -89t24 -143.5h-140q0 80 -17.5 115.5t-54.5 35.5q-31 0 -50.5 -27t-29 -84.5t-9.5 -149.5q0 -95 10.5 -151t34.5 -80t63 -24q17 0 29.5 4.5t22.5 14.5
l141 -33q-26 -45 -81.5 -71.5t-122.5 -26.5zM333 78v238l31 -31h-105v110h216v-307zM195 783v147h144v-147h-144z" />
    <glyph glyph-name="gdotaccent" unicode="&#x121;" 
d="M241 -215q-85 0 -137.5 46t-56.5 123h130q2 -23 18.5 -37t41.5 -14q27 0 43.5 18t16.5 49v147h7q-7 -50 -38.5 -79.5t-78.5 -29.5q-49 0 -85.5 31t-56.5 88t-20 134q0 80 21 138t59 89.5t90 31.5q50 0 80 -29t37 -83h-7v102h130v-512q0 -102 -50.5 -157.5t-143.5 -55.5z
M234 118q32 0 50 37t18 111t-17.5 109t-49.5 35q-31 0 -49.5 -37t-18.5 -111q0 -73 18 -108.5t49 -35.5zM163 573v147h144v-147h-144z" />
    <glyph glyph-name="uni0122" unicode="&#x122;" horiz-adv-x="513" 
d="M271 -10q-80 0 -134 39.5t-80.5 119.5t-26.5 201q0 124 27.5 208.5t80.5 128t131 43.5q67 0 112.5 -30.5t69.5 -89t24 -143.5h-140q0 80 -17.5 115.5t-54.5 35.5q-31 0 -50.5 -27t-29 -84.5t-9.5 -149.5q0 -95 10.5 -151t34.5 -80t63 -24q17 0 29.5 4.5t22.5 14.5
l141 -33q-26 -45 -81.5 -71.5t-122.5 -26.5zM333 78v238l31 -31h-105v110h216v-307zM197 -339v62q34 5 51 22.5t17 53.5l50 -10h-118v137h140v-100q0 -66 -38 -110t-102 -55z" />
    <glyph glyph-name="uni0123" unicode="&#x123;" 
d="M241 -215q-85 0 -137.5 46t-56.5 123h130q2 -23 18.5 -37t41.5 -14q27 0 43.5 18t16.5 49v147h7q-7 -50 -38.5 -79.5t-78.5 -29.5q-49 0 -85.5 31t-56.5 88t-20 134q0 80 21 138t59 89.5t90 31.5q50 0 80 -29t37 -83h-7v102h130v-512q0 -102 -50.5 -157.5t-143.5 -55.5z
M234 118q32 0 50 37t18 111t-17.5 109t-49.5 35q-31 0 -49.5 -37t-18.5 -111q0 -73 18 -108.5t49 -35.5zM165 584v100q0 66 38 110t102 55v-62q-34 -4 -51 -22t-17 -54l-50 10h118v-137h-140z" />
    <glyph glyph-name="Hbar" unicode="&#x126;" horiz-adv-x="534" 
d="M10 527v110h514v-110h-514zM60 0v720h142v-720h-142zM332 0v720h142v-720h-142zM132 430h270v-110h-270v110z" />
    <glyph glyph-name="hbar" unicode="&#x127;" horiz-adv-x="462" 
d="M0 578v93h307v-93h-307zM44 0v720h138v-720h-138zM284 0v360q0 26 -11 38t-32 12q-19 0 -32.5 -10t-20 -26t-6.5 -36l-18 73q20 53 56 81t88 28q53 0 83.5 -34t30.5 -95v-391h-138z" />
    <glyph glyph-name="Imacron" unicode="&#x12a;" horiz-adv-x="242" 
d="M50 0v720h142v-720h-142zM-23 832v98h287v-98h-287z" />
    <glyph glyph-name="imacron" unicode="&#x12b;" horiz-adv-x="226" 
d="M44 0v510h138v-510h-138zM-31 622v98h287v-98h-287z" />
    <glyph glyph-name="Iogonek" unicode="&#x12e;" horiz-adv-x="242" 
d="M50 0v720h142v-720h-142zM122 -216q-46 0 -70 23t-24 61q0 44 33 81.5t84 67.5l47 -17q-44 -38 -65 -67t-21 -54q0 -16 8 -22.5t19 -6.5q17 0 35 14l27 -60q-14 -9 -32.5 -14.5t-40.5 -5.5z" />
    <glyph glyph-name="iogonek" unicode="&#x12f;" horiz-adv-x="226" 
d="M44 0v510h138v-510h-138zM41 573v147h144v-147h-144zM112 -216q-46 0 -70 23t-24 61q0 44 33 81.5t84 67.5l47 -17q-44 -38 -65 -67t-21 -54q0 -16 8 -22.5t19 -6.5q17 0 35 14l27 -60q-14 -9 -32.5 -14.5t-40.5 -5.5z" />
    <glyph glyph-name="Idotaccent" unicode="&#x130;" horiz-adv-x="242" 
d="M50 0v720h142v-720h-142zM49 783v147h144v-147h-144z" />
    <glyph glyph-name="dotlessi" unicode="&#x131;" horiz-adv-x="226" 
d="M44 0v510h138v-510h-138z" />
    <glyph glyph-name="IJ" unicode="&#x132;" horiz-adv-x="544" 
d="M50 0v720h142v-720h-142zM329 -10q-27 0 -46 3.5t-31 9.5v107q8 -3 20 -5.5t24 -2.5q28 0 44 11.5t16 36.5v570h142v-590q0 -75 -47.5 -107.5t-121.5 -32.5z" />
    <glyph glyph-name="ij" unicode="&#x133;" horiz-adv-x="452" 
d="M44 0v510h138v-510h-138zM41 573v147h144v-147h-144zM261 -215q-17 0 -30 1.5t-25 5.5v105q5 -2 12 -3t15 -1q16 0 26.5 7.5t10.5 25.5v584h138v-594q0 -63 -36.5 -97t-110.5 -34zM267 573v147h144v-147h-144z" />
    <glyph glyph-name="uni0136" unicode="&#x136;" horiz-adv-x="504" 
d="M50 0v720h142v-720h-142zM176 374l149 346h147l-159 -346h-137zM338 0l-167 374h142l179 -374h-154zM192 -339v62q34 5 51 22.5t17 53.5l50 -10h-118v137h140v-100q0 -66 -38 -110t-102 -55z" />
    <glyph glyph-name="uni0137" unicode="&#x137;" horiz-adv-x="439" 
d="M44 0v720h138v-720h-138zM283 0l-112 265l106 245h142l-133 -268l2 47l141 -289h-146zM160 -339v62q34 5 51 22.5t17 53.5l50 -10h-118v137h140v-100q0 -66 -38 -110t-102 -55z" />
    <glyph glyph-name="Lacute" unicode="&#x139;" horiz-adv-x="390" 
d="M50 0v720h142v-720h-142zM122 0v110h236v-110h-236zM142 793h-108l62 157h168z" />
    <glyph glyph-name="lacute" unicode="&#x13a;" horiz-adv-x="226" 
d="M44 0v720h138v-720h-138zM136 793h-108l62 157h168z" />
    <glyph glyph-name="uni013B" unicode="&#x13b;" horiz-adv-x="390" 
d="M50 0v720h142v-720h-142zM122 0v110h236v-110h-236zM138 -339v62q34 5 51 22.5t17 53.5l50 -10h-118v137h140v-100q0 -66 -38 -110t-102 -55z" />
    <glyph glyph-name="uni013C" unicode="&#x13c;" horiz-adv-x="226" 
d="M44 0v720h138v-720h-138zM43 -339v62q34 5 51 22.5t17 53.5l50 -10h-118v137h140v-100q0 -66 -38 -110t-102 -55z" />
    <glyph glyph-name="Lcaron" unicode="&#x13d;" horiz-adv-x="390" 
d="M50 0v720h142v-720h-142zM122 0v110h236v-110h-236zM354 483h-90v237h116z" />
    <glyph glyph-name="lcaron" unicode="&#x13e;" horiz-adv-x="340" 
d="M44 0v720h138v-720h-138zM316 483h-90v237h116z" />
    <glyph glyph-name="Lslash" unicode="&#x141;" horiz-adv-x="400" 
d="M138 320l-138 -67v105l138 67v-105zM148 435l150 74v-105l-150 -74v105zM60 0v720h142v-720h-142zM132 0v110h236v-110h-236z" />
    <glyph glyph-name="lslash" unicode="&#x142;" horiz-adv-x="266" 
d="M138 330l-128 -62v95l128 62v-95zM138 435l118 58v-95l-118 -58v95zM64 0v720h138v-720h-138z" />
    <glyph glyph-name="Nacute" unicode="&#x143;" horiz-adv-x="519" 
d="M50 0v720h168l156 -616l-35 -2v618h130v-720h-168l-156 616l35 2v-618h-130zM283 793h-108l62 157h168z" />
    <glyph glyph-name="nacute" unicode="&#x144;" horiz-adv-x="462" 
d="M44 0v510h133v-96h5v-414h-138zM284 0v360q0 26 -11 38t-32 12q-19 0 -32.5 -10t-20 -26t-6.5 -36l-18 73q20 53 56 81t88 28q53 0 83.5 -34t30.5 -95v-391h-138zM268 583h-108l62 157h168z" />
    <glyph glyph-name="uni0145" unicode="&#x145;" horiz-adv-x="519" 
d="M50 0v720h168l156 -616l-35 -2v618h130v-720h-168l-156 616l35 2v-618h-130zM190 -339v62q34 5 51 22.5t17 53.5l50 -10h-118v137h140v-100q0 -66 -38 -110t-102 -55z" />
    <glyph glyph-name="uni0146" unicode="&#x146;" horiz-adv-x="462" 
d="M44 0v510h133v-96h5v-414h-138zM284 0v360q0 26 -11 38t-32 12q-19 0 -32.5 -10t-20 -26t-6.5 -36l-18 73q20 53 56 81t88 28q53 0 83.5 -34t30.5 -95v-391h-138zM165 -339v62q34 5 51 22.5t17 53.5l50 -10h-118v137h140v-100q0 -66 -38 -110t-102 -55z" />
    <glyph glyph-name="Ncaron" unicode="&#x147;" horiz-adv-x="519" 
d="M50 0v720h168l156 -616l-35 -2v618h130v-720h-168l-156 616l35 2v-618h-130zM197 793l-102 157h101l114 -117h-100l114 117h101l-102 -157h-126z" />
    <glyph glyph-name="ncaron" unicode="&#x148;" horiz-adv-x="462" 
d="M44 0v510h133v-96h5v-414h-138zM284 0v360q0 26 -11 38t-32 12q-19 0 -32.5 -10t-20 -26t-6.5 -36l-18 73q20 53 56 81t88 28q53 0 83.5 -34t30.5 -95v-391h-138zM182 583l-102 157h101l114 -117h-100l114 117h101l-102 -157h-126z" />
    <glyph glyph-name="Eng" unicode="&#x14a;" horiz-adv-x="519" 
d="M50 0v720h168l156 -506l-35 -2v508h130v-720h-135l-178 586l24 2v-588h-130zM312 -215q-25 0 -41.5 2.5t-28.5 6.5v109q5 -2 15 -4t21 -2q25 0 39 10.5t14 35.5v88h138v-100q0 -70 -38 -108t-119 -38z" />
    <glyph glyph-name="eng" unicode="&#x14b;" horiz-adv-x="462" 
d="M275 -215q-17 0 -30 1.5t-25 5.5v105q5 -2 12 -3t15 -1q16 0 26.5 7.5t10.5 25.5v434q0 26 -11 38t-32 12q-19 0 -32.5 -10t-20 -26t-6.5 -36l-18 73q20 53 56 81t88 28q53 0 83.5 -34t30.5 -95v-475q0 -63 -36.5 -97t-110.5 -34zM44 0v510h133v-96h5v-414h-138z" />
    <glyph glyph-name="Omacron" unicode="&#x14c;" horiz-adv-x="536" 
d="M268 -10q-58 0 -102.5 24t-74.5 71.5t-45.5 117t-15.5 160.5q0 120 27 201.5t80 123.5t130 42q79 0 132 -41.5t80 -123.5t27 -203q0 -91 -15.5 -160.5t-45.5 -116.5t-74.5 -71t-102.5 -24zM267 102q33 0 54 27.5t31 85.5t10 149q0 90 -10 146t-31 82t-54 26
q-32 0 -53 -26t-30.5 -81.5t-9.5 -146.5t10 -149t30.5 -85.5t52.5 -27.5zM124 832v98h287v-98h-287z" />
    <glyph glyph-name="omacron" unicode="&#x14d;" horiz-adv-x="460" 
d="M230 -10q-62 0 -109.5 33t-73.5 93t-26 141t26 140t73 91t110 32t110 -32t73 -91t26 -140t-26 -141t-73 -93t-110 -33zM230 98q20 0 35 15t23.5 50t8.5 94q0 86 -18.5 120.5t-48.5 34.5t-48.5 -34.5t-18.5 -120.5q0 -59 8.5 -94t23.5 -50t35 -15zM86 622v98h287v-98h-287
z" />
    <glyph glyph-name="Ohungarumlaut" unicode="&#x150;" horiz-adv-x="536" 
d="M268 -10q-58 0 -102.5 24t-74.5 71.5t-45.5 117t-15.5 160.5q0 120 27 201.5t80 123.5t130 42q79 0 132 -41.5t80 -123.5t27 -203q0 -91 -15.5 -160.5t-45.5 -116.5t-74.5 -71t-102.5 -24zM267 102q33 0 54 27.5t31 85.5t10 149q0 90 -10 146t-31 82t-54 26
q-32 0 -53 -26t-30.5 -81.5t-9.5 -146.5t10 -149t30.5 -85.5t52.5 -27.5zM221 793h-98l32 157h138zM404 793h-98l32 157h138z" />
    <glyph glyph-name="ohungarumlaut" unicode="&#x151;" horiz-adv-x="460" 
d="M230 -10q-62 0 -109.5 33t-73.5 93t-26 141t26 140t73 91t110 32t110 -32t73 -91t26 -140t-26 -141t-73 -93t-110 -33zM230 98q20 0 35 15t23.5 50t8.5 94q0 86 -18.5 120.5t-48.5 34.5t-48.5 -34.5t-18.5 -120.5q0 -59 8.5 -94t23.5 -50t35 -15zM183 583h-98l32 157h138
zM366 583h-98l32 157h138z" />
    <glyph glyph-name="OE" unicode="&#x152;" horiz-adv-x="704" 
d="M277 -10q-77 0 -132.5 42t-85 124.5t-29.5 204.5q0 121 29.5 203t85 124t132.5 42q50 0 84 -12t63 -37l-68 -82q-10 8 -29 13.5t-42 5.5q-40 0 -64.5 -26t-35.5 -82.5t-11 -148.5q0 -93 11 -150t35.5 -83t64.5 -26q23 0 42 5.5t29 13.5l68 -82q-29 -25 -63 -37t-84 -12z
M344 0v720h314v-110h-172v-185h162v-108h-162v-207h180v-110h-322z" />
    <glyph glyph-name="oe" unicode="&#x153;" horiz-adv-x="676" 
d="M220 -10q-57 0 -102 33t-71 93t-26 141t25.5 140t70.5 91t103 32t99 -32t63 -91t22 -140t-22 -141t-63 -93t-99 -33zM220 98q17 0 29.5 15t20 50t7.5 94q0 58 -5.5 91.5t-17.5 48.5t-34 15q-16 0 -29 -15t-20.5 -48.5t-7.5 -91.5q0 -59 7.5 -94t20.5 -50t29 -15zM471 -10
q-56 0 -96 33.5t-61.5 93.5t-21.5 140q0 81 21.5 140t63 91t100.5 32q56 0 95.5 -29.5t61 -85.5t21.5 -136q0 -14 -0.5 -26t-2.5 -22h-291v89h203l-26 -31q0 75 -15.5 108t-44.5 33q-20 0 -34 -17t-21 -52.5t-7 -93.5t7 -95t20.5 -54.5t32.5 -17.5q18 0 31 18t18 54h122
q-13 -75 -57.5 -123.5t-118.5 -48.5z" />
    <glyph glyph-name="Racute" unicode="&#x154;" horiz-adv-x="468" 
d="M50 0v720h181q62 0 108.5 -27t72.5 -74.5t26 -110.5q0 -62 -25.5 -109t-72 -73.5t-109.5 -26.5h-71v102h64q35 0 55.5 28t20.5 77t-20.5 76.5t-55.5 27.5h-32v-610h-142zM312 0l-140 374h135l159 -374h-154zM257 793h-108l62 157h168z" />
    <glyph glyph-name="racute" unicode="&#x155;" horiz-adv-x="312" 
d="M44 0v510h133v-126h5v-384h-138zM182 290l-16 91q14 75 42.5 107t69.5 32q11 0 20 -3v-137q-3 1 -9 1.5t-16 0.5q-41 0 -66 -20t-25 -72zM191 583h-108l62 157h168z" />
    <glyph glyph-name="uni0156" unicode="&#x156;" horiz-adv-x="468" 
d="M50 0v720h181q62 0 108.5 -27t72.5 -74.5t26 -110.5q0 -62 -25.5 -109t-72 -73.5t-109.5 -26.5h-71v102h64q35 0 55.5 28t20.5 77t-20.5 76.5t-55.5 27.5h-32v-610h-142zM312 0l-140 374h135l159 -374h-154zM164 -339v62q34 5 51 22.5t17 53.5l50 -10h-118v137h140v-100
q0 -66 -38 -110t-102 -55z" />
    <glyph glyph-name="uni0157" unicode="&#x157;" horiz-adv-x="312" 
d="M44 0v510h133v-126h5v-384h-138zM182 290l-16 91q14 75 42.5 107t69.5 32q11 0 20 -3v-137q-3 1 -9 1.5t-16 0.5q-41 0 -66 -20t-25 -72zM38 -339v62q34 5 51 22.5t17 53.5l50 -10h-118v137h140v-100q0 -66 -38 -110t-102 -55z" />
    <glyph glyph-name="Rcaron" unicode="&#x158;" horiz-adv-x="468" 
d="M50 0v720h181q62 0 108.5 -27t72.5 -74.5t26 -110.5q0 -62 -25.5 -109t-72 -73.5t-109.5 -26.5h-71v102h64q35 0 55.5 28t20.5 77t-20.5 76.5t-55.5 27.5h-32v-610h-142zM312 0l-140 374h135l159 -374h-154zM171 793l-102 157h101l114 -117h-100l114 117h101l-102 -157
h-126z" />
    <glyph glyph-name="rcaron" unicode="&#x159;" horiz-adv-x="312" 
d="M44 0v510h133v-126h5v-384h-138zM182 290l-16 91q14 75 42.5 107t69.5 32q11 0 20 -3v-137q-3 1 -9 1.5t-16 0.5q-41 0 -66 -20t-25 -72zM105 583l-102 157h101l114 -117h-100l114 117h101l-102 -157h-126z" />
    <glyph glyph-name="Sacute" unicode="&#x15a;" horiz-adv-x="454" 
d="M232 -10q-103 0 -155.5 63.5t-52.5 176.5h133q0 -64 22 -97t59 -33q27 0 44 17.5t17 49.5q0 29 -16 57t-52 55l-74 56q-57 44 -83 94.5t-26 111.5q0 60 22.5 102.5t65 64.5t101.5 22q92 0 140 -55t48 -161h-130q0 56 -16 81t-45 25q-24 0 -39 -15.5t-15 -47.5
q0 -31 16.5 -56t49.5 -51l73 -56q62 -47 87 -100t25 -113q0 -91 -53.5 -141t-145.5 -50zM260 793h-108l62 157h168z" />
    <glyph glyph-name="sacute" unicode="&#x15b;" horiz-adv-x="367" 
d="M190 -10q-77 0 -121.5 44t-48.5 125h111q3 -34 19.5 -51.5t42.5 -17.5q19 0 30.5 10t11.5 29q0 18 -9.5 31t-41.5 32l-59 35q-42 25 -64 61t-22 87q0 64 41 104.5t107 40.5q72 0 113 -40.5t45 -112.5h-111q-2 29 -13 41t-28 12q-16 0 -27 -9.5t-11 -27.5q0 -16 10 -29.5
t36 -28.5l67 -39q38 -22 60.5 -61t22.5 -88q0 -67 -42.5 -107t-118.5 -40zM207 583h-108l62 157h168z" />
    <glyph glyph-name="Scedilla" unicode="&#x15e;" horiz-adv-x="454" 
d="M232 -10q-103 0 -155.5 63.5t-52.5 176.5h133q0 -64 22 -97t59 -33q27 0 44 17.5t17 49.5q0 29 -16 57t-52 55l-74 56q-57 44 -83 94.5t-26 111.5q0 60 22.5 102.5t65 64.5t101.5 22q92 0 140 -55t48 -161h-130q0 56 -16 81t-45 25q-24 0 -39 -15.5t-15 -47.5
q0 -31 16.5 -56t49.5 -51l73 -56q62 -47 87 -100t25 -113q0 -91 -53.5 -141t-145.5 -50zM228 -215q-49 0 -78 24.5t-31 66.5h76q1 -10 10.5 -17.5t22.5 -7.5t20.5 7t7.5 19q0 17 -17.5 27t-55.5 13l17 95h70l-8 -48q34 -10 53 -34t19 -56q0 -40 -29.5 -64.5t-76.5 -24.5z
" />
    <glyph glyph-name="scedilla" unicode="&#x15f;" horiz-adv-x="367" 
d="M190 -10q-77 0 -121.5 44t-48.5 125h111q3 -34 19.5 -51.5t42.5 -17.5q19 0 30.5 10t11.5 29q0 18 -9.5 31t-41.5 32l-59 35q-42 25 -64 61t-22 87q0 64 41 104.5t107 40.5q72 0 113 -40.5t45 -112.5h-111q-2 29 -13 41t-28 12q-16 0 -27 -9.5t-11 -27.5q0 -16 10 -29.5
t36 -28.5l67 -39q38 -22 60.5 -61t22.5 -88q0 -67 -42.5 -107t-118.5 -40zM185 -215q-49 0 -78 24.5t-31 66.5h76q1 -10 10.5 -17.5t22.5 -7.5t20.5 7t7.5 19q0 17 -17.5 27t-55.5 13l17 95h70l-8 -48q34 -10 53 -34t19 -56q0 -40 -29.5 -64.5t-76.5 -24.5z" />
    <glyph glyph-name="Scaron" unicode="&#x160;" horiz-adv-x="454" 
d="M232 -10q-103 0 -155.5 63.5t-52.5 176.5h133q0 -64 22 -97t59 -33q27 0 44 17.5t17 49.5q0 29 -16 57t-52 55l-74 56q-57 44 -83 94.5t-26 111.5q0 60 22.5 102.5t65 64.5t101.5 22q92 0 140 -55t48 -161h-130q0 56 -16 81t-45 25q-24 0 -39 -15.5t-15 -47.5
q0 -31 16.5 -56t49.5 -51l73 -56q62 -47 87 -100t25 -113q0 -91 -53.5 -141t-145.5 -50zM174 793l-102 157h101l114 -117h-100l114 117h101l-102 -157h-126z" />
    <glyph glyph-name="scaron" unicode="&#x161;" horiz-adv-x="367" 
d="M190 -10q-77 0 -121.5 44t-48.5 125h111q3 -34 19.5 -51.5t42.5 -17.5q19 0 30.5 10t11.5 29q0 18 -9.5 31t-41.5 32l-59 35q-42 25 -64 61t-22 87q0 64 41 104.5t107 40.5q72 0 113 -40.5t45 -112.5h-111q-2 29 -13 41t-28 12q-16 0 -27 -9.5t-11 -27.5q0 -16 10 -29.5
t36 -28.5l67 -39q38 -22 60.5 -61t22.5 -88q0 -67 -42.5 -107t-118.5 -40zM121 583l-102 157h101l114 -117h-100l114 117h101l-102 -157h-126z" />
    <glyph glyph-name="Tcaron" unicode="&#x164;" horiz-adv-x="430" 
d="M144 0v610h-134v110h410v-110h-134v-610h-142zM152 793l-102 157h101l114 -117h-100l114 117h101l-102 -157h-126z" />
    <glyph glyph-name="tcaron" unicode="&#x165;" horiz-adv-x="313" 
d="M228 -10q-78 0 -115.5 37.5t-37.5 114.5v467l138 61v-528q0 -22 12.5 -33t38.5 -11q10 0 18.5 2t16.5 6v-104q-10 -6 -29 -9t-42 -3zM10 402v108h285v-108h-285zM342 543h-90v237h116z" />
    <glyph glyph-name="Umacron" unicode="&#x16a;" horiz-adv-x="498" 
d="M249 -10q-100 0 -151.5 58.5t-51.5 158.5v513h142v-546q0 -36 16.5 -54t44.5 -18q29 0 45 18t16 54v546h142v-513q0 -100 -51.5 -158.5t-151.5 -58.5zM105 832v98h287v-98h-287z" />
    <glyph glyph-name="umacron" unicode="&#x16b;" horiz-adv-x="454" 
d="M150 -10q-33 0 -58 14t-38.5 41.5t-13.5 67.5v397h138v-362q0 -24 10.5 -36t28.5 -12t30 10t18.5 26.5t6.5 35.5l18 -73q-19 -52 -54.5 -80.5t-85.5 -28.5zM277 0v96h-5v414h138v-510h-133zM83 622v98h287v-98h-287z" />
    <glyph glyph-name="Ubreve" unicode="&#x16c;" horiz-adv-x="498" 
d="M249 -10q-100 0 -151.5 58.5t-51.5 158.5v513h142v-546q0 -36 16.5 -54t44.5 -18q29 0 45 18t16 54v546h142v-513q0 -100 -51.5 -158.5t-151.5 -58.5zM249 784q-41 0 -76.5 19.5t-57 56.5t-21.5 90h91q0 -23 16 -44.5t48 -21.5t48 21.5t16 44.5h91q0 -53 -21.5 -90
t-57 -56.5t-76.5 -19.5z" />
    <glyph glyph-name="ubreve" unicode="&#x16d;" horiz-adv-x="454" 
d="M150 -10q-33 0 -58 14t-38.5 41.5t-13.5 67.5v397h138v-362q0 -24 10.5 -36t28.5 -12t30 10t18.5 26.5t6.5 35.5l18 -73q-19 -52 -54.5 -80.5t-85.5 -28.5zM277 0v96h-5v414h138v-510h-133zM227 574q-41 0 -76.5 19.5t-57 56.5t-21.5 90h91q0 -23 16 -44.5t48 -21.5
t48 21.5t16 44.5h91q0 -53 -21.5 -90t-57 -56.5t-76.5 -19.5z" />
    <glyph glyph-name="Uring" unicode="&#x16e;" horiz-adv-x="498" 
d="M249 -10q-100 0 -151.5 58.5t-51.5 158.5v513h142v-546q0 -36 16.5 -54t44.5 -18q29 0 45 18t16 54v546h142v-513q0 -100 -51.5 -158.5t-151.5 -58.5zM249 771q-46 0 -77 31.5t-31 76.5q0 44 31 75.5t77 31.5t76.5 -31.5t30.5 -75.5q0 -45 -30.5 -76.5t-76.5 -31.5z
M250 840q16 0 26 11.5t10 27.5t-10.5 27t-26.5 11q-17 0 -27.5 -11t-10.5 -27t10.5 -27.5t28.5 -11.5z" />
    <glyph glyph-name="uring" unicode="&#x16f;" horiz-adv-x="454" 
d="M150 -10q-33 0 -58 14t-38.5 41.5t-13.5 67.5v397h138v-362q0 -24 10.5 -36t28.5 -12t30 10t18.5 26.5t6.5 35.5l18 -73q-19 -52 -54.5 -80.5t-85.5 -28.5zM277 0v96h-5v414h138v-510h-133zM227 561q-46 0 -77 31.5t-31 76.5q0 44 31 75.5t77 31.5t76.5 -31.5t30.5 -75.5
q0 -45 -30.5 -76.5t-76.5 -31.5zM228 630q16 0 26 11.5t10 27.5t-10.5 27t-26.5 11q-17 0 -27.5 -11t-10.5 -27t10.5 -27.5t28.5 -11.5z" />
    <glyph glyph-name="Uhungarumlaut" unicode="&#x170;" horiz-adv-x="498" 
d="M249 -10q-100 0 -151.5 58.5t-51.5 158.5v513h142v-546q0 -36 16.5 -54t44.5 -18q29 0 45 18t16 54v546h142v-513q0 -100 -51.5 -158.5t-151.5 -58.5zM202 793h-98l32 157h138zM385 793h-98l32 157h138z" />
    <glyph glyph-name="uhungarumlaut" unicode="&#x171;" horiz-adv-x="454" 
d="M150 -10q-33 0 -58 14t-38.5 41.5t-13.5 67.5v397h138v-362q0 -24 10.5 -36t28.5 -12t30 10t18.5 26.5t6.5 35.5l18 -73q-19 -52 -54.5 -80.5t-85.5 -28.5zM277 0v96h-5v414h138v-510h-133zM180 583h-98l32 157h138zM363 583h-98l32 157h138z" />
    <glyph glyph-name="Uogonek" unicode="&#x172;" horiz-adv-x="498" 
d="M249 -10q-100 0 -151.5 58.5t-51.5 158.5v513h142v-546q0 -36 16.5 -54t44.5 -18q29 0 45 18t16 54v546h142v-513q0 -100 -51.5 -158.5t-151.5 -58.5zM296 -196q-46 0 -70 23t-24 61q0 44 33 81.5t84 67.5l47 -17q-44 -38 -65 -67t-21 -54q0 -16 8 -22.5t19 -6.5
q17 0 35 14l27 -60q-14 -9 -32.5 -14.5t-40.5 -5.5z" />
    <glyph glyph-name="uogonek" unicode="&#x173;" horiz-adv-x="454" 
d="M150 -10q-33 0 -58 14t-38.5 41.5t-13.5 67.5v397h138v-362q0 -24 10.5 -36t28.5 -12t30 10t18.5 26.5t6.5 35.5l18 -73q-19 -52 -54.5 -80.5t-85.5 -28.5zM277 0v96h-5v414h138v-510h-133zM340 -216q-46 0 -70 23t-24 61q0 44 33 81.5t84 67.5l47 -17q-44 -38 -65 -67
t-21 -54q0 -16 8 -22.5t19 -6.5q17 0 35 14l27 -60q-14 -9 -32.5 -14.5t-40.5 -5.5z" />
    <glyph glyph-name="Wcircumflex" unicode="&#x174;" horiz-adv-x="679" 
d="M108 0l-86 720h133l57 -686h-18l76 686h144l76 -686h-18l57 686h128l-86 -720h-174l-71 692h28l-72 -692h-174zM175 793l102 157h126l102 -157h-101l-114 117h100l-114 -117h-101z" />
    <glyph glyph-name="wcircumflex" unicode="&#x175;" horiz-adv-x="668" 
d="M131 0l-107 510h136l54 -367h-9l61 367h140l62 -367h-9l53 367h132l-107 -510h-150l-58 361h10l-58 -361h-150zM169 583l102 157h126l102 -157h-101l-114 117h100l-114 -117h-101z" />
    <glyph glyph-name="Ycircumflex" unicode="&#x176;" horiz-adv-x="506" 
d="M182 0v306l-174 414h156l134 -376h-69l133 376h136l-174 -414v-306h-142zM88 793l102 157h126l102 -157h-101l-114 117h100l-114 -117h-101z" />
    <glyph glyph-name="ycircumflex" unicode="&#x177;" horiz-adv-x="426" 
d="M103 -205l75 296l24 29l74 390h136l-180 -715h-129zM167 -16l-153 526h147l91 -451zM58 583l102 157h126l102 -157h-101l-114 117h100l-114 -117h-101z" />
    <glyph glyph-name="Ydieresis" unicode="&#x178;" horiz-adv-x="506" 
d="M182 0v306l-174 414h156l134 -376h-69l133 376h136l-174 -414v-306h-142zM286 785v145h141v-145h-141zM78 785v145h141v-145h-141z" />
    <glyph glyph-name="Zacute" unicode="&#x179;" horiz-adv-x="453" 
d="M42 0v100l211 528l18 -18h-221v110h361v-80l-223 -548l-18 18h245v-110h-373zM250 793h-108l62 157h168z" />
    <glyph glyph-name="zacute" unicode="&#x17a;" horiz-adv-x="399" 
d="M35 0v98l175 320l15 -16h-182v108h322v-78l-187 -340l-15 16h206v-108h-334zM223 583h-108l62 157h168z" />
    <glyph glyph-name="Zdotaccent" unicode="&#x17b;" horiz-adv-x="453" 
d="M42 0v100l211 528l18 -18h-221v110h361v-80l-223 -548l-18 18h245v-110h-373zM155 783v147h144v-147h-144z" />
    <glyph glyph-name="zdotaccent" unicode="&#x17c;" horiz-adv-x="399" 
d="M35 0v98l175 320l15 -16h-182v108h322v-78l-187 -340l-15 16h206v-108h-334zM128 573v147h144v-147h-144z" />
    <glyph glyph-name="Zcaron" unicode="&#x17d;" horiz-adv-x="453" 
d="M42 0v100l211 528l18 -18h-221v110h361v-80l-223 -548l-18 18h245v-110h-373zM164 793l-102 157h101l114 -117h-100l114 117h101l-102 -157h-126z" />
    <glyph glyph-name="zcaron" unicode="&#x17e;" horiz-adv-x="399" 
d="M35 0v98l175 320l15 -16h-182v108h322v-78l-187 -340l-15 16h206v-108h-334zM137 583l-102 157h101l114 -117h-100l114 117h101l-102 -157h-126z" />
    <glyph glyph-name="uni01CD" unicode="&#x1cd;" horiz-adv-x="490" 
d="M12 0l141 720h105l-113 -720h-133zM335 0l-113 720h115l141 -720h-143zM110 265h270v-110h-270v110zM182 793l-102 157h101l114 -117h-100l114 117h101l-102 -157h-126z" />
    <glyph glyph-name="uni01CE" unicode="&#x1ce;" horiz-adv-x="418" 
d="M262 0q-7 18 -9.5 39.5t-2.5 45.5h-4v271q0 35 -9.5 49.5t-30.5 14.5t-32 -16t-11 -48h-121q0 71 47 117.5t127 46.5q78 0 120 -42t42 -118v-275q0 -21 2.5 -42.5t9.5 -42.5h-128zM140 -10q-46 0 -77 35t-31 96q0 55 24 91.5t87 68.5l137 70v-103l-57 -31
q-32 -17 -45.5 -36.5t-13.5 -43.5q0 -23 11 -35t29 -12t30 10.5t12 26.5l9 -55q-16 -43 -45 -62.5t-70 -19.5zM146 583l-102 157h101l114 -117h-100l114 117h101l-102 -157h-126z" />
    <glyph glyph-name="uni0218" unicode="&#x218;" horiz-adv-x="454" 
d="M232 -10q-103 0 -155.5 63.5t-52.5 176.5h133q0 -64 22 -97t59 -33q27 0 44 17.5t17 49.5q0 29 -16 57t-52 55l-74 56q-57 44 -83 94.5t-26 111.5q0 60 22.5 102.5t65 64.5t101.5 22q92 0 140 -55t48 -161h-130q0 56 -16 81t-45 25q-24 0 -39 -15.5t-15 -47.5
q0 -31 16.5 -56t49.5 -51l73 -56q62 -47 87 -100t25 -113q0 -91 -53.5 -141t-145.5 -50zM167 -339v62q34 5 51 22.5t17 53.5l50 -10h-118v137h140v-100q0 -66 -38 -110t-102 -55z" />
    <glyph glyph-name="uni0219" unicode="&#x219;" horiz-adv-x="367" 
d="M190 -10q-77 0 -121.5 44t-48.5 125h111q3 -34 19.5 -51.5t42.5 -17.5q19 0 30.5 10t11.5 29q0 18 -9.5 31t-41.5 32l-59 35q-42 25 -64 61t-22 87q0 64 41 104.5t107 40.5q72 0 113 -40.5t45 -112.5h-111q-2 29 -13 41t-28 12q-16 0 -27 -9.5t-11 -27.5q0 -16 10 -29.5
t36 -28.5l67 -39q38 -22 60.5 -61t22.5 -88q0 -67 -42.5 -107t-118.5 -40zM124 -339v62q34 5 51 22.5t17 53.5l50 -10h-118v137h140v-100q0 -66 -38 -110t-102 -55z" />
    <glyph glyph-name="uni021A" unicode="&#x21a;" horiz-adv-x="430" 
d="M144 0v610h-134v110h410v-110h-134v-610h-142zM145 -339v62q34 5 51 22.5t17 53.5l50 -10h-118v137h140v-100q0 -66 -38 -110t-102 -55z" />
    <glyph glyph-name="uni021B" unicode="&#x21b;" horiz-adv-x="313" 
d="M228 -10q-78 0 -115.5 37.5t-37.5 114.5v467l138 61v-528q0 -22 12.5 -33t38.5 -11q10 0 18.5 2t16.5 6v-104q-10 -6 -29 -9t-42 -3zM10 402v108h285v-108h-285zM131 -339v62q34 5 51 22.5t17 53.5l50 -10h-118v137h140v-100q0 -66 -38 -110t-102 -55z" />
    <glyph glyph-name="uni0237" unicode="&#x237;" horiz-adv-x="226" 
d="M35 -215q-17 0 -30 1.5t-25 5.5v105q5 -2 12 -3t15 -1q16 0 26.5 7.5t10.5 25.5v584h138v-594q0 -63 -36.5 -97t-110.5 -34z" />
    <glyph glyph-name="circumflex" unicode="&#x2c6;" horiz-adv-x="433" 
d="M60 583l102 157h126l102 -157h-101l-114 117h100l-114 -117h-101z" />
    <glyph glyph-name="caron" unicode="&#x2c7;" horiz-adv-x="433" 
d="M162 583l-102 157h101l114 -117h-100l114 117h101l-102 -157h-126z" />
    <glyph glyph-name="breve" unicode="&#x2d8;" horiz-adv-x="408" 
d="M215 574q-41 0 -76.5 19.5t-57 56.5t-21.5 90h91q0 -23 16 -44.5t48 -21.5t48 21.5t16 44.5h91q0 -53 -21.5 -90t-57 -56.5t-76.5 -19.5z" />
    <glyph glyph-name="dotaccent" unicode="&#x2d9;" horiz-adv-x="264" 
d="M60 573v147h144v-147h-144z" />
    <glyph glyph-name="ring" unicode="&#x2da;" horiz-adv-x="335" 
d="M168 561q-46 0 -77 31.5t-31 76.5q0 44 31 75.5t77 31.5t76.5 -31.5t30.5 -75.5q0 -45 -30.5 -76.5t-76.5 -31.5zM169 630q16 0 26 11.5t10 27.5t-10.5 27t-26.5 11q-17 0 -27.5 -11t-10.5 -27t10.5 -27.5t28.5 -11.5z" />
    <glyph glyph-name="ogonek" unicode="&#x2db;" horiz-adv-x="269" 
d="M154 -216q-46 0 -70 23t-24 61q0 44 33 81.5t84 67.5l47 -17q-44 -38 -65 -67t-21 -54q0 -16 8 -22.5t19 -6.5q17 0 35 14l27 -60q-14 -9 -32.5 -14.5t-40.5 -5.5z" />
    <glyph glyph-name="tilde" unicode="&#x2dc;" horiz-adv-x="452" 
d="M297 601q-25 0 -42 6t-29.5 14.5t-24 14.5t-25.5 6t-24 -8t-10 -28h-82q0 38 13 69t38.5 49t61.5 18q26 0 42 -6t27.5 -14.5t22.5 -14.5t26 -6q14 0 24 8t10 28h82q0 -38 -13.5 -69t-38 -49t-58.5 -18z" />
    <glyph glyph-name="hungarumlaut" unicode="&#x2dd;" horiz-adv-x="414" 
d="M158 583h-98l32 157h138zM341 583h-98l32 157h138z" />
    <glyph glyph-name="gravecomb" unicode="&#x300;" horiz-adv-x="0" 
d="M182 583l-122 157h168l62 -157h-108z" />
    <glyph glyph-name="acutecomb" unicode="&#x301;" horiz-adv-x="0" 
d="M168 583h-108l62 157h168z" />
    <glyph glyph-name="uni0302" unicode="&#x302;" horiz-adv-x="0" 
d="M60 583l102 157h126l102 -157h-101l-114 117h100l-114 -117h-101z" />
    <glyph glyph-name="tildecomb" unicode="&#x303;" horiz-adv-x="0" 
d="M297 601q-25 0 -42 6t-29.5 14.5t-24 14.5t-25.5 6t-24 -8t-10 -28h-82q0 38 13 69t38.5 49t61.5 18q26 0 42 -6t27.5 -14.5t22.5 -14.5t26 -6q14 0 24 8t10 28h82q0 -38 -13.5 -69t-38 -49t-58.5 -18z" />
    <glyph glyph-name="uni0304" unicode="&#x304;" horiz-adv-x="0" 
d="M60 622v98h287v-98h-287z" />
    <glyph glyph-name="uni0306" unicode="&#x306;" horiz-adv-x="0" 
d="M215 574q-41 0 -76.5 19.5t-57 56.5t-21.5 90h91q0 -23 16 -44.5t48 -21.5t48 21.5t16 44.5h91q0 -53 -21.5 -90t-57 -56.5t-76.5 -19.5z" />
    <glyph glyph-name="uni0307" unicode="&#x307;" horiz-adv-x="0" 
d="M60 573v147h144v-147h-144z" />
    <glyph glyph-name="uni0308" unicode="&#x308;" horiz-adv-x="0" 
d="M268 575v145h141v-145h-141zM60 575v145h141v-145h-141z" />
    <glyph glyph-name="uni030A" unicode="&#x30a;" horiz-adv-x="0" 
d="M168 561q-46 0 -77 31.5t-31 76.5q0 44 31 75.5t77 31.5t76.5 -31.5t30.5 -75.5q0 -45 -30.5 -76.5t-76.5 -31.5zM169 630q16 0 26 11.5t10 27.5t-10.5 27t-26.5 11q-17 0 -27.5 -11t-10.5 -27t10.5 -27.5t28.5 -11.5z" />
    <glyph glyph-name="uni030B" unicode="&#x30b;" horiz-adv-x="0" 
d="M158 583h-98l32 157h138zM341 583h-98l32 157h138z" />
    <glyph glyph-name="uni030C" unicode="&#x30c;" horiz-adv-x="0" 
d="M162 583l-102 157h101l114 -117h-100l114 117h101l-102 -157h-126z" />
    <glyph glyph-name="uni0312" unicode="&#x312;" horiz-adv-x="0" 
d="M68 584v100q0 66 38 110t102 55v-62q-34 -4 -51 -22t-17 -54l-50 10h118v-137h-140z" />
    <glyph glyph-name="uni0326" unicode="&#x326;" horiz-adv-x="0" 
d="M68 -339v62q34 5 51 22.5t17 53.5l50 -10h-118v137h140v-100q0 -66 -38 -110t-102 -55z" />
    <glyph glyph-name="uni0327" unicode="&#x327;" horiz-adv-x="0" 
d="M169 -215q-49 0 -78 24.5t-31 66.5h76q1 -10 10.5 -17.5t22.5 -7.5t20.5 7t7.5 19q0 17 -17.5 27t-55.5 13l17 95h70l-8 -48q34 -10 53 -34t19 -56q0 -40 -29.5 -64.5t-76.5 -24.5z" />
    <glyph glyph-name="uni0328" unicode="&#x328;" horiz-adv-x="0" 
d="M154 -216q-46 0 -70 23t-24 61q0 44 33 81.5t84 67.5l47 -17q-44 -38 -65 -67t-21 -54q0 -16 8 -22.5t19 -6.5q17 0 35 14l27 -60q-14 -9 -32.5 -14.5t-40.5 -5.5z" />
    <glyph glyph-name="Wgrave" unicode="&#x1e80;" horiz-adv-x="679" 
d="M108 0l-86 720h133l57 -686h-18l76 686h144l76 -686h-18l57 686h128l-86 -720h-174l-71 692h28l-72 -692h-174zM317 793l-122 157h168l62 -157h-108z" />
    <glyph glyph-name="wgrave" unicode="&#x1e81;" horiz-adv-x="668" 
d="M131 0l-107 510h136l54 -367h-9l61 367h140l62 -367h-9l53 367h132l-107 -510h-150l-58 361h10l-58 -361h-150zM311 583l-122 157h168l62 -157h-108z" />
    <glyph glyph-name="Wacute" unicode="&#x1e82;" horiz-adv-x="679" 
d="M108 0l-86 720h133l57 -686h-18l76 686h144l76 -686h-18l57 686h128l-86 -720h-174l-71 692h28l-72 -692h-174zM363 793h-108l62 157h168z" />
    <glyph glyph-name="wacute" unicode="&#x1e83;" horiz-adv-x="668" 
d="M131 0l-107 510h136l54 -367h-9l61 367h140l62 -367h-9l53 367h132l-107 -510h-150l-58 361h10l-58 -361h-150zM357 583h-108l62 157h168z" />
    <glyph glyph-name="Wdieresis" unicode="&#x1e84;" horiz-adv-x="679" 
d="M108 0l-86 720h133l57 -686h-18l76 686h144l76 -686h-18l57 686h128l-86 -720h-174l-71 692h28l-72 -692h-174zM373 785v145h141v-145h-141zM165 785v145h141v-145h-141z" />
    <glyph glyph-name="wdieresis" unicode="&#x1e85;" horiz-adv-x="668" 
d="M131 0l-107 510h136l54 -367h-9l61 367h140l62 -367h-9l53 367h132l-107 -510h-150l-58 361h10l-58 -361h-150zM367 575v145h141v-145h-141zM159 575v145h141v-145h-141z" />
    <glyph glyph-name="uni1E9E" unicode="&#x1e9e;" horiz-adv-x="511" 
d="M294 -9q-21 0 -37 2.5t-27 6.5v106q10 -2 21.5 -3.5t27.5 -1.5q31 0 50 22t19 62q0 45 -23 79.5t-75 71.5l-31 22l140 282l4 -69q-13 20 -33.5 35t-57.5 15t-58.5 -23t-21.5 -74v-524h-142v514q0 104 57 160.5t162 56.5q68 0 123.5 -25t95.5 -75l-129 -260l-44 68
q83 -54 128 -118t45 -146q0 -54 -24 -95.5t-67.5 -65t-102.5 -23.5z" />
    <glyph glyph-name="Ygrave" unicode="&#x1ef2;" horiz-adv-x="506" 
d="M182 0v306l-174 414h156l134 -376h-69l133 376h136l-174 -414v-306h-142zM230 793l-122 157h168l62 -157h-108z" />
    <glyph glyph-name="ygrave" unicode="&#x1ef3;" horiz-adv-x="426" 
d="M103 -205l75 296l24 29l74 390h136l-180 -715h-129zM167 -16l-153 526h147l91 -451zM200 583l-122 157h168l62 -157h-108z" />
    <glyph glyph-name="endash" unicode="&#x2013;" horiz-adv-x="454" 
d="M44 218v108h366v-108h-366z" />
    <glyph glyph-name="emdash" unicode="&#x2014;" horiz-adv-x="654" 
d="M44 218v108h566v-108h-566z" />
    <glyph glyph-name="quoteleft" unicode="&#x2018;" horiz-adv-x="242" 
d="M42 445v107q0 70 39 122.5t120 65.5v-69q-40 -5 -59.5 -29.5t-19.5 -64.5l-54 12h132v-144h-158z" />
    <glyph glyph-name="quoteright" unicode="&#x2019;" horiz-adv-x="242" 
d="M41 447v69q40 5 59.5 29.5t19.5 64.5l54 -12h-132v144h158v-107q0 -70 -39 -122.5t-120 -65.5z" />
    <glyph glyph-name="quotesinglbase" unicode="&#x201a;" horiz-adv-x="241" 
d="M41 -201v69q47 13 62.5 38.5t15.5 65.5l54 -14h-132v158h158v-114q0 -73 -39 -128t-119 -75z" />
    <glyph glyph-name="quotedblleft" unicode="&#x201c;" horiz-adv-x="442" 
d="M242 445v107q0 70 39 122.5t120 65.5v-69q-40 -5 -59.5 -29.5t-19.5 -64.5l-54 12h132v-144h-158zM42 445v107q0 70 39 122.5t120 65.5v-69q-40 -5 -59.5 -29.5t-19.5 -64.5l-54 12h132v-144h-158z" />
    <glyph glyph-name="quotedblright" unicode="&#x201d;" horiz-adv-x="442" 
d="M241 447v69q40 5 59.5 29.5t19.5 64.5l54 -12h-132v144h158v-107q0 -70 -39 -122.5t-120 -65.5zM41 447v69q40 5 59.5 29.5t19.5 64.5l54 -12h-132v144h158v-107q0 -70 -39 -122.5t-120 -65.5z" />
    <glyph glyph-name="quotedblbase" unicode="&#x201e;" horiz-adv-x="441" 
d="M241 -201v69q47 13 62.5 38.5t15.5 65.5l54 -14h-132v158h158v-114q0 -73 -39 -128t-119 -75zM41 -201v69q47 13 62.5 38.5t15.5 65.5l54 -14h-132v158h158v-114q0 -73 -39 -128t-119 -75z" />
    <glyph glyph-name="bullet" unicode="&#x2022;" horiz-adv-x="305" 
d="M42 252v221h221v-221h-221z" />
    <glyph glyph-name="ellipsis" unicode="&#x2026;" horiz-adv-x="642" 
d="M42 0v158h158v-158h-158zM242 0v158h158v-158h-158zM442 0v158h158v-158h-158z" />
    <glyph glyph-name="perthousand" unicode="&#x2030;" horiz-adv-x="740" 
d="M154 381q-34 0 -62.5 19t-45 58t-16.5 98t16.5 97.5t44.5 57.5t63 19q53 0 88.5 -42.5t35.5 -131.5q0 -59 -17 -98t-45 -58t-62 -19zM154 454q24 0 39 26.5t15 76.5q0 49 -14.5 74.5t-39.5 25.5t-39.5 -25.5t-14.5 -74.5q0 -50 14.5 -76.5t39.5 -26.5zM45 0l389 720h85
l-389 -720h-85zM408 -10q-34 0 -62.5 19t-45 58t-16.5 98t16.5 97.5t44.5 57.5t63 19q53 0 83.5 -42.5t30.5 -131.5t-31.5 -132t-82.5 -43zM408 63q24 0 39 26.5t15 76.5q0 49 -14.5 74.5t-39.5 25.5t-39.5 -25.5t-14.5 -74.5q0 -50 14.5 -76.5t39.5 -26.5zM586 63
q26 0 40 26.5t14 76.5q0 49 -14 74.5t-40 25.5q-25 0 -39.5 -25.5t-14.5 -74.5q0 -50 15 -76.5t39 -26.5zM586 -10q-51 0 -82.5 43t-31.5 132t31 131.5t83 42.5q35 0 63 -19t44.5 -57t16.5 -98q0 -59 -16.5 -98t-44.5 -58t-63 -19z" />
    <glyph glyph-name="guilsinglleft" unicode="&#x2039;" horiz-adv-x="294" 
d="M137 68l-102 183l102 183h112l-98 -183l98 -183h-112z" />
    <glyph glyph-name="guilsinglright" unicode="&#x203a;" horiz-adv-x="294" 
d="M157 68h-112l98 183l-98 183h112l102 -183z" />
    <glyph glyph-name="Euro" unicode="&#x20ac;" horiz-adv-x="510" 
d="M285 -10q-55 0 -98 24t-72 71t-44 116t-15 159t15 159t44.5 116t73 71t99.5 24q55 0 96 -22.5t66.5 -65.5t31.5 -105h-136q-1 44 -17.5 62.5t-44.5 18.5q-29 0 -47.5 -24.5t-27.5 -80t-9 -149.5t9.5 -152t28.5 -84t47 -26q26 0 42 19t17 62h138q-7 -61 -33 -104.5
t-67.5 -66t-96.5 -22.5zM0 382l16 98h381l-16 -98h-381zM0 242l16 98h357l-16 -98h-357z" />
    <glyph glyph-name="trademark" unicode="&#x2122;" horiz-adv-x="631" 
d="M103 360v343h89v-343h-89zM40 646v74h214v-74h-214zM271 360v360h123l70 -338h-66l69 338h124v-360h-86v311h15l-62 -311h-58l-63 311h15v-311h-81z" />
    <glyph glyph-name="arrowleft" unicode="&#x2190;" horiz-adv-x="718" 
d="M658 300h-484l55 52l322 -322h-163l-328 330l328 330h163l-322 -322l-55 52h484v-120z" />
    <glyph glyph-name="arrowup" unicode="&#x2191;" horiz-adv-x="780" 
d="M330 61v484l52 -55l-322 -322v163l330 328l330 -328v-163l-322 322l52 55v-484h-120z" />
    <glyph glyph-name="arrowright" unicode="&#x2192;" horiz-adv-x="718" 
d="M60 420h484l-55 -52l-322 322h163l328 -330l-328 -330h-163l322 322l55 -52h-484v120z" />
    <glyph glyph-name="arrowdown" unicode="&#x2193;" horiz-adv-x="780" 
d="M330 659h120v-484l-52 55l322 322v-163l-330 -328l-330 328v163l322 -322l-52 -55v484z" />
    <glyph glyph-name="arrowboth" unicode="&#x2194;" horiz-adv-x="1128" 
d="M388 30l-328 330l328 330h163l-270 -270h566l-270 270h163l328 -330l-328 -330h-163l270 270h-566l270 -270h-163z" />
    <glyph glyph-name="arrowupdn" unicode="&#x2195;" horiz-adv-x="780" 
d="M390 -144l-330 328v163l270 -270v566l-270 -270v163l330 328l330 -328v-163l-270 270v-566l270 270v-163z" />
    <glyph glyph-name="uni2196" unicode="&#x2196;" horiz-adv-x="702" 
d="M442 184l-342 343l76 -2v-456l-116 115l2 466l465 1l115 -115h-455l-2 76l342 -343z" />
    <glyph glyph-name="uni2197" unicode="&#x2197;" horiz-adv-x="702" 
d="M175 269l343 342l-2 -76h-456l115 116l466 -2l1 -465l-115 -115v455l76 2l-343 -342z" />
    <glyph glyph-name="uni2198" unicode="&#x2198;" horiz-adv-x="702" 
d="M260 536l342 -343l-76 2v456l116 -115l-2 -466l-465 -1l-115 115h455l2 -76l-342 343z" />
    <glyph glyph-name="uni2199" unicode="&#x2199;" horiz-adv-x="702" 
d="M527 451l-343 -342l2 76h456l-115 -116l-466 2l-1 465l115 115v-455l-76 -2l343 342z" />
    <glyph glyph-name="minus" unicode="&#x2212;" horiz-adv-x="551" 
d="M50 322v98h451v-98h-451z" />
    <glyph glyph-name="Adieresis.ss01" horiz-adv-x="490" 
d="M12 0l141 720h105l-113 -720h-133zM335 0l-113 720h115l141 -720h-143zM110 265h270v-110h-270v110zM141 800q-32 0 -54 23t-22 56t22 54.5t54 21.5t54 -21.5t22 -55.5q0 -33 -22 -55.5t-54 -22.5zM348 800q-32 0 -54 23t-22 56t22 54.5t54 21.5t54 -21.5t22 -55.5
q0 -33 -22 -55.5t-54 -22.5z" />
    <glyph glyph-name="Cdotaccent.ss01" horiz-adv-x="503" 
d="M259 -10q-55 0 -98 24t-72 71t-44 116t-15 159t15 159t44.5 116t73 71t99.5 24q68 0 115.5 -34.5t72.5 -99.5t25 -159h-140q0 94 -19 137.5t-57 43.5q-29 0 -48 -24.5t-28 -80t-9 -149.5t9.5 -152t28.5 -84t47 -26q37 0 56 45t19 136h141q0 -92 -25.5 -157.5t-74 -100.5
t-116.5 -35zM262 790q-36 0 -61 25.5t-25 63.5t25 62t61 24q37 0 61.5 -24t24.5 -62t-24.5 -63.5t-61.5 -25.5z" />
    <glyph glyph-name="Edieresis.ss01" horiz-adv-x="420" 
d="M50 0v720h142v-720h-142zM122 0v110h260v-110h-260zM122 317v108h242v-108h-242zM122 610v110h252v-110h-252zM116 800q-32 0 -54 23t-22 56t22 54.5t54 21.5t54 -21.5t22 -55.5q0 -33 -22 -55.5t-54 -22.5zM323 800q-32 0 -54 23t-22 56t22 54.5t54 21.5t54 -21.5
t22 -55.5q0 -33 -22 -55.5t-54 -22.5z" />
    <glyph glyph-name="Edotaccent.ss01" horiz-adv-x="420" 
d="M50 0v720h142v-720h-142zM122 0v110h260v-110h-260zM122 317v108h242v-108h-242zM122 610v110h252v-110h-252zM220 790q-36 0 -61 25.5t-25 63.5t25 62t61 24q37 0 61.5 -24t24.5 -62t-24.5 -63.5t-61.5 -25.5z" />
    <glyph glyph-name="uni0122.ss01" horiz-adv-x="513" 
d="M271 -10q-80 0 -134 39.5t-80.5 119.5t-26.5 201q0 124 27.5 208.5t80.5 128t131 43.5q67 0 112.5 -30.5t69.5 -89t24 -143.5h-140q0 80 -17.5 115.5t-54.5 35.5q-31 0 -50.5 -27t-29 -84.5t-9.5 -149.5q0 -95 10.5 -151t34.5 -80t63 -24q17 0 29.5 4.5t22.5 14.5
l141 -33q-26 -45 -81.5 -71.5t-122.5 -26.5zM333 78v238l31 -31h-105v110h216v-307zM214 -339v62q36 5 52.5 22.5t16.5 53.5l42 -1q-10 -7 -23.5 -12t-24.5 -5q-33 0 -55.5 21t-22.5 55q0 35 23 56t52 21q34 0 57.5 -25.5t23.5 -82.5q0 -44 -17 -78.5t-48.5 -56.5t-75.5 -30
z" />
    <glyph glyph-name="Gdotaccent.ss01" horiz-adv-x="513" 
d="M271 -10q-80 0 -134 39.5t-80.5 119.5t-26.5 201q0 124 27.5 208.5t80.5 128t131 43.5q67 0 112.5 -30.5t69.5 -89t24 -143.5h-140q0 80 -17.5 115.5t-54.5 35.5q-31 0 -50.5 -27t-29 -84.5t-9.5 -149.5q0 -95 10.5 -151t34.5 -80t63 -24q17 0 29.5 4.5t22.5 14.5
l141 -33q-26 -45 -81.5 -71.5t-122.5 -26.5zM333 78v238l31 -31h-105v110h216v-307zM267 790q-36 0 -61 25.5t-25 63.5t25 62t61 24q37 0 61.5 -24t24.5 -62t-24.5 -63.5t-61.5 -25.5z" />
    <glyph glyph-name="Idieresis.ss01" horiz-adv-x="242" 
d="M50 0v720h142v-720h-142zM17 800q-32 0 -54 23t-22 56t22 54.5t54 21.5t54 -21.5t22 -55.5q0 -33 -22 -55.5t-54 -22.5zM224 800q-32 0 -54 23t-22 56t22 54.5t54 21.5t54 -21.5t22 -55.5q0 -33 -22 -55.5t-54 -22.5z" />
    <glyph glyph-name="Idotaccent.ss01" horiz-adv-x="242" 
d="M50 0v720h142v-720h-142zM121 790q-36 0 -61 25.5t-25 63.5t25 62t61 24q37 0 61.5 -24t24.5 -62t-24.5 -63.5t-61.5 -25.5z" />
    <glyph glyph-name="uni0136.ss01" horiz-adv-x="504" 
d="M50 0v720h142v-720h-142zM176 374l149 346h147l-159 -346h-137zM338 0l-167 374h142l179 -374h-154zM199 -339v62q36 5 52.5 22.5t16.5 53.5l42 -1q-10 -7 -23.5 -12t-24.5 -5q-33 0 -55.5 21t-22.5 55q0 35 23 56t52 21q34 0 57.5 -25.5t23.5 -82.5q0 -44 -17 -78.5
t-48.5 -56.5t-75.5 -30z" />
    <glyph glyph-name="uni013B.ss01" horiz-adv-x="390" 
d="M50 0v720h142v-720h-142zM122 0v110h236v-110h-236zM145 -339v62q36 5 52.5 22.5t16.5 53.5l42 -1q-10 -7 -23.5 -12t-24.5 -5q-33 0 -55.5 21t-22.5 55q0 35 23 56t52 21q34 0 57.5 -25.5t23.5 -82.5q0 -44 -17 -78.5t-48.5 -56.5t-75.5 -30z" />
    <glyph glyph-name="uni0145.ss01" horiz-adv-x="519" 
d="M50 0v720h168l156 -616l-35 -2v618h130v-720h-168l-156 616l35 2v-618h-130zM197 -339v62q36 5 52.5 22.5t16.5 53.5l42 -1q-10 -7 -23.5 -12t-24.5 -5q-33 0 -55.5 21t-22.5 55q0 35 23 56t52 21q34 0 57.5 -25.5t23.5 -82.5q0 -44 -17 -78.5t-48.5 -56.5t-75.5 -30z
" />
    <glyph glyph-name="Odieresis.ss01" horiz-adv-x="536" 
d="M268 -10q-58 0 -102.5 24t-74.5 71.5t-45.5 117t-15.5 160.5q0 120 27 201.5t80 123.5t130 42q79 0 132 -41.5t80 -123.5t27 -203q0 -91 -15.5 -160.5t-45.5 -116.5t-74.5 -71t-102.5 -24zM267 102q33 0 54 27.5t31 85.5t10 149q0 90 -10 146t-31 82t-54 26
q-32 0 -53 -26t-30.5 -81.5t-9.5 -146.5t10 -149t30.5 -85.5t52.5 -27.5zM164 800q-32 0 -54 23t-22 56t22 54.5t54 21.5t54 -21.5t22 -55.5q0 -33 -22 -55.5t-54 -22.5zM371 800q-32 0 -54 23t-22 56t22 54.5t54 21.5t54 -21.5t22 -55.5q0 -33 -22 -55.5t-54 -22.5z" />
    <glyph glyph-name="uni0156.ss01" horiz-adv-x="468" 
d="M50 0v720h181q62 0 108.5 -27t72.5 -74.5t26 -110.5q0 -62 -25.5 -109t-72 -73.5t-109.5 -26.5h-71v102h64q35 0 55.5 28t20.5 77t-20.5 76.5t-55.5 27.5h-32v-610h-142zM312 0l-140 374h135l159 -374h-154zM171 -339v62q36 5 52.5 22.5t16.5 53.5l42 -1
q-10 -7 -23.5 -12t-24.5 -5q-33 0 -55.5 21t-22.5 55q0 35 23 56t52 21q34 0 57.5 -25.5t23.5 -82.5q0 -44 -17 -78.5t-48.5 -56.5t-75.5 -30z" />
    <glyph glyph-name="uni0218.ss01" horiz-adv-x="454" 
d="M232 -10q-103 0 -155.5 63.5t-52.5 176.5h133q0 -64 22 -97t59 -33q27 0 44 17.5t17 49.5q0 29 -16 57t-52 55l-74 56q-57 44 -83 94.5t-26 111.5q0 60 22.5 102.5t65 64.5t101.5 22q92 0 140 -55t48 -161h-130q0 56 -16 81t-45 25q-24 0 -39 -15.5t-15 -47.5
q0 -31 16.5 -56t49.5 -51l73 -56q62 -47 87 -100t25 -113q0 -91 -53.5 -141t-145.5 -50zM174 -339v62q36 5 52.5 22.5t16.5 53.5l42 -1q-10 -7 -23.5 -12t-24.5 -5q-33 0 -55.5 21t-22.5 55q0 35 23 56t52 21q34 0 57.5 -25.5t23.5 -82.5q0 -44 -17 -78.5t-48.5 -56.5
t-75.5 -30z" />
    <glyph glyph-name="uni021A.ss01" horiz-adv-x="430" 
d="M144 0v610h-134v110h410v-110h-134v-610h-142zM152 -339v62q36 5 52.5 22.5t16.5 53.5l42 -1q-10 -7 -23.5 -12t-24.5 -5q-33 0 -55.5 21t-22.5 55q0 35 23 56t52 21q34 0 57.5 -25.5t23.5 -82.5q0 -44 -17 -78.5t-48.5 -56.5t-75.5 -30z" />
    <glyph glyph-name="Udieresis.ss01" horiz-adv-x="498" 
d="M249 -10q-100 0 -151.5 58.5t-51.5 158.5v513h142v-546q0 -36 16.5 -54t44.5 -18q29 0 45 18t16 54v546h142v-513q0 -100 -51.5 -158.5t-151.5 -58.5zM145 800q-32 0 -54 23t-22 56t22 54.5t54 21.5t54 -21.5t22 -55.5q0 -33 -22 -55.5t-54 -22.5zM352 800q-32 0 -54 23
t-22 56t22 54.5t54 21.5t54 -21.5t22 -55.5q0 -33 -22 -55.5t-54 -22.5z" />
    <glyph glyph-name="Ydieresis.ss01" horiz-adv-x="506" 
d="M182 0v306l-174 414h156l134 -376h-69l133 376h136l-174 -414v-306h-142zM149 800q-32 0 -54 23t-22 56t22 54.5t54 21.5t54 -21.5t22 -55.5q0 -33 -22 -55.5t-54 -22.5zM356 800q-32 0 -54 23t-22 56t22 54.5t54 21.5t54 -21.5t22 -55.5q0 -33 -22 -55.5t-54 -22.5z" />
    <glyph glyph-name="Zdotaccent.ss01" horiz-adv-x="453" 
d="M42 0v100l211 528l18 -18h-221v110h361v-80l-223 -548l-18 18h245v-110h-373zM227 790q-36 0 -61 25.5t-25 63.5t25 62t61 24q37 0 61.5 -24t24.5 -62t-24.5 -63.5t-61.5 -25.5z" />
    <glyph glyph-name="K.ss04" horiz-adv-x="504" 
d="M50 0v720h142v-720h-142zM93 267l242 453h147l-193 -333l-26 -9l-106 -194zM340 0l-151 439l124 19l179 -458h-152z" />
    <glyph glyph-name="uni0136.ss04" horiz-adv-x="504" 
d="M50 0v720h142v-720h-142zM93 267l242 453h147l-193 -333l-26 -9l-106 -194zM340 0l-151 439l124 19l179 -458h-152zM192 -339v62q34 5 51 22.5t17 53.5l50 -10h-118v137h140v-100q0 -66 -38 -110t-102 -55z" />
    <glyph glyph-name="R.ss05" horiz-adv-x="466" 
d="M50 0v720h198q64 0 106 -27t63 -71.5t21 -97.5q0 -73 -38.5 -121t-113.5 -69l10 51q74 -12 102 -51t28 -100v-234h-142v229q0 35 -16 52.5t-45 17.5h-63v112h68q32 0 50 26t18 77q0 50 -18 76t-50 26h-36v-616h-142z" />
    <glyph glyph-name="Racute.ss05" horiz-adv-x="466" 
d="M50 0v720h198q64 0 106 -27t63 -71.5t21 -97.5q0 -73 -38.5 -121t-113.5 -69l10 51q74 -12 102 -51t28 -100v-234h-142v229q0 35 -16 52.5t-45 17.5h-63v112h68q32 0 50 26t18 77q0 50 -18 76t-50 26h-36v-616h-142zM257 793h-108l62 157h168z" />
    <glyph glyph-name="Rcaron.ss05" horiz-adv-x="466" 
d="M50 0v720h198q64 0 106 -27t63 -71.5t21 -97.5q0 -73 -38.5 -121t-113.5 -69l10 51q74 -12 102 -51t28 -100v-234h-142v229q0 35 -16 52.5t-45 17.5h-63v112h68q32 0 50 26t18 77q0 50 -18 76t-50 26h-36v-616h-142zM171 793l-102 157h101l114 -117h-100l114 117h101
l-102 -157h-126z" />
    <glyph glyph-name="uni0156.ss05" horiz-adv-x="466" 
d="M50 0v720h198q64 0 106 -27t63 -71.5t21 -97.5q0 -73 -38.5 -121t-113.5 -69l10 51q74 -12 102 -51t28 -100v-234h-142v229q0 35 -16 52.5t-45 17.5h-63v112h68q32 0 50 26t18 77q0 50 -18 76t-50 26h-36v-616h-142zM164 -339v62q34 5 51 22.5t17 53.5l50 -10h-118v137
h140v-100q0 -66 -38 -110t-102 -55z" />
    <glyph glyph-name="M.ss06" horiz-adv-x="668" 
d="M32 0l53 720h146l132 -676h-57l130 676h146l54 -720h-138l-35 642l46 -1l-127 -641h-104l-127 641l45 1l-34 -642h-130z" />
    <glyph glyph-name="G.ss07" horiz-adv-x="515" 
d="M269 -10q-79 0 -132 42.5t-80 125t-27 202.5t28.5 202.5t81.5 125t128 42.5q68 0 114 -33t69.5 -92t23.5 -138h-140q0 48 -7 81.5t-22 51.5t-41 18q-29 0 -49.5 -24.5t-31 -80t-10.5 -149.5t10 -152t31 -84t54 -26q30 0 46 22.5t22.5 75t6.5 143.5h141q0 -122 -23.5 -200
t-71.5 -115.5t-121 -37.5zM445 275h-186v110h226v-42z" />
    <glyph glyph-name="Gbreve.ss07" horiz-adv-x="515" 
d="M269 -10q-79 0 -132 42.5t-80 125t-27 202.5t28.5 202.5t81.5 125t128 42.5q68 0 114 -33t69.5 -92t23.5 -138h-140q0 48 -7 81.5t-22 51.5t-41 18q-29 0 -49.5 -24.5t-31 -80t-10.5 -149.5t10 -152t31 -84t54 -26q30 0 46 22.5t22.5 75t6.5 143.5h141q0 -122 -23.5 -200
t-71.5 -115.5t-121 -37.5zM445 275h-186v110h226v-42zM267 784q-41 0 -76.5 19.5t-57 56.5t-21.5 90h91q0 -23 16 -44.5t48 -21.5t48 21.5t16 44.5h91q0 -53 -21.5 -90t-57 -56.5t-76.5 -19.5z" />
    <glyph glyph-name="uni0122.ss07" horiz-adv-x="515" 
d="M269 -10q-79 0 -132 42.5t-80 125t-27 202.5t28.5 202.5t81.5 125t128 42.5q68 0 114 -33t69.5 -92t23.5 -138h-140q0 48 -7 81.5t-22 51.5t-41 18q-29 0 -49.5 -24.5t-31 -80t-10.5 -149.5t10 -152t31 -84t54 -26q30 0 46 22.5t22.5 75t6.5 143.5h141q0 -122 -23.5 -200
t-71.5 -115.5t-121 -37.5zM445 275h-186v110h226v-42zM197 -339v62q34 5 51 22.5t17 53.5l50 -10h-118v137h140v-100q0 -66 -38 -110t-102 -55z" />
    <glyph glyph-name="Gdotaccent.ss07" horiz-adv-x="515" 
d="M269 -10q-79 0 -132 42.5t-80 125t-27 202.5t28.5 202.5t81.5 125t128 42.5q68 0 114 -33t69.5 -92t23.5 -138h-140q0 48 -7 81.5t-22 51.5t-41 18q-29 0 -49.5 -24.5t-31 -80t-10.5 -149.5t10 -152t31 -84t54 -26q30 0 46 22.5t22.5 75t6.5 143.5h141q0 -122 -23.5 -200
t-71.5 -115.5t-121 -37.5zM445 275h-186v110h226v-42zM195 783v147h144v-147h-144z" />
    <glyph glyph-name="J.ss08" horiz-adv-x="468" 
d="M229 -10q-62 0 -106.5 25t-67.5 72t-23 114h138q0 -56 16.5 -77.5t42.5 -21.5q18 0 29 8.5t16.5 25t5.5 38.5v546h142v-543q0 -52 -22 -94.5t-65 -67.5t-106 -25z" />
    <glyph glyph-name="Q.ss09" horiz-adv-x="536" 
d="M268 -10q-58 0 -102.5 24t-74.5 71.5t-45.5 117t-15.5 160.5q0 120 27 201.5t80 123.5t130 42q79 0 132 -41.5t80 -123.5t27 -203q0 -91 -15.5 -160.5t-45.5 -116.5t-74.5 -71t-102.5 -24zM267 92q24 0 43 6t31.5 31t19 80.5t6.5 154.5q0 90 -11 146t-33.5 82t-55.5 26
q-32 0 -54 -26t-33 -81.5t-11 -146.5q0 -96 11 -156t33 -88t54 -28zM220 188l96 55l175 -304l-96 -55z" />
    <glyph glyph-name="uni0136.ss01.ss04" horiz-adv-x="504" 
d="M50 0v720h142v-720h-142zM93 267l242 453h147l-193 -333l-26 -9l-106 -194zM340 0l-151 439l124 19l179 -458h-152zM199 -339v62q36 5 52.5 22.5t16.5 53.5l42 -1q-10 -7 -23.5 -12t-24.5 -5q-33 0 -55.5 21t-22.5 55q0 35 23 56t52 21q34 0 57.5 -25.5t23.5 -82.5
q0 -44 -17 -78.5t-48.5 -56.5t-75.5 -30z" />
    <glyph glyph-name="uni0156.ss01.ss05" horiz-adv-x="466" 
d="M50 0v720h198q64 0 106 -27t63 -71.5t21 -97.5q0 -73 -38.5 -121t-113.5 -69l10 51q74 -12 102 -51t28 -100v-234h-142v229q0 35 -16 52.5t-45 17.5h-63v112h68q32 0 50 26t18 77q0 50 -18 76t-50 26h-36v-616h-142zM171 -339v62q36 5 52.5 22.5t16.5 53.5l42 -1
q-10 -7 -23.5 -12t-24.5 -5q-33 0 -55.5 21t-22.5 55q0 35 23 56t52 21q34 0 57.5 -25.5t23.5 -82.5q0 -44 -17 -78.5t-48.5 -56.5t-75.5 -30z" />
    <glyph glyph-name="uni0122.ss01.ss07" horiz-adv-x="515" 
d="M269 -10q-79 0 -132 42.5t-80 125t-27 202.5t28.5 202.5t81.5 125t128 42.5q68 0 114 -33t69.5 -92t23.5 -138h-140q0 48 -7 81.5t-22 51.5t-41 18q-29 0 -49.5 -24.5t-31 -80t-10.5 -149.5t10 -152t31 -84t54 -26q30 0 46 22.5t22.5 75t6.5 143.5h141q0 -122 -23.5 -200
t-71.5 -115.5t-121 -37.5zM445 275h-186v110h226v-42zM204 -339v62q36 5 52.5 22.5t16.5 53.5l42 -1q-10 -7 -23.5 -12t-24.5 -5q-33 0 -55.5 21t-22.5 55q0 35 23 56t52 21q34 0 57.5 -25.5t23.5 -82.5q0 -44 -17 -78.5t-48.5 -56.5t-75.5 -30z" />
    <glyph glyph-name="Gdotaccent.ss01.ss07" horiz-adv-x="515" 
d="M269 -10q-79 0 -132 42.5t-80 125t-27 202.5t28.5 202.5t81.5 125t128 42.5q68 0 114 -33t69.5 -92t23.5 -138h-140q0 48 -7 81.5t-22 51.5t-41 18q-29 0 -49.5 -24.5t-31 -80t-10.5 -149.5t10 -152t31 -84t54 -26q30 0 46 22.5t22.5 75t6.5 143.5h141q0 -122 -23.5 -200
t-71.5 -115.5t-121 -37.5zM445 275h-186v110h226v-42zM267 790q-36 0 -61 25.5t-25 63.5t25 62t61 24q37 0 61.5 -24t24.5 -62t-24.5 -63.5t-61.5 -25.5z" />
    <glyph glyph-name="i.loclTRK" horiz-adv-x="226" 
d="M44 0v510h138v-510h-138zM41 573v147h144v-147h-144z" />
    <glyph glyph-name="adieresis.ss01" horiz-adv-x="418" 
d="M262 0q-7 18 -9.5 39.5t-2.5 45.5h-4v271q0 35 -9.5 49.5t-30.5 14.5t-32 -16t-11 -48h-121q0 71 47 117.5t127 46.5q78 0 120 -42t42 -118v-275q0 -21 2.5 -42.5t9.5 -42.5h-128zM140 -10q-46 0 -77 35t-31 96q0 55 24 91.5t87 68.5l137 70v-103l-57 -31
q-32 -17 -45.5 -36.5t-13.5 -43.5q0 -23 11 -35t29 -12t30 10.5t12 26.5l9 -55q-16 -43 -45 -62.5t-70 -19.5zM105 590q-32 0 -54 23t-22 56t22 54.5t54 21.5t54 -21.5t22 -55.5q0 -33 -22 -55.5t-54 -22.5zM312 590q-32 0 -54 23t-22 56t22 54.5t54 21.5t54 -21.5t22 -55.5
q0 -33 -22 -55.5t-54 -22.5z" />
    <glyph glyph-name="cdotaccent.ss01" horiz-adv-x="418" 
d="M215 -10q-55 0 -99 31t-69.5 90.5t-25.5 145.5t26.5 144.5t72 88.5t100.5 30q51 0 92 -23t64.5 -70t23.5 -119h-122q0 59 -15.5 81.5t-38.5 22.5q-16 0 -30.5 -12.5t-23.5 -46t-9 -96.5q0 -64 9 -98.5t23.5 -47.5t30.5 -13q23 0 38.5 22.5t15.5 81.5h122
q0 -71 -25.5 -118t-67.5 -70.5t-92 -23.5zM219 580q-36 0 -61 25.5t-25 63.5t25 62t61 24q37 0 61.5 -24t24.5 -62t-24.5 -63.5t-61.5 -25.5z" />
    <glyph glyph-name="edieresis.ss01" horiz-adv-x="440" 
d="M225 -10q-61 0 -107 33.5t-71.5 93.5t-25.5 140q0 81 26 140t73 91t111 32q61 0 102.5 -29.5t63.5 -85.5t22 -136q0 -14 -0.5 -26t-2.5 -22h-311v89h223l-28 -31q0 75 -18 108t-52 33t-52 -38.5t-18 -124.5q0 -88 17 -127.5t53 -39.5q26 0 40 18t19 54h122
q-13 -75 -59 -123.5t-127 -48.5zM127 590q-32 0 -54 23t-22 56t22 54.5t54 21.5t54 -21.5t22 -55.5q0 -33 -22 -55.5t-54 -22.5zM334 590q-32 0 -54 23t-22 56t22 54.5t54 21.5t54 -21.5t22 -55.5q0 -33 -22 -55.5t-54 -22.5z" />
    <glyph glyph-name="edotaccent.ss01" horiz-adv-x="440" 
d="M225 -10q-61 0 -107 33.5t-71.5 93.5t-25.5 140q0 81 26 140t73 91t111 32q61 0 102.5 -29.5t63.5 -85.5t22 -136q0 -14 -0.5 -26t-2.5 -22h-311v89h223l-28 -31q0 75 -18 108t-52 33t-52 -38.5t-18 -124.5q0 -88 17 -127.5t53 -39.5q26 0 40 18t19 54h122
q-13 -75 -59 -123.5t-127 -48.5zM231 580q-36 0 -61 25.5t-25 63.5t25 62t61 24q37 0 61.5 -24t24.5 -62t-24.5 -63.5t-61.5 -25.5z" />
    <glyph glyph-name="uni0123.ss01" 
d="M241 -215q-85 0 -137.5 46t-56.5 123h130q2 -23 18.5 -37t41.5 -14q27 0 43.5 18t16.5 49v147h7q-7 -50 -38.5 -79.5t-78.5 -29.5q-49 0 -85.5 31t-56.5 88t-20 134q0 80 21 138t59 89.5t90 31.5q50 0 80 -29t37 -83h-7v102h130v-512q0 -102 -50.5 -157.5t-143.5 -55.5z
M234 118q32 0 50 37t18 111t-17.5 109t-49.5 35q-31 0 -49.5 -37t-18.5 -111q0 -73 18 -108.5t49 -35.5zM238 576q-34 0 -57.5 25.5t-23.5 82.5q0 44 17 78.5t48.5 57t75.5 29.5v-62q-36 -4 -52.5 -22t-16.5 -54l-42 1q10 8 23.5 12.5t24.5 4.5q33 0 55.5 -20.5t22.5 -55.5
q0 -34 -23 -55.5t-52 -21.5z" />
    <glyph glyph-name="gdotaccent.ss01" 
d="M241 -215q-85 0 -137.5 46t-56.5 123h130q2 -23 18.5 -37t41.5 -14q27 0 43.5 18t16.5 49v147h7q-7 -50 -38.5 -79.5t-78.5 -29.5q-49 0 -85.5 31t-56.5 88t-20 134q0 80 21 138t59 89.5t90 31.5q50 0 80 -29t37 -83h-7v102h130v-512q0 -102 -50.5 -157.5t-143.5 -55.5z
M234 118q32 0 50 37t18 111t-17.5 109t-49.5 35q-31 0 -49.5 -37t-18.5 -111q0 -73 18 -108.5t49 -35.5zM235 580q-36 0 -61 25.5t-25 63.5t25 62t61 24q37 0 61.5 -24t24.5 -62t-24.5 -63.5t-61.5 -25.5z" />
    <glyph glyph-name="i.ss01" horiz-adv-x="226" 
d="M44 0v510h138v-510h-138zM113 580q-36 0 -61 25.5t-25 63.5t25 62t61 24q37 0 61.5 -24t24.5 -62t-24.5 -63.5t-61.5 -25.5z" />
    <glyph glyph-name="idieresis.ss01" horiz-adv-x="226" 
d="M44 0v510h138v-510h-138zM9 590q-32 0 -54 23t-22 56t22 54.5t54 21.5t54 -21.5t22 -55.5q0 -33 -22 -55.5t-54 -22.5zM216 590q-32 0 -54 23t-22 56t22 54.5t54 21.5t54 -21.5t22 -55.5q0 -33 -22 -55.5t-54 -22.5z" />
    <glyph glyph-name="i.loclTRK.ss01" horiz-adv-x="226" 
d="M44 0v510h138v-510h-138zM113 580q-36 0 -61 25.5t-25 63.5t25 62t61 24q37 0 61.5 -24t24.5 -62t-24.5 -63.5t-61.5 -25.5z" />
    <glyph glyph-name="ij.ss01" horiz-adv-x="452" 
d="M44 0v510h138v-510h-138zM113 580q-36 0 -61 25.5t-25 63.5t25 62t61 24q37 0 61.5 -24t24.5 -62t-24.5 -63.5t-61.5 -25.5zM261 -215q-17 0 -30 1.5t-25 5.5v105q5 -2 12 -3t15 -1q16 0 26.5 7.5t10.5 25.5v584h138v-594q0 -63 -36.5 -97t-110.5 -34zM339 580
q-36 0 -61 25.5t-25 63.5t25 62t61 24q37 0 61.5 -24t24.5 -62t-24.5 -63.5t-61.5 -25.5z" />
    <glyph glyph-name="iogonek.ss01" horiz-adv-x="226" 
d="M44 0v510h138v-510h-138zM113 580q-36 0 -61 25.5t-25 63.5t25 62t61 24q37 0 61.5 -24t24.5 -62t-24.5 -63.5t-61.5 -25.5zM112 -216q-46 0 -70 23t-24 61q0 44 33 81.5t84 67.5l47 -17q-44 -38 -65 -67t-21 -54q0 -16 8 -22.5t19 -6.5q17 0 35 14l27 -60
q-14 -9 -32.5 -14.5t-40.5 -5.5z" />
    <glyph glyph-name="j.ss01" horiz-adv-x="226" 
d="M35 -215q-17 0 -30 1.5t-25 5.5v105q5 -2 12 -3t15 -1q16 0 26.5 7.5t10.5 25.5v584h138v-594q0 -63 -36.5 -97t-110.5 -34zM113 580q-36 0 -61 25.5t-25 63.5t25 62t61 24q37 0 61.5 -24t24.5 -62t-24.5 -63.5t-61.5 -25.5z" />
    <glyph glyph-name="uni0137.ss01" horiz-adv-x="439" 
d="M44 0v720h138v-720h-138zM283 0l-112 265l106 245h142l-133 -268l2 47l141 -289h-146zM167 -339v62q36 5 52.5 22.5t16.5 53.5l42 -1q-10 -7 -23.5 -12t-24.5 -5q-33 0 -55.5 21t-22.5 55q0 35 23 56t52 21q34 0 57.5 -25.5t23.5 -82.5q0 -44 -17 -78.5t-48.5 -56.5
t-75.5 -30z" />
    <glyph glyph-name="uni013C.ss01" horiz-adv-x="226" 
d="M44 0v720h138v-720h-138zM50 -339v62q36 5 52.5 22.5t16.5 53.5l42 -1q-10 -7 -23.5 -12t-24.5 -5q-33 0 -55.5 21t-22.5 55q0 35 23 56t52 21q34 0 57.5 -25.5t23.5 -82.5q0 -44 -17 -78.5t-48.5 -56.5t-75.5 -30z" />
    <glyph glyph-name="uni0146.ss01" horiz-adv-x="462" 
d="M44 0v510h133v-96h5v-414h-138zM284 0v360q0 26 -11 38t-32 12q-19 0 -32.5 -10t-20 -26t-6.5 -36l-18 73q20 53 56 81t88 28q53 0 83.5 -34t30.5 -95v-391h-138zM172 -339v62q36 5 52.5 22.5t16.5 53.5l42 -1q-10 -7 -23.5 -12t-24.5 -5q-33 0 -55.5 21t-22.5 55
q0 35 23 56t52 21q34 0 57.5 -25.5t23.5 -82.5q0 -44 -17 -78.5t-48.5 -56.5t-75.5 -30z" />
    <glyph glyph-name="odieresis.ss01" horiz-adv-x="460" 
d="M230 -10q-62 0 -109.5 33t-73.5 93t-26 141t26 140t73 91t110 32t110 -32t73 -91t26 -140t-26 -141t-73 -93t-110 -33zM230 98q20 0 35 15t23.5 50t8.5 94q0 86 -18.5 120.5t-48.5 34.5t-48.5 -34.5t-18.5 -120.5q0 -59 8.5 -94t23.5 -50t35 -15zM126 590q-32 0 -54 23
t-22 56t22 54.5t54 21.5t54 -21.5t22 -55.5q0 -33 -22 -55.5t-54 -22.5zM333 590q-32 0 -54 23t-22 56t22 54.5t54 21.5t54 -21.5t22 -55.5q0 -33 -22 -55.5t-54 -22.5z" />
    <glyph glyph-name="uni0157.ss01" horiz-adv-x="312" 
d="M44 0v510h133v-126h5v-384h-138zM182 290l-16 91q14 75 42.5 107t69.5 32q11 0 20 -3v-137q-3 1 -9 1.5t-16 0.5q-41 0 -66 -20t-25 -72zM45 -339v62q36 5 52.5 22.5t16.5 53.5l42 -1q-10 -7 -23.5 -12t-24.5 -5q-33 0 -55.5 21t-22.5 55q0 35 23 56t52 21
q34 0 57.5 -25.5t23.5 -82.5q0 -44 -17 -78.5t-48.5 -56.5t-75.5 -30z" />
    <glyph glyph-name="uni0219.ss01" horiz-adv-x="367" 
d="M190 -10q-77 0 -121.5 44t-48.5 125h111q3 -34 19.5 -51.5t42.5 -17.5q19 0 30.5 10t11.5 29q0 18 -9.5 31t-41.5 32l-59 35q-42 25 -64 61t-22 87q0 64 41 104.5t107 40.5q72 0 113 -40.5t45 -112.5h-111q-2 29 -13 41t-28 12q-16 0 -27 -9.5t-11 -27.5q0 -16 10 -29.5
t36 -28.5l67 -39q38 -22 60.5 -61t22.5 -88q0 -67 -42.5 -107t-118.5 -40zM131 -339v62q36 5 52.5 22.5t16.5 53.5l42 -1q-10 -7 -23.5 -12t-24.5 -5q-33 0 -55.5 21t-22.5 55q0 35 23 56t52 21q34 0 57.5 -25.5t23.5 -82.5q0 -44 -17 -78.5t-48.5 -56.5t-75.5 -30z" />
    <glyph glyph-name="uni021B.ss01" horiz-adv-x="313" 
d="M228 -10q-78 0 -115.5 37.5t-37.5 114.5v467l138 61v-528q0 -22 12.5 -33t38.5 -11q10 0 18.5 2t16.5 6v-104q-10 -6 -29 -9t-42 -3zM10 402v108h285v-108h-285zM138 -339v62q36 5 52.5 22.5t16.5 53.5l42 -1q-10 -7 -23.5 -12t-24.5 -5q-33 0 -55.5 21t-22.5 55
q0 35 23 56t52 21q34 0 57.5 -25.5t23.5 -82.5q0 -44 -17 -78.5t-48.5 -56.5t-75.5 -30z" />
    <glyph glyph-name="udieresis.ss01" horiz-adv-x="454" 
d="M150 -10q-33 0 -58 14t-38.5 41.5t-13.5 67.5v397h138v-362q0 -24 10.5 -36t28.5 -12t30 10t18.5 26.5t6.5 35.5l18 -73q-19 -52 -54.5 -80.5t-85.5 -28.5zM277 0v96h-5v414h138v-510h-133zM123 590q-32 0 -54 23t-22 56t22 54.5t54 21.5t54 -21.5t22 -55.5
q0 -33 -22 -55.5t-54 -22.5zM330 590q-32 0 -54 23t-22 56t22 54.5t54 21.5t54 -21.5t22 -55.5q0 -33 -22 -55.5t-54 -22.5z" />
    <glyph glyph-name="wdieresis.ss01" horiz-adv-x="668" 
d="M131 0l-107 510h136l54 -367h-9l61 367h140l62 -367h-9l53 367h132l-107 -510h-150l-58 361h10l-58 -361h-150zM230 590q-32 0 -54 23t-22 56t22 54.5t54 21.5t54 -21.5t22 -55.5q0 -33 -22 -55.5t-54 -22.5zM437 590q-32 0 -54 23t-22 56t22 54.5t54 21.5t54 -21.5
t22 -55.5q0 -33 -22 -55.5t-54 -22.5z" />
    <glyph glyph-name="ydieresis.ss01" horiz-adv-x="426" 
d="M103 -205l75 296l24 29l74 390h136l-180 -715h-129zM167 -16l-153 526h147l91 -451zM119 590q-32 0 -54 23t-22 56t22 54.5t54 21.5t54 -21.5t22 -55.5q0 -33 -22 -55.5t-54 -22.5zM326 590q-32 0 -54 23t-22 56t22 54.5t54 21.5t54 -21.5t22 -55.5q0 -33 -22 -55.5
t-54 -22.5z" />
    <glyph glyph-name="zdotaccent.ss01" horiz-adv-x="399" 
d="M35 0v98l175 320l15 -16h-182v108h322v-78l-187 -340l-15 16h206v-108h-334zM200 580q-36 0 -61 25.5t-25 63.5t25 62t61 24q37 0 61.5 -24t24.5 -62t-24.5 -63.5t-61.5 -25.5z" />
    <glyph glyph-name="a.ss02" 
d="M179 -10q-48 0 -82.5 31t-53 88.5t-18.5 138.5q0 84 20 145t56 94t85 33q44 0 81 -29t45 -83h-10v102h133v-510h-133v99l8 -1q-10 -52 -46.5 -80t-84.5 -28zM234 100q33 0 50.5 38.5t17.5 118.5t-17 116.5t-50 36.5t-50.5 -38.5t-17.5 -118.5q0 -79 17 -116t50 -37z" />
    <glyph glyph-name="aacute.ss02" 
d="M179 -10q-48 0 -82.5 31t-53 88.5t-18.5 138.5q0 84 20 145t56 94t85 33q44 0 81 -29t45 -83h-10v102h133v-510h-133v99l8 -1q-10 -52 -46.5 -80t-84.5 -28zM234 100q33 0 50.5 38.5t17.5 118.5t-17 116.5t-50 36.5t-50.5 -38.5t-17.5 -118.5q0 -79 17 -116t50 -37z
M263 583h-108l62 157h168z" />
    <glyph glyph-name="abreve.ss02" 
d="M179 -10q-48 0 -82.5 31t-53 88.5t-18.5 138.5q0 84 20 145t56 94t85 33q44 0 81 -29t45 -83h-10v102h133v-510h-133v99l8 -1q-10 -52 -46.5 -80t-84.5 -28zM234 100q33 0 50.5 38.5t17.5 118.5t-17 116.5t-50 36.5t-50.5 -38.5t-17.5 -118.5q0 -79 17 -116t50 -37z
M240 574q-41 0 -76.5 19.5t-57 56.5t-21.5 90h91q0 -23 16 -44.5t48 -21.5t48 21.5t16 44.5h91q0 -53 -21.5 -90t-57 -56.5t-76.5 -19.5z" />
    <glyph glyph-name="uni01CE.ss02" 
d="M179 -10q-48 0 -82.5 31t-53 88.5t-18.5 138.5q0 84 20 145t56 94t85 33q44 0 81 -29t45 -83h-10v102h133v-510h-133v99l8 -1q-10 -52 -46.5 -80t-84.5 -28zM234 100q33 0 50.5 38.5t17.5 118.5t-17 116.5t-50 36.5t-50.5 -38.5t-17.5 -118.5q0 -79 17 -116t50 -37z
M177 583l-102 157h101l114 -117h-100l114 117h101l-102 -157h-126z" />
    <glyph glyph-name="acircumflex.ss02" 
d="M179 -10q-48 0 -82.5 31t-53 88.5t-18.5 138.5q0 84 20 145t56 94t85 33q44 0 81 -29t45 -83h-10v102h133v-510h-133v99l8 -1q-10 -52 -46.5 -80t-84.5 -28zM234 100q33 0 50.5 38.5t17.5 118.5t-17 116.5t-50 36.5t-50.5 -38.5t-17.5 -118.5q0 -79 17 -116t50 -37z
M75 583l102 157h126l102 -157h-101l-114 117h100l-114 -117h-101z" />
    <glyph glyph-name="adieresis.ss02" 
d="M179 -10q-48 0 -82.5 31t-53 88.5t-18.5 138.5q0 84 20 145t56 94t85 33q44 0 81 -29t45 -83h-10v102h133v-510h-133v99l8 -1q-10 -52 -46.5 -80t-84.5 -28zM234 100q33 0 50.5 38.5t17.5 118.5t-17 116.5t-50 36.5t-50.5 -38.5t-17.5 -118.5q0 -79 17 -116t50 -37z
M273 575v145h141v-145h-141zM65 575v145h141v-145h-141z" />
    <glyph glyph-name="agrave.ss02" 
d="M179 -10q-48 0 -82.5 31t-53 88.5t-18.5 138.5q0 84 20 145t56 94t85 33q44 0 81 -29t45 -83h-10v102h133v-510h-133v99l8 -1q-10 -52 -46.5 -80t-84.5 -28zM234 100q33 0 50.5 38.5t17.5 118.5t-17 116.5t-50 36.5t-50.5 -38.5t-17.5 -118.5q0 -79 17 -116t50 -37z
M217 583l-122 157h168l62 -157h-108z" />
    <glyph glyph-name="amacron.ss02" 
d="M179 -10q-48 0 -82.5 31t-53 88.5t-18.5 138.5q0 84 20 145t56 94t85 33q44 0 81 -29t45 -83h-10v102h133v-510h-133v99l8 -1q-10 -52 -46.5 -80t-84.5 -28zM234 100q33 0 50.5 38.5t17.5 118.5t-17 116.5t-50 36.5t-50.5 -38.5t-17.5 -118.5q0 -79 17 -116t50 -37z
M96 622v98h287v-98h-287z" />
    <glyph glyph-name="aogonek.ss02" 
d="M179 -10q-48 0 -82.5 31t-53 88.5t-18.5 138.5q0 84 20 145t56 94t85 33q44 0 81 -29t45 -83h-10v102h133v-510h-133v99l8 -1q-10 -52 -46.5 -80t-84.5 -28zM234 100q33 0 50.5 38.5t17.5 118.5t-17 116.5t-50 36.5t-50.5 -38.5t-17.5 -118.5q0 -79 17 -116t50 -37z
M365 -216q-46 0 -70 23t-24 61q0 44 33 81.5t84 67.5l47 -17q-44 -38 -65 -67t-21 -54q0 -16 8 -22.5t19 -6.5q17 0 35 14l27 -60q-14 -9 -32.5 -14.5t-40.5 -5.5z" />
    <glyph glyph-name="aring.ss02" 
d="M179 -10q-48 0 -82.5 31t-53 88.5t-18.5 138.5q0 84 20 145t56 94t85 33q44 0 81 -29t45 -83h-10v102h133v-510h-133v99l8 -1q-10 -52 -46.5 -80t-84.5 -28zM234 100q33 0 50.5 38.5t17.5 118.5t-17 116.5t-50 36.5t-50.5 -38.5t-17.5 -118.5q0 -79 17 -116t50 -37z
M240 561q-46 0 -77 31.5t-31 76.5q0 44 31 75.5t77 31.5t76.5 -31.5t30.5 -75.5q0 -45 -30.5 -76.5t-76.5 -31.5zM241 630q16 0 26 11.5t10 27.5t-10.5 27t-26.5 11q-17 0 -27.5 -11t-10.5 -27t10.5 -27.5t28.5 -11.5z" />
    <glyph glyph-name="atilde.ss02" 
d="M179 -10q-48 0 -82.5 31t-53 88.5t-18.5 138.5q0 84 20 145t56 94t85 33q44 0 81 -29t45 -83h-10v102h133v-510h-133v99l8 -1q-10 -52 -46.5 -80t-84.5 -28zM234 100q33 0 50.5 38.5t17.5 118.5t-17 116.5t-50 36.5t-50.5 -38.5t-17.5 -118.5q0 -79 17 -116t50 -37z
M303 601q-25 0 -42 6t-29.5 14.5t-24 14.5t-25.5 6t-24 -8t-10 -28h-82q0 38 13 69t38.5 49t61.5 18q26 0 42 -6t27.5 -14.5t22.5 -14.5t26 -6q14 0 24 8t10 28h82q0 -38 -13.5 -69t-38 -49t-58.5 -18z" />
    <glyph glyph-name="y.ss03" horiz-adv-x="436" 
d="M111 -215q-17 0 -29 1.5t-24 5.5v103q5 -1 12 -1.5t15 -0.5q26 0 50 15.5t32 56.5l25 123l37 58l70 364h123l-140 -557q-16 -66 -42 -102.5t-58.5 -51t-70.5 -14.5zM177 -13l-153 523h142l84 -431z" />
    <glyph glyph-name="yacute.ss03" horiz-adv-x="436" 
d="M111 -215q-17 0 -29 1.5t-24 5.5v103q5 -1 12 -1.5t15 -0.5q26 0 50 15.5t32 56.5l25 123l37 58l70 364h123l-140 -557q-16 -66 -42 -102.5t-58.5 -51t-70.5 -14.5zM177 -13l-153 523h142l84 -431zM239 583h-108l62 157h168z" />
    <glyph glyph-name="ycircumflex.ss03" horiz-adv-x="436" 
d="M111 -215q-17 0 -29 1.5t-24 5.5v103q5 -1 12 -1.5t15 -0.5q26 0 50 15.5t32 56.5l25 123l37 58l70 364h123l-140 -557q-16 -66 -42 -102.5t-58.5 -51t-70.5 -14.5zM177 -13l-153 523h142l84 -431zM51 583l102 157h126l102 -157h-101l-114 117h100l-114 -117h-101z" />
    <glyph glyph-name="ydieresis.ss03" horiz-adv-x="436" 
d="M111 -215q-17 0 -29 1.5t-24 5.5v103q5 -1 12 -1.5t15 -0.5q26 0 50 15.5t32 56.5l25 123l37 58l70 364h123l-140 -557q-16 -66 -42 -102.5t-58.5 -51t-70.5 -14.5zM177 -13l-153 523h142l84 -431zM249 575v145h141v-145h-141zM41 575v145h141v-145h-141z" />
    <glyph glyph-name="ygrave.ss03" horiz-adv-x="436" 
d="M111 -215q-17 0 -29 1.5t-24 5.5v103q5 -1 12 -1.5t15 -0.5q26 0 50 15.5t32 56.5l25 123l37 58l70 364h123l-140 -557q-16 -66 -42 -102.5t-58.5 -51t-70.5 -14.5zM177 -13l-153 523h142l84 -431zM193 583l-122 157h168l62 -157h-108z" />
    <glyph glyph-name="k.ss04" horiz-adv-x="439" 
d="M44 0v720h138v-720h-138zM160 235l117 275h142l-121 -244l-27 -13l-101 -172zM301 304l136 -304h-148l-107 266z" />
    <glyph glyph-name="uni0137.ss04" horiz-adv-x="439" 
d="M44 0v720h138v-720h-138zM160 235l117 275h142l-121 -244l-27 -13l-101 -172zM301 304l136 -304h-148l-107 266zM160 -339v62q34 5 51 22.5t17 53.5l50 -10h-118v137h140v-100q0 -66 -38 -110t-102 -55z" />
    <glyph glyph-name="adieresis.ss01.ss02" 
d="M179 -10q-48 0 -82.5 31t-53 88.5t-18.5 138.5q0 84 20 145t56 94t85 33q44 0 81 -29t45 -83h-10v102h133v-510h-133v99l8 -1q-10 -52 -46.5 -80t-84.5 -28zM234 100q33 0 50.5 38.5t17.5 118.5t-17 116.5t-50 36.5t-50.5 -38.5t-17.5 -118.5q0 -79 17 -116t50 -37z
M136 590q-32 0 -54 23t-22 56t22 54.5t54 21.5t54 -21.5t22 -55.5q0 -33 -22 -55.5t-54 -22.5zM343 590q-32 0 -54 23t-22 56t22 54.5t54 21.5t54 -21.5t22 -55.5q0 -33 -22 -55.5t-54 -22.5z" />
    <glyph glyph-name="ydieresis.ss01.ss03" horiz-adv-x="436" 
d="M111 -215q-17 0 -29 1.5t-24 5.5v103q5 -1 12 -1.5t15 -0.5q26 0 50 15.5t32 56.5l25 123l37 58l70 364h123l-140 -557q-16 -66 -42 -102.5t-58.5 -51t-70.5 -14.5zM177 -13l-153 523h142l84 -431zM112 590q-32 0 -54 23t-22 56t22 54.5t54 21.5t54 -21.5t22 -55.5
q0 -33 -22 -55.5t-54 -22.5zM319 590q-32 0 -54 23t-22 56t22 54.5t54 21.5t54 -21.5t22 -55.5q0 -33 -22 -55.5t-54 -22.5z" />
    <glyph glyph-name="uni0137.ss01.ss04" horiz-adv-x="439" 
d="M44 0v720h138v-720h-138zM160 235l117 275h142l-121 -244l-27 -13l-101 -172zM301 304l136 -304h-148l-107 266zM167 -339v62q36 5 52.5 22.5t16.5 53.5l42 -1q-10 -7 -23.5 -12t-24.5 -5q-33 0 -55.5 21t-22.5 55q0 35 23 56t52 21q34 0 57.5 -25.5t23.5 -82.5
q0 -44 -17 -78.5t-48.5 -56.5t-75.5 -30z" />
    <glyph glyph-name="f_f_i.ss01" horiz-adv-x="728" 
d="M308 0v576q0 77 39 115.5t106 38.5q14 0 26 -1.5t24 -5.5v-115q-5 2 -10.5 3t-12.5 1q-16 0 -25 -9.5t-9 -30.5v-572h-138zM67 0v576q0 77 39 115.5t106 38.5q17 0 30 -1.5t25 -5.5v-115q-5 2 -12 3t-15 1q-16 0 -25.5 -10t-9.5 -30v-572h-138zM10 392v118h583v-118h-583
zM546 0v510h138v-510h-138zM621 566q-34 0 -57 23.5t-23 59.5q0 35 23 57.5t57 22.5q35 0 57.5 -22.5t22.5 -57.5q0 -36 -22.5 -59.5t-57.5 -23.5z" />
    <glyph glyph-name="f_i.ss01" horiz-adv-x="501" 
d="M67 0v576q0 77 39 115.5t106 38.5q14 0 26 -1.5t24 -5.5v-115q-5 2 -10.5 3t-12.5 1q-16 0 -25 -9.5t-9 -30.5v-572h-138zM305 0v510h138v-510h-138zM380 576q-34 0 -57 23.5t-23 59.5q0 35 23 57.5t57 22.5q35 0 57.5 -22.5t22.5 -57.5q0 -36 -22.5 -59.5t-57.5 -23.5z
M10 392v118h342v-118h-342z" />
    <glyph glyph-name="two.ss10" horiz-adv-x="426" 
d="M31 0v80q0 61 16.5 109.5t43 88t55.5 73.5t55.5 66t43 65t16.5 71q0 35 -13 52t-38 17q-33 0 -50 -26t-17 -85h-129q0 104 54 161.5t147 57.5q88 0 137 -49t49 -136q0 -46 -14.5 -83.5t-37.5 -69.5t-51 -61t-54.5 -57.5t-48 -60t-32.5 -68.5t-7 -82l-16 43h270v-106h-379
z" />
    <glyph glyph-name="zero.tf" horiz-adv-x="500" 
d="M250 -10q-67 0 -116 38.5t-75.5 120.5t-26.5 214q0 130 26 211t75 118.5t116 37.5q69 0 118 -37.5t75 -118.5t26 -212q0 -132 -26.5 -214t-75 -120t-116.5 -38zM249 100q23 0 40 23.5t27 81t10 159.5q0 101 -9.5 156.5t-27 77.5t-40.5 22q-22 0 -39 -21.5t-26.5 -77
t-9.5 -157.5t9.5 -159.5t26.5 -81t39 -23.5z" />
    <glyph glyph-name="one.tf" horiz-adv-x="500" 
d="M207 40v606l31 -55q-14 -34 -38.5 -61.5t-56.5 -45t-67 -23.5v142q40 10 71 26.5t55 39.5t42 51h101v-680h-138zM65 0v106h400v-106h-400z" />
    <glyph glyph-name="two.tf" horiz-adv-x="500" 
d="M68 0v90q57 78 100.5 143t72 119t43 100t14.5 87q0 43 -13 63t-40 20q-33 0 -49 -27.5t-16 -83.5h-129q0 102 54 160.5t148 58.5q86 0 135.5 -49t49.5 -135q0 -42 -15 -94t-45 -113t-74 -130t-103 -146l-24 43h270v-106h-379z" />
    <glyph glyph-name="three.tf" horiz-adv-x="500" 
d="M249 -10q-65 0 -110.5 27.5t-69 81t-23.5 130.5h129q0 -70 17 -100.5t54 -30.5q32 0 49 25.5t17 75.5q0 58 -18.5 90.5t-67.5 32.5h-47v106h44q42 0 59 31t17 80q0 41 -14.5 62t-43.5 21q-31 0 -45.5 -26t-14.5 -85h-129q0 67 24.5 116t69.5 76t105 27q56 0 97.5 -23
t65 -64t23.5 -96q0 -49 -18.5 -89.5t-49 -64.5t-68.5 -24v21q43 0 77 -25.5t54 -70t20 -100.5q0 -62 -25 -108t-70.5 -71t-107.5 -25z" />
    <glyph glyph-name="four.tf" horiz-adv-x="500" 
d="M265 0v180l9 20v378l48 -1l-170 -357l-8 16h319v-106h-427v106l230 484h137v-720h-138z" />
    <glyph glyph-name="five.tf" horiz-adv-x="500" 
d="M250 -10q-97 0 -149.5 61t-52.5 169h129q0 -63 19 -92.5t53 -29.5q32 0 48.5 31t16.5 104q0 74 -15 106.5t-48 32.5q-24 0 -40 -12.5t-23 -43.5h-112l16 404h332v-106h-273l70 64l-10 -257l-32 -1q12 24 38 39t67 15q56 0 94.5 -29t58 -81.5t19.5 -124.5
q0 -81 -24.5 -136.5t-70.5 -84t-111 -28.5z" />
    <glyph glyph-name="six.tf" horiz-adv-x="500" 
d="M258 -10q-103 0 -159.5 87t-56.5 268q0 130 25 215t75 127.5t125 42.5q85 0 133 -52t52 -147h-128q-4 49 -20 70t-42 21q-43 0 -61.5 -61.5t-18.5 -206.5v-23l-33 11q10 40 29 65t47 37t64 12q53 0 92 -26.5t60 -76.5t21 -120q0 -76 -26 -130.5t-71.5 -83.5t-106.5 -29z
M251 98q32 0 51.5 32.5t19.5 99.5q0 68 -19 100t-52 32q-32 0 -51.5 -31.5t-19.5 -99.5q0 -45 9 -74.5t25 -44t37 -14.5z" />
    <glyph glyph-name="seven.tf" horiz-adv-x="500" 
d="M141 0q12 194 60 351.5t133 281.5l73 -19h-355v106h396v-104q-71 -118 -113 -272t-54 -344h-140z" />
    <glyph glyph-name="eight.tf" horiz-adv-x="500" 
d="M250 -10q-62 0 -109 26t-73 73t-26 109q0 54 20.5 97.5t54.5 69t76 25.5l10 -21q-43 0 -76 21t-51.5 59t-18.5 88q0 58 24.5 101.5t68 67.5t100.5 24q58 0 101.5 -24t67.5 -67.5t24 -101.5q0 -50 -18.5 -88t-51 -59t-76.5 -21l10 21q42 0 76.5 -25.5t54.5 -69t20 -97.5
q0 -62 -26 -109t-72.5 -73t-109.5 -26zM250 98q32 0 50 30t18 83t-18 82.5t-50 29.5t-50 -29.5t-18 -82.5q0 -54 18 -83.5t50 -29.5zM250 427q26 0 40.5 26t14.5 72q0 47 -14.5 72t-41.5 25q-25 0 -39.5 -25.5t-14.5 -71.5t15 -72t40 -26z" />
    <glyph glyph-name="nine.tf" horiz-adv-x="500" 
d="M241 -10q-51 0 -94 24t-69.5 73t-29.5 122h129q4 -64 23.5 -87.5t44.5 -23.5q18 0 31.5 11t23 39.5t14 81t4.5 136.5v23l33 1q-9 -40 -28.5 -65t-47.5 -37t-64 -12q-53 0 -92 26.5t-60 75t-21 115.5q0 73 25 126t72 82t112 29q110 0 160.5 -90t50.5 -271
q0 -139 -23 -222.5t-70.5 -120t-123.5 -36.5zM249 370q33 0 52 31t19 94t-19 95t-52 32t-52 -31.5t-19 -94.5q0 -64 18.5 -95t52.5 -31z" />
    <glyph glyph-name="two.tf.ss10" horiz-adv-x="500" 
d="M68 0v80q0 61 16.5 109.5t43 88t55.5 73.5t55.5 66t43 65t16.5 71q0 35 -13 52t-38 17q-33 0 -50 -26t-17 -85h-129q0 104 54 161.5t147 57.5q88 0 137 -49t49 -136q0 -46 -14.5 -83.5t-37.5 -69.5t-51 -61t-54.5 -57.5t-48 -60t-32.5 -68.5t-7 -82l-16 43h270v-106h-379
z" />
    <glyph glyph-name="colon.case" horiz-adv-x="242" 
d="M42 130v158h158v-158h-158zM42 466v158h158v-158h-158z" />
    <glyph glyph-name="semicolon.case" horiz-adv-x="242" 
d="M42 -29v69q47 13 62.5 38.5t15.5 65.5l54 -14h-132v158h158v-114q0 -73 -39 -128t-119 -75zM42 466v158h158v-158h-158z" />
    <glyph glyph-name="exclam.case" horiz-adv-x="262" 
d="M75 254l-22 466h156l-22 -466h-112zM52 0v158h158v-158h-158z" />
    <glyph glyph-name="exclamdown.case" horiz-adv-x="258" 
d="M51 0l22 466h112l22 -466h-156zM208 720v-158h-158v158h158z" />
    <glyph glyph-name="question.case" horiz-adv-x="420" 
d="M139 254q0 48 8.5 84.5t22 64t28 49t28 41t22 39t8.5 42.5t-11 35.5t-32 12.5q-25 0 -39.5 -20.5t-14.5 -70.5h-129q0 65 24 109t66.5 67t97.5 23t95 -21t61.5 -57t21.5 -80q0 -35 -9 -62t-23.5 -49.5t-31 -43t-31 -44t-23.5 -52t-9 -67.5h-130zM124 0v158h158v-158h-158
z" />
    <glyph glyph-name="questiondown.case" horiz-adv-x="420" 
d="M202 -10q-55 0 -95 22t-61.5 60.5t-21.5 90.5q0 36 9 62t23.5 47t31 40t31 40.5t23.5 49t9 64.5h130q0 -47 -8.5 -81.5t-22 -60.5t-28 -45.5t-28 -37t-22 -35t-8.5 -39.5q0 -32 11.5 -45.5t30.5 -13.5q24 0 37.5 19.5t13.5 61.5h133q0 -64 -24 -108.5t-66.5 -67.5
t-97.5 -23zM296 720v-158h-158v158h158z" />
    <glyph glyph-name="bullet.case" horiz-adv-x="621" 
d="M42 110v537h537v-537h-537z" />
    <glyph glyph-name="periodcentered.loclCAT" horiz-adv-x="174" 
d="M87 285q-37 0 -62 24t-25 63q0 38 25 62.5t62 24.5q34 0 60.5 -24.5t26.5 -62.5q0 -39 -26.5 -63t-60.5 -24z" />
    <glyph glyph-name="period.ss01" horiz-adv-x="242" 
d="M121 -10q-37 0 -62 24t-25 63q0 38 25 62.5t62 24.5q34 0 60.5 -24.5t26.5 -62.5q0 -39 -26.5 -63t-60.5 -24z" />
    <glyph glyph-name="comma.ss01" horiz-adv-x="242" 
d="M51 -159v69q40 13 58.5 38.5t18.5 65.5l46 -1q-10 -8 -25 -13.5t-28 -5.5q-37 0 -62 23.5t-25 61.5t25.5 61.5t58.5 23.5q38 0 64 -28.5t26 -91.5q0 -73 -41.5 -128t-115.5 -75z" />
    <glyph glyph-name="colon.ss01" horiz-adv-x="242" 
d="M121 -10q-37 0 -62 24t-25 63q0 38 25 62.5t62 24.5q34 0 60.5 -24.5t26.5 -62.5q0 -39 -26.5 -63t-60.5 -24zM121 326q-37 0 -62 24t-25 63q0 38 25 62.5t62 24.5q34 0 60.5 -24.5t26.5 -62.5q0 -39 -26.5 -63t-60.5 -24z" />
    <glyph glyph-name="semicolon.ss01" horiz-adv-x="244" 
d="M51 -159v69q40 13 58.5 38.5t18.5 65.5l46 -1q-10 -8 -25 -13.5t-28 -5.5q-37 0 -62 23.5t-25 61.5t25.5 61.5t58.5 23.5q38 0 64 -28.5t26 -91.5q0 -73 -41.5 -128t-115.5 -75zM123 326q-37 0 -62 24t-25 63q0 38 25 62.5t62 24.5q34 0 60.5 -24.5t26.5 -62.5
q0 -39 -26.5 -63t-60.5 -24z" />
    <glyph glyph-name="ellipsis.ss01" horiz-adv-x="642" 
d="M121 -10q-37 0 -62 24t-25 63q0 38 25 62.5t62 24.5q34 0 60.5 -24.5t26.5 -62.5q0 -39 -26.5 -63t-60.5 -24zM321 -10q-37 0 -62 24t-25 63q0 38 25 62.5t62 24.5q34 0 60.5 -24.5t26.5 -62.5q0 -39 -26.5 -63t-60.5 -24zM521 -10q-37 0 -62 24t-25 63q0 38 25 62.5
t62 24.5q34 0 60.5 -24.5t26.5 -62.5q0 -39 -26.5 -63t-60.5 -24z" />
    <glyph glyph-name="exclam.ss01" horiz-adv-x="262" 
d="M75 254l-22 486h156l-22 -486h-112zM131 -10q-37 0 -62 24t-25 63q0 38 25 62.5t62 24.5q34 0 60.5 -24.5t26.5 -62.5q0 -39 -26.5 -63t-60.5 -24z" />
    <glyph glyph-name="exclamdown.ss01" horiz-adv-x="274" 
d="M59 -203l22 459h112l22 -459h-156zM137 520q37 0 62 -24t25 -63q0 -37 -25.5 -62t-61.5 -25q-34 0 -60.5 24.5t-26.5 62.5q0 39 27 63t60 24z" />
    <glyph glyph-name="question.ss01" horiz-adv-x="420" 
d="M139 254q0 51 8.5 89t22 66.5t28 51t28 42t22 39t8.5 42.5q0 30 -11 44t-32 14q-25 0 -39.5 -20.5t-14.5 -70.5h-129q0 65 24 109t66.5 67t97.5 23t95 -21.5t61.5 -59.5t21.5 -87q0 -35 -9 -62t-23.5 -49.5t-31 -44t-31 -46t-23.5 -55t-9 -71.5h-130zM203 -10
q-37 0 -62 24t-25 63q0 38 25 62.5t62 24.5q34 0 60.5 -24.5t26.5 -62.5q0 -39 -26.5 -63t-60.5 -24z" />
    <glyph glyph-name="questiondown.ss01" horiz-adv-x="420" 
d="M202 -215q-55 0 -95 21.5t-61.5 59.5t-21.5 87q0 36 9 62t23.5 47t31 40t31 40.5t23.5 49t9 64.5h130q0 -47 -8.5 -81.5t-22 -60.5t-28 -45.5t-28 -37t-22 -35t-8.5 -39.5q0 -28 11.5 -41t30.5 -13q24 0 37.5 19.5t13.5 61.5h133q0 -64 -24 -108.5t-66.5 -67.5t-97.5 -23
zM217 520q37 0 62 -24t25 -63q0 -37 -25 -62t-62 -25q-34 0 -60.5 25t-26.5 62q0 39 26.5 63t60.5 24z" />
    <glyph glyph-name="periodcentered.ss01" horiz-adv-x="174" 
d="M87 285q-37 0 -62 24t-25 63q0 38 25 62.5t62 24.5q34 0 60.5 -24.5t26.5 -62.5q0 -39 -26.5 -63t-60.5 -24z" />
    <glyph glyph-name="bullet.ss01" horiz-adv-x="327" 
d="M163 238q-51 0 -86 33.5t-35 88.5q0 52 35 87t86 35q48 0 85 -35t37 -87q0 -55 -37 -88.5t-85 -33.5z" />
    <glyph glyph-name="periodcentered.loclCAT.case" horiz-adv-x="158" 
d="M0 365v158h158v-158h-158z" />
    <glyph glyph-name="bullet.case.ss01" horiz-adv-x="675" 
d="M337 76q-125 0 -210 81.5t-85 214.5q0 127 85 211.5t210 84.5q115 0 205.5 -84.5t90.5 -211.5q0 -133 -90.5 -214.5t-205.5 -81.5z" />
    <glyph glyph-name="periodcentered.loclCAT.case.ss01" horiz-adv-x="174" 
d="M87 355q-37 0 -62 24t-25 63q0 38 25 62.5t62 24.5q34 0 60.5 -24.5t26.5 -62.5q0 -39 -26.5 -63t-60.5 -24z" />
    <glyph glyph-name="hyphen.case" horiz-adv-x="354" 
d="M44 300v120h266v-120h-266z" />
    <glyph glyph-name="endash.case" horiz-adv-x="454" 
d="M44 306v108h366v-108h-366z" />
    <glyph glyph-name="emdash.case" horiz-adv-x="654" 
d="M44 306v108h566v-108h-566z" />
    <glyph glyph-name="parenleft.case" horiz-adv-x="376" 
d="M220 -40q-53 63 -89 128t-53.5 133t-17.5 139q0 70 18 138t53.5 133.5t88.5 128.5h126q-75 -94 -115.5 -194.5t-40.5 -205.5q0 -106 40 -206t116 -194h-126z" />
    <glyph glyph-name="parenright.case" horiz-adv-x="376" 
d="M156 760q54 -62 89.5 -127.5t53 -133.5t17.5 -139q0 -70 -18 -138t-53.5 -133.5t-88.5 -128.5h-126q75 95 115.5 195t40.5 205q0 107 -40 206.5t-116 193.5h126z" />
    <glyph glyph-name="braceleft.case" horiz-adv-x="376" 
d="M237 -40q-57 0 -93.5 20t-50 57.5t-0.5 88.5l23 92q11 46 -7 67t-60 21h-29v107h29q42 0 60 21t7 67l-23 93q-13 52 0.5 89t50 57t93.5 20h99v-108h-75q-28 0 -43.5 -15t-7.5 -44l21 -75q11 -39 8 -71t-19.5 -54.5t-45.5 -32.5q29 -10 45.5 -33t19.5 -55t-8 -71l-21 -74
q-8 -28 7.5 -43.5t43.5 -15.5h75v-108h-99z" />
    <glyph glyph-name="braceright.case" horiz-adv-x="376" 
d="M139 760q57 0 93.5 -20t50 -57t0.5 -89l-23 -92q-11 -46 7 -67t60 -21h29v-107h-29q-42 0 -60 -21t-7 -67l23 -93q13 -51 -0.5 -88.5t-50 -57.5t-93.5 -20h-99v108h75q28 0 43.5 15.5t7.5 43.5l-21 75q-11 39 -8 71t19.5 54.5t45.5 32.5q-29 11 -45.5 33.5t-19.5 54.5
t8 71l21 74q8 29 -7.5 44t-43.5 15h-75v108h99z" />
    <glyph glyph-name="bracketleft.case" horiz-adv-x="376" 
d="M70 -40v800h266v-108h-136v-584h136v-108h-266z" />
    <glyph glyph-name="bracketright.case" horiz-adv-x="376" 
d="M306 760v-800h-266v108h136v584h-136v108h266z" />
    <glyph glyph-name="quotesinglbase.ss01" horiz-adv-x="257" 
d="M48 -187v69q47 5 67 29.5t20 64.5l46 -1q-10 -8 -25 -13.5t-28 -5.5q-37 0 -62 23t-25 57q0 35 25.5 57.5t58.5 22.5q38 0 64 -28t26 -87q0 -70 -43 -122.5t-124 -65.5z" />
    <glyph glyph-name="quotedblbase.ss01" horiz-adv-x="458" 
d="M48 -187v69q47 5 67 29.5t20 64.5l46 -1q-10 -8 -25 -13.5t-28 -5.5q-37 0 -62 23t-25 57q0 35 25.5 57.5t58.5 22.5q38 0 64 -28t26 -87q0 -70 -43 -122.5t-124 -65.5zM249 -187v69q47 5 67 29.5t20 64.5l46 -1q-10 -8 -25 -13.5t-28 -5.5q-37 0 -62 23t-25 57
q0 35 25.5 57.5t58.5 22.5q38 0 64 -28t26 -87q0 -70 -43 -122.5t-124 -65.5z" />
    <glyph glyph-name="quotedblleft.ss01" horiz-adv-x="456" 
d="M132 437q-37 0 -63.5 28t-26.5 87q0 70 43 122.5t124 65.5v-69q-47 -5 -67 -29.5t-20 -64.5l-46 1q11 8 25.5 13.5t27.5 5.5q37 0 62 -22.5t25 -57.5q0 -34 -25.5 -57t-58.5 -23zM331 437q-37 0 -63.5 28t-26.5 87q0 70 43 122.5t124 65.5v-69q-47 -5 -67 -29.5
t-20 -64.5l-46 1q11 8 25.5 13.5t27.5 5.5q37 0 62 -22.5t25 -57.5q0 -34 -25.5 -57t-58.5 -23z" />
    <glyph glyph-name="quotedblright.ss01" horiz-adv-x="456" 
d="M48 447v69q47 5 67 29.5t20 64.5l46 -1q-10 -8 -25 -13.5t-28 -5.5q-37 0 -62 23t-25 57q0 35 25.5 57.5t58.5 22.5q38 0 64 -28t26 -87q0 -70 -43 -122.5t-124 -65.5zM247 447v69q47 5 67 29.5t20 64.5l46 -1q-10 -8 -25 -13.5t-28 -5.5q-37 0 -62 23t-25 57
q0 35 25.5 57.5t58.5 22.5q38 0 64 -28t26 -87q0 -70 -43 -122.5t-124 -65.5z" />
    <glyph glyph-name="quoteleft.ss01" horiz-adv-x="257" 
d="M132 437q-37 0 -63.5 28t-26.5 87q0 70 43 122.5t124 65.5v-69q-47 -5 -67 -29.5t-20 -64.5l-46 1q11 8 25.5 13.5t27.5 5.5q37 0 62 -22.5t25 -57.5q0 -34 -25.5 -57t-58.5 -23z" />
    <glyph glyph-name="quoteright.ss01" horiz-adv-x="242" 
d="M41 447v69q47 5 67 29.5t20 64.5l46 -1q-10 -8 -25 -13.5t-28 -5.5q-37 0 -62 23t-25 57q0 35 25.5 57.5t58.5 22.5q38 0 64 -28t26 -87q0 -70 -43 -122.5t-124 -65.5z" />
    <glyph glyph-name="ampersand.ss11" horiz-adv-x="529" 
d="M215 0q-57 0 -100 24t-67 68.5t-24 103.5t21 102.5t55.5 67.5t74.5 24l10 -21q-36 0 -67 21.5t-50 60.5t-19 92q0 84 53 135.5t141 51.5q27 0 49 -3t32 -9v-104q-8 4 -21.5 6t-30.5 2q-43 0 -64 -24.5t-21 -71.5t20 -72.5t56 -25.5h252v-102h-265q-40 0 -63 -29.5
t-23 -84.5q0 -50 21.5 -78t59.5 -28h112v-106h-142zM314 0v548h142v-548h-142z" />
    <glyph glyph-name="cent.ss12" horiz-adv-x="418" 
d="M215 -10q-55 0 -99 31t-69.5 90.5t-25.5 145.5t26.5 144.5t72 88.5t100.5 30q51 0 92 -23t64.5 -70t23.5 -119h-96q0 59 -19 91.5t-65 32.5q-47 0 -70 -40.5t-23 -134.5q0 -96 23 -137.5t70 -41.5q46 0 65 32.5t19 91.5h96q0 -71 -25.5 -118t-67.5 -70.5t-92 -23.5z
M160 -109v138l15 20v405l-15 29v133h112v-133l-15 -24v-407l15 -26v-135h-112z" />
    <glyph glyph-name="dollar.ss12" horiz-adv-x="454" 
d="M232 -10q-103 0 -155.5 63.5t-52.5 176.5h113q0 -64 24.5 -102t76.5 -38q42 0 61.5 19.5t19.5 57.5q0 29 -19 56.5t-69 65.5l-74 56q-57 44 -83 89.5t-26 106.5q0 60 22.5 102.5t65 64.5t101.5 22q92 0 140 -55t48 -161h-110q0 63 -18.5 89.5t-62.5 26.5
q-39 0 -56.5 -16.5t-17.5 -52.5q0 -31 21.5 -59.5t64.5 -61.5l73 -56q57 -43 84.5 -93t27.5 -110q0 -91 -53.5 -141t-145.5 -50zM179 -109v138l20 20v619l-20 29v133h112v-133l-20 -24v-621l20 -26v-135h-112z" />
    <glyph glyph-name="plus.tf" horiz-adv-x="500" 
d="M201 133v477h99v-477h-99zM50 322v98h400v-98h-400z" />
    <glyph glyph-name="minus.tf" horiz-adv-x="500" 
d="M50 322v98h400v-98h-400z" />
    <glyph glyph-name="multiply.tf" horiz-adv-x="500" 
d="M384 149l-334 377l66 69l334 -377zM116 149l-66 69l334 377l66 -69z" />
    <glyph glyph-name="divide.tf" horiz-adv-x="500" 
d="M50 322v98h400v-98h-400zM250 485q-26 0 -44 18.5t-18 49.5q0 29 18 48t44 19q24 0 43 -19t19 -48q0 -31 -19 -49.5t-43 -18.5zM250 123q-26 0 -44 18.5t-18 49.5q0 29 18 48t44 19q24 0 43 -19t19 -48q0 -31 -19 -49.5t-43 -18.5z" />
    <glyph glyph-name="equal.tf" horiz-adv-x="500" 
d="M40 422v98h420v-98h-420zM40 222v98h420v-98h-420z" />
    <glyph glyph-name="greater.tf" horiz-adv-x="500" 
d="M57 172v105l253 105v-22l-253 105v105l400 -150v-98z" />
    <glyph glyph-name="less.tf" horiz-adv-x="500" 
d="M501 570v-105l-333 -105v22l333 -105v-105l-451 150v98z" />
    <glyph glyph-name="percent.tf" horiz-adv-x="500" 
d="M55 0l310 720h74l-311 -720h-73zM359 -10q-28 0 -51 18.5t-36.5 55.5t-13.5 91t13.5 90.5t36.5 55t51 18.5q29 0 52.5 -18.5t37 -55t13.5 -90.5t-14 -91t-37.5 -55.5t-51.5 -18.5zM359 53q17 0 27 25.5t10 77.5q0 51 -10 75.5t-26 24.5q-18 0 -27 -25t-9 -75
q0 -52 9.5 -77.5t25.5 -25.5zM140 401q-28 0 -51.5 19t-37 55.5t-13.5 90.5t13.5 90.5t37 55t51.5 18.5q29 0 52 -18.5t36.5 -55t13.5 -90.5q0 -55 -14 -91.5t-37 -55t-51 -18.5zM140 464q16 0 26 25.5t10 77.5q0 50 -9.5 75t-26.5 25t-26 -25t-9 -75q0 -52 9 -77.5
t26 -25.5z" />
    <glyph glyph-name="perthousand.tf" horiz-adv-x="500" 
d="M51 276l-25 62l421 167l26 -63zM222 -10q-42 0 -71.5 41t-29.5 114t29 113.5t72 40.5q44 0 73.5 -40.5t29.5 -113.5q0 -74 -30.5 -114.5t-72.5 -40.5zM222 53q17 0 27 24.5t10 68.5t-10 67t-27 23t-26 -24t-9 -66q0 -45 9.5 -69t25.5 -24zM361 -10q-42 0 -71.5 41
t-29.5 114t29 113.5t72 40.5q44 0 73.5 -40.5t29.5 -113.5q0 -74 -30.5 -114.5t-72.5 -40.5zM361 53q17 0 27 24.5t10 68.5t-10 67t-27 23t-26 -24t-9 -66q0 -45 9.5 -69t25.5 -24zM143 421q-43 0 -72.5 41t-29.5 114q0 74 29.5 114t72.5 40t72.5 -40.5t29.5 -113.5
q0 -74 -30.5 -114.5t-71.5 -40.5zM143 484q16 0 26 24t10 69q0 43 -9.5 66.5t-26.5 23.5t-26 -23.5t-9 -66.5q0 -45 9 -69t26 -24z" />
    <glyph glyph-name="uni030C.alt" horiz-adv-x="0" 
d="M150 483h-90v237h116z" />
    <glyph glyph-name="uni0308.ss01" horiz-adv-x="0" 
d="M136 590q-32 0 -54 23t-22 56t22 54.5t54 21.5t54 -21.5t22 -55.5q0 -33 -22 -55.5t-54 -22.5zM343 590q-32 0 -54 23t-22 56t22 54.5t54 21.5t54 -21.5t22 -55.5q0 -33 -22 -55.5t-54 -22.5z" />
    <glyph glyph-name="uni0307.ss01" horiz-adv-x="0" 
d="M146 580q-36 0 -61 25.5t-25 63.5t25 62t61 24q37 0 61.5 -24t24.5 -62t-24.5 -63.5t-61.5 -25.5z" />
    <glyph glyph-name="uni0312.ss01" horiz-adv-x="0" 
d="M141 576q-34 0 -57.5 25.5t-23.5 82.5q0 44 17 78.5t48.5 57t75.5 29.5v-62q-36 -4 -52.5 -22t-16.5 -54l-42 1q10 8 23.5 12.5t24.5 4.5q33 0 55.5 -20.5t22.5 -55.5q0 -34 -23 -55.5t-52 -21.5z" />
    <glyph glyph-name="uni0326.ss01" horiz-adv-x="0" 
d="M75 -339v62q36 5 52.5 22.5t16.5 53.5l42 -1q-10 -7 -23.5 -12t-24.5 -5q-33 0 -55.5 21t-22.5 55q0 35 23 56t52 21q34 0 57.5 -25.5t23.5 -82.5q0 -44 -17 -78.5t-48.5 -56.5t-75.5 -30z" />
    <glyph glyph-name="dieresis.ss01" 
d="M136 590q-32 0 -54 23t-22 56t22 54.5t54 21.5t54 -21.5t22 -55.5q0 -33 -22 -55.5t-54 -22.5zM343 590q-32 0 -54 23t-22 56t22 54.5t54 21.5t54 -21.5t22 -55.5q0 -33 -22 -55.5t-54 -22.5z" />
    <glyph glyph-name="dotaccent.ss01" horiz-adv-x="292" 
d="M146 580q-36 0 -61 25.5t-25 63.5t25 62t61 24q37 0 61.5 -24t24.5 -62t-24.5 -63.5t-61.5 -25.5z" />
    </font>
</defs>
</svg>
