<?xml version="1.0" standalone="no"?>
<!DOCTYPE svg PUBLIC "-//W3C//DTD SVG 1.1//EN" "http://www.w3.org/Graphics/SVG/1.1/DTD/svg11.dtd" >
<svg xmlns="http://www.w3.org/2000/svg" xmlns:xlink="http://www.w3.org/1999/xlink" version="1.1">
<metadata>
Created by FontForge 20201107 at Wed Apr 12 12:05:17 2023
 By 
Copyright 2022 The Instrument Sans Project Authors (https://github.com/Instrument/instrument-sans)
</metadata>
<defs>
<font id="InstrumentSans-Italic" horiz-adv-x="606" >
  <font-face 
    font-family="Instrument Sans"
    font-weight="400"
    font-style="italic"
    font-stretch="normal"
    units-per-em="1000"
    panose-1="0 0 0 0 0 0 0 0 0 0"
    ascent="800"
    descent="-200"
    x-height="510"
    cap-height="720"
    bbox="-140 -296 2133 986"
    underline-thickness="38"
    underline-position="-199"
    slope="-13"
    unicode-range="U+0020-2212"
  />
<missing-glyph horiz-adv-x="676" 
d="M28 0l165 720h503l-165 -720h-503zM127 72h339l132 576h-339z" />
    <glyph glyph-name="f_f_i" unicode="ffi" horiz-adv-x="928" 
d="M63 0l137 596q14 62 56.5 98t118.5 36q17 0 36 -3t33 -8l-16 -62q-8 4 -22 6.5t-29 2.5q-44 0 -67.5 -22.5t-32.5 -60.5l-134 -583h-80zM385 0l137 596q14 62 56.5 98t118.5 36q17 0 36 -3t33 -8l-16 -62q-8 4 -22 6.5t-29 2.5q-44 0 -67.5 -22.5t-32.5 -60.5l-134 -583
h-80zM707 0l118 510h80l-118 -510h-80zM61 442l15 68h793l-15 -68h-793zM846 626l21 94h92l-21 -94h-92z" />
    <glyph glyph-name="f_f_l" unicode="ffl" horiz-adv-x="926" 
d="M385 0l135 586q14 62 56.5 98t118.5 36h209l-16 -64h-191q-44 0 -67.5 -22.5t-32.5 -60.5l-132 -573h-80zM63 0l135 586q14 62 56.5 98t118.5 36q17 0 36 -3t33 -8l-16 -62q-8 4 -22 6.5t-29 2.5q-44 0 -67.5 -22.5t-32.5 -60.5l-132 -573h-80zM61 442l15 68h622l-15 -68
h-622zM707 0l166 720h80l-166 -720h-80z" />
    <glyph glyph-name="f_i" unicode="fi" horiz-adv-x="596" 
d="M63 0l137 596q14 62 56.5 98t118.5 36q17 0 36 -3t33 -8l-16 -62q-8 4 -22 6.5t-29 2.5q-44 0 -67.5 -22.5t-32.5 -60.5l-134 -583h-80zM385 0l118 510h80l-118 -510h-80zM61 442l15 68h471l-15 -68h-471zM524 626l21 94h92l-21 -94h-92z" />
    <glyph glyph-name="f_l" unicode="fl" horiz-adv-x="604" 
d="M63 0l135 586q14 62 56.5 98t118.5 36h209l-16 -64h-191q-44 0 -67.5 -22.5t-32.5 -60.5l-132 -573h-80zM61 442l15 68h300l-15 -68h-300zM385 0l166 720h80l-166 -720h-80z" />
    <glyph glyph-name="w_w_w.liga" unicode="www" horiz-adv-x="2102" 
d="M125 0l-38 510h78l19 -437h-23l245 437h68l44 -437h-23l244 437h68l44 -437h-23l245 437h68l44 -437h-23l245 437h68l44 -437h-23l245 437h68l44 -437h-23l220 437h83l-274 -510h-65l-45 427h21l-245 -427h-65l-45 427h21l-245 -427h-65l-45 427h21l-245 -427h-65
l-45 427h22l-245 -427h-65l-45 427h21l-245 -427h-65z" />
    <glyph glyph-name="hyphen_greater.liga" unicode="&#x2d;&#x3e;" horiz-adv-x="859" 
d="M118 362h658l-35 -28l-320 322h100l327 -330l-328 -330h-100l321 322l35 -28h-658v72z" />
    <glyph glyph-name="less_hyphen.liga" unicode="&#x3c;&#x2d;" horiz-adv-x="850" 
d="M822 358h-658l35 28l320 -322h-100l-327 330l328 330h100l-321 -322l-35 28h658v-72z" />
    <glyph glyph-name=".notdef" horiz-adv-x="676" 
d="M28 0l165 720h503l-165 -720h-503zM127 72h339l132 576h-339z" />
    <glyph glyph-name=".null" horiz-adv-x="0" 
 />
    <glyph glyph-name="nonmarkingreturn" horiz-adv-x="333" 
 />
    <glyph glyph-name="space" unicode=" " horiz-adv-x="200" 
 />
    <glyph glyph-name="exclam" unicode="!" horiz-adv-x="273" 
d="M94 210l111 530h86l-135 -530h-62zM26 0l24 103h103l-24 -103h-103z" />
    <glyph glyph-name="quotedbl" unicode="&#x22;" horiz-adv-x="384" 
d="M157 495l5 138q1 20 2.5 38t4.5 31q4 14 12 25t19 17t24 6q14 0 24 -5.5t15 -15.5t5 -23q0 -10 -4.5 -26t-10.5 -31.5t-10 -25.5l-53 -128h-33zM309 495l5 138q1 20 2.5 38t4.5 31q4 14 12 25t19 17t24 6q14 0 24 -5.5t15 -15.5t5 -23q0 -10 -4.5 -26t-10.5 -31.5
t-10 -25.5l-53 -128h-33z" />
    <glyph glyph-name="numbersign" unicode="#" horiz-adv-x="716" 
d="M96 0l266 720h74l-266 -720h-74zM328 0l266 720h74l-266 -720h-74zM126 509h607l-16 -68h-607zM50 289h607l-16 -68h-607z" />
    <glyph glyph-name="dollar" unicode="$" horiz-adv-x="608" 
d="M383 696l31 134h66l-31 -134h-66zM325 20l-30 -129h-66l30 129h66zM302 -9q-61 0 -110 17t-83.5 49t-53 76.5t-18.5 99.5h80q0 -40 13 -71.5t37.5 -53.5t60 -33.5t80.5 -11.5q76 0 117.5 33t41.5 91q0 39 -20.5 66t-64.5 49l-109 55q-73 37 -105.5 78t-32.5 98
q0 60 31 105t86 70.5t126 25.5q54 0 96 -14.5t71.5 -43t45.5 -69t17 -93.5h-79q-1 49 -19 82t-53 49.5t-87 16.5q-48 0 -82.5 -14t-53 -40t-18.5 -64q0 -34 20.5 -60t67.5 -49l116 -58q65 -32 96 -75t31 -104q0 -62 -30 -108.5t-85 -72.5t-130 -26z" />
    <glyph glyph-name="percent" unicode="%" horiz-adv-x="785" 
d="M26 0l704 720h83l-704 -720h-83zM551 -10q-37 0 -69 16.5t-51.5 49.5t-19.5 81q0 33 10.5 71.5t33 73t56.5 56t82 21.5q59 0 100 -37t41 -109q0 -34 -11 -72.5t-33 -73t-56.5 -56t-82.5 -21.5zM551 45q30 0 51.5 17.5t35 44.5t20 55.5t6.5 50.5q0 44 -20.5 67.5
t-52.5 23.5q-30 0 -51 -17.5t-34 -44.5t-19 -55.5t-6 -50.5q0 -43 19.5 -67t50.5 -24zM240 361q-37 0 -69 16.5t-51.5 49.5t-19.5 81q0 33 10.5 71.5t33 73t56.5 56t82 21.5q59 0 100 -37t41 -109q0 -34 -11 -72.5t-33 -73t-56.5 -56t-82.5 -21.5zM240 416q30 0 51.5 17.5
t35 44.5t20 55.5t6.5 50.5q0 44 -20.5 67.5t-52.5 23.5q-30 0 -51 -17.5t-34 -44.5t-19 -55.5t-6 -50.5q0 -43 19.5 -67t50.5 -24z" />
    <glyph glyph-name="ampersand" unicode="&#x26;" horiz-adv-x="755" 
d="M567 0l-290 408q-29 41 -43 77.5t-14 70.5q0 50 25 89.5t69 62t99 22.5q52 0 92 -19.5t63 -53t23 -77.5q0 -47 -28 -86t-80.5 -66.5t-125.5 -40.5l-29 56q55 6 96.5 24t65 46t23.5 61q0 39 -29.5 64t-75.5 25q-47 0 -77.5 -29.5t-30.5 -74.5q0 -28 14.5 -59.5t49.5 -80.5
l306 -419h-103zM290 -10q-56 0 -102 14.5t-79.5 41t-51.5 63t-18 81.5q0 62 32 112.5t90.5 84.5t137.5 46l31 -55q-67 -10 -114 -34t-71 -60t-24 -83q0 -44 21.5 -76t60.5 -49t93 -17q60 0 111.5 22t92.5 64.5t70 103.5t44 139h78q-18 -92 -54.5 -165.5t-89 -125.5
t-118 -79.5t-140.5 -27.5z" />
    <glyph glyph-name="quotesingle" unicode="'" horiz-adv-x="232" 
d="M157 495l5 138q1 20 2.5 38t4.5 31q4 14 12 25t19 17t24 6q14 0 24 -5.5t15 -15.5t5 -23q0 -10 -4.5 -26t-10.5 -31.5t-10 -25.5l-53 -128h-33z" />
    <glyph glyph-name="parenleft" unicode="(" horiz-adv-x="406" 
d="M197 -110q-57 77 -84 160t-27 167q0 99 34.5 196t102.5 183.5t168 153.5h76q-105 -75 -173 -164t-101.5 -184.5t-33.5 -191.5q0 -87 29 -168t84 -152h-75z" />
    <glyph glyph-name="parenright" unicode=")" horiz-adv-x="406" 
d="M240 754q57 -76 84 -159.5t27 -167.5q0 -98 -34.5 -195.5t-102.5 -184t-168 -153.5h-76q105 75 173.5 164t101.5 185t33 191q0 87 -28.5 168.5t-84.5 151.5h75z" />
    <glyph glyph-name="asterisk" unicode="*" horiz-adv-x="411" 
d="M213 440l49 125l-119 -67l-21 65l130 30l-110 60l49 57l83 -92l8 122h71l-49 -126l119 67l21 -65l-130 -31l110 -59l-49 -57l-83 92l-8 -121h-71z" />
    <glyph glyph-name="plus" unicode="+" horiz-adv-x="531" 
d="M206 153l101 437h72l-101 -437h-72zM79 337l16 68h411l-16 -68h-411z" />
    <glyph glyph-name="comma" unicode="," horiz-adv-x="255" 
d="M-15 -144l9 41q32 11 50.5 34.5t29.5 71.5l30 -3h-86l24 102h101l-23 -99q-15 -64 -47 -97t-88 -50z" />
    <glyph glyph-name="hyphen" unicode="-" horiz-adv-x="506" 
d="M75 234l18 76h346l-18 -76h-346z" />
    <glyph glyph-name="period" unicode="." horiz-adv-x="255" 
d="M17 0l24 103h103l-24 -103h-103z" />
    <glyph glyph-name="slash" unicode="/" horiz-adv-x="443" 
d="M-13 -60l435 810h75l-435 -810h-75z" />
    <glyph glyph-name="zero" unicode="0" horiz-adv-x="666" 
d="M304 -9q-74 0 -127 36.5t-81 100.5t-28 146q0 47 9.5 99t28.5 103t47.5 96.5t66.5 80.5t85.5 55.5t103.5 20.5q74 0 127 -35t82 -98t29 -146q0 -47 -10 -99t-29 -103.5t-48 -97.5t-67 -82t-85.5 -56.5t-103.5 -20.5zM307 63q45 0 81 19.5t64 53t48.5 75.5t33.5 87
t19.5 87.5t6.5 77.5q0 92 -41 143t-112 51q-45 0 -81.5 -19.5t-64 -52t-47.5 -73.5t-33 -85.5t-19 -86.5t-6 -77q0 -91 39 -145.5t112 -54.5z" />
    <glyph glyph-name="one" unicode="1" horiz-adv-x="391" 
d="M166 0l144 629l20 -8q-18 -25 -57.5 -47.5t-88 -37t-95.5 -15.5l17 76q48 3 95 18t87 41.5t65 63.5h59l-166 -720h-80z" />
    <glyph glyph-name="two" unicode="2" horiz-adv-x="545" 
d="M-19 0l16 70q133 90 225.5 160t149 126.5t82.5 103.5t26 89q0 51 -32.5 79.5t-91.5 28.5q-64 0 -110 -37.5t-69 -108.5h-84q29 104 100 160.5t171 56.5q63 0 108.5 -21.5t70.5 -60.5t25 -92t-27 -108t-85 -116.5t-152.5 -134.5t-229.5 -162l-10 39h411l-17 -72h-477z" />
    <glyph glyph-name="three" unicode="3" horiz-adv-x="574" 
d="M265 -11q-57 0 -103.5 17t-78 47.5t-45.5 72.5t-7 91h82q-3 -35 6.5 -63.5t30 -49.5t50.5 -32t67 -11q36 0 65.5 11.5t51.5 32.5t33.5 49.5t11.5 63.5q0 55 -31 89.5t-81 34.5h-88l15 70h86q48 0 83.5 17t55.5 47t20 70q0 52 -34 81t-96 29t-103.5 -34t-60.5 -101h-86
q26 99 91.5 153.5t159.5 54.5q65 0 114 -22t76.5 -61t27.5 -91q0 -43 -18 -80t-49 -63.5t-69.5 -38.5t-80.5 -5l-1 20q73 -10 114.5 -55.5t41.5 -118.5q0 -49 -18.5 -90t-52 -71.5t-79.5 -47t-101 -16.5z" />
    <glyph glyph-name="four" unicode="4" horiz-adv-x="600" 
d="M333 0l44 190l6 20l95 411h33l-400 -416l-25 33h480l-17 -72h-536l15 62l475 492h82l-166 -720h-86z" />
    <glyph glyph-name="five" unicode="5" horiz-adv-x="574" 
d="M258 -10q-58 0 -102.5 17.5t-74 47t-43 66.5t-8.5 76h84q-2 -35 14 -66t49 -50t82 -19q32 0 59.5 10t49 28.5t37 43.5t23.5 54.5t8 61.5q0 71 -38 107t-104 36q-40 0 -74.5 -14.5t-56.5 -46.5h-73l119 378h381l-16 -72h-332l35 30l-90 -290l-11 23q23 27 60.5 42.5
t84.5 15.5q61 0 107 -26t71.5 -73.5t25.5 -112.5q0 -46 -13 -86t-36.5 -73.5t-56.5 -57.5t-73.5 -37t-87.5 -13z" />
    <glyph glyph-name="six" unicode="6" horiz-adv-x="599" 
d="M287 -11q-69 0 -119.5 29t-78 85.5t-27.5 138.5q0 44 8.5 97t26.5 107.5t45.5 104.5t65 90t85.5 63t107 23q66 0 113.5 -28.5t71 -73t17.5 -94.5h-86q4 26 -8 55t-40 49t-74 20q-52 0 -96.5 -30t-78.5 -92.5t-55 -158.5l-14 -64l-16 11q26 61 85.5 97t128.5 36
q54 0 100 -23.5t74 -68.5t28 -112q0 -52 -18 -99t-52.5 -83.5t-83 -57.5t-109.5 -21zM294 62q45 0 76.5 18.5t51.5 47.5t29 62t9 61q0 46 -19.5 75.5t-51 43.5t-68.5 14q-40 0 -72 -14t-54.5 -39t-34.5 -56.5t-12 -66.5q0 -66 41 -106t105 -40z" />
    <glyph glyph-name="seven" unicode="7" horiz-adv-x="532" 
d="M105 0q53 170 156 336.5t266 340.5l9 -29h-421l16 72h486l-14 -60q-107 -117 -185 -226t-131 -215.5t-87 -218.5h-95z" />
    <glyph glyph-name="eight" unicode="8" horiz-adv-x="582" 
d="M268 -10q-64 0 -117.5 23.5t-85.5 67.5t-32 103q0 45 18.5 83t50 66t71.5 44t84 16l6 -12q-38 0 -68.5 19.5t-48 52.5t-17.5 73q0 44 17.5 81t49.5 64.5t75 43t94 15.5q62 0 111.5 -23t78 -63.5t28.5 -94.5q0 -40 -16.5 -73.5t-44.5 -58.5t-64.5 -38.5t-77.5 -13.5l-3 12
q40 0 73 -22t53 -59t20 -83q0 -47 -18.5 -87.5t-53 -71t-81 -47.5t-102.5 -17zM268 62q36 0 66 11.5t52.5 32t35 48.5t12.5 60q0 61 -42.5 94.5t-105.5 33.5q-38 0 -68 -11.5t-51.5 -32.5t-33 -48t-11.5 -57q0 -62 43 -96.5t103 -34.5zM347 412q33 0 60.5 10t47 28t30 41.5
t10.5 51.5q0 54 -37 84.5t-92 30.5q-32 0 -59 -10t-47.5 -28.5t-31.5 -42.5t-11 -53q0 -52 37 -82t93 -30z" />
    <glyph glyph-name="nine" unicode="9" horiz-adv-x="610" 
d="M249 -11q-67 0 -115 29t-72 79t-18 112h86q-3 -39 8.5 -72.5t40 -54.5t77.5 -21q57 0 100.5 32t75.5 97t52 162l13 64l16 -11q-17 -40 -50 -70t-75 -46.5t-87 -16.5q-53 0 -98.5 23t-73.5 67.5t-28 108.5q0 50 18 96t52 82t82.5 57t108.5 21q69 0 119 -29t77 -84.5
t27 -137.5q0 -42 -8 -94t-25 -107t-44 -106t-64 -91.5t-85.5 -64.5t-109.5 -24zM328 342q39 0 70.5 14t54 38.5t34.5 55t12 63.5q0 62 -40.5 101.5t-103.5 39.5q-44 0 -75.5 -18.5t-51 -47t-28.5 -60t-9 -58.5q0 -43 19.5 -71.5t51 -42.5t66.5 -14z" />
    <glyph glyph-name="colon" unicode=":" horiz-adv-x="255" 
d="M17 0l24 103h103l-24 -103h-103zM105 380l24 103h103l-24 -103h-103z" />
    <glyph glyph-name="semicolon" unicode=";" horiz-adv-x="255" 
d="M-14 -144l9 41q32 11 50.5 34.5t29.5 71.5l30 -3h-86l24 102h101l-23 -99q-15 -64 -47 -97t-88 -50zM105 380l24 103h103l-24 -103h-103z" />
    <glyph glyph-name="less" unicode="&#x3c;" horiz-adv-x="531" 
d="M544 570l-18 -78l-395 -139l6 26l333 -130l-15 -67l-377 150l18 78z" />
    <glyph glyph-name="equal" unicode="=" horiz-adv-x="531" 
d="M103 437l16 68h411l-16 -68h-411zM57 237l15 68h411l-15 -68h-411z" />
    <glyph glyph-name="greater" unicode="&#x3e;" horiz-adv-x="531" 
d="M41 172l18 78l395 139l-6 -26l-333 130l15 67l377 -150l-18 -78z" />
    <glyph glyph-name="question" unicode="?" horiz-adv-x="567" 
d="M240 210q14 65 40.5 107.5t59 70t65 47.5t60 38t44.5 40.5t17 57.5q0 55 -41 80.5t-101 25.5q-69 0 -120 -34.5t-76 -111.5h-80q20 72 59.5 120.5t96.5 73t126 24.5q59 0 108 -18.5t78.5 -56.5t29.5 -99q0 -47 -17.5 -78.5t-46.5 -53.5t-63 -42t-67 -44t-59 -59t-39 -88
h-74zM184 0l24 103h103l-24 -103h-103z" />
    <glyph glyph-name="at" unicode="@" horiz-adv-x="854" 
d="M436 -12q-69 0 -134 20t-117 59.5t-82.5 98.5t-30.5 138q0 66 21.5 128.5t61.5 116.5t95 94.5t123.5 63.5t146.5 23q62 0 119.5 -18.5t102.5 -54t71.5 -88t26.5 -120.5q0 -60 -19 -114t-53 -95t-79 -64.5t-97 -23.5q-42 0 -64 18.5t-22.5 50t20.5 69.5l-14 -57
q-30 -36 -66 -58.5t-83 -22.5q-61 0 -96.5 42.5t-35.5 104.5q0 37 11.5 75.5t33 73.5t52 62.5t68.5 43.5t81 16q47 0 76.5 -20.5t40.5 -53t1 -68.5l-17 3l61 122h82l-133 -268q-9 -19 -10.5 -35.5t6.5 -27t26 -10.5q29 0 57.5 18t53 50t39 74t14.5 91q0 70 -37.5 119.5
t-97 76.5t-127.5 27q-81 0 -149.5 -29.5t-118.5 -79.5t-78 -114.5t-28 -135.5q0 -66 25.5 -115t68.5 -81t97.5 -47.5t111.5 -15.5q38 0 77.5 6.5t76.5 19.5l13 -56q-36 -15 -81 -23.5t-91 -8.5zM387 219q27 0 52 12t47 32t38 45t25 51.5t9 50.5q0 42 -23 67.5t-64 25.5
q-33 0 -62 -17.5t-50.5 -46t-33.5 -61.5t-12 -65q0 -42 20 -68t54 -26z" />
    <glyph glyph-name="A" unicode="A" horiz-adv-x="728" 
d="M-23 0l442 720h78l-435 -720h-85zM553 0l-107 720h73l114 -720h-80zM181 291h376l-16 -72h-376z" />
    <glyph glyph-name="B" unicode="B" horiz-adv-x="636" 
d="M81 0l16 68h226q54 0 93.5 18.5t61 53.5t21.5 82q0 57 -32 89.5t-88 32.5h-220l15 66h211q54 0 93 17t60 47.5t21 73.5q0 48 -29 76t-79 28h-222l16 68h220q80 0 128.5 -46t48.5 -120q0 -44 -18 -80.5t-49 -62.5t-71 -39t-85 -9l11 20q71 -7 112 -53t41 -117
q0 -64 -33.5 -112t-93.5 -74.5t-140 -26.5h-235zM28 0l165 720h82l-165 -720h-82z" />
    <glyph glyph-name="C" unicode="C" horiz-adv-x="741" 
d="M364 -10q-87 0 -151.5 38.5t-100 107.5t-35.5 162q0 60 14.5 115t41.5 103.5t64 87.5t81.5 67.5t95.5 43.5t105 15q62 0 113 -19.5t87.5 -55t54 -84t12.5 -107.5h-81q2 44 -10 79.5t-36.5 60.5t-60.5 38t-83 13q-52 0 -99.5 -17t-87 -49t-68 -76t-44.5 -97.5t-16 -114.5
q0 -112 55.5 -174.5t155.5 -62.5q90 0 154 50.5t92 141.5h82q-24 -83 -72.5 -143t-115.5 -91.5t-147 -31.5z" />
    <glyph glyph-name="D" unicode="D" horiz-adv-x="752" 
d="M77 0l16 72h233q69 0 127 27t101 74t66.5 107t23.5 126q0 70 -27 124.5t-75.5 86t-114.5 31.5h-203l16 72h195q88 0 153.5 -40t102.5 -109.5t37 -158.5q0 -81 -30.5 -155.5t-85.5 -132t-129.5 -91t-161.5 -33.5h-244zM28 0l165 720h82l-165 -720h-82z" />
    <glyph glyph-name="E" unicode="E" horiz-adv-x="638" 
d="M27 0l166 720h82l-166 -720h-82zM69 0l16 72h440l-16 -72h-440zM147 339l16 72h404l-16 -72h-404zM218 648l17 72h432l-17 -72h-432z" />
    <glyph glyph-name="F" unicode="F" horiz-adv-x="602" 
d="M28 0l165 720h82l-165 -720h-82zM140 309l17 72h388l-17 -72h-388zM218 648l17 72h416l-17 -72h-416z" />
    <glyph glyph-name="G" unicode="G" horiz-adv-x="765" 
d="M359 -10q-87 0 -151.5 38.5t-100 108t-35.5 163.5q0 71 21 135.5t58.5 118.5t88 93.5t109.5 61t123 21.5q61 0 110.5 -17.5t85 -49.5t55 -75t20.5 -94h-82q-3 38 -17.5 67.5t-39 50.5t-58.5 32t-76 11q-52 0 -99.5 -17t-87 -49t-68 -76t-44.5 -97.5t-16 -114.5
q0 -112 55.5 -174.5t155.5 -62.5q74 0 132 22t92 63l73 -33q-50 -56 -125 -91t-179 -35zM581 116l51 223l23 -31h-228l18 72h279l-61 -264h-82z" />
    <glyph glyph-name="H" unicode="H" horiz-adv-x="736" 
d="M28 0l165 720h82l-165 -720h-82zM509 0l165 720h82l-165 -720h-82zM164 411h476l-16 -72h-476z" />
    <glyph glyph-name="I" unicode="I" horiz-adv-x="254" 
d="M27 0l166 720h82l-166 -720h-82z" />
    <glyph glyph-name="J" unicode="J" horiz-adv-x="455" 
d="M93 -10q-45 0 -80 5.5t-49 13.5l17 76q22 -10 55 -16.5t76 -6.5q65 0 108.5 34.5t62.5 115.5l117 508h82l-118 -512q-26 -114 -92.5 -166t-178.5 -52z" />
    <glyph glyph-name="K" unicode="K" horiz-adv-x="692" 
d="M27 0l166 720h82l-166 -720h-82zM173 372l455 348h127l-462 -346zM502 0l-315 383l106 -9l316 -374h-107z" />
    <glyph glyph-name="L" unicode="L" horiz-adv-x="588" 
d="M27 0l166 720h82l-166 -720h-82zM69 0l16 72h410l-16 -72h-410z" />
    <glyph glyph-name="M" unicode="M" horiz-adv-x="906" 
d="M27 0l166 720h122l100 -694h-40l418 694h134l-166 -720h-81l156 677h11l-407 -677h-98l-96 671h11l-155 -671h-75z" />
    <glyph glyph-name="N" unicode="N" horiz-adv-x="736" 
d="M27 0l166 720h80l273 -606l-7 -2l140 608h78l-166 -720h-81l-273 606l8 2l-140 -608h-78z" />
    <glyph glyph-name="O" unicode="O" horiz-adv-x="786" 
d="M365 -10q-86 0 -151.5 40.5t-102.5 112t-37 164.5q0 86 31 162.5t86 135t126 92t152 33.5q88 0 153.5 -39.5t102.5 -110t37 -163.5q0 -86 -31.5 -163t-86.5 -136.5t-126.5 -93.5t-152.5 -34zM370 64q62 0 117.5 27.5t98.5 76t67.5 112t24.5 134.5q0 73 -27 127
t-75.5 84.5t-114.5 30.5q-62 0 -116.5 -27t-96.5 -75t-65.5 -111t-23.5 -135q0 -73 26.5 -128t74 -85.5t110.5 -30.5z" />
    <glyph glyph-name="P" unicode="P" horiz-adv-x="656" 
d="M27 0l166 720h283q59 0 103 -23t68.5 -65t24.5 -98q0 -51 -19.5 -94.5t-54.5 -75.5t-82.5 -49.5t-104.5 -17.5h-256l16 72h244q39 0 71 11.5t55.5 33t36 50.5t12.5 64q0 53 -31.5 86.5t-102.5 33.5h-198l-149 -648h-82z" />
    <glyph glyph-name="Q" unicode="Q" horiz-adv-x="787" 
d="M366 -10q-86 0 -152 40.5t-103 112t-37 164.5q0 86 31 162.5t86 135t126.5 92t152.5 33.5q88 0 153.5 -39.5t102.5 -110t37 -163.5q0 -70 -23.5 -134.5t-66.5 -117t-102 -88t-130 -48.5zM371 64q62 0 117.5 27.5t98.5 76t67.5 112t24.5 134.5q0 73 -27 127t-75.5 84.5
t-114.5 30.5q-62 0 -117 -27t-97 -75t-65.5 -111t-23.5 -135q0 -73 26.5 -128t74 -85.5t111.5 -30.5zM366 -10l-6 54l360 28l-16 -72q-61 0 -102 -1.5t-75 -3.5t-71 -3.5t-90 -1.5z" />
    <glyph glyph-name="R" unicode="R" horiz-adv-x="656" 
d="M27 0l166 720h268q66 0 110.5 -24t67 -66t21.5 -96q-1 -65 -34.5 -114t-93 -76t-140.5 -27h-232l17 72h232q51 0 89 18t59 50.5t21 73.5q1 52 -32.5 84.5t-102.5 32.5h-185l-149 -648h-82zM461 0l-301 357h100l313 -357h-112z" />
    <glyph glyph-name="S" unicode="S" horiz-adv-x="608" 
d="M302 -9q-61 0 -110 17t-83.5 49t-53 76.5t-18.5 99.5h80q0 -40 13 -71.5t37.5 -53.5t60 -33.5t80.5 -11.5q76 0 117.5 33t41.5 91q0 39 -20.5 66t-64.5 49l-109 55q-73 37 -105.5 78t-32.5 98q0 60 31 105t86 70.5t126 25.5q54 0 96 -14.5t71.5 -43t45.5 -69t17 -93.5
h-79q-1 49 -19 82t-53 49.5t-87 16.5q-48 0 -82.5 -14t-53 -40t-18.5 -64q0 -34 20.5 -60t67.5 -49l116 -58q65 -32 96 -75t31 -104q0 -62 -30 -108.5t-85 -72.5t-130 -26z" />
    <glyph glyph-name="T" unicode="T" horiz-adv-x="648" 
d="M224 0l149 648h-247l17 72h577l-17 -72h-248l-149 -648h-82z" />
    <glyph glyph-name="U" unicode="U" horiz-adv-x="712" 
d="M328 -10q-93 0 -153.5 41t-81.5 115.5t2 174.5l92 399h82l-95 -411q-16 -69 -6.5 -124.5t50 -88t117.5 -32.5q88 0 141.5 52t76.5 152l104 452h82l-105 -457q-31 -133 -108.5 -203t-197.5 -70z" />
    <glyph glyph-name="V" unicode="V" horiz-adv-x="728" 
d="M255 0l-112 720h84l101 -684h-33l414 684h90l-444 -720h-100z" />
    <glyph glyph-name="W" unicode="W" horiz-adv-x="1069" 
d="M194 0l-47 720h81l38 -665h-18l340 665h104l35 -665h-18l343 665h84l-379 -720h-100l-39 645h12l-336 -645h-100z" />
    <glyph glyph-name="X" unicode="X" horiz-adv-x="688" 
d="M498 0l-155 337l-183 383h91l147 -319l191 -401h-91zM359 398l297 322h99l-359 -387zM381 329l-303 -329h-99l365 394z" />
    <glyph glyph-name="Y" unicode="Y" horiz-adv-x="676" 
d="M238 0l75 326l-182 394h92l157 -346h-39l317 346h101l-364 -394l-75 -326h-82z" />
    <glyph glyph-name="Z" unicode="Z" horiz-adv-x="623" 
d="M1 0l14 62l558 627l30 -41h-443l17 72h489l-15 -62l-557 -627l-30 41h463l-17 -72h-509z" />
    <glyph glyph-name="bracketleft" unicode="[" horiz-adv-x="406" 
d="M6 -108l198 858h256l-15 -64h-182l-168 -730h182l-15 -64h-256z" />
    <glyph glyph-name="backslash" unicode="\" horiz-adv-x="443" 
d="M174 750h67l69 -810h-67z" />
    <glyph glyph-name="bracketright" unicode="]" horiz-adv-x="407" 
d="M431 750l-198 -858h-256l15 64h182l168 730h-182l15 64h256z" />
    <glyph glyph-name="asciicircum" unicode="^" horiz-adv-x="531" 
d="M200 491h-71l211 249h75l95 -249h-57l-99 208h41z" />
    <glyph glyph-name="underscore" unicode="_" horiz-adv-x="426" 
d="M-86 -118l16 68h426l-16 -68h-426z" />
    <glyph glyph-name="grave" unicode="`" horiz-adv-x="356" 
d="M305 583l-133 157h113l87 -157h-67z" />
    <glyph glyph-name="a" unicode="a" horiz-adv-x="533" 
d="M334 0q-1 11 2.5 33t9.5 50l-5 1l56 242q8 33 2.5 62t-30 46.5t-73.5 17.5q-55 0 -88.5 -22.5t-46.5 -67.5h-75q20 77 77 117.5t144 40.5q76 0 116.5 -28.5t51.5 -74.5t-1 -98l-54 -233q-4 -19 -7 -43t-2 -43h-77zM175 -10q-70 0 -112 37.5t-42 98.5q0 47 24 81
t70.5 55.5t115.5 29.5l182 21l-15 -65l-169 -19q-66 -7 -98 -31.5t-32 -67.5q0 -36 24.5 -54t71.5 -18q63 0 108 29t57 77l-3 -72q-28 -48 -75.5 -75t-106.5 -27z" />
    <glyph glyph-name="b" unicode="b" 
d="M290 -9q-51 0 -89 19.5t-59 54.5t-22 80l11 1l-35 -146h-75l166 720h80l-72 -312l-10 4q29 52 79.5 80t111.5 28q89 0 140 -56.5t51 -154.5q0 -66 -21.5 -123.5t-60 -101t-88.5 -68.5t-107 -25zM287 61q42 0 78 18.5t63 51t42 75.5t15 91q0 71 -34.5 112t-96.5 41
q-33 0 -63.5 -12t-55.5 -33.5t-44 -51t-29 -64.5t-10 -73q0 -72 37 -113.5t98 -41.5z" />
    <glyph glyph-name="c" unicode="c" horiz-adv-x="533" 
d="M239 -11q-61 0 -106 27.5t-70 77t-25 115.5q0 52 14.5 98t41 85t62.5 67t79 43.5t91 15.5q41 0 75 -13t59 -36.5t39 -56t14 -71.5h-74q-1 34 -16 58t-41 37.5t-62 13.5q-34 0 -64 -12t-55 -34.5t-43 -52.5t-28 -67t-10 -78q0 -71 33 -110.5t93 -39.5q54 0 96 30t61 82h74
q-27 -82 -91.5 -130.5t-146.5 -48.5z" />
    <glyph glyph-name="d" unicode="d" 
d="M392 0l24 102l5 -4q-29 -52 -79 -80t-112 -28q-89 0 -140 57t-51 154q0 66 21.5 123.5t60 101t88.5 68.5t107 25q51 0 89 -19.5t59.5 -54t21.5 -80.5l-16 -1l83 356h80l-166 -720h-75zM252 60q33 0 63.5 12t55.5 33.5t44 51t29 64.5t10 73q0 72 -36.5 113.5t-98.5 41.5
q-56 0 -101 -32t-71 -85.5t-26 -118.5q0 -70 35 -111.5t96 -41.5z" />
    <glyph glyph-name="e" unicode="e" horiz-adv-x="563" 
d="M256 -10q-65 0 -114 28t-76 78.5t-27 117.5q0 51 14.5 97t40.5 84t62 66t79 43.5t91 15.5q62 0 108.5 -25t72 -70t25.5 -105q0 -23 -4.5 -45.5t-14.5 -43.5h-413l15 67h363l-34 -54q9 37 8.5 73.5t-14 67t-41.5 49t-75 18.5q-33 0 -63 -12t-55 -33.5t-44 -51t-29 -65
t-10 -74.5q0 -74 39 -116t107 -42q46 0 80 20.5t58 62.5h76q-37 -76 -94 -113.5t-131 -37.5z" />
    <glyph glyph-name="f" unicode="f" horiz-adv-x="354" 
d="M63 0l137 596q14 62 56.5 98t118.5 36q17 0 36 -3t33 -8l-16 -62q-8 4 -22 6.5t-29 2.5q-44 0 -67.5 -22.5t-32.5 -60.5l-134 -583h-80zM61 442l15 68h308l-15 -68h-308z" />
    <glyph glyph-name="g" unicode="g" 
d="M210 -215q-64 0 -112.5 19t-76.5 54t-32 82h74q10 -48 50.5 -67.5t97.5 -19.5q65 0 112.5 38t64.5 112l23 99l5 -13q-30 -48 -78.5 -73.5t-107.5 -25.5q-89 0 -140 57t-51 154q0 66 21.5 123.5t60 101t88.5 68.5t107 25q49 0 86 -18t59 -50t25 -74l-10 -10l34 143h75
l-119 -515q-23 -100 -90.5 -155t-165.5 -55zM252 60q33 0 63.5 12t55.5 33.5t44 51t29 64.5t10 73q0 72 -36.5 113.5t-98.5 41.5q-56 0 -101 -32t-71 -85.5t-26 -118.5q0 -70 35 -111.5t96 -41.5z" />
    <glyph glyph-name="h" unicode="h" horiz-adv-x="599" 
d="M21 0l166 720h80l-166 -720h-80zM386 0l72 313q16 68 -10 103.5t-86 35.5q-71 0 -123.5 -45.5t-72.5 -124.5l15 125q39 54 92.5 83.5t112.5 29.5q90 0 132 -55t21 -148l-73 -317h-80z" />
    <glyph glyph-name="i" unicode="i" horiz-adv-x="241" 
d="M22 0l117 510h80l-117 -510h-80zM157 626l20 94h92l-20 -94h-92z" />
    <glyph glyph-name="j" unicode="j" horiz-adv-x="240" 
d="M-62 -215q-14 0 -37.5 3t-40.5 11l14 62q8 -4 24.5 -8t32.5 -4q31 0 47 16t23 46l138 599h80l-141 -611q-13 -55 -46.5 -84.5t-93.5 -29.5zM157 626l20 94h92l-20 -94h-92z" />
    <glyph glyph-name="k" unicode="k" horiz-adv-x="535" 
d="M21 0l171 740h80l-171 -740h-80zM365 0l-221 265l308 245h120l-345 -268l-5 47l242 -289h-99z" />
    <glyph glyph-name="l" unicode="l" horiz-adv-x="240" 
d="M21 0l166 720h80l-166 -720h-80z" />
    <glyph glyph-name="m" unicode="m" horiz-adv-x="922" 
d="M22 0l117 510h75l-27 -120h5l-90 -390h-80zM365 0l72 313q16 68 -8 103.5t-77 35.5q-64 0 -115 -45.5t-70 -124.5l15 125q38 54 91.5 83.5t112.5 29.5q79 0 118 -48t14 -155l-73 -317h-80zM709 0l72 313q16 68 -8 103.5t-77 35.5q-64 0 -115.5 -46t-72.5 -126l5 115
q38 63 95 94t112 31t92 -25t51 -70.5t-1 -107.5l-73 -317h-80z" />
    <glyph glyph-name="n" unicode="n" horiz-adv-x="599" 
d="M22 0l117 510h75l-27 -120h5l-90 -390h-80zM386 0l72 313q16 68 -10 103.5t-86 35.5q-71 0 -123.5 -45.5t-71.5 -124.5l15 125q38 54 91.5 83.5t112.5 29.5q90 0 132 -55t21 -148l-73 -317h-80z" />
    <glyph glyph-name="o" unicode="o" horiz-adv-x="584" 
d="M256 -10q-64 0 -113 28.5t-76.5 79.5t-27.5 118q0 63 22.5 118t62 97t91.5 65.5t112 23.5q66 0 115 -28t76 -78.5t27 -117.5q0 -63 -23 -118.5t-63 -97.5t-92 -66t-111 -24zM260 58q41 0 78 18.5t65 51t44 75.5t16 92q0 72 -37.5 114.5t-102.5 42.5q-42 0 -78.5 -18
t-64 -50t-43.5 -74.5t-16 -91.5q0 -73 38 -116.5t101 -43.5z" />
    <glyph glyph-name="p" unicode="p" 
d="M290 -9q-51 0 -89 19.5t-59 54.5t-22 80l16 1l-82 -351h-80l165 715h75l-24 -102l-5 4q29 52 79.5 80t111.5 28q89 0 140 -56.5t51 -154.5q0 -66 -21.5 -123.5t-60 -101t-88.5 -68.5t-107 -25zM287 61q42 0 78 18.5t63 51t42 75.5t15 91q0 71 -34.5 112t-96.5 41
q-33 0 -63.5 -12t-55.5 -33.5t-44 -51t-29 -64.5t-10 -73q0 -72 37 -113.5t98 -41.5z" />
    <glyph glyph-name="q" unicode="q" horiz-adv-x="607" 
d="M341 -205l70 307l10 -4q-29 -52 -79 -80t-112 -28q-89 0 -140 57t-51 154q0 66 21.5 123.5t60 101t88.5 68.5t107 25q51 0 89 -19.5t59.5 -54t21.5 -80.5l-11 -1l36 146h75l-165 -715h-80zM252 60q33 0 63.5 12t55.5 33.5t44 51t29 64.5t10 73q0 72 -36.5 113.5
t-98.5 41.5q-56 0 -101 -32t-71 -85.5t-26 -118.5q0 -70 35 -111.5t96 -41.5z" />
    <glyph glyph-name="r" unicode="r" horiz-adv-x="375" 
d="M21 0l118 510h75l-30 -130h5l-88 -380h-80zM166 283l14 122q26 51 74.5 83t107.5 32q17 0 29 -2.5t19 -5.5l-18 -77q-8 3 -24.5 5.5t-31.5 2.5q-65 0 -109 -41t-61 -119z" />
    <glyph glyph-name="s" unicode="s" horiz-adv-x="467" 
d="M217 -10q-61 0 -107 21t-71 58.5t-23 87.5h77q1 -31 17.5 -53.5t45 -35t65.5 -12.5q50 0 80.5 22t30.5 59q0 25 -16 41.5t-51 30.5l-73 31q-55 23 -81.5 53.5t-26.5 73.5q0 45 24 79.5t65.5 54t95.5 19.5q53 0 94 -19t64.5 -52.5t24.5 -79.5h-76q-3 27 -17.5 46t-39 29
t-58.5 10q-45 0 -72 -20t-27 -55q0 -23 16 -39.5t51 -31.5l71 -30q56 -24 82.5 -56t26.5 -76q0 -47 -23.5 -82.5t-66.5 -54.5t-102 -19z" />
    <glyph glyph-name="t" unicode="t" horiz-adv-x="377" 
d="M227 -9q-85 0 -115 43.5t-13 116.5l110 478l87 30l-120 -520q-9 -41 8.5 -60.5t66.5 -19.5q20 0 34.5 2.5t24.5 6.5l-15 -68q-11 -4 -28 -6.5t-40 -2.5zM61 442l15 68h336l-15 -68h-336z" />
    <glyph glyph-name="u" unicode="u" horiz-adv-x="589" 
d="M209 -10q-87 0 -129 55t-20 148l73 317h80l-72 -313q-16 -67 9.5 -103t82.5 -36q68 0 119.5 45.5t70.5 124.5l-15 -125q-38 -54 -90.5 -83.5t-108.5 -29.5zM375 0l28 120h-5l90 390h80l-118 -510h-75z" />
    <glyph glyph-name="v" unicode="v" horiz-adv-x="523" 
d="M170 0l-93 510h82l70 -456h-34l281 456h88l-329 -510h-65z" />
    <glyph glyph-name="w" unicode="w" horiz-adv-x="767" 
d="M125 0l-38 510h78l19 -437h-20l245 437h65l44 -437h-23l220 437h83l-274 -510h-65l-45 427h24l-245 -427h-68z" />
    <glyph glyph-name="x" unicode="x" horiz-adv-x="551" 
d="M373 0l-114 237l-145 273h87l105 -219l154 -291h-87zM267 288l209 222h95l-269 -275zM292 231l-223 -231h-96l288 288z" />
    <glyph glyph-name="y" unicode="y" horiz-adv-x="523" 
d="M11 -205l175 265l24 28l265 422h89l-461 -715h-92zM187 -5l-110 515h82l90 -461z" />
    <glyph glyph-name="z" unicode="z" horiz-adv-x="497" 
d="M-4 0l13 58l398 421l31 -37h-330l16 68h376l-14 -58l-397 -421l-31 37h350l-16 -68h-396z" />
    <glyph glyph-name="braceleft" unicode="{" horiz-adv-x="406" 
d="M175 -108q-53 0 -81 25t-31.5 63t14.5 78l65 143q20 45 7.5 66.5t-54.5 21.5h-46l14 64h47q28 0 46.5 8t28.5 27t11 51l4 161q2 64 45.5 107t123.5 43h91l-15 -64h-87q-40 0 -61 -23.5t-22 -68.5l-3 -144q-1 -61 -25.5 -91t-65.5 -41q34 -19 44.5 -53.5t-16.5 -92.5
l-59 -126q-20 -43 -8.5 -66.5t51.5 -23.5h84l-15 -64h-87z" />
    <glyph glyph-name="bar" unicode="|" horiz-adv-x="243" 
d="M-2 -130l212 920h70l-212 -920h-70z" />
    <glyph glyph-name="braceright" unicode="}" horiz-adv-x="406" 
d="M262 750q54 0 81.5 -25t31 -63t-14.5 -78l-65 -143q-20 -45 -7.5 -66.5t54.5 -21.5h46l-14 -64h-47q-28 0 -46.5 -8t-28.5 -27t-11 -51l-4 -161q-1 -64 -45 -107t-124 -43h-91l15 64h87q40 0 61 23.5t22 68.5l3 144q2 62 26.5 92t64.5 40q-34 20 -44.5 54t16.5 92l59 126
q20 43 8.5 66.5t-51.5 23.5h-84l15 64h87z" />
    <glyph glyph-name="asciitilde" unicode="~" horiz-adv-x="531" 
d="M392 296q56 0 94 29t59 84h-60q-10 -27 -29.5 -39t-45.5 -12q-30 0 -55.5 9t-50 21.5t-53 21.5t-64.5 9q-55 0 -93 -28.5t-59 -84.5h60q11 27 30.5 39t44.5 12q32 0 57 -9t49 -21.5t51.5 -21.5t64.5 -9z" />
    <glyph glyph-name="uni00A0" unicode="&#xa0;" horiz-adv-x="200" 
 />
    <glyph glyph-name="exclamdown" unicode="&#xa1;" horiz-adv-x="273" 
d="M-7 -205l128 505h62l-104 -505h-86zM247 510l-24 -103h-103l24 103h103z" />
    <glyph glyph-name="cent" unicode="&#xa2;" horiz-adv-x="533" 
d="M307 482l31 134h65l-31 -134h-65zM266 20l-30 -129h-65l30 129h65zM239 -11q-61 0 -106 27.5t-70 77t-25 115.5q0 52 14.5 98t41 85t62.5 67t79 43.5t91 15.5q41 0 75 -13t59 -36.5t39 -56t14 -71.5h-74q-1 34 -16 58t-41 37.5t-62 13.5q-34 0 -64 -12t-55 -34.5
t-43 -52.5t-28 -67t-10 -78q0 -71 33 -110.5t93 -39.5q54 0 96 30t61 82h74q-27 -82 -91.5 -130.5t-146.5 -48.5z" />
    <glyph glyph-name="sterling" unicode="&#xa3;" horiz-adv-x="588" 
d="M-3 0l17 72q35 35 65.5 73.5t49 82t18.5 92.5q0 32 -6.5 62t-13.5 60t-7 62q0 44 16.5 84t48 72.5t78.5 51t108 18.5q54 0 96.5 -15t72.5 -41.5t46 -63t16 -79.5h-78q-1 42 -22 70t-55.5 42.5t-77.5 14.5q-41 0 -72.5 -12t-53.5 -33.5t-33 -48.5t-11 -57q0 -40 13 -86.5
t13 -95.5q0 -61 -25.5 -113.5t-62.5 -92.5t-71 -66l-3 19h413l-17 -72h-462zM34 309l16 68h421l-16 -68h-421z" />
    <glyph glyph-name="yen" unicode="&#xa5;" horiz-adv-x="616" 
d="M208 0l75 326l-152 394h92l127 -346h-39l287 346h101l-334 -394l-75 -326h-82zM51 252l16 68h512l-16 -68h-512zM294 402h-208l16 68h172zM457 470h157l-16 -68h-201z" />
    <glyph glyph-name="section" unicode="&#xa7;" horiz-adv-x="498" 
d="M256 173l4 53q44 0 73 10.5t43.5 30.5t14.5 50q0 31 -18.5 50t-48.5 32l-73 30q-52 22 -80 58.5t-28 84.5q0 47 24 82.5t66 55.5t96 20q53 0 93.5 -19t64 -53t24.5 -79h-76q-4 41 -34 63t-79 22t-75 -22t-26 -63q0 -29 19.5 -48.5t56.5 -35.5l62 -27q54 -22 81.5 -58
t27.5 -84q0 -72 -56 -112.5t-156 -40.5zM202 -75q-53 0 -93.5 19t-64 53t-24.5 79h76q5 -40 34.5 -62.5t78.5 -22.5t75 22t26 63q0 29 -14.5 47t-52.5 34l-71 30q-54 23 -81.5 58.5t-27.5 83.5q0 72 56 112.5t156 40.5l-4 -53q-43 0 -72.5 -10.5t-44 -30.5t-14.5 -50
q0 -31 15 -49t52 -33l73 -30q53 -22 80.5 -58.5t27.5 -84.5q0 -46 -24 -82t-65.5 -56t-96.5 -20z" />
    <glyph glyph-name="dieresis" unicode="&#xa8;" horiz-adv-x="441" 
d="M375 626l21 94h92l-21 -94h-92zM146 626l21 94h92l-21 -94h-92z" />
    <glyph glyph-name="copyright" unicode="&#xa9;" horiz-adv-x="870" 
d="M459 -15q-78 0 -146 29t-119.5 80.5t-80.5 119.5t-29 146t29 146t80.5 119.5t119.5 80.5t146 29t146 -29t119.5 -80.5t80.5 -119.5t29 -146t-29 -146t-80.5 -119.5t-119.5 -80.5t-146 -29zM459 23q69 0 130 26.5t107 73t72 107.5t26 130t-26 130t-72 107.5t-107 73
t-130 26.5t-130 -26.5t-107 -73t-72 -107.5t-26 -130t26 -130t72 -107.5t107 -73t130 -26.5zM461 140q-59 0 -105 28.5t-72 78t-26 113.5t26 113.5t72 78t104 28.5q72 0 121.5 -43.5t59.5 -114.5h-49q-7 53 -42 83.5t-89 30.5q-69 0 -111 -49t-42 -127q0 -79 42 -127.5
t110 -48.5q56 0 91 31t42 83h49q-10 -72 -59 -115t-122 -43z" />
    <glyph glyph-name="ordfeminine" unicode="&#xaa;" horiz-adv-x="371" 
d="M286 418q0 11 1.5 22t5.5 29l-3 1l32 143q5 25 -4 45t-47 20q-30 0 -44.5 -12.5t-22.5 -30.5h-59q14 45 46 70t84 25q42 0 69 -16.5t37.5 -44.5t1.5 -65l-33 -142q-3 -13 -3.5 -23.5t-0.5 -20.5h-60zM198 412q-45 0 -70 23t-25 56q0 40 31.5 65.5t98.5 36.5l100 17
l-10 -46l-90 -16q-27 -4 -46.5 -14t-19.5 -37q0 -37 55 -37q29 0 51.5 15.5t29.5 49.5l-3 -49q-21 -38 -47.5 -51t-54.5 -13z" />
    <glyph glyph-name="guillemotleft" unicode="&#xab;" horiz-adv-x="494" 
d="M144 68l-87 196l163 170h90l-173 -184l78 -182h-71zM304 68l-87 196l163 170h90l-173 -184l78 -182h-71z" />
    <glyph glyph-name="registered" unicode="&#xae;" horiz-adv-x="870" 
d="M459 -15q-78 0 -146 29t-119.5 80.5t-80.5 119.5t-29 146t29 146t80.5 119.5t119.5 80.5t146 29t146 -29t119.5 -80.5t80.5 -119.5t29 -146t-29 -146t-80.5 -119.5t-119.5 -80.5t-146 -29zM459 23q69 0 130 26.5t107 73t72 107.5t26 130t-26 130t-72 107.5t-107 73
t-130 26.5t-130 -26.5t-107 -73t-72 -107.5t-26 -130t26 -130t72 -107.5t107 -73t130 -26.5zM319 145v430h159q67 0 106 -31.5t39 -85.5q0 -88 -115 -113l6 16q47 2 74.5 -23.5t27.5 -70.5v-71q0 -11 1 -23.5t4 -27.5h-50q-2 9 -3 22t-1 29v61q0 39 -22.5 59.5t-63.5 20.5
h-126v40h121q47 0 72.5 21t25.5 58t-25.5 56.5t-72.5 19.5h-108v-387h-49z" />
    <glyph glyph-name="macron" unicode="&#xaf;" horiz-adv-x="466" 
d="M149 642l14 58h346l-14 -58h-346z" />
    <glyph glyph-name="degree" unicode="&#xb0;" horiz-adv-x="386" 
d="M256 449q-37 0 -66 17t-45 46.5t-16 65.5q0 42 21 77.5t57 57.5t81 22q57 0 91 -35.5t34 -91.5q0 -42 -21 -78.5t-56.5 -58.5t-79.5 -22zM261 500q29 0 51.5 14t35.5 37t13 50q0 36 -21 59.5t-59 23.5q-29 0 -51.5 -14t-35.5 -37t-13 -51q0 -36 21.5 -59t58.5 -23z" />
    <glyph glyph-name="acute" unicode="&#xb4;" horiz-adv-x="356" 
d="M212 583h-76l139 157h133z" />
    <glyph glyph-name="paragraph" unicode="&#xb6;" horiz-adv-x="711" 
d="M269 -130l105 456h-106q-53 0 -90 23.5t-56 62.5t-19 83q0 58 28 109t79 83.5t120 32.5h402l-196 -850h-67l181 786h-133l-181 -786h-67z" />
    <glyph glyph-name="periodcentered" unicode="&#xb7;" horiz-adv-x="103" 
d="M18 335l24 103h103l-24 -103h-103z" />
    <glyph glyph-name="cedilla" unicode="&#xb8;" horiz-adv-x="355" 
d="M92 -215q-36 0 -64 10.5t-43 30.5t-13 48h55q-1 -17 18.5 -27t46.5 -10q20 0 36.5 8.5t16.5 25.5q0 14 -14.5 25t-66.5 21l47 95h57l-30 -60q36 -10 51 -32t15 -48q0 -41 -32.5 -64t-79.5 -23z" />
    <glyph glyph-name="ordmasculine" unicode="&#xba;" horiz-adv-x="414" 
d="M262 412q-64 0 -101.5 39.5t-37.5 100.5q0 35 12.5 66.5t35.5 57t55 40t70 14.5q39 0 71 -16.5t51 -47t19 -74.5q0 -35 -13 -67t-36 -57.5t-55 -40.5t-71 -15zM267 465q27 0 47 12.5t33.5 32.5t20 42t6.5 41q0 38 -22 61t-59 23q-28 0 -48.5 -12.5t-33 -32t-18.5 -41.5
t-6 -40q0 -37 22 -61.5t58 -24.5z" />
    <glyph glyph-name="guillemotright" unicode="&#xbb;" horiz-adv-x="494" 
d="M348 434l87 -196l-163 -170h-90l173 184l-78 182h71zM188 434l87 -196l-163 -170h-90l173 184l-78 182h71z" />
    <glyph glyph-name="questiondown" unicode="&#xbf;" horiz-adv-x="567" 
d="M178 -215q-56 0 -104 18t-77.5 56t-29.5 98q0 48 17 80.5t45 56t61 43t65 41t57 51t36 71.5h76q-13 -54 -38 -90.5t-56.5 -62t-63.5 -45t-59 -39t-43.5 -43.5t-16.5 -59q0 -55 40.5 -79.5t96.5 -24.5q69 0 120 32.5t76 94.5h80q-19 -62 -59 -106.5t-96.5 -68.5
t-126.5 -24zM379 510l-24 -103h-103l24 103h103z" />
    <glyph glyph-name="Agrave" unicode="&#xc0;" horiz-adv-x="728" 
d="M-23 0l442 720h78l-435 -720h-85zM553 0l-107 720h73l114 -720h-80zM181 291h376l-16 -72h-376zM492 793l-133 157h113l87 -157h-67z" />
    <glyph glyph-name="Aacute" unicode="&#xc1;" horiz-adv-x="728" 
d="M-23 0l442 720h78l-435 -720h-85zM553 0l-107 720h73l114 -720h-80zM181 291h376l-16 -72h-376zM475 793h-76l139 157h133z" />
    <glyph glyph-name="Acircumflex" unicode="&#xc2;" horiz-adv-x="728" 
d="M-23 0l442 720h78l-435 -720h-85zM553 0l-107 720h73l114 -720h-80zM181 291h376l-16 -72h-376zM294 793l178 157h86l106 -157h-67l-119 137h80l-181 -137h-83z" />
    <glyph glyph-name="Atilde" unicode="&#xc3;" horiz-adv-x="728" 
d="M-23 0l442 720h78l-435 -720h-85zM553 0l-107 720h73l114 -720h-80zM181 291h376l-16 -72h-376zM570 803q-28 0 -49.5 10.5t-39.5 24t-35 24t-36 10.5q-20 0 -34.5 -14t-22.5 -45h-58q6 34 23.5 61t44.5 42.5t60 15.5q30 0 51 -10.5t37.5 -24t33 -24t37.5 -10.5
q20 0 34.5 14t21.5 45h58q-9 -55 -44.5 -87t-81.5 -32z" />
    <glyph glyph-name="Adieresis" unicode="&#xc4;" horiz-adv-x="728" 
d="M-23 0l442 720h78l-435 -720h-85zM553 0l-107 720h73l114 -720h-80zM181 291h376l-16 -72h-376zM557 836l21 94h92l-21 -94h-92zM328 836l21 94h92l-21 -94h-92z" />
    <glyph glyph-name="Aring" unicode="&#xc5;" horiz-adv-x="728" 
d="M-23 0l442 720h78l-435 -720h-85zM553 0l-107 720h73l114 -720h-80zM181 291h376l-16 -72h-376zM487 771q-41 0 -69 27.5t-28 68.5q0 33 16 60t42.5 43t57.5 16q42 0 70 -27.5t28 -68.5q0 -31 -16.5 -58.5t-43 -44t-57.5 -16.5zM491 821q25 0 43 19.5t18 45.5
q0 22 -14.5 36.5t-35.5 14.5q-23 0 -41.5 -19t-18.5 -45q0 -22 14 -37t35 -15z" />
    <glyph glyph-name="AE" unicode="&#xc6;" horiz-adv-x="936" 
d="M-23 0l442 720h78l-435 -720h-85zM415 0l164 720h82l-164 -720h-82zM457 0l16 72h350l-16 -72h-350zM239 339l17 72h609l-17 -72h-609zM426 648l16 72h521l-16 -72h-521z" />
    <glyph glyph-name="Ccedilla" unicode="&#xc7;" horiz-adv-x="741" 
d="M364 -10q-87 0 -151.5 38.5t-100 107.5t-35.5 162q0 60 14.5 115t41.5 103.5t64 87.5t81.5 67.5t95.5 43.5t105 15q62 0 113 -19.5t87.5 -55t54 -84t12.5 -107.5h-81q2 44 -10 79.5t-36.5 60.5t-60.5 38t-83 13q-52 0 -99.5 -17t-87 -49t-68 -76t-44.5 -97.5t-16 -114.5
q0 -112 55.5 -174.5t155.5 -62.5q90 0 154 50.5t92 141.5h82q-24 -83 -72.5 -143t-115.5 -91.5t-147 -31.5zM306 -215q-36 0 -64 10.5t-43 30.5t-13 48h55q-1 -17 18.5 -27t46.5 -10q20 0 36.5 8.5t16.5 25.5q0 14 -14.5 25t-66.5 21l47 95h57l-30 -60q36 -10 51 -32t15 -48
q0 -41 -32.5 -64t-79.5 -23z" />
    <glyph glyph-name="Egrave" unicode="&#xc8;" horiz-adv-x="638" 
d="M27 0l166 720h82l-166 -720h-82zM69 0l16 72h440l-16 -72h-440zM147 339l16 72h404l-16 -72h-404zM218 648l17 72h432l-17 -72h-432zM466 793l-133 157h113l87 -157h-67z" />
    <glyph glyph-name="Eacute" unicode="&#xc9;" horiz-adv-x="638" 
d="M27 0l166 720h82l-166 -720h-82zM69 0l16 72h440l-16 -72h-440zM147 339l16 72h404l-16 -72h-404zM218 648l17 72h432l-17 -72h-432zM449 793h-76l139 157h133z" />
    <glyph glyph-name="Ecircumflex" unicode="&#xca;" horiz-adv-x="638" 
d="M27 0l166 720h82l-166 -720h-82zM69 0l16 72h440l-16 -72h-440zM147 339l16 72h404l-16 -72h-404zM218 648l17 72h432l-17 -72h-432zM268 793l178 157h86l106 -157h-67l-119 137h80l-181 -137h-83z" />
    <glyph glyph-name="Edieresis" unicode="&#xcb;" horiz-adv-x="638" 
d="M27 0l166 720h82l-166 -720h-82zM69 0l16 72h440l-16 -72h-440zM147 339l16 72h404l-16 -72h-404zM218 648l17 72h432l-17 -72h-432zM531 836l21 94h92l-21 -94h-92zM302 836l21 94h92l-21 -94h-92z" />
    <glyph glyph-name="Igrave" unicode="&#xcc;" horiz-adv-x="254" 
d="M27 0l166 720h82l-166 -720h-82zM264 793l-133 157h113l87 -157h-67z" />
    <glyph glyph-name="Iacute" unicode="&#xcd;" horiz-adv-x="254" 
d="M27 0l166 720h82l-166 -720h-82zM247 793h-76l139 157h133z" />
    <glyph glyph-name="Icircumflex" unicode="&#xce;" horiz-adv-x="254" 
d="M27 0l166 720h82l-166 -720h-82zM66 793l178 157h86l106 -157h-67l-119 137h80l-181 -137h-83z" />
    <glyph glyph-name="Idieresis" unicode="&#xcf;" horiz-adv-x="254" 
d="M27 0l166 720h82l-166 -720h-82zM329 836l21 94h92l-21 -94h-92zM100 836l21 94h92l-21 -94h-92z" />
    <glyph glyph-name="Eth" unicode="&#xd0;" horiz-adv-x="752" 
d="M16 326l16 68h377l-16 -68h-377zM77 0l16 72h233q69 0 127 27t101 74t66.5 107t23.5 126q0 70 -27 124.5t-75.5 86t-114.5 31.5h-203l16 72h195q88 0 153.5 -40t102.5 -109.5t37 -158.5q0 -81 -30.5 -155.5t-85.5 -132t-129.5 -91t-161.5 -33.5h-244zM28 0l165 720h82
l-165 -720h-82z" />
    <glyph glyph-name="Ntilde" unicode="&#xd1;" horiz-adv-x="736" 
d="M27 0l166 720h80l273 -606l-7 -2l140 608h78l-166 -720h-81l-273 606l8 2l-140 -608h-78zM570 803q-28 0 -49.5 10.5t-39.5 24t-35 24t-36 10.5q-20 0 -34.5 -14t-22.5 -45h-58q6 34 23.5 61t44.5 42.5t60 15.5q30 0 51 -10.5t37.5 -24t33 -24t37.5 -10.5q20 0 34.5 14
t21.5 45h58q-9 -55 -44.5 -87t-81.5 -32z" />
    <glyph glyph-name="Ograve" unicode="&#xd2;" horiz-adv-x="786" 
d="M365 -10q-86 0 -151.5 40.5t-102.5 112t-37 164.5q0 86 31 162.5t86 135t126 92t152 33.5q88 0 153.5 -39.5t102.5 -110t37 -163.5q0 -86 -31.5 -163t-86.5 -136.5t-126.5 -93.5t-152.5 -34zM370 64q62 0 117.5 27.5t98.5 76t67.5 112t24.5 134.5q0 73 -27 127
t-75.5 84.5t-114.5 30.5q-62 0 -116.5 -27t-96.5 -75t-65.5 -111t-23.5 -135q0 -73 26.5 -128t74 -85.5t110.5 -30.5zM531 793l-133 157h113l87 -157h-67z" />
    <glyph glyph-name="Oacute" unicode="&#xd3;" horiz-adv-x="786" 
d="M365 -10q-86 0 -151.5 40.5t-102.5 112t-37 164.5q0 86 31 162.5t86 135t126 92t152 33.5q88 0 153.5 -39.5t102.5 -110t37 -163.5q0 -86 -31.5 -163t-86.5 -136.5t-126.5 -93.5t-152.5 -34zM370 64q62 0 117.5 27.5t98.5 76t67.5 112t24.5 134.5q0 73 -27 127
t-75.5 84.5t-114.5 30.5q-62 0 -116.5 -27t-96.5 -75t-65.5 -111t-23.5 -135q0 -73 26.5 -128t74 -85.5t110.5 -30.5zM514 793h-76l139 157h133z" />
    <glyph glyph-name="Ocircumflex" unicode="&#xd4;" horiz-adv-x="786" 
d="M365 -10q-86 0 -151.5 40.5t-102.5 112t-37 164.5q0 86 31 162.5t86 135t126 92t152 33.5q88 0 153.5 -39.5t102.5 -110t37 -163.5q0 -86 -31.5 -163t-86.5 -136.5t-126.5 -93.5t-152.5 -34zM370 64q62 0 117.5 27.5t98.5 76t67.5 112t24.5 134.5q0 73 -27 127
t-75.5 84.5t-114.5 30.5q-62 0 -116.5 -27t-96.5 -75t-65.5 -111t-23.5 -135q0 -73 26.5 -128t74 -85.5t110.5 -30.5zM333 793l178 157h86l106 -157h-67l-119 137h80l-181 -137h-83z" />
    <glyph glyph-name="Otilde" unicode="&#xd5;" horiz-adv-x="786" 
d="M365 -10q-86 0 -151.5 40.5t-102.5 112t-37 164.5q0 86 31 162.5t86 135t126 92t152 33.5q88 0 153.5 -39.5t102.5 -110t37 -163.5q0 -86 -31.5 -163t-86.5 -136.5t-126.5 -93.5t-152.5 -34zM370 64q62 0 117.5 27.5t98.5 76t67.5 112t24.5 134.5q0 73 -27 127
t-75.5 84.5t-114.5 30.5q-62 0 -116.5 -27t-96.5 -75t-65.5 -111t-23.5 -135q0 -73 26.5 -128t74 -85.5t110.5 -30.5zM609 803q-28 0 -49.5 10.5t-39.5 24t-35 24t-36 10.5q-20 0 -34.5 -14t-22.5 -45h-58q6 34 23.5 61t44.5 42.5t60 15.5q30 0 51 -10.5t37.5 -24t33 -24
t37.5 -10.5q20 0 34.5 14t21.5 45h58q-9 -55 -44.5 -87t-81.5 -32z" />
    <glyph glyph-name="Odieresis" unicode="&#xd6;" horiz-adv-x="786" 
d="M365 -10q-86 0 -151.5 40.5t-102.5 112t-37 164.5q0 86 31 162.5t86 135t126 92t152 33.5q88 0 153.5 -39.5t102.5 -110t37 -163.5q0 -86 -31.5 -163t-86.5 -136.5t-126.5 -93.5t-152.5 -34zM370 64q62 0 117.5 27.5t98.5 76t67.5 112t24.5 134.5q0 73 -27 127
t-75.5 84.5t-114.5 30.5q-62 0 -116.5 -27t-96.5 -75t-65.5 -111t-23.5 -135q0 -73 26.5 -128t74 -85.5t110.5 -30.5zM596 836l21 94h92l-21 -94h-92zM367 836l21 94h92l-21 -94h-92z" />
    <glyph glyph-name="multiply" unicode="&#xd7;" horiz-adv-x="531" 
d="M401 174l-271 353l54 42l271 -353zM106 173l-42 52l415 345l42 -52z" />
    <glyph glyph-name="Oslash" unicode="&#xd8;" horiz-adv-x="786" 
d="M112 -10l-50 41l612 699l50 -41zM365 -10q-86 0 -151.5 40.5t-102.5 112t-37 164.5q0 86 31 162.5t86 135t126 92t152 33.5q88 0 153.5 -39.5t102.5 -110t37 -163.5q0 -86 -31.5 -163t-86.5 -136.5t-126.5 -93.5t-152.5 -34zM370 64q62 0 117.5 27.5t98.5 76t67.5 112
t24.5 134.5q0 73 -27 127t-75.5 84.5t-114.5 30.5q-62 0 -116.5 -27t-96.5 -75t-65.5 -111t-23.5 -135q0 -73 26.5 -128t74 -85.5t110.5 -30.5z" />
    <glyph glyph-name="Ugrave" unicode="&#xd9;" horiz-adv-x="712" 
d="M328 -10q-93 0 -153.5 41t-81.5 115.5t2 174.5l92 399h82l-95 -411q-16 -69 -6.5 -124.5t50 -88t117.5 -32.5q88 0 141.5 52t76.5 152l104 452h82l-105 -457q-31 -133 -108.5 -203t-197.5 -70zM493 793l-133 157h113l87 -157h-67z" />
    <glyph glyph-name="Uacute" unicode="&#xda;" horiz-adv-x="712" 
d="M328 -10q-93 0 -153.5 41t-81.5 115.5t2 174.5l92 399h82l-95 -411q-16 -69 -6.5 -124.5t50 -88t117.5 -32.5q88 0 141.5 52t76.5 152l104 452h82l-105 -457q-31 -133 -108.5 -203t-197.5 -70zM476 793h-76l139 157h133z" />
    <glyph glyph-name="Ucircumflex" unicode="&#xdb;" horiz-adv-x="712" 
d="M328 -10q-93 0 -153.5 41t-81.5 115.5t2 174.5l92 399h82l-95 -411q-16 -69 -6.5 -124.5t50 -88t117.5 -32.5q88 0 141.5 52t76.5 152l104 452h82l-105 -457q-31 -133 -108.5 -203t-197.5 -70zM295 793l178 157h86l106 -157h-67l-119 137h80l-181 -137h-83z" />
    <glyph glyph-name="Udieresis" unicode="&#xdc;" horiz-adv-x="712" 
d="M328 -10q-93 0 -153.5 41t-81.5 115.5t2 174.5l92 399h82l-95 -411q-16 -69 -6.5 -124.5t50 -88t117.5 -32.5q88 0 141.5 52t76.5 152l104 452h82l-105 -457q-31 -133 -108.5 -203t-197.5 -70zM558 836l21 94h92l-21 -94h-92zM329 836l21 94h92l-21 -94h-92z" />
    <glyph glyph-name="Yacute" unicode="&#xdd;" horiz-adv-x="676" 
d="M238 0l75 326l-182 394h92l157 -346h-39l317 346h101l-364 -394l-75 -326h-82zM458 793h-76l139 157h133z" />
    <glyph glyph-name="Thorn" unicode="&#xde;" horiz-adv-x="656" 
d="M124 160l16 72h243q52 0 91.5 20t61.5 56.5t22 83.5q0 49 -31.5 82.5t-102.5 33.5h-220l16 72h223q60 0 104 -23t68.5 -64.5t24.5 -96.5q0 -68 -34 -121.5t-92.5 -84t-134.5 -30.5h-255zM27 0l166 720h82l-166 -720h-82z" />
    <glyph glyph-name="germandbls" unicode="&#xdf;" horiz-adv-x="612" 
d="M300 -9q-14 0 -34.5 1.5t-41 5.5t-34.5 11l15 68q32 -12 57 -15t40 -3q59 0 98 19.5t58.5 53.5t19.5 75q0 58 -36 96.5t-96 38.5h-59l16 70h57q30 0 58.5 9t50.5 26.5t35 43.5t13 60q0 51 -32 83t-92 32q-63 0 -109.5 -39.5t-66.5 -122.5l-116 -504h-80l119 516
q24 105 91.5 159.5t159.5 54.5q39 0 76 -10t67 -31t48 -53t18 -77q0 -46 -19.5 -84.5t-52.5 -65t-72.5 -38.5t-78.5 -7l-2 22q89 -10 136 -58t47 -120q0 -63 -34 -112t-92.5 -77t-131.5 -28z" />
    <glyph glyph-name="agrave" unicode="&#xe0;" horiz-adv-x="533" 
d="M334 0q-1 11 2.5 33t9.5 50l-5 1l56 242q8 33 2.5 62t-30 46.5t-73.5 17.5q-55 0 -88.5 -22.5t-46.5 -67.5h-75q20 77 77 117.5t144 40.5q76 0 116.5 -28.5t51.5 -74.5t-1 -98l-54 -233q-4 -19 -7 -43t-2 -43h-77zM175 -10q-70 0 -112 37.5t-42 98.5q0 47 24 81
t70.5 55.5t115.5 29.5l182 21l-15 -65l-169 -19q-66 -7 -98 -31.5t-32 -67.5q0 -36 24.5 -54t71.5 -18q63 0 108 29t57 77l-3 -72q-28 -48 -75.5 -75t-106.5 -27zM348 583l-133 157h113l87 -157h-67z" />
    <glyph glyph-name="aacute" unicode="&#xe1;" horiz-adv-x="533" 
d="M334 0q-1 11 2.5 33t9.5 50l-5 1l56 242q8 33 2.5 62t-30 46.5t-73.5 17.5q-55 0 -88.5 -22.5t-46.5 -67.5h-75q20 77 77 117.5t144 40.5q76 0 116.5 -28.5t51.5 -74.5t-1 -98l-54 -233q-4 -19 -7 -43t-2 -43h-77zM175 -10q-70 0 -112 37.5t-42 98.5q0 47 24 81
t70.5 55.5t115.5 29.5l182 21l-15 -65l-169 -19q-66 -7 -98 -31.5t-32 -67.5q0 -36 24.5 -54t71.5 -18q63 0 108 29t57 77l-3 -72q-28 -48 -75.5 -75t-106.5 -27zM331 583h-76l139 157h133z" />
    <glyph glyph-name="acircumflex" unicode="&#xe2;" horiz-adv-x="533" 
d="M334 0q-1 11 2.5 33t9.5 50l-5 1l56 242q8 33 2.5 62t-30 46.5t-73.5 17.5q-55 0 -88.5 -22.5t-46.5 -67.5h-75q20 77 77 117.5t144 40.5q76 0 116.5 -28.5t51.5 -74.5t-1 -98l-54 -233q-4 -19 -7 -43t-2 -43h-77zM175 -10q-70 0 -112 37.5t-42 98.5q0 47 24 81
t70.5 55.5t115.5 29.5l182 21l-15 -65l-169 -19q-66 -7 -98 -31.5t-32 -67.5q0 -36 24.5 -54t71.5 -18q63 0 108 29t57 77l-3 -72q-28 -48 -75.5 -75t-106.5 -27zM150 583l178 157h86l106 -157h-67l-119 137h80l-181 -137h-83z" />
    <glyph glyph-name="atilde" unicode="&#xe3;" horiz-adv-x="533" 
d="M334 0q-1 11 2.5 33t9.5 50l-5 1l56 242q8 33 2.5 62t-30 46.5t-73.5 17.5q-55 0 -88.5 -22.5t-46.5 -67.5h-75q20 77 77 117.5t144 40.5q76 0 116.5 -28.5t51.5 -74.5t-1 -98l-54 -233q-4 -19 -7 -43t-2 -43h-77zM175 -10q-70 0 -112 37.5t-42 98.5q0 47 24 81
t70.5 55.5t115.5 29.5l182 21l-15 -65l-169 -19q-66 -7 -98 -31.5t-32 -67.5q0 -36 24.5 -54t71.5 -18q63 0 108 29t57 77l-3 -72q-28 -48 -75.5 -75t-106.5 -27zM426 593q-28 0 -49.5 10.5t-39.5 24t-35 24t-36 10.5q-20 0 -34.5 -14t-22.5 -45h-58q6 34 23.5 61t44.5 42.5
t60 15.5q30 0 51 -10.5t37.5 -24t33 -24t37.5 -10.5q20 0 34.5 14t21.5 45h58q-9 -55 -44.5 -87t-81.5 -32z" />
    <glyph glyph-name="adieresis" unicode="&#xe4;" horiz-adv-x="533" 
d="M334 0q-1 11 2.5 33t9.5 50l-5 1l56 242q8 33 2.5 62t-30 46.5t-73.5 17.5q-55 0 -88.5 -22.5t-46.5 -67.5h-75q20 77 77 117.5t144 40.5q76 0 116.5 -28.5t51.5 -74.5t-1 -98l-54 -233q-4 -19 -7 -43t-2 -43h-77zM175 -10q-70 0 -112 37.5t-42 98.5q0 47 24 81
t70.5 55.5t115.5 29.5l182 21l-15 -65l-169 -19q-66 -7 -98 -31.5t-32 -67.5q0 -36 24.5 -54t71.5 -18q63 0 108 29t57 77l-3 -72q-28 -48 -75.5 -75t-106.5 -27zM413 626l21 94h92l-21 -94h-92zM184 626l21 94h92l-21 -94h-92z" />
    <glyph glyph-name="aring" unicode="&#xe5;" horiz-adv-x="533" 
d="M334 0q-1 11 2.5 33t9.5 50l-5 1l56 242q8 33 2.5 62t-30 46.5t-73.5 17.5q-55 0 -88.5 -22.5t-46.5 -67.5h-75q20 77 77 117.5t144 40.5q76 0 116.5 -28.5t51.5 -74.5t-1 -98l-54 -233q-4 -19 -7 -43t-2 -43h-77zM175 -10q-70 0 -112 37.5t-42 98.5q0 47 24 81
t70.5 55.5t115.5 29.5l182 21l-15 -65l-169 -19q-66 -7 -98 -31.5t-32 -67.5q0 -36 24.5 -54t71.5 -18q63 0 108 29t57 77l-3 -72q-28 -48 -75.5 -75t-106.5 -27zM343 561q-41 0 -69 27.5t-28 68.5q0 33 16 60t42.5 43t57.5 16q42 0 70 -27.5t28 -68.5q0 -31 -16.5 -58.5
t-43 -44t-57.5 -16.5zM347 611q25 0 43 19.5t18 45.5q0 22 -14.5 36.5t-35.5 14.5q-23 0 -41.5 -19t-18.5 -45q0 -22 14 -37t35 -15z" />
    <glyph glyph-name="ae" unicode="&#xe6;" horiz-adv-x="865" 
d="M350 124l47 202q8 33 2.5 62t-30 46.5t-73.5 17.5q-55 0 -88.5 -22.5t-46.5 -67.5h-75q20 77 77 117.5t144 40.5q76 0 116.5 -28.5t51.5 -74.5t-1 -98l-45 -193zM175 -10q-70 0 -112 37.5t-42 98.5q0 47 24 81t70.5 55.5t115.5 29.5l182 21l-15 -65l-169 -19
q-66 -7 -98 -31.5t-32 -67.5q0 -36 24.5 -54t71.5 -18q63 0 108 29t57 77l52 -30q-46 -79 -107.5 -111.5t-129.5 -32.5zM577 -10q-60 0 -104.5 28t-68.5 78.5t-24 117.5q0 51 13 97t37.5 84t57.5 66t73.5 43.5t85.5 15.5q58 0 99.5 -25t64.5 -70t23 -105q0 -23 -4.5 -45.5
t-14.5 -43.5h-374l15 67h324l-34 -54q9 37 10 73.5t-9.5 67t-35.5 49t-68 18.5q-31 0 -58 -12t-49.5 -33.5t-39 -51t-25.5 -65t-9 -74.5q0 -74 32.5 -116t93.5 -42q39 0 71 20.5t48 62.5h76q-30 -76 -84 -113.5t-122 -37.5z" />
    <glyph glyph-name="ccedilla" unicode="&#xe7;" horiz-adv-x="533" 
d="M239 -11q-61 0 -106 27.5t-70 77t-25 115.5q0 52 14.5 98t41 85t62.5 67t79 43.5t91 15.5q41 0 75 -13t59 -36.5t39 -56t14 -71.5h-74q-1 34 -16 58t-41 37.5t-62 13.5q-34 0 -64 -12t-55 -34.5t-43 -52.5t-28 -67t-10 -78q0 -71 33 -110.5t93 -39.5q54 0 96 30t61 82h74
q-27 -82 -91.5 -130.5t-146.5 -48.5zM182 -215q-36 0 -64 10.5t-43 30.5t-13 48h55q-1 -17 18.5 -27t46.5 -10q20 0 36.5 8.5t16.5 25.5q0 14 -14.5 25t-66.5 21l47 95h57l-30 -60q36 -10 51 -32t15 -48q0 -41 -32.5 -64t-79.5 -23z" />
    <glyph glyph-name="egrave" unicode="&#xe8;" horiz-adv-x="563" 
d="M256 -10q-65 0 -114 28t-76 78.5t-27 117.5q0 51 14.5 97t40.5 84t62 66t79 43.5t91 15.5q62 0 108.5 -25t72 -70t25.5 -105q0 -23 -4.5 -45.5t-14.5 -43.5h-413l15 67h363l-34 -54q9 37 8.5 73.5t-14 67t-41.5 49t-75 18.5q-33 0 -63 -12t-55 -33.5t-44 -51t-29 -65
t-10 -74.5q0 -74 39 -116t107 -42q46 0 80 20.5t58 62.5h76q-37 -76 -94 -113.5t-131 -37.5zM364 583l-133 157h113l87 -157h-67z" />
    <glyph glyph-name="eacute" unicode="&#xe9;" horiz-adv-x="563" 
d="M256 -10q-65 0 -114 28t-76 78.5t-27 117.5q0 51 14.5 97t40.5 84t62 66t79 43.5t91 15.5q62 0 108.5 -25t72 -70t25.5 -105q0 -23 -4.5 -45.5t-14.5 -43.5h-413l15 67h363l-34 -54q9 37 8.5 73.5t-14 67t-41.5 49t-75 18.5q-33 0 -63 -12t-55 -33.5t-44 -51t-29 -65
t-10 -74.5q0 -74 39 -116t107 -42q46 0 80 20.5t58 62.5h76q-37 -76 -94 -113.5t-131 -37.5zM347 583h-76l139 157h133z" />
    <glyph glyph-name="ecircumflex" unicode="&#xea;" horiz-adv-x="563" 
d="M256 -10q-65 0 -114 28t-76 78.5t-27 117.5q0 51 14.5 97t40.5 84t62 66t79 43.5t91 15.5q62 0 108.5 -25t72 -70t25.5 -105q0 -23 -4.5 -45.5t-14.5 -43.5h-413l15 67h363l-34 -54q9 37 8.5 73.5t-14 67t-41.5 49t-75 18.5q-33 0 -63 -12t-55 -33.5t-44 -51t-29 -65
t-10 -74.5q0 -74 39 -116t107 -42q46 0 80 20.5t58 62.5h76q-37 -76 -94 -113.5t-131 -37.5zM166 583l178 157h86l106 -157h-67l-119 137h80l-181 -137h-83z" />
    <glyph glyph-name="edieresis" unicode="&#xeb;" horiz-adv-x="563" 
d="M256 -10q-65 0 -114 28t-76 78.5t-27 117.5q0 51 14.5 97t40.5 84t62 66t79 43.5t91 15.5q62 0 108.5 -25t72 -70t25.5 -105q0 -23 -4.5 -45.5t-14.5 -43.5h-413l15 67h363l-34 -54q9 37 8.5 73.5t-14 67t-41.5 49t-75 18.5q-33 0 -63 -12t-55 -33.5t-44 -51t-29 -65
t-10 -74.5q0 -74 39 -116t107 -42q46 0 80 20.5t58 62.5h76q-37 -76 -94 -113.5t-131 -37.5zM429 626l21 94h92l-21 -94h-92zM200 626l21 94h92l-21 -94h-92z" />
    <glyph glyph-name="igrave" unicode="&#xec;" horiz-adv-x="241" 
d="M22 0l117 510h80l-117 -510h-80zM209 583l-133 157h113l87 -157h-67z" />
    <glyph glyph-name="iacute" unicode="&#xed;" horiz-adv-x="241" 
d="M22 0l117 510h80l-117 -510h-80zM192 583h-76l139 157h133z" />
    <glyph glyph-name="icircumflex" unicode="&#xee;" horiz-adv-x="241" 
d="M22 0l117 510h80l-117 -510h-80zM11 583l178 157h86l106 -157h-67l-119 137h80l-181 -137h-83z" />
    <glyph glyph-name="idieresis" unicode="&#xef;" horiz-adv-x="241" 
d="M22 0l117 510h80l-117 -510h-80zM274 626l21 94h92l-21 -94h-92zM45 626l21 94h92l-21 -94h-92z" />
    <glyph glyph-name="eth" unicode="&#xf0;" horiz-adv-x="592" 
d="M253 -9q-58 0 -107.5 23.5t-79.5 71t-30 118.5q0 46 13.5 89.5t38 80.5t58.5 64.5t75 43t87 15.5q59 0 103.5 -23.5t69 -64t22.5 -91.5l-32 -47l15 65q16 70 7.5 129t-43 103.5t-95.5 70t-150 28.5l24 63q111 -3 188 -40t117.5 -104.5t40.5 -162.5q0 -51 -12 -109.5
t-37 -115.5t-63 -104t-90.5 -75t-119.5 -28zM257 64q36 0 66.5 12.5t54.5 33.5t40.5 48.5t25.5 58t9 61.5q0 49 -21 82t-55 49.5t-75 16.5q-39 0 -69.5 -14t-52 -37.5t-35.5 -52t-20.5 -59t-6.5 -57.5q0 -71 40.5 -106.5t98.5 -35.5zM258 537l-19 53l320 147l19 -53z" />
    <glyph glyph-name="ntilde" unicode="&#xf1;" horiz-adv-x="599" 
d="M22 0l117 510h75l-27 -120h5l-90 -390h-80zM386 0l72 313q16 68 -10 103.5t-86 35.5q-71 0 -123.5 -45.5t-71.5 -124.5l15 125q38 54 91.5 83.5t112.5 29.5q90 0 132 -55t21 -148l-73 -317h-80zM497 593q-28 0 -49.5 10.5t-39.5 24t-35 24t-36 10.5q-20 0 -34.5 -14
t-22.5 -45h-58q6 34 23.5 61t44.5 42.5t60 15.5q30 0 51 -10.5t37.5 -24t33 -24t37.5 -10.5q20 0 34.5 14t21.5 45h58q-9 -55 -44.5 -87t-81.5 -32z" />
    <glyph glyph-name="ograve" unicode="&#xf2;" horiz-adv-x="584" 
d="M256 -10q-64 0 -113 28.5t-76.5 79.5t-27.5 118q0 63 22.5 118t62 97t91.5 65.5t112 23.5q66 0 115 -28t76 -78.5t27 -117.5q0 -63 -23 -118.5t-63 -97.5t-92 -66t-111 -24zM260 58q41 0 78 18.5t65 51t44 75.5t16 92q0 72 -37.5 114.5t-102.5 42.5q-42 0 -78.5 -18
t-64 -50t-43.5 -74.5t-16 -91.5q0 -73 38 -116.5t101 -43.5zM379 583l-133 157h113l87 -157h-67z" />
    <glyph glyph-name="oacute" unicode="&#xf3;" horiz-adv-x="584" 
d="M256 -10q-64 0 -113 28.5t-76.5 79.5t-27.5 118q0 63 22.5 118t62 97t91.5 65.5t112 23.5q66 0 115 -28t76 -78.5t27 -117.5q0 -63 -23 -118.5t-63 -97.5t-92 -66t-111 -24zM260 58q41 0 78 18.5t65 51t44 75.5t16 92q0 72 -37.5 114.5t-102.5 42.5q-42 0 -78.5 -18
t-64 -50t-43.5 -74.5t-16 -91.5q0 -73 38 -116.5t101 -43.5zM362 583h-76l139 157h133z" />
    <glyph glyph-name="ocircumflex" unicode="&#xf4;" horiz-adv-x="584" 
d="M256 -10q-64 0 -113 28.5t-76.5 79.5t-27.5 118q0 63 22.5 118t62 97t91.5 65.5t112 23.5q66 0 115 -28t76 -78.5t27 -117.5q0 -63 -23 -118.5t-63 -97.5t-92 -66t-111 -24zM260 58q41 0 78 18.5t65 51t44 75.5t16 92q0 72 -37.5 114.5t-102.5 42.5q-42 0 -78.5 -18
t-64 -50t-43.5 -74.5t-16 -91.5q0 -73 38 -116.5t101 -43.5zM181 583l178 157h86l106 -157h-67l-119 137h80l-181 -137h-83z" />
    <glyph glyph-name="otilde" unicode="&#xf5;" horiz-adv-x="584" 
d="M256 -10q-64 0 -113 28.5t-76.5 79.5t-27.5 118q0 63 22.5 118t62 97t91.5 65.5t112 23.5q66 0 115 -28t76 -78.5t27 -117.5q0 -63 -23 -118.5t-63 -97.5t-92 -66t-111 -24zM260 58q41 0 78 18.5t65 51t44 75.5t16 92q0 72 -37.5 114.5t-102.5 42.5q-42 0 -78.5 -18
t-64 -50t-43.5 -74.5t-16 -91.5q0 -73 38 -116.5t101 -43.5zM457 593q-28 0 -49.5 10.5t-39.5 24t-35 24t-36 10.5q-20 0 -34.5 -14t-22.5 -45h-58q6 34 23.5 61t44.5 42.5t60 15.5q30 0 51 -10.5t37.5 -24t33 -24t37.5 -10.5q20 0 34.5 14t21.5 45h58q-9 -55 -44.5 -87
t-81.5 -32z" />
    <glyph glyph-name="odieresis" unicode="&#xf6;" horiz-adv-x="584" 
d="M256 -10q-64 0 -113 28.5t-76.5 79.5t-27.5 118q0 63 22.5 118t62 97t91.5 65.5t112 23.5q66 0 115 -28t76 -78.5t27 -117.5q0 -63 -23 -118.5t-63 -97.5t-92 -66t-111 -24zM260 58q41 0 78 18.5t65 51t44 75.5t16 92q0 72 -37.5 114.5t-102.5 42.5q-42 0 -78.5 -18
t-64 -50t-43.5 -74.5t-16 -91.5q0 -73 38 -116.5t101 -43.5zM444 626l21 94h92l-21 -94h-92zM215 626l21 94h92l-21 -94h-92z" />
    <glyph glyph-name="divide" unicode="&#xf7;" horiz-adv-x="531" 
d="M79 337l16 68h411l-16 -68h-411zM324 480q-23 0 -37.5 14.5t-14.5 37.5q0 26 18.5 45t44.5 19q23 0 38 -14.5t15 -37.5q0 -27 -18.5 -45.5t-45.5 -18.5zM247 147q-23 0 -37.5 14.5t-14.5 37.5q0 26 18.5 45t44.5 19q23 0 38 -14.5t15 -37.5q0 -27 -18.5 -45.5
t-45.5 -18.5z" />
    <glyph glyph-name="oslash" unicode="&#xf8;" horiz-adv-x="584" 
d="M256 -10q-64 0 -113 28.5t-76.5 79.5t-27.5 118q0 63 22.5 118t62 97t91.5 65.5t112 23.5q66 0 115 -28t76 -78.5t27 -117.5q0 -63 -23 -118.5t-63 -97.5t-92 -66t-111 -24zM260 58q41 0 78 18.5t65 51t44 75.5t16 92q0 72 -37.5 114.5t-102.5 42.5q-42 0 -78.5 -18
t-64 -50t-43.5 -74.5t-16 -91.5q0 -73 38 -116.5t101 -43.5zM16 -2l-31 45l583 469l31 -45z" />
    <glyph glyph-name="ugrave" unicode="&#xf9;" horiz-adv-x="589" 
d="M209 -10q-87 0 -129 55t-20 148l73 317h80l-72 -313q-16 -67 9.5 -103t82.5 -36q68 0 119.5 45.5t70.5 124.5l-15 -125q-38 -54 -90.5 -83.5t-108.5 -29.5zM375 0l28 120h-5l90 390h80l-118 -510h-75zM384 583l-133 157h113l87 -157h-67z" />
    <glyph glyph-name="uacute" unicode="&#xfa;" horiz-adv-x="589" 
d="M209 -10q-87 0 -129 55t-20 148l73 317h80l-72 -313q-16 -67 9.5 -103t82.5 -36q68 0 119.5 45.5t70.5 124.5l-15 -125q-38 -54 -90.5 -83.5t-108.5 -29.5zM375 0l28 120h-5l90 390h80l-118 -510h-75zM367 583h-76l139 157h133z" />
    <glyph glyph-name="ucircumflex" unicode="&#xfb;" horiz-adv-x="589" 
d="M209 -10q-87 0 -129 55t-20 148l73 317h80l-72 -313q-16 -67 9.5 -103t82.5 -36q68 0 119.5 45.5t70.5 124.5l-15 -125q-38 -54 -90.5 -83.5t-108.5 -29.5zM375 0l28 120h-5l90 390h80l-118 -510h-75zM186 583l178 157h86l106 -157h-67l-119 137h80l-181 -137h-83z" />
    <glyph glyph-name="udieresis" unicode="&#xfc;" horiz-adv-x="589" 
d="M209 -10q-87 0 -129 55t-20 148l73 317h80l-72 -313q-16 -67 9.5 -103t82.5 -36q68 0 119.5 45.5t70.5 124.5l-15 -125q-38 -54 -90.5 -83.5t-108.5 -29.5zM375 0l28 120h-5l90 390h80l-118 -510h-75zM449 626l21 94h92l-21 -94h-92zM220 626l21 94h92l-21 -94h-92z" />
    <glyph glyph-name="yacute" unicode="&#xfd;" horiz-adv-x="523" 
d="M11 -205l175 265l24 28l265 422h89l-461 -715h-92zM187 -5l-110 515h82l90 -461zM334 583h-76l139 157h133z" />
    <glyph glyph-name="thorn" unicode="&#xfe;" 
d="M290 -9q-51 0 -89 19.5t-59 54.5t-22 80l16 1l-82 -351h-80l213 925h80l-72 -312l-10 4q29 52 79.5 80t111.5 28q89 0 140 -56.5t51 -154.5q0 -66 -21.5 -123.5t-60 -101t-88.5 -68.5t-107 -25zM287 61q42 0 78 18.5t63 51t42 75.5t15 91q0 71 -34.5 112t-96.5 41
q-33 0 -63.5 -12t-55.5 -33.5t-44 -51t-29 -64.5t-10 -73q0 -72 37 -113.5t98 -41.5z" />
    <glyph glyph-name="ydieresis" unicode="&#xff;" horiz-adv-x="523" 
d="M11 -205l175 265l24 28l265 422h89l-461 -715h-92zM187 -5l-110 515h82l90 -461zM416 626l21 94h92l-21 -94h-92zM187 626l21 94h92l-21 -94h-92z" />
    <glyph glyph-name="Amacron" unicode="&#x100;" horiz-adv-x="728" 
d="M-23 0l442 720h78l-435 -720h-85zM553 0l-107 720h73l114 -720h-80zM181 291h376l-16 -72h-376zM319 852l14 58h346l-14 -58h-346z" />
    <glyph glyph-name="amacron" unicode="&#x101;" horiz-adv-x="533" 
d="M334 0q-1 11 2.5 33t9.5 50l-5 1l56 242q8 33 2.5 62t-30 46.5t-73.5 17.5q-55 0 -88.5 -22.5t-46.5 -67.5h-75q20 77 77 117.5t144 40.5q76 0 116.5 -28.5t51.5 -74.5t-1 -98l-54 -233q-4 -19 -7 -43t-2 -43h-77zM175 -10q-70 0 -112 37.5t-42 98.5q0 47 24 81
t70.5 55.5t115.5 29.5l182 21l-15 -65l-169 -19q-66 -7 -98 -31.5t-32 -67.5q0 -36 24.5 -54t71.5 -18q63 0 108 29t57 77l-3 -72q-28 -48 -75.5 -75t-106.5 -27zM175 642l14 58h346l-14 -58h-346z" />
    <glyph glyph-name="Abreve" unicode="&#x102;" horiz-adv-x="728" 
d="M-23 0l442 720h78l-435 -720h-85zM553 0l-107 720h73l114 -720h-80zM181 291h376l-16 -72h-376zM498 788q-39 0 -70.5 12.5t-52 35t-27.5 52t2 62.5h63q-8 -27 1 -48.5t32.5 -34t57.5 -12.5q46 0 74 24t37 71h65q-15 -76 -63 -119t-119 -43z" />
    <glyph glyph-name="abreve" unicode="&#x103;" horiz-adv-x="533" 
d="M334 0q-1 11 2.5 33t9.5 50l-5 1l56 242q8 33 2.5 62t-30 46.5t-73.5 17.5q-55 0 -88.5 -22.5t-46.5 -67.5h-75q20 77 77 117.5t144 40.5q76 0 116.5 -28.5t51.5 -74.5t-1 -98l-54 -233q-4 -19 -7 -43t-2 -43h-77zM175 -10q-70 0 -112 37.5t-42 98.5q0 47 24 81
t70.5 55.5t115.5 29.5l182 21l-15 -65l-169 -19q-66 -7 -98 -31.5t-32 -67.5q0 -36 24.5 -54t71.5 -18q63 0 108 29t57 77l-3 -72q-28 -48 -75.5 -75t-106.5 -27zM354 578q-39 0 -70.5 12.5t-52 35t-27.5 52t2 62.5h63q-8 -27 1 -48.5t32.5 -34t57.5 -12.5q46 0 74 24t37 71
h65q-15 -76 -63 -119t-119 -43z" />
    <glyph glyph-name="Aogonek" unicode="&#x104;" horiz-adv-x="728" 
d="M-23 0l442 720h78l-435 -720h-85zM553 0l-107 720h73l114 -720h-80zM181 291h376l-16 -72h-376zM530 -216q-38 0 -60 18.5t-22 51.5q0 44 44 88t119 78l22 -20q-60 -39 -91.5 -73t-31.5 -63q0 -13 7.5 -20.5t20.5 -7.5q16 0 30 11l22 -46q-15 -9 -29 -13t-31 -4z" />
    <glyph glyph-name="aogonek" unicode="&#x105;" horiz-adv-x="533" 
d="M334 0q-1 11 2.5 33t9.5 50l-5 1l56 242q8 33 2.5 62t-30 46.5t-73.5 17.5q-55 0 -88.5 -22.5t-46.5 -67.5h-75q20 77 77 117.5t144 40.5q76 0 116.5 -28.5t51.5 -74.5t-1 -98l-54 -233q-4 -19 -7 -43t-2 -43h-77zM175 -10q-70 0 -112 37.5t-42 98.5q0 47 24 81
t70.5 55.5t115.5 29.5l182 21l-15 -65l-169 -19q-66 -7 -98 -31.5t-32 -67.5q0 -36 24.5 -54t71.5 -18q63 0 108 29t57 77l-3 -72q-28 -48 -75.5 -75t-106.5 -27zM313 -216q-38 0 -60 18.5t-22 51.5q0 44 44 88t119 78l22 -20q-60 -39 -91.5 -73t-31.5 -63q0 -13 7.5 -20.5
t20.5 -7.5q16 0 30 11l22 -46q-15 -9 -29 -13t-31 -4z" />
    <glyph glyph-name="Cacute" unicode="&#x106;" horiz-adv-x="741" 
d="M364 -10q-87 0 -151.5 38.5t-100 107.5t-35.5 162q0 60 14.5 115t41.5 103.5t64 87.5t81.5 67.5t95.5 43.5t105 15q62 0 113 -19.5t87.5 -55t54 -84t12.5 -107.5h-81q2 44 -10 79.5t-36.5 60.5t-60.5 38t-83 13q-52 0 -99.5 -17t-87 -49t-68 -76t-44.5 -97.5t-16 -114.5
q0 -112 55.5 -174.5t155.5 -62.5q90 0 154 50.5t92 141.5h82q-24 -83 -72.5 -143t-115.5 -91.5t-147 -31.5zM490 793h-76l139 157h133z" />
    <glyph glyph-name="cacute" unicode="&#x107;" horiz-adv-x="533" 
d="M239 -11q-61 0 -106 27.5t-70 77t-25 115.5q0 52 14.5 98t41 85t62.5 67t79 43.5t91 15.5q41 0 75 -13t59 -36.5t39 -56t14 -71.5h-74q-1 34 -16 58t-41 37.5t-62 13.5q-34 0 -64 -12t-55 -34.5t-43 -52.5t-28 -67t-10 -78q0 -71 33 -110.5t93 -39.5q54 0 96 30t61 82h74
q-27 -82 -91.5 -130.5t-146.5 -48.5zM353 583h-76l139 157h133z" />
    <glyph glyph-name="Cdotaccent" unicode="&#x10a;" horiz-adv-x="741" 
d="M364 -10q-87 0 -151.5 38.5t-100 107.5t-35.5 162q0 60 14.5 115t41.5 103.5t64 87.5t81.5 67.5t95.5 43.5t105 15q62 0 113 -19.5t87.5 -55t54 -84t12.5 -107.5h-81q2 44 -10 79.5t-36.5 60.5t-60.5 38t-83 13q-52 0 -99.5 -17t-87 -49t-68 -76t-44.5 -97.5t-16 -114.5
q0 -112 55.5 -174.5t155.5 -62.5q90 0 154 50.5t92 141.5h82q-24 -83 -72.5 -143t-115.5 -91.5t-147 -31.5zM455 836l20 94h92l-20 -94h-92z" />
    <glyph glyph-name="cdotaccent" unicode="&#x10b;" horiz-adv-x="533" 
d="M239 -11q-61 0 -106 27.5t-70 77t-25 115.5q0 52 14.5 98t41 85t62.5 67t79 43.5t91 15.5q41 0 75 -13t59 -36.5t39 -56t14 -71.5h-74q-1 34 -16 58t-41 37.5t-62 13.5q-34 0 -64 -12t-55 -34.5t-43 -52.5t-28 -67t-10 -78q0 -71 33 -110.5t93 -39.5q54 0 96 30t61 82h74
q-27 -82 -91.5 -130.5t-146.5 -48.5zM318 626l20 94h92l-20 -94h-92z" />
    <glyph glyph-name="Ccaron" unicode="&#x10c;" horiz-adv-x="741" 
d="M364 -10q-87 0 -151.5 38.5t-100 107.5t-35.5 162q0 60 14.5 115t41.5 103.5t64 87.5t81.5 67.5t95.5 43.5t105 15q62 0 113 -19.5t87.5 -55t54 -84t12.5 -107.5h-81q2 44 -10 79.5t-36.5 60.5t-60.5 38t-83 13q-52 0 -99.5 -17t-87 -49t-68 -76t-44.5 -97.5t-16 -114.5
q0 -112 55.5 -174.5t155.5 -62.5q90 0 154 50.5t92 141.5h82q-24 -83 -72.5 -143t-115.5 -91.5t-147 -31.5zM451 793l-106 157h67l119 -137h-80l181 137h83l-178 -157h-86z" />
    <glyph glyph-name="ccaron" unicode="&#x10d;" horiz-adv-x="533" 
d="M239 -11q-61 0 -106 27.5t-70 77t-25 115.5q0 52 14.5 98t41 85t62.5 67t79 43.5t91 15.5q41 0 75 -13t59 -36.5t39 -56t14 -71.5h-74q-1 34 -16 58t-41 37.5t-62 13.5q-34 0 -64 -12t-55 -34.5t-43 -52.5t-28 -67t-10 -78q0 -71 33 -110.5t93 -39.5q54 0 96 30t61 82h74
q-27 -82 -91.5 -130.5t-146.5 -48.5zM314 583l-106 157h67l119 -137h-80l181 137h83l-178 -157h-86z" />
    <glyph glyph-name="Dcaron" unicode="&#x10e;" horiz-adv-x="752" 
d="M77 0l16 72h233q69 0 127 27t101 74t66.5 107t23.5 126q0 70 -27 124.5t-75.5 86t-114.5 31.5h-203l16 72h195q88 0 153.5 -40t102.5 -109.5t37 -158.5q0 -81 -30.5 -155.5t-85.5 -132t-129.5 -91t-161.5 -33.5h-244zM28 0l165 720h82l-165 -720h-82zM442 793l-106 157
h67l119 -137h-80l181 137h83l-178 -157h-86z" />
    <glyph glyph-name="dcaron" unicode="&#x10f;" horiz-adv-x="651" 
d="M392 0l24 102l5 -4q-29 -52 -79 -80t-112 -28q-89 0 -140 57t-51 154q0 66 21.5 123.5t60 101t88.5 68.5t107 25q51 0 89 -19.5t59.5 -54t21.5 -80.5l-16 -1l83 356h80l-166 -720h-75zM252 60q33 0 63.5 12t55.5 33.5t44 51t29 64.5t10 73q0 72 -36.5 113.5t-98.5 41.5
q-56 0 -101 -32t-71 -85.5t-26 -118.5q0 -70 35 -111.5t96 -41.5zM703 503h-50l50 217h76z" />
    <glyph glyph-name="Dcroat" unicode="&#x110;" horiz-adv-x="752" 
d="M16 326l16 68h377l-16 -68h-377zM77 0l16 72h233q69 0 127 27t101 74t66.5 107t23.5 126q0 70 -27 124.5t-75.5 86t-114.5 31.5h-203l16 72h195q88 0 153.5 -40t102.5 -109.5t37 -158.5q0 -81 -30.5 -155.5t-85.5 -132t-129.5 -91t-161.5 -33.5h-244zM28 0l165 720h82
l-165 -720h-82z" />
    <glyph glyph-name="dcroat" unicode="&#x111;" 
d="M349 595l14 58h335l-14 -58h-335zM392 0l24 102l5 -4q-29 -52 -79 -80t-112 -28q-89 0 -140 57t-51 154q0 66 21.5 123.5t60 101t88.5 68.5t107 25q51 0 89 -19.5t59.5 -54t21.5 -80.5l-16 -1l83 356h80l-166 -720h-75zM252 60q33 0 63.5 12t55.5 33.5t44 51t29 64.5
t10 73q0 72 -36.5 113.5t-98.5 41.5q-56 0 -101 -32t-71 -85.5t-26 -118.5q0 -70 35 -111.5t96 -41.5z" />
    <glyph glyph-name="Emacron" unicode="&#x112;" horiz-adv-x="638" 
d="M27 0l166 720h82l-166 -720h-82zM69 0l16 72h440l-16 -72h-440zM147 339l16 72h404l-16 -72h-404zM218 648l17 72h432l-17 -72h-432zM293 852l14 58h346l-14 -58h-346z" />
    <glyph glyph-name="emacron" unicode="&#x113;" horiz-adv-x="563" 
d="M256 -10q-65 0 -114 28t-76 78.5t-27 117.5q0 51 14.5 97t40.5 84t62 66t79 43.5t91 15.5q62 0 108.5 -25t72 -70t25.5 -105q0 -23 -4.5 -45.5t-14.5 -43.5h-413l15 67h363l-34 -54q9 37 8.5 73.5t-14 67t-41.5 49t-75 18.5q-33 0 -63 -12t-55 -33.5t-44 -51t-29 -65
t-10 -74.5q0 -74 39 -116t107 -42q46 0 80 20.5t58 62.5h76q-37 -76 -94 -113.5t-131 -37.5zM191 642l14 58h346l-14 -58h-346z" />
    <glyph glyph-name="Edotaccent" unicode="&#x116;" horiz-adv-x="638" 
d="M27 0l166 720h82l-166 -720h-82zM69 0l16 72h440l-16 -72h-440zM147 339l16 72h404l-16 -72h-404zM218 648l17 72h432l-17 -72h-432zM414 836l20 94h92l-20 -94h-92z" />
    <glyph glyph-name="edotaccent" unicode="&#x117;" horiz-adv-x="563" 
d="M256 -10q-65 0 -114 28t-76 78.5t-27 117.5q0 51 14.5 97t40.5 84t62 66t79 43.5t91 15.5q62 0 108.5 -25t72 -70t25.5 -105q0 -23 -4.5 -45.5t-14.5 -43.5h-413l15 67h363l-34 -54q9 37 8.5 73.5t-14 67t-41.5 49t-75 18.5q-33 0 -63 -12t-55 -33.5t-44 -51t-29 -65
t-10 -74.5q0 -74 39 -116t107 -42q46 0 80 20.5t58 62.5h76q-37 -76 -94 -113.5t-131 -37.5zM312 626l20 94h92l-20 -94h-92z" />
    <glyph glyph-name="Eogonek" unicode="&#x118;" horiz-adv-x="638" 
d="M27 0l166 720h82l-166 -720h-82zM69 0l16 72h440l-16 -72h-440zM147 339l16 72h404l-16 -72h-404zM218 648l17 72h432l-17 -72h-432zM376 -216q-38 0 -60 18.5t-22 51.5q0 44 44 88t119 78l22 -20q-60 -39 -91.5 -73t-31.5 -63q0 -13 7.5 -20.5t20.5 -7.5q16 0 30 11
l22 -46q-15 -9 -29 -13t-31 -4z" />
    <glyph glyph-name="eogonek" unicode="&#x119;" horiz-adv-x="563" 
d="M256 -10q-65 0 -114 28t-76 78.5t-27 117.5q0 51 14.5 97t40.5 84t62 66t79 43.5t91 15.5q62 0 108.5 -25t72 -70t25.5 -105q0 -23 -4.5 -45.5t-14.5 -43.5h-413l15 67h363l-34 -54q9 37 8.5 73.5t-14 67t-41.5 49t-75 18.5q-33 0 -63 -12t-55 -33.5t-44 -51t-29 -65
t-10 -74.5q0 -74 39 -116t107 -42q46 0 80 20.5t58 62.5h76q-37 -76 -94 -113.5t-131 -37.5zM251 -196q-38 0 -60 18.5t-22 51.5q0 44 44 88t119 78l22 -20q-60 -39 -91.5 -73t-31.5 -63q0 -13 7.5 -20.5t20.5 -7.5q16 0 30 11l22 -46q-15 -9 -29 -13t-31 -4z" />
    <glyph glyph-name="Ecaron" unicode="&#x11a;" horiz-adv-x="638" 
d="M27 0l166 720h82l-166 -720h-82zM69 0l16 72h440l-16 -72h-440zM147 339l16 72h404l-16 -72h-404zM218 648l17 72h432l-17 -72h-432zM410 793l-106 157h67l119 -137h-80l181 137h83l-178 -157h-86z" />
    <glyph glyph-name="ecaron" unicode="&#x11b;" horiz-adv-x="563" 
d="M256 -10q-65 0 -114 28t-76 78.5t-27 117.5q0 51 14.5 97t40.5 84t62 66t79 43.5t91 15.5q62 0 108.5 -25t72 -70t25.5 -105q0 -23 -4.5 -45.5t-14.5 -43.5h-413l15 67h363l-34 -54q9 37 8.5 73.5t-14 67t-41.5 49t-75 18.5q-33 0 -63 -12t-55 -33.5t-44 -51t-29 -65
t-10 -74.5q0 -74 39 -116t107 -42q46 0 80 20.5t58 62.5h76q-37 -76 -94 -113.5t-131 -37.5zM308 583l-106 157h67l119 -137h-80l181 137h83l-178 -157h-86z" />
    <glyph glyph-name="Gbreve" unicode="&#x11e;" horiz-adv-x="765" 
d="M359 -10q-87 0 -151.5 38.5t-100 108t-35.5 163.5q0 71 21 135.5t58.5 118.5t88 93.5t109.5 61t123 21.5q61 0 110.5 -17.5t85 -49.5t55 -75t20.5 -94h-82q-3 38 -17.5 67.5t-39 50.5t-58.5 32t-76 11q-52 0 -99.5 -17t-87 -49t-68 -76t-44.5 -97.5t-16 -114.5
q0 -112 55.5 -174.5t155.5 -62.5q74 0 132 22t92 63l73 -33q-50 -56 -125 -91t-179 -35zM581 116l51 223l23 -31h-228l18 72h279l-61 -264h-82zM531 788q-39 0 -70.5 12.5t-52 35t-27.5 52t2 62.5h63q-8 -27 1 -48.5t32.5 -34t57.5 -12.5q46 0 74 24t37 71h65
q-15 -76 -63 -119t-119 -43z" />
    <glyph glyph-name="gbreve" unicode="&#x11f;" 
d="M210 -215q-64 0 -112.5 19t-76.5 54t-32 82h74q10 -48 50.5 -67.5t97.5 -19.5q65 0 112.5 38t64.5 112l23 99l5 -13q-30 -48 -78.5 -73.5t-107.5 -25.5q-89 0 -140 57t-51 154q0 66 21.5 123.5t60 101t88.5 68.5t107 25q49 0 86 -18t59 -50t25 -74l-10 -10l34 143h75
l-119 -515q-23 -100 -90.5 -155t-165.5 -55zM252 60q33 0 63.5 12t55.5 33.5t44 51t29 64.5t10 73q0 72 -36.5 113.5t-98.5 41.5q-56 0 -101 -32t-71 -85.5t-26 -118.5q0 -70 35 -111.5t96 -41.5zM377 578q-39 0 -70.5 12.5t-52 35t-27.5 52t2 62.5h63q-8 -27 1 -48.5
t32.5 -34t57.5 -12.5q46 0 74 24t37 71h65q-15 -76 -63 -119t-119 -43z" />
    <glyph glyph-name="Gdotaccent" unicode="&#x120;" horiz-adv-x="765" 
d="M359 -10q-87 0 -151.5 38.5t-100 108t-35.5 163.5q0 71 21 135.5t58.5 118.5t88 93.5t109.5 61t123 21.5q61 0 110.5 -17.5t85 -49.5t55 -75t20.5 -94h-82q-3 38 -17.5 67.5t-39 50.5t-58.5 32t-76 11q-52 0 -99.5 -17t-87 -49t-68 -76t-44.5 -97.5t-16 -114.5
q0 -112 55.5 -174.5t155.5 -62.5q74 0 132 22t92 63l73 -33q-50 -56 -125 -91t-179 -35zM581 116l51 223l23 -31h-228l18 72h279l-61 -264h-82zM473 836l20 94h92l-20 -94h-92z" />
    <glyph glyph-name="gdotaccent" unicode="&#x121;" 
d="M210 -215q-64 0 -112.5 19t-76.5 54t-32 82h74q10 -48 50.5 -67.5t97.5 -19.5q65 0 112.5 38t64.5 112l23 99l5 -13q-30 -48 -78.5 -73.5t-107.5 -25.5q-89 0 -140 57t-51 154q0 66 21.5 123.5t60 101t88.5 68.5t107 25q49 0 86 -18t59 -50t25 -74l-10 -10l34 143h75
l-119 -515q-23 -100 -90.5 -155t-165.5 -55zM252 60q33 0 63.5 12t55.5 33.5t44 51t29 64.5t10 73q0 72 -36.5 113.5t-98.5 41.5q-56 0 -101 -32t-71 -85.5t-26 -118.5q0 -70 35 -111.5t96 -41.5zM319 626l20 94h92l-20 -94h-92z" />
    <glyph glyph-name="uni0122" unicode="&#x122;" horiz-adv-x="765" 
d="M359 -10q-87 0 -151.5 38.5t-100 108t-35.5 163.5q0 71 21 135.5t58.5 118.5t88 93.5t109.5 61t123 21.5q61 0 110.5 -17.5t85 -49.5t55 -75t20.5 -94h-82q-3 38 -17.5 67.5t-39 50.5t-58.5 32t-76 11q-52 0 -99.5 -17t-87 -49t-68 -76t-44.5 -97.5t-16 -114.5
q0 -112 55.5 -174.5t155.5 -62.5q74 0 132 22t92 63l73 -33q-50 -56 -125 -91t-179 -35zM581 116l51 223l23 -31h-228l18 72h279l-61 -264h-82zM218 -296l9 41q30 11 51 32t28 54l28 -5h-88l23 102h105l-20 -88q-12 -51 -45 -85t-91 -51z" />
    <glyph glyph-name="uni0123" unicode="&#x123;" 
d="M210 -215q-64 0 -112.5 19t-76.5 54t-32 82h74q10 -48 50.5 -67.5t97.5 -19.5q65 0 112.5 38t64.5 112l23 99l5 -13q-30 -48 -78.5 -73.5t-107.5 -25.5q-89 0 -140 57t-51 154q0 66 21.5 123.5t60 101t88.5 68.5t107 25q49 0 86 -18t59 -50t25 -74l-10 -10l34 143h75
l-119 -515q-23 -100 -90.5 -155t-165.5 -55zM252 60q33 0 63.5 12t55.5 33.5t44 51t29 64.5t10 73q0 72 -36.5 113.5t-98.5 41.5q-56 0 -101 -32t-71 -85.5t-26 -118.5q0 -70 35 -111.5t96 -41.5zM304 581l20 88q13 56 50 91.5t87 44.5l-10 -41q-29 -11 -49.5 -32t-28.5 -54
l-28 5h88l-24 -102h-105z" />
    <glyph glyph-name="Hbar" unicode="&#x126;" horiz-adv-x="736" 
d="M66 541l16 68h736l-16 -68h-736zM28 0l165 720h82l-165 -720h-82zM509 0l165 720h82l-165 -720h-82zM164 411h476l-16 -72h-476z" />
    <glyph glyph-name="hbar" unicode="&#x127;" horiz-adv-x="599" 
d="M78 595l14 58h335l-14 -58h-335zM21 0l166 720h80l-166 -720h-80zM386 0l72 313q16 68 -10 103.5t-86 35.5q-71 0 -123.5 -45.5t-72.5 -124.5l15 125q39 54 92.5 83.5t112.5 29.5q90 0 132 -55t21 -148l-73 -317h-80z" />
    <glyph glyph-name="Imacron" unicode="&#x12a;" horiz-adv-x="254" 
d="M27 0l166 720h82l-166 -720h-82zM91 852l14 58h346l-14 -58h-346z" />
    <glyph glyph-name="imacron" unicode="&#x12b;" horiz-adv-x="241" 
d="M22 0l117 510h80l-117 -510h-80zM36 642l14 58h346l-14 -58h-346z" />
    <glyph glyph-name="Iogonek" unicode="&#x12e;" horiz-adv-x="254" 
d="M27 0l166 720h82l-166 -720h-82zM-14 -216q-38 0 -60 18.5t-22 51.5q0 44 44 88t119 78l22 -20q-60 -39 -91.5 -73t-31.5 -63q0 -13 7.5 -20.5t20.5 -7.5q16 0 30 11l22 -46q-15 -9 -29 -13t-31 -4z" />
    <glyph glyph-name="iogonek" unicode="&#x12f;" horiz-adv-x="241" 
d="M22 0l117 510h80l-117 -510h-80zM157 626l20 94h92l-20 -94h-92zM-1 -216q-38 0 -60 18.5t-22 51.5q0 44 44 88t119 78l22 -20q-60 -39 -91.5 -73t-31.5 -63q0 -13 7.5 -20.5t20.5 -7.5q16 0 30 11l22 -46q-15 -9 -29 -13t-31 -4z" />
    <glyph glyph-name="Idotaccent" unicode="&#x130;" horiz-adv-x="254" 
d="M27 0l166 720h82l-166 -720h-82zM212 836l20 94h92l-20 -94h-92z" />
    <glyph glyph-name="dotlessi" unicode="&#x131;" horiz-adv-x="241" 
d="M22 0l117 510h80l-117 -510h-80z" />
    <glyph glyph-name="IJ" unicode="&#x132;" horiz-adv-x="709" 
d="M27 0l166 720h82l-166 -720h-82zM347 -10q-45 0 -80 5.5t-49 13.5l17 76q22 -10 55 -16.5t76 -6.5q65 0 108.5 34.5t62.5 115.5l117 508h82l-118 -512q-26 -114 -92.5 -166t-178.5 -52z" />
    <glyph glyph-name="ij" unicode="&#x133;" horiz-adv-x="478" 
d="M22 0l117 510h80l-117 -510h-80zM157 626l20 94h92l-20 -94h-92zM176 -215q-14 0 -37.5 3t-40.5 11l14 62q8 -4 24.5 -8t32.5 -4q31 0 47 16t23 46l138 599h80l-141 -611q-13 -55 -46.5 -84.5t-93.5 -29.5zM395 626l20 94h92l-20 -94h-92z" />
    <glyph glyph-name="uni0136" unicode="&#x136;" horiz-adv-x="692" 
d="M27 0l166 720h82l-166 -720h-82zM173 372l455 348h127l-462 -346zM502 0l-315 383l106 -9l316 -374h-107zM176 -296l9 41q30 11 51 32t28 54l28 -5h-88l23 102h105l-20 -88q-12 -51 -45 -85t-91 -51z" />
    <glyph glyph-name="uni0137" unicode="&#x137;" horiz-adv-x="535" 
d="M21 0l171 740h80l-171 -740h-80zM365 0l-221 265l308 245h120l-345 -268l-5 47l242 -289h-99zM108 -296l9 41q30 11 51 32t28 54l28 -5h-88l23 102h105l-20 -88q-12 -51 -45 -85t-91 -51z" />
    <glyph glyph-name="Lacute" unicode="&#x139;" horiz-adv-x="588" 
d="M27 0l166 720h82l-166 -720h-82zM69 0l16 72h410l-16 -72h-410zM246 793h-76l139 157h133z" />
    <glyph glyph-name="lacute" unicode="&#x13a;" horiz-adv-x="240" 
d="M21 0l166 720h80l-166 -720h-80zM240 793h-76l139 157h133z" />
    <glyph glyph-name="uni013B" unicode="&#x13b;" horiz-adv-x="588" 
d="M27 0l166 720h82l-166 -720h-82zM69 0l16 72h410l-16 -72h-410zM151 -296l9 41q30 11 51 32t28 54l28 -5h-88l23 102h105l-20 -88q-12 -51 -45 -85t-91 -51z" />
    <glyph glyph-name="uni013C" unicode="&#x13c;" horiz-adv-x="240" 
d="M21 0l166 720h80l-166 -720h-80zM-60 -296l9 41q30 11 51 32t28 54l28 -5h-88l23 102h105l-20 -88q-12 -51 -45 -85t-91 -51z" />
    <glyph glyph-name="Lcaron" unicode="&#x13d;" horiz-adv-x="588" 
d="M27 0l166 720h82l-166 -720h-82zM69 0l16 72h410l-16 -72h-410zM497 503h-50l50 217h76z" />
    <glyph glyph-name="lcaron" unicode="&#x13e;" horiz-adv-x="285" 
d="M21 0l166 720h80l-166 -720h-80zM337 503h-50l50 217h76z" />
    <glyph glyph-name="Lslash" unicode="&#x141;" horiz-adv-x="588" 
d="M155 345l-146 -53l15 64l143 52zM168 412l201 74l-15 -64l-198 -73zM27 0l166 720h82l-166 -720h-82zM69 0l16 72h410l-16 -72h-410z" />
    <glyph glyph-name="lslash" unicode="&#x142;" horiz-adv-x="260" 
d="M155 345l-146 -53l15 64l143 52zM168 412l140 52l-15 -64l-137 -51zM31 0l166 720h80l-166 -720h-80z" />
    <glyph glyph-name="Nacute" unicode="&#x143;" horiz-adv-x="736" 
d="M27 0l166 720h80l273 -606l-7 -2l140 608h78l-166 -720h-81l-273 606l8 2l-140 -608h-78zM475 793h-76l139 157h133z" />
    <glyph glyph-name="nacute" unicode="&#x144;" horiz-adv-x="599" 
d="M22 0l117 510h75l-27 -120h5l-90 -390h-80zM386 0l72 313q16 68 -10 103.5t-86 35.5q-71 0 -123.5 -45.5t-71.5 -124.5l15 125q38 54 91.5 83.5t112.5 29.5q90 0 132 -55t21 -148l-73 -317h-80zM402 583h-76l139 157h133z" />
    <glyph glyph-name="uni0145" unicode="&#x145;" horiz-adv-x="736" 
d="M27 0l166 720h80l273 -606l-7 -2l140 608h78l-166 -720h-81l-273 606l8 2l-140 -608h-78zM188 -296l9 41q30 11 51 32t28 54l28 -5h-88l23 102h105l-20 -88q-12 -51 -45 -85t-91 -51z" />
    <glyph glyph-name="uni0146" unicode="&#x146;" horiz-adv-x="599" 
d="M22 0l117 510h75l-27 -120h5l-90 -390h-80zM386 0l72 313q16 68 -10 103.5t-86 35.5q-71 0 -123.5 -45.5t-71.5 -124.5l15 125q38 54 91.5 83.5t112.5 29.5q90 0 132 -55t21 -148l-73 -317h-80zM137 -296l9 41q30 11 51 32t28 54l28 -5h-88l23 102h105l-20 -88
q-12 -51 -45 -85t-91 -51z" />
    <glyph glyph-name="Ncaron" unicode="&#x147;" horiz-adv-x="736" 
d="M27 0l166 720h80l273 -606l-7 -2l140 608h78l-166 -720h-81l-273 606l8 2l-140 -608h-78zM436 793l-106 157h67l119 -137h-80l181 137h83l-178 -157h-86z" />
    <glyph glyph-name="ncaron" unicode="&#x148;" horiz-adv-x="599" 
d="M22 0l117 510h75l-27 -120h5l-90 -390h-80zM386 0l72 313q16 68 -10 103.5t-86 35.5q-71 0 -123.5 -45.5t-71.5 -124.5l15 125q38 54 91.5 83.5t112.5 29.5q90 0 132 -55t21 -148l-73 -317h-80zM363 583l-106 157h67l119 -137h-80l181 137h83l-178 -157h-86z" />
    <glyph glyph-name="Eng" unicode="&#x14a;" horiz-adv-x="736" 
d="M27 0l166 720h81l281 -606l-16 -2l140 608h78l-166 -720h-73l-281 606l8 2l-140 -608h-78zM397 -215q-34 0 -52.5 3.5t-26.5 6.5l18 71q9 -3 26.5 -6t45.5 -3q39 0 58.5 18.5t29.5 62.5l20 87l75 -25l-15 -67q-16 -70 -55 -109t-124 -39z" />
    <glyph glyph-name="eng" unicode="&#x14b;" horiz-adv-x="599" 
d="M302 -215q-14 0 -37.5 3t-40.5 11l14 62q8 -4 24.5 -8t32.5 -4q31 0 47 16t23 46l93 402q16 68 -10 103.5t-86 35.5q-71 0 -123.5 -45.5t-71.5 -124.5l15 125q38 54 91.5 83.5t112.5 29.5q90 0 132.5 -55t20.5 -148l-97 -418q-13 -55 -46.5 -84.5t-93.5 -29.5zM22 0
l117 510h75l-27 -120h5l-90 -390h-80z" />
    <glyph glyph-name="Omacron" unicode="&#x14c;" horiz-adv-x="786" 
d="M365 -10q-86 0 -151.5 40.5t-102.5 112t-37 164.5q0 86 31 162.5t86 135t126 92t152 33.5q88 0 153.5 -39.5t102.5 -110t37 -163.5q0 -86 -31.5 -163t-86.5 -136.5t-126.5 -93.5t-152.5 -34zM370 64q62 0 117.5 27.5t98.5 76t67.5 112t24.5 134.5q0 73 -27 127
t-75.5 84.5t-114.5 30.5q-62 0 -116.5 -27t-96.5 -75t-65.5 -111t-23.5 -135q0 -73 26.5 -128t74 -85.5t110.5 -30.5zM358 852l14 58h346l-14 -58h-346z" />
    <glyph glyph-name="omacron" unicode="&#x14d;" horiz-adv-x="584" 
d="M256 -10q-64 0 -113 28.5t-76.5 79.5t-27.5 118q0 63 22.5 118t62 97t91.5 65.5t112 23.5q66 0 115 -28t76 -78.5t27 -117.5q0 -63 -23 -118.5t-63 -97.5t-92 -66t-111 -24zM260 58q41 0 78 18.5t65 51t44 75.5t16 92q0 72 -37.5 114.5t-102.5 42.5q-42 0 -78.5 -18
t-64 -50t-43.5 -74.5t-16 -91.5q0 -73 38 -116.5t101 -43.5zM206 642l14 58h346l-14 -58h-346z" />
    <glyph glyph-name="Ohungarumlaut" unicode="&#x150;" horiz-adv-x="786" 
d="M365 -10q-86 0 -151.5 40.5t-102.5 112t-37 164.5q0 86 31 162.5t86 135t126 92t152 33.5q88 0 153.5 -39.5t102.5 -110t37 -163.5q0 -86 -31.5 -163t-86.5 -136.5t-126.5 -93.5t-152.5 -34zM370 64q62 0 117.5 27.5t98.5 76t67.5 112t24.5 134.5q0 73 -27 127
t-75.5 84.5t-114.5 30.5q-62 0 -116.5 -27t-96.5 -75t-65.5 -111t-23.5 -135q0 -73 26.5 -128t74 -85.5t110.5 -30.5zM435 793h-66l79 157h106zM635 793h-66l79 157h106z" />
    <glyph glyph-name="ohungarumlaut" unicode="&#x151;" horiz-adv-x="584" 
d="M256 -10q-64 0 -113 28.5t-76.5 79.5t-27.5 118q0 63 22.5 118t62 97t91.5 65.5t112 23.5q66 0 115 -28t76 -78.5t27 -117.5q0 -63 -23 -118.5t-63 -97.5t-92 -66t-111 -24zM260 58q41 0 78 18.5t65 51t44 75.5t16 92q0 72 -37.5 114.5t-102.5 42.5q-42 0 -78.5 -18
t-64 -50t-43.5 -74.5t-16 -91.5q0 -73 38 -116.5t101 -43.5zM283 583h-66l79 157h106zM483 583h-66l79 157h106z" />
    <glyph glyph-name="OE" unicode="&#x152;" horiz-adv-x="1065" 
d="M377 -10q-97 0 -165 41.5t-103 113t-35 162.5q0 69 20 132t59 116t95 92.5t128.5 61t159.5 21.5q38 0 76 -4t60 -12l-18 -80q-15 10 -55 16t-81 6q-68 0 -124.5 -17t-100 -48.5t-74 -74t-46 -94t-15.5 -107.5q0 -112 58 -181.5t174 -69.5q25 0 52.5 3t50.5 8t35 11
l-19 -80q-29 -8 -66 -12t-66 -4zM474 0l166 720h454l-17 -72h-372l-55 -237h344l-16 -72h-344l-62 -267h380l-16 -72h-462z" />
    <glyph glyph-name="oe" unicode="&#x153;" horiz-adv-x="946" 
d="M246 -10q-59 0 -106 28.5t-74 79.5t-27 118q0 63 22 118t61 97t89 65.5t106 23.5q61 0 107.5 -28t73.5 -78.5t27 -117.5q0 -63 -22.5 -118.5t-62 -97.5t-89.5 -66t-105 -24zM250 58q38 0 72.5 18.5t61.5 51t43 75.5t16 92q0 72 -36.5 114.5t-93.5 42.5q-38 0 -72.5 -18
t-61.5 -50t-42.5 -74.5t-15.5 -91.5q0 -73 37 -116.5t92 -43.5zM649 -10q-60 0 -107 28t-73.5 78.5t-26.5 117.5q0 51 14.5 97t40 84t60.5 66t76 43.5t86 15.5q57 0 101.5 -25t69.5 -70t25 -105q0 -23 -4.5 -45.5t-14.5 -43.5h-393l15 67h343l-34 -54q9 37 8.5 73.5t-13 67
t-38.5 49t-69 18.5q-30 0 -58 -12t-52 -33.5t-42.5 -51t-28.5 -65t-10 -74.5q0 -74 37.5 -116t98.5 -42q41 0 74 20.5t54 62.5h76q-34 -76 -89.5 -113.5t-125.5 -37.5z" />
    <glyph glyph-name="Racute" unicode="&#x154;" horiz-adv-x="656" 
d="M27 0l166 720h268q66 0 110.5 -24t67 -66t21.5 -96q-1 -65 -34.5 -114t-93 -76t-140.5 -27h-232l17 72h232q51 0 89 18t59 50.5t21 73.5q1 52 -32.5 84.5t-102.5 32.5h-185l-149 -648h-82zM461 0l-301 357h100l313 -357h-112zM448 793h-76l139 157h133z" />
    <glyph glyph-name="racute" unicode="&#x155;" horiz-adv-x="375" 
d="M21 0l118 510h75l-30 -130h5l-88 -380h-80zM166 283l14 122q26 51 74.5 83t107.5 32q17 0 29 -2.5t19 -5.5l-18 -77q-8 3 -24.5 5.5t-31.5 2.5q-65 0 -109 -41t-61 -119zM287 583h-76l139 157h133z" />
    <glyph glyph-name="uni0156" unicode="&#x156;" horiz-adv-x="656" 
d="M27 0l166 720h268q66 0 110.5 -24t67 -66t21.5 -96q-1 -65 -34.5 -114t-93 -76t-140.5 -27h-232l17 72h232q51 0 89 18t59 50.5t21 73.5q1 52 -32.5 84.5t-102.5 32.5h-185l-149 -648h-82zM461 0l-301 357h100l313 -357h-112zM148 -296l9 41q30 11 51 32t28 54l28 -5h-88
l23 102h105l-20 -88q-12 -51 -45 -85t-91 -51z" />
    <glyph glyph-name="uni0157" unicode="&#x157;" horiz-adv-x="375" 
d="M21 0l118 510h75l-30 -130h5l-88 -380h-80zM166 283l14 122q26 51 74.5 83t107.5 32q17 0 29 -2.5t19 -5.5l-18 -77q-8 3 -24.5 5.5t-31.5 2.5q-65 0 -109 -41t-61 -119zM-60 -296l9 41q30 11 51 32t28 54l28 -5h-88l23 102h105l-20 -88q-12 -51 -45 -85t-91 -51z" />
    <glyph glyph-name="Rcaron" unicode="&#x158;" horiz-adv-x="656" 
d="M27 0l166 720h268q66 0 110.5 -24t67 -66t21.5 -96q-1 -65 -34.5 -114t-93 -76t-140.5 -27h-232l17 72h232q51 0 89 18t59 50.5t21 73.5q1 52 -32.5 84.5t-102.5 32.5h-185l-149 -648h-82zM461 0l-301 357h100l313 -357h-112zM409 793l-106 157h67l119 -137h-80l181 137
h83l-178 -157h-86z" />
    <glyph glyph-name="rcaron" unicode="&#x159;" horiz-adv-x="375" 
d="M21 0l118 510h75l-30 -130h5l-88 -380h-80zM166 283l14 122q26 51 74.5 83t107.5 32q17 0 29 -2.5t19 -5.5l-18 -77q-8 3 -24.5 5.5t-31.5 2.5q-65 0 -109 -41t-61 -119zM248 583l-106 157h67l119 -137h-80l181 137h83l-178 -157h-86z" />
    <glyph glyph-name="Sacute" unicode="&#x15a;" horiz-adv-x="608" 
d="M302 -9q-61 0 -110 17t-83.5 49t-53 76.5t-18.5 99.5h80q0 -40 13 -71.5t37.5 -53.5t60 -33.5t80.5 -11.5q76 0 117.5 33t41.5 91q0 39 -20.5 66t-64.5 49l-109 55q-73 37 -105.5 78t-32.5 98q0 60 31 105t86 70.5t126 25.5q54 0 96 -14.5t71.5 -43t45.5 -69t17 -93.5
h-79q-1 49 -19 82t-53 49.5t-87 16.5q-48 0 -82.5 -14t-53 -40t-18.5 -64q0 -34 20.5 -60t67.5 -49l116 -58q65 -32 96 -75t31 -104q0 -62 -30 -108.5t-85 -72.5t-130 -26zM408 793h-76l139 157h133z" />
    <glyph glyph-name="sacute" unicode="&#x15b;" horiz-adv-x="467" 
d="M217 -10q-61 0 -107 21t-71 58.5t-23 87.5h77q1 -31 17.5 -53.5t45 -35t65.5 -12.5q50 0 80.5 22t30.5 59q0 25 -16 41.5t-51 30.5l-73 31q-55 23 -81.5 53.5t-26.5 73.5q0 45 24 79.5t65.5 54t95.5 19.5q53 0 94 -19t64.5 -52.5t24.5 -79.5h-76q-3 27 -17.5 46t-39 29
t-58.5 10q-45 0 -72 -20t-27 -55q0 -23 16 -39.5t51 -31.5l71 -30q56 -24 82.5 -56t26.5 -76q0 -47 -23.5 -82.5t-66.5 -54.5t-102 -19zM312 583h-76l139 157h133z" />
    <glyph glyph-name="Scedilla" unicode="&#x15e;" horiz-adv-x="608" 
d="M302 -9q-61 0 -110 17t-83.5 49t-53 76.5t-18.5 99.5h80q0 -40 13 -71.5t37.5 -53.5t60 -33.5t80.5 -11.5q76 0 117.5 33t41.5 91q0 39 -20.5 66t-64.5 49l-109 55q-73 37 -105.5 78t-32.5 98q0 60 31 105t86 70.5t126 25.5q54 0 96 -14.5t71.5 -43t45.5 -69t17 -93.5
h-79q-1 49 -19 82t-53 49.5t-87 16.5q-48 0 -82.5 -14t-53 -40t-18.5 -64q0 -34 20.5 -60t67.5 -49l116 -58q65 -32 96 -75t31 -104q0 -62 -30 -108.5t-85 -72.5t-130 -26zM232 -215q-36 0 -64 10.5t-43 30.5t-13 48h55q-1 -17 18.5 -27t46.5 -10q20 0 36.5 8.5t16.5 25.5
q0 14 -14.5 25t-66.5 21l47 95h57l-30 -60q36 -10 51 -32t15 -48q0 -41 -32.5 -64t-79.5 -23z" />
    <glyph glyph-name="scedilla" unicode="&#x15f;" horiz-adv-x="467" 
d="M217 -10q-61 0 -107 21t-71 58.5t-23 87.5h77q1 -31 17.5 -53.5t45 -35t65.5 -12.5q50 0 80.5 22t30.5 59q0 25 -16 41.5t-51 30.5l-73 31q-55 23 -81.5 53.5t-26.5 73.5q0 45 24 79.5t65.5 54t95.5 19.5q53 0 94 -19t64.5 -52.5t24.5 -79.5h-76q-3 27 -17.5 46t-39 29
t-58.5 10q-45 0 -72 -20t-27 -55q0 -23 16 -39.5t51 -31.5l71 -30q56 -24 82.5 -56t26.5 -76q0 -47 -23.5 -82.5t-66.5 -54.5t-102 -19zM154 -215q-36 0 -64 10.5t-43 30.5t-13 48h55q-1 -17 18.5 -27t46.5 -10q20 0 36.5 8.5t16.5 25.5q0 14 -14.5 25t-66.5 21l47 95h57
l-30 -60q36 -10 51 -32t15 -48q0 -41 -32.5 -64t-79.5 -23z" />
    <glyph glyph-name="Scaron" unicode="&#x160;" horiz-adv-x="608" 
d="M302 -9q-61 0 -110 17t-83.5 49t-53 76.5t-18.5 99.5h80q0 -40 13 -71.5t37.5 -53.5t60 -33.5t80.5 -11.5q76 0 117.5 33t41.5 91q0 39 -20.5 66t-64.5 49l-109 55q-73 37 -105.5 78t-32.5 98q0 60 31 105t86 70.5t126 25.5q54 0 96 -14.5t71.5 -43t45.5 -69t17 -93.5
h-79q-1 49 -19 82t-53 49.5t-87 16.5q-48 0 -82.5 -14t-53 -40t-18.5 -64q0 -34 20.5 -60t67.5 -49l116 -58q65 -32 96 -75t31 -104q0 -62 -30 -108.5t-85 -72.5t-130 -26zM369 793l-106 157h67l119 -137h-80l181 137h83l-178 -157h-86z" />
    <glyph glyph-name="scaron" unicode="&#x161;" horiz-adv-x="467" 
d="M217 -10q-61 0 -107 21t-71 58.5t-23 87.5h77q1 -31 17.5 -53.5t45 -35t65.5 -12.5q50 0 80.5 22t30.5 59q0 25 -16 41.5t-51 30.5l-73 31q-55 23 -81.5 53.5t-26.5 73.5q0 45 24 79.5t65.5 54t95.5 19.5q53 0 94 -19t64.5 -52.5t24.5 -79.5h-76q-3 27 -17.5 46t-39 29
t-58.5 10q-45 0 -72 -20t-27 -55q0 -23 16 -39.5t51 -31.5l71 -30q56 -24 82.5 -56t26.5 -76q0 -47 -23.5 -82.5t-66.5 -54.5t-102 -19zM273 583l-106 157h67l119 -137h-80l181 137h83l-178 -157h-86z" />
    <glyph glyph-name="Tcaron" unicode="&#x164;" horiz-adv-x="648" 
d="M224 0l149 648h-247l17 72h577l-17 -72h-248l-149 -648h-82zM405 793l-106 157h67l119 -137h-80l181 137h83l-178 -157h-86z" />
    <glyph glyph-name="tcaron" unicode="&#x165;" horiz-adv-x="377" 
d="M227 -9q-85 0 -115 43.5t-13 116.5l110 478l87 30l-120 -520q-9 -41 8.5 -60.5t66.5 -19.5q20 0 34.5 2.5t24.5 6.5l-15 -68q-11 -4 -28 -6.5t-40 -2.5zM61 442l15 68h336l-15 -68h-336zM425 563h-50l50 217h76z" />
    <glyph glyph-name="Umacron" unicode="&#x16a;" horiz-adv-x="712" 
d="M328 -10q-93 0 -153.5 41t-81.5 115.5t2 174.5l92 399h82l-95 -411q-16 -69 -6.5 -124.5t50 -88t117.5 -32.5q88 0 141.5 52t76.5 152l104 452h82l-105 -457q-31 -133 -108.5 -203t-197.5 -70zM320 852l14 58h346l-14 -58h-346z" />
    <glyph glyph-name="umacron" unicode="&#x16b;" horiz-adv-x="589" 
d="M209 -10q-87 0 -129 55t-20 148l73 317h80l-72 -313q-16 -67 9.5 -103t82.5 -36q68 0 119.5 45.5t70.5 124.5l-15 -125q-38 -54 -90.5 -83.5t-108.5 -29.5zM375 0l28 120h-5l90 390h80l-118 -510h-75zM211 642l14 58h346l-14 -58h-346z" />
    <glyph glyph-name="Ubreve" unicode="&#x16c;" horiz-adv-x="712" 
d="M328 -10q-93 0 -153.5 41t-81.5 115.5t2 174.5l92 399h82l-95 -411q-16 -69 -6.5 -124.5t50 -88t117.5 -32.5q88 0 141.5 52t76.5 152l104 452h82l-105 -457q-31 -133 -108.5 -203t-197.5 -70zM499 788q-39 0 -70.5 12.5t-52 35t-27.5 52t2 62.5h63q-8 -27 1 -48.5
t32.5 -34t57.5 -12.5q46 0 74 24t37 71h65q-15 -76 -63 -119t-119 -43z" />
    <glyph glyph-name="ubreve" unicode="&#x16d;" horiz-adv-x="589" 
d="M209 -10q-87 0 -129 55t-20 148l73 317h80l-72 -313q-16 -67 9.5 -103t82.5 -36q68 0 119.5 45.5t70.5 124.5l-15 -125q-38 -54 -90.5 -83.5t-108.5 -29.5zM375 0l28 120h-5l90 390h80l-118 -510h-75zM390 578q-39 0 -70.5 12.5t-52 35t-27.5 52t2 62.5h63
q-8 -27 1 -48.5t32.5 -34t57.5 -12.5q46 0 74 24t37 71h65q-15 -76 -63 -119t-119 -43z" />
    <glyph glyph-name="Uring" unicode="&#x16e;" horiz-adv-x="712" 
d="M328 -10q-93 0 -153.5 41t-81.5 115.5t2 174.5l92 399h82l-95 -411q-16 -69 -6.5 -124.5t50 -88t117.5 -32.5q88 0 141.5 52t76.5 152l104 452h82l-105 -457q-31 -133 -108.5 -203t-197.5 -70zM488 771q-41 0 -69 27.5t-28 68.5q0 33 16 60t42.5 43t57.5 16
q42 0 70 -27.5t28 -68.5q0 -31 -16.5 -58.5t-43 -44t-57.5 -16.5zM492 821q25 0 43 19.5t18 45.5q0 22 -14.5 36.5t-35.5 14.5q-23 0 -41.5 -19t-18.5 -45q0 -22 14 -37t35 -15z" />
    <glyph glyph-name="uring" unicode="&#x16f;" horiz-adv-x="589" 
d="M209 -10q-87 0 -129 55t-20 148l73 317h80l-72 -313q-16 -67 9.5 -103t82.5 -36q68 0 119.5 45.5t70.5 124.5l-15 -125q-38 -54 -90.5 -83.5t-108.5 -29.5zM375 0l28 120h-5l90 390h80l-118 -510h-75zM379 561q-41 0 -69 27.5t-28 68.5q0 33 16 60t42.5 43t57.5 16
q42 0 70 -27.5t28 -68.5q0 -31 -16.5 -58.5t-43 -44t-57.5 -16.5zM383 611q25 0 43 19.5t18 45.5q0 22 -14.5 36.5t-35.5 14.5q-23 0 -41.5 -19t-18.5 -45q0 -22 14 -37t35 -15z" />
    <glyph glyph-name="Uhungarumlaut" unicode="&#x170;" horiz-adv-x="712" 
d="M328 -10q-93 0 -153.5 41t-81.5 115.5t2 174.5l92 399h82l-95 -411q-16 -69 -6.5 -124.5t50 -88t117.5 -32.5q88 0 141.5 52t76.5 152l104 452h82l-105 -457q-31 -133 -108.5 -203t-197.5 -70zM397 793h-66l79 157h106zM597 793h-66l79 157h106z" />
    <glyph glyph-name="uhungarumlaut" unicode="&#x171;" horiz-adv-x="589" 
d="M209 -10q-87 0 -129 55t-20 148l73 317h80l-72 -313q-16 -67 9.5 -103t82.5 -36q68 0 119.5 45.5t70.5 124.5l-15 -125q-38 -54 -90.5 -83.5t-108.5 -29.5zM375 0l28 120h-5l90 390h80l-118 -510h-75zM288 583h-66l79 157h106zM488 583h-66l79 157h106z" />
    <glyph glyph-name="Uogonek" unicode="&#x172;" horiz-adv-x="712" 
d="M328 -10q-93 0 -153.5 41t-81.5 115.5t2 174.5l92 399h82l-95 -411q-16 -69 -6.5 -124.5t50 -88t117.5 -32.5q88 0 141.5 52t76.5 152l104 452h82l-105 -457q-31 -133 -108.5 -203t-197.5 -70zM335 -196q-38 0 -60 18.5t-22 51.5q0 44 44 88t119 78l22 -20
q-60 -39 -91.5 -73t-31.5 -63q0 -13 7.5 -20.5t20.5 -7.5q16 0 30 11l22 -46q-15 -9 -29 -13t-31 -4z" />
    <glyph glyph-name="uogonek" unicode="&#x173;" horiz-adv-x="589" 
d="M209 -10q-87 0 -129 55t-20 148l73 317h80l-72 -313q-16 -67 9.5 -103t82.5 -36q68 0 119.5 45.5t70.5 124.5l-15 -125q-38 -54 -90.5 -83.5t-108.5 -29.5zM375 0l28 120h-5l90 390h80l-118 -510h-75zM347 -216q-38 0 -60 18.5t-22 51.5q0 44 44 88t119 78l22 -20
q-60 -39 -91.5 -73t-31.5 -63q0 -13 7.5 -20.5t20.5 -7.5q16 0 30 11l22 -46q-15 -9 -29 -13t-31 -4z" />
    <glyph glyph-name="Wcircumflex" unicode="&#x174;" horiz-adv-x="1069" 
d="M194 0l-47 720h81l38 -665h-18l340 665h104l35 -665h-18l343 665h84l-379 -720h-100l-39 645h12l-336 -645h-100zM474 793l178 157h86l106 -157h-67l-119 137h80l-181 -137h-83z" />
    <glyph glyph-name="wcircumflex" unicode="&#x175;" horiz-adv-x="767" 
d="M125 0l-38 510h78l19 -437h-20l245 437h65l44 -437h-23l220 437h83l-274 -510h-65l-45 427h24l-245 -427h-68zM275 583l178 157h86l106 -157h-67l-119 137h80l-181 -137h-83z" />
    <glyph glyph-name="Ycircumflex" unicode="&#x176;" horiz-adv-x="676" 
d="M238 0l75 326l-182 394h92l157 -346h-39l317 346h101l-364 -394l-75 -326h-82zM277 793l178 157h86l106 -157h-67l-119 137h80l-181 -137h-83z" />
    <glyph glyph-name="ycircumflex" unicode="&#x177;" horiz-adv-x="523" 
d="M11 -205l175 265l24 28l265 422h89l-461 -715h-92zM187 -5l-110 515h82l90 -461zM153 583l178 157h86l106 -157h-67l-119 137h80l-181 -137h-83z" />
    <glyph glyph-name="Ydieresis" unicode="&#x178;" horiz-adv-x="676" 
d="M238 0l75 326l-182 394h92l157 -346h-39l317 346h101l-364 -394l-75 -326h-82zM540 836l21 94h92l-21 -94h-92zM311 836l21 94h92l-21 -94h-92z" />
    <glyph glyph-name="Zacute" unicode="&#x179;" horiz-adv-x="623" 
d="M1 0l14 62l558 627l30 -41h-443l17 72h489l-15 -62l-557 -627l-30 41h463l-17 -72h-509zM432 793h-76l139 157h133z" />
    <glyph glyph-name="zacute" unicode="&#x17a;" horiz-adv-x="497" 
d="M-4 0l13 58l398 421l31 -37h-330l16 68h376l-14 -58l-397 -421l-31 37h350l-16 -68h-396zM321 583h-76l139 157h133z" />
    <glyph glyph-name="Zdotaccent" unicode="&#x17b;" horiz-adv-x="623" 
d="M1 0l14 62l558 627l30 -41h-443l17 72h489l-15 -62l-557 -627l-30 41h463l-17 -72h-509zM397 836l20 94h92l-20 -94h-92z" />
    <glyph glyph-name="zdotaccent" unicode="&#x17c;" horiz-adv-x="497" 
d="M-4 0l13 58l398 421l31 -37h-330l16 68h376l-14 -58l-397 -421l-31 37h350l-16 -68h-396zM286 626l20 94h92l-20 -94h-92z" />
    <glyph glyph-name="Zcaron" unicode="&#x17d;" horiz-adv-x="623" 
d="M1 0l14 62l558 627l30 -41h-443l17 72h489l-15 -62l-557 -627l-30 41h463l-17 -72h-509zM393 793l-106 157h67l119 -137h-80l181 137h83l-178 -157h-86z" />
    <glyph glyph-name="zcaron" unicode="&#x17e;" horiz-adv-x="497" 
d="M-4 0l13 58l398 421l31 -37h-330l16 68h376l-14 -58l-397 -421l-31 37h350l-16 -68h-396zM282 583l-106 157h67l119 -137h-80l181 137h83l-178 -157h-86z" />
    <glyph glyph-name="uni01CD" unicode="&#x1cd;" horiz-adv-x="728" 
d="M-23 0l442 720h78l-435 -720h-85zM553 0l-107 720h73l114 -720h-80zM181 291h376l-16 -72h-376zM436 793l-106 157h67l119 -137h-80l181 137h83l-178 -157h-86z" />
    <glyph glyph-name="uni01CE" unicode="&#x1ce;" horiz-adv-x="533" 
d="M334 0q-1 11 2.5 33t9.5 50l-5 1l56 242q8 33 2.5 62t-30 46.5t-73.5 17.5q-55 0 -88.5 -22.5t-46.5 -67.5h-75q20 77 77 117.5t144 40.5q76 0 116.5 -28.5t51.5 -74.5t-1 -98l-54 -233q-4 -19 -7 -43t-2 -43h-77zM175 -10q-70 0 -112 37.5t-42 98.5q0 47 24 81
t70.5 55.5t115.5 29.5l182 21l-15 -65l-169 -19q-66 -7 -98 -31.5t-32 -67.5q0 -36 24.5 -54t71.5 -18q63 0 108 29t57 77l-3 -72q-28 -48 -75.5 -75t-106.5 -27zM292 583l-106 157h67l119 -137h-80l181 137h83l-178 -157h-86z" />
    <glyph glyph-name="uni0218" unicode="&#x218;" horiz-adv-x="608" 
d="M302 -9q-61 0 -110 17t-83.5 49t-53 76.5t-18.5 99.5h80q0 -40 13 -71.5t37.5 -53.5t60 -33.5t80.5 -11.5q76 0 117.5 33t41.5 91q0 39 -20.5 66t-64.5 49l-109 55q-73 37 -105.5 78t-32.5 98q0 60 31 105t86 70.5t126 25.5q54 0 96 -14.5t71.5 -43t45.5 -69t17 -93.5
h-79q-1 49 -19 82t-53 49.5t-87 16.5q-48 0 -82.5 -14t-53 -40t-18.5 -64q0 -34 20.5 -60t67.5 -49l116 -58q65 -32 96 -75t31 -104q0 -62 -30 -108.5t-85 -72.5t-130 -26zM148 -296l9 41q30 11 51 32t28 54l28 -5h-88l23 102h105l-20 -88q-12 -51 -45 -85t-91 -51z" />
    <glyph glyph-name="uni0219" unicode="&#x219;" horiz-adv-x="467" 
d="M217 -10q-61 0 -107 21t-71 58.5t-23 87.5h77q1 -31 17.5 -53.5t45 -35t65.5 -12.5q50 0 80.5 22t30.5 59q0 25 -16 41.5t-51 30.5l-73 31q-55 23 -81.5 53.5t-26.5 73.5q0 45 24 79.5t65.5 54t95.5 19.5q53 0 94 -19t64.5 -52.5t24.5 -79.5h-76q-3 27 -17.5 46t-39 29
t-58.5 10q-45 0 -72 -20t-27 -55q0 -23 16 -39.5t51 -31.5l71 -30q56 -24 82.5 -56t26.5 -76q0 -47 -23.5 -82.5t-66.5 -54.5t-102 -19zM70 -296l9 41q30 11 51 32t28 54l28 -5h-88l23 102h105l-20 -88q-12 -51 -45 -85t-91 -51z" />
    <glyph glyph-name="uni021A" unicode="&#x21a;" horiz-adv-x="648" 
d="M224 0l149 648h-247l17 72h577l-17 -72h-248l-149 -648h-82zM144 -296l9 41q30 11 51 32t28 54l28 -5h-88l23 102h105l-20 -88q-12 -51 -45 -85t-91 -51z" />
    <glyph glyph-name="uni021B" unicode="&#x21b;" horiz-adv-x="377" 
d="M227 -9q-85 0 -115 43.5t-13 116.5l110 478l87 30l-120 -520q-9 -41 8.5 -60.5t66.5 -19.5q20 0 34.5 2.5t24.5 6.5l-15 -68q-11 -4 -28 -6.5t-40 -2.5zM61 442l15 68h336l-15 -68h-336zM67 -296l9 41q30 11 51 32t28 54l28 -5h-88l23 102h105l-20 -88q-12 -51 -45 -85
t-91 -51z" />
    <glyph glyph-name="uni0237" unicode="&#x237;" horiz-adv-x="240" 
d="M-62 -215q-14 0 -37.5 3t-40.5 11l14 62q8 -4 24.5 -8t32.5 -4q31 0 47 16t23 46l138 599h80l-141 -611q-13 -55 -46.5 -84.5t-93.5 -29.5z" />
    <glyph glyph-name="circumflex" unicode="&#x2c6;" horiz-adv-x="490" 
d="M136 583l178 157h86l106 -157h-67l-119 137h80l-181 -137h-83z" />
    <glyph glyph-name="caron" unicode="&#x2c7;" horiz-adv-x="490" 
d="M278 583l-106 157h67l119 -137h-80l181 137h83l-178 -157h-86z" />
    <glyph glyph-name="breve" unicode="&#x2d8;" horiz-adv-x="450" 
d="M320 578q-39 0 -70.5 12.5t-52 35t-27.5 52t2 62.5h63q-8 -27 1 -48.5t32.5 -34t57.5 -12.5q46 0 74 24t37 71h65q-15 -76 -63 -119t-119 -43z" />
    <glyph glyph-name="dotaccent" unicode="&#x2d9;" horiz-adv-x="213" 
d="M147 626l20 94h92l-20 -94h-92z" />
    <glyph glyph-name="ring" unicode="&#x2da;" horiz-adv-x="335" 
d="M253 561q-41 0 -69 27.5t-28 68.5q0 33 16 60t42.5 43t57.5 16q42 0 70 -27.5t28 -68.5q0 -31 -16.5 -58.5t-43 -44t-57.5 -16.5zM257 611q25 0 43 19.5t18 45.5q0 22 -14.5 36.5t-35.5 14.5q-23 0 -41.5 -19t-18.5 -45q0 -22 14 -37t35 -15z" />
    <glyph glyph-name="ogonek" unicode="&#x2db;" horiz-adv-x="277" 
d="M52 -216q-38 0 -60 18.5t-22 51.5q0 44 44 88t119 78l22 -20q-60 -39 -91.5 -73t-31.5 -63q0 -13 7.5 -20.5t20.5 -7.5q16 0 30 11l22 -46q-15 -9 -29 -13t-31 -4z" />
    <glyph glyph-name="tilde" unicode="&#x2dc;" horiz-adv-x="497" 
d="M416 593q-28 0 -49.5 10.5t-39.5 24t-35 24t-36 10.5q-20 0 -34.5 -14t-22.5 -45h-58q6 34 23.5 61t44.5 42.5t60 15.5q30 0 51 -10.5t37.5 -24t33 -24t37.5 -10.5q20 0 34.5 14t21.5 45h58q-9 -55 -44.5 -87t-81.5 -32z" />
    <glyph glyph-name="hungarumlaut" unicode="&#x2dd;" horiz-adv-x="469" 
d="M202 583h-66l79 157h106zM402 583h-66l79 157h106z" />
    <glyph glyph-name="gravecomb" unicode="&#x300;" horiz-adv-x="0" 
d="M305 583l-133 157h113l87 -157h-67z" />
    <glyph glyph-name="acutecomb" unicode="&#x301;" horiz-adv-x="0" 
d="M212 583h-76l139 157h133z" />
    <glyph glyph-name="uni0302" unicode="&#x302;" horiz-adv-x="0" 
d="M136 583l178 157h86l106 -157h-67l-119 137h80l-181 -137h-83z" />
    <glyph glyph-name="tildecomb" unicode="&#x303;" horiz-adv-x="0" 
d="M415 593q-28 0 -49.5 10.5t-39.5 24t-35 24t-36 10.5q-20 0 -34.5 -14t-22.5 -45h-58q6 34 23.5 61t44.5 42.5t60 15.5q30 0 51 -10.5t37.5 -24t33 -24t37.5 -10.5q20 0 34.5 14t21.5 45h58q-9 -55 -44.5 -87t-81.5 -32z" />
    <glyph glyph-name="uni0304" unicode="&#x304;" horiz-adv-x="0" 
d="M149 642l14 58h346l-14 -58h-346z" />
    <glyph glyph-name="uni0306" unicode="&#x306;" horiz-adv-x="0" 
d="M320 578q-39 0 -70.5 12.5t-52 35t-27.5 52t2 62.5h63q-8 -27 1 -48.5t32.5 -34t57.5 -12.5q46 0 74 24t37 71h65q-15 -76 -63 -119t-119 -43z" />
    <glyph glyph-name="uni0307" unicode="&#x307;" horiz-adv-x="0" 
d="M147 626l20 94h92l-20 -94h-92z" />
    <glyph glyph-name="uni0308" unicode="&#x308;" horiz-adv-x="0" 
d="M375 626l21 94h92l-21 -94h-92zM146 626l21 94h92l-21 -94h-92z" />
    <glyph glyph-name="uni030A" unicode="&#x30a;" horiz-adv-x="0" 
d="M253 561q-41 0 -69 27.5t-28 68.5q0 33 16 60t42.5 43t57.5 16q42 0 70 -27.5t28 -68.5q0 -31 -16.5 -58.5t-43 -44t-57.5 -16.5zM257 611q25 0 43 19.5t18 45.5q0 22 -14.5 36.5t-35.5 14.5q-23 0 -41.5 -19t-18.5 -45q0 -22 14 -37t35 -15z" />
    <glyph glyph-name="uni030B" unicode="&#x30b;" horiz-adv-x="0" 
d="M202 583h-66l79 157h106zM402 583h-66l79 157h106z" />
    <glyph glyph-name="uni030C" unicode="&#x30c;" horiz-adv-x="0" 
d="M278 583l-106 157h67l119 -137h-80l181 137h83l-178 -157h-86z" />
    <glyph glyph-name="uni0312" unicode="&#x312;" horiz-adv-x="0" 
d="M136 581l20 88q13 56 50 91.5t87 44.5l-10 -41q-29 -11 -49.5 -32t-28.5 -54l-28 5h88l-24 -102h-105z" />
    <glyph glyph-name="uni0326" unicode="&#x326;" horiz-adv-x="0" 
d="M-66 -296l9 41q30 11 51 32t28 54l28 -5h-88l23 102h105l-20 -88q-12 -51 -45 -85t-91 -51z" />
    <glyph glyph-name="uni0327" unicode="&#x327;" horiz-adv-x="0" 
d="M92 -215q-36 0 -64 10.5t-43 30.5t-13 48h55q-1 -17 18.5 -27t46.5 -10q20 0 36.5 8.5t16.5 25.5q0 14 -14.5 25t-66.5 21l47 95h57l-30 -60q36 -10 51 -32t15 -48q0 -41 -32.5 -64t-79.5 -23z" />
    <glyph glyph-name="uni0328" unicode="&#x328;" horiz-adv-x="0" 
d="M52 -216q-38 0 -60 18.5t-22 51.5q0 44 44 88t119 78l22 -20q-60 -39 -91.5 -73t-31.5 -63q0 -13 7.5 -20.5t20.5 -7.5q16 0 30 11l22 -46q-15 -9 -29 -13t-31 -4z" />
    <glyph glyph-name="Wgrave" unicode="&#x1e80;" horiz-adv-x="1069" 
d="M194 0l-47 720h81l38 -665h-18l340 665h104l35 -665h-18l343 665h84l-379 -720h-100l-39 645h12l-336 -645h-100zM672 793l-133 157h113l87 -157h-67z" />
    <glyph glyph-name="wgrave" unicode="&#x1e81;" horiz-adv-x="767" 
d="M125 0l-38 510h78l19 -437h-20l245 437h65l44 -437h-23l220 437h83l-274 -510h-65l-45 427h24l-245 -427h-68zM473 583l-133 157h113l87 -157h-67z" />
    <glyph glyph-name="Wacute" unicode="&#x1e82;" horiz-adv-x="1069" 
d="M194 0l-47 720h81l38 -665h-18l340 665h104l35 -665h-18l343 665h84l-379 -720h-100l-39 645h12l-336 -645h-100zM655 793h-76l139 157h133z" />
    <glyph glyph-name="wacute" unicode="&#x1e83;" horiz-adv-x="767" 
d="M125 0l-38 510h78l19 -437h-20l245 437h65l44 -437h-23l220 437h83l-274 -510h-65l-45 427h24l-245 -427h-68zM456 583h-76l139 157h133z" />
    <glyph glyph-name="Wdieresis" unicode="&#x1e84;" horiz-adv-x="1069" 
d="M194 0l-47 720h81l38 -665h-18l340 665h104l35 -665h-18l343 665h84l-379 -720h-100l-39 645h12l-336 -645h-100zM737 836l21 94h92l-21 -94h-92zM508 836l21 94h92l-21 -94h-92z" />
    <glyph glyph-name="wdieresis" unicode="&#x1e85;" horiz-adv-x="767" 
d="M125 0l-38 510h78l19 -437h-20l245 437h65l44 -437h-23l220 437h83l-274 -510h-65l-45 427h24l-245 -427h-68zM538 626l21 94h92l-21 -94h-92zM309 626l21 94h92l-21 -94h-92z" />
    <glyph glyph-name="uni1E9E" unicode="&#x1e9e;" horiz-adv-x="713" 
d="M410 -14q-33 0 -68.5 5t-66 13.5t-49.5 18.5l18 77q30 -18 78 -30t91 -12q49 0 84 17.5t54 49.5t19 75q0 53 -36 90t-125 76l-22 10l282 246l-16 -58q-28 45 -82.5 70t-123.5 25q-186 0 -232 -203l-105 -456h-82l106 464q31 134 111.5 200.5t212.5 66.5q92 0 163 -34
t123 -104l-263 -230l-15 61q95 -42 140.5 -97t45.5 -127q0 -64 -30 -112t-84.5 -75t-127.5 -27z" />
    <glyph glyph-name="Ygrave" unicode="&#x1ef2;" horiz-adv-x="676" 
d="M238 0l75 326l-182 394h92l157 -346h-39l317 346h101l-364 -394l-75 -326h-82zM475 793l-133 157h113l87 -157h-67z" />
    <glyph glyph-name="ygrave" unicode="&#x1ef3;" horiz-adv-x="523" 
d="M11 -205l175 265l24 28l265 422h89l-461 -715h-92zM187 -5l-110 515h82l90 -461zM351 583l-133 157h113l87 -157h-67z" />
    <glyph glyph-name="endash" unicode="&#x2013;" horiz-adv-x="586" 
d="M76 238l16 68h426l-16 -68h-426z" />
    <glyph glyph-name="emdash" unicode="&#x2014;" horiz-adv-x="886" 
d="M76 238l16 68h726l-16 -68h-726z" />
    <glyph glyph-name="quoteleft" unicode="&#x2018;" horiz-adv-x="256" 
d="M134 507l23 97q15 65 47 96.5t88 38.5l-9 -41q-31 -5 -50 -25.5t-30 -68.5l-30 3h93l-23 -100h-109z" />
    <glyph glyph-name="quoteright" unicode="&#x2019;" horiz-adv-x="256" 
d="M135 512l9 41q31 5 50 25.5t30 68.5l30 -3h-93l23 100h109l-23 -97q-15 -64 -47 -95.5t-88 -39.5z" />
    <glyph glyph-name="quotesinglbase" unicode="&#x201a;" horiz-adv-x="248" 
d="M-21 -144l9 41q32 11 50.5 34.5t29.5 71.5l30 -3h-86l24 102h101l-23 -99q-15 -64 -47 -97t-88 -50z" />
    <glyph glyph-name="quotedblleft" unicode="&#x201c;" horiz-adv-x="410" 
d="M288 507l23 97q15 65 47 96.5t88 38.5l-9 -41q-31 -5 -50 -25.5t-30 -68.5l-30 3h93l-23 -100h-109zM134 507l23 97q15 65 47 96.5t88 38.5l-9 -41q-31 -5 -50 -25.5t-30 -68.5l-30 3h93l-23 -100h-109z" />
    <glyph glyph-name="quotedblright" unicode="&#x201d;" horiz-adv-x="410" 
d="M289 512l9 41q31 5 50 25.5t30 68.5l30 -3h-93l23 100h109l-23 -97q-15 -64 -47 -95.5t-88 -39.5zM135 512l9 41q31 5 50 25.5t30 68.5l30 -3h-93l23 100h109l-23 -97q-15 -64 -47 -95.5t-88 -39.5z" />
    <glyph glyph-name="quotedblbase" unicode="&#x201e;" horiz-adv-x="398" 
d="M129 -144l9 41q32 11 50.5 34.5t29.5 71.5l30 -3h-86l24 102h101l-23 -99q-15 -64 -47 -97t-88 -50zM-21 -144l9 41q32 11 50.5 34.5t29.5 71.5l30 -3h-86l24 102h101l-23 -99q-15 -64 -47 -97t-88 -50z" />
    <glyph glyph-name="bullet" unicode="&#x2022;" horiz-adv-x="307" 
d="M87 299l36 155h154l-36 -155h-154z" />
    <glyph glyph-name="ellipsis" unicode="&#x2026;" horiz-adv-x="655" 
d="M17 0l24 103h103l-24 -103h-103zM217 0l24 103h103l-24 -103h-103zM417 0l24 103h103l-24 -103h-103z" />
    <glyph glyph-name="perthousand" unicode="&#x2030;" horiz-adv-x="841" 
d="M212 361q-52 0 -84.5 37.5t-32.5 104.5q0 36 10.5 75.5t31.5 74t52 56t72 21.5q52 0 84.5 -37t32.5 -105q0 -38 -11 -77.5t-32.5 -73.5t-52 -55t-70.5 -21zM215 416q23 0 40 17.5t29 44.5t18 57t6 56q0 36 -12.5 60t-39.5 24q-23 0 -40.5 -17.5t-28.5 -44.5t-16.5 -57
t-5.5 -56q0 -36 11.5 -60t38.5 -24zM8 0l623 720h78l-622 -720h-79zM446 -10q-48 0 -79.5 38t-31.5 105q0 37 10.5 76.5t31 73.5t50 55t66.5 21q47 0 73.5 -36.5t26.5 -104.5q0 -40 -9.5 -80t-28.5 -73.5t-46 -54t-63 -20.5zM448 45q19 0 34.5 16.5t27 43.5t17.5 57.5
t6 57.5q0 37 -11.5 60.5t-34.5 23.5q-19 0 -34 -16.5t-26 -43t-16.5 -57t-5.5 -58.5q0 -37 10.5 -60.5t32.5 -23.5zM640 45q19 0 34.5 16.5t27 43.5t17.5 57.5t6 57.5q0 37 -11.5 60.5t-34.5 23.5q-19 0 -34 -16.5t-26 -43t-16.5 -57t-5.5 -58.5q0 -37 10.5 -60.5
t32.5 -23.5zM638 -10q-46 0 -73.5 36.5t-27.5 105.5q0 39 9.5 78.5t28 73.5t46 54.5t64.5 20.5q47 0 78.5 -37t31.5 -105q0 -39 -11 -79t-32 -73.5t-49.5 -54t-64.5 -20.5z" />
    <glyph glyph-name="guilsinglleft" unicode="&#x2039;" horiz-adv-x="334" 
d="M144 68l-87 196l163 170h90l-173 -184l78 -182h-71z" />
    <glyph glyph-name="guilsinglright" unicode="&#x203a;" horiz-adv-x="334" 
d="M104 68h-82l173 186l-84 180h77l90 -183z" />
    <glyph glyph-name="Euro" unicode="&#x20ac;" horiz-adv-x="697" 
d="M362 -10q-78 0 -136.5 38.5t-91.5 105t-33 148.5q0 48 11.5 100t34.5 102t56 94.5t75 78.5t93.5 53.5t110.5 19.5q45 0 86 -12t74 -35.5t53 -58.5t23 -80h-84q-4 37 -23 61.5t-51 37.5t-74 13q-50 0 -92 -17t-75.5 -46t-58.5 -66.5t-41.5 -79.5t-25 -84.5t-8.5 -80.5
q0 -64 22.5 -113.5t64 -77t97.5 -27.5q43 0 80 15.5t64 41.5t40 55h84q-22 -55 -64 -96.5t-96 -65.5t-115 -24zM34 402l30 68h485l-30 -68h-485zM-1 252l30 68h458l-30 -68h-458z" />
    <glyph glyph-name="trademark" unicode="&#x2122;" horiz-adv-x="850" 
d="M245 360v347h66v-347h-66zM126 664v56h305v-56h-305zM468 360v360h99l113 -347h-37l112 347h101v-360h-66v339h11l-106 -339h-70l-105 336h10v-336h-62z" />
    <glyph glyph-name="arrowleft" unicode="&#x2190;" horiz-adv-x="858" 
d="M822 358h-658l35 28l320 -322h-100l-327 330l328 330h100l-321 -322l-35 28h658v-72z" />
    <glyph glyph-name="arrowup" unicode="&#x2191;" horiz-adv-x="803" 
d="M388 0v658l28 -35l-322 -320v100l330 327l330 -328v-100l-322 321l28 35v-658h-72z" />
    <glyph glyph-name="arrowright" unicode="&#x2192;" horiz-adv-x="859" 
d="M85 362h658l-35 -28l-320 322h100l327 -330l-328 -330h-100l321 322l35 -28h-658v72z" />
    <glyph glyph-name="arrowdown" unicode="&#x2193;" horiz-adv-x="802" 
d="M391 720h72v-658l-28 35l322 321v-100l-330 -328l-330 327v100l322 -320l-28 -35v658z" />
    <glyph glyph-name="arrowboth" unicode="&#x2194;" horiz-adv-x="1020" 
d="M412 30l-328 330l327 330h100l-292 -294h630l-292 294h100l327 -330l-328 -330h-100l293 294h-630l293 -294h-100z" />
    <glyph glyph-name="arrowupdn" unicode="&#x2195;" horiz-adv-x="837" 
d="M443 -90l-330 327v100l294 -292v630l-294 -292v100l330 327l330 -328v-100l-294 293v-630l294 293v-100z" />
    <glyph glyph-name="uni2196" unicode="&#x2196;" horiz-adv-x="774" 
d="M642 112l-465 466l45 -5l-2 -454l-70 70l2 465l465 1l71 -70l-455 -1l-5 45l465 -466z" />
    <glyph glyph-name="uni2197" unicode="&#x2197;" horiz-adv-x="748" 
d="M118 115l466 465l-5 -45l-454 2l70 70l465 -2l1 -465l-70 -71l-1 455l45 5l-466 -465z" />
    <glyph glyph-name="uni2198" unicode="&#x2198;" horiz-adv-x="775" 
d="M181 608l465 -466l-45 5l2 454l70 -70l-2 -465l-465 -1l-71 70l455 1l5 -45l-465 466z" />
    <glyph glyph-name="uni2199" unicode="&#x2199;" horiz-adv-x="748" 
d="M678 605l-466 -465l5 45l454 -2l-70 -70l-465 2l-1 465l70 71l1 -455l-45 -5l466 465z" />
    <glyph glyph-name="minus" unicode="&#x2212;" horiz-adv-x="531" 
d="M79 337l16 68h411l-16 -68h-411z" />
    <glyph glyph-name="Adieresis.ss01" horiz-adv-x="728" 
d="M-23 0l442 720h78l-435 -720h-85zM553 0l-107 720h73l114 -720h-80zM181 291h376l-16 -72h-376zM375 817q-21 0 -34.5 14.5t-13.5 36.5q0 26 18.5 44t44.5 18q21 0 34.5 -13.5t13.5 -36.5q0 -26 -18.5 -44.5t-44.5 -18.5zM604 817q-21 0 -34.5 14.5t-13.5 36.5
q0 26 18.5 44t44.5 18q21 0 34.5 -13.5t13.5 -36.5q0 -26 -18.5 -44.5t-44.5 -18.5z" />
    <glyph glyph-name="Cdotaccent.ss01" horiz-adv-x="741" 
d="M364 -10q-87 0 -151.5 38.5t-100 107.5t-35.5 162q0 60 14.5 115t41.5 103.5t64 87.5t81.5 67.5t95.5 43.5t105 15q62 0 113 -19.5t87.5 -55t54 -84t12.5 -107.5h-81q2 44 -10 79.5t-36.5 60.5t-60.5 38t-83 13q-52 0 -99.5 -17t-87 -49t-68 -76t-44.5 -97.5t-16 -114.5
q0 -112 55.5 -174.5t155.5 -62.5q90 0 154 50.5t92 141.5h82q-24 -83 -72.5 -143t-115.5 -91.5t-147 -31.5zM505 817q-21 0 -34.5 14.5t-13.5 36.5q0 17 8.5 31t23 22.5t31.5 8.5q20 0 33.5 -13.5t13.5 -36.5q0 -17 -8.5 -31.5t-22.5 -23t-31 -8.5z" />
    <glyph glyph-name="Edieresis.ss01" horiz-adv-x="638" 
d="M27 0l166 720h82l-166 -720h-82zM69 0l16 72h440l-16 -72h-440zM147 339l16 72h404l-16 -72h-404zM218 648l17 72h432l-17 -72h-432zM349 817q-21 0 -34.5 14.5t-13.5 36.5q0 26 18.5 44t44.5 18q21 0 34.5 -13.5t13.5 -36.5q0 -26 -18.5 -44.5t-44.5 -18.5zM578 817
q-21 0 -34.5 14.5t-13.5 36.5q0 26 18.5 44t44.5 18q21 0 34.5 -13.5t13.5 -36.5q0 -26 -18.5 -44.5t-44.5 -18.5z" />
    <glyph glyph-name="Edotaccent.ss01" horiz-adv-x="638" 
d="M27 0l166 720h82l-166 -720h-82zM69 0l16 72h440l-16 -72h-440zM147 339l16 72h404l-16 -72h-404zM218 648l17 72h432l-17 -72h-432zM464 817q-21 0 -34.5 14.5t-13.5 36.5q0 17 8.5 31t23 22.5t31.5 8.5q20 0 33.5 -13.5t13.5 -36.5q0 -17 -8.5 -31.5t-22.5 -23
t-31 -8.5z" />
    <glyph glyph-name="uni0122.ss01" horiz-adv-x="765" 
d="M359 -10q-87 0 -151.5 38.5t-100 108t-35.5 163.5q0 71 21 135.5t58.5 118.5t88 93.5t109.5 61t123 21.5q61 0 110.5 -17.5t85 -49.5t55 -75t20.5 -94h-82q-3 38 -17.5 67.5t-39 50.5t-58.5 32t-76 11q-52 0 -99.5 -17t-87 -49t-68 -76t-44.5 -97.5t-16 -114.5
q0 -112 55.5 -174.5t155.5 -62.5q74 0 132 22t92 63l73 -33q-50 -56 -125 -91t-179 -35zM581 116l51 223l23 -31h-228l18 72h279l-61 -264h-82zM240 -295l9 40q32 9 51 32t26 53h24q-15 -9 -31 -9q-22 0 -36.5 13.5t-14.5 35.5q0 26 17.5 44.5t43.5 18.5q23 0 36.5 -15.5
t13.5 -46.5q0 -28 -11.5 -55.5t-31 -51t-44.5 -39t-52 -20.5z" />
    <glyph glyph-name="Gdotaccent.ss01" horiz-adv-x="765" 
d="M359 -10q-87 0 -151.5 38.5t-100 108t-35.5 163.5q0 71 21 135.5t58.5 118.5t88 93.5t109.5 61t123 21.5q61 0 110.5 -17.5t85 -49.5t55 -75t20.5 -94h-82q-3 38 -17.5 67.5t-39 50.5t-58.5 32t-76 11q-52 0 -99.5 -17t-87 -49t-68 -76t-44.5 -97.5t-16 -114.5
q0 -112 55.5 -174.5t155.5 -62.5q74 0 132 22t92 63l73 -33q-50 -56 -125 -91t-179 -35zM581 116l51 223l23 -31h-228l18 72h279l-61 -264h-82zM523 817q-21 0 -34.5 14.5t-13.5 36.5q0 17 8.5 31t23 22.5t31.5 8.5q20 0 33.5 -13.5t13.5 -36.5q0 -17 -8.5 -31.5t-22.5 -23
t-31 -8.5z" />
    <glyph glyph-name="Idieresis.ss01" horiz-adv-x="254" 
d="M27 0l166 720h82l-166 -720h-82zM147 817q-21 0 -34.5 14.5t-13.5 36.5q0 26 18.5 44t44.5 18q21 0 34.5 -13.5t13.5 -36.5q0 -26 -18.5 -44.5t-44.5 -18.5zM376 817q-21 0 -34.5 14.5t-13.5 36.5q0 26 18.5 44t44.5 18q21 0 34.5 -13.5t13.5 -36.5q0 -26 -18.5 -44.5
t-44.5 -18.5z" />
    <glyph glyph-name="Idotaccent.ss01" horiz-adv-x="254" 
d="M27 0l166 720h82l-166 -720h-82zM262 817q-21 0 -34.5 14.5t-13.5 36.5q0 17 8.5 31t23 22.5t31.5 8.5q20 0 33.5 -13.5t13.5 -36.5q0 -17 -8.5 -31.5t-22.5 -23t-31 -8.5z" />
    <glyph glyph-name="uni0136.ss01" horiz-adv-x="692" 
d="M27 0l166 720h82l-166 -720h-82zM173 372l455 348h127l-462 -346zM502 0l-315 383l106 -9l316 -374h-107zM182 -295l9 40q32 9 51 32t26 53h24q-15 -9 -31 -9q-22 0 -36.5 13.5t-14.5 35.5q0 26 17.5 44.5t43.5 18.5q23 0 36.5 -15.5t13.5 -46.5q0 -28 -11.5 -55.5
t-31 -51t-44.5 -39t-52 -20.5z" />
    <glyph glyph-name="uni013B.ss01" horiz-adv-x="588" 
d="M27 0l166 720h82l-166 -720h-82zM69 0l16 72h410l-16 -72h-410zM157 -295l9 40q32 9 51 32t26 53h24q-15 -9 -31 -9q-22 0 -36.5 13.5t-14.5 35.5q0 26 17.5 44.5t43.5 18.5q23 0 36.5 -15.5t13.5 -46.5q0 -28 -11.5 -55.5t-31 -51t-44.5 -39t-52 -20.5z" />
    <glyph glyph-name="uni0145.ss01" horiz-adv-x="736" 
d="M27 0l166 720h80l273 -606l-7 -2l140 608h78l-166 -720h-81l-273 606l8 2l-140 -608h-78zM194 -295l9 40q32 9 51 32t26 53h24q-15 -9 -31 -9q-22 0 -36.5 13.5t-14.5 35.5q0 26 17.5 44.5t43.5 18.5q23 0 36.5 -15.5t13.5 -46.5q0 -28 -11.5 -55.5t-31 -51t-44.5 -39
t-52 -20.5z" />
    <glyph glyph-name="Odieresis.ss01" horiz-adv-x="786" 
d="M365 -10q-86 0 -151.5 40.5t-102.5 112t-37 164.5q0 86 31 162.5t86 135t126 92t152 33.5q88 0 153.5 -39.5t102.5 -110t37 -163.5q0 -86 -31.5 -163t-86.5 -136.5t-126.5 -93.5t-152.5 -34zM370 64q62 0 117.5 27.5t98.5 76t67.5 112t24.5 134.5q0 73 -27 127
t-75.5 84.5t-114.5 30.5q-62 0 -116.5 -27t-96.5 -75t-65.5 -111t-23.5 -135q0 -73 26.5 -128t74 -85.5t110.5 -30.5zM414 817q-21 0 -34.5 14.5t-13.5 36.5q0 26 18.5 44t44.5 18q21 0 34.5 -13.5t13.5 -36.5q0 -26 -18.5 -44.5t-44.5 -18.5zM643 817q-21 0 -34.5 14.5
t-13.5 36.5q0 26 18.5 44t44.5 18q21 0 34.5 -13.5t13.5 -36.5q0 -26 -18.5 -44.5t-44.5 -18.5z" />
    <glyph glyph-name="uni0156.ss01" horiz-adv-x="656" 
d="M27 0l166 720h268q66 0 110.5 -24t67 -66t21.5 -96q-1 -65 -34.5 -114t-93 -76t-140.5 -27h-232l17 72h232q51 0 89 18t59 50.5t21 73.5q1 52 -32.5 84.5t-102.5 32.5h-185l-149 -648h-82zM461 0l-301 357h100l313 -357h-112zM154 -295l9 40q32 9 51 32t26 53h24
q-15 -9 -31 -9q-22 0 -36.5 13.5t-14.5 35.5q0 26 17.5 44.5t43.5 18.5q23 0 36.5 -15.5t13.5 -46.5q0 -28 -11.5 -55.5t-31 -51t-44.5 -39t-52 -20.5z" />
    <glyph glyph-name="uni0218.ss01" horiz-adv-x="608" 
d="M302 -9q-61 0 -110 17t-83.5 49t-53 76.5t-18.5 99.5h80q0 -40 13 -71.5t37.5 -53.5t60 -33.5t80.5 -11.5q76 0 117.5 33t41.5 91q0 39 -20.5 66t-64.5 49l-109 55q-73 37 -105.5 78t-32.5 98q0 60 31 105t86 70.5t126 25.5q54 0 96 -14.5t71.5 -43t45.5 -69t17 -93.5
h-79q-1 49 -19 82t-53 49.5t-87 16.5q-48 0 -82.5 -14t-53 -40t-18.5 -64q0 -34 20.5 -60t67.5 -49l116 -58q65 -32 96 -75t31 -104q0 -62 -30 -108.5t-85 -72.5t-130 -26zM154 -295l9 40q32 9 51 32t26 53h24q-15 -9 -31 -9q-22 0 -36.5 13.5t-14.5 35.5q0 26 17.5 44.5
t43.5 18.5q23 0 36.5 -15.5t13.5 -46.5q0 -28 -11.5 -55.5t-31 -51t-44.5 -39t-52 -20.5z" />
    <glyph glyph-name="uni021A.ss01" horiz-adv-x="648" 
d="M224 0l149 648h-247l17 72h577l-17 -72h-248l-149 -648h-82zM150 -295l9 40q32 9 51 32t26 53h24q-15 -9 -31 -9q-22 0 -36.5 13.5t-14.5 35.5q0 26 17.5 44.5t43.5 18.5q23 0 36.5 -15.5t13.5 -46.5q0 -28 -11.5 -55.5t-31 -51t-44.5 -39t-52 -20.5z" />
    <glyph glyph-name="Udieresis.ss01" horiz-adv-x="712" 
d="M328 -10q-93 0 -153.5 41t-81.5 115.5t2 174.5l92 399h82l-95 -411q-16 -69 -6.5 -124.5t50 -88t117.5 -32.5q88 0 141.5 52t76.5 152l104 452h82l-105 -457q-31 -133 -108.5 -203t-197.5 -70zM376 817q-21 0 -34.5 14.5t-13.5 36.5q0 26 18.5 44t44.5 18
q21 0 34.5 -13.5t13.5 -36.5q0 -26 -18.5 -44.5t-44.5 -18.5zM605 817q-21 0 -34.5 14.5t-13.5 36.5q0 26 18.5 44t44.5 18q21 0 34.5 -13.5t13.5 -36.5q0 -26 -18.5 -44.5t-44.5 -18.5z" />
    <glyph glyph-name="Ydieresis.ss01" horiz-adv-x="676" 
d="M238 0l75 326l-182 394h92l157 -346h-39l317 346h101l-364 -394l-75 -326h-82zM358 817q-21 0 -34.5 14.5t-13.5 36.5q0 26 18.5 44t44.5 18q21 0 34.5 -13.5t13.5 -36.5q0 -26 -18.5 -44.5t-44.5 -18.5zM587 817q-21 0 -34.5 14.5t-13.5 36.5q0 26 18.5 44t44.5 18
q21 0 34.5 -13.5t13.5 -36.5q0 -26 -18.5 -44.5t-44.5 -18.5z" />
    <glyph glyph-name="Zdotaccent.ss01" horiz-adv-x="623" 
d="M1 0l14 62l558 627l30 -41h-443l17 72h489l-15 -62l-557 -627l-30 41h463l-17 -72h-509zM447 817q-21 0 -34.5 14.5t-13.5 36.5q0 17 8.5 31t23 22.5t31.5 8.5q20 0 33.5 -13.5t13.5 -36.5q0 -17 -8.5 -31.5t-22.5 -23t-31 -8.5z" />
    <glyph glyph-name="K.ss04" horiz-adv-x="692" 
d="M27 0l166 720h82l-166 -720h-82zM92 254l542 466h121l-383 -323l-21 -9l-229 -194zM514 0l-210 414h86l219 -414h-95z" />
    <glyph glyph-name="uni0136.ss04" horiz-adv-x="692" 
d="M27 0l166 720h82l-166 -720h-82zM92 254l542 466h121l-383 -323l-21 -9l-229 -194zM514 0l-210 414h86l219 -414h-95zM176 -296l9 41q30 11 51 32t28 54l28 -5h-88l23 102h105l-20 -88q-12 -51 -45 -85t-91 -51z" />
    <glyph glyph-name="R.ss05" horiz-adv-x="648" 
d="M27 0l166 720h265q63 0 107.5 -20t68 -58t23.5 -92q0 -58 -28.5 -104.5t-79.5 -76t-119 -37.5l5 26q61 -4 92.5 -28.5t40 -60.5t-0.5 -76l-44 -193h-82l41 178q8 35 1 67.5t-33.5 54t-77.5 21.5h-211l16 68h235q47 0 83.5 19t57.5 52t21 75q0 53 -36.5 83t-98.5 30h-181
l-149 -648h-82z" />
    <glyph glyph-name="Racute.ss05" horiz-adv-x="648" 
d="M27 0l166 720h265q63 0 107.5 -20t68 -58t23.5 -92q0 -58 -28.5 -104.5t-79.5 -76t-119 -37.5l5 26q61 -4 92.5 -28.5t40 -60.5t-0.5 -76l-44 -193h-82l41 178q8 35 1 67.5t-33.5 54t-77.5 21.5h-211l16 68h235q47 0 83.5 19t57.5 52t21 75q0 53 -36.5 83t-98.5 30h-181
l-149 -648h-82zM446 793h-76l139 157h133z" />
    <glyph glyph-name="Rcaron.ss05" horiz-adv-x="648" 
d="M27 0l166 720h265q63 0 107.5 -20t68 -58t23.5 -92q0 -58 -28.5 -104.5t-79.5 -76t-119 -37.5l5 26q61 -4 92.5 -28.5t40 -60.5t-0.5 -76l-44 -193h-82l41 178q8 35 1 67.5t-33.5 54t-77.5 21.5h-211l16 68h235q47 0 83.5 19t57.5 52t21 75q0 53 -36.5 83t-98.5 30h-181
l-149 -648h-82zM407 793l-106 157h67l119 -137h-80l181 137h83l-178 -157h-86z" />
    <glyph glyph-name="uni0156.ss05" horiz-adv-x="648" 
d="M27 0l166 720h265q63 0 107.5 -20t68 -58t23.5 -92q0 -58 -28.5 -104.5t-79.5 -76t-119 -37.5l5 26q61 -4 92.5 -28.5t40 -60.5t-0.5 -76l-44 -193h-82l41 178q8 35 1 67.5t-33.5 54t-77.5 21.5h-211l16 68h235q47 0 83.5 19t57.5 52t21 75q0 53 -36.5 83t-98.5 30h-181
l-149 -648h-82zM156 -296l9 41q30 11 51 32t28 54l28 -5h-88l23 102h105l-20 -88q-12 -51 -45 -85t-91 -51z" />
    <glyph glyph-name="M.ss06" horiz-adv-x="886" 
d="M7 0l237 720h115l43 -694h-31l362 694h122l-94 -720h-81l85 677h26l-351 -677h-115l-39 671h24l-225 -671h-78z" />
    <glyph glyph-name="G.ss07" horiz-adv-x="765" 
d="M378 -10q-93 0 -161.5 38t-106.5 108t-38 164q0 58 14 112t40.5 102t62.5 87t80.5 67.5t95 44t104.5 15.5q60 0 112 -18t91 -50.5t61 -75t21 -90.5h-81q0 33 -16 62t-45 51t-67 34.5t-81 12.5q-42 0 -81.5 -12.5t-74 -35.5t-62.5 -55t-48 -71t-31 -83t-11 -92
q0 -114 62 -177.5t167 -63.5q72 0 125.5 30t89.5 90.5t54 150.5l77 -9q-23 -109 -71.5 -184t-119 -113.5t-162.5 -38.5zM663 298h-233l16 72h294l-9 -44z" />
    <glyph glyph-name="Gbreve.ss07" horiz-adv-x="765" 
d="M378 -10q-93 0 -161.5 38t-106.5 108t-38 164q0 58 14 112t40.5 102t62.5 87t80.5 67.5t95 44t104.5 15.5q60 0 112 -18t91 -50.5t61 -75t21 -90.5h-81q0 33 -16 62t-45 51t-67 34.5t-81 12.5q-42 0 -81.5 -12.5t-74 -35.5t-62.5 -55t-48 -71t-31 -83t-11 -92
q0 -114 62 -177.5t167 -63.5q72 0 125.5 30t89.5 90.5t54 150.5l77 -9q-23 -109 -71.5 -184t-119 -113.5t-162.5 -38.5zM663 298h-233l16 72h294l-9 -44zM502 788q-39 0 -70.5 12.5t-52 35t-27.5 52t2 62.5h63q-8 -27 1 -48.5t32.5 -34t57.5 -12.5q46 0 74 24t37 71h65
q-15 -76 -63 -119t-119 -43z" />
    <glyph glyph-name="uni0122.ss07" horiz-adv-x="765" 
d="M378 -10q-93 0 -161.5 38t-106.5 108t-38 164q0 58 14 112t40.5 102t62.5 87t80.5 67.5t95 44t104.5 15.5q60 0 112 -18t91 -50.5t61 -75t21 -90.5h-81q0 33 -16 62t-45 51t-67 34.5t-81 12.5q-42 0 -81.5 -12.5t-74 -35.5t-62.5 -55t-48 -71t-31 -83t-11 -92
q0 -114 62 -177.5t167 -63.5q72 0 125.5 30t89.5 90.5t54 150.5l77 -9q-23 -109 -71.5 -184t-119 -113.5t-162.5 -38.5zM663 298h-233l16 72h294l-9 -44zM252 -296l9 41q30 11 51 32t28 54l28 -5h-88l23 102h105l-20 -88q-12 -51 -45 -85t-91 -51z" />
    <glyph glyph-name="Gdotaccent.ss07" horiz-adv-x="765" 
d="M378 -10q-93 0 -161.5 38t-106.5 108t-38 164q0 58 14 112t40.5 102t62.5 87t80.5 67.5t95 44t104.5 15.5q60 0 112 -18t91 -50.5t61 -75t21 -90.5h-81q0 33 -16 62t-45 51t-67 34.5t-81 12.5q-42 0 -81.5 -12.5t-74 -35.5t-62.5 -55t-48 -71t-31 -83t-11 -92
q0 -114 62 -177.5t167 -63.5q72 0 125.5 30t89.5 90.5t54 150.5l77 -9q-23 -109 -71.5 -184t-119 -113.5t-162.5 -38.5zM663 298h-233l16 72h294l-9 -44zM444 836l20 94h92l-20 -94h-92z" />
    <glyph glyph-name="J.ss08" horiz-adv-x="620" 
d="M265 -10q-56 0 -99.5 17.5t-71.5 50t-38.5 76.5t-1.5 96h80q-10 -47 4 -85t48 -59.5t83 -21.5q71 0 118 44.5t67 133.5l111 478h82l-115 -494q-27 -115 -95 -175.5t-172 -60.5z" />
    <glyph glyph-name="Q.ss09" horiz-adv-x="786" 
d="M366 -10q-86 0 -152 40.5t-103 112t-37 164.5q0 86 31 162.5t86 135t126.5 92t152.5 33.5q87 0 152.5 -39.5t102.5 -110t37 -163.5q0 -86 -31.5 -163t-86.5 -136.5t-126.5 -93.5t-151.5 -34zM371 64q62 0 117.5 27.5t98 76t67 112t24.5 134.5q0 73 -27 127t-75.5 84.5
t-113.5 30.5q-62 0 -117 -27t-97 -75t-65.5 -111t-23.5 -135q0 -73 26.5 -128t74 -85.5t111.5 -30.5zM396 240l69 25l123 -356l-69 -25z" />
    <glyph glyph-name="uni0136.ss01.ss04" horiz-adv-x="692" 
d="M27 0l166 720h82l-166 -720h-82zM92 254l542 466h121l-383 -323l-21 -9l-229 -194zM514 0l-210 414h86l219 -414h-95zM182 -295l9 40q32 9 51 32t26 53h24q-15 -9 -31 -9q-22 0 -36.5 13.5t-14.5 35.5q0 26 17.5 44.5t43.5 18.5q23 0 36.5 -15.5t13.5 -46.5
q0 -28 -11.5 -55.5t-31 -51t-44.5 -39t-52 -20.5z" />
    <glyph glyph-name="uni0156.ss01.ss05" horiz-adv-x="648" 
d="M27 0l166 720h265q63 0 107.5 -20t68 -58t23.5 -92q0 -58 -28.5 -104.5t-79.5 -76t-119 -37.5l5 26q61 -4 92.5 -28.5t40 -60.5t-0.5 -76l-44 -193h-82l41 178q8 35 1 67.5t-33.5 54t-77.5 21.5h-211l16 68h235q47 0 83.5 19t57.5 52t21 75q0 53 -36.5 83t-98.5 30h-181
l-149 -648h-82zM162 -295l9 40q32 9 51 32t26 53h24q-15 -9 -31 -9q-22 0 -36.5 13.5t-14.5 35.5q0 26 17.5 44.5t43.5 18.5q23 0 36.5 -15.5t13.5 -46.5q0 -28 -11.5 -55.5t-31 -51t-44.5 -39t-52 -20.5z" />
    <glyph glyph-name="uni0122.ss01.ss07" horiz-adv-x="765" 
d="M378 -10q-93 0 -161.5 38t-106.5 108t-38 164q0 58 14 112t40.5 102t62.5 87t80.5 67.5t95 44t104.5 15.5q60 0 112 -18t91 -50.5t61 -75t21 -90.5h-81q0 33 -16 62t-45 51t-67 34.5t-81 12.5q-42 0 -81.5 -12.5t-74 -35.5t-62.5 -55t-48 -71t-31 -83t-11 -92
q0 -114 62 -177.5t167 -63.5q72 0 125.5 30t89.5 90.5t54 150.5l77 -9q-23 -109 -71.5 -184t-119 -113.5t-162.5 -38.5zM663 298h-233l16 72h294l-9 -44zM258 -295l9 40q32 9 51 32t26 53h24q-15 -9 -31 -9q-22 0 -36.5 13.5t-14.5 35.5q0 26 17.5 44.5t43.5 18.5
q23 0 36.5 -15.5t13.5 -46.5q0 -28 -11.5 -55.5t-31 -51t-44.5 -39t-52 -20.5z" />
    <glyph glyph-name="Gdotaccent.ss01.ss07" horiz-adv-x="765" 
d="M378 -10q-93 0 -161.5 38t-106.5 108t-38 164q0 58 14 112t40.5 102t62.5 87t80.5 67.5t95 44t104.5 15.5q60 0 112 -18t91 -50.5t61 -75t21 -90.5h-81q0 33 -16 62t-45 51t-67 34.5t-81 12.5q-42 0 -81.5 -12.5t-74 -35.5t-62.5 -55t-48 -71t-31 -83t-11 -92
q0 -114 62 -177.5t167 -63.5q72 0 125.5 30t89.5 90.5t54 150.5l77 -9q-23 -109 -71.5 -184t-119 -113.5t-162.5 -38.5zM663 298h-233l16 72h294l-9 -44zM494 817q-21 0 -34.5 14.5t-13.5 36.5q0 17 8.5 31t23 22.5t31.5 8.5q20 0 33.5 -13.5t13.5 -36.5q0 -17 -8.5 -31.5
t-22.5 -23t-31 -8.5z" />
    <glyph glyph-name="i.loclTRK" horiz-adv-x="241" 
d="M22 0l117 510h80l-117 -510h-80zM157 626l20 94h92l-20 -94h-92z" />
    <glyph glyph-name="adieresis.ss01" horiz-adv-x="533" 
d="M334 0q-1 11 2.5 33t9.5 50l-5 1l56 242q8 33 2.5 62t-30 46.5t-73.5 17.5q-55 0 -88.5 -22.5t-46.5 -67.5h-75q20 77 77 117.5t144 40.5q76 0 116.5 -28.5t51.5 -74.5t-1 -98l-54 -233q-4 -19 -7 -43t-2 -43h-77zM175 -10q-70 0 -112 37.5t-42 98.5q0 47 24 81
t70.5 55.5t115.5 29.5l182 21l-15 -65l-169 -19q-66 -7 -98 -31.5t-32 -67.5q0 -36 24.5 -54t71.5 -18q63 0 108 29t57 77l-3 -72q-28 -48 -75.5 -75t-106.5 -27zM231 607q-21 0 -34.5 14.5t-13.5 36.5q0 26 18.5 44t44.5 18q21 0 34.5 -13.5t13.5 -36.5q0 -26 -18.5 -44.5
t-44.5 -18.5zM460 607q-21 0 -34.5 14.5t-13.5 36.5q0 26 18.5 44t44.5 18q21 0 34.5 -13.5t13.5 -36.5q0 -26 -18.5 -44.5t-44.5 -18.5z" />
    <glyph glyph-name="cdotaccent.ss01" horiz-adv-x="533" 
d="M239 -11q-61 0 -106 27.5t-70 77t-25 115.5q0 52 14.5 98t41 85t62.5 67t79 43.5t91 15.5q41 0 75 -13t59 -36.5t39 -56t14 -71.5h-74q-1 34 -16 58t-41 37.5t-62 13.5q-34 0 -64 -12t-55 -34.5t-43 -52.5t-28 -67t-10 -78q0 -71 33 -110.5t93 -39.5q54 0 96 30t61 82h74
q-27 -82 -91.5 -130.5t-146.5 -48.5zM368 607q-21 0 -34.5 14.5t-13.5 36.5q0 17 8.5 31t23 22.5t31.5 8.5q20 0 33.5 -13.5t13.5 -36.5q0 -17 -8.5 -31.5t-22.5 -23t-31 -8.5z" />
    <glyph glyph-name="edieresis.ss01" horiz-adv-x="563" 
d="M256 -10q-65 0 -114 28t-76 78.5t-27 117.5q0 51 14.5 97t40.5 84t62 66t79 43.5t91 15.5q62 0 108.5 -25t72 -70t25.5 -105q0 -23 -4.5 -45.5t-14.5 -43.5h-413l15 67h363l-34 -54q9 37 8.5 73.5t-14 67t-41.5 49t-75 18.5q-33 0 -63 -12t-55 -33.5t-44 -51t-29 -65
t-10 -74.5q0 -74 39 -116t107 -42q46 0 80 20.5t58 62.5h76q-37 -76 -94 -113.5t-131 -37.5zM247 607q-21 0 -34.5 14.5t-13.5 36.5q0 26 18.5 44t44.5 18q21 0 34.5 -13.5t13.5 -36.5q0 -26 -18.5 -44.5t-44.5 -18.5zM476 607q-21 0 -34.5 14.5t-13.5 36.5q0 26 18.5 44
t44.5 18q21 0 34.5 -13.5t13.5 -36.5q0 -26 -18.5 -44.5t-44.5 -18.5z" />
    <glyph glyph-name="edotaccent.ss01" horiz-adv-x="563" 
d="M256 -10q-65 0 -114 28t-76 78.5t-27 117.5q0 51 14.5 97t40.5 84t62 66t79 43.5t91 15.5q62 0 108.5 -25t72 -70t25.5 -105q0 -23 -4.5 -45.5t-14.5 -43.5h-413l15 67h363l-34 -54q9 37 8.5 73.5t-14 67t-41.5 49t-75 18.5q-33 0 -63 -12t-55 -33.5t-44 -51t-29 -65
t-10 -74.5q0 -74 39 -116t107 -42q46 0 80 20.5t58 62.5h76q-37 -76 -94 -113.5t-131 -37.5zM362 607q-21 0 -34.5 14.5t-13.5 36.5q0 17 8.5 31t23 22.5t31.5 8.5q20 0 33.5 -13.5t13.5 -36.5q0 -17 -8.5 -31.5t-22.5 -23t-31 -8.5z" />
    <glyph glyph-name="uni0123.ss01" 
d="M210 -215q-64 0 -112.5 19t-76.5 54t-32 82h74q10 -48 50.5 -67.5t97.5 -19.5q65 0 112.5 38t64.5 112l23 99l5 -13q-30 -48 -78.5 -73.5t-107.5 -25.5q-89 0 -140 57t-51 154q0 66 21.5 123.5t60 101t88.5 68.5t107 25q49 0 86 -18t59 -50t25 -74l-10 -10l34 143h75
l-119 -515q-23 -100 -90.5 -155t-165.5 -55zM252 60q33 0 63.5 12t55.5 33.5t44 51t29 64.5t10 73q0 72 -36.5 113.5t-98.5 41.5q-56 0 -101 -32t-71 -85.5t-26 -118.5q0 -70 35 -111.5t96 -41.5zM365 576q-22 0 -36 15.5t-14 46.5q0 28 11.5 55.5t31 51t44.5 39.5t52 20
l-9 -40q-31 -9 -50.5 -32t-26.5 -53h-24q15 9 31 9q23 0 37 -13.5t14 -35.5q0 -25 -17.5 -44t-43.5 -19z" />
    <glyph glyph-name="gdotaccent.ss01" 
d="M210 -215q-64 0 -112.5 19t-76.5 54t-32 82h74q10 -48 50.5 -67.5t97.5 -19.5q65 0 112.5 38t64.5 112l23 99l5 -13q-30 -48 -78.5 -73.5t-107.5 -25.5q-89 0 -140 57t-51 154q0 66 21.5 123.5t60 101t88.5 68.5t107 25q49 0 86 -18t59 -50t25 -74l-10 -10l34 143h75
l-119 -515q-23 -100 -90.5 -155t-165.5 -55zM252 60q33 0 63.5 12t55.5 33.5t44 51t29 64.5t10 73q0 72 -36.5 113.5t-98.5 41.5q-56 0 -101 -32t-71 -85.5t-26 -118.5q0 -70 35 -111.5t96 -41.5zM369 607q-21 0 -34.5 14.5t-13.5 36.5q0 17 8.5 31t23 22.5t31.5 8.5
q20 0 33.5 -13.5t13.5 -36.5q0 -17 -8.5 -31.5t-22.5 -23t-31 -8.5z" />
    <glyph glyph-name="i.ss01" horiz-adv-x="241" 
d="M22 0l117 510h80l-117 -510h-80zM207 607q-21 0 -34.5 14.5t-13.5 36.5q0 17 8.5 31t23 22.5t31.5 8.5q20 0 33.5 -13.5t13.5 -36.5q0 -17 -8.5 -31.5t-22.5 -23t-31 -8.5z" />
    <glyph glyph-name="idieresis.ss01" horiz-adv-x="241" 
d="M22 0l117 510h80l-117 -510h-80zM92 607q-21 0 -34.5 14.5t-13.5 36.5q0 26 18.5 44t44.5 18q21 0 34.5 -13.5t13.5 -36.5q0 -26 -18.5 -44.5t-44.5 -18.5zM321 607q-21 0 -34.5 14.5t-13.5 36.5q0 26 18.5 44t44.5 18q21 0 34.5 -13.5t13.5 -36.5q0 -26 -18.5 -44.5
t-44.5 -18.5z" />
    <glyph glyph-name="i.loclTRK.ss01" horiz-adv-x="241" 
d="M22 0l117 510h80l-117 -510h-80zM207 607q-21 0 -34.5 14.5t-13.5 36.5q0 17 8.5 31t23 22.5t31.5 8.5q20 0 33.5 -13.5t13.5 -36.5q0 -17 -8.5 -31.5t-22.5 -23t-31 -8.5z" />
    <glyph glyph-name="ij.ss01" horiz-adv-x="474" 
d="M22 0l117 510h80l-117 -510h-80zM207 607q-21 0 -34.5 14.5t-13.5 36.5q0 17 8.5 31t23 22.5t31.5 8.5q20 0 33.5 -13.5t13.5 -36.5q0 -17 -8.5 -31.5t-22.5 -23t-31 -8.5zM172 -215q-14 0 -37.5 3t-40.5 11l14 62q8 -4 24.5 -8t32.5 -4q31 0 47 16t23 46l138 599h80
l-141 -611q-13 -55 -46.5 -84.5t-93.5 -29.5zM441 607q-21 0 -34.5 14.5t-13.5 36.5q0 17 8.5 31t23 22.5t31.5 8.5q20 0 33.5 -13.5t13.5 -36.5q0 -17 -8.5 -31.5t-22.5 -23t-31 -8.5z" />
    <glyph glyph-name="iogonek.ss01" horiz-adv-x="241" 
d="M22 0l117 510h80l-117 -510h-80zM207 607q-21 0 -34.5 14.5t-13.5 36.5q0 17 8.5 31t23 22.5t31.5 8.5q20 0 33.5 -13.5t13.5 -36.5q0 -17 -8.5 -31.5t-22.5 -23t-31 -8.5zM-1 -216q-38 0 -60 18.5t-22 51.5q0 44 44 88t119 78l22 -20q-60 -39 -91.5 -73t-31.5 -63
q0 -13 7.5 -20.5t20.5 -7.5q16 0 30 11l22 -46q-15 -9 -29 -13t-31 -4z" />
    <glyph glyph-name="j.ss01" horiz-adv-x="240" 
d="M-62 -215q-14 0 -37.5 3t-40.5 11l14 62q8 -4 24.5 -8t32.5 -4q31 0 47 16t23 46l138 599h80l-141 -611q-13 -55 -46.5 -84.5t-93.5 -29.5zM207 607q-21 0 -34.5 14.5t-13.5 36.5q0 17 8.5 31t23 22.5t31.5 8.5q20 0 33.5 -13.5t13.5 -36.5q0 -17 -8.5 -31.5t-22.5 -23
t-31 -8.5z" />
    <glyph glyph-name="uni0137.ss01" horiz-adv-x="535" 
d="M21 0l171 740h80l-171 -740h-80zM365 0l-221 265l308 245h120l-345 -268l-5 47l242 -289h-99zM114 -295l9 40q32 9 51 32t26 53h24q-15 -9 -31 -9q-22 0 -36.5 13.5t-14.5 35.5q0 26 17.5 44.5t43.5 18.5q23 0 36.5 -15.5t13.5 -46.5q0 -28 -11.5 -55.5t-31 -51
t-44.5 -39t-52 -20.5z" />
    <glyph glyph-name="uni013C.ss01" horiz-adv-x="240" 
d="M21 0l166 720h80l-166 -720h-80zM-54 -295l9 40q32 9 51 32t26 53h24q-15 -9 -31 -9q-22 0 -36.5 13.5t-14.5 35.5q0 26 17.5 44.5t43.5 18.5q23 0 36.5 -15.5t13.5 -46.5q0 -28 -11.5 -55.5t-31 -51t-44.5 -39t-52 -20.5z" />
    <glyph glyph-name="uni0146.ss01" horiz-adv-x="599" 
d="M22 0l117 510h75l-27 -120h5l-90 -390h-80zM386 0l72 313q16 68 -10 103.5t-86 35.5q-71 0 -123.5 -45.5t-71.5 -124.5l15 125q38 54 91.5 83.5t112.5 29.5q90 0 132 -55t21 -148l-73 -317h-80zM143 -295l9 40q32 9 51 32t26 53h24q-15 -9 -31 -9q-22 0 -36.5 13.5
t-14.5 35.5q0 26 17.5 44.5t43.5 18.5q23 0 36.5 -15.5t13.5 -46.5q0 -28 -11.5 -55.5t-31 -51t-44.5 -39t-52 -20.5z" />
    <glyph glyph-name="odieresis.ss01" horiz-adv-x="584" 
d="M256 -10q-64 0 -113 28.5t-76.5 79.5t-27.5 118q0 63 22.5 118t62 97t91.5 65.5t112 23.5q66 0 115 -28t76 -78.5t27 -117.5q0 -63 -23 -118.5t-63 -97.5t-92 -66t-111 -24zM260 58q41 0 78 18.5t65 51t44 75.5t16 92q0 72 -37.5 114.5t-102.5 42.5q-42 0 -78.5 -18
t-64 -50t-43.5 -74.5t-16 -91.5q0 -73 38 -116.5t101 -43.5zM262 607q-21 0 -34.5 14.5t-13.5 36.5q0 26 18.5 44t44.5 18q21 0 34.5 -13.5t13.5 -36.5q0 -26 -18.5 -44.5t-44.5 -18.5zM491 607q-21 0 -34.5 14.5t-13.5 36.5q0 26 18.5 44t44.5 18q21 0 34.5 -13.5
t13.5 -36.5q0 -26 -18.5 -44.5t-44.5 -18.5z" />
    <glyph glyph-name="uni0157.ss01" horiz-adv-x="375" 
d="M21 0l118 510h75l-30 -130h5l-88 -380h-80zM166 283l14 122q26 51 74.5 83t107.5 32q17 0 29 -2.5t19 -5.5l-18 -77q-8 3 -24.5 5.5t-31.5 2.5q-65 0 -109 -41t-61 -119zM-54 -295l9 40q32 9 51 32t26 53h24q-15 -9 -31 -9q-22 0 -36.5 13.5t-14.5 35.5q0 26 17.5 44.5
t43.5 18.5q23 0 36.5 -15.5t13.5 -46.5q0 -28 -11.5 -55.5t-31 -51t-44.5 -39t-52 -20.5z" />
    <glyph glyph-name="uni0219.ss01" horiz-adv-x="467" 
d="M217 -10q-61 0 -107 21t-71 58.5t-23 87.5h77q1 -31 17.5 -53.5t45 -35t65.5 -12.5q50 0 80.5 22t30.5 59q0 25 -16 41.5t-51 30.5l-73 31q-55 23 -81.5 53.5t-26.5 73.5q0 45 24 79.5t65.5 54t95.5 19.5q53 0 94 -19t64.5 -52.5t24.5 -79.5h-76q-3 27 -17.5 46t-39 29
t-58.5 10q-45 0 -72 -20t-27 -55q0 -23 16 -39.5t51 -31.5l71 -30q56 -24 82.5 -56t26.5 -76q0 -47 -23.5 -82.5t-66.5 -54.5t-102 -19zM76 -295l9 40q32 9 51 32t26 53h24q-15 -9 -31 -9q-22 0 -36.5 13.5t-14.5 35.5q0 26 17.5 44.5t43.5 18.5q23 0 36.5 -15.5t13.5 -46.5
q0 -28 -11.5 -55.5t-31 -51t-44.5 -39t-52 -20.5z" />
    <glyph glyph-name="uni021B.ss01" horiz-adv-x="377" 
d="M227 -9q-85 0 -115 43.5t-13 116.5l110 478l87 30l-120 -520q-9 -41 8.5 -60.5t66.5 -19.5q20 0 34.5 2.5t24.5 6.5l-15 -68q-11 -4 -28 -6.5t-40 -2.5zM61 442l15 68h336l-15 -68h-336zM73 -295l9 40q32 9 51 32t26 53h24q-15 -9 -31 -9q-22 0 -36.5 13.5t-14.5 35.5
q0 26 17.5 44.5t43.5 18.5q23 0 36.5 -15.5t13.5 -46.5q0 -28 -11.5 -55.5t-31 -51t-44.5 -39t-52 -20.5z" />
    <glyph glyph-name="udieresis.ss01" horiz-adv-x="589" 
d="M209 -10q-87 0 -129 55t-20 148l73 317h80l-72 -313q-16 -67 9.5 -103t82.5 -36q68 0 119.5 45.5t70.5 124.5l-15 -125q-38 -54 -90.5 -83.5t-108.5 -29.5zM375 0l28 120h-5l90 390h80l-118 -510h-75zM267 607q-21 0 -34.5 14.5t-13.5 36.5q0 26 18.5 44t44.5 18
q21 0 34.5 -13.5t13.5 -36.5q0 -26 -18.5 -44.5t-44.5 -18.5zM496 607q-21 0 -34.5 14.5t-13.5 36.5q0 26 18.5 44t44.5 18q21 0 34.5 -13.5t13.5 -36.5q0 -26 -18.5 -44.5t-44.5 -18.5z" />
    <glyph glyph-name="wdieresis.ss01" horiz-adv-x="767" 
d="M125 0l-38 510h78l19 -437h-20l245 437h65l44 -437h-23l220 437h83l-274 -510h-65l-45 427h24l-245 -427h-68zM356 607q-21 0 -34.5 14.5t-13.5 36.5q0 26 18.5 44t44.5 18q21 0 34.5 -13.5t13.5 -36.5q0 -26 -18.5 -44.5t-44.5 -18.5zM585 607q-21 0 -34.5 14.5
t-13.5 36.5q0 26 18.5 44t44.5 18q21 0 34.5 -13.5t13.5 -36.5q0 -26 -18.5 -44.5t-44.5 -18.5z" />
    <glyph glyph-name="ydieresis.ss01" horiz-adv-x="523" 
d="M11 -205l175 265l24 28l265 422h89l-461 -715h-92zM187 -5l-110 515h82l90 -461zM234 607q-21 0 -34.5 14.5t-13.5 36.5q0 26 18.5 44t44.5 18q21 0 34.5 -13.5t13.5 -36.5q0 -26 -18.5 -44.5t-44.5 -18.5zM463 607q-21 0 -34.5 14.5t-13.5 36.5q0 26 18.5 44t44.5 18
q21 0 34.5 -13.5t13.5 -36.5q0 -26 -18.5 -44.5t-44.5 -18.5z" />
    <glyph glyph-name="zdotaccent.ss01" horiz-adv-x="497" 
d="M-4 0l13 58l398 421l31 -37h-330l16 68h376l-14 -58l-397 -421l-31 37h350l-16 -68h-396zM336 607q-21 0 -34.5 14.5t-13.5 36.5q0 17 8.5 31t23 22.5t31.5 8.5q20 0 33.5 -13.5t13.5 -36.5q0 -17 -8.5 -31.5t-22.5 -23t-31 -8.5z" />
    <glyph glyph-name="a.ss02" 
d="M230 -10q-89 0 -140 57t-51 154q0 66 21.5 123.5t60 101t88.5 68.5t107 25q51 0 89 -19.5t59.5 -54t21.5 -80.5l-11 -1l35 146h75l-118 -510h-75l24 102l5 -4q-29 -52 -79 -80t-112 -28zM252 60q33 0 63.5 12t55.5 33.5t44 51t29 64.5t10 73q0 72 -36.5 113.5t-98.5 41.5
q-56 0 -101 -32t-71 -85.5t-26 -118.5q0 -70 35 -111.5t96 -41.5z" />
    <glyph glyph-name="aacute.ss02" 
d="M230 -10q-89 0 -140 57t-51 154q0 66 21.5 123.5t60 101t88.5 68.5t107 25q51 0 89 -19.5t59.5 -54t21.5 -80.5l-11 -1l35 146h75l-118 -510h-75l24 102l5 -4q-29 -52 -79 -80t-112 -28zM252 60q33 0 63.5 12t55.5 33.5t44 51t29 64.5t10 73q0 72 -36.5 113.5t-98.5 41.5
q-56 0 -101 -32t-71 -85.5t-26 -118.5q0 -70 35 -111.5t96 -41.5zM376 583h-76l139 157h133z" />
    <glyph glyph-name="abreve.ss02" 
d="M230 -10q-89 0 -140 57t-51 154q0 66 21.5 123.5t60 101t88.5 68.5t107 25q51 0 89 -19.5t59.5 -54t21.5 -80.5l-11 -1l35 146h75l-118 -510h-75l24 102l5 -4q-29 -52 -79 -80t-112 -28zM252 60q33 0 63.5 12t55.5 33.5t44 51t29 64.5t10 73q0 72 -36.5 113.5t-98.5 41.5
q-56 0 -101 -32t-71 -85.5t-26 -118.5q0 -70 35 -111.5t96 -41.5zM399 578q-39 0 -70.5 12.5t-52 35t-27.5 52t2 62.5h63q-8 -27 1 -48.5t32.5 -34t57.5 -12.5q46 0 74 24t37 71h65q-15 -76 -63 -119t-119 -43z" />
    <glyph glyph-name="uni01CE.ss02" 
d="M230 -10q-89 0 -140 57t-51 154q0 66 21.5 123.5t60 101t88.5 68.5t107 25q51 0 89 -19.5t59.5 -54t21.5 -80.5l-11 -1l35 146h75l-118 -510h-75l24 102l5 -4q-29 -52 -79 -80t-112 -28zM252 60q33 0 63.5 12t55.5 33.5t44 51t29 64.5t10 73q0 72 -36.5 113.5t-98.5 41.5
q-56 0 -101 -32t-71 -85.5t-26 -118.5q0 -70 35 -111.5t96 -41.5zM337 583l-106 157h67l119 -137h-80l181 137h83l-178 -157h-86z" />
    <glyph glyph-name="acircumflex.ss02" 
d="M230 -10q-89 0 -140 57t-51 154q0 66 21.5 123.5t60 101t88.5 68.5t107 25q51 0 89 -19.5t59.5 -54t21.5 -80.5l-11 -1l35 146h75l-118 -510h-75l24 102l5 -4q-29 -52 -79 -80t-112 -28zM252 60q33 0 63.5 12t55.5 33.5t44 51t29 64.5t10 73q0 72 -36.5 113.5t-98.5 41.5
q-56 0 -101 -32t-71 -85.5t-26 -118.5q0 -70 35 -111.5t96 -41.5zM195 583l178 157h86l106 -157h-67l-119 137h80l-181 -137h-83z" />
    <glyph glyph-name="adieresis.ss02" 
d="M230 -10q-89 0 -140 57t-51 154q0 66 21.5 123.5t60 101t88.5 68.5t107 25q51 0 89 -19.5t59.5 -54t21.5 -80.5l-11 -1l35 146h75l-118 -510h-75l24 102l5 -4q-29 -52 -79 -80t-112 -28zM252 60q33 0 63.5 12t55.5 33.5t44 51t29 64.5t10 73q0 72 -36.5 113.5t-98.5 41.5
q-56 0 -101 -32t-71 -85.5t-26 -118.5q0 -70 35 -111.5t96 -41.5zM458 626l21 94h92l-21 -94h-92zM229 626l21 94h92l-21 -94h-92z" />
    <glyph glyph-name="agrave.ss02" 
d="M230 -10q-89 0 -140 57t-51 154q0 66 21.5 123.5t60 101t88.5 68.5t107 25q51 0 89 -19.5t59.5 -54t21.5 -80.5l-11 -1l35 146h75l-118 -510h-75l24 102l5 -4q-29 -52 -79 -80t-112 -28zM252 60q33 0 63.5 12t55.5 33.5t44 51t29 64.5t10 73q0 72 -36.5 113.5t-98.5 41.5
q-56 0 -101 -32t-71 -85.5t-26 -118.5q0 -70 35 -111.5t96 -41.5zM393 583l-133 157h113l87 -157h-67z" />
    <glyph glyph-name="amacron.ss02" 
d="M230 -10q-89 0 -140 57t-51 154q0 66 21.5 123.5t60 101t88.5 68.5t107 25q51 0 89 -19.5t59.5 -54t21.5 -80.5l-11 -1l35 146h75l-118 -510h-75l24 102l5 -4q-29 -52 -79 -80t-112 -28zM252 60q33 0 63.5 12t55.5 33.5t44 51t29 64.5t10 73q0 72 -36.5 113.5t-98.5 41.5
q-56 0 -101 -32t-71 -85.5t-26 -118.5q0 -70 35 -111.5t96 -41.5zM220 642l14 58h346l-14 -58h-346z" />
    <glyph glyph-name="aogonek.ss02" 
d="M230 -10q-89 0 -140 57t-51 154q0 66 21.5 123.5t60 101t88.5 68.5t107 25q51 0 89 -19.5t59.5 -54t21.5 -80.5l-11 -1l35 146h75l-118 -510h-75l24 102l5 -4q-29 -52 -79 -80t-112 -28zM252 60q33 0 63.5 12t55.5 33.5t44 51t29 64.5t10 73q0 72 -36.5 113.5t-98.5 41.5
q-56 0 -101 -32t-71 -85.5t-26 -118.5q0 -70 35 -111.5t96 -41.5zM365 -216q-38 0 -60 18.5t-22 51.5q0 44 44 88t119 78l22 -20q-60 -39 -91.5 -73t-31.5 -63q0 -13 7.5 -20.5t20.5 -7.5q16 0 30 11l22 -46q-15 -9 -29 -13t-31 -4z" />
    <glyph glyph-name="aring.ss02" 
d="M230 -10q-89 0 -140 57t-51 154q0 66 21.5 123.5t60 101t88.5 68.5t107 25q51 0 89 -19.5t59.5 -54t21.5 -80.5l-11 -1l35 146h75l-118 -510h-75l24 102l5 -4q-29 -52 -79 -80t-112 -28zM252 60q33 0 63.5 12t55.5 33.5t44 51t29 64.5t10 73q0 72 -36.5 113.5t-98.5 41.5
q-56 0 -101 -32t-71 -85.5t-26 -118.5q0 -70 35 -111.5t96 -41.5zM388 561q-41 0 -69 27.5t-28 68.5q0 33 16 60t42.5 43t57.5 16q42 0 70 -27.5t28 -68.5q0 -31 -16.5 -58.5t-43 -44t-57.5 -16.5zM392 611q25 0 43 19.5t18 45.5q0 22 -14.5 36.5t-35.5 14.5
q-23 0 -41.5 -19t-18.5 -45q0 -22 14 -37t35 -15z" />
    <glyph glyph-name="atilde.ss02" 
d="M230 -10q-89 0 -140 57t-51 154q0 66 21.5 123.5t60 101t88.5 68.5t107 25q51 0 89 -19.5t59.5 -54t21.5 -80.5l-11 -1l35 146h75l-118 -510h-75l24 102l5 -4q-29 -52 -79 -80t-112 -28zM252 60q33 0 63.5 12t55.5 33.5t44 51t29 64.5t10 73q0 72 -36.5 113.5t-98.5 41.5
q-56 0 -101 -32t-71 -85.5t-26 -118.5q0 -70 35 -111.5t96 -41.5zM471 593q-28 0 -49.5 10.5t-39.5 24t-35 24t-36 10.5q-20 0 -34.5 -14t-22.5 -45h-58q6 34 23.5 61t44.5 42.5t60 15.5q30 0 51 -10.5t37.5 -24t33 -24t37.5 -10.5q20 0 34.5 14t21.5 45h58
q-9 -55 -44.5 -87t-81.5 -32z" />
    <glyph glyph-name="y.ss03" horiz-adv-x="523" 
d="M9 -215q-16 0 -29 2.5t-21 5.5l15 63q7 -3 19.5 -5t27.5 -2q37 0 59.5 16.5t50.5 65.5l66 110l20 33l260 436h87l-379 -613q-27 -44 -53 -68.5t-55.5 -34t-67.5 -9.5zM187 -5l-110 515h82l90 -461z" />
    <glyph glyph-name="yacute.ss03" horiz-adv-x="523" 
d="M9 -215q-16 0 -29 2.5t-21 5.5l15 63q7 -3 19.5 -5t27.5 -2q37 0 59.5 16.5t50.5 65.5l66 110l20 33l260 436h87l-379 -613q-27 -44 -53 -68.5t-55.5 -34t-67.5 -9.5zM187 -5l-110 515h82l90 -461zM336 583h-76l139 157h133z" />
    <glyph glyph-name="ycircumflex.ss03" horiz-adv-x="523" 
d="M9 -215q-16 0 -29 2.5t-21 5.5l15 63q7 -3 19.5 -5t27.5 -2q37 0 59.5 16.5t50.5 65.5l66 110l20 33l260 436h87l-379 -613q-27 -44 -53 -68.5t-55.5 -34t-67.5 -9.5zM187 -5l-110 515h82l90 -461zM155 583l178 157h86l106 -157h-67l-119 137h80l-181 -137h-83z" />
    <glyph glyph-name="ydieresis.ss03" horiz-adv-x="523" 
d="M9 -215q-16 0 -29 2.5t-21 5.5l15 63q7 -3 19.5 -5t27.5 -2q37 0 59.5 16.5t50.5 65.5l66 110l20 33l260 436h87l-379 -613q-27 -44 -53 -68.5t-55.5 -34t-67.5 -9.5zM187 -5l-110 515h82l90 -461zM418 626l21 94h92l-21 -94h-92zM189 626l21 94h92l-21 -94h-92z" />
    <glyph glyph-name="ygrave.ss03" horiz-adv-x="523" 
d="M9 -215q-16 0 -29 2.5t-21 5.5l15 63q7 -3 19.5 -5t27.5 -2q37 0 59.5 16.5t50.5 65.5l66 110l20 33l260 436h87l-379 -613q-27 -44 -53 -68.5t-55.5 -34t-67.5 -9.5zM187 -5l-110 515h82l90 -461zM353 583l-133 157h113l87 -157h-67z" />
    <glyph glyph-name="k.ss04" horiz-adv-x="535" 
d="M21 0l166 720h80l-166 -720h-80zM135 231l324 279h110l-272 -233l-10 -1l-171 -142zM321 304l143 -304h-85l-127 280z" />
    <glyph glyph-name="uni0137.ss04" horiz-adv-x="535" 
d="M21 0l166 720h80l-166 -720h-80zM135 231l324 279h110l-272 -233l-10 -1l-171 -142zM321 304l143 -304h-85l-127 280zM108 -296l9 41q30 11 51 32t28 54l28 -5h-88l23 102h105l-20 -88q-12 -51 -45 -85t-91 -51z" />
    <glyph glyph-name="adieresis.ss01.ss02" 
d="M230 -10q-89 0 -140 57t-51 154q0 66 21.5 123.5t60 101t88.5 68.5t107 25q51 0 89 -19.5t59.5 -54t21.5 -80.5l-11 -1l35 146h75l-118 -510h-75l24 102l5 -4q-29 -52 -79 -80t-112 -28zM252 60q33 0 63.5 12t55.5 33.5t44 51t29 64.5t10 73q0 72 -36.5 113.5t-98.5 41.5
q-56 0 -101 -32t-71 -85.5t-26 -118.5q0 -70 35 -111.5t96 -41.5zM276 607q-21 0 -34.5 14.5t-13.5 36.5q0 26 18.5 44t44.5 18q21 0 34.5 -13.5t13.5 -36.5q0 -26 -18.5 -44.5t-44.5 -18.5zM505 607q-21 0 -34.5 14.5t-13.5 36.5q0 26 18.5 44t44.5 18q21 0 34.5 -13.5
t13.5 -36.5q0 -26 -18.5 -44.5t-44.5 -18.5z" />
    <glyph glyph-name="ydieresis.ss01.ss03" horiz-adv-x="523" 
d="M9 -215q-16 0 -29 2.5t-21 5.5l15 63q7 -3 19.5 -5t27.5 -2q37 0 59.5 16.5t50.5 65.5l66 110l20 33l260 436h87l-379 -613q-27 -44 -53 -68.5t-55.5 -34t-67.5 -9.5zM187 -5l-110 515h82l90 -461zM236 607q-21 0 -34.5 14.5t-13.5 36.5q0 26 18.5 44t44.5 18
q21 0 34.5 -13.5t13.5 -36.5q0 -26 -18.5 -44.5t-44.5 -18.5zM465 607q-21 0 -34.5 14.5t-13.5 36.5q0 26 18.5 44t44.5 18q21 0 34.5 -13.5t13.5 -36.5q0 -26 -18.5 -44.5t-44.5 -18.5z" />
    <glyph glyph-name="uni0137.ss01.ss04" horiz-adv-x="535" 
d="M21 0l166 720h80l-166 -720h-80zM135 231l324 279h110l-272 -233l-10 -1l-171 -142zM321 304l143 -304h-85l-127 280zM114 -295l9 40q32 9 51 32t26 53h24q-15 -9 -31 -9q-22 0 -36.5 13.5t-14.5 35.5q0 26 17.5 44.5t43.5 18.5q23 0 36.5 -15.5t13.5 -46.5
q0 -28 -11.5 -55.5t-31 -51t-44.5 -39t-52 -20.5z" />
    <glyph glyph-name="f_f_i.ss01" horiz-adv-x="928" 
d="M385 0l137 596q14 62 56.5 98t118.5 36q17 0 36 -3t33 -8l-16 -62q-8 4 -22 6.5t-29 2.5q-44 0 -67.5 -22.5t-32.5 -60.5l-134 -583h-80zM63 0l137 596q14 62 56.5 98t118.5 36q17 0 36 -3t33 -8l-16 -62q-8 4 -22 6.5t-29 2.5q-44 0 -67.5 -22.5t-32.5 -60.5l-134 -583
h-80zM61 442l15 68h793l-15 -68h-793zM707 0l118 510h80l-118 -510h-80zM893 607q-22 0 -35 15.5t-13 35.5q0 28 18.5 45t44.5 17q22 0 35 -14t13 -36q0 -28 -19 -45.5t-44 -17.5z" />
    <glyph glyph-name="f_i.ss01" horiz-adv-x="616" 
d="M63 0l137 596q14 62 56.5 98t118.5 36q17 0 36 -3t33 -8l-16 -62q-8 4 -22 6.5t-29 2.5q-44 0 -67.5 -22.5t-32.5 -60.5l-134 -583h-80zM385 0l118 510h80l-118 -510h-80zM571 607q-22 0 -35 15.5t-13 35.5q0 28 18.5 45t44.5 17q22 0 35 -14t13 -36q0 -28 -19 -45.5
t-44 -17.5zM61 442l15 68h471l-15 -68h-471z" />
    <glyph glyph-name="two.ss10" horiz-adv-x="545" 
d="M-19 0l19 79q14 58 46.5 100t76 73.5t91.5 56.5t94 48.5t83.5 49.5t60 60t22.5 80q0 53 -31.5 82t-86.5 29q-60 0 -108.5 -36.5t-69.5 -110.5h-85q29 110 99.5 164.5t166.5 54.5q56 0 102.5 -19t74 -59.5t27.5 -105.5q0 -60 -24 -103.5t-63.5 -76.5t-88 -59t-98 -50.5
t-93 -51.5t-74 -61.5t-39.5 -81.5l-20 10h412l-17 -72h-477z" />
    <glyph glyph-name="zero.tf" horiz-adv-x="600" 
d="M268 -10q-69 0 -118.5 35t-76 97.5t-26.5 143.5q0 48 9.5 100.5t28.5 104.5t47 98.5t64.5 82.5t82.5 57t100 21q70 0 120 -34.5t77 -96t27 -142.5q0 -47 -9.5 -100t-29 -105.5t-47.5 -99.5t-65.5 -83.5t-83.5 -57.5t-100 -21zM272 62q43 0 77 21t60.5 56t45.5 78.5
t31.5 90t18.5 90t6 77.5q0 86 -35 134.5t-100 48.5q-43 0 -77.5 -20t-60.5 -54.5t-45 -77t-31 -88.5t-17.5 -89t-5.5 -77q0 -85 33 -137.5t100 -52.5z" />
    <glyph glyph-name="one.tf" horiz-adv-x="600" 
d="M252 18l144 623l18 -7q-16 -22 -51 -45.5t-80.5 -39.5t-95.5 -18l17 77q46 3 90 18t80.5 39.5t58.5 54.5h64l-164 -713zM55 0l17 72h440l-17 -72h-440z" />
    <glyph glyph-name="two.tf" horiz-adv-x="600" 
d="M16 0l16 70q128 90 216 160t142 126.5t78 103.5t24 89q0 51 -31 80t-84 29q-58 0 -97 -38t-62 -109h-89q28 104 96 161.5t164 57.5q90 0 142.5 -48t52.5 -128q0 -53 -26.5 -108t-83.5 -116.5t-148 -134.5t-221 -162l-9 39h393l-16 -72h-457z" />
    <glyph glyph-name="three.tf" horiz-adv-x="600" 
d="M280 -11q-55 0 -99 17t-74.5 47.5t-43.5 72.5t-7 91h89q-3 -35 4 -63.5t24.5 -49.5t44 -32t60.5 -11q32 0 59.5 10.5t47.5 30.5t31 49.5t11 66.5q0 55 -25.5 89.5t-76.5 34.5h-80l15 70h78q44 0 77.5 17t52.5 47t19 70q0 52 -29.5 81t-86.5 29t-95.5 -34t-56.5 -101h-89
q25 99 90.5 153.5t154.5 54.5q62 0 107.5 -22t70.5 -61t25 -91q0 -43 -17 -80t-46.5 -63.5t-66.5 -38.5t-77 -5l-1 20q70 -10 109.5 -55.5t39.5 -118.5q0 -49 -17.5 -90t-49.5 -71.5t-75.5 -47t-96.5 -16.5z" />
    <glyph glyph-name="four.tf" horiz-adv-x="600" 
d="M326 0l44 190l6 20l95 411h33l-382 -416l-25 33h455l-17 -72h-511l15 62l457 492h82l-166 -720h-86z" />
    <glyph glyph-name="five.tf" horiz-adv-x="600" 
d="M270 -10q-53 0 -94.5 17.5t-70 47.5t-41.5 66.5t-8 75.5h84q-2 -34 13 -65t45.5 -50.5t72.5 -19.5q30 0 55.5 10t46 28.5t35 43.5t22 54.5t7.5 61.5q0 71 -34.5 107t-89.5 36q-36 0 -65 -14.5t-51 -46.5h-73l119 378h363l-16 -72h-314l35 30l-90 -290l-11 23
q23 27 55 42.5t75 15.5q54 0 96.5 -26t67.5 -73.5t25 -112.5q0 -46 -12.5 -86t-36 -73.5t-55.5 -57.5t-71.5 -37t-83.5 -13z" />
    <glyph glyph-name="six.tf" horiz-adv-x="600" 
d="M288 -11q-64 0 -112 29t-74.5 85t-26.5 138q0 45 8 97.5t24 107.5t42 105t61.5 90t82.5 63t105 23q46 0 83.5 -16t63.5 -43.5t38.5 -63t8.5 -73.5h-86q3 29 -8 57.5t-38 47.5t-73 19q-52 0 -92 -30t-69.5 -92.5t-50.5 -158.5l-14 -64l-16 11q18 41 50 70.5t72.5 46
t81.5 16.5q49 0 92.5 -23.5t71 -68.5t27.5 -112q0 -52 -18 -99t-51 -83.5t-79.5 -57.5t-103.5 -21zM295 62q41 0 70.5 18.5t48 47.5t27.5 62t9 61q0 46 -19 75t-49 43.5t-63 14.5q-34 0 -63.5 -14t-51 -39t-33.5 -56.5t-12 -66.5q0 -66 39.5 -106t96.5 -40z" />
    <glyph glyph-name="seven.tf" horiz-adv-x="600" 
d="M140 0q36 114 89 225t130.5 223.5t184.5 228.5l9 -29h-394l16 72h464l-14 -60q-150 -175 -244 -334t-143 -326h-98z" />
    <glyph glyph-name="eight.tf" horiz-adv-x="600" 
d="M272 -10q-59 0 -109 23.5t-80 67.5t-30 103q0 45 18.5 83t50 66t71.5 44t84 16l6 -12q-38 0 -68.5 19.5t-48 52.5t-17.5 75t18 79t49.5 64.5t73 43t87.5 15.5q57 0 103 -23t73.5 -63.5t27.5 -94.5q0 -40 -16.5 -73.5t-44.5 -58.5t-64.5 -38.5t-77.5 -13.5l-3 12
q40 0 73 -22t53 -59.5t20 -84.5q0 -46 -19.5 -86t-53.5 -70.5t-79.5 -47.5t-96.5 -17zM278 62q31 0 59 11.5t49.5 32t33.5 48.5t12 60q0 41 -19 69.5t-50 43.5t-67 15q-34 0 -62.5 -11.5t-49 -32.5t-31.5 -48t-11 -57q0 -41 19.5 -70.5t50.5 -45t66 -15.5zM357 412
q29 0 53.5 10t43 28t29 41.5t10.5 51.5q0 50 -33 82.5t-92 32.5q-31 0 -55.5 -10t-41.5 -28t-25.5 -41t-8.5 -50q0 -58 36 -87.5t84 -29.5z" />
    <glyph glyph-name="nine.tf" horiz-adv-x="600" 
d="M247 -11q-46 0 -84 17t-64.5 46.5t-38.5 70t-8 86.5h86q-3 -39 8 -72.5t37.5 -54.5t70.5 -21q52 0 93.5 32t72.5 97t51 162l13 64l16 -11q-17 -40 -49.5 -70t-72 -46.5t-79.5 -16.5q-36 0 -70 13t-61 38.5t-43 62.5t-16 85q0 50 18 96t51 82t79 57t103 21q63 0 111 -29
t74.5 -84.5t26.5 -137.5q0 -42 -8 -94t-24.5 -107t-43 -106t-62.5 -91.5t-82.5 -64.5t-104.5 -24zM328 342q34 0 63 14t50 38.5t33 55t12 63.5q0 62 -39 101.5t-97 39.5q-38 0 -66.5 -16.5t-47 -43.5t-28 -58.5t-9.5 -61.5q0 -46 19 -75.5t49 -43t61 -13.5z" />
    <glyph glyph-name="two.tf.ss10" horiz-adv-x="600" 
d="M17 0l19 79q14 58 45 100t73 73.5t87.5 56.5t89.5 48.5t79.5 49.5t57 59.5t21.5 79.5q0 54 -30.5 83t-80.5 29q-56 0 -99.5 -36.5t-64.5 -110.5h-85q29 110 94.5 164.5t157.5 54.5q53 0 98 -19t72 -59.5t27 -105.5q0 -60 -22.5 -103.5t-60.5 -76t-84 -59t-93.5 -50.5
t-89.5 -51.5t-71 -62t-38 -81.5l-20 10h391l-17 -72h-456z" />
    <glyph glyph-name="colon.case" horiz-adv-x="255" 
d="M47 131l24 103h103l-24 -103h-103zM135 511l24 103h103l-24 -103h-103z" />
    <glyph glyph-name="semicolon.case" horiz-adv-x="255" 
d="M15 -13l9 41q32 11 50.5 34.5t29.5 71.5l30 -3h-86l24 102h101l-23 -99q-15 -64 -47 -97t-88 -50zM135 511l24 103h103l-24 -103h-103z" />
    <glyph glyph-name="exclam.case" horiz-adv-x="275" 
d="M95 210l106 510h86l-130 -510h-62zM27 0l24 103h103l-24 -103h-103z" />
    <glyph glyph-name="exclamdown.case" horiz-adv-x="274" 
d="M36 0l130 510h62l-106 -510h-86zM296 720l-24 -103h-103l24 103h103z" />
    <glyph glyph-name="question.case" horiz-adv-x="567" 
d="M242 210q13 56 38 94t56.5 63.5t64 45t59.5 38t44 42t17 57.5q0 50 -38 79t-103 29q-71 0 -121 -37t-76 -110h-80q22 72 61.5 120.5t96 73.5t127.5 25q67 0 114.5 -21t73 -60.5t25.5 -95.5q0 -47 -17.5 -79t-46 -54t-62 -41.5t-65.5 -41t-56.5 -51.5t-35.5 -76h-76z
M180 0l24 103h103l-24 -103h-103z" />
    <glyph glyph-name="questiondown.case" horiz-adv-x="568" 
d="M228 -10q-66 0 -114 21t-73.5 61t-25.5 95q0 48 17.5 79.5t46 53.5t62 41.5t65.5 41t56.5 52t35.5 75.5h76q-12 -56 -37.5 -94t-57 -63.5t-64 -45t-59.5 -38t-44 -42t-17 -57.5q0 -50 38 -79t103 -29q71 0 121.5 37t75.5 110h80q-21 -71 -61 -120t-96.5 -74t-127.5 -25z
M436 720l-24 -103h-103l24 103h103z" />
    <glyph glyph-name="bullet.case" horiz-adv-x="720" 
d="M43 109l132 567h566l-132 -567h-566z" />
    <glyph glyph-name="periodcentered.loclCAT" horiz-adv-x="115" 
d="M82 325q-22 0 -37 14t-15 36q0 20 9 34.5t23.5 23t30.5 8.5q23 0 38 -14.5t15 -37.5q0 -26 -19 -45t-45 -19z" />
    <glyph glyph-name="period.ss01" horiz-adv-x="256" 
d="M74 -10q-22 0 -37 14t-15 36q0 20 9 34.5t23.5 23t30.5 8.5q23 0 38 -14.5t15 -37.5q0 -26 -19 -45t-45 -19z" />
    <glyph glyph-name="comma.ss01" horiz-adv-x="255" 
d="M-11 -141l10 40q29 11 49 33t31 69h24q-7 -3 -15.5 -5.5t-16.5 -2.5q-22 0 -35 14t-13 35q0 16 7.5 30.5t20.5 23.5t31 9q21 0 35.5 -14t14.5 -48q0 -36 -17.5 -75t-49.5 -69t-76 -40z" />
    <glyph glyph-name="colon.ss01" horiz-adv-x="256" 
d="M74 -10q-22 0 -37 14t-15 36q0 20 9 34.5t23.5 23t30.5 8.5q23 0 38 -14.5t15 -37.5q0 -26 -19 -45t-45 -19zM162 370q-22 0 -37 14t-15 36q0 20 9 34.5t23.5 23t30.5 8.5q23 0 38 -14.5t15 -37.5q0 -26 -19 -45t-45 -19z" />
    <glyph glyph-name="semicolon.ss01" horiz-adv-x="261" 
d="M-5 -141l10 40q29 11 49 33t31 69h24q-7 -3 -15.5 -5.5t-16.5 -2.5q-22 0 -35 14t-13 35q0 16 7.5 30.5t20.5 23.5t31 9q21 0 35.5 -14t14.5 -48q0 -36 -17.5 -75t-49.5 -69t-76 -40zM162 370q-22 0 -37 14t-15 36q0 20 9 34.5t23.5 23t30.5 8.5q23 0 38 -14.5t15 -37.5
q0 -26 -19 -45t-45 -19z" />
    <glyph glyph-name="ellipsis.ss01" horiz-adv-x="656" 
d="M74 -10q-22 0 -37 14t-15 36q0 20 9 34.5t23.5 23t30.5 8.5q23 0 38 -14.5t15 -37.5q0 -26 -19 -45t-45 -19zM274 -10q-22 0 -37 14t-15 36q0 20 9 34.5t23.5 23t30.5 8.5q23 0 38 -14.5t15 -37.5q0 -26 -19 -45t-45 -19zM474 -10q-22 0 -37 14t-15 36q0 20 9 34.5
t23.5 23t30.5 8.5q23 0 38 -14.5t15 -37.5q0 -26 -19 -45t-45 -19z" />
    <glyph glyph-name="exclam.ss01" horiz-adv-x="275" 
d="M95 210l111 530h86l-135 -530h-62zM84 -10q-22 0 -37 14t-15 36q0 20 9 34.5t23.5 23t30.5 8.5q23 0 38 -14.5t15 -37.5q0 -26 -19 -45t-45 -19z" />
    <glyph glyph-name="exclamdown.ss01" horiz-adv-x="286" 
d="M-7 -205l128 505h62l-104 -505h-86zM197 520q23 0 37.5 -14t14.5 -36q0 -19 -9 -34t-23 -23.5t-31 -8.5q-22 0 -37.5 15t-15.5 37q0 26 19 45t45 19z" />
    <glyph glyph-name="question.ss01" horiz-adv-x="567" 
d="M240 210q14 65 40.5 107.5t59 70t65 47.5t60 38t44.5 40.5t17 57.5q0 55 -41 80.5t-101 25.5q-69 0 -120 -34.5t-76 -111.5h-80q20 72 59.5 120.5t96.5 73t126 24.5q59 0 108 -18.5t78.5 -56.5t29.5 -99q0 -47 -17.5 -78.5t-46.5 -53.5t-63 -42t-67 -44t-59 -59t-39 -88
h-74zM237 -10q-22 0 -37 14t-15 36q0 20 9 34.5t23.5 23t30.5 8.5q23 0 38 -14.5t15 -37.5q0 -26 -19 -45t-45 -19z" />
    <glyph glyph-name="questiondown.ss01" horiz-adv-x="567" 
d="M178 -215q-56 0 -104 18t-77.5 56t-29.5 98q0 48 17 80.5t45 56t61 43t65 41t57 51t36 71.5h76q-13 -54 -38 -90.5t-56.5 -62t-63.5 -45t-59 -39t-43.5 -43.5t-16.5 -59q0 -55 40.5 -79.5t96.5 -24.5q69 0 120 32.5t76 94.5h80q-19 -62 -59 -106.5t-96.5 -68.5
t-126.5 -24zM323 520q23 0 37.5 -14t14.5 -36q0 -19 -9 -34t-23 -23.5t-31 -8.5q-22 0 -37.5 15t-15.5 37q0 26 19 45t45 19z" />
    <glyph glyph-name="periodcentered.ss01" horiz-adv-x="117" 
d="M82 325q-22 0 -37 14t-15 36q0 20 9 34.5t23.5 23t30.5 8.5q23 0 38 -14.5t15 -37.5q0 -26 -19 -45t-45 -19z" />
    <glyph glyph-name="bullet.ss01" horiz-adv-x="327" 
d="M181 284q-34 0 -56 21t-22 54q0 29 13.5 51.5t35 35t46.5 12.5q33 0 56 -22t23 -56q0 -39 -28.5 -67.5t-67.5 -28.5z" />
    <glyph glyph-name="periodcentered.loclCAT.case" horiz-adv-x="103" 
d="M22 353l24 103h103l-24 -103h-103z" />
    <glyph glyph-name="bullet.case.ss01" horiz-adv-x="792" 
d="M390 54q-124 0 -205 77.5t-81 197.5q0 107 49 189t128 128t170 46q123 0 207 -81t84 -205q0 -144 -104 -248t-248 -104z" />
    <glyph glyph-name="periodcentered.loclCAT.case.ss01" horiz-adv-x="117" 
d="M86 343q-22 0 -37 14t-15 36q0 20 9 34.5t23.5 23t30.5 8.5q23 0 38 -14.5t15 -37.5q0 -26 -19 -45t-45 -19z" />
    <glyph glyph-name="hyphen.case" horiz-adv-x="506" 
d="M95 322l18 76h346l-18 -76h-346z" />
    <glyph glyph-name="endash.case" horiz-adv-x="586" 
d="M96 326l16 68h426l-16 -68h-426z" />
    <glyph glyph-name="emdash.case" horiz-adv-x="886" 
d="M96 326l16 68h726l-16 -68h-726z" />
    <glyph glyph-name="parenleft.case" horiz-adv-x="406" 
d="M213 -40q-60 74 -88 153.5t-28 160.5q0 91 34 179.5t100.5 167.5t163.5 139h75q-102 -68 -168.5 -149.5t-99 -169t-32.5 -175.5q0 -83 30 -160.5t88 -145.5h-75z" />
    <glyph glyph-name="parenright.case" horiz-adv-x="406" 
d="M241 760q60 -73 88 -153t28 -161q0 -90 -34 -179t-100.5 -167.5t-163.5 -139.5h-75q103 69 169 150t98.5 169t32.5 175q0 83 -29.5 161t-88.5 145h75z" />
    <glyph glyph-name="braceleft.case" horiz-adv-x="406" 
d="M193 -40q-53 0 -82.5 25t-34 63t15.5 78l58 114q23 45 9 66.5t-56 21.5h-46l15 64h46q42 0 64.5 18.5t21.5 67.5l-2 133q-1 64 44 106.5t124 42.5h92l-14 -64h-86q-40 0 -63.5 -23t-22.5 -69l4 -115q2 -41 -10 -67.5t-33 -42t-48 -22.5q34 -19 47 -53.5t-19 -92.5
l-53 -97q-23 -43 -9.5 -66.5t53.5 -23.5h85l-15 -64h-85z" />
    <glyph glyph-name="braceright.case" horiz-adv-x="406" 
d="M261 760q53 0 82.5 -25t34.5 -63t-16 -78l-58 -114q-22 -45 -8.5 -66.5t55.5 -21.5h46l-15 -64h-46q-42 0 -64.5 -18.5t-21.5 -67.5l2 -133q1 -64 -43.5 -106.5t-124.5 -42.5h-92l14 64h86q40 0 64 23t22 69l-4 115q-1 41 10.5 67.5t32.5 42t48 22.5q-34 20 -46.5 54
t18.5 92l53 97q23 43 9.5 66.5t-53.5 23.5h-85l15 64h85z" />
    <glyph glyph-name="bracketleft.case" horiz-adv-x="407" 
d="M23 -40l184 800h256l-14 -64h-182l-155 -672h182l-15 -64h-256z" />
    <glyph glyph-name="bracketright.case" horiz-adv-x="407" 
d="M432 760l-184 -800h-256l14 64h182l155 672h-182l15 64h256z" />
    <glyph glyph-name="quotesinglbase.ss01" horiz-adv-x="266" 
d="M-11 -123l9 40q33 6 56.5 27t33.5 68h24q-6 -4 -13.5 -6.5t-18.5 -2.5q-25 0 -39.5 14t-14.5 36q0 24 17.5 43.5t46.5 19.5q22 0 36 -14t14 -47q0 -26 -9.5 -55.5t-28.5 -56t-47.5 -44.5t-65.5 -22z" />
    <glyph glyph-name="quotedblbase.ss01" horiz-adv-x="421" 
d="M-11 -123l9 40q33 6 56.5 27t33.5 68h24q-6 -4 -13.5 -6.5t-18.5 -2.5q-25 0 -39.5 14t-14.5 36q0 24 17.5 43.5t46.5 19.5q22 0 36 -14t14 -47q0 -26 -9.5 -55.5t-28.5 -56t-47.5 -44.5t-65.5 -22zM144 -123l9 40q33 6 56.5 27t33.5 68h24q-6 -4 -13.5 -6.5t-18.5 -2.5
q-25 0 -39.5 14t-14.5 36q0 24 17.5 43.5t46.5 19.5q22 0 36 -14t14 -47q0 -26 -9.5 -55.5t-28.5 -56t-47.5 -44.5t-65.5 -22z" />
    <glyph glyph-name="quotedblleft.ss01" horiz-adv-x="422" 
d="M199 491q-22 0 -36 14t-14 47q0 26 9.5 55.5t28.5 56t47.5 44.5t65.5 22l-9 -40q-33 -6 -56 -27t-34 -68h-24q6 4 14 6.5t18 2.5q25 0 39.5 -14t14.5 -36q0 -24 -17.5 -43.5t-46.5 -19.5zM354 491q-22 0 -36 14t-14 47q0 26 9.5 55.5t28.5 56t47.5 44.5t65.5 22l-9 -40
q-33 -6 -56 -27t-34 -68h-24q6 4 14 6.5t18 2.5q25 0 39.5 -14t14.5 -36q0 -24 -17.5 -43.5t-46.5 -19.5z" />
    <glyph glyph-name="quotedblright.ss01" horiz-adv-x="420" 
d="M135 511l9 40q33 6 56.5 27t33.5 68h24q-6 -4 -13.5 -6.5t-18.5 -2.5q-25 0 -39.5 14t-14.5 36q0 24 17.5 43.5t46.5 19.5q22 0 36 -14t14 -47q0 -26 -9.5 -55.5t-28.5 -56t-47.5 -44.5t-65.5 -22zM289 511l9 40q33 6 56.5 27t33.5 68h24q-6 -4 -13.5 -6.5t-18.5 -2.5
q-25 0 -39.5 14t-14.5 36q0 24 17.5 43.5t46.5 19.5q22 0 36 -14t14 -47q0 -26 -9.5 -55.5t-28.5 -56t-47.5 -44.5t-65.5 -22z" />
    <glyph glyph-name="quoteleft.ss01" horiz-adv-x="267" 
d="M199 491q-22 0 -36 14t-14 47q0 26 9.5 55.5t28.5 56t47.5 44.5t65.5 22l-9 -40q-33 -6 -56 -27t-34 -68h-24q6 4 14 6.5t18 2.5q25 0 39.5 -14t14.5 -36q0 -24 -17.5 -43.5t-46.5 -19.5z" />
    <glyph glyph-name="quoteright.ss01" horiz-adv-x="255" 
d="M130 511l9 40q33 6 56.5 27t33.5 68h24q-6 -4 -13.5 -6.5t-18.5 -2.5q-25 0 -39.5 14t-14.5 36q0 24 17.5 43.5t46.5 19.5q22 0 36 -14t14 -47q0 -26 -9.5 -55.5t-28.5 -56t-47.5 -44.5t-65.5 -22z" />
    <glyph glyph-name="ampersand.ss11" horiz-adv-x="737" 
d="M227 0q-65 0 -109.5 28t-66.5 72t-22 92q0 44 17.5 81.5t49.5 66.5t76 45t96 16v-21q-39 0 -68.5 22.5t-45.5 58.5t-16 76q0 56 32 99.5t90.5 68.5t139.5 25q38 0 85 -7t82 -26l-15 -67q-29 16 -70.5 23.5t-79.5 7.5q-71 0 -111 -21.5t-56.5 -52.5t-16.5 -61
q0 -29 13.5 -55.5t39.5 -43.5t63 -17h416l-16 -66h-435q-51 0 -93 -17t-67 -50t-25 -83q0 -52 32.5 -89t102.5 -37h235l-15 -68h-242zM425 0l129 559h82l-129 -559h-82z" />
    <glyph glyph-name="cent.ss12" horiz-adv-x="533" 
d="M239 -10q-61 0 -106 27.5t-70 76.5t-25 115q0 52 14.5 98.5t41 85.5t62.5 67.5t79 44t91 15.5q41 0 75 -13t59 -37t39 -57t14 -72h-74q-1 34 -16 58.5t-41 38.5t-62 14q-34 0 -64 -12.5t-55 -35t-43 -53t-28 -67.5t-10 -78q0 -70 33 -109t93 -39q54 0 96 29t61 81h74
q-27 -81 -91.5 -129.5t-146.5 -48.5zM163 -109l28 123l5 21l101 439l6 23l27 119h65l-28 -123l-5 -21l-101 -436l-4 -18l-29 -127h-65z" />
    <glyph glyph-name="dollar.ss12" horiz-adv-x="608" 
d="M302 -9q-61 0 -110 17t-83.5 49t-53 76.5t-18.5 99.5h80q0 -40 13 -71.5t37.5 -53.5t60 -33.5t80.5 -11.5q76 0 117.5 33t41.5 91q0 39 -20.5 66t-64.5 49l-109 55q-73 37 -105.5 78t-32.5 98q0 60 31 105t86 70.5t126 25.5q54 0 96 -14.5t71.5 -43t45.5 -69t17 -93.5
h-80q-1 49 -18.5 82t-52.5 49.5t-87 16.5q-48 0 -83 -14t-53.5 -40t-18.5 -64q0 -34 21 -60t68 -49l116 -58q65 -32 96 -75t31 -104q0 -62 -30 -108.5t-85 -72.5t-130 -26zM195 -109l28 123l5 21l151 653l5 23l28 119h65l-29 -123l-5 -21l-150 -650l-4 -18l-29 -127h-65z
" />
    <glyph glyph-name="plus.tf" horiz-adv-x="600" 
d="M240 153l101 437h73l-101 -437h-73zM96 337l16 68h446l-16 -68h-446z" />
    <glyph glyph-name="minus.tf" horiz-adv-x="600" 
d="M96 337l16 68h446l-16 -68h-446z" />
    <glyph glyph-name="multiply.tf" horiz-adv-x="599" 
d="M447 174l-301 353l60 42l301 -353zM126 173l-53 52l454 345l53 -52z" />
    <glyph glyph-name="divide.tf" horiz-adv-x="600" 
d="M96 337l16 68h446l-16 -68h-446zM359 480q-23 0 -37.5 14.5t-14.5 37.5q0 26 18.5 45t44.5 19q23 0 38 -14.5t15 -37.5q0 -27 -18.5 -45.5t-45.5 -18.5zM282 147q-23 0 -37.5 14.5t-14.5 37.5q0 26 18.5 45t44.5 19q23 0 38 -14.5t15 -37.5q0 -27 -18.5 -45.5
t-45.5 -18.5z" />
    <glyph glyph-name="equal.tf" horiz-adv-x="600" 
d="M120 437l16 68h445l-16 -68h-445zM74 237l15 68h445l-15 -68h-445z" />
    <glyph glyph-name="greater.tf" horiz-adv-x="600" 
d="M65 172l18 78l430 139l-6 -26l-368 130l15 67l412 -150l-18 -78z" />
    <glyph glyph-name="less.tf" horiz-adv-x="600" 
d="M490 570l-18 -78l-395 -139l6 26l333 -130l-15 -67l-377 150l18 78z" />
    <glyph glyph-name="percent.tf" horiz-adv-x="599" 
d="M-26 0l632 720h73l-631 -720h-74zM400 -10q-46 0 -76.5 35t-30.5 99q0 35 10.5 75.5t31 77t50.5 59.5t70 23q46 0 76.5 -34t30.5 -97q0 -35 -10.5 -76t-31 -78t-51 -60.5t-69.5 -23.5zM403 46q23 0 39.5 21t28 52t17 62t5.5 52q0 36 -12.5 53t-30.5 17q-23 0 -39.5 -21.5
t-27.5 -53.5t-16 -63.5t-5 -52.5q0 -33 11.5 -49.5t29.5 -16.5zM194 361q-46 0 -76.5 35t-30.5 99q0 35 10.5 75.5t31 77t50.5 59.5t70 23q46 0 76.5 -34t30.5 -97q0 -35 -10.5 -76t-31 -78t-51 -60.5t-69.5 -23.5zM197 417q23 0 39.5 21t28 52t17 62t5.5 52q0 36 -12.5 53
t-30.5 17q-23 0 -39.5 -21.5t-27.5 -53.5t-16 -63.5t-5 -52.5q0 -33 11.5 -49.5t29.5 -16.5z" />
    <glyph glyph-name="perthousand.tf" horiz-adv-x="600" 
d="M62 282l-5 61l529 150l5 -61zM211 -10q-37 0 -68 30t-31 94q0 38 11.5 73.5t32.5 64t48 45t57 16.5q38 0 69 -29.5t31 -94.5q0 -38 -12 -74t-33 -64t-48 -44.5t-57 -16.5zM213 46q14 0 27.5 8t24.5 22t19.5 32t13 38.5t4.5 41.5q0 33 -12 51t-32 18q-14 0 -27 -8t-24 -22
t-19 -32.5t-12.5 -39t-4.5 -42.5q0 -33 11 -50t31 -17zM400 -10q-37 0 -68 30t-31 94q0 30 7.5 59t21.5 54.5t32.5 44.5t41 30t46.5 11q38 0 69 -29.5t31 -94.5q0 -38 -12 -74t-33 -64t-48 -44.5t-57 -16.5zM402 46q14 0 27.5 8t24.5 22t19.5 32t13 38.5t4.5 41.5
q0 33 -12 51t-32 18q-14 0 -27 -8t-24 -22t-19 -32.5t-12.5 -39t-4.5 -42.5q0 -33 11 -50t31 -17zM197 407q-37 0 -68 30t-31 94q0 38 11.5 73.5t32.5 64t48 45t57 16.5q38 0 69 -29.5t31 -94.5q0 -38 -12 -74t-33 -64t-48 -44.5t-57 -16.5zM199 463q14 0 27.5 8t24.5 22
t19.5 32t13 38.5t4.5 41.5q0 33 -12 51t-32 18q-14 0 -27 -8t-24 -22t-19 -32.5t-12.5 -39t-4.5 -42.5q0 -33 11 -50t31 -17z" />
    <glyph glyph-name="uni030C.alt" horiz-adv-x="0" 
d="M167 503h-50l50 217h76z" />
    <glyph glyph-name="uni0308.ss01" horiz-adv-x="0" 
d="M203 607q-21 0 -34.5 14.5t-13.5 36.5q0 26 18.5 44t44.5 18q21 0 34.5 -13.5t13.5 -36.5q0 -26 -18.5 -44.5t-44.5 -18.5zM432 607q-21 0 -34.5 14.5t-13.5 36.5q0 26 18.5 44t44.5 18q21 0 34.5 -13.5t13.5 -36.5q0 -26 -18.5 -44.5t-44.5 -18.5z" />
    <glyph glyph-name="uni0307.ss01" horiz-adv-x="0" 
d="M203 607q-21 0 -34.5 14.5t-13.5 36.5q0 17 8.5 31t23 22.5t31.5 8.5q20 0 33.5 -13.5t13.5 -36.5q0 -17 -8.5 -31.5t-22.5 -23t-31 -8.5z" />
    <glyph glyph-name="uni0312.ss01" horiz-adv-x="0" 
d="M202 576q-22 0 -36 15.5t-14 46.5q0 28 11.5 55.5t31 51t44.5 39.5t52 20l-9 -40q-31 -9 -50.5 -32t-26.5 -53h-24q15 9 31 9q23 0 37 -13.5t14 -35.5q0 -25 -17.5 -44t-43.5 -19z" />
    <glyph glyph-name="uni0326.ss01" horiz-adv-x="0" 
d="M-55 -295l9 40q32 9 51 32t26 53h24q-15 -9 -31 -9q-22 0 -36.5 13.5t-14.5 35.5q0 26 17.5 44.5t43.5 18.5q23 0 36.5 -15.5t13.5 -46.5q0 -28 -11.5 -55.5t-31 -51t-44.5 -39t-52 -20.5z" />
    <glyph glyph-name="dieresis.ss01" horiz-adv-x="461" 
d="M203 607q-21 0 -34.5 14.5t-13.5 36.5q0 26 18.5 44t44.5 18q21 0 34.5 -13.5t13.5 -36.5q0 -26 -18.5 -44.5t-44.5 -18.5zM432 607q-21 0 -34.5 14.5t-13.5 36.5q0 26 18.5 44t44.5 18q21 0 34.5 -13.5t13.5 -36.5q0 -26 -18.5 -44.5t-44.5 -18.5z" />
    <glyph glyph-name="dotaccent.ss01" horiz-adv-x="231" 
d="M203 607q-21 0 -34.5 14.5t-13.5 36.5q0 17 8.5 31t23 22.5t31.5 8.5q20 0 33.5 -13.5t13.5 -36.5q0 -17 -8.5 -31.5t-22.5 -23t-31 -8.5z" />
    </font>
</defs>
</svg>
