<?xml version="1.0" standalone="no"?>
<!DOCTYPE svg PUBLIC "-//W3C//DTD SVG 1.1//EN" "http://www.w3.org/Graphics/SVG/1.1/DTD/svg11.dtd" >
<svg xmlns="http://www.w3.org/2000/svg" xmlns:xlink="http://www.w3.org/1999/xlink" version="1.1">
<metadata>
Created by FontForge 20201107 at Wed Apr 12 12:05:17 2023
 By 
Copyright 2022 The Instrument Sans Project Authors (https://github.com/Instrument/instrument-sans)
</metadata>
<defs>
<font id="InstrumentSansCondensed-Regular" horiz-adv-x="448" >
  <font-face 
    font-family="Instrument Sans Condensed"
    font-weight="400"
    font-stretch="condensed"
    units-per-em="1000"
    panose-1="0 0 0 0 0 0 0 0 0 0"
    ascent="800"
    descent="-200"
    x-height="510"
    cap-height="720"
    bbox="-49 -273 1563 986"
    underline-thickness="38"
    underline-position="-199"
    unicode-range="U+0020-2212"
  />
<missing-glyph horiz-adv-x="500" 
d="M70 0v720h360v-720h-360zM140 62h220v596h-220v-596z" />
    <glyph glyph-name="f_f_i" unicode="ffi" horiz-adv-x="688" 
d="M80 0v619q0 53 31 82t86 29q20 0 29 -1.5t15 -3.5v-57q-4 2 -12.5 3t-19.5 1q-31 0 -46 -16t-15 -44v-612h-68zM318 0v619q0 53 31 82t86 29q20 0 29 -1.5t15 -3.5v-57q-4 2 -12.5 3t-19.5 1q-31 0 -46 -16t-15 -44v-612h-68zM556 0v510h68v-510h-68zM12 452v58h572v-58
h-572zM548 634v86h84v-86h-84z" />
    <glyph glyph-name="f_f_l" unicode="ffl" horiz-adv-x="688" 
d="M318 0v609q0 53 31 82t86 29h154v-58h-142q-31 0 -46 -16t-15 -44v-602h-68zM80 0v609q0 53 31 82t86 29q20 0 29 -1.5t15 -3.5v-57q-4 2 -12.5 3t-19.5 1q-31 0 -46 -16t-15 -44v-602h-68zM12 452v58h460v-58h-460zM556 0v720h68v-720h-68z" />
    <glyph glyph-name="f_i" unicode="fi" horiz-adv-x="443" 
d="M80 0v619q0 53 31 82t86 29q20 0 29 -1.5t15 -3.5v-57q-4 2 -12.5 3t-19.5 1q-31 0 -46 -16t-15 -44v-612h-68zM318 0v510h68v-510h-68zM12 452v58h334v-58h-334zM310 634v86h84v-86h-84z" />
    <glyph glyph-name="f_l" unicode="fl" horiz-adv-x="450" 
d="M80 0v609q0 53 31 82t86 29h154v-58h-142q-31 0 -46 -16t-15 -44v-602h-68zM12 452v58h222v-58h-222zM318 0v720h68v-720h-68z" />
    <glyph glyph-name="w_w_w.liga" unicode="www" horiz-adv-x="1593" 
d="M156 0l-126 510h68l91 -415h-15l109 415h42l110 -415h-14l109 415h42l110 -415h-14l109 415h42l110 -415h-14l109 415h42l110 -415h-14l109 415h42l110 -415h-14l89 415h65l-126 -510h-46l-108 408h16l-109 -408h-46l-108 408h16l-109 -408h-46l-108 408h16l-109 -408
h-46l-108 408h16l-109 -408h-46l-108 408h16l-109 -408h-46z" />
    <glyph glyph-name="hyphen_greater.liga" unicode="&#x2d;&#x3e;" horiz-adv-x="650" 
d="M60 390h494l-18 -22l-320 322h86l328 -330l-328 -330h-86l320 322l18 -22h-494v60z" />
    <glyph glyph-name="less_hyphen.liga" unicode="&#x3c;&#x2d;" horiz-adv-x="650" 
d="M630 330h-494l18 22l320 -322h-86l-328 330l328 330h86l-320 -322l-18 22h494v-60z" />
    <glyph glyph-name=".notdef" horiz-adv-x="500" 
d="M70 0v720h360v-720h-360zM140 62h220v596h-220v-596z" />
    <glyph glyph-name=".null" horiz-adv-x="0" 
 />
    <glyph glyph-name="nonmarkingreturn" horiz-adv-x="333" 
 />
    <glyph glyph-name="space" unicode=" " horiz-adv-x="150" 
 />
    <glyph glyph-name="exclam" unicode="!" horiz-adv-x="231" 
d="M90 200l-12 540h76l-12 -540h-52zM70 0v91h91v-91h-91z" />
    <glyph glyph-name="quotedbl" unicode="&#x22;" horiz-adv-x="347" 
d="M86 498l-16 91q-7 43 -11.5 68.5t-4.5 43.5q0 15 5.5 26t15.5 17t23 6q14 0 23.5 -6t15 -17t5.5 -26q0 -18 -4 -43.5t-12 -68.5l-16 -91h-24zM237 498l-16 91q-7 43 -11.5 68.5t-4.5 43.5q0 15 5.5 26t15.5 17t23 6q14 0 23.5 -6t15 -17t5.5 -26q0 -18 -4 -43.5
t-12 -68.5l-16 -91h-24z" />
    <glyph glyph-name="numbersign" unicode="#" horiz-adv-x="460" 
d="M64 0l100 720h60l-100 -720h-60zM236 0l100 720h60l-100 -720h-60zM47 484h391v-58h-391v58zM22 304h391v-58h-391v58z" />
    <glyph glyph-name="dollar" unicode="$" horiz-adv-x="404" 
d="M185 696v134h56v-134h-56zM241 20v-129h-56v129h56zM219 -9q-88 0 -137.5 63.5t-49.5 175.5h67q0 -83 33 -130t92 -47q44 0 67 28t23 82q0 43 -16.5 76t-53.5 63l-95 78q-47 38 -72 87t-25 102q0 49 20 85.5t56 56.5t84 20q80 0 123.5 -56.5t43.5 -160.5h-67
q0 79 -25 117t-77 38q-43 0 -65.5 -25.5t-22.5 -72.5q0 -40 17.5 -72.5t54.5 -63.5l95 -78q46 -37 70.5 -89t24.5 -108q0 -78 -44.5 -123.5t-120.5 -45.5z" />
    <glyph glyph-name="percent" unicode="%" horiz-adv-x="621" 
d="M48 0l461 720h68l-462 -720h-67zM458 -10q-36 0 -65.5 19t-47 58t-17.5 98t17.5 97.5t47 57.5t65.5 19q37 0 66.5 -19t47 -57.5t17.5 -97.5t-18 -98t-47.5 -58t-65.5 -19zM458 43q32 0 51 32t19 91q0 58 -19 89t-51 31t-51 -30.5t-19 -89.5q0 -60 19 -91.5t51 -31.5z
M162 381q-36 0 -65.5 19t-47 58t-17.5 98t17.5 97.5t46.5 57.5t66 19t66 -19t46.5 -57.5t17.5 -97.5t-17.5 -98t-47 -58t-65.5 -19zM162 434q32 0 51 31.5t19 91.5q0 59 -19 89.5t-51 30.5q-33 0 -51.5 -30.5t-18.5 -89.5t18.5 -91t51.5 -32z" />
    <glyph glyph-name="ampersand" unicode="&#x26;" horiz-adv-x="550" 
d="M454 0l-301 426q-22 31 -35 56.5t-18.5 49t-5.5 48.5q0 45 20 78.5t56 52.5t83 19q44 0 77 -17t51.5 -47.5t18.5 -71.5q0 -54 -41 -104t-125 -97l-26 48q65 35 95.5 70t30.5 74q0 38 -22.5 60.5t-61.5 22.5t-62.5 -23t-23.5 -62q0 -20 5.5 -40t16.5 -41.5t29 -47.5
l325 -454h-86zM235 -9q-59 0 -105 23.5t-72 68t-26 106.5q0 74 45.5 135t124.5 107l30 -45q-42 -25 -70.5 -52.5t-43 -59.5t-14.5 -74q0 -76 39.5 -110.5t98.5 -34.5q41 0 77 16.5t63.5 54t43.5 102t16 160.5h70q0 -101 -20 -171t-52 -114.5t-69.5 -69t-73 -33.5t-62.5 -9z
" />
    <glyph glyph-name="quotesingle" unicode="'" horiz-adv-x="196" 
d="M86 498l-16 91q-7 43 -11.5 68.5t-4.5 43.5q0 15 5.5 26t15.5 17t23 6q14 0 23.5 -6t15 -17t5.5 -26q0 -18 -4 -43.5t-12 -68.5l-16 -91h-24z" />
    <glyph glyph-name="parenleft" unicode="(" horiz-adv-x="336" 
d="M236 -110q-85 101 -125.5 208t-40.5 222q0 113 41 221t125 209h60q-82 -101 -122 -209t-40 -221q0 -115 39.5 -222t122.5 -208h-60z" />
    <glyph glyph-name="parenright" unicode=")" horiz-adv-x="336" 
d="M100 750q85 -100 125.5 -207.5t40.5 -222.5q0 -113 -41 -221t-125 -209h-60q83 101 122.5 209t39.5 221q0 115 -39.5 222.5t-122.5 207.5h60z" />
    <glyph glyph-name="asterisk" unicode="*" horiz-adv-x="372" 
d="M154 440l19 127l-101 -80l-32 56l119 47l-119 47l32 56l101 -80l-19 127h64l-19 -127l101 80l32 -56l-119 -47l119 -47l-32 -56l-101 80l19 -127h-64z" />
    <glyph glyph-name="plus" unicode="+" horiz-adv-x="531" 
d="M236 153v437h60v-437h-60zM60 342v58h411v-58h-411z" />
    <glyph glyph-name="comma" unicode="," horiz-adv-x="213" 
d="M61 -131v37q26 11 37.5 32.5t11.5 64.5l29 -3h-78v91h91v-70q0 -59 -22 -98t-69 -54z" />
    <glyph glyph-name="hyphen" unicode="-" horiz-adv-x="364" 
d="M64 238v68h236v-68h-236z" />
    <glyph glyph-name="period" unicode="." horiz-adv-x="213" 
d="M61 0v91h91v-91h-91z" />
    <glyph glyph-name="slash" unicode="/" horiz-adv-x="264" 
d="M45 -60l114 810h60l-114 -810h-60z" />
    <glyph glyph-name="zero" unicode="0" horiz-adv-x="460" 
d="M230 -10q-55 0 -98 40.5t-67.5 123.5t-24.5 209q0 125 24 206.5t67 121t98 39.5q57 0 100 -39.5t67 -121t24 -207.5t-24.5 -208.5t-67 -123t-98.5 -40.5zM229 52q35 0 61.5 31.5t42 100.5t15.5 180q0 110 -15 176.5t-42 97t-62 30.5q-34 0 -60.5 -30t-41.5 -97t-15 -177
q0 -111 15 -180t41.5 -100.5t60.5 -31.5z" />
    <glyph glyph-name="one" unicode="1" horiz-adv-x="296" 
d="M158 0v646l14 -15q-17 -22 -39.5 -42t-52 -35t-66.5 -23v72q42 8 72 25t51.5 40.5t36.5 51.5h52v-720h-68z" />
    <glyph glyph-name="two" unicode="2" horiz-adv-x="404" 
d="M49 0v60q63 87 109.5 161t77.5 135t46.5 110.5t15.5 87.5q0 55 -23 84.5t-67 29.5q-50 0 -78 -38t-28 -109h-68q0 97 48.5 153t128.5 56q73 0 115 -47t42 -132q0 -49 -19 -104t-53 -117.5t-80.5 -134t-102.5 -152.5l-16 17h279v-60h-327z" />
    <glyph glyph-name="three" unicode="3" horiz-adv-x="411" 
d="M206 -10q-54 0 -93.5 27t-61 78t-21.5 122h68q0 -80 28.5 -122.5t78.5 -42.5q48 0 76 37t28 104q0 71 -31.5 112.5t-81.5 41.5h-53v60h53q50 0 78 34t28 98q0 65 -25 97t-68 32q-46 0 -74.5 -37.5t-28.5 -109.5h-68q0 66 22 113t61.5 71.5t90.5 24.5q48 0 84 -21.5
t56 -63t20 -100.5q0 -55 -19.5 -94.5t-54.5 -60.5t-84 -21l-6 21q52 0 90.5 -24t60.5 -68.5t22 -105.5t-22 -106.5t-61.5 -70.5t-91.5 -25z" />
    <glyph glyph-name="four" unicode="4" horiz-adv-x="413" 
d="M247 0v180v20v378l9 -1l-175 -383l-18 26h332v-60h-377v50l233 510h64v-720h-68z" />
    <glyph glyph-name="five" unicode="5" horiz-adv-x="425" 
d="M213 -10q-82 0 -127.5 58.5t-45.5 158.5h68q0 -73 27 -114t77 -41q48 0 77.5 41.5t29.5 135.5q0 95 -28.5 136t-81.5 41q-40 0 -64.5 -20.5t-32.5 -49.5h-48l14 384h284v-60h-233l12 18l-9 -257l-14 -11q11 23 38 38.5t68 15.5q48 0 86 -25.5t59.5 -77.5t21.5 -132
t-23 -133t-63 -79.5t-92 -26.5z" />
    <glyph glyph-name="six" unicode="6" horiz-adv-x="434" 
d="M227 -10q-94 0 -140.5 89.5t-46.5 271.5q0 127 22 211t66.5 126t111.5 42q74 0 114.5 -49.5t40.5 -139.5h-68q0 61 -24.5 94t-68.5 33q-64 0 -93 -75t-29 -239v-33l-11 -1q8 40 26.5 67.5t47 42t64.5 14.5q51 0 88 -28t57 -78.5t20 -120.5t-21.5 -121t-61 -78.5
t-94.5 -27.5zM230 52q50 0 76 42t26 124t-26.5 124t-78.5 42t-79.5 -41.5t-27.5 -118.5q0 -54 13 -92.5t38 -59t59 -20.5z" />
    <glyph glyph-name="seven" unicode="7" horiz-adv-x="382" 
d="M112 0q10 170 54 342t143 347l21 -29h-314v60h350v-48q-60 -116 -97.5 -228t-56.5 -222t-25 -222h-75z" />
    <glyph glyph-name="eight" unicode="8" horiz-adv-x="422" 
d="M211 -10q-54 0 -94 25t-62.5 70.5t-22.5 106.5q0 57 19.5 102t53.5 70.5t77 25.5v-21q-40 0 -71.5 23.5t-49 64t-17.5 91.5q0 56 21 97t58.5 63t87.5 22t87.5 -22t58.5 -63t21 -97q0 -51 -17.5 -91.5t-48.5 -64t-72 -23.5v21q43 0 77 -25.5t53.5 -70.5t19.5 -102
q0 -61 -22 -106.5t-62.5 -70.5t-94.5 -25zM211 52q51 0 79 37.5t28 105.5t-28 110t-79 42t-79 -42t-28 -110t28 -105.5t79 -37.5zM211 407q43 0 70 36.5t27 92.5q0 64 -26.5 98t-70.5 34t-70.5 -34t-26.5 -98q0 -56 27 -92.5t70 -36.5z" />
    <glyph glyph-name="nine" unicode="9" horiz-adv-x="434" 
d="M207 -10q-49 0 -87 25t-59.5 72t-21.5 112h68q0 -76 31 -111.5t75 -35.5q32 0 53 15.5t33.5 51.5t17.5 96.5t5 150.5v33l11 11q-7 -39 -26 -67t-47 -42.5t-65 -14.5q-50 0 -87.5 27.5t-57.5 77.5t-20 117q0 68 21.5 118t61 77t94.5 27q95 0 141 -89.5t46 -271.5
q0 -136 -19 -219.5t-60 -121.5t-108 -38zM207 346q52 0 79.5 37t27.5 118q0 52 -13 89t-37.5 57.5t-59.5 20.5q-50 0 -76 -41.5t-26 -119.5t26.5 -119.5t78.5 -41.5z" />
    <glyph glyph-name="colon" unicode=":" horiz-adv-x="213" 
d="M61 0v91h91v-91h-91zM61 380v91h91v-91h-91z" />
    <glyph glyph-name="semicolon" unicode=";" horiz-adv-x="213" 
d="M61 -131v37q26 11 37.5 32.5t11.5 64.5l29 -3h-78v91h91v-70q0 -59 -22 -98t-69 -54zM61 380v91h91v-91h-91z" />
    <glyph glyph-name="less" unicode="&#x3c;" horiz-adv-x="531" 
d="M471 560v-62l-363 -139v25l363 -130v-62l-411 150v58z" />
    <glyph glyph-name="equal" unicode="=" horiz-adv-x="531" 
d="M60 442v58h411v-58h-411zM60 242v58h411v-58h-411z" />
    <glyph glyph-name="greater" unicode="&#x3e;" horiz-adv-x="531" 
d="M60 182v62l363 139v-25l-363 130v62l411 -150v-58z" />
    <glyph glyph-name="question" unicode="?" horiz-adv-x="394" 
d="M170 199q0 61 9 104t23 74t30 54.5t30 45.5t23 47.5t9 60.5q0 47 -21.5 75t-64.5 28q-52 0 -77 -36.5t-25 -100.5h-68q0 59 20.5 104t60 70t94.5 25q47 0 81 -20t52 -55.5t18 -83.5q0 -38 -9.5 -67t-25 -53.5t-32.5 -49t-32.5 -55t-25 -71t-9.5 -96.5h-60zM155 0v91h91
v-91h-91z" />
    <glyph glyph-name="at" unicode="@" horiz-adv-x="743" 
d="M375 -9q-100 0 -175.5 41.5t-117.5 117t-42 176.5q0 84 29 157.5t80.5 128.5t120.5 86.5t148 31.5q86 0 150 -36t99.5 -100.5t35.5 -149.5q0 -58 -16.5 -110.5t-44.5 -93.5t-64 -64.5t-75 -23.5q-26 0 -44.5 11.5t-28 34t-8.5 53.5l15 -7q-24 -45 -56 -68.5t-70 -23.5
q-50 0 -78 34.5t-28 100.5q0 54 16 105t43 91.5t61 64t71 23.5q44 0 66 -31t17 -74l-12 -4l26 98h57l-73 -276q-11 -42 -4 -63.5t32 -21.5q27 0 52.5 20.5t46.5 55t33.5 77.5t12.5 88q0 74 -29 128.5t-81.5 84.5t-123.5 30q-67 0 -126 -27.5t-103 -76t-69 -113t-25 -138.5
q0 -87 35 -152t99 -101.5t149 -36.5q51 0 101 14.5t87 38.5l21 -39q-36 -28 -92 -44.5t-118 -16.5zM322 200q25 0 49 20.5t43.5 54t31 74.5t11.5 83t-15.5 66.5t-42.5 24.5q-25 0 -49 -20t-43.5 -54t-30.5 -75t-11 -83q0 -45 14.5 -68t42.5 -23z" />
    <glyph glyph-name="A" unicode="A" 
d="M24 0l155 720h56l-147 -720h-64zM354 0l-145 720h60l155 -720h-70zM106 275h234v-60h-234v60z" />
    <glyph glyph-name="B" unicode="B" horiz-adv-x="433" 
d="M112 0v58h97q53 0 83.5 38t30.5 102q0 68 -32.5 109t-88.5 41h-90v58h84q54 0 84 33t30 95t-29 95t-80 33h-89v58h89q81 0 130 -49t49 -133q0 -53 -20 -91t-57 -58t-89 -20v21q56 0 96.5 -24t62.5 -67.5t22 -102.5t-23 -103.5t-64.5 -68.5t-98.5 -24h-97zM70 0v720h70
v-720h-70z" />
    <glyph glyph-name="C" unicode="C" horiz-adv-x="461" 
d="M242 -10q-48 0 -85.5 25t-63.5 73t-39.5 117t-13.5 157t14 156.5t40 115.5t63.5 71.5t84.5 24.5q58 0 99 -33.5t63.5 -96t22.5 -149.5h-70q0 106 -29.5 160.5t-85.5 54.5q-41 0 -70.5 -34t-44.5 -101.5t-15 -167.5q0 -101 15 -170t44 -104t72 -35q54 0 83 55.5t29 159.5
h71q0 -86 -22.5 -149t-63.5 -96.5t-98 -33.5z" />
    <glyph glyph-name="D" unicode="D" horiz-adv-x="496" 
d="M119 0v62h96q56 0 93.5 33.5t56.5 101t19 167.5q0 99 -18.5 164t-56 97.5t-94.5 32.5h-101v62h101q76 0 130 -41t82.5 -120.5t28.5 -196.5t-29 -197.5t-82.5 -122.5t-128.5 -42h-97zM70 0v720h70v-720h-70z" />
    <glyph glyph-name="E" unicode="E" horiz-adv-x="415" 
d="M70 0v720h70v-720h-70zM112 0v62h253v-62h-253zM112 344v62h231v-62h-231zM112 658v62h245v-62h-245z" />
    <glyph glyph-name="F" unicode="F" horiz-adv-x="381" 
d="M70 0v720h70v-720h-70zM112 314v62h215v-62h-215zM112 658v62h229v-62h-229z" />
    <glyph glyph-name="G" unicode="G" horiz-adv-x="481" 
d="M266 -10q-75 0 -125.5 40.5t-75.5 121t-25 200.5q0 121 24.5 205t71.5 128.5t113 44.5q55 0 95 -30t61.5 -86t21.5 -133h-70q0 92 -26.5 138.5t-79.5 46.5q-46 0 -77 -35t-46.5 -104t-15.5 -172q0 -105 17 -171.5t52 -98t90 -31.5q27 0 48.5 7.5t36.5 21.5l70 -28
q-31 -32 -71.5 -48.5t-88.5 -16.5zM356 69v275l31 -31h-141v62h180v-320z" />
    <glyph glyph-name="H" unicode="H" horiz-adv-x="500" 
d="M70 0v720h70v-720h-70zM360 0v720h70v-720h-70zM112 406h274v-62h-274v62z" />
    <glyph glyph-name="I" unicode="I" horiz-adv-x="210" 
d="M70 0v720h70v-720h-70z" />
    <glyph glyph-name="J" unicode="J" horiz-adv-x="307" 
d="M83 -10q-25 0 -43.5 3.5t-29.5 8.5v64q12 -5 31.5 -8.5t37.5 -3.5q44 0 69 17t25 57v592h70v-597q0 -71 -44.5 -102t-115.5 -31z" />
    <glyph glyph-name="K" unicode="K" horiz-adv-x="466" 
d="M70 0v720h70v-720h-70zM131 374l222 346h77l-223 -346h-76zM367 0l-238 374h78l243 -374h-83z" />
    <glyph glyph-name="L" unicode="L" horiz-adv-x="375" 
d="M70 0v720h70v-720h-70zM112 0v62h223v-62h-223z" />
    <glyph glyph-name="M" unicode="M" horiz-adv-x="671" 
d="M70 0v720h104l175 -676h-26l174 676h104v-720h-70v622l3 -1l-162 -621h-80l-162 621l3 1v-622h-63z" />
    <glyph glyph-name="N" unicode="N" horiz-adv-x="505" 
d="M70 0v720h85l224 -606l-10 -2v608h66v-720h-85l-224 606l10 2v-608h-66z" />
    <glyph glyph-name="O" unicode="O" horiz-adv-x="500" 
d="M250 -10q-49 0 -88 25.5t-66 73.5t-41.5 117.5t-14.5 156.5q0 115 25 197t72 126t112 44q67 0 114 -44t72 -126t25 -198q0 -87 -14.5 -156t-41.5 -117t-66 -73.5t-88 -25.5zM249 54q45 0 76 36.5t47 105.5t16 168q0 98 -16 165t-47 102t-76 35q-44 0 -75 -34.5
t-46.5 -102t-15.5 -165.5q0 -99 16 -168.5t46.5 -105.5t74.5 -36z" />
    <glyph glyph-name="P" unicode="P" horiz-adv-x="434" 
d="M70 0v720h136q64 0 108.5 -26.5t68 -73.5t23.5 -110t-23.5 -111t-68 -75t-108.5 -27h-88v62h86q63 0 97.5 41t34.5 110q0 68 -34.5 108t-97.5 40h-64v-658h-70z" />
    <glyph glyph-name="Q" unicode="Q" horiz-adv-x="500" 
d="M250 -10q-65 0 -112.5 44.5t-72.5 128t-25 200.5q0 115 25 197t72 126t112 44q67 0 114 -44t72 -126t25 -198q0 -87 -15 -155.5t-46.5 -115.5t-81.5 -69zM249 54q45 0 76 36.5t47 105.5t16 168q0 98 -16 165t-47 102t-76 35q-44 0 -75 -34.5t-46.5 -102t-15.5 -165.5
q0 -99 16 -168.5t46.5 -105.5t74.5 -36zM250 -10v52l230 20v-62q-37 0 -67 -1.5t-56.5 -3.5t-52 -3.5t-54.5 -1.5z" />
    <glyph glyph-name="R" unicode="R" horiz-adv-x="434" 
d="M70 0v720h136q59 0 101.5 -26t65.5 -71t23 -103t-23 -104t-65.5 -72.5t-101.5 -26.5h-88v62h86q56 0 89 40t33 101q0 60 -33 99t-89 39h-64v-658h-70zM341 0l-237 374h78l242 -374h-83z" />
    <glyph glyph-name="S" unicode="S" horiz-adv-x="414" 
d="M219 -9q-88 0 -137.5 63.5t-49.5 175.5h67q0 -83 33 -130t92 -47q44 0 67 28t23 82q0 43 -16.5 76t-53.5 63l-95 78q-47 38 -72 87t-25 102q0 49 20 85.5t56 56.5t84 20q80 0 123.5 -56.5t43.5 -160.5h-67q0 79 -25 117t-77 38q-43 0 -65.5 -25.5t-22.5 -72.5
q0 -40 17.5 -72.5t54.5 -63.5l95 -78q46 -37 70.5 -89t24.5 -108q0 -78 -44.5 -123.5t-120.5 -45.5z" />
    <glyph glyph-name="T" unicode="T" horiz-adv-x="414" 
d="M172 0v658h-152v62h374v-62h-152v-658h-70z" />
    <glyph glyph-name="U" unicode="U" horiz-adv-x="476" 
d="M238 -10q-84 0 -129 53.5t-45 145.5v531h70v-537q0 -67 27.5 -98t76.5 -31t76.5 30.5t27.5 97.5v538h70v-532q0 -91 -45 -144.5t-129 -53.5z" />
    <glyph glyph-name="V" unicode="V" 
d="M179 0l-155 720h70l138 -668h-12l138 668h66l-155 -720h-90z" />
    <glyph glyph-name="W" unicode="W" horiz-adv-x="622" 
d="M136 0l-102 720h70l85 -639h-8l87 639h90l87 -639h-8l85 639h66l-102 -720h-90l-89 618h8l-89 -618h-90z" />
    <glyph glyph-name="X" unicode="X" horiz-adv-x="445" 
d="M349 0l-147 343l-161 377h74l130 -304l178 -416h-74zM216 425l129 295h68l-166 -381zM237 339l-148 -339h-68l185 425z" />
    <glyph glyph-name="Y" unicode="Y" horiz-adv-x="452" 
d="M191 0v336l-179 384h78l154 -336h-28l153 336h71l-179 -384v-336h-70z" />
    <glyph glyph-name="Z" unicode="Z" horiz-adv-x="452" 
d="M62 0v52l262 637l19 -31h-270v62h316v-52l-262 -637l-19 31h286v-62h-332z" />
    <glyph glyph-name="bracketleft" unicode="[" horiz-adv-x="336" 
d="M80 -108v858h206v-54h-142v-750h142v-54h-206z" />
    <glyph glyph-name="backslash" unicode="\" horiz-adv-x="264" 
d="M45 750h60l114 -810h-60z" />
    <glyph glyph-name="bracketright" unicode="]" horiz-adv-x="336" 
d="M256 750v-858h-206v54h142v750h-142v54h206z" />
    <glyph glyph-name="asciicircum" unicode="^" horiz-adv-x="531" 
d="M159 491h-54l123 249h75l123 -249h-54l-117 208h21z" />
    <glyph glyph-name="underscore" unicode="_" horiz-adv-x="316" 
d="M0 -112v62h316v-62h-316z" />
    <glyph glyph-name="grave" unicode="`" horiz-adv-x="354" 
d="M184 583l-124 157h86l92 -157h-54z" />
    <glyph glyph-name="a" unicode="a" horiz-adv-x="389" 
d="M277 0q-4 18 -6 39.5t-2 45.5h-8v302q0 35 -18.5 54t-48.5 19q-40 0 -59.5 -28t-19.5 -70h-62q0 71 38 114.5t109 43.5q62 0 95.5 -36.5t33.5 -103.5v-295q0 -21 2 -42.5t6 -42.5h-60zM154 -10q-52 0 -83 34.5t-31 92.5q0 53 29.5 92t90.5 69l114 55v-59l-95 -48
q-35 -18 -53 -43.5t-18 -60.5q0 -34 17.5 -53t48.5 -19q38 0 62.5 32t24.5 82l12 -79q-13 -47 -45.5 -71t-73.5 -24z" />
    <glyph glyph-name="b" unicode="b" 
d="M243 -10q-46 0 -81 29t-43 85l5 7v-111h-60v720h68v-313l-7 8q12 52 47 78.5t81 26.5q50 0 85 -31t53.5 -89t18.5 -139q0 -84 -20 -145t-57.5 -93.5t-89.5 -32.5zM234 52q54 0 80 50t26 153t-27 153t-81 50t-80 -50t-26 -153t27 -153t81 -50z" />
    <glyph glyph-name="c" unicode="c" horiz-adv-x="384" 
d="M200 -10q-51 0 -88 31.5t-56.5 91t-19.5 142.5q0 84 20 143t58 90.5t91 31.5q47 0 79.5 -24t50 -68t17.5 -105h-66q0 67 -20 102t-61 35q-33 0 -55 -22.5t-33 -68t-11 -113.5q0 -67 11 -113t32 -69.5t52 -23.5q40 0 62.5 38t22.5 99h66q0 -58 -18.5 -102.5t-52.5 -69.5
t-81 -25z" />
    <glyph glyph-name="d" unicode="d" 
d="M321 0v103l7 -8q-12 -52 -47 -78.5t-82 -26.5q-51 0 -87 31t-55 89t-19 139q0 85 20 145.5t57.5 93t89.5 32.5q46 0 81.5 -29t42.5 -85l-13 -7v321h68v-720h-63zM216 52q54 0 80 50t26 153t-27 153t-81 50t-80 -50t-26 -153t27 -153t81 -50z" />
    <glyph glyph-name="e" unicode="e" horiz-adv-x="402" 
d="M204 -10q-52 0 -90 31.5t-58 90.5t-20 141q0 84 21.5 143.5t62 91.5t96.5 32q49 0 82 -28t50.5 -86t17.5 -147v-9v-10h-285v58h249l-28 -40q-1 107 -22.5 154.5t-68.5 47.5q-51 0 -78 -53t-27 -154q0 -97 26 -150t74 -53q41 0 64 30t27 82h64q-7 -78 -48 -125t-109 -47z
" />
    <glyph glyph-name="f" unicode="f" horiz-adv-x="253" 
d="M80 0v619q0 53 31 82t86 29q20 0 29 -1.5t15 -3.5v-57q-4 2 -12.5 3t-19.5 1q-31 0 -46 -16t-15 -44v-612h-68zM12 452v58h221v-58h-221z" />
    <glyph glyph-name="g" unicode="g" 
d="M213 -215q-70 0 -110.5 39.5t-44.5 104.5h62q2 -40 27.5 -62t68.5 -22q50 0 75 29t25 88v148l7 -1q-5 -49 -40.5 -79t-86.5 -30q-49 0 -84.5 30.5t-54.5 87.5t-19 136q0 83 20.5 142.5t58.5 91.5t91 32q50 0 84 -30.5t39 -81.5h-7v102h60v-538q0 -89 -44.5 -138
t-126.5 -49zM216 62q53 0 79.5 49t26.5 149t-27 149t-81 49q-53 0 -79.5 -49t-26.5 -149q0 -99 27 -148.5t81 -49.5z" />
    <glyph glyph-name="h" unicode="h" horiz-adv-x="442" 
d="M64 0v720h68v-720h-68zM314 0v373q0 45 -17 65t-52 20q-36 0 -61.5 -17.5t-38.5 -46.5t-13 -64l-9 91q20 45 55.5 72t84.5 27q56 0 87.5 -35t31.5 -96v-389h-68z" />
    <glyph glyph-name="i" unicode="i" horiz-adv-x="196" 
d="M64 0v510h68v-510h-68zM56 634v86h84v-86h-84z" />
    <glyph glyph-name="j" unicode="j" horiz-adv-x="196" 
d="M25 -215q-19 0 -28.5 1.5t-15.5 3.5v57q5 -1 13.5 -2.5t18.5 -1.5q26 0 38.5 10.5t12.5 32.5v624h68v-628q0 -42 -27.5 -69.5t-79.5 -27.5zM56 634v86h84v-86h-84z" />
    <glyph glyph-name="k" unicode="k" horiz-adv-x="399" 
d="M64 0v720h68v-720h-68zM308 0l-188 265l180 245h77l-197 -264l-1 43l208 -289h-79z" />
    <glyph glyph-name="l" unicode="l" horiz-adv-x="196" 
d="M64 0v720h68v-720h-68z" />
    <glyph glyph-name="m" unicode="m" horiz-adv-x="676" 
d="M64 0v510h63v-96h5v-414h-68zM306 0v383q0 38 -16.5 56.5t-48.5 18.5q-33 0 -57.5 -17t-38 -46t-13.5 -65l-9 91q20 45 55 72t81 27q53 0 84 -35t31 -96v-389h-68zM548 0v383q0 38 -16.5 56.5t-48.5 18.5q-33 0 -57.5 -16.5t-38 -45t-13.5 -66.5l-19 95q24 45 59.5 70
t81.5 25q53 0 86.5 -35t33.5 -96v-389h-68z" />
    <glyph glyph-name="n" unicode="n" horiz-adv-x="442" 
d="M64 0v510h63v-96h5v-414h-68zM314 0v373q0 45 -17 65t-52 20q-36 0 -61.5 -17.5t-38.5 -46.5t-13 -64l-9 91q20 45 55.5 72t84.5 27q56 0 87.5 -35t31.5 -96v-389h-68z" />
    <glyph glyph-name="o" unicode="o" horiz-adv-x="432" 
d="M216 -10q-58 0 -98.5 35t-61 95.5t-20.5 136.5q0 77 21 136t61 93t98 34t98 -34t61 -93t21 -136q0 -76 -20.5 -136.5t-60.5 -95.5t-99 -35zM216 50q37 0 61 26t36.5 72.5t12.5 109.5q0 94 -27.5 148t-82.5 54t-82.5 -54t-27.5 -148q0 -63 12.5 -109.5t37 -72.5t60.5 -26z
" />
    <glyph glyph-name="p" unicode="p" 
d="M243 -10q-46 0 -81 29t-43 85l13 7v-316h-68v715h63v-103l-7 8q12 52 47.5 78.5t83.5 26.5q51 0 86.5 -31t54 -89t18.5 -139q0 -84 -20 -145t-57.5 -93.5t-89.5 -32.5zM234 52q54 0 80 50t26 153t-27 153t-81 50t-80 -50t-26 -153t27 -153t81 -50z" />
    <glyph glyph-name="q" unicode="q" 
d="M316 -205v308l12 -8q-12 -52 -47 -78.5t-82 -26.5q-51 0 -87 31t-55 89t-19 139q0 85 20 145.5t57.5 93t89.5 32.5q50 0 83.5 -29t40.5 -85l-8 -7v111h63v-715h-68zM216 52q54 0 80 50t26 153t-27 153t-81 50t-80 -50t-26 -153t27 -153t81 -50z" />
    <glyph glyph-name="r" unicode="r" horiz-adv-x="276" 
d="M64 0v510h63v-106h5v-404h-68zM132 330l-16 71q22 60 51.5 89.5t70.5 29.5q11 0 20 -3v-67q-3 1 -8.5 1.5t-11.5 0.5q-52 0 -79 -35t-27 -87z" />
    <glyph glyph-name="s" unicode="s" horiz-adv-x="326" 
d="M169 -10q-67 0 -102 43.5t-39 120.5h62q3 -53 23 -79.5t57 -26.5q32 0 49 17.5t17 50.5q0 23 -12 47.5t-44 46.5l-58 42q-37 27 -58 60.5t-21 78.5q0 57 35 93t93 36q57 0 88.5 -37.5t35.5 -110.5h-62q-3 47 -18.5 68.5t-46.5 21.5q-29 0 -45 -17.5t-16 -49.5
q0 -23 12 -45t43 -45l58 -42q35 -25 57.5 -62t22.5 -84q0 -57 -35 -92t-96 -35z" />
    <glyph glyph-name="t" unicode="t" horiz-adv-x="269" 
d="M201 -10q-59 0 -90 28.5t-31 83.5v497l68 30v-524q0 -30 15.5 -43.5t49.5 -13.5q14 0 24.5 1.5t15.5 4.5v-57q-10 -3 -24 -5t-28 -2zM12 452v58h241v-58h-241z" />
    <glyph glyph-name="u" unicode="u" horiz-adv-x="434" 
d="M179 -10q-36 0 -63 16t-41.5 45.5t-14.5 69.5v389h68v-383q0 -37 17.5 -56t50.5 -19q31 0 55 17t37.5 45.5t13.5 61.5l9 -91q-20 -45 -53.5 -70t-78.5 -25zM310 0v92h-8v418h68v-510h-60z" />
    <glyph glyph-name="v" unicode="v" horiz-adv-x="388" 
d="M171 0l-151 510h71l120 -435h-30l119 435h68l-151 -510h-46z" />
    <glyph glyph-name="w" unicode="w" horiz-adv-x="605" 
d="M156 0l-126 510h68l91 -415h-15l109 415h42l110 -415h-14l89 415h65l-126 -510h-46l-108 408h16l-109 -408h-46z" />
    <glyph glyph-name="x" unicode="x" horiz-adv-x="386" 
d="M291 0l-116 236l-141 274h71l107 -218l150 -292h-71zM180 286l110 224h67l-143 -281zM204 228l-113 -228h-67l146 285z" />
    <glyph glyph-name="y" unicode="y" horiz-adv-x="388" 
d="M90 -205l83 270l7 24l120 421h68l-210 -715h-68zM178 5l-158 505h72l126 -430z" />
    <glyph glyph-name="z" unicode="z" horiz-adv-x="346" 
d="M30 0v48l220 431l17 -27h-226v58h272v-48l-220 -431l-17 27h242v-58h-288z" />
    <glyph glyph-name="braceleft" unicode="{" horiz-adv-x="336" 
d="M197 -108q-37 0 -62 14t-36 40t-5 62l32 198q8 53 -3 70.5t-54 17.5h-39v54h39q42 0 53.5 17.5t3.5 70.5l-32 198q-6 37 5 62.5t36 39.5t62 14h89v-54h-77q-28 0 -41.5 -15t-9.5 -44l29 -176q10 -60 -1.5 -92.5t-49.5 -47.5q38 -15 49.5 -48t1.5 -92l-29 -176
q-4 -28 9.5 -43.5t41.5 -15.5h77v-54h-89z" />
    <glyph glyph-name="bar" unicode="|" horiz-adv-x="200" 
d="M70 -130v920h60v-920h-60z" />
    <glyph glyph-name="braceright" unicode="}" horiz-adv-x="336" 
d="M139 750q37 0 62 -14t36 -39.5t5 -62.5l-32 -198q-8 -53 3 -70.5t54 -17.5h39v-54h-39q-42 0 -53.5 -17.5t-3.5 -70.5l32 -198q6 -36 -5 -62t-36 -40t-62 -14h-89v54h77q28 0 42 15.5t9 43.5l-29 176q-10 60 1.5 92.5t49.5 47.5q-37 15 -49 48t-2 92l29 176q5 29 -9 44
t-42 15h-77v54h89z" />
    <glyph glyph-name="asciitilde" unicode="~" horiz-adv-x="531" 
d="M359 301q30 0 52.5 11.5t37 34.5t20.5 57h-50q-6 -26 -19.5 -38.5t-35.5 -12.5q-21 0 -42.5 9t-45 21.5t-49 21.5t-55.5 9q-29 0 -51.5 -11.5t-36.5 -34t-21 -57.5h50q6 26 19.5 38.5t35.5 12.5t43.5 -9t44 -21.5t48 -21.5t55.5 -9z" />
    <glyph glyph-name="uni00A0" unicode="&#xa0;" horiz-adv-x="150" 
 />
    <glyph glyph-name="exclamdown" unicode="&#xa1;" horiz-adv-x="231" 
d="M78 -205l12 516h52l12 -516h-76zM161 510v-91h-91v91h91z" />
    <glyph glyph-name="cent" unicode="&#xa2;" horiz-adv-x="384" 
d="M172 482v134h56v-134h-56zM228 20v-129h-56v129h56zM200 -10q-51 0 -88 31.5t-56.5 91t-19.5 142.5q0 84 20 143t58 90.5t91 31.5q47 0 79.5 -24t50 -68t17.5 -105h-66q0 67 -20 102t-61 35q-33 0 -55 -22.5t-33 -68t-11 -113.5q0 -67 11 -113t32 -69.5t52 -23.5
q40 0 62.5 38t22.5 99h66q0 -58 -18.5 -102.5t-52.5 -69.5t-81 -25z" />
    <glyph glyph-name="sterling" unicode="&#xa3;" horiz-adv-x="414" 
d="M30 0v62q34 74 47 125.5t13 90.5t-9 68.5t-21 58t-21 61t-9 77.5q0 58 20 100t57 64.5t88 22.5q56 0 96.5 -25t62.5 -70t22 -104h-68q0 64 -28 100.5t-80 36.5q-50 0 -75 -35t-25 -94q0 -41 8 -72.5t19 -59.5t19 -58t8 -67q0 -44 -17.5 -105.5t-64.5 -150.5l-13 36h302
v-62h-331zM6 314v58h301v-58h-301z" />
    <glyph glyph-name="yen" unicode="&#xa5;" horiz-adv-x="412" 
d="M171 0v336l-159 384h78l134 -336h-28l133 336h71l-159 -384v-336h-70zM26 272v58h361v-58h-361zM186 392h-160v58h137zM261 450h126v-58h-148z" />
    <glyph glyph-name="section" unicode="&#xa7;" horiz-adv-x="334" 
d="M173 210l1 48q32 0 49 17.5t17 50.5q0 23 -12 47.5t-44 46.5l-58 42q-37 27 -58 60.5t-21 78.5q0 57 35 93t93 36q57 0 88.5 -37.5t35.5 -110.5h-62q-3 47 -18.5 68.5t-46.5 21.5q-29 0 -45 -17.5t-16 -49.5q0 -23 12 -45t43 -45l58 -42q35 -25 57.5 -60t22.5 -82
q0 -57 -35 -89t-96 -32zM161 -33q-57 0 -88.5 37.5t-35.5 110.5h62q3 -46 18.5 -68t46.5 -22q29 0 45 17.5t16 49.5q0 23 -11.5 45.5t-43.5 44.5l-58 42q-35 26 -57.5 60.5t-22.5 80.5q0 50 35 86t96 36l-1 -48q-31 0 -48.5 -17.5t-17.5 -50.5q0 -23 12.5 -47t43.5 -47
l58 -42q37 -27 58 -60.5t21 -78.5q0 -57 -35 -93t-93 -36z" />
    <glyph glyph-name="dieresis" unicode="&#xa8;" horiz-adv-x="393" 
d="M249 634v86h84v-86h-84zM60 634v86h84v-86h-84z" />
    <glyph glyph-name="copyright" unicode="&#xa9;" horiz-adv-x="830" 
d="M415 -15q-78 0 -146 29t-119.5 80.5t-80.5 119.5t-29 146t29 146t80.5 119.5t119.5 80.5t146 29t146 -29t119.5 -80.5t80.5 -119.5t29 -146t-29 -146t-80.5 -119.5t-119.5 -80.5t-146 -29zM415 23q69 0 130 26.5t107 73t72 107.5t26 130t-26 130t-72 107.5t-107 73
t-130 26.5t-130 -26.5t-107 -73t-72 -107.5t-26 -130t26 -130t72 -107.5t107 -73t130 -26.5zM417 140q-59 0 -105 28.5t-72 78t-26 113.5t26 113.5t72 78t104 28.5q72 0 121.5 -43.5t59.5 -114.5h-49q-7 53 -42 83.5t-89 30.5q-69 0 -111 -49t-42 -127q0 -79 42 -127.5
t110 -48.5q56 0 91 31t42 83h49q-10 -72 -59 -115t-122 -43z" />
    <glyph glyph-name="ordfeminine" unicode="&#xaa;" horiz-adv-x="282" 
d="M181 418q-3 11 -4.5 24.5t-1.5 26.5h-4v175q0 19 -9 29.5t-25 10.5q-19 0 -29.5 -14t-10.5 -36h-50q0 42 24.5 69t69.5 27q40 0 62 -23t22 -65v-173q0 -14 1.5 -27t3.5 -24h-49zM107 412q-29 0 -48 21t-19 56q0 32 16.5 55.5t53.5 41.5l73 36v-46l-54 -28
q-17 -9 -26 -21.5t-9 -30.5t9 -28t25 -10q19 0 31 15t12 38l7 -45q-9 -28 -28 -41t-43 -13z" />
    <glyph glyph-name="guillemotleft" unicode="&#xab;" horiz-adv-x="414" 
d="M147 68l-102 183l102 183h62l-98 -183l98 -183h-62zM297 68l-102 183l102 183h62l-98 -183l98 -183h-62z" />
    <glyph glyph-name="registered" unicode="&#xae;" horiz-adv-x="830" 
d="M415 -15q-78 0 -146 29t-119.5 80.5t-80.5 119.5t-29 146t29 146t80.5 119.5t119.5 80.5t146 29t146 -29t119.5 -80.5t80.5 -119.5t29 -146t-29 -146t-80.5 -119.5t-119.5 -80.5t-146 -29zM415 23q69 0 130 26.5t107 73t72 107.5t26 130t-26 130t-72 107.5t-107 73
t-130 26.5t-130 -26.5t-107 -73t-72 -107.5t-26 -130t26 -130t72 -107.5t107 -73t130 -26.5zM275 145v430h159q67 0 106 -31.5t39 -85.5q0 -88 -115 -113l6 16q47 2 74.5 -23.5t27.5 -70.5v-71q0 -11 1 -23.5t4 -27.5h-50q-2 9 -3 22t-1 29v61q0 39 -22.5 59.5t-63.5 20.5
h-126v40h121q47 0 72.5 21t25.5 58t-25.5 56.5t-72.5 19.5h-108v-387h-49z" />
    <glyph glyph-name="macron" unicode="&#xaf;" horiz-adv-x="411" 
d="M60 647v48h267v-48h-267z" />
    <glyph glyph-name="degree" unicode="&#xb0;" horiz-adv-x="386" 
d="M194 449q-40 0 -73 19.5t-52 52.5t-19 72t19 71.5t52 51.5t73 19q41 0 73 -19t50.5 -51.5t18.5 -71.5t-18.5 -72t-50.5 -52.5t-73 -19.5zM194 485q45 0 75 31.5t30 76.5q0 44 -30 75t-75 31q-46 0 -76.5 -31t-30.5 -75q0 -45 30.5 -76.5t76.5 -31.5z" />
    <glyph glyph-name="acute" unicode="&#xb4;" horiz-adv-x="354" 
d="M114 583h-54l92 157h86z" />
    <glyph glyph-name="paragraph" unicode="&#xb6;" horiz-adv-x="501" 
d="M250 -130v456h-26q-57 0 -101.5 24.5t-69.5 68.5t-25 101q0 59 25 104t70 70.5t104 25.5h204v-850h-55v796h-71v-796h-55z" />
    <glyph glyph-name="periodcentered" unicode="&#xb7;" horiz-adv-x="91" 
d="M0 327v91h91v-91h-91z" />
    <glyph glyph-name="cedilla" unicode="&#xb8;" horiz-adv-x="301" 
d="M151 -215q-40 0 -64.5 23t-26.5 58h44q2 -19 16.5 -29t33.5 -10q20 0 32.5 10.5t12.5 27.5q0 21 -18 35t-59 17l17 95h45l-11 -63q38 -9 55 -32t17 -50q0 -39 -27 -60.5t-67 -21.5z" />
    <glyph glyph-name="ordmasculine" unicode="&#xba;" horiz-adv-x="308" 
d="M154 412q-36 0 -61.5 20.5t-39 57t-13.5 82.5q0 70 30 114t84 44q53 0 83.5 -43.5t30.5 -114.5q0 -70 -30.5 -115t-83.5 -45zM154 460q29 0 43 30t14 83t-14.5 81t-42.5 28t-43 -28t-15 -81q0 -54 15 -83.5t43 -29.5z" />
    <glyph glyph-name="guillemotright" unicode="&#xbb;" horiz-adv-x="414" 
d="M267 434l102 -183l-102 -183h-62l98 183l-98 183h62zM117 434l102 -183l-102 -183h-62l98 183l-98 183h62z" />
    <glyph glyph-name="questiondown" unicode="&#xbf;" horiz-adv-x="394" 
d="M181 -215q-47 0 -81 20t-52 56t-18 83q0 39 10 66.5t25.5 50.5t32.5 45.5t32.5 50t25.5 65t10 89.5h60q0 -57 -9 -97t-23.5 -68t-30.5 -49.5t-30.5 -42t-23.5 -45t-9 -59.5q0 -47 21.5 -75t64.5 -28q52 0 77 36.5t25 100.5h68q0 -59 -20.5 -104t-59.5 -70t-95 -25z
M239 511v-91h-91v91h91z" />
    <glyph glyph-name="Agrave" unicode="&#xc0;" 
d="M24 0l155 720h56l-147 -720h-64zM354 0l-145 720h60l155 -720h-70zM106 275h234v-60h-234v60zM236 793l-124 157h86l92 -157h-54z" />
    <glyph glyph-name="Aacute" unicode="&#xc1;" 
d="M24 0l155 720h56l-147 -720h-64zM354 0l-145 720h60l155 -720h-70zM106 275h234v-60h-234v60zM212 793h-54l92 157h86z" />
    <glyph glyph-name="Acircumflex" unicode="&#xc2;" 
d="M24 0l155 720h56l-147 -720h-64zM354 0l-145 720h60l155 -720h-70zM106 275h234v-60h-234v60zM77 793l112 157h66l112 -157h-44l-130 137h58l-130 -137h-44z" />
    <glyph glyph-name="Atilde" unicode="&#xc3;" 
d="M24 0l155 720h56l-147 -720h-64zM354 0l-145 720h60l155 -720h-70zM106 275h234v-60h-234v60zM287 811q-25 0 -42.5 10.5t-31 24t-27 24t-30.5 10.5q-18 0 -28.5 -14t-10.5 -45h-42q0 38 11 62.5t31 36.5t45 12q26 0 43 -10.5t29.5 -24t25.5 -24t31 -10.5t28.5 14
t10.5 45h42q0 -37 -11 -62t-30.5 -37t-43.5 -12z" />
    <glyph glyph-name="Adieresis" unicode="&#xc4;" 
d="M24 0l155 720h56l-147 -720h-64zM354 0l-145 720h60l155 -720h-70zM106 275h234v-60h-234v60zM276 844v86h84v-86h-84zM87 844v86h84v-86h-84z" />
    <glyph glyph-name="Aring" unicode="&#xc5;" 
d="M24 0l155 720h56l-147 -720h-64zM354 0l-145 720h60l155 -720h-70zM106 275h234v-60h-234v60zM224 771q-46 0 -77 31.5t-31 76.5q0 44 31 75.5t77 31.5t76.5 -31.5t30.5 -75.5q0 -45 -30.5 -76.5t-76.5 -31.5zM225 811q28 0 46 20t18 48t-18 47.5t-47 19.5t-47.5 -19.5
t-18.5 -47.5t18.5 -48t48.5 -20z" />
    <glyph glyph-name="AE" unicode="&#xc6;" horiz-adv-x="663" 
d="M24 0l155 720h60l-149 -720h-66zM318 0v720h70v-720h-70zM360 0v62h253v-62h-253zM149 344v62h442v-62h-442zM194 658v62h411v-62h-411z" />
    <glyph glyph-name="Ccedilla" unicode="&#xc7;" horiz-adv-x="461" 
d="M242 -10q-48 0 -85.5 25t-63.5 73t-39.5 117t-13.5 157t14 156.5t40 115.5t63.5 71.5t84.5 24.5q58 0 99 -33.5t63.5 -96t22.5 -149.5h-70q0 106 -29.5 160.5t-85.5 54.5q-41 0 -70.5 -34t-44.5 -101.5t-15 -167.5q0 -101 15 -170t44 -104t72 -35q54 0 83 55.5t29 159.5
h71q0 -86 -22.5 -149t-63.5 -96.5t-98 -33.5zM234 -215q-40 0 -64.5 23t-26.5 58h44q2 -19 16.5 -29t33.5 -10q20 0 32.5 10.5t12.5 27.5q0 21 -18 35t-59 17l17 95h45l-11 -63q38 -9 55 -32t17 -50q0 -39 -27 -60.5t-67 -21.5z" />
    <glyph glyph-name="Egrave" unicode="&#xc8;" horiz-adv-x="415" 
d="M70 0v720h70v-720h-70zM112 0v62h253v-62h-253zM112 344v62h231v-62h-231zM112 658v62h245v-62h-245zM230 793l-124 157h86l92 -157h-54z" />
    <glyph glyph-name="Eacute" unicode="&#xc9;" horiz-adv-x="415" 
d="M70 0v720h70v-720h-70zM112 0v62h253v-62h-253zM112 344v62h231v-62h-231zM112 658v62h245v-62h-245zM206 793h-54l92 157h86z" />
    <glyph glyph-name="Ecircumflex" unicode="&#xca;" horiz-adv-x="415" 
d="M70 0v720h70v-720h-70zM112 0v62h253v-62h-253zM112 344v62h231v-62h-231zM112 658v62h245v-62h-245zM71 793l112 157h66l112 -157h-44l-130 137h58l-130 -137h-44z" />
    <glyph glyph-name="Edieresis" unicode="&#xcb;" horiz-adv-x="415" 
d="M70 0v720h70v-720h-70zM112 0v62h253v-62h-253zM112 344v62h231v-62h-231zM112 658v62h245v-62h-245zM270 844v86h84v-86h-84zM81 844v86h84v-86h-84z" />
    <glyph glyph-name="Igrave" unicode="&#xcc;" horiz-adv-x="210" 
d="M70 0v720h70v-720h-70zM117 793l-124 157h86l92 -157h-54z" />
    <glyph glyph-name="Iacute" unicode="&#xcd;" horiz-adv-x="210" 
d="M70 0v720h70v-720h-70zM93 793h-54l92 157h86z" />
    <glyph glyph-name="Icircumflex" unicode="&#xce;" horiz-adv-x="210" 
d="M70 0v720h70v-720h-70zM-42 793l112 157h66l112 -157h-44l-130 137h58l-130 -137h-44z" />
    <glyph glyph-name="Idieresis" unicode="&#xcf;" horiz-adv-x="210" 
d="M70 0v720h70v-720h-70zM157 844v86h84v-86h-84zM-32 844v86h84v-86h-84z" />
    <glyph glyph-name="Eth" unicode="&#xd0;" horiz-adv-x="496" 
d="M0 331v58h267v-58h-267zM119 0v62h96q56 0 93.5 33.5t56.5 101t19 167.5q0 99 -18.5 164t-56 97.5t-94.5 32.5h-101v62h101q76 0 130 -41t82.5 -120.5t28.5 -196.5t-29 -197.5t-82.5 -122.5t-128.5 -42h-97zM70 0v720h70v-720h-70z" />
    <glyph glyph-name="Ntilde" unicode="&#xd1;" horiz-adv-x="505" 
d="M70 0v720h85l224 -606l-10 -2v608h66v-720h-85l-224 606l10 2v-608h-66zM316 811q-25 0 -42.5 10.5t-31 24t-27 24t-30.5 10.5q-18 0 -28.5 -14t-10.5 -45h-42q0 38 11 62.5t31 36.5t45 12q26 0 43 -10.5t29.5 -24t25.5 -24t31 -10.5t28.5 14t10.5 45h42q0 -37 -11 -62
t-30.5 -37t-43.5 -12z" />
    <glyph glyph-name="Ograve" unicode="&#xd2;" horiz-adv-x="500" 
d="M250 -10q-49 0 -88 25.5t-66 73.5t-41.5 117.5t-14.5 156.5q0 115 25 197t72 126t112 44q67 0 114 -44t72 -126t25 -198q0 -87 -14.5 -156t-41.5 -117t-66 -73.5t-88 -25.5zM249 54q45 0 76 36.5t47 105.5t16 168q0 98 -16 165t-47 102t-76 35q-44 0 -75 -34.5
t-46.5 -102t-15.5 -165.5q0 -99 16 -168.5t46.5 -105.5t74.5 -36zM262 793l-124 157h86l92 -157h-54z" />
    <glyph glyph-name="Oacute" unicode="&#xd3;" horiz-adv-x="500" 
d="M250 -10q-49 0 -88 25.5t-66 73.5t-41.5 117.5t-14.5 156.5q0 115 25 197t72 126t112 44q67 0 114 -44t72 -126t25 -198q0 -87 -14.5 -156t-41.5 -117t-66 -73.5t-88 -25.5zM249 54q45 0 76 36.5t47 105.5t16 168q0 98 -16 165t-47 102t-76 35q-44 0 -75 -34.5
t-46.5 -102t-15.5 -165.5q0 -99 16 -168.5t46.5 -105.5t74.5 -36zM238 793h-54l92 157h86z" />
    <glyph glyph-name="Ocircumflex" unicode="&#xd4;" horiz-adv-x="500" 
d="M250 -10q-49 0 -88 25.5t-66 73.5t-41.5 117.5t-14.5 156.5q0 115 25 197t72 126t112 44q67 0 114 -44t72 -126t25 -198q0 -87 -14.5 -156t-41.5 -117t-66 -73.5t-88 -25.5zM249 54q45 0 76 36.5t47 105.5t16 168q0 98 -16 165t-47 102t-76 35q-44 0 -75 -34.5
t-46.5 -102t-15.5 -165.5q0 -99 16 -168.5t46.5 -105.5t74.5 -36zM103 793l112 157h66l112 -157h-44l-130 137h58l-130 -137h-44z" />
    <glyph glyph-name="Otilde" unicode="&#xd5;" horiz-adv-x="500" 
d="M250 -10q-49 0 -88 25.5t-66 73.5t-41.5 117.5t-14.5 156.5q0 115 25 197t72 126t112 44q67 0 114 -44t72 -126t25 -198q0 -87 -14.5 -156t-41.5 -117t-66 -73.5t-88 -25.5zM249 54q45 0 76 36.5t47 105.5t16 168q0 98 -16 165t-47 102t-76 35q-44 0 -75 -34.5
t-46.5 -102t-15.5 -165.5q0 -99 16 -168.5t46.5 -105.5t74.5 -36zM313 811q-25 0 -42.5 10.5t-31 24t-27 24t-30.5 10.5q-18 0 -28.5 -14t-10.5 -45h-42q0 38 11 62.5t31 36.5t45 12q26 0 43 -10.5t29.5 -24t25.5 -24t31 -10.5t28.5 14t10.5 45h42q0 -37 -11 -62t-30.5 -37
t-43.5 -12z" />
    <glyph glyph-name="Odieresis" unicode="&#xd6;" horiz-adv-x="500" 
d="M250 -10q-49 0 -88 25.5t-66 73.5t-41.5 117.5t-14.5 156.5q0 115 25 197t72 126t112 44q67 0 114 -44t72 -126t25 -198q0 -87 -14.5 -156t-41.5 -117t-66 -73.5t-88 -25.5zM249 54q45 0 76 36.5t47 105.5t16 168q0 98 -16 165t-47 102t-76 35q-44 0 -75 -34.5
t-46.5 -102t-15.5 -165.5q0 -99 16 -168.5t46.5 -105.5t74.5 -36zM302 844v86h84v-86h-84zM113 844v86h84v-86h-84z" />
    <glyph glyph-name="multiply" unicode="&#xd7;" horiz-adv-x="531" 
d="M416 179l-342 344l41 41l342 -344zM115 179l-41 41l342 344l41 -41z" />
    <glyph glyph-name="Oslash" unicode="&#xd8;" horiz-adv-x="500" 
d="M67 -10l-42 24l408 716l42 -24zM250 -10q-49 0 -88 25.5t-66 73.5t-41.5 117.5t-14.5 156.5q0 115 25 197t72 126t112 44q67 0 114 -44t72 -126t25 -198q0 -87 -14.5 -156t-41.5 -117t-66 -73.5t-88 -25.5zM249 54q45 0 76 36.5t47 105.5t16 168q0 98 -16 165t-47 102
t-76 35q-44 0 -75 -34.5t-46.5 -102t-15.5 -165.5q0 -99 16 -168.5t46.5 -105.5t74.5 -36z" />
    <glyph glyph-name="Ugrave" unicode="&#xd9;" horiz-adv-x="476" 
d="M238 -10q-84 0 -129 53.5t-45 145.5v531h70v-537q0 -67 27.5 -98t76.5 -31t76.5 30.5t27.5 97.5v538h70v-532q0 -91 -45 -144.5t-129 -53.5zM250 793l-124 157h86l92 -157h-54z" />
    <glyph glyph-name="Uacute" unicode="&#xda;" horiz-adv-x="476" 
d="M238 -10q-84 0 -129 53.5t-45 145.5v531h70v-537q0 -67 27.5 -98t76.5 -31t76.5 30.5t27.5 97.5v538h70v-532q0 -91 -45 -144.5t-129 -53.5zM226 793h-54l92 157h86z" />
    <glyph glyph-name="Ucircumflex" unicode="&#xdb;" horiz-adv-x="476" 
d="M238 -10q-84 0 -129 53.5t-45 145.5v531h70v-537q0 -67 27.5 -98t76.5 -31t76.5 30.5t27.5 97.5v538h70v-532q0 -91 -45 -144.5t-129 -53.5zM91 793l112 157h66l112 -157h-44l-130 137h58l-130 -137h-44z" />
    <glyph glyph-name="Udieresis" unicode="&#xdc;" horiz-adv-x="476" 
d="M238 -10q-84 0 -129 53.5t-45 145.5v531h70v-537q0 -67 27.5 -98t76.5 -31t76.5 30.5t27.5 97.5v538h70v-532q0 -91 -45 -144.5t-129 -53.5zM290 844v86h84v-86h-84zM101 844v86h84v-86h-84z" />
    <glyph glyph-name="Yacute" unicode="&#xdd;" horiz-adv-x="452" 
d="M191 0v336l-179 384h78l154 -336h-28l153 336h71l-179 -384v-336h-70zM214 793h-54l92 157h86z" />
    <glyph glyph-name="Thorn" unicode="&#xde;" horiz-adv-x="434" 
d="M118 170v62h76q71 0 106.5 35.5t35.5 102.5t-35.5 102.5t-106.5 35.5h-76v62h78q61 0 108.5 -24.5t74.5 -69t27 -106.5q0 -61 -27 -106t-74.5 -69.5t-108.5 -24.5h-78zM70 0v720h70v-720h-70z" />
    <glyph glyph-name="germandbls" unicode="&#xdf;" horiz-adv-x="450" 
d="M235 -10q-12 0 -26 2t-26 5v57q8 -3 19.5 -4.5t23.5 -1.5q54 0 84 38.5t30 110.5q0 74 -31.5 117t-83.5 43h-23v60h21q31 0 51 14t30.5 42t10.5 70q0 63 -22.5 96t-66.5 33q-45 0 -69.5 -31t-24.5 -99v-542h-68v549q0 89 43.5 135t119.5 46q49 0 84 -22t54.5 -61.5
t19.5 -93.5q0 -52 -18 -91.5t-49.5 -61t-74.5 -21.5l-6 21q53 0 91.5 -24.5t60 -70t21.5 -108.5t-22 -109.5t-61 -72t-92 -25.5z" />
    <glyph glyph-name="agrave" unicode="&#xe0;" horiz-adv-x="389" 
d="M277 0q-4 18 -6 39.5t-2 45.5h-8v302q0 35 -18.5 54t-48.5 19q-40 0 -59.5 -28t-19.5 -70h-62q0 71 38 114.5t109 43.5q62 0 95.5 -36.5t33.5 -103.5v-295q0 -21 2 -42.5t6 -42.5h-60zM154 -10q-52 0 -83 34.5t-31 92.5q0 53 29.5 92t90.5 69l114 55v-59l-95 -48
q-35 -18 -53 -43.5t-18 -60.5q0 -34 17.5 -53t48.5 -19q38 0 62.5 32t24.5 82l12 -79q-13 -47 -45.5 -71t-73.5 -24zM207 583l-124 157h86l92 -157h-54z" />
    <glyph glyph-name="aacute" unicode="&#xe1;" horiz-adv-x="389" 
d="M277 0q-4 18 -6 39.5t-2 45.5h-8v302q0 35 -18.5 54t-48.5 19q-40 0 -59.5 -28t-19.5 -70h-62q0 71 38 114.5t109 43.5q62 0 95.5 -36.5t33.5 -103.5v-295q0 -21 2 -42.5t6 -42.5h-60zM154 -10q-52 0 -83 34.5t-31 92.5q0 53 29.5 92t90.5 69l114 55v-59l-95 -48
q-35 -18 -53 -43.5t-18 -60.5q0 -34 17.5 -53t48.5 -19q38 0 62.5 32t24.5 82l12 -79q-13 -47 -45.5 -71t-73.5 -24zM183 583h-54l92 157h86z" />
    <glyph glyph-name="acircumflex" unicode="&#xe2;" horiz-adv-x="389" 
d="M277 0q-4 18 -6 39.5t-2 45.5h-8v302q0 35 -18.5 54t-48.5 19q-40 0 -59.5 -28t-19.5 -70h-62q0 71 38 114.5t109 43.5q62 0 95.5 -36.5t33.5 -103.5v-295q0 -21 2 -42.5t6 -42.5h-60zM154 -10q-52 0 -83 34.5t-31 92.5q0 53 29.5 92t90.5 69l114 55v-59l-95 -48
q-35 -18 -53 -43.5t-18 -60.5q0 -34 17.5 -53t48.5 -19q38 0 62.5 32t24.5 82l12 -79q-13 -47 -45.5 -71t-73.5 -24zM48 583l112 157h66l112 -157h-44l-130 137h58l-130 -137h-44z" />
    <glyph glyph-name="atilde" unicode="&#xe3;" horiz-adv-x="389" 
d="M277 0q-4 18 -6 39.5t-2 45.5h-8v302q0 35 -18.5 54t-48.5 19q-40 0 -59.5 -28t-19.5 -70h-62q0 71 38 114.5t109 43.5q62 0 95.5 -36.5t33.5 -103.5v-295q0 -21 2 -42.5t6 -42.5h-60zM154 -10q-52 0 -83 34.5t-31 92.5q0 53 29.5 92t90.5 69l114 55v-59l-95 -48
q-35 -18 -53 -43.5t-18 -60.5q0 -34 17.5 -53t48.5 -19q38 0 62.5 32t24.5 82l12 -79q-13 -47 -45.5 -71t-73.5 -24zM258 601q-25 0 -42.5 10.5t-31 24t-27 24t-30.5 10.5q-18 0 -28.5 -14t-10.5 -45h-42q0 38 11 62.5t31 36.5t45 12q26 0 43 -10.5t29.5 -24t25.5 -24
t31 -10.5t28.5 14t10.5 45h42q0 -37 -11 -62t-30.5 -37t-43.5 -12z" />
    <glyph glyph-name="adieresis" unicode="&#xe4;" horiz-adv-x="389" 
d="M277 0q-4 18 -6 39.5t-2 45.5h-8v302q0 35 -18.5 54t-48.5 19q-40 0 -59.5 -28t-19.5 -70h-62q0 71 38 114.5t109 43.5q62 0 95.5 -36.5t33.5 -103.5v-295q0 -21 2 -42.5t6 -42.5h-60zM154 -10q-52 0 -83 34.5t-31 92.5q0 53 29.5 92t90.5 69l114 55v-59l-95 -48
q-35 -18 -53 -43.5t-18 -60.5q0 -34 17.5 -53t48.5 -19q38 0 62.5 32t24.5 82l12 -79q-13 -47 -45.5 -71t-73.5 -24zM247 634v86h84v-86h-84zM58 634v86h84v-86h-84z" />
    <glyph glyph-name="aring" unicode="&#xe5;" horiz-adv-x="389" 
d="M277 0q-4 18 -6 39.5t-2 45.5h-8v302q0 35 -18.5 54t-48.5 19q-40 0 -59.5 -28t-19.5 -70h-62q0 71 38 114.5t109 43.5q62 0 95.5 -36.5t33.5 -103.5v-295q0 -21 2 -42.5t6 -42.5h-60zM154 -10q-52 0 -83 34.5t-31 92.5q0 53 29.5 92t90.5 69l114 55v-59l-95 -48
q-35 -18 -53 -43.5t-18 -60.5q0 -34 17.5 -53t48.5 -19q38 0 62.5 32t24.5 82l12 -79q-13 -47 -45.5 -71t-73.5 -24zM195 561q-46 0 -77 31.5t-31 76.5q0 44 31 75.5t77 31.5t76.5 -31.5t30.5 -75.5q0 -45 -30.5 -76.5t-76.5 -31.5zM196 601q28 0 46 20t18 48t-18 47.5
t-47 19.5t-47.5 -19.5t-18.5 -47.5t18.5 -48t48.5 -20z" />
    <glyph glyph-name="ae" unicode="&#xe6;" horiz-adv-x="615" 
d="M261 125v262q0 35 -18.5 54t-48.5 19q-40 0 -59.5 -28t-19.5 -70h-62q0 71 38 114.5t109 43.5q62 0 95.5 -36.5t33.5 -103.5v-255h-68zM154 -10q-52 0 -83 34.5t-31 92.5q0 53 29.5 97.5t108.5 68.5l96 30v-59l-77 -23q-52 -15 -70.5 -44.5t-18.5 -64.5q0 -34 17.5 -53
t48.5 -19q26 0 45.5 14.5t30.5 40.5t11 59l52 -49q-21 -70 -63.5 -97.5t-95.5 -27.5zM422 -10q-50 0 -84 31.5t-51.5 90.5t-17.5 141q0 84 19 143.5t55.5 91.5t90.5 32q46 0 78.5 -28t49.5 -86t17 -147v-9v-10h-275v58h239l-28 -40q-1 107 -21.5 154.5t-64.5 47.5
q-31 0 -53.5 -24t-34.5 -70t-12 -113q0 -97 25.5 -150t69.5 -53q37 0 59.5 30t26.5 82h64q-7 -78 -47.5 -125t-104.5 -47z" />
    <glyph glyph-name="ccedilla" unicode="&#xe7;" horiz-adv-x="384" 
d="M200 -10q-51 0 -88 31.5t-56.5 91t-19.5 142.5q0 84 20 143t58 90.5t91 31.5q47 0 79.5 -24t50 -68t17.5 -105h-66q0 67 -20 102t-61 35q-33 0 -55 -22.5t-33 -68t-11 -113.5q0 -67 11 -113t32 -69.5t52 -23.5q40 0 62.5 38t22.5 99h66q0 -58 -18.5 -102.5t-52.5 -69.5
t-81 -25zM195 -215q-40 0 -64.5 23t-26.5 58h44q2 -19 16.5 -29t33.5 -10q20 0 32.5 10.5t12.5 27.5q0 21 -18 35t-59 17l17 95h45l-11 -63q38 -9 55 -32t17 -50q0 -39 -27 -60.5t-67 -21.5z" />
    <glyph glyph-name="egrave" unicode="&#xe8;" horiz-adv-x="402" 
d="M204 -10q-52 0 -90 31.5t-58 90.5t-20 141q0 84 21.5 143.5t62 91.5t96.5 32q49 0 82 -28t50.5 -86t17.5 -147v-9v-10h-285v58h249l-28 -40q-1 107 -22.5 154.5t-68.5 47.5q-51 0 -78 -53t-27 -154q0 -97 26 -150t74 -53q41 0 64 30t27 82h64q-7 -78 -48 -125t-109 -47z
M225 583l-124 157h86l92 -157h-54z" />
    <glyph glyph-name="eacute" unicode="&#xe9;" horiz-adv-x="402" 
d="M204 -10q-52 0 -90 31.5t-58 90.5t-20 141q0 84 21.5 143.5t62 91.5t96.5 32q49 0 82 -28t50.5 -86t17.5 -147v-9v-10h-285v58h249l-28 -40q-1 107 -22.5 154.5t-68.5 47.5q-51 0 -78 -53t-27 -154q0 -97 26 -150t74 -53q41 0 64 30t27 82h64q-7 -78 -48 -125t-109 -47z
M201 583h-54l92 157h86z" />
    <glyph glyph-name="ecircumflex" unicode="&#xea;" horiz-adv-x="402" 
d="M204 -10q-52 0 -90 31.5t-58 90.5t-20 141q0 84 21.5 143.5t62 91.5t96.5 32q49 0 82 -28t50.5 -86t17.5 -147v-9v-10h-285v58h249l-28 -40q-1 107 -22.5 154.5t-68.5 47.5q-51 0 -78 -53t-27 -154q0 -97 26 -150t74 -53q41 0 64 30t27 82h64q-7 -78 -48 -125t-109 -47z
M66 583l112 157h66l112 -157h-44l-130 137h58l-130 -137h-44z" />
    <glyph glyph-name="edieresis" unicode="&#xeb;" horiz-adv-x="402" 
d="M204 -10q-52 0 -90 31.5t-58 90.5t-20 141q0 84 21.5 143.5t62 91.5t96.5 32q49 0 82 -28t50.5 -86t17.5 -147v-9v-10h-285v58h249l-28 -40q-1 107 -22.5 154.5t-68.5 47.5q-51 0 -78 -53t-27 -154q0 -97 26 -150t74 -53q41 0 64 30t27 82h64q-7 -78 -48 -125t-109 -47z
M265 634v86h84v-86h-84zM76 634v86h84v-86h-84z" />
    <glyph glyph-name="igrave" unicode="&#xec;" horiz-adv-x="196" 
d="M64 0v510h68v-510h-68zM110 583l-124 157h86l92 -157h-54z" />
    <glyph glyph-name="iacute" unicode="&#xed;" horiz-adv-x="196" 
d="M64 0v510h68v-510h-68zM86 583h-54l92 157h86z" />
    <glyph glyph-name="icircumflex" unicode="&#xee;" horiz-adv-x="196" 
d="M64 0v510h68v-510h-68zM-49 583l112 157h66l112 -157h-44l-130 137h58l-130 -137h-44z" />
    <glyph glyph-name="idieresis" unicode="&#xef;" horiz-adv-x="196" 
d="M64 0v510h68v-510h-68zM150 634v86h84v-86h-84zM-39 634v86h84v-86h-84z" />
    <glyph glyph-name="eth" unicode="&#xf0;" horiz-adv-x="432" 
d="M207 -10q-55 0 -94.5 28.5t-61 86t-21.5 142.5t20 142t57.5 86t87.5 29q37 0 65 -14.5t47 -42t26 -67.5l-12 -14v8q0 100 -35 165.5t-94 98t-132 32.5l14 60q62 0 119.5 -24.5t102.5 -75.5t71.5 -130t26.5 -189q0 -152 -46 -236.5t-141 -84.5zM209 52q37 0 62.5 21.5
t39 66.5t13.5 114q0 67 -12.5 108.5t-37.5 61.5t-62 20q-55 0 -82.5 -46t-27.5 -150q0 -69 11.5 -112.5t35.5 -63.5t60 -20zM128 545l-31 37l204 171l31 -37z" />
    <glyph glyph-name="ntilde" unicode="&#xf1;" horiz-adv-x="442" 
d="M64 0v510h63v-96h5v-414h-68zM314 0v373q0 45 -17 65t-52 20q-36 0 -61.5 -17.5t-38.5 -46.5t-13 -64l-9 91q20 45 55.5 72t84.5 27q56 0 87.5 -35t31.5 -96v-389h-68zM298 601q-25 0 -42.5 10.5t-31 24t-27 24t-30.5 10.5q-18 0 -28.5 -14t-10.5 -45h-42q0 38 11 62.5
t31 36.5t45 12q26 0 43 -10.5t29.5 -24t25.5 -24t31 -10.5t28.5 14t10.5 45h42q0 -37 -11 -62t-30.5 -37t-43.5 -12z" />
    <glyph glyph-name="ograve" unicode="&#xf2;" horiz-adv-x="432" 
d="M216 -10q-58 0 -98.5 35t-61 95.5t-20.5 136.5q0 77 21 136t61 93t98 34t98 -34t61 -93t21 -136q0 -76 -20.5 -136.5t-60.5 -95.5t-99 -35zM216 50q37 0 61 26t36.5 72.5t12.5 109.5q0 94 -27.5 148t-82.5 54t-82.5 -54t-27.5 -148q0 -63 12.5 -109.5t37 -72.5t60.5 -26z
M228 583l-124 157h86l92 -157h-54z" />
    <glyph glyph-name="oacute" unicode="&#xf3;" horiz-adv-x="432" 
d="M216 -10q-58 0 -98.5 35t-61 95.5t-20.5 136.5q0 77 21 136t61 93t98 34t98 -34t61 -93t21 -136q0 -76 -20.5 -136.5t-60.5 -95.5t-99 -35zM216 50q37 0 61 26t36.5 72.5t12.5 109.5q0 94 -27.5 148t-82.5 54t-82.5 -54t-27.5 -148q0 -63 12.5 -109.5t37 -72.5t60.5 -26z
M204 583h-54l92 157h86z" />
    <glyph glyph-name="ocircumflex" unicode="&#xf4;" horiz-adv-x="432" 
d="M216 -10q-58 0 -98.5 35t-61 95.5t-20.5 136.5q0 77 21 136t61 93t98 34t98 -34t61 -93t21 -136q0 -76 -20.5 -136.5t-60.5 -95.5t-99 -35zM216 50q37 0 61 26t36.5 72.5t12.5 109.5q0 94 -27.5 148t-82.5 54t-82.5 -54t-27.5 -148q0 -63 12.5 -109.5t37 -72.5t60.5 -26z
M69 583l112 157h66l112 -157h-44l-130 137h58l-130 -137h-44z" />
    <glyph glyph-name="otilde" unicode="&#xf5;" horiz-adv-x="432" 
d="M216 -10q-58 0 -98.5 35t-61 95.5t-20.5 136.5q0 77 21 136t61 93t98 34t98 -34t61 -93t21 -136q0 -76 -20.5 -136.5t-60.5 -95.5t-99 -35zM216 50q37 0 61 26t36.5 72.5t12.5 109.5q0 94 -27.5 148t-82.5 54t-82.5 -54t-27.5 -148q0 -63 12.5 -109.5t37 -72.5t60.5 -26z
M279 601q-25 0 -42.5 10.5t-31 24t-27 24t-30.5 10.5q-18 0 -28.5 -14t-10.5 -45h-42q0 38 11 62.5t31 36.5t45 12q26 0 43 -10.5t29.5 -24t25.5 -24t31 -10.5t28.5 14t10.5 45h42q0 -37 -11 -62t-30.5 -37t-43.5 -12z" />
    <glyph glyph-name="odieresis" unicode="&#xf6;" horiz-adv-x="432" 
d="M216 -10q-58 0 -98.5 35t-61 95.5t-20.5 136.5q0 77 21 136t61 93t98 34t98 -34t61 -93t21 -136q0 -76 -20.5 -136.5t-60.5 -95.5t-99 -35zM216 50q37 0 61 26t36.5 72.5t12.5 109.5q0 94 -27.5 148t-82.5 54t-82.5 -54t-27.5 -148q0 -63 12.5 -109.5t37 -72.5t60.5 -26z
M268 634v86h84v-86h-84zM79 634v86h84v-86h-84z" />
    <glyph glyph-name="divide" unicode="&#xf7;" horiz-adv-x="531" 
d="M60 342v58h411v-58h-411zM266 485q-22 0 -37.5 14.5t-15.5 38.5q0 23 15.5 37.5t37.5 14.5q20 0 36 -14.5t16 -37.5q0 -24 -16 -38.5t-36 -14.5zM266 153q-22 0 -37.5 14.5t-15.5 38.5q0 23 15.5 37.5t37.5 14.5q20 0 36 -14.5t16 -37.5q0 -24 -16 -38.5t-36 -14.5z" />
    <glyph glyph-name="oslash" unicode="&#xf8;" horiz-adv-x="432" 
d="M216 -10q-58 0 -98.5 35t-61 95.5t-20.5 136.5q0 77 21 136t61 93t98 34t98 -34t61 -93t21 -136q0 -76 -20.5 -136.5t-60.5 -95.5t-99 -35zM216 50q37 0 61 26t36.5 72.5t12.5 109.5q0 94 -27.5 148t-82.5 54t-82.5 -54t-27.5 -148q0 -63 12.5 -109.5t37 -72.5t60.5 -26z
M91 -10l-42 24l292 506l42 -24z" />
    <glyph glyph-name="ugrave" unicode="&#xf9;" horiz-adv-x="434" 
d="M179 -10q-36 0 -63 16t-41.5 45.5t-14.5 69.5v389h68v-383q0 -37 17.5 -56t50.5 -19q31 0 55 17t37.5 45.5t13.5 61.5l9 -91q-20 -45 -53.5 -70t-78.5 -25zM310 0v92h-8v418h68v-510h-60zM229 583l-124 157h86l92 -157h-54z" />
    <glyph glyph-name="uacute" unicode="&#xfa;" horiz-adv-x="434" 
d="M179 -10q-36 0 -63 16t-41.5 45.5t-14.5 69.5v389h68v-383q0 -37 17.5 -56t50.5 -19q31 0 55 17t37.5 45.5t13.5 61.5l9 -91q-20 -45 -53.5 -70t-78.5 -25zM310 0v92h-8v418h68v-510h-60zM205 583h-54l92 157h86z" />
    <glyph glyph-name="ucircumflex" unicode="&#xfb;" horiz-adv-x="434" 
d="M179 -10q-36 0 -63 16t-41.5 45.5t-14.5 69.5v389h68v-383q0 -37 17.5 -56t50.5 -19q31 0 55 17t37.5 45.5t13.5 61.5l9 -91q-20 -45 -53.5 -70t-78.5 -25zM310 0v92h-8v418h68v-510h-60zM70 583l112 157h66l112 -157h-44l-130 137h58l-130 -137h-44z" />
    <glyph glyph-name="udieresis" unicode="&#xfc;" horiz-adv-x="434" 
d="M179 -10q-36 0 -63 16t-41.5 45.5t-14.5 69.5v389h68v-383q0 -37 17.5 -56t50.5 -19q31 0 55 17t37.5 45.5t13.5 61.5l9 -91q-20 -45 -53.5 -70t-78.5 -25zM310 0v92h-8v418h68v-510h-60zM269 634v86h84v-86h-84zM80 634v86h84v-86h-84z" />
    <glyph glyph-name="yacute" unicode="&#xfd;" horiz-adv-x="388" 
d="M90 -205l83 270l7 24l120 421h68l-210 -715h-68zM178 5l-158 505h72l126 -430zM182 583h-54l92 157h86z" />
    <glyph glyph-name="thorn" unicode="&#xfe;" 
d="M243 -10q-46 0 -81 29t-43 85l13 7v-316h-68v925h68v-313l-12 8q12 52 47.5 78.5t83.5 26.5q51 0 86.5 -31t54 -89t18.5 -139q0 -84 -20 -145t-57.5 -93.5t-89.5 -32.5zM234 52q54 0 80 50t26 153t-27 153t-81 50t-80 -50t-26 -153t27 -153t81 -50z" />
    <glyph glyph-name="ydieresis" unicode="&#xff;" horiz-adv-x="388" 
d="M90 -205l83 270l7 24l120 421h68l-210 -715h-68zM178 5l-158 505h72l126 -430zM246 634v86h84v-86h-84zM57 634v86h84v-86h-84z" />
    <glyph glyph-name="Amacron" unicode="&#x100;" 
d="M24 0l155 720h56l-147 -720h-64zM354 0l-145 720h60l155 -720h-70zM106 275h234v-60h-234v60zM90 857v48h267v-48h-267z" />
    <glyph glyph-name="amacron" unicode="&#x101;" horiz-adv-x="389" 
d="M277 0q-4 18 -6 39.5t-2 45.5h-8v302q0 35 -18.5 54t-48.5 19q-40 0 -59.5 -28t-19.5 -70h-62q0 71 38 114.5t109 43.5q62 0 95.5 -36.5t33.5 -103.5v-295q0 -21 2 -42.5t6 -42.5h-60zM154 -10q-52 0 -83 34.5t-31 92.5q0 53 29.5 92t90.5 69l114 55v-59l-95 -48
q-35 -18 -53 -43.5t-18 -60.5q0 -34 17.5 -53t48.5 -19q38 0 62.5 32t24.5 82l12 -79q-13 -47 -45.5 -71t-73.5 -24zM61 647v48h267v-48h-267z" />
    <glyph glyph-name="Abreve" unicode="&#x102;" 
d="M24 0l155 720h56l-147 -720h-64zM354 0l-145 720h60l155 -720h-70zM106 275h234v-60h-234v60zM224 789q-35 0 -65.5 18t-49 54t-18.5 89h42q0 -51 24.5 -78.5t66.5 -27.5t66.5 27.5t24.5 78.5h42q0 -53 -18.5 -89t-48.5 -54t-66 -18z" />
    <glyph glyph-name="abreve" unicode="&#x103;" horiz-adv-x="389" 
d="M277 0q-4 18 -6 39.5t-2 45.5h-8v302q0 35 -18.5 54t-48.5 19q-40 0 -59.5 -28t-19.5 -70h-62q0 71 38 114.5t109 43.5q62 0 95.5 -36.5t33.5 -103.5v-295q0 -21 2 -42.5t6 -42.5h-60zM154 -10q-52 0 -83 34.5t-31 92.5q0 53 29.5 92t90.5 69l114 55v-59l-95 -48
q-35 -18 -53 -43.5t-18 -60.5q0 -34 17.5 -53t48.5 -19q38 0 62.5 32t24.5 82l12 -79q-13 -47 -45.5 -71t-73.5 -24zM195 579q-35 0 -65.5 18t-49 54t-18.5 89h42q0 -51 24.5 -78.5t66.5 -27.5t66.5 27.5t24.5 78.5h42q0 -53 -18.5 -89t-48.5 -54t-66 -18z" />
    <glyph glyph-name="Aogonek" unicode="&#x104;" 
d="M24 0l155 720h56l-147 -720h-64zM354 0l-145 720h60l155 -720h-70zM106 275h234v-60h-234v60zM356 -216q-34 0 -55 20.5t-21 54.5q0 44 36 86t91 72l17 -17q-44 -32 -71 -65t-27 -70q0 -19 10.5 -29t24.5 -10q20 0 39 18l25 -31q-14 -14 -30.5 -21.5t-38.5 -7.5z" />
    <glyph glyph-name="aogonek" unicode="&#x105;" horiz-adv-x="389" 
d="M277 0q-4 18 -6 39.5t-2 45.5h-8v302q0 35 -18.5 54t-48.5 19q-40 0 -59.5 -28t-19.5 -70h-62q0 71 38 114.5t109 43.5q62 0 95.5 -36.5t33.5 -103.5v-295q0 -21 2 -42.5t6 -42.5h-60zM154 -10q-52 0 -83 34.5t-31 92.5q0 53 29.5 92t90.5 69l114 55v-59l-95 -48
q-35 -18 -53 -43.5t-18 -60.5q0 -34 17.5 -53t48.5 -19q38 0 62.5 32t24.5 82l12 -79q-13 -47 -45.5 -71t-73.5 -24zM269 -216q-34 0 -55 20.5t-21 54.5q0 44 36 86t91 72l17 -17q-44 -32 -71 -65t-27 -70q0 -19 10.5 -29t24.5 -10q20 0 39 18l25 -31q-14 -14 -30.5 -21.5
t-38.5 -7.5z" />
    <glyph glyph-name="Cacute" unicode="&#x106;" horiz-adv-x="461" 
d="M242 -10q-48 0 -85.5 25t-63.5 73t-39.5 117t-13.5 157t14 156.5t40 115.5t63.5 71.5t84.5 24.5q58 0 99 -33.5t63.5 -96t22.5 -149.5h-70q0 106 -29.5 160.5t-85.5 54.5q-41 0 -70.5 -34t-44.5 -101.5t-15 -167.5q0 -101 15 -170t44 -104t72 -35q54 0 83 55.5t29 159.5
h71q0 -86 -22.5 -149t-63.5 -96.5t-98 -33.5zM229 793h-54l92 157h86z" />
    <glyph glyph-name="cacute" unicode="&#x107;" horiz-adv-x="384" 
d="M200 -10q-51 0 -88 31.5t-56.5 91t-19.5 142.5q0 84 20 143t58 90.5t91 31.5q47 0 79.5 -24t50 -68t17.5 -105h-66q0 67 -20 102t-61 35q-33 0 -55 -22.5t-33 -68t-11 -113.5q0 -67 11 -113t32 -69.5t52 -23.5q40 0 62.5 38t22.5 99h66q0 -58 -18.5 -102.5t-52.5 -69.5
t-81 -25zM193 583h-54l92 157h86z" />
    <glyph glyph-name="Cdotaccent" unicode="&#x10a;" horiz-adv-x="461" 
d="M242 -10q-48 0 -85.5 25t-63.5 73t-39.5 117t-13.5 157t14 156.5t40 115.5t63.5 71.5t84.5 24.5q58 0 99 -33.5t63.5 -96t22.5 -149.5h-70q0 106 -29.5 160.5t-85.5 54.5q-41 0 -70.5 -34t-44.5 -101.5t-15 -167.5q0 -101 15 -170t44 -104t72 -35q54 0 83 55.5t29 159.5
h71q0 -86 -22.5 -149t-63.5 -96.5t-98 -33.5zM199 844v86h84v-86h-84z" />
    <glyph glyph-name="cdotaccent" unicode="&#x10b;" horiz-adv-x="384" 
d="M200 -10q-51 0 -88 31.5t-56.5 91t-19.5 142.5q0 84 20 143t58 90.5t91 31.5q47 0 79.5 -24t50 -68t17.5 -105h-66q0 67 -20 102t-61 35q-33 0 -55 -22.5t-33 -68t-11 -113.5q0 -67 11 -113t32 -69.5t52 -23.5q40 0 62.5 38t22.5 99h66q0 -58 -18.5 -102.5t-52.5 -69.5
t-81 -25zM163 634v86h84v-86h-84z" />
    <glyph glyph-name="Ccaron" unicode="&#x10c;" horiz-adv-x="461" 
d="M242 -10q-48 0 -85.5 25t-63.5 73t-39.5 117t-13.5 157t14 156.5t40 115.5t63.5 71.5t84.5 24.5q58 0 99 -33.5t63.5 -96t22.5 -149.5h-70q0 106 -29.5 160.5t-85.5 54.5q-41 0 -70.5 -34t-44.5 -101.5t-15 -167.5q0 -101 15 -170t44 -104t72 -35q54 0 83 55.5t29 159.5
h71q0 -86 -22.5 -149t-63.5 -96.5t-98 -33.5zM208 793l-112 157h44l130 -137h-58l130 137h44l-112 -157h-66z" />
    <glyph glyph-name="ccaron" unicode="&#x10d;" horiz-adv-x="384" 
d="M200 -10q-51 0 -88 31.5t-56.5 91t-19.5 142.5q0 84 20 143t58 90.5t91 31.5q47 0 79.5 -24t50 -68t17.5 -105h-66q0 67 -20 102t-61 35q-33 0 -55 -22.5t-33 -68t-11 -113.5q0 -67 11 -113t32 -69.5t52 -23.5q40 0 62.5 38t22.5 99h66q0 -58 -18.5 -102.5t-52.5 -69.5
t-81 -25zM172 583l-112 157h44l130 -137h-58l130 137h44l-112 -157h-66z" />
    <glyph glyph-name="Dcaron" unicode="&#x10e;" horiz-adv-x="496" 
d="M119 0v62h96q56 0 93.5 33.5t56.5 101t19 167.5q0 99 -18.5 164t-56 97.5t-94.5 32.5h-101v62h101q76 0 130 -41t82.5 -120.5t28.5 -196.5t-29 -197.5t-82.5 -122.5t-128.5 -42h-97zM70 0v720h70v-720h-70zM215 793l-112 157h44l130 -137h-58l130 137h44l-112 -157h-66z
" />
    <glyph glyph-name="dcaron" unicode="&#x10f;" horiz-adv-x="477" 
d="M321 0v103l7 -8q-12 -52 -47 -78.5t-82 -26.5q-51 0 -87 31t-55 89t-19 139q0 85 20 145.5t57.5 93t89.5 32.5q46 0 81.5 -29t42.5 -85l-13 -7v321h68v-720h-63zM216 52q54 0 80 50t26 153t-27 153t-81 50t-80 -50t-26 -153t27 -153t81 -50zM474 503h-40v217h66z" />
    <glyph glyph-name="Dcroat" unicode="&#x110;" horiz-adv-x="496" 
d="M0 331v58h267v-58h-267zM119 0v62h96q56 0 93.5 33.5t56.5 101t19 167.5q0 99 -18.5 164t-56 97.5t-94.5 32.5h-101v62h101q76 0 130 -41t82.5 -120.5t28.5 -196.5t-29 -197.5t-82.5 -122.5t-128.5 -42h-97zM70 0v720h70v-720h-70z" />
    <glyph glyph-name="dcroat" unicode="&#x111;" 
d="M181 595v48h267v-48h-267zM321 0v103l7 -8q-12 -52 -47 -78.5t-82 -26.5q-51 0 -87 31t-55 89t-19 139q0 85 20 145.5t57.5 93t89.5 32.5q46 0 81.5 -29t42.5 -85l-13 -7v321h68v-720h-63zM216 52q54 0 80 50t26 153t-27 153t-81 50t-80 -50t-26 -153t27 -153t81 -50z
" />
    <glyph glyph-name="Emacron" unicode="&#x112;" horiz-adv-x="415" 
d="M70 0v720h70v-720h-70zM112 0v62h253v-62h-253zM112 344v62h231v-62h-231zM112 658v62h245v-62h-245zM84 857v48h267v-48h-267z" />
    <glyph glyph-name="emacron" unicode="&#x113;" horiz-adv-x="402" 
d="M204 -10q-52 0 -90 31.5t-58 90.5t-20 141q0 84 21.5 143.5t62 91.5t96.5 32q49 0 82 -28t50.5 -86t17.5 -147v-9v-10h-285v58h249l-28 -40q-1 107 -22.5 154.5t-68.5 47.5q-51 0 -78 -53t-27 -154q0 -97 26 -150t74 -53q41 0 64 30t27 82h64q-7 -78 -48 -125t-109 -47z
M79 647v48h267v-48h-267z" />
    <glyph glyph-name="Edotaccent" unicode="&#x116;" horiz-adv-x="415" 
d="M70 0v720h70v-720h-70zM112 0v62h253v-62h-253zM112 344v62h231v-62h-231zM112 658v62h245v-62h-245zM176 844v86h84v-86h-84z" />
    <glyph glyph-name="edotaccent" unicode="&#x117;" horiz-adv-x="402" 
d="M204 -10q-52 0 -90 31.5t-58 90.5t-20 141q0 84 21.5 143.5t62 91.5t96.5 32q49 0 82 -28t50.5 -86t17.5 -147v-9v-10h-285v58h249l-28 -40q-1 107 -22.5 154.5t-68.5 47.5q-51 0 -78 -53t-27 -154q0 -97 26 -150t74 -53q41 0 64 30t27 82h64q-7 -78 -48 -125t-109 -47z
M171 634v86h84v-86h-84z" />
    <glyph glyph-name="Eogonek" unicode="&#x118;" horiz-adv-x="415" 
d="M70 0v720h70v-720h-70zM112 0v62h253v-62h-253zM112 344v62h231v-62h-231zM112 658v62h245v-62h-245zM257 -216q-34 0 -55 20.5t-21 54.5q0 44 36 86t91 72l17 -17q-44 -32 -71 -65t-27 -70q0 -19 10.5 -29t24.5 -10q20 0 39 18l25 -31q-14 -14 -30.5 -21.5t-38.5 -7.5z
" />
    <glyph glyph-name="eogonek" unicode="&#x119;" horiz-adv-x="402" 
d="M204 -10q-52 0 -90 31.5t-58 90.5t-20 141q0 84 21.5 143.5t62 91.5t96.5 32q49 0 82 -28t50.5 -86t17.5 -147v-9v-10h-285v58h249l-28 -40q-1 107 -22.5 154.5t-68.5 47.5q-51 0 -78 -53t-27 -154q0 -97 26 -150t74 -53q41 0 64 30t27 82h64q-7 -78 -48 -125t-109 -47z
M226 -196q-34 0 -55 20.5t-21 54.5q0 44 36 86t91 72l17 -17q-44 -32 -71 -65t-27 -70q0 -19 10.5 -29t24.5 -10q20 0 39 18l25 -31q-14 -14 -30.5 -21.5t-38.5 -7.5z" />
    <glyph glyph-name="Ecaron" unicode="&#x11a;" horiz-adv-x="415" 
d="M70 0v720h70v-720h-70zM112 0v62h253v-62h-253zM112 344v62h231v-62h-231zM112 658v62h245v-62h-245zM185 793l-112 157h44l130 -137h-58l130 137h44l-112 -157h-66z" />
    <glyph glyph-name="ecaron" unicode="&#x11b;" horiz-adv-x="402" 
d="M204 -10q-52 0 -90 31.5t-58 90.5t-20 141q0 84 21.5 143.5t62 91.5t96.5 32q49 0 82 -28t50.5 -86t17.5 -147v-9v-10h-285v58h249l-28 -40q-1 107 -22.5 154.5t-68.5 47.5q-51 0 -78 -53t-27 -154q0 -97 26 -150t74 -53q41 0 64 30t27 82h64q-7 -78 -48 -125t-109 -47z
M180 583l-112 157h44l130 -137h-58l130 137h44l-112 -157h-66z" />
    <glyph glyph-name="Gbreve" unicode="&#x11e;" horiz-adv-x="481" 
d="M266 -10q-75 0 -125.5 40.5t-75.5 121t-25 200.5q0 121 24.5 205t71.5 128.5t113 44.5q55 0 95 -30t61.5 -86t21.5 -133h-70q0 92 -26.5 138.5t-79.5 46.5q-46 0 -77 -35t-46.5 -104t-15.5 -172q0 -105 17 -171.5t52 -98t90 -31.5q27 0 48.5 7.5t36.5 21.5l70 -28
q-31 -32 -71.5 -48.5t-88.5 -16.5zM356 69v275l31 -31h-141v62h180v-320zM251 789q-35 0 -65.5 18t-49 54t-18.5 89h42q0 -51 24.5 -78.5t66.5 -27.5t66.5 27.5t24.5 78.5h42q0 -53 -18.5 -89t-48.5 -54t-66 -18z" />
    <glyph glyph-name="gbreve" unicode="&#x11f;" 
d="M213 -215q-70 0 -110.5 39.5t-44.5 104.5h62q2 -40 27.5 -62t68.5 -22q50 0 75 29t25 88v148l7 -1q-5 -49 -40.5 -79t-86.5 -30q-49 0 -84.5 30.5t-54.5 87.5t-19 136q0 83 20.5 142.5t58.5 91.5t91 32q50 0 84 -30.5t39 -81.5h-7v102h60v-538q0 -89 -44.5 -138
t-126.5 -49zM216 62q53 0 79.5 49t26.5 149t-27 149t-81 49q-53 0 -79.5 -49t-26.5 -149q0 -99 27 -148.5t81 -49.5zM214 579q-35 0 -65.5 18t-49 54t-18.5 89h42q0 -51 24.5 -78.5t66.5 -27.5t66.5 27.5t24.5 78.5h42q0 -53 -18.5 -89t-48.5 -54t-66 -18z" />
    <glyph glyph-name="Gdotaccent" unicode="&#x120;" horiz-adv-x="481" 
d="M266 -10q-75 0 -125.5 40.5t-75.5 121t-25 200.5q0 121 24.5 205t71.5 128.5t113 44.5q55 0 95 -30t61.5 -86t21.5 -133h-70q0 92 -26.5 138.5t-79.5 46.5q-46 0 -77 -35t-46.5 -104t-15.5 -172q0 -105 17 -171.5t52 -98t90 -31.5q27 0 48.5 7.5t36.5 21.5l70 -28
q-31 -32 -71.5 -48.5t-88.5 -16.5zM356 69v275l31 -31h-141v62h180v-320zM209 844v86h84v-86h-84z" />
    <glyph glyph-name="gdotaccent" unicode="&#x121;" 
d="M213 -215q-70 0 -110.5 39.5t-44.5 104.5h62q2 -40 27.5 -62t68.5 -22q50 0 75 29t25 88v148l7 -1q-5 -49 -40.5 -79t-86.5 -30q-49 0 -84.5 30.5t-54.5 87.5t-19 136q0 83 20.5 142.5t58.5 91.5t91 32q50 0 84 -30.5t39 -81.5h-7v102h60v-538q0 -89 -44.5 -138
t-126.5 -49zM216 62q53 0 79.5 49t26.5 149t-27 149t-81 49q-53 0 -79.5 -49t-26.5 -149q0 -99 27 -148.5t81 -49.5zM172 634v86h84v-86h-84z" />
    <glyph glyph-name="uni0122" unicode="&#x122;" horiz-adv-x="481" 
d="M266 -10q-75 0 -125.5 40.5t-75.5 121t-25 200.5q0 121 24.5 205t71.5 128.5t113 44.5q55 0 95 -30t61.5 -86t21.5 -133h-70q0 92 -26.5 138.5t-79.5 46.5q-46 0 -77 -35t-46.5 -104t-15.5 -172q0 -105 17 -171.5t52 -98t90 -31.5q27 0 48.5 7.5t36.5 21.5l70 -28
q-31 -32 -71.5 -48.5t-88.5 -16.5zM356 69v275l31 -31h-141v62h180v-320zM203 -273v37q28 9 40.5 28t12.5 49l27 -4h-80v92h95v-70q0 -53 -23 -85.5t-72 -46.5z" />
    <glyph glyph-name="uni0123" unicode="&#x123;" 
d="M213 -215q-70 0 -110.5 39.5t-44.5 104.5h62q2 -40 27.5 -62t68.5 -22q50 0 75 29t25 88v148l7 -1q-5 -49 -40.5 -79t-86.5 -30q-49 0 -84.5 30.5t-54.5 87.5t-19 136q0 83 20.5 142.5t58.5 91.5t91 32q50 0 84 -30.5t39 -81.5h-7v102h60v-538q0 -89 -44.5 -138
t-126.5 -49zM216 62q53 0 79.5 49t26.5 149t-27 149t-81 49q-53 0 -79.5 -49t-26.5 -149q0 -99 27 -148.5t81 -49.5zM166 581v70q0 53 23 86t72 46v-37q-28 -9 -40.5 -28t-12.5 -49l-27 4h80v-92h-95z" />
    <glyph glyph-name="Hbar" unicode="&#x126;" horiz-adv-x="500" 
d="M0 546v58h500v-58h-500zM70 0v720h70v-720h-70zM360 0v720h70v-720h-70zM112 406h274v-62h-274v62z" />
    <glyph glyph-name="hbar" unicode="&#x127;" horiz-adv-x="442" 
d="M0 595v48h267v-48h-267zM64 0v720h68v-720h-68zM314 0v373q0 45 -17 65t-52 20q-36 0 -61.5 -17.5t-38.5 -46.5t-13 -64l-9 91q20 45 55.5 72t84.5 27q56 0 87.5 -35t31.5 -96v-389h-68z" />
    <glyph glyph-name="Imacron" unicode="&#x12a;" horiz-adv-x="210" 
d="M70 0v720h70v-720h-70zM-29 857v48h267v-48h-267z" />
    <glyph glyph-name="imacron" unicode="&#x12b;" horiz-adv-x="196" 
d="M64 0v510h68v-510h-68zM-36 647v48h267v-48h-267z" />
    <glyph glyph-name="Iogonek" unicode="&#x12e;" horiz-adv-x="210" 
d="M70 0v720h70v-720h-70zM72 -216q-34 0 -55 20.5t-21 54.5q0 44 36 86t91 72l17 -17q-44 -32 -71 -65t-27 -70q0 -19 10.5 -29t24.5 -10q20 0 39 18l25 -31q-14 -14 -30.5 -21.5t-38.5 -7.5z" />
    <glyph glyph-name="iogonek" unicode="&#x12f;" horiz-adv-x="196" 
d="M64 0v510h68v-510h-68zM56 634v86h84v-86h-84zM64 -216q-34 0 -55 20.5t-21 54.5q0 44 36 86t91 72l17 -17q-44 -32 -71 -65t-27 -70q0 -19 10.5 -29t24.5 -10q20 0 39 18l25 -31q-14 -14 -30.5 -21.5t-38.5 -7.5z" />
    <glyph glyph-name="Idotaccent" unicode="&#x130;" horiz-adv-x="210" 
d="M70 0v720h70v-720h-70zM63 844v86h84v-86h-84z" />
    <glyph glyph-name="dotlessi" unicode="&#x131;" horiz-adv-x="196" 
d="M64 0v510h68v-510h-68z" />
    <glyph glyph-name="IJ" unicode="&#x132;" horiz-adv-x="517" 
d="M70 0v720h70v-720h-70zM293 -10q-25 0 -43.5 3.5t-29.5 8.5v64q12 -5 31.5 -8.5t37.5 -3.5q44 0 69 17t25 57v592h70v-597q0 -71 -44.5 -102t-115.5 -31z" />
    <glyph glyph-name="ij" unicode="&#x133;" horiz-adv-x="392" 
d="M64 0v510h68v-510h-68zM56 634v86h84v-86h-84zM221 -215q-19 0 -28.5 1.5t-15.5 3.5v57q5 -1 13.5 -2.5t18.5 -1.5q26 0 38.5 10.5t12.5 32.5v624h68v-628q0 -42 -27.5 -69.5t-79.5 -27.5zM252 634v86h84v-86h-84z" />
    <glyph glyph-name="uni0136" unicode="&#x136;" horiz-adv-x="466" 
d="M70 0v720h70v-720h-70zM131 374l222 346h77l-223 -346h-76zM367 0l-238 374h78l243 -374h-83zM205 -273v37q28 9 40.5 28t12.5 49l27 -4h-80v92h95v-70q0 -53 -23 -85.5t-72 -46.5z" />
    <glyph glyph-name="uni0137" unicode="&#x137;" horiz-adv-x="399" 
d="M64 0v720h68v-720h-68zM308 0l-188 265l180 245h77l-197 -264l-1 43l208 -289h-79zM172 -273v37q28 9 40.5 28t12.5 49l27 -4h-80v92h95v-70q0 -53 -23 -85.5t-72 -46.5z" />
    <glyph glyph-name="Lacute" unicode="&#x139;" horiz-adv-x="375" 
d="M70 0v720h70v-720h-70zM112 0v62h223v-62h-223zM93 793h-54l92 157h86z" />
    <glyph glyph-name="lacute" unicode="&#x13a;" horiz-adv-x="196" 
d="M64 0v720h68v-720h-68zM86 793h-54l92 157h86z" />
    <glyph glyph-name="uni013B" unicode="&#x13b;" horiz-adv-x="375" 
d="M70 0v720h70v-720h-70zM112 0v62h223v-62h-223zM160 -273v37q28 9 40.5 28t12.5 49l27 -4h-80v92h95v-70q0 -53 -23 -85.5t-72 -46.5z" />
    <glyph glyph-name="uni013C" unicode="&#x13c;" horiz-adv-x="196" 
d="M64 0v720h68v-720h-68zM50 -273v37q28 9 40.5 28t12.5 49l27 -4h-80v92h95v-70q0 -53 -23 -85.5t-72 -46.5z" />
    <glyph glyph-name="Lcaron" unicode="&#x13d;" horiz-adv-x="375" 
d="M70 0v720h70v-720h-70zM112 0v62h223v-62h-223zM308 503h-40v217h66z" />
    <glyph glyph-name="lcaron" unicode="&#x13e;" horiz-adv-x="225" 
d="M64 0v720h68v-720h-68zM222 503h-40v217h66z" />
    <glyph glyph-name="Lslash" unicode="&#x141;" horiz-adv-x="375" 
d="M101 345l-101 -53v60l100 52zM100 408l149 79v-60l-148 -78zM70 0v720h70v-720h-70zM112 0v62h223v-62h-223z" />
    <glyph glyph-name="lslash" unicode="&#x142;" horiz-adv-x="196" 
d="M100 355l-101 -53v54l100 52zM99 412l98 52v-54l-97 -51zM64 0v720h68v-720h-68z" />
    <glyph glyph-name="Nacute" unicode="&#x143;" horiz-adv-x="505" 
d="M70 0v720h85l224 -606l-10 -2v608h66v-720h-85l-224 606l10 2v-608h-66zM241 793h-54l92 157h86z" />
    <glyph glyph-name="nacute" unicode="&#x144;" horiz-adv-x="442" 
d="M64 0v510h63v-96h5v-414h-68zM314 0v373q0 45 -17 65t-52 20q-36 0 -61.5 -17.5t-38.5 -46.5t-13 -64l-9 91q20 45 55.5 72t84.5 27q56 0 87.5 -35t31.5 -96v-389h-68zM223 583h-54l92 157h86z" />
    <glyph glyph-name="uni0145" unicode="&#x145;" horiz-adv-x="505" 
d="M70 0v720h85l224 -606l-10 -2v608h66v-720h-85l-224 606l10 2v-608h-66zM205 -273v37q28 9 40.5 28t12.5 49l27 -4h-80v92h95v-70q0 -53 -23 -85.5t-72 -46.5z" />
    <glyph glyph-name="uni0146" unicode="&#x146;" horiz-adv-x="442" 
d="M64 0v510h63v-96h5v-414h-68zM314 0v373q0 45 -17 65t-52 20q-36 0 -61.5 -17.5t-38.5 -46.5t-13 -64l-9 91q20 45 55.5 72t84.5 27q56 0 87.5 -35t31.5 -96v-389h-68zM173 -273v37q28 9 40.5 28t12.5 49l27 -4h-80v92h95v-70q0 -53 -23 -85.5t-72 -46.5z" />
    <glyph glyph-name="Ncaron" unicode="&#x147;" horiz-adv-x="505" 
d="M70 0v720h85l224 -606l-10 -2v608h66v-720h-85l-224 606l10 2v-608h-66zM220 793l-112 157h44l130 -137h-58l130 137h44l-112 -157h-66z" />
    <glyph glyph-name="ncaron" unicode="&#x148;" horiz-adv-x="442" 
d="M64 0v510h63v-96h5v-414h-68zM314 0v373q0 45 -17 65t-52 20q-36 0 -61.5 -17.5t-38.5 -46.5t-13 -64l-9 91q20 45 55.5 72t84.5 27q56 0 87.5 -35t31.5 -96v-389h-68zM202 583l-112 157h44l130 -137h-58l130 137h44l-112 -157h-66z" />
    <glyph glyph-name="Eng" unicode="&#x14a;" horiz-adv-x="505" 
d="M70 0v720h85l244 -606l-30 -2v608h66v-720h-65l-244 606l10 2v-608h-66zM318 -215q-19 0 -29.5 1.5t-24.5 5.5v63q12 -3 22 -4.5t20 -1.5q31 0 46 14.5t15 48.5v109h68v-119q0 -52 -30.5 -84.5t-86.5 -32.5z" />
    <glyph glyph-name="eng" unicode="&#x14b;" horiz-adv-x="442" 
d="M275 -215q-19 0 -28.5 1.5t-15.5 3.5v57q5 -1 13.5 -2.5t18.5 -1.5q26 0 38.5 10.5t12.5 32.5v487q0 45 -17 65t-52 20q-36 0 -61.5 -17.5t-38.5 -46.5t-13 -64l-9 91q20 45 55.5 72t84.5 27q56 0 87.5 -35t31.5 -96v-507q0 -42 -27.5 -69.5t-79.5 -27.5zM64 0v510h63
v-96h5v-414h-68z" />
    <glyph glyph-name="Omacron" unicode="&#x14c;" horiz-adv-x="500" 
d="M250 -10q-49 0 -88 25.5t-66 73.5t-41.5 117.5t-14.5 156.5q0 115 25 197t72 126t112 44q67 0 114 -44t72 -126t25 -198q0 -87 -14.5 -156t-41.5 -117t-66 -73.5t-88 -25.5zM249 54q45 0 76 36.5t47 105.5t16 168q0 98 -16 165t-47 102t-76 35q-44 0 -75 -34.5
t-46.5 -102t-15.5 -165.5q0 -99 16 -168.5t46.5 -105.5t74.5 -36zM116 857v48h267v-48h-267z" />
    <glyph glyph-name="omacron" unicode="&#x14d;" horiz-adv-x="432" 
d="M216 -10q-58 0 -98.5 35t-61 95.5t-20.5 136.5q0 77 21 136t61 93t98 34t98 -34t61 -93t21 -136q0 -76 -20.5 -136.5t-60.5 -95.5t-99 -35zM216 50q37 0 61 26t36.5 72.5t12.5 109.5q0 94 -27.5 148t-82.5 54t-82.5 -54t-27.5 -148q0 -63 12.5 -109.5t37 -72.5t60.5 -26z
M82 647v48h267v-48h-267z" />
    <glyph glyph-name="Ohungarumlaut" unicode="&#x150;" horiz-adv-x="500" 
d="M250 -10q-49 0 -88 25.5t-66 73.5t-41.5 117.5t-14.5 156.5q0 115 25 197t72 126t112 44q67 0 114 -44t72 -126t25 -198q0 -87 -14.5 -156t-41.5 -117t-66 -73.5t-88 -25.5zM249 54q45 0 76 36.5t47 105.5t16 168q0 98 -16 165t-47 102t-76 35q-44 0 -75 -34.5
t-46.5 -102t-15.5 -165.5q0 -99 16 -168.5t46.5 -105.5t74.5 -36zM181 793h-49l62 157h81zM333 793h-49l62 157h81z" />
    <glyph glyph-name="ohungarumlaut" unicode="&#x151;" horiz-adv-x="432" 
d="M216 -10q-58 0 -98.5 35t-61 95.5t-20.5 136.5q0 77 21 136t61 93t98 34t98 -34t61 -93t21 -136q0 -76 -20.5 -136.5t-60.5 -95.5t-99 -35zM216 50q37 0 61 26t36.5 72.5t12.5 109.5q0 94 -27.5 148t-82.5 54t-82.5 -54t-27.5 -148q0 -63 12.5 -109.5t37 -72.5t60.5 -26z
M147 583h-49l62 157h81zM299 583h-49l62 157h81z" />
    <glyph glyph-name="OE" unicode="&#x152;" horiz-adv-x="665" 
d="M267 -10q-74 0 -125 44t-76.5 127t-25.5 200q0 116 25.5 198.5t76.5 126.5t125 44q25 0 48 -4.5t46 -17.5v-81q-17 20 -40 29.5t-54 9.5q-53 0 -87.5 -35t-51 -102.5t-16.5 -167.5t16.5 -168.5t51 -103.5t87.5 -35q31 0 54 10t40 29v-81q-23 -13 -46 -17.5t-48 -4.5z
M330 0v720h277v-62h-207v-252h193v-62h-193v-282h215v-62h-285z" />
    <glyph glyph-name="oe" unicode="&#x153;" horiz-adv-x="652" 
d="M206 -10q-53 0 -91.5 35t-58.5 95.5t-20 136.5q0 77 20.5 136t58.5 93t91 34t88.5 -34t53.5 -93t18 -136q0 -76 -17.5 -136.5t-53 -95.5t-89.5 -35zM206 50q32 0 54 26t34 72.5t12 109.5t-12 108t-34 69.5t-54 24.5q-31 0 -53.5 -24.5t-34.5 -69.5t-12 -108t12 -109.5
t34.5 -72.5t53.5 -26zM464 -10q-47 0 -80.5 31.5t-50.5 90.5t-17 141q0 84 18.5 143.5t54.5 91.5t87 32q44 0 75 -28t48 -86t17 -147v-9v-10h-265v58h229l-28 -40q-1 107 -21 154.5t-60 47.5q-29 0 -50.5 -24t-33 -70t-11.5 -113q0 -65 11 -110.5t31.5 -69t47.5 -23.5
q33 0 55 30t26 82h64q-7 -78 -47 -125t-100 -47z" />
    <glyph glyph-name="Racute" unicode="&#x154;" horiz-adv-x="434" 
d="M70 0v720h136q59 0 101.5 -26t65.5 -71t23 -103t-23 -104t-65.5 -72.5t-101.5 -26.5h-88v62h86q56 0 89 40t33 101q0 60 -33 99t-89 39h-64v-658h-70zM341 0l-237 374h78l242 -374h-83zM205 793h-54l92 157h86z" />
    <glyph glyph-name="racute" unicode="&#x155;" horiz-adv-x="276" 
d="M64 0v510h63v-106h5v-404h-68zM132 330l-16 71q22 60 51.5 89.5t70.5 29.5q11 0 20 -3v-67q-3 1 -8.5 1.5t-11.5 0.5q-52 0 -79 -35t-27 -87zM146 583h-54l92 157h86z" />
    <glyph glyph-name="uni0156" unicode="&#x156;" horiz-adv-x="434" 
d="M70 0v720h136q59 0 101.5 -26t65.5 -71t23 -103t-23 -104t-65.5 -72.5t-101.5 -26.5h-88v62h86q56 0 89 40t33 101q0 60 -33 99t-89 39h-64v-658h-70zM341 0l-237 374h78l242 -374h-83zM169 -273v37q28 9 40.5 28t12.5 49l27 -4h-80v92h95v-70q0 -53 -23 -85.5t-72 -46.5
z" />
    <glyph glyph-name="uni0157" unicode="&#x157;" horiz-adv-x="276" 
d="M64 0v510h63v-106h5v-404h-68zM132 330l-16 71q22 60 51.5 89.5t70.5 29.5q11 0 20 -3v-67q-3 1 -8.5 1.5t-11.5 0.5q-52 0 -79 -35t-27 -87zM49 -273v37q28 9 40.5 28t12.5 49l27 -4h-80v92h95v-70q0 -53 -23 -85.5t-72 -46.5z" />
    <glyph glyph-name="Rcaron" unicode="&#x158;" horiz-adv-x="434" 
d="M70 0v720h136q59 0 101.5 -26t65.5 -71t23 -103t-23 -104t-65.5 -72.5t-101.5 -26.5h-88v62h86q56 0 89 40t33 101q0 60 -33 99t-89 39h-64v-658h-70zM341 0l-237 374h78l242 -374h-83zM184 793l-112 157h44l130 -137h-58l130 137h44l-112 -157h-66z" />
    <glyph glyph-name="rcaron" unicode="&#x159;" horiz-adv-x="276" 
d="M64 0v510h63v-106h5v-404h-68zM132 330l-16 71q22 60 51.5 89.5t70.5 29.5q11 0 20 -3v-67q-3 1 -8.5 1.5t-11.5 0.5q-52 0 -79 -35t-27 -87zM125 583l-112 157h44l130 -137h-58l130 137h44l-112 -157h-66z" />
    <glyph glyph-name="Sacute" unicode="&#x15a;" horiz-adv-x="414" 
d="M219 -9q-88 0 -137.5 63.5t-49.5 175.5h67q0 -83 33 -130t92 -47q44 0 67 28t23 82q0 43 -16.5 76t-53.5 63l-95 78q-47 38 -72 87t-25 102q0 49 20 85.5t56 56.5t84 20q80 0 123.5 -56.5t43.5 -160.5h-67q0 79 -25 117t-77 38q-43 0 -65.5 -25.5t-22.5 -72.5
q0 -40 17.5 -72.5t54.5 -63.5l95 -78q46 -37 70.5 -89t24.5 -108q0 -78 -44.5 -123.5t-120.5 -45.5zM204 793h-54l92 157h86z" />
    <glyph glyph-name="sacute" unicode="&#x15b;" horiz-adv-x="326" 
d="M169 -10q-67 0 -102 43.5t-39 120.5h62q3 -53 23 -79.5t57 -26.5q32 0 49 17.5t17 50.5q0 23 -12 47.5t-44 46.5l-58 42q-37 27 -58 60.5t-21 78.5q0 57 35 93t93 36q57 0 88.5 -37.5t35.5 -110.5h-62q-3 47 -18.5 68.5t-46.5 21.5q-29 0 -45 -17.5t-16 -49.5
q0 -23 12 -45t43 -45l58 -42q35 -25 57.5 -62t22.5 -84q0 -57 -35 -92t-96 -35zM151 583h-54l92 157h86z" />
    <glyph glyph-name="Scedilla" unicode="&#x15e;" horiz-adv-x="414" 
d="M219 -9q-88 0 -137.5 63.5t-49.5 175.5h67q0 -83 33 -130t92 -47q44 0 67 28t23 82q0 43 -16.5 76t-53.5 63l-95 78q-47 38 -72 87t-25 102q0 49 20 85.5t56 56.5t84 20q80 0 123.5 -56.5t43.5 -160.5h-67q0 79 -25 117t-77 38q-43 0 -65.5 -25.5t-22.5 -72.5
q0 -40 17.5 -72.5t54.5 -63.5l95 -78q46 -37 70.5 -89t24.5 -108q0 -78 -44.5 -123.5t-120.5 -45.5zM209 -215q-40 0 -64.5 23t-26.5 58h44q2 -19 16.5 -29t33.5 -10q20 0 32.5 10.5t12.5 27.5q0 21 -18 35t-59 17l17 95h45l-11 -63q38 -9 55 -32t17 -50q0 -39 -27 -60.5
t-67 -21.5z" />
    <glyph glyph-name="scedilla" unicode="&#x15f;" horiz-adv-x="326" 
d="M169 -10q-67 0 -102 43.5t-39 120.5h62q3 -53 23 -79.5t57 -26.5q32 0 49 17.5t17 50.5q0 23 -12 47.5t-44 46.5l-58 42q-37 27 -58 60.5t-21 78.5q0 57 35 93t93 36q57 0 88.5 -37.5t35.5 -110.5h-62q-3 47 -18.5 68.5t-46.5 21.5q-29 0 -45 -17.5t-16 -49.5
q0 -23 12 -45t43 -45l58 -42q35 -25 57.5 -62t22.5 -84q0 -57 -35 -92t-96 -35zM164 -215q-40 0 -64.5 23t-26.5 58h44q2 -19 16.5 -29t33.5 -10q20 0 32.5 10.5t12.5 27.5q0 21 -18 35t-59 17l17 95h45l-11 -63q38 -9 55 -32t17 -50q0 -39 -27 -60.5t-67 -21.5z" />
    <glyph glyph-name="Scaron" unicode="&#x160;" horiz-adv-x="414" 
d="M219 -9q-88 0 -137.5 63.5t-49.5 175.5h67q0 -83 33 -130t92 -47q44 0 67 28t23 82q0 43 -16.5 76t-53.5 63l-95 78q-47 38 -72 87t-25 102q0 49 20 85.5t56 56.5t84 20q80 0 123.5 -56.5t43.5 -160.5h-67q0 79 -25 117t-77 38q-43 0 -65.5 -25.5t-22.5 -72.5
q0 -40 17.5 -72.5t54.5 -63.5l95 -78q46 -37 70.5 -89t24.5 -108q0 -78 -44.5 -123.5t-120.5 -45.5zM183 793l-112 157h44l130 -137h-58l130 137h44l-112 -157h-66z" />
    <glyph glyph-name="scaron" unicode="&#x161;" horiz-adv-x="326" 
d="M169 -10q-67 0 -102 43.5t-39 120.5h62q3 -53 23 -79.5t57 -26.5q32 0 49 17.5t17 50.5q0 23 -12 47.5t-44 46.5l-58 42q-37 27 -58 60.5t-21 78.5q0 57 35 93t93 36q57 0 88.5 -37.5t35.5 -110.5h-62q-3 47 -18.5 68.5t-46.5 21.5q-29 0 -45 -17.5t-16 -49.5
q0 -23 12 -45t43 -45l58 -42q35 -25 57.5 -62t22.5 -84q0 -57 -35 -92t-96 -35zM130 583l-112 157h44l130 -137h-58l130 137h44l-112 -157h-66z" />
    <glyph glyph-name="Tcaron" unicode="&#x164;" horiz-adv-x="414" 
d="M172 0v658h-152v62h374v-62h-152v-658h-70zM174 793l-112 157h44l130 -137h-58l130 137h44l-112 -157h-66z" />
    <glyph glyph-name="tcaron" unicode="&#x165;" horiz-adv-x="269" 
d="M201 -10q-59 0 -90 28.5t-31 83.5v497l68 30v-524q0 -30 15.5 -43.5t49.5 -13.5q14 0 24.5 1.5t15.5 4.5v-57q-10 -3 -24 -5t-28 -2zM12 452v58h241v-58h-241zM268 543h-40v217h66z" />
    <glyph glyph-name="Umacron" unicode="&#x16a;" horiz-adv-x="476" 
d="M238 -10q-84 0 -129 53.5t-45 145.5v531h70v-537q0 -67 27.5 -98t76.5 -31t76.5 30.5t27.5 97.5v538h70v-532q0 -91 -45 -144.5t-129 -53.5zM104 857v48h267v-48h-267z" />
    <glyph glyph-name="umacron" unicode="&#x16b;" horiz-adv-x="434" 
d="M179 -10q-36 0 -63 16t-41.5 45.5t-14.5 69.5v389h68v-383q0 -37 17.5 -56t50.5 -19q31 0 55 17t37.5 45.5t13.5 61.5l9 -91q-20 -45 -53.5 -70t-78.5 -25zM310 0v92h-8v418h68v-510h-60zM83 647v48h267v-48h-267z" />
    <glyph glyph-name="Ubreve" unicode="&#x16c;" horiz-adv-x="476" 
d="M238 -10q-84 0 -129 53.5t-45 145.5v531h70v-537q0 -67 27.5 -98t76.5 -31t76.5 30.5t27.5 97.5v538h70v-532q0 -91 -45 -144.5t-129 -53.5zM238 789q-35 0 -65.5 18t-49 54t-18.5 89h42q0 -51 24.5 -78.5t66.5 -27.5t66.5 27.5t24.5 78.5h42q0 -53 -18.5 -89t-48.5 -54
t-66 -18z" />
    <glyph glyph-name="ubreve" unicode="&#x16d;" horiz-adv-x="434" 
d="M179 -10q-36 0 -63 16t-41.5 45.5t-14.5 69.5v389h68v-383q0 -37 17.5 -56t50.5 -19q31 0 55 17t37.5 45.5t13.5 61.5l9 -91q-20 -45 -53.5 -70t-78.5 -25zM310 0v92h-8v418h68v-510h-60zM217 579q-35 0 -65.5 18t-49 54t-18.5 89h42q0 -51 24.5 -78.5t66.5 -27.5
t66.5 27.5t24.5 78.5h42q0 -53 -18.5 -89t-48.5 -54t-66 -18z" />
    <glyph glyph-name="Uring" unicode="&#x16e;" horiz-adv-x="476" 
d="M238 -10q-84 0 -129 53.5t-45 145.5v531h70v-537q0 -67 27.5 -98t76.5 -31t76.5 30.5t27.5 97.5v538h70v-532q0 -91 -45 -144.5t-129 -53.5zM238 771q-46 0 -77 31.5t-31 76.5q0 44 31 75.5t77 31.5t76.5 -31.5t30.5 -75.5q0 -45 -30.5 -76.5t-76.5 -31.5zM239 811
q28 0 46 20t18 48t-18 47.5t-47 19.5t-47.5 -19.5t-18.5 -47.5t18.5 -48t48.5 -20z" />
    <glyph glyph-name="uring" unicode="&#x16f;" horiz-adv-x="434" 
d="M179 -10q-36 0 -63 16t-41.5 45.5t-14.5 69.5v389h68v-383q0 -37 17.5 -56t50.5 -19q31 0 55 17t37.5 45.5t13.5 61.5l9 -91q-20 -45 -53.5 -70t-78.5 -25zM310 0v92h-8v418h68v-510h-60zM217 561q-46 0 -77 31.5t-31 76.5q0 44 31 75.5t77 31.5t76.5 -31.5t30.5 -75.5
q0 -45 -30.5 -76.5t-76.5 -31.5zM218 601q28 0 46 20t18 48t-18 47.5t-47 19.5t-47.5 -19.5t-18.5 -47.5t18.5 -48t48.5 -20z" />
    <glyph glyph-name="Uhungarumlaut" unicode="&#x170;" horiz-adv-x="476" 
d="M238 -10q-84 0 -129 53.5t-45 145.5v531h70v-537q0 -67 27.5 -98t76.5 -31t76.5 30.5t27.5 97.5v538h70v-532q0 -91 -45 -144.5t-129 -53.5zM169 793h-49l62 157h81zM321 793h-49l62 157h81z" />
    <glyph glyph-name="uhungarumlaut" unicode="&#x171;" horiz-adv-x="434" 
d="M179 -10q-36 0 -63 16t-41.5 45.5t-14.5 69.5v389h68v-383q0 -37 17.5 -56t50.5 -19q31 0 55 17t37.5 45.5t13.5 61.5l9 -91q-20 -45 -53.5 -70t-78.5 -25zM310 0v92h-8v418h68v-510h-60zM148 583h-49l62 157h81zM300 583h-49l62 157h81z" />
    <glyph glyph-name="Uogonek" unicode="&#x172;" horiz-adv-x="476" 
d="M238 -10q-84 0 -129 53.5t-45 145.5v531h70v-537q0 -67 27.5 -98t76.5 -31t76.5 30.5t27.5 97.5v538h70v-532q0 -91 -45 -144.5t-129 -53.5zM273 -196q-34 0 -55 20.5t-21 54.5q0 44 36 86t91 72l17 -17q-44 -32 -71 -65t-27 -70q0 -19 10.5 -29t24.5 -10q20 0 39 18
l25 -31q-14 -14 -30.5 -21.5t-38.5 -7.5z" />
    <glyph glyph-name="uogonek" unicode="&#x173;" horiz-adv-x="434" 
d="M179 -10q-36 0 -63 16t-41.5 45.5t-14.5 69.5v389h68v-383q0 -37 17.5 -56t50.5 -19q31 0 55 17t37.5 45.5t13.5 61.5l9 -91q-20 -45 -53.5 -70t-78.5 -25zM310 0v92h-8v418h68v-510h-60zM302 -216q-34 0 -55 20.5t-21 54.5q0 44 36 86t91 72l17 -17q-44 -32 -71 -65
t-27 -70q0 -19 10.5 -29t24.5 -10q20 0 39 18l25 -31q-14 -14 -30.5 -21.5t-38.5 -7.5z" />
    <glyph glyph-name="Wcircumflex" unicode="&#x174;" horiz-adv-x="622" 
d="M136 0l-102 720h70l85 -639h-8l87 639h90l87 -639h-8l85 639h66l-102 -720h-90l-89 618h8l-89 -618h-90zM164 793l112 157h66l112 -157h-44l-130 137h58l-130 -137h-44z" />
    <glyph glyph-name="wcircumflex" unicode="&#x175;" horiz-adv-x="605" 
d="M156 0l-126 510h68l91 -415h-15l109 415h42l110 -415h-14l89 415h65l-126 -510h-46l-108 408h16l-109 -408h-46zM156 583l112 157h66l112 -157h-44l-130 137h58l-130 -137h-44z" />
    <glyph glyph-name="Ycircumflex" unicode="&#x176;" horiz-adv-x="452" 
d="M191 0v336l-179 384h78l154 -336h-28l153 336h71l-179 -384v-336h-70zM79 793l112 157h66l112 -157h-44l-130 137h58l-130 -137h-44z" />
    <glyph glyph-name="ycircumflex" unicode="&#x177;" horiz-adv-x="388" 
d="M90 -205l83 270l7 24l120 421h68l-210 -715h-68zM178 5l-158 505h72l126 -430zM47 583l112 157h66l112 -157h-44l-130 137h58l-130 -137h-44z" />
    <glyph glyph-name="Ydieresis" unicode="&#x178;" horiz-adv-x="452" 
d="M191 0v336l-179 384h78l154 -336h-28l153 336h71l-179 -384v-336h-70zM278 844v86h84v-86h-84zM89 844v86h84v-86h-84z" />
    <glyph glyph-name="Zacute" unicode="&#x179;" horiz-adv-x="452" 
d="M62 0v52l262 637l19 -31h-270v62h316v-52l-262 -637l-19 31h286v-62h-332zM214 793h-54l92 157h86z" />
    <glyph glyph-name="zacute" unicode="&#x17a;" horiz-adv-x="346" 
d="M30 0v48l220 431l17 -27h-226v58h272v-48l-220 -431l-17 27h242v-58h-288zM161 583h-54l92 157h86z" />
    <glyph glyph-name="Zdotaccent" unicode="&#x17b;" horiz-adv-x="452" 
d="M62 0v52l262 637l19 -31h-270v62h316v-52l-262 -637l-19 31h286v-62h-332zM184 844v86h84v-86h-84z" />
    <glyph glyph-name="zdotaccent" unicode="&#x17c;" horiz-adv-x="346" 
d="M30 0v48l220 431l17 -27h-226v58h272v-48l-220 -431l-17 27h242v-58h-288zM131 634v86h84v-86h-84z" />
    <glyph glyph-name="Zcaron" unicode="&#x17d;" horiz-adv-x="452" 
d="M62 0v52l262 637l19 -31h-270v62h316v-52l-262 -637l-19 31h286v-62h-332zM193 793l-112 157h44l130 -137h-58l130 137h44l-112 -157h-66z" />
    <glyph glyph-name="zcaron" unicode="&#x17e;" horiz-adv-x="346" 
d="M30 0v48l220 431l17 -27h-226v58h272v-48l-220 -431l-17 27h242v-58h-288zM140 583l-112 157h44l130 -137h-58l130 137h44l-112 -157h-66z" />
    <glyph glyph-name="uni01CD" unicode="&#x1cd;" 
d="M24 0l155 720h56l-147 -720h-64zM354 0l-145 720h60l155 -720h-70zM106 275h234v-60h-234v60zM191 793l-112 157h44l130 -137h-58l130 137h44l-112 -157h-66z" />
    <glyph glyph-name="uni01CE" unicode="&#x1ce;" horiz-adv-x="389" 
d="M277 0q-4 18 -6 39.5t-2 45.5h-8v302q0 35 -18.5 54t-48.5 19q-40 0 -59.5 -28t-19.5 -70h-62q0 71 38 114.5t109 43.5q62 0 95.5 -36.5t33.5 -103.5v-295q0 -21 2 -42.5t6 -42.5h-60zM154 -10q-52 0 -83 34.5t-31 92.5q0 53 29.5 92t90.5 69l114 55v-59l-95 -48
q-35 -18 -53 -43.5t-18 -60.5q0 -34 17.5 -53t48.5 -19q38 0 62.5 32t24.5 82l12 -79q-13 -47 -45.5 -71t-73.5 -24zM162 583l-112 157h44l130 -137h-58l130 137h44l-112 -157h-66z" />
    <glyph glyph-name="uni0218" unicode="&#x218;" horiz-adv-x="414" 
d="M219 -9q-88 0 -137.5 63.5t-49.5 175.5h67q0 -83 33 -130t92 -47q44 0 67 28t23 82q0 43 -16.5 76t-53.5 63l-95 78q-47 38 -72 87t-25 102q0 49 20 85.5t56 56.5t84 20q80 0 123.5 -56.5t43.5 -160.5h-67q0 79 -25 117t-77 38q-43 0 -65.5 -25.5t-22.5 -72.5
q0 -40 17.5 -72.5t54.5 -63.5l95 -78q46 -37 70.5 -89t24.5 -108q0 -78 -44.5 -123.5t-120.5 -45.5zM168 -273v37q28 9 40.5 28t12.5 49l27 -4h-80v92h95v-70q0 -53 -23 -85.5t-72 -46.5z" />
    <glyph glyph-name="uni0219" unicode="&#x219;" horiz-adv-x="326" 
d="M169 -10q-67 0 -102 43.5t-39 120.5h62q3 -53 23 -79.5t57 -26.5q32 0 49 17.5t17 50.5q0 23 -12 47.5t-44 46.5l-58 42q-37 27 -58 60.5t-21 78.5q0 57 35 93t93 36q57 0 88.5 -37.5t35.5 -110.5h-62q-3 47 -18.5 68.5t-46.5 21.5q-29 0 -45 -17.5t-16 -49.5
q0 -23 12 -45t43 -45l58 -42q35 -25 57.5 -62t22.5 -84q0 -57 -35 -92t-96 -35zM123 -273v37q28 9 40.5 28t12.5 49l27 -4h-80v92h95v-70q0 -53 -23 -85.5t-72 -46.5z" />
    <glyph glyph-name="uni021A" unicode="&#x21a;" horiz-adv-x="414" 
d="M172 0v658h-152v62h374v-62h-152v-658h-70zM159 -273v37q28 9 40.5 28t12.5 49l27 -4h-80v92h95v-70q0 -53 -23 -85.5t-72 -46.5z" />
    <glyph glyph-name="uni021B" unicode="&#x21b;" horiz-adv-x="269" 
d="M201 -10q-59 0 -90 28.5t-31 83.5v497l68 30v-524q0 -30 15.5 -43.5t49.5 -13.5q14 0 24.5 1.5t15.5 4.5v-57q-10 -3 -24 -5t-28 -2zM12 452v58h241v-58h-241zM124 -273v37q28 9 40.5 28t12.5 49l27 -4h-80v92h95v-70q0 -53 -23 -85.5t-72 -46.5z" />
    <glyph glyph-name="uni0237" unicode="&#x237;" horiz-adv-x="196" 
d="M25 -215q-19 0 -28.5 1.5t-15.5 3.5v57q5 -1 13.5 -2.5t18.5 -1.5q26 0 38.5 10.5t12.5 32.5v624h68v-628q0 -42 -27.5 -69.5t-79.5 -27.5z" />
    <glyph glyph-name="circumflex" unicode="&#x2c6;" horiz-adv-x="433" 
d="M60 583l112 157h66l112 -157h-44l-130 137h58l-130 -137h-44z" />
    <glyph glyph-name="caron" unicode="&#x2c7;" horiz-adv-x="433" 
d="M172 583l-112 157h44l130 -137h-58l130 137h44l-112 -157h-66z" />
    <glyph glyph-name="breve" unicode="&#x2d8;" horiz-adv-x="408" 
d="M193 579q-35 0 -65.5 18t-49 54t-18.5 89h42q0 -51 24.5 -78.5t66.5 -27.5t66.5 27.5t24.5 78.5h42q0 -53 -18.5 -89t-48.5 -54t-66 -18z" />
    <glyph glyph-name="dotaccent" unicode="&#x2d9;" horiz-adv-x="204" 
d="M60 634v86h84v-86h-84z" />
    <glyph glyph-name="ring" unicode="&#x2da;" horiz-adv-x="335" 
d="M168 561q-46 0 -77 31.5t-31 76.5q0 44 31 75.5t77 31.5t76.5 -31.5t30.5 -75.5q0 -45 -30.5 -76.5t-76.5 -31.5zM169 601q28 0 46 20t18 48t-18 47.5t-47 19.5t-47.5 -19.5t-18.5 -47.5t18.5 -48t48.5 -20z" />
    <glyph glyph-name="ogonek" unicode="&#x2db;" horiz-adv-x="269" 
d="M136 -216q-34 0 -55 20.5t-21 54.5q0 44 36 86t91 72l17 -17q-44 -32 -71 -65t-27 -70q0 -19 10.5 -29t24.5 -10q20 0 39 18l25 -31q-14 -14 -30.5 -21.5t-38.5 -7.5z" />
    <glyph glyph-name="tilde" unicode="&#x2dc;" horiz-adv-x="452" 
d="M272 601q-25 0 -42.5 10.5t-31 24t-27 24t-30.5 10.5q-18 0 -28.5 -14t-10.5 -45h-42q0 38 11 62.5t31 36.5t45 12q26 0 43 -10.5t29.5 -24t25.5 -24t31 -10.5t28.5 14t10.5 45h42q0 -37 -11 -62t-30.5 -37t-43.5 -12z" />
    <glyph glyph-name="hungarumlaut" unicode="&#x2dd;" horiz-adv-x="414" 
d="M109 583h-49l62 157h81zM261 583h-49l62 157h81z" />
    <glyph glyph-name="gravecomb" unicode="&#x300;" horiz-adv-x="0" 
d="M184 583l-124 157h86l92 -157h-54z" />
    <glyph glyph-name="acutecomb" unicode="&#x301;" horiz-adv-x="0" 
d="M114 583h-54l92 157h86z" />
    <glyph glyph-name="uni0302" unicode="&#x302;" horiz-adv-x="0" 
d="M60 583l112 157h66l112 -157h-44l-130 137h58l-130 -137h-44z" />
    <glyph glyph-name="tildecomb" unicode="&#x303;" horiz-adv-x="0" 
d="M272 601q-25 0 -42.5 10.5t-31 24t-27 24t-30.5 10.5q-18 0 -28.5 -14t-10.5 -45h-42q0 38 11 62.5t31 36.5t45 12q26 0 43 -10.5t29.5 -24t25.5 -24t31 -10.5t28.5 14t10.5 45h42q0 -37 -11 -62t-30.5 -37t-43.5 -12z" />
    <glyph glyph-name="uni0304" unicode="&#x304;" horiz-adv-x="0" 
d="M60 647v48h267v-48h-267z" />
    <glyph glyph-name="uni0306" unicode="&#x306;" horiz-adv-x="0" 
d="M193 579q-35 0 -65.5 18t-49 54t-18.5 89h42q0 -51 24.5 -78.5t66.5 -27.5t66.5 27.5t24.5 78.5h42q0 -53 -18.5 -89t-48.5 -54t-66 -18z" />
    <glyph glyph-name="uni0307" unicode="&#x307;" horiz-adv-x="0" 
d="M60 634v86h84v-86h-84z" />
    <glyph glyph-name="uni0308" unicode="&#x308;" horiz-adv-x="0" 
d="M249 634v86h84v-86h-84zM60 634v86h84v-86h-84z" />
    <glyph glyph-name="uni030A" unicode="&#x30a;" horiz-adv-x="0" 
d="M168 561q-46 0 -77 31.5t-31 76.5q0 44 31 75.5t77 31.5t76.5 -31.5t30.5 -75.5q0 -45 -30.5 -76.5t-76.5 -31.5zM169 601q28 0 46 20t18 48t-18 47.5t-47 19.5t-47.5 -19.5t-18.5 -47.5t18.5 -48t48.5 -20z" />
    <glyph glyph-name="uni030B" unicode="&#x30b;" horiz-adv-x="0" 
d="M109 583h-49l62 157h81zM261 583h-49l62 157h81z" />
    <glyph glyph-name="uni030C" unicode="&#x30c;" horiz-adv-x="0" 
d="M172 583l-112 157h44l130 -137h-58l130 137h44l-112 -157h-66z" />
    <glyph glyph-name="uni0312" unicode="&#x312;" horiz-adv-x="0" 
d="M65 581v70q0 53 23 86t72 46v-37q-28 -9 -40.5 -28t-12.5 -49l-27 4h80v-92h-95z" />
    <glyph glyph-name="uni0326" unicode="&#x326;" horiz-adv-x="0" 
d="M65 -273v37q28 9 40.5 28t12.5 49l27 -4h-80v92h95v-70q0 -53 -23 -85.5t-72 -46.5z" />
    <glyph glyph-name="uni0327" unicode="&#x327;" horiz-adv-x="0" 
d="M151 -215q-40 0 -64.5 23t-26.5 58h44q2 -19 16.5 -29t33.5 -10q20 0 32.5 10.5t12.5 27.5q0 21 -18 35t-59 17l17 95h45l-11 -63q38 -9 55 -32t17 -50q0 -39 -27 -60.5t-67 -21.5z" />
    <glyph glyph-name="uni0328" unicode="&#x328;" horiz-adv-x="0" 
d="M136 -216q-34 0 -55 20.5t-21 54.5q0 44 36 86t91 72l17 -17q-44 -32 -71 -65t-27 -70q0 -19 10.5 -29t24.5 -10q20 0 39 18l25 -31q-14 -14 -30.5 -21.5t-38.5 -7.5z" />
    <glyph glyph-name="Wgrave" unicode="&#x1e80;" horiz-adv-x="622" 
d="M136 0l-102 720h70l85 -639h-8l87 639h90l87 -639h-8l85 639h66l-102 -720h-90l-89 618h8l-89 -618h-90zM323 793l-124 157h86l92 -157h-54z" />
    <glyph glyph-name="wgrave" unicode="&#x1e81;" horiz-adv-x="605" 
d="M156 0l-126 510h68l91 -415h-15l109 415h42l110 -415h-14l89 415h65l-126 -510h-46l-108 408h16l-109 -408h-46zM315 583l-124 157h86l92 -157h-54z" />
    <glyph glyph-name="Wacute" unicode="&#x1e82;" horiz-adv-x="622" 
d="M136 0l-102 720h70l85 -639h-8l87 639h90l87 -639h-8l85 639h66l-102 -720h-90l-89 618h8l-89 -618h-90zM299 793h-54l92 157h86z" />
    <glyph glyph-name="wacute" unicode="&#x1e83;" horiz-adv-x="605" 
d="M156 0l-126 510h68l91 -415h-15l109 415h42l110 -415h-14l89 415h65l-126 -510h-46l-108 408h16l-109 -408h-46zM291 583h-54l92 157h86z" />
    <glyph glyph-name="Wdieresis" unicode="&#x1e84;" horiz-adv-x="622" 
d="M136 0l-102 720h70l85 -639h-8l87 639h90l87 -639h-8l85 639h66l-102 -720h-90l-89 618h8l-89 -618h-90zM363 844v86h84v-86h-84zM174 844v86h84v-86h-84z" />
    <glyph glyph-name="wdieresis" unicode="&#x1e85;" horiz-adv-x="605" 
d="M156 0l-126 510h68l91 -415h-15l109 415h42l110 -415h-14l89 415h65l-126 -510h-46l-108 408h16l-109 -408h-46zM355 634v86h84v-86h-84zM166 634v86h84v-86h-84z" />
    <glyph glyph-name="uni1E9E" unicode="&#x1e9e;" horiz-adv-x="478" 
d="M272 -9q-18 0 -39.5 2.5t-38.5 6.5v63q15 -4 35 -7t39 -3q56 0 82 33t26 90q0 46 -28.5 94t-89.5 91l-28 20l148 264l11 -56q-26 42 -60 61t-72 19q-55 0 -86 -37.5t-31 -117.5v-514h-70v514q0 104 49 160.5t140 56.5q59 0 106.5 -25t82.5 -75l-146 -260l-12 58
q79 -54 118.5 -120.5t39.5 -133.5q0 -54 -19 -95.5t-58 -65t-99 -23.5z" />
    <glyph glyph-name="Ygrave" unicode="&#x1ef2;" horiz-adv-x="452" 
d="M191 0v336l-179 384h78l154 -336h-28l153 336h71l-179 -384v-336h-70zM238 793l-124 157h86l92 -157h-54z" />
    <glyph glyph-name="ygrave" unicode="&#x1ef3;" horiz-adv-x="388" 
d="M90 -205l83 270l7 24l120 421h68l-210 -715h-68zM178 5l-158 505h72l126 -430zM206 583l-124 157h86l92 -157h-54z" />
    <glyph glyph-name="endash" unicode="&#x2013;" horiz-adv-x="444" 
d="M64 241v62h316v-62h-316z" />
    <glyph glyph-name="emdash" unicode="&#x2014;" horiz-adv-x="644" 
d="M64 241v62h516v-62h-516z" />
    <glyph glyph-name="quoteleft" unicode="&#x2018;" horiz-adv-x="213" 
d="M62 521v67q0 59 26 101t71 51v-37q-24 -4 -39.5 -28.5t-15.5 -68.5l-30 9h77v-94h-89z" />
    <glyph glyph-name="quoteright" unicode="&#x2019;" horiz-adv-x="213" 
d="M54 523v37q24 5 39.5 29.5t15.5 67.5l30 -9h-77v94h89v-67q0 -59 -26 -101t-71 -51z" />
    <glyph glyph-name="quotesinglbase" unicode="&#x201a;" horiz-adv-x="207" 
d="M54 -131v37q26 11 37.5 32.5t11.5 64.5l29 -3h-78v91h91v-70q0 -59 -22 -98t-69 -54z" />
    <glyph glyph-name="quotedblleft" unicode="&#x201c;" horiz-adv-x="363" 
d="M212 521v67q0 59 26 101t71 51v-37q-24 -4 -39.5 -28.5t-15.5 -68.5l-30 9h77v-94h-89zM62 521v67q0 59 26 101t71 51v-37q-24 -4 -39.5 -28.5t-15.5 -68.5l-30 9h77v-94h-89z" />
    <glyph glyph-name="quotedblright" unicode="&#x201d;" horiz-adv-x="363" 
d="M204 523v37q24 5 39.5 29.5t15.5 67.5l30 -9h-77v94h89v-67q0 -59 -26 -101t-71 -51zM54 523v37q24 5 39.5 29.5t15.5 67.5l30 -9h-77v94h89v-67q0 -59 -26 -101t-71 -51z" />
    <glyph glyph-name="quotedblbase" unicode="&#x201e;" horiz-adv-x="357" 
d="M204 -131v37q26 11 37.5 32.5t11.5 64.5l29 -3h-78v91h91v-70q0 -59 -22 -98t-69 -54zM54 -131v37q26 11 37.5 32.5t11.5 64.5l29 -3h-78v91h91v-70q0 -59 -22 -98t-69 -54z" />
    <glyph glyph-name="bullet" unicode="&#x2022;" horiz-adv-x="258" 
d="M61 295v137h136v-137h-136z" />
    <glyph glyph-name="ellipsis" unicode="&#x2026;" horiz-adv-x="533" 
d="M61 0v91h91v-91h-91zM221 0v91h91v-91h-91zM381 0v91h91v-91h-91z" />
    <glyph glyph-name="perthousand" unicode="&#x2030;" horiz-adv-x="762" 
d="M154 381q-34 0 -62.5 19t-45 58t-16.5 98t16.5 97.5t44.5 57.5t63 19q53 0 88.5 -42.5t35.5 -131.5q0 -59 -17 -98t-45 -58t-62 -19zM154 426q31 0 50 33.5t19 97.5q0 62 -18.5 95t-50.5 33t-50.5 -32.5t-18.5 -95.5q0 -64 18.5 -97.5t50.5 -33.5zM45 0l424 720h60
l-424 -720h-60zM416 -10q-34 0 -62.5 19t-45 58t-16.5 98t16.5 97.5t44.5 57.5t63 19q53 0 83.5 -42.5t30.5 -131.5t-31.5 -132t-82.5 -43zM416 35q31 0 50 33.5t19 97.5q0 62 -18.5 95t-50.5 33t-50.5 -32.5t-18.5 -95.5q0 -64 18.5 -97.5t50.5 -33.5zM608 35
q32 0 50.5 33.5t18.5 97.5q0 63 -18.5 95.5t-50.5 32.5q-31 0 -50 -33t-19 -95q0 -64 19 -97.5t50 -33.5zM608 -10q-51 0 -82.5 43t-31.5 132t31 131.5t83 42.5q35 0 63 -19t44.5 -57t16.5 -98q0 -59 -16.5 -98t-44.5 -58t-63 -19z" />
    <glyph glyph-name="guilsinglleft" unicode="&#x2039;" horiz-adv-x="264" 
d="M147 68l-102 183l102 183h62l-98 -183l98 -183h-62z" />
    <glyph glyph-name="guilsinglright" unicode="&#x203a;" horiz-adv-x="264" 
d="M117 68h-62l98 183l-98 183h62l102 -183z" />
    <glyph glyph-name="Euro" unicode="&#x20ac;" horiz-adv-x="470" 
d="M270 -10q-48 0 -85.5 25t-63.5 73t-39.5 117t-13.5 157t14 156.5t40 115.5t63.5 71.5t84.5 24.5q46 0 81 -21t57 -61t28 -97h-70q-4 57 -29.5 86t-66.5 29t-70.5 -34t-44.5 -101.5t-15 -167.5q0 -101 15 -170t44 -104t72 -35q39 0 64 29.5t29 85.5h71q-6 -56 -28 -96.5
t-57 -61.5t-80 -21zM0 392l10 58h361l-10 -58h-361zM0 272l10 58h341l-10 -58h-341z" />
    <glyph glyph-name="trademark" unicode="&#x2122;" horiz-adv-x="611" 
d="M122 360v348h53v-348h-53zM50 675v45h196v-45h-196zM278 360v360h75l82 -338h-31l81 338h76v-360h-52v311h6l-74 -311h-46l-75 311h6v-311h-48z" />
    <glyph glyph-name="arrowleft" unicode="&#x2190;" horiz-adv-x="690" 
d="M630 330h-494l18 22l320 -322h-86l-328 330l328 330h86l-320 -322l-18 22h494v-60z" />
    <glyph glyph-name="arrowup" unicode="&#x2191;" horiz-adv-x="780" 
d="M360 75v494l22 -18l-322 -320v86l330 328l330 -328v-86l-322 320l22 18v-494h-60z" />
    <glyph glyph-name="arrowright" unicode="&#x2192;" horiz-adv-x="690" 
d="M60 390h494l-18 -22l-320 322h86l328 -330l-328 -330h-86l320 322l18 -22h-494v60z" />
    <glyph glyph-name="arrowdown" unicode="&#x2193;" horiz-adv-x="780" 
d="M360 645h60v-494l-22 18l322 320v-86l-330 -328l-330 328v86l322 -320l-22 -18v494z" />
    <glyph glyph-name="arrowboth" unicode="&#x2194;" horiz-adv-x="990" 
d="M388 30l-328 330l328 330h86l-298 -300h638l-298 300h86l328 -330l-328 -330h-86l298 300h-638l298 -300h-86z" />
    <glyph glyph-name="arrowupdn" unicode="&#x2195;" horiz-adv-x="780" 
d="M390 -75l-330 328v86l300 -298v638l-300 -298v86l330 328l330 -328v-86l-300 298v-638l300 298v-86z" />
    <glyph glyph-name="uni2196" unicode="&#x2196;" horiz-adv-x="648" 
d="M444 198l-350 349l28 3l-1 -454l-61 61l2 465l465 1l61 -61l-454 -1l3 28l349 -349z" />
    <glyph glyph-name="uni2197" unicode="&#x2197;" horiz-adv-x="647" 
d="M162 239l349 350l3 -28l-454 1l61 61l465 -2l1 -465l-61 -61l-1 454l28 -3l-349 -349z" />
    <glyph glyph-name="uni2198" unicode="&#x2198;" horiz-adv-x="648" 
d="M204 522l350 -349l-28 -3l1 454l61 -61l-2 -465l-465 -1l-61 61l454 1l-3 -28l-349 349z" />
    <glyph glyph-name="uni2199" unicode="&#x2199;" horiz-adv-x="647" 
d="M485 481l-349 -350l-3 28l454 -1l-61 -61l-465 2l-1 465l61 61l1 -454l-28 3l349 349z" />
    <glyph glyph-name="minus" unicode="&#x2212;" horiz-adv-x="531" 
d="M60 342v58h411v-58h-411z" />
    <glyph glyph-name="Adieresis.ss01" 
d="M24 0l155 720h56l-147 -720h-64zM354 0l-145 720h60l155 -720h-70zM106 275h234v-60h-234v60zM129 814q-21 0 -35.5 14.5t-14.5 36.5t14.5 36t35.5 14t35 -14t14 -36t-14 -36.5t-35 -14.5zM319 814q-21 0 -35.5 14.5t-14.5 36.5t14.5 36t35.5 14t35 -14t14 -36t-14 -36.5
t-35 -14.5z" />
    <glyph glyph-name="Cdotaccent.ss01" horiz-adv-x="461" 
d="M242 -10q-48 0 -85.5 25t-63.5 73t-39.5 117t-13.5 157t14 156.5t40 115.5t63.5 71.5t84.5 24.5q58 0 99 -33.5t63.5 -96t22.5 -149.5h-70q0 106 -29.5 160.5t-85.5 54.5q-41 0 -70.5 -34t-44.5 -101.5t-15 -167.5q0 -101 15 -170t44 -104t72 -35q54 0 83 55.5t29 159.5
h71q0 -86 -22.5 -149t-63.5 -96.5t-98 -33.5zM241 814q-21 0 -35.5 14.5t-14.5 36.5t14.5 36t35.5 14t35 -14t14 -36t-14 -36.5t-35 -14.5z" />
    <glyph glyph-name="Edieresis.ss01" horiz-adv-x="415" 
d="M70 0v720h70v-720h-70zM112 0v62h253v-62h-253zM112 344v62h231v-62h-231zM112 658v62h245v-62h-245zM123 814q-21 0 -35.5 14.5t-14.5 36.5t14.5 36t35.5 14t35 -14t14 -36t-14 -36.5t-35 -14.5zM313 814q-21 0 -35.5 14.5t-14.5 36.5t14.5 36t35.5 14t35 -14t14 -36
t-14 -36.5t-35 -14.5z" />
    <glyph glyph-name="Edotaccent.ss01" horiz-adv-x="415" 
d="M70 0v720h70v-720h-70zM112 0v62h253v-62h-253zM112 344v62h231v-62h-231zM112 658v62h245v-62h-245zM218 814q-21 0 -35.5 14.5t-14.5 36.5t14.5 36t35.5 14t35 -14t14 -36t-14 -36.5t-35 -14.5z" />
    <glyph glyph-name="uni0122.ss01" horiz-adv-x="481" 
d="M266 -10q-75 0 -125.5 40.5t-75.5 121t-25 200.5q0 121 24.5 205t71.5 128.5t113 44.5q55 0 95 -30t61.5 -86t21.5 -133h-70q0 92 -26.5 138.5t-79.5 46.5q-46 0 -77 -35t-46.5 -104t-15.5 -172q0 -105 17 -171.5t52 -98t90 -31.5q27 0 48.5 7.5t36.5 21.5l70 -28
q-31 -32 -71.5 -48.5t-88.5 -16.5zM356 69v275l31 -31h-141v62h180v-320zM225 -273v37q24 11 38.5 30t14.5 47l22 3q-6 -5 -14.5 -8.5t-17.5 -3.5q-23 0 -38 14t-15 36q0 23 15 37.5t35 14.5q23 0 39 -17t16 -58q0 -29 -11.5 -55.5t-32.5 -46.5t-51 -30z" />
    <glyph glyph-name="Gdotaccent.ss01" horiz-adv-x="481" 
d="M266 -10q-75 0 -125.5 40.5t-75.5 121t-25 200.5q0 121 24.5 205t71.5 128.5t113 44.5q55 0 95 -30t61.5 -86t21.5 -133h-70q0 92 -26.5 138.5t-79.5 46.5q-46 0 -77 -35t-46.5 -104t-15.5 -172q0 -105 17 -171.5t52 -98t90 -31.5q27 0 48.5 7.5t36.5 21.5l70 -28
q-31 -32 -71.5 -48.5t-88.5 -16.5zM356 69v275l31 -31h-141v62h180v-320zM251 814q-21 0 -35.5 14.5t-14.5 36.5t14.5 36t35.5 14t35 -14t14 -36t-14 -36.5t-35 -14.5z" />
    <glyph glyph-name="Idieresis.ss01" horiz-adv-x="210" 
d="M70 0v720h70v-720h-70zM10 814q-21 0 -35.5 14.5t-14.5 36.5t14.5 36t35.5 14t35 -14t14 -36t-14 -36.5t-35 -14.5zM200 814q-21 0 -35.5 14.5t-14.5 36.5t14.5 36t35.5 14t35 -14t14 -36t-14 -36.5t-35 -14.5z" />
    <glyph glyph-name="Idotaccent.ss01" horiz-adv-x="210" 
d="M70 0v720h70v-720h-70zM105 814q-21 0 -35.5 14.5t-14.5 36.5t14.5 36t35.5 14t35 -14t14 -36t-14 -36.5t-35 -14.5z" />
    <glyph glyph-name="uni0136.ss01" horiz-adv-x="466" 
d="M70 0v720h70v-720h-70zM131 374l222 346h77l-223 -346h-76zM367 0l-238 374h78l243 -374h-83zM210 -273v37q24 11 38.5 30t14.5 47l22 3q-6 -5 -14.5 -8.5t-17.5 -3.5q-23 0 -38 14t-15 36q0 23 15 37.5t35 14.5q23 0 39 -17t16 -58q0 -29 -11.5 -55.5t-32.5 -46.5
t-51 -30z" />
    <glyph glyph-name="uni013B.ss01" horiz-adv-x="375" 
d="M70 0v720h70v-720h-70zM112 0v62h223v-62h-223zM165 -273v37q24 11 38.5 30t14.5 47l22 3q-6 -5 -14.5 -8.5t-17.5 -3.5q-23 0 -38 14t-15 36q0 23 15 37.5t35 14.5q23 0 39 -17t16 -58q0 -29 -11.5 -55.5t-32.5 -46.5t-51 -30z" />
    <glyph glyph-name="uni0145.ss01" horiz-adv-x="505" 
d="M70 0v720h85l224 -606l-10 -2v608h66v-720h-85l-224 606l10 2v-608h-66zM210 -273v37q24 11 38.5 30t14.5 47l22 3q-6 -5 -14.5 -8.5t-17.5 -3.5q-23 0 -38 14t-15 36q0 23 15 37.5t35 14.5q23 0 39 -17t16 -58q0 -29 -11.5 -55.5t-32.5 -46.5t-51 -30z" />
    <glyph glyph-name="Odieresis.ss01" horiz-adv-x="500" 
d="M250 -10q-49 0 -88 25.5t-66 73.5t-41.5 117.5t-14.5 156.5q0 115 25 197t72 126t112 44q67 0 114 -44t72 -126t25 -198q0 -87 -14.5 -156t-41.5 -117t-66 -73.5t-88 -25.5zM249 54q45 0 76 36.5t47 105.5t16 168q0 98 -16 165t-47 102t-76 35q-44 0 -75 -34.5
t-46.5 -102t-15.5 -165.5q0 -99 16 -168.5t46.5 -105.5t74.5 -36zM155 814q-21 0 -35.5 14.5t-14.5 36.5t14.5 36t35.5 14t35 -14t14 -36t-14 -36.5t-35 -14.5zM345 814q-21 0 -35.5 14.5t-14.5 36.5t14.5 36t35.5 14t35 -14t14 -36t-14 -36.5t-35 -14.5z" />
    <glyph glyph-name="uni0156.ss01" horiz-adv-x="434" 
d="M70 0v720h136q59 0 101.5 -26t65.5 -71t23 -103t-23 -104t-65.5 -72.5t-101.5 -26.5h-88v62h86q56 0 89 40t33 101q0 60 -33 99t-89 39h-64v-658h-70zM341 0l-237 374h78l242 -374h-83zM174 -273v37q24 11 38.5 30t14.5 47l22 3q-6 -5 -14.5 -8.5t-17.5 -3.5
q-23 0 -38 14t-15 36q0 23 15 37.5t35 14.5q23 0 39 -17t16 -58q0 -29 -11.5 -55.5t-32.5 -46.5t-51 -30z" />
    <glyph glyph-name="uni0218.ss01" horiz-adv-x="414" 
d="M219 -9q-88 0 -137.5 63.5t-49.5 175.5h67q0 -83 33 -130t92 -47q44 0 67 28t23 82q0 43 -16.5 76t-53.5 63l-95 78q-47 38 -72 87t-25 102q0 49 20 85.5t56 56.5t84 20q80 0 123.5 -56.5t43.5 -160.5h-67q0 79 -25 117t-77 38q-43 0 -65.5 -25.5t-22.5 -72.5
q0 -40 17.5 -72.5t54.5 -63.5l95 -78q46 -37 70.5 -89t24.5 -108q0 -78 -44.5 -123.5t-120.5 -45.5zM173 -273v37q24 11 38.5 30t14.5 47l22 3q-6 -5 -14.5 -8.5t-17.5 -3.5q-23 0 -38 14t-15 36q0 23 15 37.5t35 14.5q23 0 39 -17t16 -58q0 -29 -11.5 -55.5t-32.5 -46.5
t-51 -30z" />
    <glyph glyph-name="uni021A.ss01" horiz-adv-x="414" 
d="M172 0v658h-152v62h374v-62h-152v-658h-70zM164 -273v37q24 11 38.5 30t14.5 47l22 3q-6 -5 -14.5 -8.5t-17.5 -3.5q-23 0 -38 14t-15 36q0 23 15 37.5t35 14.5q23 0 39 -17t16 -58q0 -29 -11.5 -55.5t-32.5 -46.5t-51 -30z" />
    <glyph glyph-name="Udieresis.ss01" horiz-adv-x="476" 
d="M238 -10q-84 0 -129 53.5t-45 145.5v531h70v-537q0 -67 27.5 -98t76.5 -31t76.5 30.5t27.5 97.5v538h70v-532q0 -91 -45 -144.5t-129 -53.5zM143 814q-21 0 -35.5 14.5t-14.5 36.5t14.5 36t35.5 14t35 -14t14 -36t-14 -36.5t-35 -14.5zM333 814q-21 0 -35.5 14.5
t-14.5 36.5t14.5 36t35.5 14t35 -14t14 -36t-14 -36.5t-35 -14.5z" />
    <glyph glyph-name="Ydieresis.ss01" horiz-adv-x="452" 
d="M191 0v336l-179 384h78l154 -336h-28l153 336h71l-179 -384v-336h-70zM131 814q-21 0 -35.5 14.5t-14.5 36.5t14.5 36t35.5 14t35 -14t14 -36t-14 -36.5t-35 -14.5zM321 814q-21 0 -35.5 14.5t-14.5 36.5t14.5 36t35.5 14t35 -14t14 -36t-14 -36.5t-35 -14.5z" />
    <glyph glyph-name="Zdotaccent.ss01" horiz-adv-x="452" 
d="M62 0v52l262 637l19 -31h-270v62h316v-52l-262 -637l-19 31h286v-62h-332zM226 814q-21 0 -35.5 14.5t-14.5 36.5t14.5 36t35.5 14t35 -14t14 -36t-14 -36.5t-35 -14.5z" />
    <glyph glyph-name="K.ss04" horiz-adv-x="466" 
d="M70 0v720h70v-720h-70zM91 267l262 453h77l-199 -333l-10 -9l-116 -194zM367 0l-189 404l65 19l207 -423h-83z" />
    <glyph glyph-name="uni0136.ss04" horiz-adv-x="466" 
d="M70 0v720h70v-720h-70zM91 267l262 453h77l-199 -333l-10 -9l-116 -194zM367 0l-189 404l65 19l207 -423h-83zM205 -273v37q28 9 40.5 28t12.5 49l27 -4h-80v92h95v-70q0 -53 -23 -85.5t-72 -46.5z" />
    <glyph glyph-name="R.ss05" horiz-adv-x="430" 
d="M70 0v720h136q61 0 103.5 -25t64.5 -68t22 -98q0 -70 -36 -117t-96 -68l-10 21q74 -12 102 -51t28 -100v-214h-70v201q0 61 -27.5 90.5t-75.5 29.5h-93v58h86q56 0 89 42.5t33 103.5q0 60 -31.5 96.5t-90.5 36.5h-64v-658h-70z" />
    <glyph glyph-name="Racute.ss05" horiz-adv-x="430" 
d="M70 0v720h136q61 0 103.5 -25t64.5 -68t22 -98q0 -70 -36 -117t-96 -68l-10 21q74 -12 102 -51t28 -100v-214h-70v201q0 61 -27.5 90.5t-75.5 29.5h-93v58h86q56 0 89 42.5t33 103.5q0 60 -31.5 96.5t-90.5 36.5h-64v-658h-70zM208 793h-54l92 157h86z" />
    <glyph glyph-name="Rcaron.ss05" horiz-adv-x="430" 
d="M70 0v720h136q61 0 103.5 -25t64.5 -68t22 -98q0 -70 -36 -117t-96 -68l-10 21q74 -12 102 -51t28 -100v-214h-70v201q0 61 -27.5 90.5t-75.5 29.5h-93v58h86q56 0 89 42.5t33 103.5q0 60 -31.5 96.5t-90.5 36.5h-64v-658h-70zM187 793l-112 157h44l130 -137h-58l130 137
h44l-112 -157h-66z" />
    <glyph glyph-name="uni0156.ss05" horiz-adv-x="430" 
d="M70 0v720h136q61 0 103.5 -25t64.5 -68t22 -98q0 -70 -36 -117t-96 -68l-10 21q74 -12 102 -51t28 -100v-214h-70v201q0 61 -27.5 90.5t-75.5 29.5h-93v58h86q56 0 89 42.5t33 103.5q0 60 -31.5 96.5t-90.5 36.5h-64v-658h-70zM172 -273v37q28 9 40.5 28t12.5 49l27 -4
h-80v92h95v-70q0 -53 -23 -85.5t-72 -46.5z" />
    <glyph glyph-name="M.ss06" horiz-adv-x="645" 
d="M50 0l30 720h95l155 -676h-14l154 676h95l30 -720h-70l-25 622l8 -1l-142 -621h-94l-142 621l8 1l-25 -622h-63z" />
    <glyph glyph-name="G.ss07" horiz-adv-x="473" 
d="M242 -10q-63 0 -108.5 43.5t-69.5 125t-24 193.5q0 121 24.5 205t71.5 128.5t113 44.5q55 0 95 -30t61.5 -86t21.5 -133h-70q0 61 -12 102t-35.5 62t-58.5 21q-46 0 -77 -35t-46.5 -104t-15.5 -172q0 -97 15 -164t44.5 -102t71.5 -35q43 0 70 26.5t39.5 92t12.5 182.5h68
q0 -135 -21 -215t-63.5 -115t-106.5 -35zM394 313h-136v62h175v-20z" />
    <glyph glyph-name="Gbreve.ss07" horiz-adv-x="473" 
d="M242 -10q-63 0 -108.5 43.5t-69.5 125t-24 193.5q0 121 24.5 205t71.5 128.5t113 44.5q55 0 95 -30t61.5 -86t21.5 -133h-70q0 61 -12 102t-35.5 62t-58.5 21q-46 0 -77 -35t-46.5 -104t-15.5 -172q0 -97 15 -164t44.5 -102t71.5 -35q43 0 70 26.5t39.5 92t12.5 182.5h68
q0 -135 -21 -215t-63.5 -115t-106.5 -35zM394 313h-136v62h175v-20zM251 789q-35 0 -65.5 18t-49 54t-18.5 89h42q0 -51 24.5 -78.5t66.5 -27.5t66.5 27.5t24.5 78.5h42q0 -53 -18.5 -89t-48.5 -54t-66 -18z" />
    <glyph glyph-name="uni0122.ss07" horiz-adv-x="473" 
d="M242 -10q-63 0 -108.5 43.5t-69.5 125t-24 193.5q0 121 24.5 205t71.5 128.5t113 44.5q55 0 95 -30t61.5 -86t21.5 -133h-70q0 61 -12 102t-35.5 62t-58.5 21q-46 0 -77 -35t-46.5 -104t-15.5 -172q0 -97 15 -164t44.5 -102t71.5 -35q43 0 70 26.5t39.5 92t12.5 182.5h68
q0 -135 -21 -215t-63.5 -115t-106.5 -35zM394 313h-136v62h175v-20zM203 -273v37q28 9 40.5 28t12.5 49l27 -4h-80v92h95v-70q0 -53 -23 -85.5t-72 -46.5z" />
    <glyph glyph-name="Gdotaccent.ss07" horiz-adv-x="473" 
d="M242 -10q-63 0 -108.5 43.5t-69.5 125t-24 193.5q0 121 24.5 205t71.5 128.5t113 44.5q55 0 95 -30t61.5 -86t21.5 -133h-70q0 61 -12 102t-35.5 62t-58.5 21q-46 0 -77 -35t-46.5 -104t-15.5 -172q0 -97 15 -164t44.5 -102t71.5 -35q43 0 70 26.5t39.5 92t12.5 182.5h68
q0 -135 -21 -215t-63.5 -115t-106.5 -35zM394 313h-136v62h175v-20zM209 844v86h84v-86h-84z" />
    <glyph glyph-name="J.ss08" horiz-adv-x="438" 
d="M210 -10q-51 0 -87.5 22t-56.5 65.5t-20 108.5h68q0 -73 26.5 -102.5t69.5 -29.5q28 0 49 11.5t33 38.5t12 71v545h70v-539q0 -61 -19.5 -103.5t-56.5 -65t-88 -22.5z" />
    <glyph glyph-name="Q.ss09" horiz-adv-x="500" 
d="M250 -10q-49 0 -88 25.5t-66 73.5t-41.5 117.5t-14.5 156.5q0 115 25 197t72 126t112 44q67 0 114 -44t72 -126t25 -198q0 -87 -14.5 -156t-41.5 -117t-66 -73.5t-88 -25.5zM249 54q33 0 59 20.5t44 60t27 97.5t9 132q0 98 -16 165t-47 102t-76 35q-44 0 -75 -34.5
t-46.5 -102t-15.5 -165.5q0 -99 16 -168.5t46.5 -105.5t74.5 -36zM241 169l54 31l145 -252l-54 -31z" />
    <glyph glyph-name="uni0136.ss01.ss04" horiz-adv-x="466" 
d="M70 0v720h70v-720h-70zM91 267l262 453h77l-199 -333l-10 -9l-116 -194zM367 0l-189 404l65 19l207 -423h-83zM210 -273v37q24 11 38.5 30t14.5 47l22 3q-6 -5 -14.5 -8.5t-17.5 -3.5q-23 0 -38 14t-15 36q0 23 15 37.5t35 14.5q23 0 39 -17t16 -58q0 -29 -11.5 -55.5
t-32.5 -46.5t-51 -30z" />
    <glyph glyph-name="uni0156.ss01.ss05" horiz-adv-x="430" 
d="M70 0v720h136q61 0 103.5 -25t64.5 -68t22 -98q0 -70 -36 -117t-96 -68l-10 21q74 -12 102 -51t28 -100v-214h-70v201q0 61 -27.5 90.5t-75.5 29.5h-93v58h86q56 0 89 42.5t33 103.5q0 60 -31.5 96.5t-90.5 36.5h-64v-658h-70zM177 -273v37q24 11 38.5 30t14.5 47l22 3
q-6 -5 -14.5 -8.5t-17.5 -3.5q-23 0 -38 14t-15 36q0 23 15 37.5t35 14.5q23 0 39 -17t16 -58q0 -29 -11.5 -55.5t-32.5 -46.5t-51 -30z" />
    <glyph glyph-name="uni0122.ss01.ss07" horiz-adv-x="473" 
d="M242 -10q-63 0 -108.5 43.5t-69.5 125t-24 193.5q0 121 24.5 205t71.5 128.5t113 44.5q55 0 95 -30t61.5 -86t21.5 -133h-70q0 61 -12 102t-35.5 62t-58.5 21q-46 0 -77 -35t-46.5 -104t-15.5 -172q0 -97 15 -164t44.5 -102t71.5 -35q43 0 70 26.5t39.5 92t12.5 182.5h68
q0 -135 -21 -215t-63.5 -115t-106.5 -35zM394 313h-136v62h175v-20zM208 -273v37q24 11 38.5 30t14.5 47l22 3q-6 -5 -14.5 -8.5t-17.5 -3.5q-23 0 -38 14t-15 36q0 23 15 37.5t35 14.5q23 0 39 -17t16 -58q0 -29 -11.5 -55.5t-32.5 -46.5t-51 -30z" />
    <glyph glyph-name="Gdotaccent.ss01.ss07" horiz-adv-x="473" 
d="M242 -10q-63 0 -108.5 43.5t-69.5 125t-24 193.5q0 121 24.5 205t71.5 128.5t113 44.5q55 0 95 -30t61.5 -86t21.5 -133h-70q0 61 -12 102t-35.5 62t-58.5 21q-46 0 -77 -35t-46.5 -104t-15.5 -172q0 -97 15 -164t44.5 -102t71.5 -35q43 0 70 26.5t39.5 92t12.5 182.5h68
q0 -135 -21 -215t-63.5 -115t-106.5 -35zM394 313h-136v62h175v-20zM251 814q-21 0 -35.5 14.5t-14.5 36.5t14.5 36t35.5 14t35 -14t14 -36t-14 -36.5t-35 -14.5z" />
    <glyph glyph-name="i.loclTRK" horiz-adv-x="196" 
d="M64 0v510h68v-510h-68zM56 634v86h84v-86h-84z" />
    <glyph glyph-name="adieresis.ss01" horiz-adv-x="389" 
d="M277 0q-4 18 -6 39.5t-2 45.5h-8v302q0 35 -18.5 54t-48.5 19q-40 0 -59.5 -28t-19.5 -70h-62q0 71 38 114.5t109 43.5q62 0 95.5 -36.5t33.5 -103.5v-295q0 -21 2 -42.5t6 -42.5h-60zM154 -10q-52 0 -83 34.5t-31 92.5q0 53 29.5 92t90.5 69l114 55v-59l-95 -48
q-35 -18 -53 -43.5t-18 -60.5q0 -34 17.5 -53t48.5 -19q38 0 62.5 32t24.5 82l12 -79q-13 -47 -45.5 -71t-73.5 -24zM100 604q-21 0 -35.5 14.5t-14.5 36.5t14.5 36t35.5 14t35 -14t14 -36t-14 -36.5t-35 -14.5zM290 604q-21 0 -35.5 14.5t-14.5 36.5t14.5 36t35.5 14
t35 -14t14 -36t-14 -36.5t-35 -14.5z" />
    <glyph glyph-name="cdotaccent.ss01" horiz-adv-x="384" 
d="M200 -10q-51 0 -88 31.5t-56.5 91t-19.5 142.5q0 84 20 143t58 90.5t91 31.5q47 0 79.5 -24t50 -68t17.5 -105h-66q0 67 -20 102t-61 35q-33 0 -55 -22.5t-33 -68t-11 -113.5q0 -67 11 -113t32 -69.5t52 -23.5q40 0 62.5 38t22.5 99h66q0 -58 -18.5 -102.5t-52.5 -69.5
t-81 -25zM205 604q-21 0 -35.5 14.5t-14.5 36.5t14.5 36t35.5 14t35 -14t14 -36t-14 -36.5t-35 -14.5z" />
    <glyph glyph-name="edieresis.ss01" horiz-adv-x="402" 
d="M204 -10q-52 0 -90 31.5t-58 90.5t-20 141q0 84 21.5 143.5t62 91.5t96.5 32q49 0 82 -28t50.5 -86t17.5 -147v-9v-10h-285v58h249l-28 -40q-1 107 -22.5 154.5t-68.5 47.5q-51 0 -78 -53t-27 -154q0 -97 26 -150t74 -53q41 0 64 30t27 82h64q-7 -78 -48 -125t-109 -47z
M118 604q-21 0 -35.5 14.5t-14.5 36.5t14.5 36t35.5 14t35 -14t14 -36t-14 -36.5t-35 -14.5zM308 604q-21 0 -35.5 14.5t-14.5 36.5t14.5 36t35.5 14t35 -14t14 -36t-14 -36.5t-35 -14.5z" />
    <glyph glyph-name="edotaccent.ss01" horiz-adv-x="402" 
d="M204 -10q-52 0 -90 31.5t-58 90.5t-20 141q0 84 21.5 143.5t62 91.5t96.5 32q49 0 82 -28t50.5 -86t17.5 -147v-9v-10h-285v58h249l-28 -40q-1 107 -22.5 154.5t-68.5 47.5q-51 0 -78 -53t-27 -154q0 -97 26 -150t74 -53q41 0 64 30t27 82h64q-7 -78 -48 -125t-109 -47z
M213 604q-21 0 -35.5 14.5t-14.5 36.5t14.5 36t35.5 14t35 -14t14 -36t-14 -36.5t-35 -14.5z" />
    <glyph glyph-name="uni0123.ss01" 
d="M213 -215q-70 0 -110.5 39.5t-44.5 104.5h62q2 -40 27.5 -62t68.5 -22q50 0 75 29t25 88v148l7 -1q-5 -49 -40.5 -79t-86.5 -30q-49 0 -84.5 30.5t-54.5 87.5t-19 136q0 83 20.5 142.5t58.5 91.5t91 32q50 0 84 -30.5t39 -81.5h-7v102h60v-538q0 -89 -44.5 -138
t-126.5 -49zM216 62q53 0 79.5 49t26.5 149t-27 149t-81 49q-53 0 -79.5 -49t-26.5 -149q0 -99 27 -148.5t81 -49.5zM216 576q-22 0 -38.5 17t-16.5 58q0 30 11 56t32.5 46t51.5 30v-37q-24 -10 -38.5 -29t-14.5 -48l-22 -3q6 5 14.5 8.5t17.5 3.5q23 0 38 -14t15 -36
q0 -23 -15 -37.5t-35 -14.5z" />
    <glyph glyph-name="gdotaccent.ss01" 
d="M213 -215q-70 0 -110.5 39.5t-44.5 104.5h62q2 -40 27.5 -62t68.5 -22q50 0 75 29t25 88v148l7 -1q-5 -49 -40.5 -79t-86.5 -30q-49 0 -84.5 30.5t-54.5 87.5t-19 136q0 83 20.5 142.5t58.5 91.5t91 32q50 0 84 -30.5t39 -81.5h-7v102h60v-538q0 -89 -44.5 -138
t-126.5 -49zM216 62q53 0 79.5 49t26.5 149t-27 149t-81 49q-53 0 -79.5 -49t-26.5 -149q0 -99 27 -148.5t81 -49.5zM214 604q-21 0 -35.5 14.5t-14.5 36.5t14.5 36t35.5 14t35 -14t14 -36t-14 -36.5t-35 -14.5z" />
    <glyph glyph-name="i.ss01" horiz-adv-x="196" 
d="M64 0v510h68v-510h-68zM98 604q-21 0 -35.5 14.5t-14.5 36.5t14.5 36t35.5 14t35 -14t14 -36t-14 -36.5t-35 -14.5z" />
    <glyph glyph-name="idieresis.ss01" horiz-adv-x="196" 
d="M64 0v510h68v-510h-68zM3 604q-21 0 -35.5 14.5t-14.5 36.5t14.5 36t35.5 14t35 -14t14 -36t-14 -36.5t-35 -14.5zM193 604q-21 0 -35.5 14.5t-14.5 36.5t14.5 36t35.5 14t35 -14t14 -36t-14 -36.5t-35 -14.5z" />
    <glyph glyph-name="i.loclTRK.ss01" horiz-adv-x="196" 
d="M64 0v510h68v-510h-68zM98 604q-21 0 -35.5 14.5t-14.5 36.5t14.5 36t35.5 14t35 -14t14 -36t-14 -36.5t-35 -14.5z" />
    <glyph glyph-name="ij.ss01" horiz-adv-x="392" 
d="M64 0v510h68v-510h-68zM98 604q-21 0 -35.5 14.5t-14.5 36.5t14.5 36t35.5 14t35 -14t14 -36t-14 -36.5t-35 -14.5zM221 -215q-19 0 -28.5 1.5t-15.5 3.5v57q5 -1 13.5 -2.5t18.5 -1.5q26 0 38.5 10.5t12.5 32.5v624h68v-628q0 -42 -27.5 -69.5t-79.5 -27.5zM294 604
q-21 0 -35.5 14.5t-14.5 36.5t14.5 36t35.5 14t35 -14t14 -36t-14 -36.5t-35 -14.5z" />
    <glyph glyph-name="iogonek.ss01" horiz-adv-x="196" 
d="M64 0v510h68v-510h-68zM98 604q-21 0 -35.5 14.5t-14.5 36.5t14.5 36t35.5 14t35 -14t14 -36t-14 -36.5t-35 -14.5zM64 -216q-34 0 -55 20.5t-21 54.5q0 44 36 86t91 72l17 -17q-44 -32 -71 -65t-27 -70q0 -19 10.5 -29t24.5 -10q20 0 39 18l25 -31q-14 -14 -30.5 -21.5
t-38.5 -7.5z" />
    <glyph glyph-name="j.ss01" horiz-adv-x="196" 
d="M25 -215q-19 0 -28.5 1.5t-15.5 3.5v57q5 -1 13.5 -2.5t18.5 -1.5q26 0 38.5 10.5t12.5 32.5v624h68v-628q0 -42 -27.5 -69.5t-79.5 -27.5zM98 604q-21 0 -35.5 14.5t-14.5 36.5t14.5 36t35.5 14t35 -14t14 -36t-14 -36.5t-35 -14.5z" />
    <glyph glyph-name="uni0137.ss01" horiz-adv-x="399" 
d="M64 0v720h68v-720h-68zM308 0l-188 265l180 245h77l-197 -264l-1 43l208 -289h-79zM177 -273v37q24 11 38.5 30t14.5 47l22 3q-6 -5 -14.5 -8.5t-17.5 -3.5q-23 0 -38 14t-15 36q0 23 15 37.5t35 14.5q23 0 39 -17t16 -58q0 -29 -11.5 -55.5t-32.5 -46.5t-51 -30z" />
    <glyph glyph-name="uni013C.ss01" horiz-adv-x="196" 
d="M64 0v720h68v-720h-68zM55 -273v37q24 11 38.5 30t14.5 47l22 3q-6 -5 -14.5 -8.5t-17.5 -3.5q-23 0 -38 14t-15 36q0 23 15 37.5t35 14.5q23 0 39 -17t16 -58q0 -29 -11.5 -55.5t-32.5 -46.5t-51 -30z" />
    <glyph glyph-name="uni0146.ss01" horiz-adv-x="442" 
d="M64 0v510h63v-96h5v-414h-68zM314 0v373q0 45 -17 65t-52 20q-36 0 -61.5 -17.5t-38.5 -46.5t-13 -64l-9 91q20 45 55.5 72t84.5 27q56 0 87.5 -35t31.5 -96v-389h-68zM178 -273v37q24 11 38.5 30t14.5 47l22 3q-6 -5 -14.5 -8.5t-17.5 -3.5q-23 0 -38 14t-15 36
q0 23 15 37.5t35 14.5q23 0 39 -17t16 -58q0 -29 -11.5 -55.5t-32.5 -46.5t-51 -30z" />
    <glyph glyph-name="odieresis.ss01" horiz-adv-x="432" 
d="M216 -10q-58 0 -98.5 35t-61 95.5t-20.5 136.5q0 77 21 136t61 93t98 34t98 -34t61 -93t21 -136q0 -76 -20.5 -136.5t-60.5 -95.5t-99 -35zM216 50q37 0 61 26t36.5 72.5t12.5 109.5q0 94 -27.5 148t-82.5 54t-82.5 -54t-27.5 -148q0 -63 12.5 -109.5t37 -72.5t60.5 -26z
M121 604q-21 0 -35.5 14.5t-14.5 36.5t14.5 36t35.5 14t35 -14t14 -36t-14 -36.5t-35 -14.5zM311 604q-21 0 -35.5 14.5t-14.5 36.5t14.5 36t35.5 14t35 -14t14 -36t-14 -36.5t-35 -14.5z" />
    <glyph glyph-name="uni0157.ss01" horiz-adv-x="276" 
d="M64 0v510h63v-106h5v-404h-68zM132 330l-16 71q22 60 51.5 89.5t70.5 29.5q11 0 20 -3v-67q-3 1 -8.5 1.5t-11.5 0.5q-52 0 -79 -35t-27 -87zM54 -273v37q24 11 38.5 30t14.5 47l22 3q-6 -5 -14.5 -8.5t-17.5 -3.5q-23 0 -38 14t-15 36q0 23 15 37.5t35 14.5q23 0 39 -17
t16 -58q0 -29 -11.5 -55.5t-32.5 -46.5t-51 -30z" />
    <glyph glyph-name="uni0219.ss01" horiz-adv-x="326" 
d="M169 -10q-67 0 -102 43.5t-39 120.5h62q3 -53 23 -79.5t57 -26.5q32 0 49 17.5t17 50.5q0 23 -12 47.5t-44 46.5l-58 42q-37 27 -58 60.5t-21 78.5q0 57 35 93t93 36q57 0 88.5 -37.5t35.5 -110.5h-62q-3 47 -18.5 68.5t-46.5 21.5q-29 0 -45 -17.5t-16 -49.5
q0 -23 12 -45t43 -45l58 -42q35 -25 57.5 -62t22.5 -84q0 -57 -35 -92t-96 -35zM128 -273v37q24 11 38.5 30t14.5 47l22 3q-6 -5 -14.5 -8.5t-17.5 -3.5q-23 0 -38 14t-15 36q0 23 15 37.5t35 14.5q23 0 39 -17t16 -58q0 -29 -11.5 -55.5t-32.5 -46.5t-51 -30z" />
    <glyph glyph-name="uni021B.ss01" horiz-adv-x="269" 
d="M201 -10q-59 0 -90 28.5t-31 83.5v497l68 30v-524q0 -30 15.5 -43.5t49.5 -13.5q14 0 24.5 1.5t15.5 4.5v-57q-10 -3 -24 -5t-28 -2zM12 452v58h241v-58h-241zM129 -273v37q24 11 38.5 30t14.5 47l22 3q-6 -5 -14.5 -8.5t-17.5 -3.5q-23 0 -38 14t-15 36q0 23 15 37.5
t35 14.5q23 0 39 -17t16 -58q0 -29 -11.5 -55.5t-32.5 -46.5t-51 -30z" />
    <glyph glyph-name="udieresis.ss01" horiz-adv-x="434" 
d="M179 -10q-36 0 -63 16t-41.5 45.5t-14.5 69.5v389h68v-383q0 -37 17.5 -56t50.5 -19q31 0 55 17t37.5 45.5t13.5 61.5l9 -91q-20 -45 -53.5 -70t-78.5 -25zM310 0v92h-8v418h68v-510h-60zM122 604q-21 0 -35.5 14.5t-14.5 36.5t14.5 36t35.5 14t35 -14t14 -36t-14 -36.5
t-35 -14.5zM312 604q-21 0 -35.5 14.5t-14.5 36.5t14.5 36t35.5 14t35 -14t14 -36t-14 -36.5t-35 -14.5z" />
    <glyph glyph-name="wdieresis.ss01" horiz-adv-x="605" 
d="M156 0l-126 510h68l91 -415h-15l109 415h42l110 -415h-14l89 415h65l-126 -510h-46l-108 408h16l-109 -408h-46zM208 604q-21 0 -35.5 14.5t-14.5 36.5t14.5 36t35.5 14t35 -14t14 -36t-14 -36.5t-35 -14.5zM398 604q-21 0 -35.5 14.5t-14.5 36.5t14.5 36t35.5 14t35 -14
t14 -36t-14 -36.5t-35 -14.5z" />
    <glyph glyph-name="ydieresis.ss01" horiz-adv-x="388" 
d="M90 -205l83 270l7 24l120 421h68l-210 -715h-68zM178 5l-158 505h72l126 -430zM99 604q-21 0 -35.5 14.5t-14.5 36.5t14.5 36t35.5 14t35 -14t14 -36t-14 -36.5t-35 -14.5zM289 604q-21 0 -35.5 14.5t-14.5 36.5t14.5 36t35.5 14t35 -14t14 -36t-14 -36.5t-35 -14.5z" />
    <glyph glyph-name="zdotaccent.ss01" horiz-adv-x="346" 
d="M30 0v48l220 431l17 -27h-226v58h272v-48l-220 -431l-17 27h242v-58h-288zM173 604q-21 0 -35.5 14.5t-14.5 36.5t14.5 36t35.5 14t35 -14t14 -36t-14 -36.5t-35 -14.5z" />
    <glyph glyph-name="a.ss02" 
d="M199 -10q-51 0 -87 31t-55 89t-19 139q0 85 20 145.5t57.5 93t89.5 32.5q46 0 81.5 -29t42.5 -85l-8 -7v111h63v-510h-63v103l7 -8q-12 -52 -47 -78.5t-82 -26.5zM216 52q54 0 80 50t26 153t-27 153t-81 50t-80 -50t-26 -153t27 -153t81 -50z" />
    <glyph glyph-name="aacute.ss02" 
d="M199 -10q-51 0 -87 31t-55 89t-19 139q0 85 20 145.5t57.5 93t89.5 32.5q46 0 81.5 -29t42.5 -85l-8 -7v111h63v-510h-63v103l7 -8q-12 -52 -47 -78.5t-82 -26.5zM216 52q54 0 80 50t26 153t-27 153t-81 50t-80 -50t-26 -153t27 -153t81 -50zM212 583h-54l92 157h86z" />
    <glyph glyph-name="abreve.ss02" 
d="M199 -10q-51 0 -87 31t-55 89t-19 139q0 85 20 145.5t57.5 93t89.5 32.5q46 0 81.5 -29t42.5 -85l-8 -7v111h63v-510h-63v103l7 -8q-12 -52 -47 -78.5t-82 -26.5zM216 52q54 0 80 50t26 153t-27 153t-81 50t-80 -50t-26 -153t27 -153t81 -50zM224 579q-35 0 -65.5 18
t-49 54t-18.5 89h42q0 -51 24.5 -78.5t66.5 -27.5t66.5 27.5t24.5 78.5h42q0 -53 -18.5 -89t-48.5 -54t-66 -18z" />
    <glyph glyph-name="uni01CE.ss02" 
d="M199 -10q-51 0 -87 31t-55 89t-19 139q0 85 20 145.5t57.5 93t89.5 32.5q46 0 81.5 -29t42.5 -85l-8 -7v111h63v-510h-63v103l7 -8q-12 -52 -47 -78.5t-82 -26.5zM216 52q54 0 80 50t26 153t-27 153t-81 50t-80 -50t-26 -153t27 -153t81 -50zM191 583l-112 157h44
l130 -137h-58l130 137h44l-112 -157h-66z" />
    <glyph glyph-name="acircumflex.ss02" 
d="M199 -10q-51 0 -87 31t-55 89t-19 139q0 85 20 145.5t57.5 93t89.5 32.5q46 0 81.5 -29t42.5 -85l-8 -7v111h63v-510h-63v103l7 -8q-12 -52 -47 -78.5t-82 -26.5zM216 52q54 0 80 50t26 153t-27 153t-81 50t-80 -50t-26 -153t27 -153t81 -50zM77 583l112 157h66l112 -157
h-44l-130 137h58l-130 -137h-44z" />
    <glyph glyph-name="adieresis.ss02" 
d="M199 -10q-51 0 -87 31t-55 89t-19 139q0 85 20 145.5t57.5 93t89.5 32.5q46 0 81.5 -29t42.5 -85l-8 -7v111h63v-510h-63v103l7 -8q-12 -52 -47 -78.5t-82 -26.5zM216 52q54 0 80 50t26 153t-27 153t-81 50t-80 -50t-26 -153t27 -153t81 -50zM276 634v86h84v-86h-84z
M87 634v86h84v-86h-84z" />
    <glyph glyph-name="agrave.ss02" 
d="M199 -10q-51 0 -87 31t-55 89t-19 139q0 85 20 145.5t57.5 93t89.5 32.5q46 0 81.5 -29t42.5 -85l-8 -7v111h63v-510h-63v103l7 -8q-12 -52 -47 -78.5t-82 -26.5zM216 52q54 0 80 50t26 153t-27 153t-81 50t-80 -50t-26 -153t27 -153t81 -50zM236 583l-124 157h86
l92 -157h-54z" />
    <glyph glyph-name="amacron.ss02" 
d="M199 -10q-51 0 -87 31t-55 89t-19 139q0 85 20 145.5t57.5 93t89.5 32.5q46 0 81.5 -29t42.5 -85l-8 -7v111h63v-510h-63v103l7 -8q-12 -52 -47 -78.5t-82 -26.5zM216 52q54 0 80 50t26 153t-27 153t-81 50t-80 -50t-26 -153t27 -153t81 -50zM90 647v48h267v-48h-267z
" />
    <glyph glyph-name="aogonek.ss02" 
d="M199 -10q-51 0 -87 31t-55 89t-19 139q0 85 20 145.5t57.5 93t89.5 32.5q46 0 81.5 -29t42.5 -85l-8 -7v111h63v-510h-63v103l7 -8q-12 -52 -47 -78.5t-82 -26.5zM216 52q54 0 80 50t26 153t-27 153t-81 50t-80 -50t-26 -153t27 -153t81 -50zM316 -216q-34 0 -55 20.5
t-21 54.5q0 44 36 86t91 72l17 -17q-44 -32 -71 -65t-27 -70q0 -19 10.5 -29t24.5 -10q20 0 39 18l25 -31q-14 -14 -30.5 -21.5t-38.5 -7.5z" />
    <glyph glyph-name="aring.ss02" 
d="M199 -10q-51 0 -87 31t-55 89t-19 139q0 85 20 145.5t57.5 93t89.5 32.5q46 0 81.5 -29t42.5 -85l-8 -7v111h63v-510h-63v103l7 -8q-12 -52 -47 -78.5t-82 -26.5zM216 52q54 0 80 50t26 153t-27 153t-81 50t-80 -50t-26 -153t27 -153t81 -50zM224 561q-46 0 -77 31.5
t-31 76.5q0 44 31 75.5t77 31.5t76.5 -31.5t30.5 -75.5q0 -45 -30.5 -76.5t-76.5 -31.5zM225 601q28 0 46 20t18 48t-18 47.5t-47 19.5t-47.5 -19.5t-18.5 -47.5t18.5 -48t48.5 -20z" />
    <glyph glyph-name="atilde.ss02" 
d="M199 -10q-51 0 -87 31t-55 89t-19 139q0 85 20 145.5t57.5 93t89.5 32.5q46 0 81.5 -29t42.5 -85l-8 -7v111h63v-510h-63v103l7 -8q-12 -52 -47 -78.5t-82 -26.5zM216 52q54 0 80 50t26 153t-27 153t-81 50t-80 -50t-26 -153t27 -153t81 -50zM287 601q-25 0 -42.5 10.5
t-31 24t-27 24t-30.5 10.5q-18 0 -28.5 -14t-10.5 -45h-42q0 38 11 62.5t31 36.5t45 12q26 0 43 -10.5t29.5 -24t25.5 -24t31 -10.5t28.5 14t10.5 45h42q0 -37 -11 -62t-30.5 -37t-43.5 -12z" />
    <glyph glyph-name="y.ss03" horiz-adv-x="388" 
d="M94 -215q-16 0 -24.5 1.5t-14.5 3.5v54q5 -1 12 -2.5t18 -1.5q21 0 35 11.5t21 36.5l45 175l8 32l106 415h68l-169 -636q-8 -31 -23 -50.5t-35.5 -29t-46.5 -9.5zM178 5l-158 505h71l126 -430z" />
    <glyph glyph-name="yacute.ss03" horiz-adv-x="388" 
d="M94 -215q-16 0 -24.5 1.5t-14.5 3.5v54q5 -1 12 -2.5t18 -1.5q21 0 35 11.5t21 36.5l45 175l8 32l106 415h68l-169 -636q-8 -31 -23 -50.5t-35.5 -29t-46.5 -9.5zM178 5l-158 505h71l126 -430zM188 583h-54l92 157h86z" />
    <glyph glyph-name="ycircumflex.ss03" horiz-adv-x="388" 
d="M94 -215q-16 0 -24.5 1.5t-14.5 3.5v54q5 -1 12 -2.5t18 -1.5q21 0 35 11.5t21 36.5l45 175l8 32l106 415h68l-169 -636q-8 -31 -23 -50.5t-35.5 -29t-46.5 -9.5zM178 5l-158 505h71l126 -430zM53 583l112 157h66l112 -157h-44l-130 137h58l-130 -137h-44z" />
    <glyph glyph-name="ydieresis.ss03" horiz-adv-x="388" 
d="M94 -215q-16 0 -24.5 1.5t-14.5 3.5v54q5 -1 12 -2.5t18 -1.5q21 0 35 11.5t21 36.5l45 175l8 32l106 415h68l-169 -636q-8 -31 -23 -50.5t-35.5 -29t-46.5 -9.5zM178 5l-158 505h71l126 -430zM252 634v86h84v-86h-84zM63 634v86h84v-86h-84z" />
    <glyph glyph-name="ygrave.ss03" horiz-adv-x="388" 
d="M94 -215q-16 0 -24.5 1.5t-14.5 3.5v54q5 -1 12 -2.5t18 -1.5q21 0 35 11.5t21 36.5l45 175l8 32l106 415h68l-169 -636q-8 -31 -23 -50.5t-35.5 -29t-46.5 -9.5zM178 5l-158 505h71l126 -430zM212 583l-124 157h86l92 -157h-54z" />
    <glyph glyph-name="k.ss04" horiz-adv-x="399" 
d="M64 0v720h68v-720h-68zM120 235l180 275h77l-160 -233l-6 -4l-91 -132v94zM231 304l156 -304h-73l-140 280z" />
    <glyph glyph-name="uni0137.ss04" horiz-adv-x="399" 
d="M64 0v720h68v-720h-68zM120 235l180 275h77l-160 -233l-6 -4l-91 -132v94zM231 304l156 -304h-73l-140 280zM172 -273v37q28 9 40.5 28t12.5 49l27 -4h-80v92h95v-70q0 -53 -23 -85.5t-72 -46.5z" />
    <glyph glyph-name="adieresis.ss01.ss02" 
d="M199 -10q-51 0 -87 31t-55 89t-19 139q0 85 20 145.5t57.5 93t89.5 32.5q46 0 81.5 -29t42.5 -85l-8 -7v111h63v-510h-63v103l7 -8q-12 -52 -47 -78.5t-82 -26.5zM216 52q54 0 80 50t26 153t-27 153t-81 50t-80 -50t-26 -153t27 -153t81 -50zM129 604q-21 0 -35.5 14.5
t-14.5 36.5t14.5 36t35.5 14t35 -14t14 -36t-14 -36.5t-35 -14.5zM319 604q-21 0 -35.5 14.5t-14.5 36.5t14.5 36t35.5 14t35 -14t14 -36t-14 -36.5t-35 -14.5z" />
    <glyph glyph-name="ydieresis.ss01.ss03" horiz-adv-x="388" 
d="M94 -215q-16 0 -24.5 1.5t-14.5 3.5v54q5 -1 12 -2.5t18 -1.5q21 0 35 11.5t21 36.5l45 175l8 32l106 415h68l-169 -636q-8 -31 -23 -50.5t-35.5 -29t-46.5 -9.5zM178 5l-158 505h71l126 -430zM105 604q-21 0 -35.5 14.5t-14.5 36.5t14.5 36t35.5 14t35 -14t14 -36
t-14 -36.5t-35 -14.5zM295 604q-21 0 -35.5 14.5t-14.5 36.5t14.5 36t35.5 14t35 -14t14 -36t-14 -36.5t-35 -14.5z" />
    <glyph glyph-name="uni0137.ss01.ss04" horiz-adv-x="399" 
d="M64 0v720h68v-720h-68zM120 235l180 275h77l-160 -233l-6 -4l-91 -132v94zM231 304l156 -304h-73l-140 280zM177 -273v37q24 11 38.5 30t14.5 47l22 3q-6 -5 -14.5 -8.5t-17.5 -3.5q-23 0 -38 14t-15 36q0 23 15 37.5t35 14.5q23 0 39 -17t16 -58q0 -29 -11.5 -55.5
t-32.5 -46.5t-51 -30z" />
    <glyph glyph-name="f_f_i.ss01" horiz-adv-x="688" 
d="M318 0v619q0 53 31 82t86 29q20 0 29 -1.5t15 -3.5v-57q-4 2 -12.5 3t-19.5 1q-31 0 -46 -16t-15 -44v-612h-68zM80 0v619q0 53 31 82t86 29q20 0 29 -1.5t15 -3.5v-57q-4 2 -12.5 3t-19.5 1q-31 0 -46 -16t-15 -44v-612h-68zM12 452v58h572v-58h-572zM556 0v510h68v-510
h-68zM590 604q-21 0 -35.5 14.5t-14.5 36.5t14.5 36t35.5 14t35 -14t14 -36t-14 -36.5t-35 -14.5z" />
    <glyph glyph-name="f_i.ss01" horiz-adv-x="457" 
d="M80 0v619q0 53 31 82t86 29q20 0 29 -1.5t15 -3.5v-57q-4 2 -12.5 3t-19.5 1q-31 0 -46 -16t-15 -44v-612h-68zM318 0v510h68v-510h-68zM352 604q-21 0 -35.5 14.5t-14.5 36.5t14.5 36t35.5 14t35 -14t14 -36t-14 -36.5t-35 -14.5zM12 452v58h334v-58h-334z" />
    <glyph glyph-name="two.ss10" horiz-adv-x="404" 
d="M49 0v60q0 63 18 112.5t46.5 90t60 75.5t60 69t46.5 70t18 78q0 55 -22.5 84t-65.5 29q-52 0 -80 -38t-28 -109h-68q0 96 48.5 152.5t130.5 56.5q71 0 113 -46t42 -125q0 -46 -14.5 -83.5t-38.5 -69.5t-52 -62t-56.5 -61t-51.5 -65t-36 -74.5t-11 -90.5l-11 7h279v-60
h-327z" />
    <glyph glyph-name="zero.tf" horiz-adv-x="500" 
d="M250 -10q-55 0 -98 40.5t-67.5 123.5t-24.5 209q0 125 24 206.5t67 121t98 39.5q57 0 100 -39.5t67 -121t24 -207.5t-24.5 -208.5t-67 -123t-98.5 -40.5zM249 52q35 0 61.5 31.5t42 100.5t15.5 180q0 110 -15 176.5t-42 97t-62 30.5q-34 0 -60.5 -30t-41.5 -97t-15 -177
q0 -111 15 -180t41.5 -100.5t60.5 -31.5z" />
    <glyph glyph-name="one.tf" horiz-adv-x="500" 
d="M242 20v626l14 -15q-17 -22 -42.5 -42t-59.5 -35t-76 -23v72q47 8 81.5 25t59 40.5t39.5 51.5h52v-700h-68zM78 0v60h390v-60h-390z" />
    <glyph glyph-name="two.tf" horiz-adv-x="500" 
d="M97 0v60q63 87 109.5 161t77.5 135t46.5 110.5t15.5 87.5q0 55 -23 84.5t-67 29.5q-50 0 -78 -38t-28 -109h-68q0 97 48.5 153t128.5 56q73 0 115 -47t42 -132q0 -49 -19 -104t-53 -117.5t-80.5 -134t-102.5 -152.5l-16 17h279v-60h-327z" />
    <glyph glyph-name="three.tf" horiz-adv-x="500" 
d="M250 -10q-54 0 -93.5 27t-61 78t-21.5 122h68q0 -80 28.5 -122.5t78.5 -42.5q48 0 76 37t28 104q0 71 -31.5 112.5t-81.5 41.5h-53v60h53q50 0 78 34t28 98q0 65 -25 97t-68 32q-46 0 -74.5 -37.5t-28.5 -109.5h-68q0 66 22 113t61.5 71.5t90.5 24.5q48 0 84 -21.5
t56 -63t20 -100.5q0 -55 -19.5 -94.5t-54.5 -60.5t-84 -21l-6 21q52 0 90.5 -24t60.5 -68.5t22 -105.5t-22 -106.5t-61.5 -70.5t-91.5 -25z" />
    <glyph glyph-name="four.tf" horiz-adv-x="500" 
d="M290 0v180v20v378l9 -1l-175 -383l-18 26h332v-60h-377v50l233 510h64v-720h-68z" />
    <glyph glyph-name="five.tf" horiz-adv-x="500" 
d="M250 -10q-82 0 -127.5 58.5t-45.5 158.5h68q0 -73 27 -114t77 -41q48 0 77.5 41.5t29.5 135.5q0 95 -28.5 136t-81.5 41q-40 0 -64.5 -20.5t-32.5 -49.5h-48l14 384h284v-60h-233l12 18l-9 -257l-14 -11q11 23 38 38.5t68 15.5q48 0 86 -25.5t59.5 -77.5t21.5 -132
t-23 -133t-63 -79.5t-92 -26.5z" />
    <glyph glyph-name="six.tf" horiz-adv-x="500" 
d="M260 -10q-94 0 -140.5 89.5t-46.5 271.5q0 127 22 211t66.5 126t111.5 42q74 0 114.5 -49.5t40.5 -139.5h-68q0 61 -24.5 94t-68.5 33q-64 0 -93 -75t-29 -239v-33l-11 -1q8 40 26.5 67.5t47 42t64.5 14.5q51 0 88 -28t57 -78.5t20 -120.5t-21.5 -121t-61 -78.5
t-94.5 -27.5zM263 52q50 0 76 42t26 124t-26.5 124t-78.5 42t-79.5 -41.5t-27.5 -118.5q0 -54 13 -92.5t38 -59t59 -20.5z" />
    <glyph glyph-name="seven.tf" horiz-adv-x="500" 
d="M171 0q10 170 54 342t143 347l21 -29h-314v60h350v-48q-91 -174 -130.5 -339.5t-48.5 -332.5h-75z" />
    <glyph glyph-name="eight.tf" horiz-adv-x="500" 
d="M250 -10q-54 0 -94 25t-62.5 70.5t-22.5 106.5q0 57 19.5 102t53.5 70.5t77 25.5v-21q-40 0 -71.5 23.5t-49 64t-17.5 91.5q0 56 21 97t58.5 63t87.5 22t87.5 -22t58.5 -63t21 -97q0 -51 -17.5 -91.5t-48.5 -64t-72 -23.5v21q43 0 77 -25.5t53.5 -70.5t19.5 -102
q0 -61 -22 -106.5t-62.5 -70.5t-94.5 -25zM250 52q51 0 79 37.5t28 105.5t-28 110t-79 42t-79 -42t-28 -110t28 -105.5t79 -37.5zM250 407q43 0 70 36.5t27 92.5q0 64 -26.5 98t-70.5 34t-70.5 -34t-26.5 -98q0 -56 27 -92.5t70 -36.5z" />
    <glyph glyph-name="nine.tf" horiz-adv-x="500" 
d="M240 -10q-49 0 -87 25t-59.5 72t-21.5 112h68q0 -76 31 -111.5t75 -35.5q32 0 53 15.5t33.5 51.5t17.5 96.5t5 150.5v33l11 11q-7 -39 -26 -67t-47 -42.5t-65 -14.5q-50 0 -87.5 27.5t-57.5 77.5t-20 117q0 68 21.5 118t61 77t94.5 27q95 0 141 -89.5t46 -271.5
q0 -136 -19 -219.5t-60 -121.5t-108 -38zM240 346q52 0 79.5 37t27.5 118q0 77 -29 122t-81 45q-50 0 -76 -41.5t-26 -119.5t26.5 -119.5t78.5 -41.5z" />
    <glyph glyph-name="two.tf.ss10" horiz-adv-x="500" 
d="M97 0v60q0 63 18 112.5t46.5 90t60 75.5t60 69t46.5 70t18 78q0 55 -22.5 84t-65.5 29q-52 0 -80 -38t-28 -109h-68q0 96 48.5 152.5t130.5 56.5q71 0 113 -46t42 -125q0 -46 -14.5 -83.5t-38.5 -69.5t-52 -62t-56.5 -61t-51.5 -65t-36 -74.5t-11 -90.5l-11 7h279v-60
h-327z" />
    <glyph glyph-name="colon.case" horiz-adv-x="213" 
d="M61 138v91h91v-91h-91zM61 518v91h91v-91h-91z" />
    <glyph glyph-name="semicolon.case" horiz-adv-x="213" 
d="M61 7v37q26 11 37.5 32.5t11.5 64.5l29 -3h-78v91h91v-70q0 -59 -22 -98t-69 -54zM61 518v91h91v-91h-91z" />
    <glyph glyph-name="exclam.case" horiz-adv-x="233" 
d="M91 200l-12 520h76l-12 -520h-52zM71 0v91h91v-91h-91z" />
    <glyph glyph-name="exclamdown.case" horiz-adv-x="231" 
d="M78 0l12 521h52l12 -521h-76zM161 721v-91h-91v91h91z" />
    <glyph glyph-name="question.case" horiz-adv-x="394" 
d="M170 199q0 59 9 100t23 71t30 53t30 44.5t23 47t9 60.5q0 40 -21.5 66.5t-64.5 26.5q-52 0 -77 -36.5t-25 -100.5h-68q0 59 20.5 104t60 70t94.5 25q47 0 81 -19.5t52 -53t18 -76.5q0 -38 -9.5 -67t-25 -53t-32.5 -48t-32.5 -53.5t-25 -68t-9.5 -92.5h-60zM155 0v91h91
v-91h-91z" />
    <glyph glyph-name="questiondown.case" horiz-adv-x="394" 
d="M181 -9q-47 0 -81 20t-52 57t-18 86q0 39 10 66.5t25.5 50.5t32.5 45.5t32.5 50t25.5 65t10 89.5h60q0 -57 -9 -97t-23.5 -68t-30.5 -49.5t-30.5 -42t-23.5 -45t-9 -59.5q0 -50 21.5 -78.5t64.5 -28.5q52 0 77 36.5t25 100.5h68q0 -59 -20.5 -104t-59.5 -70t-95 -25z
M239 721v-91h-91v91h91z" />
    <glyph glyph-name="bullet.case" horiz-adv-x="531" 
d="M61 180v410h409v-410h-409z" />
    <glyph glyph-name="periodcentered.loclCAT" horiz-adv-x="105" 
d="M53 318q-22 0 -37.5 14.5t-15.5 38.5q0 23 15.5 37.5t37.5 14.5q20 0 36 -14.5t16 -37.5q0 -24 -16 -38.5t-36 -14.5z" />
    <glyph glyph-name="period.ss01" horiz-adv-x="213" 
d="M107 -9q-22 0 -37.5 14.5t-15.5 38.5q0 23 15.5 37.5t37.5 14.5q20 0 36 -14.5t16 -37.5q0 -24 -16 -38.5t-36 -14.5z" />
    <glyph glyph-name="comma.ss01" horiz-adv-x="213" 
d="M64 -131v37q24 11 38.5 32.5t14.5 64.5l22 3q-6 -5 -14.5 -8.5t-17.5 -3.5q-23 0 -38 14t-15 36q0 23 15 37.5t35 14.5q23 0 39 -17t16 -58q0 -59 -25 -98t-70 -54z" />
    <glyph glyph-name="colon.ss01" horiz-adv-x="213" 
d="M107 -9q-22 0 -37.5 14.5t-15.5 38.5q0 23 15.5 37.5t37.5 14.5q20 0 36 -14.5t16 -37.5q0 -24 -16 -38.5t-36 -14.5zM107 371q-22 0 -37.5 14.5t-15.5 38.5q0 23 15.5 37.5t37.5 14.5q20 0 36 -14.5t16 -37.5q0 -24 -16 -38.5t-36 -14.5z" />
    <glyph glyph-name="semicolon.ss01" horiz-adv-x="215" 
d="M64 -131v37q24 11 38.5 32.5t14.5 64.5l22 3q-6 -5 -14.5 -8.5t-17.5 -3.5q-23 0 -38 14t-15 36q0 23 15 37.5t35 14.5q23 0 39 -17t16 -58q0 -59 -25 -98t-70 -54zM109 371q-22 0 -37.5 14.5t-15.5 38.5q0 23 15.5 37.5t37.5 14.5q20 0 36 -14.5t16 -37.5
q0 -24 -16 -38.5t-36 -14.5z" />
    <glyph glyph-name="ellipsis.ss01" horiz-adv-x="533" 
d="M107 -9q-22 0 -37.5 14.5t-15.5 38.5q0 23 15.5 37.5t37.5 14.5q20 0 36 -14.5t16 -37.5q0 -24 -16 -38.5t-36 -14.5zM267 -9q-22 0 -37.5 14.5t-15.5 38.5q0 23 15.5 37.5t37.5 14.5q20 0 36 -14.5t16 -37.5q0 -24 -16 -38.5t-36 -14.5zM427 -9q-22 0 -37.5 14.5
t-15.5 38.5q0 23 15.5 37.5t37.5 14.5q20 0 36 -14.5t16 -37.5q0 -24 -16 -38.5t-36 -14.5z" />
    <glyph glyph-name="exclam.ss01" horiz-adv-x="233" 
d="M91 200l-12 540h76l-12 -540h-52zM117 -9q-22 0 -37.5 14.5t-15.5 38.5q0 23 15.5 37.5t37.5 14.5q20 0 36 -14.5t16 -37.5q0 -24 -16 -38.5t-36 -14.5z" />
    <glyph glyph-name="exclamdown.ss01" horiz-adv-x="245" 
d="M85 -205l12 516h52l12 -516h-76zM122 520q23 0 38 -14.5t15 -38.5q0 -22 -15 -37t-38 -15q-20 0 -36 15t-16 37q0 24 16 38.5t36 14.5z" />
    <glyph glyph-name="question.ss01" horiz-adv-x="394" 
d="M170 199q0 61 9 104t23 74t30 54.5t30 45.5t23 47.5t9 60.5q0 47 -21.5 75t-64.5 28q-52 0 -77 -36.5t-25 -100.5h-68q0 59 20.5 104t60 70t94.5 25q47 0 81 -20t52 -55.5t18 -83.5q0 -38 -9.5 -67t-25 -53.5t-32.5 -49t-32.5 -55t-25 -71t-9.5 -96.5h-60zM201 -9
q-22 0 -37.5 14.5t-15.5 38.5q0 23 15.5 37.5t37.5 14.5q20 0 36 -14.5t16 -37.5q0 -24 -16 -38.5t-36 -14.5z" />
    <glyph glyph-name="questiondown.ss01" horiz-adv-x="394" 
d="M181 -215q-47 0 -81 20t-52 56t-18 83q0 39 10 66.5t25.5 50.5t32.5 45.5t32.5 50t25.5 65t10 89.5h60q0 -57 -9 -97t-23.5 -68t-30.5 -49.5t-30.5 -42t-23.5 -45t-9 -59.5q0 -47 21.5 -75t64.5 -28q52 0 77 36.5t25 100.5h68q0 -59 -20.5 -104t-59.5 -70t-95 -25z
M193 520q23 0 38 -14.5t15 -38.5q0 -22 -15 -37t-38 -15q-20 0 -36 15t-16 37q0 24 16 38.5t36 14.5z" />
    <glyph glyph-name="periodcentered.ss01" horiz-adv-x="105" 
d="M53 318q-22 0 -37.5 14.5t-15.5 38.5q0 23 15.5 37.5t37.5 14.5q20 0 36 -14.5t16 -37.5q0 -24 -16 -38.5t-36 -14.5z" />
    <glyph glyph-name="bullet.ss01" horiz-adv-x="279" 
d="M141 282q-34 0 -57 21.5t-23 57.5q0 34 23 56t57 22q30 0 54 -22t24 -56q0 -36 -24 -57.5t-54 -21.5z" />
    <glyph glyph-name="periodcentered.loclCAT.case" horiz-adv-x="91" 
d="M0 357v91h91v-91h-91z" />
    <glyph glyph-name="bullet.case.ss01" horiz-adv-x="594" 
d="M300 140q-102 0 -170.5 65t-68.5 173q0 101 68.5 167.5t170.5 66.5q91 0 162.5 -66.5t71.5 -167.5q0 -108 -71.5 -173t-162.5 -65z" />
    <glyph glyph-name="periodcentered.loclCAT.case.ss01" horiz-adv-x="105" 
d="M53 348q-22 0 -37.5 14.5t-15.5 38.5q0 23 15.5 37.5t37.5 14.5q20 0 36 -14.5t16 -37.5q0 -24 -16 -38.5t-36 -14.5z" />
    <glyph glyph-name="hyphen.case" horiz-adv-x="364" 
d="M64 326v68h236v-68h-236z" />
    <glyph glyph-name="endash.case" horiz-adv-x="444" 
d="M64 329v62h316v-62h-316z" />
    <glyph glyph-name="emdash.case" horiz-adv-x="644" 
d="M64 329v62h516v-62h-516z" />
    <glyph glyph-name="parenleft.case" horiz-adv-x="336" 
d="M236 -40q-56 63 -93 128t-55 133t-18 139q0 70 18 138t55 133.5t93 128.5h60q-82 -94 -122 -194.5t-40 -205.5q0 -106 39.5 -206t122.5 -194h-60z" />
    <glyph glyph-name="parenright.case" horiz-adv-x="336" 
d="M100 760q57 -62 93.5 -127.5t54.5 -133.5t18 -139q0 -70 -18 -138t-55 -133.5t-93 -128.5h-60q83 95 122.5 195t39.5 205q0 107 -39.5 206.5t-122.5 193.5h60z" />
    <glyph glyph-name="braceleft.case" horiz-adv-x="336" 
d="M197 -40q-37 0 -62.5 14t-36.5 40t-4 62l32 169q10 53 -2 70.5t-55 17.5h-39v54h39q42 0 53.5 17.5t1.5 70.5l-30 169q-6 37 4.5 62.5t36 39.5t62.5 14h89v-54h-77q-28 0 -42 -15t-9 -44l27 -147q8 -40 5.5 -67.5t-15.5 -45t-39 -27.5q25 -10 39 -27.5t17 -45t-5 -67.5
l-29 -147q-6 -28 8.5 -43.5t42.5 -15.5h77v-54h-89z" />
    <glyph glyph-name="braceright.case" horiz-adv-x="336" 
d="M139 760q37 0 62.5 -14t36.5 -39.5t4 -62.5l-32 -169q-10 -53 2 -70.5t55 -17.5h39v-54h-39q-42 0 -53.5 -17.5t-1.5 -70.5l30 -169q7 -36 -4 -62t-36.5 -40t-62.5 -14h-89v54h77q28 0 42 15.5t9 43.5l-27 147q-7 40 -5 67.5t15.5 45t38.5 27.5q-25 10 -39 27.5t-17 45.5
t5 67l29 147q6 29 -8.5 44t-42.5 15h-77v54h89z" />
    <glyph glyph-name="bracketleft.case" horiz-adv-x="336" 
d="M80 -40v800h206v-54h-142v-692h142v-54h-206z" />
    <glyph glyph-name="bracketright.case" horiz-adv-x="336" 
d="M256 760v-800h-206v54h142v692h-142v54h206z" />
    <glyph glyph-name="quotesinglbase.ss01" horiz-adv-x="221" 
d="M54 -111v37q24 3 43.5 24.5t19.5 72.5l22 3q-6 -5 -14.5 -8.5t-17.5 -3.5q-23 0 -38 14t-15 36q0 23 15 37.5t35 14.5q23 0 39 -17t16 -58q0 -67 -30 -105.5t-75 -46.5z" />
    <glyph glyph-name="quotedblbase.ss01" horiz-adv-x="371" 
d="M54 -111v37q24 3 43.5 24.5t19.5 72.5l22 3q-6 -5 -14.5 -8.5t-17.5 -3.5q-23 0 -38 14t-15 36q0 23 15 37.5t35 14.5q23 0 39 -17t16 -58q0 -67 -30 -105.5t-75 -46.5zM204 -111v37q24 3 43.5 24.5t19.5 72.5l22 3q-6 -5 -14.5 -8.5t-17.5 -3.5q-23 0 -38 14t-15 36
q0 23 15 37.5t35 14.5q23 0 39 -17t16 -58q0 -67 -30 -105.5t-75 -46.5z" />
    <glyph glyph-name="quotedblleft.ss01" horiz-adv-x="371" 
d="M117 513q-23 0 -39 17t-16 58q0 67 30 106t75 46v-37q-24 -3 -43.5 -24.5t-19.5 -72.5l-22 -3q6 5 14.5 8.5t17.5 3.5q23 0 38 -14t15 -36q0 -23 -15 -37.5t-35 -14.5zM267 513q-23 0 -39 17t-16 58q0 67 30 106t75 46v-37q-24 -3 -43.5 -24.5t-19.5 -72.5l-22 -3
q6 5 14.5 8.5t17.5 3.5q23 0 38 -14t15 -36q0 -23 -15 -37.5t-35 -14.5z" />
    <glyph glyph-name="quotedblright.ss01" horiz-adv-x="371" 
d="M54 523v37q24 3 43.5 24.5t19.5 72.5l22 3q-6 -5 -14.5 -8.5t-17.5 -3.5q-23 0 -38 14t-15 36q0 23 15 37.5t35 14.5q23 0 39 -17t16 -58q0 -67 -30 -105.5t-75 -46.5zM204 523v37q24 3 43.5 24.5t19.5 72.5l22 3q-6 -5 -14.5 -8.5t-17.5 -3.5q-23 0 -38 14t-15 36
q0 23 15 37.5t35 14.5q23 0 39 -17t16 -58q0 -67 -30 -105.5t-75 -46.5z" />
    <glyph glyph-name="quoteleft.ss01" horiz-adv-x="221" 
d="M117 513q-23 0 -39 17t-16 58q0 67 30 106t75 46v-37q-24 -3 -43.5 -24.5t-19.5 -72.5l-22 -3q6 5 14.5 8.5t17.5 3.5q23 0 38 -14t15 -36q0 -23 -15 -37.5t-35 -14.5z" />
    <glyph glyph-name="quoteright.ss01" horiz-adv-x="213" 
d="M54 523v37q24 3 43.5 24.5t19.5 72.5l22 3q-6 -5 -14.5 -8.5t-17.5 -3.5q-23 0 -38 14t-15 36q0 23 15 37.5t35 14.5q23 0 39 -17t16 -58q0 -67 -30 -105.5t-75 -46.5z" />
    <glyph glyph-name="ampersand.ss11" horiz-adv-x="511" 
d="M224 0q-57 0 -98.5 24t-64.5 68.5t-23 103.5t22 102.5t63 67.5t96 24v-21q-46 0 -81.5 21.5t-55 61t-19.5 92.5q0 84 52 135t146 51q24 0 43 -3t36 -9v-58q-19 7 -38 9.5t-38 2.5q-67 0 -99 -35t-32 -97t30 -98t84 -36h248v-58h-264q-55 0 -88 -41t-33 -109
q0 -64 30.5 -102t83.5 -38h147v-58h-147zM340 0v526h70v-526h-70z" />
    <glyph glyph-name="cent.ss12" horiz-adv-x="384" 
d="M200 -10q-51 0 -88 31.5t-56.5 91t-19.5 142.5q0 84 20 143t58 90.5t91 31.5q47 0 79.5 -24t50 -68t17.5 -105h-60q0 71 -21 107t-66 36q-54 0 -79.5 -51.5t-25.5 -158.5q0 -106 25 -159t76 -53q44 0 67.5 39t23.5 104h60q0 -58 -18.5 -102.5t-52.5 -69.5t-81 -25z
M172 -109v125l3 17v444l-3 20v119h56v-118l-3 -18v-449l3 -16v-124h-56z" />
    <glyph glyph-name="dollar.ss12" horiz-adv-x="404" 
d="M215 -9q-88 0 -137.5 63.5t-49.5 175.5h62q0 -83 33.5 -132.5t96.5 -49.5q48 0 71.5 28.5t23.5 86.5q0 43 -18 75t-57 64l-95 78q-47 38 -72 87t-25 102q0 49 20 85.5t56 56.5t84 20q80 0 123.5 -56.5t43.5 -160.5h-63q0 83 -25 121.5t-81 38.5q-46 0 -69.5 -26
t-23.5 -77q0 -40 18.5 -71.5t58.5 -64.5l95 -78q46 -37 70.5 -89t24.5 -108q0 -78 -44.5 -123.5t-120.5 -45.5zM185 -109v125l3 17v658l-3 20v119h56v-118l-3 -18v-663l3 -16v-124h-56z" />
    <glyph glyph-name="plus.tf" horiz-adv-x="500" 
d="M219 153v437h63v-437h-63zM60 342v58h380v-58h-380z" />
    <glyph glyph-name="minus.tf" horiz-adv-x="500" 
d="M60 342v58h380v-58h-380z" />
    <glyph glyph-name="multiply.tf" horiz-adv-x="500" 
d="M399 179l-339 344l41 41l339 -344zM101 179l-41 41l339 344l41 -41z" />
    <glyph glyph-name="divide.tf" horiz-adv-x="500" 
d="M60 342v58h380v-58h-380zM250 485q-21 0 -35.5 14.5t-14.5 38.5q0 23 14.5 37.5t35.5 14.5q20 0 35 -14.5t15 -37.5q0 -24 -15 -38.5t-35 -14.5zM250 153q-21 0 -35.5 14.5t-14.5 38.5q0 23 14.5 37.5t35.5 14.5q20 0 35 -14.5t15 -37.5q0 -24 -15 -38.5t-35 -14.5z" />
    <glyph glyph-name="equal.tf" horiz-adv-x="500" 
d="M60 442v58h380v-58h-380zM60 242v58h380v-58h-380z" />
    <glyph glyph-name="greater.tf" horiz-adv-x="500" 
d="M54 182v62l353 139v-25l-353 130v62l380 -150v-58z" />
    <glyph glyph-name="less.tf" horiz-adv-x="500" 
d="M471 560v-62l-363 -139v25l363 -130v-62l-411 150v58z" />
    <glyph glyph-name="percent.tf" horiz-adv-x="500" 
d="M69 0l309 720h55l-310 -720h-54zM362 -10q-28 0 -51 18.5t-36.5 55.5t-13.5 91t13.5 90.5t36.5 55t51 18.5q29 0 52.5 -18.5t37 -55t13.5 -90.5t-14 -91t-37.5 -55.5t-51.5 -18.5zM362 43q22 0 35 30.5t13 82.5q0 50 -12.5 80t-35.5 30q-22 0 -34.5 -29.5t-12.5 -80.5
q0 -52 12.5 -82.5t34.5 -30.5zM138 401q-28 0 -51.5 19t-37 55.5t-13.5 90.5t13.5 90.5t37 55t51.5 18.5q29 0 52 -18.5t36.5 -55t13.5 -90.5q0 -55 -14 -91.5t-37 -55t-51 -18.5zM138 454q21 0 34.5 30.5t13.5 82.5q0 51 -13 80.5t-35 29.5t-35 -29.5t-13 -80.5
q0 -52 13 -82.5t35 -30.5z" />
    <glyph glyph-name="perthousand.tf" horiz-adv-x="500" 
d="M68 282l-18 46l381 151l19 -47zM238 -10q-36 0 -59 35t-23 120t23 119.5t59 34.5q32 0 51.5 -40t19.5 -114t-19.5 -114.5t-51.5 -40.5zM238 35q14 0 22.5 23t8.5 88q0 62 -8.5 85t-22.5 23q-15 0 -23 -23t-8 -85q0 -63 8 -87t23 -24zM346 -10q-31 0 -50.5 41t-19.5 114
q0 74 19 114t51 40q37 0 59.5 -35t22.5 -119q0 -85 -23 -120t-59 -35zM346 35q15 0 23.5 23.5t8.5 87.5q0 63 -8.5 85.5t-23.5 22.5q-14 0 -22.5 -23t-8.5 -85q0 -64 9 -87.5t22 -23.5zM162 409q-36 0 -59 38t-23 123t22.5 122.5t59.5 37.5q36 0 59 -37t23 -123
q0 -85 -23.5 -123t-58.5 -38zM162 454q14 0 22.5 24t8.5 93q0 66 -8.5 90t-22.5 24q-15 0 -23.5 -23t-8.5 -91t8.5 -92.5t23.5 -24.5z" />
    <glyph glyph-name="uni030C.alt" horiz-adv-x="0" 
d="M100 503h-40v217h66z" />
    <glyph glyph-name="uni0308.ss01" horiz-adv-x="0" 
d="M110 604q-21 0 -35.5 14.5t-14.5 36.5t14.5 36t35.5 14t35 -14t14 -36t-14 -36.5t-35 -14.5zM300 604q-21 0 -35.5 14.5t-14.5 36.5t14.5 36t35.5 14t35 -14t14 -36t-14 -36.5t-35 -14.5z" />
    <glyph glyph-name="uni0307.ss01" horiz-adv-x="0" 
d="M110 604q-21 0 -35.5 14.5t-14.5 36.5t14.5 36t35.5 14t35 -14t14 -36t-14 -36.5t-35 -14.5z" />
    <glyph glyph-name="uni0312.ss01" horiz-adv-x="0" 
d="M115 576q-22 0 -38.5 17t-16.5 58q0 30 11 56t32.5 46t51.5 30v-37q-24 -10 -38.5 -29t-14.5 -48l-22 -3q6 5 14.5 8.5t17.5 3.5q23 0 38 -14t15 -36q0 -23 -15 -37.5t-35 -14.5z" />
    <glyph glyph-name="uni0326.ss01" horiz-adv-x="0" 
d="M70 -273v37q24 11 38.5 30t14.5 47l22 3q-6 -5 -14.5 -8.5t-17.5 -3.5q-23 0 -38 14t-15 36q0 23 15 37.5t35 14.5q23 0 39 -17t16 -58q0 -29 -11.5 -55.5t-32.5 -46.5t-51 -30z" />
    <glyph glyph-name="dieresis.ss01" horiz-adv-x="409" 
d="M110 604q-21 0 -35.5 14.5t-14.5 36.5t14.5 36t35.5 14t35 -14t14 -36t-14 -36.5t-35 -14.5zM300 604q-21 0 -35.5 14.5t-14.5 36.5t14.5 36t35.5 14t35 -14t14 -36t-14 -36.5t-35 -14.5z" />
    <glyph glyph-name="dotaccent.ss01" horiz-adv-x="219" 
d="M110 604q-21 0 -35.5 14.5t-14.5 36.5t14.5 36t35.5 14t35 -14t14 -36t-14 -36.5t-35 -14.5z" />
    </font>
</defs>
</svg>
