<?xml version="1.0" standalone="no"?>
<!DOCTYPE svg PUBLIC "-//W3C//DTD SVG 1.1//EN" "http://www.w3.org/Graphics/SVG/1.1/DTD/svg11.dtd" >
<svg xmlns="http://www.w3.org/2000/svg" xmlns:xlink="http://www.w3.org/1999/xlink" version="1.1">
<metadata>
Created by FontForge 20201107 at Wed Apr 12 12:05:17 2023
 By 
Copyright 2022 The Instrument Sans Project Authors (https://github.com/Instrument/instrument-sans)
</metadata>
<defs>
<font id="InstrumentSansSemiCondensed-SemiBold" horiz-adv-x="542" >
  <font-face 
    font-family="Instrument Sans SemiCondensed SemiBold"
    font-weight="600"
    font-stretch="semi-condensed"
    units-per-em="1000"
    panose-1="0 0 0 0 0 0 0 0 0 0"
    ascent="800"
    descent="-200"
    x-height="510"
    cap-height="720"
    bbox="-60 -324 1863 986"
    underline-thickness="38"
    underline-position="-199"
    unicode-range="U+0020-2212"
  />
<missing-glyph horiz-adv-x="584" 
d="M59 0v720h466v-720h-466zM183 98h218v524h-218v-524z" />
    <glyph glyph-name="f_f_i" unicode="ffi" horiz-adv-x="830" 
d="M88 0v574q0 76 41.5 116t119.5 40q19 0 31.5 -1.5t24.5 -5.5v-100q-6 2 -15 3.5t-21 1.5q-30 0 -45 -16t-15 -45v-567h-121zM370 0v574q0 76 41.5 116t118.5 40q19 0 31.5 -1.5t23.5 -5.5v-100q-6 2 -14.5 3.5t-19.5 1.5q-30 0 -45 -15.5t-15 -45.5v-567h-121zM651 0v510
h121v-510h-121zM13 415v95h678v-95h-678zM651 592v128h125v-128h-125z" />
    <glyph glyph-name="f_f_l" unicode="ffl" horiz-adv-x="830" 
d="M370 0v564q0 77 42 116.5t123 39.5h170v-102h-150q-33 0 -48.5 -17t-15.5 -47v-554h-121zM88 0v564q0 77 42 116.5t122 39.5q19 0 32 -1.5t24 -5.5v-100q-6 2 -15 3.5t-20 1.5q-33 0 -48.5 -17t-15.5 -47v-554h-121zM13 408v102h560v-102h-560zM651 0v720h121v-720h-121z
" />
    <glyph glyph-name="f_i" unicode="fi" horiz-adv-x="536" 
d="M88 0v574q0 77 41.5 116.5t119.5 39.5q18 0 30.5 -1.5t23.5 -5.5v-100q-6 2 -14.5 3.5t-19.5 1.5q-30 0 -45 -15.5t-15 -45.5v-567h-121zM369 0v510h121v-510h-121zM13 408v102h396v-102h-396zM369 592v128h125v-128h-125z" />
    <glyph glyph-name="f_l" unicode="fl" horiz-adv-x="548" 
d="M88 0v564q0 77 42 116.5t123 39.5h170v-102h-150q-33 0 -48.5 -17t-15.5 -47v-554h-121zM13 408v102h278v-102h-278zM369 0v720h121v-720h-121z" />
    <glyph glyph-name="w_w_w.liga" unicode="www" horiz-adv-x="1884" 
d="M155 0l-134 510h123l78 -383h-10l95 383h111l95 -383h-10l94 383h111l96 -383h-10l94 383h111l96 -383h-10l94 383h111l96 -383h-10l94 383h111l96 -383h-10l77 383h119l-134 -510h-117l-93 378h10l-93 -378h-114l-94 378h11l-94 -378h-114l-94 378h11l-94 -378h-114
l-94 378h11l-94 -378h-114l-94 378h11l-95 -378h-116z" />
    <glyph glyph-name="hyphen_greater.liga" unicode="&#x2d;&#x3e;" horiz-adv-x="746" 
d="M60 414h565l-57 -46l-328 328h148l335 -336l-335 -336h-148l328 328l57 -46h-565v108z" />
    <glyph glyph-name="less_hyphen.liga" unicode="&#x3c;&#x2d;" horiz-adv-x="746" 
d="M723 306h-565l57 46l328 -328h-148l-335 336l335 336h148l-328 -328l-57 46h565v-108z" />
    <glyph glyph-name=".notdef" horiz-adv-x="584" 
d="M59 0v720h466v-720h-466zM183 98h218v524h-218v-524z" />
    <glyph glyph-name=".null" horiz-adv-x="0" 
 />
    <glyph glyph-name="nonmarkingreturn" horiz-adv-x="333" 
 />
    <glyph glyph-name="space" unicode=" " horiz-adv-x="167" 
 />
    <glyph glyph-name="exclam" unicode="!" horiz-adv-x="271" 
d="M87 244l-19 496h135l-19 -496h-97zM66 0v140h140v-140h-140z" />
    <glyph glyph-name="quotedbl" unicode="&#x22;" horiz-adv-x="419" 
d="M96 455l-30 121q-9 37 -13.5 60.5t-4.5 44.5q0 17 7 32.5t22 26t39 10.5q23 0 38 -10.5t22 -26t7 -32.5q0 -21 -4.5 -44.5t-13.5 -60.5l-30 -121h-39zM284 455l-30 121q-9 37 -13.5 60.5t-4.5 44.5q0 17 7 32.5t22 26t39 10.5q23 0 38 -10.5t22 -26t7 -32.5
q0 -21 -4.5 -44.5t-13.5 -60.5l-30 -121h-39z" />
    <glyph glyph-name="numbersign" unicode="#" horiz-adv-x="601" 
d="M87 0l100 720h105l-100 -720h-105zM309 0l100 720h105l-100 -720h-105zM50 521h526v-98h-526v98zM25 307h526v-98h-526v98z" />
    <glyph glyph-name="dollar" unicode="$" horiz-adv-x="533" 
d="M227 696v134h98v-134h-98zM325 20v-129h-98v129h98zM282 -9q-116 0 -181.5 63t-72.5 176h118q4 -68 41.5 -105t99.5 -37q49 0 76 22.5t27 63.5q0 37 -19 64t-63 49l-104 51q-76 36 -111.5 85.5t-35.5 115.5q0 59 26.5 102t75.5 66.5t116 23.5q103 0 161.5 -57t63.5 -160
h-117q-5 62 -34 91t-79 29q-44 0 -69.5 -21t-25.5 -60q0 -33 18.5 -58.5t63.5 -47.5l105 -52q77 -37 111.5 -88.5t34.5 -118.5q0 -94 -60 -145.5t-166 -51.5z" />
    <glyph glyph-name="percent" unicode="%" horiz-adv-x="700" 
d="M63 0l485 720h94l-485 -720h-94zM520 -10q-39 0 -72 19.5t-53 59.5t-20 101t19.5 100.5t53 59t72.5 19.5q41 0 74.5 -19.5t53 -59t19.5 -100.5t-20.5 -101t-54 -59.5t-72.5 -19.5zM520 64q30 0 49.5 27.5t19.5 79.5q0 50 -19 76.5t-50 26.5t-49.5 -26.5t-18.5 -76.5
q0 -52 18.5 -79.5t49.5 -27.5zM179 371q-40 0 -73 19.5t-53 59.5t-20 101t20 100.5t53 59t73 19.5q41 0 74 -19.5t52.5 -59t19.5 -100.5t-20.5 -101t-53.5 -59.5t-72 -19.5zM179 446q30 0 49.5 27t19.5 79q0 51 -19 77.5t-50 26.5t-49.5 -26.5t-18.5 -77.5q0 -52 18.5 -79
t49.5 -27z" />
    <glyph glyph-name="ampersand" unicode="&#x26;" horiz-adv-x="671" 
d="M516 0l-333 409q-26 34 -42.5 60.5t-23.5 50.5t-7 50q0 46 23.5 82t65.5 57t97 21q54 0 95.5 -20t65.5 -56t24 -85q0 -60 -44 -110.5t-134 -88.5l-47 75q61 26 89.5 56t28.5 67q0 33 -20.5 53t-56.5 20q-35 0 -54.5 -20t-19.5 -50q0 -17 5.5 -34t21.5 -40t45 -56
l366 -441h-145zM273 -10q-74 0 -130 26t-87 72.5t-31 107.5q0 79 51.5 138t148.5 98l56 -72q-49 -20 -79.5 -42.5t-44 -49.5t-13.5 -60q0 -58 37.5 -89.5t101.5 -31.5q47 0 87 18t70.5 54.5t47.5 93.5t17 135h111q0 -76 -17.5 -139t-49 -111.5t-74.5 -81t-94.5 -49.5
t-107.5 -17z" />
    <glyph glyph-name="quotesingle" unicode="'" horiz-adv-x="231" 
d="M96 455l-30 121q-9 37 -13.5 60.5t-4.5 44.5q0 17 7 32.5t22 26t39 10.5q23 0 38 -10.5t22 -26t7 -32.5q0 -21 -4.5 -44.5t-13.5 -60.5l-30 -121h-39z" />
    <glyph glyph-name="parenleft" unicode="(" horiz-adv-x="400" 
d="M248 -110q-92 97 -136 206t-44 224q0 113 44.5 222.5t135.5 207.5h113q-88 -98 -133.5 -205.5t-45.5 -224.5q0 -118 46 -225.5t133 -204.5h-113z" />
    <glyph glyph-name="parenright" unicode=")" horiz-adv-x="400" 
d="M152 752q91 -97 135 -206t44 -224q0 -113 -44.5 -222.5t-134.5 -207.5h-114q89 98 134 205.5t45 224.5q0 118 -45.5 225.5t-133.5 204.5h114z" />
    <glyph glyph-name="asterisk" unicode="*" horiz-adv-x="412" 
d="M154 419l24 113l-88 -78l-52 90l112 35l-112 36l52 90l88 -78l-24 113h104l-24 -113l88 78l52 -90l-112 -36l112 -35l-52 -90l-88 78l24 -113h-104z" />
    <glyph glyph-name="plus" unicode="+" horiz-adv-x="544" 
d="M226 140v463h93v-463h-93zM53 326v90h438v-90h-438z" />
    <glyph glyph-name="comma" unicode="," horiz-adv-x="253" 
d="M57 -155v61q41 12 55 37t14 68l48 -11h-117v140h139v-102q0 -71 -33 -122t-106 -71z" />
    <glyph glyph-name="hyphen" unicode="-" horiz-adv-x="422" 
d="M58 220v104h306v-104h-306z" />
    <glyph glyph-name="period" unicode="." horiz-adv-x="253" 
d="M57 0v140h139v-140h-139z" />
    <glyph glyph-name="slash" unicode="/" horiz-adv-x="365" 
d="M38 -73l186 836h104l-187 -836h-103z" />
    <glyph glyph-name="zero" unicode="0" horiz-adv-x="577" 
d="M288 -10q-75 0 -132 43t-89 126.5t-32 203.5q0 119 31.5 201t89 124t132.5 42q76 0 133 -42t89 -124t32 -202t-32 -203t-89 -126t-133 -43zM288 91q40 0 68 30.5t43 91t15 151.5q0 90 -15 148.5t-43 87.5t-68 29t-68 -29t-42.5 -87.5t-14.5 -148.5q0 -91 14.5 -151.5
t42.5 -91t68 -30.5z" />
    <glyph glyph-name="one" unicode="1" horiz-adv-x="357" 
d="M178 0v626l22 -27q-15 -30 -42.5 -56t-64 -43.5t-76.5 -25.5v122q40 8 76.5 26t65.5 43.5t44 54.5h95v-720h-120z" />
    <glyph glyph-name="two" unicode="2" horiz-adv-x="485" 
d="M34 0v91q79 83 135 147.5t91 116.5t51 95.5t16 82.5q0 49 -22 74.5t-62 25.5q-45 0 -71.5 -31t-29.5 -89h-120q5 100 65.5 158.5t161.5 58.5q96 0 150.5 -53t54.5 -146q0 -47 -17 -97.5t-52.5 -107t-91 -122.5t-134.5 -144l-26 36h332v-96h-431z" />
    <glyph glyph-name="three" unicode="3" horiz-adv-x="505" 
d="M256 -10q-68 0 -118.5 27.5t-80 80t-32.5 127.5h119q5 -70 32 -104t77 -34q44 0 70.5 29.5t26.5 84.5q0 58 -27 92.5t-85 34.5h-60v95h58q51 0 75.5 30.5t24.5 80.5q0 47 -21.5 73t-64.5 26q-41 0 -67.5 -29.5t-30.5 -89.5h-119q3 67 31.5 115.5t78 74.5t113.5 26
q63 0 109 -23t71.5 -65t25.5 -99q0 -51 -20.5 -90.5t-54.5 -61.5t-75 -22l-3 21q51 0 88.5 -25t59 -69t21.5 -100q0 -62 -28.5 -109t-78.5 -72t-115 -25z" />
    <glyph glyph-name="four" unicode="4" horiz-adv-x="522" 
d="M308 0v185l6 20v394l42 -11l-231 -381l-33 32h412v-96h-484v93l291 484h120v-720h-123z" />
    <glyph glyph-name="five" unicode="5" horiz-adv-x="511" 
d="M257 -10q-101 0 -160 58.5t-66 161.5h119q5 -60 33 -91.5t72 -31.5t71.5 35t27.5 112q0 76 -26 112t-73 36q-32 0 -55 -15t-34 -44h-104l25 397h358v-96h-303l57 33l-15 -252l-32 1q17 30 49 48.5t82 18.5q60 0 105 -28.5t69.5 -81.5t24.5 -128q0 -79 -28 -133.5
t-78.5 -83t-118.5 -28.5z" />
    <glyph glyph-name="six" unicode="6" horiz-adv-x="536" 
d="M280 -10q-118 0 -181.5 90t-63.5 267q0 124 29.5 209.5t86.5 129.5t138 44q91 0 145.5 -53t62.5 -147h-119q-5 51 -29.5 77t-62.5 26q-64 0 -94 -67t-30 -212v-45l-27 8q9 44 33 74t59.5 46t79.5 16q61 0 106 -28t69.5 -79t24.5 -120q0 -73 -28.5 -126t-79 -81.5
t-119.5 -28.5zM275 87q47 0 76 35t29 103t-29 102.5t-78 34.5q-48 0 -78.5 -34t-30.5 -100q0 -45 14.5 -76.5t39.5 -48t57 -16.5z" />
    <glyph glyph-name="seven" unicode="7" horiz-adv-x="481" 
d="M128 0q13 179 70 340.5t159 305.5l30 -22h-369v96h446v-89q-61 -97 -104 -198t-68.5 -208.5t-33.5 -224.5h-130z" />
    <glyph glyph-name="eight" unicode="8" horiz-adv-x="521" 
d="M261 -10q-69 0 -121 26.5t-81 73.5t-29 109q0 54 22 97.5t59.5 68.5t85.5 25l9 -21q-48 0 -84 21t-56 59.5t-20 88.5q0 58 27 101t75 67t113 24q64 0 112 -24t75 -67t27 -101q0 -50 -20 -88t-55.5 -59.5t-84.5 -21.5l9 21q48 0 86 -25t59.5 -68.5t21.5 -98.5
q0 -62 -28.5 -109t-80 -73t-121.5 -26zM261 87q48 0 75.5 32.5t27.5 88.5q0 57 -28 89.5t-75 32.5q-49 0 -76.5 -32.5t-27.5 -89.5t27.5 -89t76.5 -32zM261 422q40 0 64 28.5t24 76.5q0 50 -24.5 78t-64.5 28t-64 -28.5t-24 -77.5q0 -48 24.5 -76.5t64.5 -28.5z" />
    <glyph glyph-name="nine" unicode="9" horiz-adv-x="538" 
d="M255 -10q-61 0 -108 25.5t-75 75t-33 118.5h120q4 -65 31 -93.5t69 -28.5q31 0 52 14.5t34.5 46t19.5 85t6 133.5v45l30 1q-9 -43 -33 -73.5t-59.5 -46.5t-80.5 -16q-60 0 -104.5 28t-69.5 78t-25 116q0 71 28 123t80 80.5t121 28.5q121 0 182 -91t61 -270
q0 -129 -27.5 -213t-82 -125t-136.5 -41zM263 368q49 0 77 33t28 95q0 42 -13 72.5t-36.5 47.5t-56.5 17q-49 0 -76 -35.5t-27 -97.5t27 -97t77 -35z" />
    <glyph glyph-name="colon" unicode=":" horiz-adv-x="253" 
d="M57 0v140h139v-140h-139zM57 347v140h139v-140h-139z" />
    <glyph glyph-name="semicolon" unicode=";" horiz-adv-x="253" 
d="M57 -155v61q41 12 55 37t14 68l48 -11h-117v140h139v-102q0 -71 -33 -122t-106 -71zM57 347v140h139v-140h-139z" />
    <glyph glyph-name="less" unicode="&#x3c;" horiz-adv-x="544" 
d="M491 571v-95l-343 -116v23l343 -114v-95l-438 150v94z" />
    <glyph glyph-name="equal" unicode="=" horiz-adv-x="544" 
d="M53 426v90h438v-90h-438zM53 226v90h438v-90h-438z" />
    <glyph glyph-name="greater" unicode="&#x3e;" horiz-adv-x="544" 
d="M53 171v95l343 116v-23l-343 114v95l438 -150v-94z" />
    <glyph glyph-name="question" unicode="?" horiz-adv-x="493" 
d="M192 244q0 52 11 89t28 64t36 47.5t36.5 39t28.5 39t11 48.5q0 39 -22.5 60.5t-63.5 21.5q-47 0 -75 -28t-33 -84h-116q4 65 33.5 111.5t79.5 72t115 25.5q62 0 108 -22.5t71.5 -62.5t25.5 -93q0 -40 -11.5 -69t-29.5 -51t-38.5 -42.5t-39 -43.5t-30 -52t-11.5 -70h-114z
M179 0v140h140v-140h-140z" />
    <glyph glyph-name="at" unicode="@" horiz-adv-x="816" 
d="M407 -10q-113 0 -197 41.5t-129.5 117t-45.5 177.5q0 85 29.5 158.5t84.5 128.5t133 86t175 31q98 0 170.5 -36t113 -101.5t40.5 -153.5q0 -57 -18 -109t-49 -92.5t-71 -63.5t-83 -23q-33 0 -58 14t-36 39t-5 58l10 -14q-28 -51 -64 -73.5t-75 -22.5q-54 0 -89.5 39.5
t-35.5 111.5q0 49 15 97t41.5 87t62 62t76.5 23q52 0 79 -31.5t24 -81.5l-10 1l23 89h101l-67 -254q-8 -32 -2 -49t28 -17t43.5 16t38.5 44t26.5 64t9.5 76q0 70 -29 119.5t-83 76.5t-130 27q-79 0 -141 -25t-105 -68.5t-65.5 -102.5t-22.5 -128q0 -80 34 -138.5t97.5 -91
t152.5 -32.5q53 0 103 12t94 32l28 -69q-43 -24 -100.5 -37.5t-121.5 -13.5zM372 238q22 0 41.5 15.5t33.5 41t22 55t8 56.5q0 38 -16.5 59t-43.5 21q-23 0 -42 -15.5t-33.5 -40.5t-22.5 -54t-8 -57q0 -40 16.5 -60.5t44.5 -20.5z" />
    <glyph glyph-name="A" unicode="A" horiz-adv-x="600" 
d="M22 0l203 720h100l-184 -720h-119zM452 0l-184 720h107l203 -720h-126zM136 275h323v-98h-323v98z" />
    <glyph glyph-name="B" unicode="B" horiz-adv-x="548" 
d="M155 0v93h135q49 0 76 30.5t27 84.5q0 58 -29 90.5t-80 32.5h-129v92h123q47 0 73.5 26t26.5 77q0 50 -25 75.5t-72 25.5h-126v93h147q89 0 143.5 -48.5t54.5 -132.5q0 -53 -22 -91t-58.5 -58.5t-83.5 -20.5l2 21q51 0 91.5 -24.5t64 -68t23.5 -102.5q0 -58 -25.5 -102.5
t-71.5 -68.5t-107 -24h-158zM59 0v720h124v-720h-124z" />
    <glyph glyph-name="C" unicode="C" horiz-adv-x="613" 
d="M320 -10q-65 0 -117.5 26t-90 74.5t-57.5 117t-20 153.5q0 86 20 154t57.5 116t90.5 73.5t117 25.5q75 0 132 -34t91 -97t38 -150h-121q-6 89 -43.5 134.5t-96.5 45.5q-49 0 -85 -29.5t-55 -88.5t-19 -148t19.5 -150t55.5 -91.5t84 -30.5q58 0 95.5 46t43.5 134h123
q-6 -86 -40 -149.5t-91 -97.5t-131 -34z" />
    <glyph glyph-name="D" unicode="D" horiz-adv-x="632" 
d="M133 0v99h142q64 0 108 30.5t66.5 90t22.5 144.5q0 84 -22.5 141t-66 86.5t-108.5 29.5h-138v99h138q98 0 171 -42t112.5 -122.5t39.5 -193.5t-40 -194.5t-112.5 -124.5t-169.5 -43h-143zM59 0v720h124v-720h-124z" />
    <glyph glyph-name="E" unicode="E" horiz-adv-x="520" 
d="M59 0v720h124v-720h-124zM121 0v98h353v-98h-353zM121 323v97h326v-97h-326zM121 622v98h344v-98h-344z" />
    <glyph glyph-name="F" unicode="F" horiz-adv-x="487" 
d="M59 0v720h124v-720h-124zM121 292v98h310v-98h-310zM121 622v98h328v-98h-328z" />
    <glyph glyph-name="G" unicode="G" horiz-adv-x="628" 
d="M336 -10q-96 0 -163.5 42.5t-102.5 124t-35 197.5q0 117 35.5 201t100.5 129.5t154 45.5q74 0 129.5 -31t88.5 -87t37 -133h-124q-4 74 -39 112t-92 38q-52 0 -88.5 -31t-56 -91t-19.5 -149q0 -91 20 -150.5t61 -88.5t102 -29q39 0 68.5 10.5t48.5 31.5l121 -40
q-42 -49 -104 -75.5t-142 -26.5zM458 91v231l31 -31h-158v98h251v-297z" />
    <glyph glyph-name="H" unicode="H" horiz-adv-x="613" 
d="M59 0v720h124v-720h-124zM430 0v720h124v-720h-124zM121 424h366v-98h-366v98z" />
    <glyph glyph-name="I" unicode="I" horiz-adv-x="242" 
d="M59 0v720h124v-720h-124z" />
    <glyph glyph-name="J" unicode="J" horiz-adv-x="363" 
d="M111 -10q-32 0 -59 4.5t-40 11.5v98q14 -6 35 -10t42 -4q47 0 71 18t24 60v552h124v-563q0 -86 -52.5 -126.5t-144.5 -40.5z" />
    <glyph glyph-name="K" unicode="K" horiz-adv-x="597" 
d="M59 0v720h124v-720h-124zM159 374l254 346h148l-265 -346h-137zM427 0l-271 374h140l285 -374h-154z" />
    <glyph glyph-name="L" unicode="L" horiz-adv-x="483" 
d="M59 0v720h124v-720h-124zM121 0v98h323v-98h-323z" />
    <glyph glyph-name="M" unicode="M" horiz-adv-x="792" 
d="M59 0v720h184l189 -685h-72l187 685h185v-720h-121v648h18l-179 -648h-116l-178 645l18 1v-646h-115z" />
    <glyph glyph-name="N" unicode="N" horiz-adv-x="616" 
d="M59 0v720h151l261 -619l-31 -5v624h117v-720h-151l-261 619l31 5v-624h-117z" />
    <glyph glyph-name="O" unicode="O" horiz-adv-x="654" 
d="M327 -10q-66 0 -120 26t-92.5 74.5t-59 117.5t-20.5 155q0 114 36 196t101.5 126.5t153.5 44.5q90 0 155.5 -44.5t101.5 -126.5t36 -197q0 -86 -21 -155t-59 -117t-92 -74t-120 -26zM326 91q52 0 89 32t57.5 93t20.5 148q0 86 -20 145t-57.5 89.5t-89.5 30.5
q-51 0 -88.5 -30.5t-57 -89.5t-19.5 -145q0 -87 20 -148t57 -93t88 -32z" />
    <glyph glyph-name="P" unicode="P" horiz-adv-x="558" 
d="M59 0v720h242q72 0 123.5 -27t79.5 -76.5t28 -116.5t-28 -116.5t-79.5 -76.5t-123.5 -27h-147v98h142q55 0 83.5 32t28.5 90q0 59 -28.5 90.5t-83.5 31.5h-113v-622h-124z" />
    <glyph glyph-name="Q" unicode="Q" horiz-adv-x="663" 
d="M337 -10q-95 0 -163 45t-103.5 129t-35.5 199q0 114 36 196t101.5 126.5t153.5 44.5q90 0 155.5 -44.5t101.5 -126.5t36 -197q0 -77 -19 -141t-59.5 -109t-107.5 -67zM326 88q52 0 89.5 32t57.5 94t20 150q0 86 -20 145t-57.5 89.5t-89.5 30.5q-51 0 -88.5 -30.5
t-57 -89.5t-19.5 -145q0 -89 20 -150.5t57 -93.5t88 -32zM337 -10l-10 83l319 25v-98q-49 0 -87.5 -1.5t-73.5 -3.5t-70.5 -3.5t-77.5 -1.5z" />
    <glyph glyph-name="R" unicode="R" horiz-adv-x="556" 
d="M58 0v720h232q69 0 119.5 -26.5t78.5 -73t28 -108.5t-27.5 -108.5t-78.5 -73t-120 -26.5h-137v94h132q53 0 82 30.5t29 82.5t-29 81.5t-82 29.5h-103v-622h-124zM393 0l-243 371h130l268 -371h-155z" />
    <glyph glyph-name="S" unicode="S" horiz-adv-x="535" 
d="M282 -9q-116 0 -181.5 63t-72.5 176h118q4 -68 41.5 -105t99.5 -37q49 0 76 22.5t27 63.5q0 37 -19 64t-63 49l-104 51q-76 36 -111.5 85.5t-35.5 115.5q0 59 26.5 102t75.5 66.5t116 23.5q103 0 161.5 -57t63.5 -160h-117q-5 62 -34 91t-79 29q-44 0 -69.5 -21
t-25.5 -60q0 -33 18.5 -58.5t63.5 -47.5l105 -52q77 -37 111.5 -88.5t34.5 -118.5q0 -94 -60 -145.5t-166 -51.5z" />
    <glyph glyph-name="T" unicode="T" horiz-adv-x="540" 
d="M208 0v622h-188v98h499v-98h-187v-622h-124z" />
    <glyph glyph-name="U" unicode="U" horiz-adv-x="593" 
d="M296 -10q-119 0 -181 69.5t-62 194.5v466h124v-488q0 -71 31.5 -106t87.5 -35q57 0 88.5 34.5t31.5 106.5v488h124v-467q0 -124 -62 -193.5t-182 -69.5z" />
    <glyph glyph-name="V" unicode="V" horiz-adv-x="600" 
d="M225 0l-203 720h127l162 -632h-15l162 632h120l-203 -720h-150z" />
    <glyph glyph-name="W" unicode="W" horiz-adv-x="865" 
d="M179 0l-147 720h122l119 -666h-26l120 666h137l119 -666h-25l119 666h116l-147 -720h-147l-119 657h26l-120 -657h-147z" />
    <glyph glyph-name="X" unicode="X" horiz-adv-x="579" 
d="M423 0l-169 325l-219 395h138l156 -300l231 -420h-137zM276 426l157 294h126l-237 -419zM305 300l-161 -300h-126l240 425z" />
    <glyph glyph-name="Y" unicode="Y" horiz-adv-x="590" 
d="M233 0v310l-221 410h143l179 -366h-63l178 366h129l-221 -410v-310h-124z" />
    <glyph glyph-name="Z" unicode="Z" horiz-adv-x="538" 
d="M48 0v87l313 571l27 -36h-330v98h432v-80l-316 -576l-26 34h347v-98h-447z" />
    <glyph glyph-name="bracketleft" unicode="[" horiz-adv-x="400" 
d="M78 -108v858h273v-95h-159v-668h159v-95h-273z" />
    <glyph glyph-name="backslash" unicode="\" horiz-adv-x="365" 
d="M38 763h103l187 -836h-104z" />
    <glyph glyph-name="bracketright" unicode="]" horiz-adv-x="400" 
d="M321 750v-858h-273v95h160v668h-160v95h273z" />
    <glyph glyph-name="asciicircum" unicode="^" horiz-adv-x="544" 
d="M171 491h-88l137 249h104l138 -249h-88l-132 208h60z" />
    <glyph glyph-name="underscore" unicode="_" horiz-adv-x="405" 
d="M0 -147v94h406v-94h-406z" />
    <glyph glyph-name="grave" unicode="`" horiz-adv-x="354" 
d="M202 583l-142 157h156l87 -157h-101z" />
    <glyph glyph-name="a" unicode="a" horiz-adv-x="480" 
d="M324 0q-6 19 -8 42t-2 51h-5v262q0 38 -17.5 56t-52.5 18t-55 -18t-23 -51h-111q4 70 55.5 115t140.5 45q88 0 134.5 -44t46.5 -125v-258q0 -22 2.5 -45.5t9.5 -47.5h-115zM175 -10q-62 0 -100 36.5t-38 99.5q0 61 38 100.5t115 62.5l144 45v-84l-103 -30
q-39 -12 -57.5 -31.5t-18.5 -49.5q0 -28 17 -43t47 -15q38 0 64 22.5t26 55.5l11 -70q-17 -50 -54.5 -74.5t-90.5 -24.5z" />
    <glyph glyph-name="b" unicode="b" 
d="M316 -10q-59 0 -100 31.5t-51 89.5l8 2v-113h-115v720h121v-317l-9 2q12 55 54 85t99 30q59 0 101 -32t65 -90t23 -139q0 -82 -24.5 -142.5t-68 -93.5t-103.5 -33zM282 89q49 0 77.5 42.5t28.5 124.5q0 83 -28.5 124.5t-78.5 41.5q-49 0 -77.5 -42.5t-28.5 -125.5
q0 -82 28.5 -123.5t78.5 -41.5z" />
    <glyph glyph-name="c" unicode="c" horiz-adv-x="477" 
d="M248 -10q-65 0 -115 32.5t-78.5 92.5t-28.5 141t29 140.5t79.5 91.5t115.5 32q56 0 100.5 -23.5t71.5 -67.5t31 -107h-112q-5 52 -28.5 77t-60.5 25q-30 0 -53.5 -18t-36 -55t-12.5 -95q0 -57 12.5 -95t35.5 -56.5t54 -18.5q36 0 60 25.5t29 76.5h112q-4 -62 -32 -106
t-73 -68t-100 -24z" />
    <glyph glyph-name="d" unicode="d" 
d="M367 0v107l9 -2q-12 -54 -54.5 -84.5t-100.5 -30.5q-59 0 -102 32t-66 90t-23 139q0 82 24 142.5t68.5 93.5t103.5 33q58 0 99.5 -31.5t50.5 -89.5l-13 -2v323h120v-720h-116zM261 88q49 0 77.5 42.5t28.5 125.5q0 82 -28.5 123.5t-78.5 41.5q-49 0 -77.5 -42.5
t-28.5 -124.5t28.5 -124t78.5 -42z" />
    <glyph glyph-name="e" unicode="e" horiz-adv-x="496" 
d="M256 -10q-69 0 -121 33.5t-80.5 93t-28.5 139.5t29 139.5t81.5 92t122.5 32.5q66 0 113 -30.5t72.5 -87t25.5 -136.5q0 -12 -0.5 -23t-2.5 -21h-366v84h283l-27 -30q0 79 -26 116t-74 37q-52 0 -81 -43.5t-29 -130.5t28.5 -130.5t82.5 -43.5q36 0 59 18.5t32 54.5h111
q-18 -74 -70 -119t-134 -45z" />
    <glyph glyph-name="f" unicode="f" horiz-adv-x="326" 
d="M88 0v574q0 77 42.5 116.5t124.5 39.5q20 0 32.5 -1.5t24.5 -5.5v-93q-6 2 -15 3t-21 1q-34 0 -50.5 -16.5t-16.5 -47.5v-570h-121zM13 415v95h291v-95h-291z" />
    <glyph glyph-name="g" unicode="g" 
d="M260 -215q-90 0 -146 44t-64 118h113q5 -28 30 -43.5t65 -15.5q52 0 78.5 26.5t26.5 78.5v129l8 -1q-9 -53 -50 -84.5t-100 -31.5q-58 0 -101 31.5t-66.5 88.5t-23.5 135q0 79 24.5 137.5t69.5 90.5t106 32t99.5 -32t46.5 -89h-7v111h114v-505q0 -104 -59 -162t-164 -58z
M261 102q49 0 77.5 41.5t28.5 120.5q0 78 -28.5 118.5t-78.5 40.5q-49 0 -77.5 -41.5t-28.5 -120.5q0 -78 28.5 -118.5t78.5 -40.5z" />
    <glyph glyph-name="h" unicode="h" horiz-adv-x="531" 
d="M58 0v720h121v-720h-121zM357 0v344q0 40 -18.5 59t-53.5 19q-32 0 -56 -15.5t-37 -41t-13 -59.5l-14 100q22 53 65 83.5t103 30.5q68 0 106 -40.5t38 -109.5v-370h-120z" />
    <glyph glyph-name="i" unicode="i" horiz-adv-x="237" 
d="M58 0v510h121v-510h-121zM53 594v132h130v-132h-130z" />
    <glyph glyph-name="j" unicode="j" horiz-adv-x="237" 
d="M29 -215q-17 0 -30 2t-24 5v93q6 -2 14.5 -3t18.5 -1q25 0 37.5 11t12.5 34v584h121v-589q0 -64 -37 -100t-113 -36zM53 594v132h130v-132h-130z" />
    <glyph glyph-name="k" unicode="k" horiz-adv-x="489" 
d="M58 0v723h121v-723h-121zM341 0l-182 265l176 245h135l-205 -267l4 46l211 -289h-139z" />
    <glyph glyph-name="l" unicode="l" horiz-adv-x="237" 
d="M58 0v720h121v-720h-121z" />
    <glyph glyph-name="m" unicode="m" horiz-adv-x="805" 
d="M58 0v510h116v-108h5v-402h-121zM345 0v349q0 37 -17 55t-49 18q-29 0 -52 -14.5t-35.5 -40t-12.5 -58.5l-14 97q22 55 64 84.5t98 29.5q64 0 101 -39t37 -105v-376h-120zM631 0v349q0 37 -17 55t-48 18q-30 0 -52.5 -14.5t-35.5 -39.5t-13 -59l-20 98q23 55 66 84
t100 29q65 0 102.5 -39.5t37.5 -107.5v-373h-120z" />
    <glyph glyph-name="n" unicode="n" horiz-adv-x="531" 
d="M58 0v510h116v-108h5v-402h-121zM357 0v344q0 40 -18.5 59t-53.5 19q-32 0 -56 -15.5t-37 -41t-13 -59.5l-14 100q22 53 65 83.5t103 30.5q68 0 106 -40.5t38 -109.5v-370h-120z" />
    <glyph glyph-name="o" unicode="o" horiz-adv-x="521" 
d="M261 -10q-71 0 -124 34t-82 94t-29 139t29.5 138t82 92t123.5 33t123.5 -33t81.5 -92t29 -138t-29 -139t-81.5 -94t-123.5 -34zM261 86q32 0 57 20t38.5 58t13.5 94q0 82 -30 124t-79 42t-79.5 -42t-30.5 -124q0 -56 14 -94t38.5 -58t57.5 -20z" />
    <glyph glyph-name="p" unicode="p" 
d="M316 -10q-59 0 -99.5 31.5t-50.5 89.5l13 2v-318h-121v715h116v-107l-8 2q12 55 55 85t102 30t101 -32t65 -90t23 -139q0 -82 -24.5 -142.5t-68 -93.5t-103.5 -33zM282 89q50 0 78 42.5t28 124.5q0 83 -28.5 124.5t-78.5 41.5t-78 -42.5t-28 -125.5q0 -82 28 -123.5
t79 -41.5z" />
    <glyph glyph-name="q" unicode="q" 
d="M363 -205v312l13 -2q-12 -54 -54.5 -84.5t-100.5 -30.5q-59 0 -102 31.5t-66 90t-23 139.5q0 82 24 142.5t69 93.5t105 33q59 0 99 -31.5t49 -89.5l-9 -2v113h116v-715h-120zM261 88q50 0 78 42.5t28 125.5q0 82 -28 123.5t-79 41.5t-78.5 -42.5t-27.5 -124.5t28 -124
t79 -42z" />
    <glyph glyph-name="r" unicode="r" horiz-adv-x="343" 
d="M58 0v510h116v-121h5v-389h-121zM179 285l-15 102q18 68 53.5 100.5t85.5 32.5q16 0 25 -3v-117q-4 2 -11.5 2.5t-18.5 0.5q-58 0 -88.5 -28.5t-30.5 -89.5z" />
    <glyph glyph-name="s" unicode="s" horiz-adv-x="421" 
d="M221 -10q-89 0 -141 44t-57 124h105q4 -40 28.5 -60.5t65.5 -20.5q36 0 54.5 14t18.5 41q0 20 -12 35t-47 30l-70 28q-61 23 -92 59.5t-31 89.5q0 67 46.5 106.5t125.5 39.5q80 0 127.5 -40t52.5 -112h-104q-4 33 -23 49t-53 16q-31 0 -48 -13t-17 -37q0 -20 13.5 -34.5
t47.5 -28.5l75 -31q56 -20 86 -60t30 -93q0 -68 -48 -107t-133 -39z" />
    <glyph glyph-name="t" unicode="t" horiz-adv-x="350" 
d="M256 -10q-82 0 -122 39.5t-40 117.5v468l121 49v-518q0 -30 16.5 -45t52.5 -15q14 0 25 2.5t20 6.5v-93q-11 -6 -30.5 -9t-42.5 -3zM13 415v95h315v-95h-315z" />
    <glyph glyph-name="u" unicode="u" horiz-adv-x="522" 
d="M194 -10q-43 0 -74.5 18.5t-49 51.5t-17.5 78v372h121v-346q0 -38 18 -57t50 -19q31 0 53.5 15.5t35.5 41.5t13 58l14 -100q-22 -52 -64 -82.5t-100 -30.5zM349 0v107h-5v403h120v-510h-115z" />
    <glyph glyph-name="v" unicode="v" horiz-adv-x="472" 
d="M178 0l-167 510h126l124 -452h-44l122 452h123l-167 -510h-117z" />
    <glyph glyph-name="w" unicode="w" horiz-adv-x="720" 
d="M155 0l-134 510h123l78 -383h-10l95 383h111l95 -383h-10l78 383h118l-134 -510h-116l-94 378h11l-95 -378h-116z" />
    <glyph glyph-name="x" unicode="x" horiz-adv-x="496" 
d="M344 0l-127 226l-179 284h131l114 -205l192 -305h-131zM227 305l117 205h125l-186 -296zM269 207l-122 -207h-126l192 298z" />
    <glyph glyph-name="y" unicode="y" horiz-adv-x="472" 
d="M99 -205l103 292l21 32l116 391h123l-245 -715h-118zM190 -2l-179 512h129l136 -451z" />
    <glyph glyph-name="z" unicode="z" horiz-adv-x="445" 
d="M40 0v85l239 363l23 -33h-253v95h355v-78l-241 -368l-22 31h268v-95h-369z" />
    <glyph glyph-name="braceleft" unicode="{" horiz-adv-x="400" 
d="M257 -108q-60 0 -96.5 20.5t-49.5 57.5t-3 86l24 124q10 50 -7 72t-62 22h-35v94h35q45 0 62 22t7 72l-24 124q-10 49 3 85.5t49.5 57.5t96.5 21h94v-95h-81q-31 0 -46.5 -18t-7.5 -51l23 -113q13 -59 -4.5 -98t-62.5 -54q45 -15 62.5 -54t4.5 -98l-23 -113
q-8 -33 7.5 -51.5t46.5 -18.5h81v-94h-94z" />
    <glyph glyph-name="bar" unicode="|" horiz-adv-x="223" 
d="M59 -130v920h105v-920h-105z" />
    <glyph glyph-name="braceright" unicode="}" horiz-adv-x="400" 
d="M143 750q60 0 96 -21t49.5 -57.5t2.5 -85.5l-23 -124q-10 -50 6.5 -72t61.5 -22h35v-94h-35q-45 0 -61.5 -22t-6.5 -72l23 -124q11 -49 -2.5 -86t-49.5 -57.5t-96 -20.5h-95v94h81q32 0 47 18.5t8 51.5l-23 113q-13 59 4.5 98t61.5 54q-44 15 -61.5 54t-4.5 98l23 113
q7 33 -8 51t-47 18h-81v95h95z" />
    <glyph glyph-name="asciitilde" unicode="~" horiz-adv-x="544" 
d="M373 281q37 0 66 15.5t47.5 47t21.5 80.5h-77q-3 -26 -18 -39t-39 -13q-22 0 -44 9t-46 21.5t-51.5 22t-61.5 9.5q-35 0 -64.5 -15.5t-47.5 -46.5t-22 -81h77q4 26 18.5 39t39.5 13q23 0 44.5 -9t44.5 -21.5t50.5 -22t61.5 -9.5z" />
    <glyph glyph-name="uni00A0" unicode="&#xa0;" horiz-adv-x="167" 
 />
    <glyph glyph-name="exclamdown" unicode="&#xa1;" horiz-adv-x="271" 
d="M68 -204l19 470h97l19 -470h-135zM206 510v-140h-140v140h140z" />
    <glyph glyph-name="cent" unicode="&#xa2;" horiz-adv-x="477" 
d="M199 482v134h98v-134h-98zM297 20v-129h-98v129h98zM248 -10q-65 0 -115 32.5t-78.5 92.5t-28.5 141t29 140.5t79.5 91.5t115.5 32q56 0 100.5 -23.5t71.5 -67.5t31 -107h-112q-5 52 -28.5 77t-60.5 25q-30 0 -53.5 -18t-36 -55t-12.5 -95q0 -57 12.5 -95t35.5 -56.5
t54 -18.5q36 0 60 25.5t29 76.5h112q-4 -62 -32 -106t-73 -68t-100 -24z" />
    <glyph glyph-name="sterling" unicode="&#xa3;" horiz-adv-x="515" 
d="M36 0v102q40 60 55 104t15 80q0 35 -10.5 64t-24 57.5t-23.5 59.5t-10 71q0 57 25.5 100t74 67.5t114.5 24.5q68 0 118 -26t79 -73.5t32 -112.5h-116q-4 56 -31 85.5t-76 29.5q-47 0 -72 -25.5t-25 -71.5q0 -30 9 -58t21.5 -55.5t21.5 -58.5t9 -68q0 -44 -19 -99
t-69 -127l-12 35h337v-105h-423zM11 294v96h382v-96h-382z" />
    <glyph glyph-name="yen" unicode="&#xa5;" horiz-adv-x="540" 
d="M208 0v306l-196 414h143l163 -389h-80l162 389h128l-196 -414v-306h-124zM36 249v86h469v-86h-469zM236 387h-200v86h166zM360 473h145v-86h-182z" />
    <glyph glyph-name="section" unicode="&#xa7;" horiz-adv-x="435" 
d="M227 203l2 70q36 0 54.5 15t18.5 41q0 24 -14 41t-49 31l-70 28q-59 22 -89 59.5t-30 92.5q0 68 46 108.5t125 40.5q81 0 128 -40.5t52 -112.5h-104q-4 33 -23 48.5t-52 15.5q-32 0 -49 -13t-17 -38q0 -21 14 -36.5t47 -29.5l76 -30q55 -20 85 -57t30 -92
q0 -65 -47.5 -103.5t-133.5 -38.5zM215 -43q-80 0 -127 40t-53 113h105q3 -33 22.5 -49t52.5 -16q32 0 48.5 13.5t16.5 37.5q0 22 -13 37.5t-48 28.5l-75 31q-56 21 -86 57.5t-30 90.5q0 64 48 103t133 39l-1 -70q-37 0 -55 -14.5t-18 -41.5q0 -24 14.5 -40t48.5 -31l69 -29
q60 -22 90 -59.5t30 -92.5q0 -67 -46.5 -107.5t-125.5 -40.5z" />
    <glyph glyph-name="dieresis" unicode="&#xa8;" horiz-adv-x="465" 
d="M275 594v132h130v-132h-130zM60 594v132h129v-132h-129z" />
    <glyph glyph-name="copyright" unicode="&#xa9;" horiz-adv-x="820" 
d="M410 -15q-78 0 -146 29t-119.5 80.5t-80.5 119.5t-29 146t29 146t80.5 119.5t119.5 80.5t146 29t146 -29t119.5 -80.5t80.5 -119.5t29 -146t-29 -146t-80.5 -119.5t-119.5 -80.5t-146 -29zM410 41q66 0 123 25t101 69t68.5 102t24.5 123t-24.5 123t-68.5 102t-101 69
t-123 25t-123 -25t-101 -69t-68.5 -102t-24.5 -123t24.5 -123t68.5 -102t101 -69t123 -25zM416 140q-61 0 -109 28.5t-75 78.5t-27 114t27 113t74.5 77.5t109.5 28.5q77 0 129.5 -45t62.5 -118h-78q-7 45 -38 71t-76 26q-59 0 -95.5 -42t-36.5 -110q0 -70 36.5 -113
t96.5 -43q44 0 74.5 26.5t39.5 70.5h78q-11 -74 -64 -118.5t-129 -44.5z" />
    <glyph glyph-name="ordfeminine" unicode="&#xaa;" horiz-adv-x="326" 
d="M204 418q-4 12 -5.5 26.5t-1.5 30.5h-2v152q0 17 -8.5 26.5t-25.5 9.5q-16 0 -26 -8t-12 -22h-78q2 42 33.5 69.5t85.5 27.5q55 0 84 -27t29 -77v-151q0 -15 2 -29t6 -28h-81zM116 412q-35 0 -57 22t-22 59t21.5 63t67.5 39l84 28v-61l-60 -21q-15 -4 -22.5 -12t-7.5 -22
q0 -13 8 -20.5t22 -7.5q19 0 32 11.5t13 27.5l7 -47q-11 -29 -33.5 -44t-52.5 -15z" />
    <glyph glyph-name="guillemotleft" unicode="&#xab;" horiz-adv-x="495" 
d="M160 68l-117 183l117 183h108l-113 -183l113 -183h-108zM335 68l-117 183l117 183h108l-113 -183l113 -183h-108z" />
    <glyph glyph-name="registered" unicode="&#xae;" horiz-adv-x="820" 
d="M410 -15q-78 0 -146 29t-119.5 80.5t-80.5 119.5t-29 146t29 146t80.5 119.5t119.5 80.5t146 29t146 -29t119.5 -80.5t80.5 -119.5t29 -146t-29 -146t-80.5 -119.5t-119.5 -80.5t-146 -29zM410 41q66 0 123 25t101 69t68.5 102t24.5 123t-24.5 123t-68.5 102t-101 69
t-123 25t-123 -25t-101 -69t-68.5 -102t-24.5 -123t24.5 -123t68.5 -102t101 -69t123 -25zM253 145v430h185q69 0 108 -31.5t39 -86.5q0 -88 -114 -112l2 16q50 2 77.5 -23t27.5 -71v-71q0 -10 1.5 -22.5t3.5 -28.5h-78q-2 9 -3 21.5t-1 29.5v51q0 40 -19.5 60t-58.5 20
h-134v62h145q35 0 54.5 16t19.5 45q0 30 -19 45t-55 15h-103v-365h-78z" />
    <glyph glyph-name="macron" unicode="&#xaf;" horiz-adv-x="411" 
d="M60 628v86h319v-86h-319z" />
    <glyph glyph-name="degree" unicode="&#xb0;" horiz-adv-x="373" 
d="M187 449q-40 0 -73 19.5t-52 52.5t-19 72t19 71.5t52 51.5t73 19q41 0 73 -19t50.5 -51.5t18.5 -71.5t-18.5 -72t-50.5 -52.5t-73 -19.5zM188 509q34 0 57 24.5t23 59.5q0 34 -23 58t-57 24q-36 0 -60 -24t-24 -58q0 -35 24 -59.5t60 -24.5z" />
    <glyph glyph-name="acute" unicode="&#xb4;" horiz-adv-x="354" 
d="M161 583h-101l87 157h156z" />
    <glyph glyph-name="paragraph" unicode="&#xb6;" horiz-adv-x="597" 
d="M263 -130v456h-38q-57 0 -102.5 24.5t-71 68.5t-25.5 101q0 59 25.5 104t71.5 70.5t105 25.5h310v-850h-104v761h-68v-761h-103z" />
    <glyph glyph-name="periodcentered" unicode="&#xb7;" horiz-adv-x="140" 
d="M0 305v140h139v-140h-139z" />
    <glyph glyph-name="cedilla" unicode="&#xb8;" horiz-adv-x="301" 
d="M176 -215q-52 0 -83 24.5t-33 66.5h74q2 -15 14 -22.5t29 -7.5q15 0 25 7t10 20q0 17 -18 27t-63 13l21 99h68l-11 -50q40 -10 60 -33.5t20 -55.5q0 -40 -30.5 -64t-82.5 -24z" />
    <glyph glyph-name="ordmasculine" unicode="&#xba;" horiz-adv-x="363" 
d="M181 412q-43 0 -76 20t-51.5 56t-18.5 84q0 72 40 115t106 43q67 0 107 -43t40 -115t-40.5 -116t-106.5 -44zM181 486q27 0 42.5 22t15.5 65q0 42 -16 62.5t-42 20.5q-25 0 -41 -20.5t-16 -62.5q0 -44 16 -65.5t41 -21.5z" />
    <glyph glyph-name="guillemotright" unicode="&#xbb;" horiz-adv-x="495" 
d="M336 434l116 -183l-116 -183h-108l112 183l-112 183h108zM161 434l117 -183l-117 -183h-108l113 183l-113 183h108z" />
    <glyph glyph-name="questiondown" unicode="&#xbf;" horiz-adv-x="493" 
d="M232 -215q-62 0 -108 22t-71.5 61t-25.5 90q0 41 11.5 69t29.5 49.5t38.5 40t38.5 39t29.5 47t11.5 63.5h115q0 -49 -11 -83t-28.5 -58t-36.5 -42.5t-36 -36t-28 -37.5t-11 -47q0 -36 23.5 -56t63.5 -20q44 0 72.5 24.5t32.5 73.5h118q-4 -62 -34 -106.5t-80 -68.5
t-114 -24zM313 510v-140h-139v140h139z" />
    <glyph glyph-name="Agrave" unicode="&#xc0;" horiz-adv-x="600" 
d="M22 0l203 720h100l-184 -720h-119zM452 0l-184 720h107l203 -720h-126zM136 275h323v-98h-323v98zM283 793l-142 157h156l87 -157h-101z" />
    <glyph glyph-name="Aacute" unicode="&#xc1;" horiz-adv-x="600" 
d="M22 0l203 720h100l-184 -720h-119zM452 0l-184 720h107l203 -720h-126zM136 275h323v-98h-323v98zM317 793h-101l87 157h156z" />
    <glyph glyph-name="Acircumflex" unicode="&#xc2;" horiz-adv-x="600" 
d="M22 0l203 720h100l-184 -720h-119zM452 0l-184 720h107l203 -720h-126zM136 275h323v-98h-323v98zM122 793l118 157h119l117 -157h-94l-131 127h97l-131 -127h-95z" />
    <glyph glyph-name="Atilde" unicode="&#xc3;" horiz-adv-x="600" 
d="M22 0l203 720h100l-184 -720h-119zM452 0l-184 720h107l203 -720h-126zM136 275h323v-98h-323v98zM369 807q-27 0 -46 7.5t-34 18.5t-29 19t-31 8q-18 0 -29 -11.5t-11 -35.5h-74q0 38 14 68t40.5 47t62.5 17q28 0 46.5 -8t32 -18.5t27 -18.5t30.5 -8q19 0 30.5 11.5
t11.5 35.5h73q0 -38 -14 -68t-39.5 -47t-60.5 -17z" />
    <glyph glyph-name="Adieresis" unicode="&#xc4;" horiz-adv-x="600" 
d="M22 0l203 720h100l-184 -720h-119zM452 0l-184 720h107l203 -720h-126zM136 275h323v-98h-323v98zM342 804v132h130v-132h-130zM127 804v132h129v-132h-129z" />
    <glyph glyph-name="Aring" unicode="&#xc5;" horiz-adv-x="600" 
d="M22 0l203 720h100l-184 -720h-119zM452 0l-184 720h107l203 -720h-126zM136 275h323v-98h-323v98zM300 771q-46 0 -77 31.5t-31 76.5q0 44 31 75.5t77 31.5t76.5 -31.5t30.5 -75.5q0 -45 -30.5 -76.5t-76.5 -31.5zM300 834q19 0 31 13t12 32t-12 31.5t-31 12.5
q-20 0 -32 -12.5t-12 -31.5t12 -32t32 -13z" />
    <glyph glyph-name="AE" unicode="&#xc6;" horiz-adv-x="826" 
d="M22 0l203 720h105l-189 -720h-119zM405 0v720h124v-720h-124zM467 0v98h313v-98h-313zM201 323v97h552v-97h-552zM259 622v98h511v-98h-511z" />
    <glyph glyph-name="Ccedilla" unicode="&#xc7;" horiz-adv-x="613" 
d="M320 -10q-65 0 -117.5 26t-90 74.5t-57.5 117t-20 153.5q0 86 20 154t57.5 116t90.5 73.5t117 25.5q75 0 132 -34t91 -97t38 -150h-121q-6 89 -43.5 134.5t-96.5 45.5q-49 0 -85 -29.5t-55 -88.5t-19 -148t19.5 -150t55.5 -91.5t84 -30.5q58 0 95.5 46t43.5 134h123
q-6 -86 -40 -149.5t-91 -97.5t-131 -34zM310 -215q-52 0 -83 24.5t-33 66.5h74q2 -15 14 -22.5t29 -7.5q15 0 25 7t10 20q0 17 -18 27t-63 13l21 99h68l-11 -50q40 -10 60 -33.5t20 -55.5q0 -40 -30.5 -64t-82.5 -24z" />
    <glyph glyph-name="Egrave" unicode="&#xc8;" horiz-adv-x="520" 
d="M59 0v720h124v-720h-124zM121 0v98h353v-98h-353zM121 323v97h326v-97h-326zM121 622v98h344v-98h-344zM253 793l-142 157h156l87 -157h-101z" />
    <glyph glyph-name="Eacute" unicode="&#xc9;" horiz-adv-x="520" 
d="M59 0v720h124v-720h-124zM121 0v98h353v-98h-353zM121 323v97h326v-97h-326zM121 622v98h344v-98h-344zM288 793h-101l87 157h156z" />
    <glyph glyph-name="Ecircumflex" unicode="&#xca;" horiz-adv-x="520" 
d="M59 0v720h124v-720h-124zM121 0v98h353v-98h-353zM121 323v97h326v-97h-326zM121 622v98h344v-98h-344zM93 793l118 157h119l117 -157h-94l-131 127h97l-131 -127h-95z" />
    <glyph glyph-name="Edieresis" unicode="&#xcb;" horiz-adv-x="520" 
d="M59 0v720h124v-720h-124zM121 0v98h353v-98h-353zM121 323v97h326v-97h-326zM121 622v98h344v-98h-344zM313 804v132h130v-132h-130zM98 804v132h129v-132h-129z" />
    <glyph glyph-name="Igrave" unicode="&#xcc;" horiz-adv-x="242" 
d="M59 0v720h124v-720h-124zM104 793l-142 157h156l87 -157h-101z" />
    <glyph glyph-name="Iacute" unicode="&#xcd;" horiz-adv-x="242" 
d="M59 0v720h124v-720h-124zM138 793h-101l87 157h156z" />
    <glyph glyph-name="Icircumflex" unicode="&#xce;" horiz-adv-x="242" 
d="M59 0v720h124v-720h-124zM-56 793l118 157h119l117 -157h-94l-131 127h97l-131 -127h-95z" />
    <glyph glyph-name="Idieresis" unicode="&#xcf;" horiz-adv-x="242" 
d="M59 0v720h124v-720h-124zM164 804v132h130v-132h-130zM-51 804v132h129v-132h-129z" />
    <glyph glyph-name="Eth" unicode="&#xd0;" horiz-adv-x="641" 
d="M7 313v97h326v-97h-326zM143 0v99h141q65 0 109 30.5t66.5 90t22.5 144.5q0 84 -22.5 141t-66.5 86.5t-109 29.5h-137v99h137q99 0 171.5 -42t112 -122.5t39.5 -193.5t-40 -194.5t-112 -124.5t-170 -43h-142zM69 0v720h124v-720h-124z" />
    <glyph glyph-name="Ntilde" unicode="&#xd1;" horiz-adv-x="616" 
d="M59 0v720h151l261 -619l-31 -5v624h117v-720h-151l-261 619l31 5v-624h-117zM378 807q-27 0 -46 7.5t-34 18.5t-29 19t-31 8q-18 0 -29 -11.5t-11 -35.5h-74q0 38 14 68t40.5 47t62.5 17q28 0 46.5 -8t32 -18.5t27 -18.5t30.5 -8q19 0 30.5 11.5t11.5 35.5h73
q0 -38 -14 -68t-39.5 -47t-60.5 -17z" />
    <glyph glyph-name="Ograve" unicode="&#xd2;" horiz-adv-x="654" 
d="M327 -10q-66 0 -120 26t-92.5 74.5t-59 117.5t-20.5 155q0 114 36 196t101.5 126.5t153.5 44.5q90 0 155.5 -44.5t101.5 -126.5t36 -197q0 -86 -21 -155t-59 -117t-92 -74t-120 -26zM326 91q52 0 89 32t57.5 93t20.5 148q0 86 -20 145t-57.5 89.5t-89.5 30.5
q-51 0 -88.5 -30.5t-57 -89.5t-19.5 -145q0 -87 20 -148t57 -93t88 -32zM310 793l-142 157h156l87 -157h-101z" />
    <glyph glyph-name="Oacute" unicode="&#xd3;" horiz-adv-x="654" 
d="M327 -10q-66 0 -120 26t-92.5 74.5t-59 117.5t-20.5 155q0 114 36 196t101.5 126.5t153.5 44.5q90 0 155.5 -44.5t101.5 -126.5t36 -197q0 -86 -21 -155t-59 -117t-92 -74t-120 -26zM326 91q52 0 89 32t57.5 93t20.5 148q0 86 -20 145t-57.5 89.5t-89.5 30.5
q-51 0 -88.5 -30.5t-57 -89.5t-19.5 -145q0 -87 20 -148t57 -93t88 -32zM344 793h-101l87 157h156z" />
    <glyph glyph-name="Ocircumflex" unicode="&#xd4;" horiz-adv-x="654" 
d="M327 -10q-66 0 -120 26t-92.5 74.5t-59 117.5t-20.5 155q0 114 36 196t101.5 126.5t153.5 44.5q90 0 155.5 -44.5t101.5 -126.5t36 -197q0 -86 -21 -155t-59 -117t-92 -74t-120 -26zM326 91q52 0 89 32t57.5 93t20.5 148q0 86 -20 145t-57.5 89.5t-89.5 30.5
q-51 0 -88.5 -30.5t-57 -89.5t-19.5 -145q0 -87 20 -148t57 -93t88 -32zM149 793l118 157h119l117 -157h-94l-131 127h97l-131 -127h-95z" />
    <glyph glyph-name="Otilde" unicode="&#xd5;" horiz-adv-x="654" 
d="M327 -10q-66 0 -120 26t-92.5 74.5t-59 117.5t-20.5 155q0 114 36 196t101.5 126.5t153.5 44.5q90 0 155.5 -44.5t101.5 -126.5t36 -197q0 -86 -21 -155t-59 -117t-92 -74t-120 -26zM326 91q52 0 89 32t57.5 93t20.5 148q0 86 -20 145t-57.5 89.5t-89.5 30.5
q-51 0 -88.5 -30.5t-57 -89.5t-19.5 -145q0 -87 20 -148t57 -93t88 -32zM396 807q-27 0 -46 7.5t-34 18.5t-29 19t-31 8q-18 0 -29 -11.5t-11 -35.5h-74q0 38 14 68t40.5 47t62.5 17q28 0 46.5 -8t32 -18.5t27 -18.5t30.5 -8q19 0 30.5 11.5t11.5 35.5h73q0 -38 -14 -68
t-39.5 -47t-60.5 -17z" />
    <glyph glyph-name="Odieresis" unicode="&#xd6;" horiz-adv-x="654" 
d="M327 -10q-66 0 -120 26t-92.5 74.5t-59 117.5t-20.5 155q0 114 36 196t101.5 126.5t153.5 44.5q90 0 155.5 -44.5t101.5 -126.5t36 -197q0 -86 -21 -155t-59 -117t-92 -74t-120 -26zM326 91q52 0 89 32t57.5 93t20.5 148q0 86 -20 145t-57.5 89.5t-89.5 30.5
q-51 0 -88.5 -30.5t-57 -89.5t-19.5 -145q0 -87 20 -148t57 -93t88 -32zM369 804v132h130v-132h-130zM154 804v132h129v-132h-129z" />
    <glyph glyph-name="multiply" unicode="&#xd7;" horiz-adv-x="544" 
d="M424 156l-367 367l64 64l367 -367zM121 156l-64 64l367 367l64 -64z" />
    <glyph glyph-name="Oslash" unicode="&#xd8;" horiz-adv-x="654" 
d="M97 -10l-67 52l523 688l67 -52zM327 -10q-66 0 -120 26t-92.5 74.5t-59 117.5t-20.5 155q0 114 36 196t101.5 126.5t153.5 44.5q90 0 155.5 -44.5t101.5 -126.5t36 -197q0 -86 -21 -155t-59 -117t-92 -74t-120 -26zM326 91q52 0 89 32t57.5 93t20.5 148q0 86 -20 145
t-57.5 89.5t-89.5 30.5q-51 0 -88.5 -30.5t-57 -89.5t-19.5 -145q0 -87 20 -148t57 -93t88 -32z" />
    <glyph glyph-name="Ugrave" unicode="&#xd9;" horiz-adv-x="593" 
d="M296 -10q-119 0 -181 69.5t-62 194.5v466h124v-488q0 -71 31.5 -106t87.5 -35q57 0 88.5 34.5t31.5 106.5v488h124v-467q0 -124 -62 -193.5t-182 -69.5zM279 793l-142 157h156l87 -157h-101z" />
    <glyph glyph-name="Uacute" unicode="&#xda;" horiz-adv-x="593" 
d="M296 -10q-119 0 -181 69.5t-62 194.5v466h124v-488q0 -71 31.5 -106t87.5 -35q57 0 88.5 34.5t31.5 106.5v488h124v-467q0 -124 -62 -193.5t-182 -69.5zM314 793h-101l87 157h156z" />
    <glyph glyph-name="Ucircumflex" unicode="&#xdb;" horiz-adv-x="593" 
d="M296 -10q-119 0 -181 69.5t-62 194.5v466h124v-488q0 -71 31.5 -106t87.5 -35q57 0 88.5 34.5t31.5 106.5v488h124v-467q0 -124 -62 -193.5t-182 -69.5zM119 793l118 157h119l117 -157h-94l-131 127h97l-131 -127h-95z" />
    <glyph glyph-name="Udieresis" unicode="&#xdc;" horiz-adv-x="593" 
d="M296 -10q-119 0 -181 69.5t-62 194.5v466h124v-488q0 -71 31.5 -106t87.5 -35q57 0 88.5 34.5t31.5 106.5v488h124v-467q0 -124 -62 -193.5t-182 -69.5zM339 804v132h130v-132h-130zM124 804v132h129v-132h-129z" />
    <glyph glyph-name="Yacute" unicode="&#xdd;" horiz-adv-x="590" 
d="M233 0v310l-221 410h143l179 -366h-63l178 366h129l-221 -410v-310h-124zM312 793h-101l87 157h156z" />
    <glyph glyph-name="Thorn" unicode="&#xde;" horiz-adv-x="556" 
d="M153 159v98h136q56 0 87 28.5t31 84.5t-31 84.5t-87 28.5h-136v98h141q70 0 123.5 -25.5t83.5 -72.5t30 -113q0 -65 -30 -112.5t-83.5 -73t-123.5 -25.5h-141zM58 0v720h124v-720h-124z" />
    <glyph glyph-name="germandbls" unicode="&#xdf;" horiz-adv-x="551" 
d="M304 -10q-20 0 -37.5 3t-29.5 9v93q10 -4 23 -6.5t28 -2.5q54 0 81 30.5t27 89.5q0 60 -29 93.5t-84 33.5h-38v96h30q27 0 47 12t31 34.5t11 54.5q0 50 -23 77t-67 27q-45 0 -70 -30.5t-25 -94.5v-509h-121v509q0 102 55.5 161.5t161.5 59.5q66 0 113 -24t73 -67t26 -98
q0 -50 -20.5 -87.5t-56 -58.5t-79.5 -21l1 21q57 0 99.5 -25t65.5 -69.5t23 -103.5q0 -63 -27 -109.5t-75.5 -72t-113.5 -25.5z" />
    <glyph glyph-name="agrave" unicode="&#xe0;" horiz-adv-x="480" 
d="M324 0q-6 19 -8 42t-2 51h-5v262q0 38 -17.5 56t-52.5 18t-55 -18t-23 -51h-111q4 70 55.5 115t140.5 45q88 0 134.5 -44t46.5 -125v-258q0 -22 2.5 -45.5t9.5 -47.5h-115zM175 -10q-62 0 -100 36.5t-38 99.5q0 61 38 100.5t115 62.5l144 45v-84l-103 -30
q-39 -12 -57.5 -31.5t-18.5 -49.5q0 -28 17 -43t47 -15q38 0 64 22.5t26 55.5l11 -70q-17 -50 -54.5 -74.5t-90.5 -24.5zM226 583l-142 157h156l87 -157h-101z" />
    <glyph glyph-name="aacute" unicode="&#xe1;" horiz-adv-x="480" 
d="M324 0q-6 19 -8 42t-2 51h-5v262q0 38 -17.5 56t-52.5 18t-55 -18t-23 -51h-111q4 70 55.5 115t140.5 45q88 0 134.5 -44t46.5 -125v-258q0 -22 2.5 -45.5t9.5 -47.5h-115zM175 -10q-62 0 -100 36.5t-38 99.5q0 61 38 100.5t115 62.5l144 45v-84l-103 -30
q-39 -12 -57.5 -31.5t-18.5 -49.5q0 -28 17 -43t47 -15q38 0 64 22.5t26 55.5l11 -70q-17 -50 -54.5 -74.5t-90.5 -24.5zM260 583h-101l87 157h156z" />
    <glyph glyph-name="acircumflex" unicode="&#xe2;" horiz-adv-x="480" 
d="M324 0q-6 19 -8 42t-2 51h-5v262q0 38 -17.5 56t-52.5 18t-55 -18t-23 -51h-111q4 70 55.5 115t140.5 45q88 0 134.5 -44t46.5 -125v-258q0 -22 2.5 -45.5t9.5 -47.5h-115zM175 -10q-62 0 -100 36.5t-38 99.5q0 61 38 100.5t115 62.5l144 45v-84l-103 -30
q-39 -12 -57.5 -31.5t-18.5 -49.5q0 -28 17 -43t47 -15q38 0 64 22.5t26 55.5l11 -70q-17 -50 -54.5 -74.5t-90.5 -24.5zM66 583l118 157h119l117 -157h-94l-131 127h97l-131 -127h-95z" />
    <glyph glyph-name="atilde" unicode="&#xe3;" horiz-adv-x="480" 
d="M324 0q-6 19 -8 42t-2 51h-5v262q0 38 -17.5 56t-52.5 18t-55 -18t-23 -51h-111q4 70 55.5 115t140.5 45q88 0 134.5 -44t46.5 -125v-258q0 -22 2.5 -45.5t9.5 -47.5h-115zM175 -10q-62 0 -100 36.5t-38 99.5q0 61 38 100.5t115 62.5l144 45v-84l-103 -30
q-39 -12 -57.5 -31.5t-18.5 -49.5q0 -28 17 -43t47 -15q38 0 64 22.5t26 55.5l11 -70q-17 -50 -54.5 -74.5t-90.5 -24.5zM313 597q-27 0 -46 7.5t-34 18.5t-29 19t-31 8q-18 0 -29 -11.5t-11 -35.5h-74q0 38 14 68t40.5 47t62.5 17q28 0 46.5 -8t32 -18.5t27 -18.5t30.5 -8
q19 0 30.5 11.5t11.5 35.5h73q0 -38 -14 -68t-39.5 -47t-60.5 -17z" />
    <glyph glyph-name="adieresis" unicode="&#xe4;" horiz-adv-x="480" 
d="M324 0q-6 19 -8 42t-2 51h-5v262q0 38 -17.5 56t-52.5 18t-55 -18t-23 -51h-111q4 70 55.5 115t140.5 45q88 0 134.5 -44t46.5 -125v-258q0 -22 2.5 -45.5t9.5 -47.5h-115zM175 -10q-62 0 -100 36.5t-38 99.5q0 61 38 100.5t115 62.5l144 45v-84l-103 -30
q-39 -12 -57.5 -31.5t-18.5 -49.5q0 -28 17 -43t47 -15q38 0 64 22.5t26 55.5l11 -70q-17 -50 -54.5 -74.5t-90.5 -24.5zM286 594v132h130v-132h-130zM71 594v132h129v-132h-129z" />
    <glyph glyph-name="aring" unicode="&#xe5;" horiz-adv-x="480" 
d="M324 0q-6 19 -8 42t-2 51h-5v262q0 38 -17.5 56t-52.5 18t-55 -18t-23 -51h-111q4 70 55.5 115t140.5 45q88 0 134.5 -44t46.5 -125v-258q0 -22 2.5 -45.5t9.5 -47.5h-115zM175 -10q-62 0 -100 36.5t-38 99.5q0 61 38 100.5t115 62.5l144 45v-84l-103 -30
q-39 -12 -57.5 -31.5t-18.5 -49.5q0 -28 17 -43t47 -15q38 0 64 22.5t26 55.5l11 -70q-17 -50 -54.5 -74.5t-90.5 -24.5zM243 561q-46 0 -77 31.5t-31 76.5q0 44 31 75.5t77 31.5t76.5 -31.5t30.5 -75.5q0 -45 -30.5 -76.5t-76.5 -31.5zM243 624q19 0 31 13t12 32t-12 31.5
t-31 12.5q-20 0 -32 -12.5t-12 -31.5t12 -32t32 -13z" />
    <glyph glyph-name="ae" unicode="&#xe6;" horiz-adv-x="757" 
d="M311 126v229q0 38 -17.5 56t-52.5 18q-34 0 -54.5 -18t-23.5 -51h-111q4 70 54.5 115t138.5 45t134 -44t46 -125v-225h-114zM189 -10q-68 0 -110 37.5t-42 100.5q0 59 38 101.5t128 61.5l127 27v-81l-94 -20q-43 -9 -62 -28.5t-19 -48.5q0 -28 17.5 -43.5t48.5 -15.5
q24 0 44 10.5t33 29t13 41.5l72 -35q-31 -78 -80 -107.5t-114 -29.5zM525 -10q-66 0 -113 33.5t-72.5 93t-25.5 139.5t26 139.5t74 92t114 32.5q62 0 107.5 -30.5t70.5 -87t25 -136.5q0 -12 -0.5 -23t-2.5 -21h-349v84h269l-23 -30q-1 79 -24.5 116t-70.5 37
q-33 0 -56.5 -18.5t-36 -57t-12.5 -98.5q0 -87 27 -130.5t76 -43.5q33 0 53.5 18.5t29.5 54.5h110q-18 -74 -68 -119t-128 -45z" />
    <glyph glyph-name="ccedilla" unicode="&#xe7;" horiz-adv-x="477" 
d="M248 -10q-65 0 -115 32.5t-78.5 92.5t-28.5 141t29 140.5t79.5 91.5t115.5 32q56 0 100.5 -23.5t71.5 -67.5t31 -107h-112q-5 52 -28.5 77t-60.5 25q-30 0 -53.5 -18t-36 -55t-12.5 -95q0 -57 12.5 -95t35.5 -56.5t54 -18.5q36 0 60 25.5t29 76.5h112q-4 -62 -32 -106
t-73 -68t-100 -24zM238 -215q-52 0 -83 24.5t-33 66.5h74q2 -15 14 -22.5t29 -7.5q15 0 25 7t10 20q0 17 -18 27t-63 13l21 99h68l-11 -50q40 -10 60 -33.5t20 -55.5q0 -40 -30.5 -64t-82.5 -24z" />
    <glyph glyph-name="egrave" unicode="&#xe8;" horiz-adv-x="496" 
d="M256 -10q-69 0 -121 33.5t-80.5 93t-28.5 139.5t29 139.5t81.5 92t122.5 32.5q66 0 113 -30.5t72.5 -87t25.5 -136.5q0 -12 -0.5 -23t-2.5 -21h-366v84h283l-27 -30q0 79 -26 116t-74 37q-52 0 -81 -43.5t-29 -130.5t28.5 -130.5t82.5 -43.5q36 0 59 18.5t32 54.5h111
q-18 -74 -70 -119t-134 -45zM242 583l-142 157h156l87 -157h-101z" />
    <glyph glyph-name="eacute" unicode="&#xe9;" horiz-adv-x="496" 
d="M256 -10q-69 0 -121 33.5t-80.5 93t-28.5 139.5t29 139.5t81.5 92t122.5 32.5q66 0 113 -30.5t72.5 -87t25.5 -136.5q0 -12 -0.5 -23t-2.5 -21h-366v84h283l-27 -30q0 79 -26 116t-74 37q-52 0 -81 -43.5t-29 -130.5t28.5 -130.5t82.5 -43.5q36 0 59 18.5t32 54.5h111
q-18 -74 -70 -119t-134 -45zM276 583h-101l87 157h156z" />
    <glyph glyph-name="ecircumflex" unicode="&#xea;" horiz-adv-x="496" 
d="M256 -10q-69 0 -121 33.5t-80.5 93t-28.5 139.5t29 139.5t81.5 92t122.5 32.5q66 0 113 -30.5t72.5 -87t25.5 -136.5q0 -12 -0.5 -23t-2.5 -21h-366v84h283l-27 -30q0 79 -26 116t-74 37q-52 0 -81 -43.5t-29 -130.5t28.5 -130.5t82.5 -43.5q36 0 59 18.5t32 54.5h111
q-18 -74 -70 -119t-134 -45zM81 583l118 157h119l117 -157h-94l-131 127h97l-131 -127h-95z" />
    <glyph glyph-name="edieresis" unicode="&#xeb;" horiz-adv-x="496" 
d="M256 -10q-69 0 -121 33.5t-80.5 93t-28.5 139.5t29 139.5t81.5 92t122.5 32.5q66 0 113 -30.5t72.5 -87t25.5 -136.5q0 -12 -0.5 -23t-2.5 -21h-366v84h283l-27 -30q0 79 -26 116t-74 37q-52 0 -81 -43.5t-29 -130.5t28.5 -130.5t82.5 -43.5q36 0 59 18.5t32 54.5h111
q-18 -74 -70 -119t-134 -45zM301 594v132h130v-132h-130zM86 594v132h129v-132h-129z" />
    <glyph glyph-name="igrave" unicode="&#xec;" horiz-adv-x="237" 
d="M58 0v510h121v-510h-121zM101 583l-142 157h156l87 -157h-101z" />
    <glyph glyph-name="iacute" unicode="&#xed;" horiz-adv-x="237" 
d="M58 0v510h121v-510h-121zM135 583h-101l87 157h156z" />
    <glyph glyph-name="icircumflex" unicode="&#xee;" horiz-adv-x="237" 
d="M58 0v510h121v-510h-121zM-59 583l118 157h119l117 -157h-94l-131 127h97l-131 -127h-95z" />
    <glyph glyph-name="idieresis" unicode="&#xef;" horiz-adv-x="237" 
d="M58 0v510h121v-510h-121zM161 594v132h130v-132h-130zM-54 594v132h129v-132h-129z" />
    <glyph glyph-name="eth" unicode="&#xf0;" horiz-adv-x="530" 
d="M260 -10q-68 0 -120 29.5t-81 87.5t-29 142q0 82 29.5 137.5t78.5 84.5t108 29q46 0 79 -16.5t54 -47t28 -72.5l-29 -47v40q0 97 -34.5 161t-100 95.5t-161.5 31.5l21 85q89 0 162 -25.5t125.5 -77t81 -129t28.5 -182.5q0 -156 -59.5 -241t-180.5 -85zM262 87
q33 0 58 17.5t39.5 54t14.5 92.5q0 57 -14.5 91t-39.5 50.5t-57 16.5q-48 0 -77.5 -38t-29.5 -123q0 -56 13.5 -91.5t37.5 -52.5t55 -17zM169 517l-40 63l268 175l40 -62z" />
    <glyph glyph-name="ntilde" unicode="&#xf1;" horiz-adv-x="531" 
d="M58 0v510h116v-108h5v-402h-121zM357 0v344q0 40 -18.5 59t-53.5 19q-32 0 -56 -15.5t-37 -41t-13 -59.5l-14 100q22 53 65 83.5t103 30.5q68 0 106 -40.5t38 -109.5v-370h-120zM354 597q-27 0 -46 7.5t-34 18.5t-29 19t-31 8q-18 0 -29 -11.5t-11 -35.5h-74q0 38 14 68
t40.5 47t62.5 17q28 0 46.5 -8t32 -18.5t27 -18.5t30.5 -8q19 0 30.5 11.5t11.5 35.5h73q0 -38 -14 -68t-39.5 -47t-60.5 -17z" />
    <glyph glyph-name="ograve" unicode="&#xf2;" horiz-adv-x="521" 
d="M261 -10q-71 0 -124 34t-82 94t-29 139t29.5 138t82 92t123.5 33t123.5 -33t81.5 -92t29 -138t-29 -139t-81.5 -94t-123.5 -34zM261 86q32 0 57 20t38.5 58t13.5 94q0 82 -30 124t-79 42t-79.5 -42t-30.5 -124q0 -56 14 -94t38.5 -58t57.5 -20zM243 583l-142 157h156
l87 -157h-101z" />
    <glyph glyph-name="oacute" unicode="&#xf3;" horiz-adv-x="521" 
d="M261 -10q-71 0 -124 34t-82 94t-29 139t29.5 138t82 92t123.5 33t123.5 -33t81.5 -92t29 -138t-29 -139t-81.5 -94t-123.5 -34zM261 86q32 0 57 20t38.5 58t13.5 94q0 82 -30 124t-79 42t-79.5 -42t-30.5 -124q0 -56 14 -94t38.5 -58t57.5 -20zM277 583h-101l87 157h156z
" />
    <glyph glyph-name="ocircumflex" unicode="&#xf4;" horiz-adv-x="521" 
d="M261 -10q-71 0 -124 34t-82 94t-29 139t29.5 138t82 92t123.5 33t123.5 -33t81.5 -92t29 -138t-29 -139t-81.5 -94t-123.5 -34zM261 86q32 0 57 20t38.5 58t13.5 94q0 82 -30 124t-79 42t-79.5 -42t-30.5 -124q0 -56 14 -94t38.5 -58t57.5 -20zM83 583l118 157h119
l117 -157h-94l-131 127h97l-131 -127h-95z" />
    <glyph glyph-name="otilde" unicode="&#xf5;" horiz-adv-x="521" 
d="M261 -10q-71 0 -124 34t-82 94t-29 139t29.5 138t82 92t123.5 33t123.5 -33t81.5 -92t29 -138t-29 -139t-81.5 -94t-123.5 -34zM261 86q32 0 57 20t38.5 58t13.5 94q0 82 -30 124t-79 42t-79.5 -42t-30.5 -124q0 -56 14 -94t38.5 -58t57.5 -20zM330 597q-27 0 -46 7.5
t-34 18.5t-29 19t-31 8q-18 0 -29 -11.5t-11 -35.5h-74q0 38 14 68t40.5 47t62.5 17q28 0 46.5 -8t32 -18.5t27 -18.5t30.5 -8q19 0 30.5 11.5t11.5 35.5h73q0 -38 -14 -68t-39.5 -47t-60.5 -17z" />
    <glyph glyph-name="odieresis" unicode="&#xf6;" horiz-adv-x="521" 
d="M261 -10q-71 0 -124 34t-82 94t-29 139t29.5 138t82 92t123.5 33t123.5 -33t81.5 -92t29 -138t-29 -139t-81.5 -94t-123.5 -34zM261 86q32 0 57 20t38.5 58t13.5 94q0 82 -30 124t-79 42t-79.5 -42t-30.5 -124q0 -56 14 -94t38.5 -58t57.5 -20zM303 594v132h130v-132
h-130zM88 594v132h129v-132h-129z" />
    <glyph glyph-name="divide" unicode="&#xf7;" horiz-adv-x="544" 
d="M53 326v90h438v-90h-438zM272 482q-27 0 -46 18t-19 48q0 28 18.5 46.5t47.5 18.5q25 0 45 -18.5t20 -46.5q0 -30 -20 -48t-46 -18zM272 130q-27 0 -46 18t-19 48q0 28 18.5 46.5t47.5 18.5q25 0 45 -18.5t20 -46.5q0 -30 -20 -48t-46 -18z" />
    <glyph glyph-name="oslash" unicode="&#xf8;" horiz-adv-x="521" 
d="M261 -10q-71 0 -124 34t-82 94t-29 139t29.5 138t82 92t123.5 33t123.5 -33t81.5 -92t29 -138t-29 -139t-81.5 -94t-123.5 -34zM261 80q35 0 60 20.5t39 60t14 97.5q0 85 -30.5 128.5t-82.5 43.5q-53 0 -83.5 -43.5t-30.5 -128.5q0 -58 14 -97.5t39.5 -60t60.5 -20.5z
M86 -10l-58 52l407 478l59 -52z" />
    <glyph glyph-name="ugrave" unicode="&#xf9;" horiz-adv-x="522" 
d="M194 -10q-43 0 -74.5 18.5t-49 51.5t-17.5 78v372h121v-346q0 -38 18 -57t50 -19q31 0 53.5 15.5t35.5 41.5t13 58l14 -100q-22 -52 -64 -82.5t-100 -30.5zM349 0v107h-5v403h120v-510h-115zM244 583l-142 157h156l87 -157h-101z" />
    <glyph glyph-name="uacute" unicode="&#xfa;" horiz-adv-x="522" 
d="M194 -10q-43 0 -74.5 18.5t-49 51.5t-17.5 78v372h121v-346q0 -38 18 -57t50 -19q31 0 53.5 15.5t35.5 41.5t13 58l14 -100q-22 -52 -64 -82.5t-100 -30.5zM349 0v107h-5v403h120v-510h-115zM278 583h-101l87 157h156z" />
    <glyph glyph-name="ucircumflex" unicode="&#xfb;" horiz-adv-x="522" 
d="M194 -10q-43 0 -74.5 18.5t-49 51.5t-17.5 78v372h121v-346q0 -38 18 -57t50 -19q31 0 53.5 15.5t35.5 41.5t13 58l14 -100q-22 -52 -64 -82.5t-100 -30.5zM349 0v107h-5v403h120v-510h-115zM84 583l118 157h119l117 -157h-94l-131 127h97l-131 -127h-95z" />
    <glyph glyph-name="udieresis" unicode="&#xfc;" horiz-adv-x="522" 
d="M194 -10q-43 0 -74.5 18.5t-49 51.5t-17.5 78v372h121v-346q0 -38 18 -57t50 -19q31 0 53.5 15.5t35.5 41.5t13 58l14 -100q-22 -52 -64 -82.5t-100 -30.5zM349 0v107h-5v403h120v-510h-115zM304 594v132h130v-132h-130zM89 594v132h129v-132h-129z" />
    <glyph glyph-name="yacute" unicode="&#xfd;" horiz-adv-x="472" 
d="M99 -205l103 292l21 32l116 391h123l-245 -715h-118zM190 -2l-179 512h129l136 -451zM257 583h-101l87 157h156z" />
    <glyph glyph-name="thorn" unicode="&#xfe;" 
d="M316 -10q-59 0 -99.5 31.5t-50.5 89.5l13 2v-318h-121v925h121v-317l-13 2q12 55 55 85t102 30t101 -32t65 -90t23 -139q0 -82 -24.5 -142.5t-68 -93.5t-103.5 -33zM282 89q50 0 78 42.5t28 124.5q0 83 -28 124.5t-79 41.5t-78.5 -42.5t-27.5 -125.5q0 -82 28 -123.5
t79 -41.5z" />
    <glyph glyph-name="ydieresis" unicode="&#xff;" horiz-adv-x="472" 
d="M99 -205l103 292l21 32l116 391h123l-245 -715h-118zM190 -2l-179 512h129l136 -451zM282 594v132h130v-132h-130zM67 594v132h129v-132h-129z" />
    <glyph glyph-name="Amacron" unicode="&#x100;" horiz-adv-x="600" 
d="M22 0l203 720h100l-184 -720h-119zM452 0l-184 720h107l203 -720h-126zM136 275h323v-98h-323v98zM140 838v86h319v-86h-319z" />
    <glyph glyph-name="amacron" unicode="&#x101;" horiz-adv-x="480" 
d="M324 0q-6 19 -8 42t-2 51h-5v262q0 38 -17.5 56t-52.5 18t-55 -18t-23 -51h-111q4 70 55.5 115t140.5 45q88 0 134.5 -44t46.5 -125v-258q0 -22 2.5 -45.5t9.5 -47.5h-115zM175 -10q-62 0 -100 36.5t-38 99.5q0 61 38 100.5t115 62.5l144 45v-84l-103 -30
q-39 -12 -57.5 -31.5t-18.5 -49.5q0 -28 17 -43t47 -15q38 0 64 22.5t26 55.5l11 -70q-17 -50 -54.5 -74.5t-90.5 -24.5zM83 628v86h319v-86h-319z" />
    <glyph glyph-name="Abreve" unicode="&#x102;" horiz-adv-x="600" 
d="M22 0l203 720h100l-184 -720h-119zM452 0l-184 720h107l203 -720h-126zM136 275h323v-98h-323v98zM300 786q-44 0 -80 19.5t-57.5 56.5t-21.5 88h81q0 -33 20.5 -54.5t57.5 -21.5t57 21.5t20 54.5h82q0 -51 -21.5 -87.5t-57.5 -56.5t-80 -20z" />
    <glyph glyph-name="abreve" unicode="&#x103;" horiz-adv-x="480" 
d="M324 0q-6 19 -8 42t-2 51h-5v262q0 38 -17.5 56t-52.5 18t-55 -18t-23 -51h-111q4 70 55.5 115t140.5 45q88 0 134.5 -44t46.5 -125v-258q0 -22 2.5 -45.5t9.5 -47.5h-115zM175 -10q-62 0 -100 36.5t-38 99.5q0 61 38 100.5t115 62.5l144 45v-84l-103 -30
q-39 -12 -57.5 -31.5t-18.5 -49.5q0 -28 17 -43t47 -15q38 0 64 22.5t26 55.5l11 -70q-17 -50 -54.5 -74.5t-90.5 -24.5zM243 576q-44 0 -80 19.5t-57.5 56.5t-21.5 88h81q0 -33 20.5 -54.5t57.5 -21.5t57 21.5t20 54.5h82q0 -51 -21.5 -87.5t-57.5 -56.5t-80 -20z" />
    <glyph glyph-name="Aogonek" unicode="&#x104;" horiz-adv-x="600" 
d="M22 0l203 720h100l-184 -720h-119zM452 0l-184 720h107l203 -720h-126zM136 275h323v-98h-323v98zM508 -216q-46 0 -71 23t-25 60q0 44 34.5 82t89.5 68l42 -17q-45 -36 -67 -64.5t-22 -55.5q0 -17 9 -25t21 -8q20 0 37 15l28 -56q-14 -10 -32.5 -16t-43.5 -6z" />
    <glyph glyph-name="aogonek" unicode="&#x105;" horiz-adv-x="480" 
d="M324 0q-6 19 -8 42t-2 51h-5v262q0 38 -17.5 56t-52.5 18t-55 -18t-23 -51h-111q4 70 55.5 115t140.5 45q88 0 134.5 -44t46.5 -125v-258q0 -22 2.5 -45.5t9.5 -47.5h-115zM175 -10q-62 0 -100 36.5t-38 99.5q0 61 38 100.5t115 62.5l144 45v-84l-103 -30
q-39 -12 -57.5 -31.5t-18.5 -49.5q0 -28 17 -43t47 -15q38 0 64 22.5t26 55.5l11 -70q-17 -50 -54.5 -74.5t-90.5 -24.5zM369 -216q-46 0 -71 23t-25 60q0 44 34.5 82t89.5 68l42 -17q-45 -36 -67 -64.5t-22 -55.5q0 -17 9 -25t21 -8q20 0 37 15l28 -56q-14 -10 -32.5 -16
t-43.5 -6z" />
    <glyph glyph-name="Cacute" unicode="&#x106;" horiz-adv-x="613" 
d="M320 -10q-65 0 -117.5 26t-90 74.5t-57.5 117t-20 153.5q0 86 20 154t57.5 116t90.5 73.5t117 25.5q75 0 132 -34t91 -97t38 -150h-121q-6 89 -43.5 134.5t-96.5 45.5q-49 0 -85 -29.5t-55 -88.5t-19 -148t19.5 -150t55.5 -91.5t84 -30.5q58 0 95.5 46t43.5 134h123
q-6 -86 -40 -149.5t-91 -97.5t-131 -34zM335 793h-101l87 157h156z" />
    <glyph glyph-name="cacute" unicode="&#x107;" horiz-adv-x="477" 
d="M248 -10q-65 0 -115 32.5t-78.5 92.5t-28.5 141t29 140.5t79.5 91.5t115.5 32q56 0 100.5 -23.5t71.5 -67.5t31 -107h-112q-5 52 -28.5 77t-60.5 25q-30 0 -53.5 -18t-36 -55t-12.5 -95q0 -57 12.5 -95t35.5 -56.5t54 -18.5q36 0 60 25.5t29 76.5h112q-4 -62 -32 -106
t-73 -68t-100 -24zM268 583h-101l87 157h156z" />
    <glyph glyph-name="Cdotaccent" unicode="&#x10a;" horiz-adv-x="613" 
d="M320 -10q-65 0 -117.5 26t-90 74.5t-57.5 117t-20 153.5q0 86 20 154t57.5 116t90.5 73.5t117 25.5q75 0 132 -34t91 -97t38 -150h-121q-6 89 -43.5 134.5t-96.5 45.5q-49 0 -85 -29.5t-55 -88.5t-19 -148t19.5 -150t55.5 -91.5t84 -30.5q58 0 95.5 46t43.5 134h123
q-6 -86 -40 -149.5t-91 -97.5t-131 -34zM253 804v132h130v-132h-130z" />
    <glyph glyph-name="cdotaccent" unicode="&#x10b;" horiz-adv-x="477" 
d="M248 -10q-65 0 -115 32.5t-78.5 92.5t-28.5 141t29 140.5t79.5 91.5t115.5 32q56 0 100.5 -23.5t71.5 -67.5t31 -107h-112q-5 52 -28.5 77t-60.5 25q-30 0 -53.5 -18t-36 -55t-12.5 -95q0 -57 12.5 -95t35.5 -56.5t54 -18.5q36 0 60 25.5t29 76.5h112q-4 -62 -32 -106
t-73 -68t-100 -24zM186 594v132h130v-132h-130z" />
    <glyph glyph-name="Ccaron" unicode="&#x10c;" horiz-adv-x="613" 
d="M320 -10q-65 0 -117.5 26t-90 74.5t-57.5 117t-20 153.5q0 86 20 154t57.5 116t90.5 73.5t117 25.5q75 0 132 -34t91 -97t38 -150h-121q-6 89 -43.5 134.5t-96.5 45.5q-49 0 -85 -29.5t-55 -88.5t-19 -148t19.5 -150t55.5 -91.5t84 -30.5q58 0 95.5 46t43.5 134h123
q-6 -86 -40 -149.5t-91 -97.5t-131 -34zM259 793l-118 157h95l131 -127h-97l131 127h94l-117 -157h-119z" />
    <glyph glyph-name="ccaron" unicode="&#x10d;" horiz-adv-x="477" 
d="M248 -10q-65 0 -115 32.5t-78.5 92.5t-28.5 141t29 140.5t79.5 91.5t115.5 32q56 0 100.5 -23.5t71.5 -67.5t31 -107h-112q-5 52 -28.5 77t-60.5 25q-30 0 -53.5 -18t-36 -55t-12.5 -95q0 -57 12.5 -95t35.5 -56.5t54 -18.5q36 0 60 25.5t29 76.5h112q-4 -62 -32 -106
t-73 -68t-100 -24zM192 583l-118 157h95l131 -127h-97l131 127h94l-117 -157h-119z" />
    <glyph glyph-name="Dcaron" unicode="&#x10e;" horiz-adv-x="632" 
d="M133 0v99h142q64 0 108 30.5t66.5 90t22.5 144.5q0 84 -22.5 141t-66 86.5t-108.5 29.5h-138v99h138q98 0 171 -42t112.5 -122.5t39.5 -193.5t-40 -194.5t-112.5 -124.5t-169.5 -43h-143zM59 0v720h124v-720h-124zM258 793l-118 157h95l131 -127h-97l131 127h94
l-117 -157h-119z" />
    <glyph glyph-name="dcaron" unicode="&#x10f;" horiz-adv-x="625" 
d="M367 0v107l9 -2q-12 -54 -54.5 -84.5t-100.5 -30.5q-59 0 -102 32t-66 90t-23 139q0 82 24 142.5t68.5 93.5t103.5 33q58 0 99.5 -31.5t50.5 -89.5l-13 -2v323h120v-720h-116zM261 88q49 0 77.5 42.5t28.5 125.5q0 82 -28.5 123.5t-78.5 41.5q-49 0 -77.5 -42.5
t-28.5 -124.5t28.5 -124t78.5 -42zM613 490h-78v230h104z" />
    <glyph glyph-name="Dcroat" unicode="&#x110;" horiz-adv-x="641" 
d="M7 313v97h326v-97h-326zM143 0v99h141q65 0 109 30.5t66.5 90t22.5 144.5q0 84 -22.5 141t-66.5 86.5t-109 29.5h-137v99h137q99 0 171.5 -42t112 -122.5t39.5 -193.5t-40 -194.5t-112 -124.5t-170 -43h-142zM69 0v720h124v-720h-124z" />
    <glyph glyph-name="dcroat" unicode="&#x111;" 
d="M212 584v81h330v-81h-330zM367 0v107l9 -2q-12 -54 -54.5 -84.5t-100.5 -30.5q-59 0 -102 32t-66 90t-23 139q0 82 24 142.5t68.5 93.5t103.5 33q58 0 99.5 -31.5t50.5 -89.5l-13 -2v323h120v-720h-116zM261 88q49 0 77.5 42.5t28.5 125.5q0 82 -28.5 123.5t-78.5 41.5
q-49 0 -77.5 -42.5t-28.5 -124.5t28.5 -124t78.5 -42z" />
    <glyph glyph-name="Emacron" unicode="&#x112;" horiz-adv-x="520" 
d="M59 0v720h124v-720h-124zM121 0v98h353v-98h-353zM121 323v97h326v-97h-326zM121 622v98h344v-98h-344zM111 838v86h319v-86h-319z" />
    <glyph glyph-name="emacron" unicode="&#x113;" horiz-adv-x="496" 
d="M256 -10q-69 0 -121 33.5t-80.5 93t-28.5 139.5t29 139.5t81.5 92t122.5 32.5q66 0 113 -30.5t72.5 -87t25.5 -136.5q0 -12 -0.5 -23t-2.5 -21h-366v84h283l-27 -30q0 79 -26 116t-74 37q-52 0 -81 -43.5t-29 -130.5t28.5 -130.5t82.5 -43.5q36 0 59 18.5t32 54.5h111
q-18 -74 -70 -119t-134 -45zM99 628v86h319v-86h-319z" />
    <glyph glyph-name="Edotaccent" unicode="&#x116;" horiz-adv-x="520" 
d="M59 0v720h124v-720h-124zM121 0v98h353v-98h-353zM121 323v97h326v-97h-326zM121 622v98h344v-98h-344zM206 804v132h130v-132h-130z" />
    <glyph glyph-name="edotaccent" unicode="&#x117;" horiz-adv-x="496" 
d="M256 -10q-69 0 -121 33.5t-80.5 93t-28.5 139.5t29 139.5t81.5 92t122.5 32.5q66 0 113 -30.5t72.5 -87t25.5 -136.5q0 -12 -0.5 -23t-2.5 -21h-366v84h283l-27 -30q0 79 -26 116t-74 37q-52 0 -81 -43.5t-29 -130.5t28.5 -130.5t82.5 -43.5q36 0 59 18.5t32 54.5h111
q-18 -74 -70 -119t-134 -45zM194 594v132h130v-132h-130z" />
    <glyph glyph-name="Eogonek" unicode="&#x118;" horiz-adv-x="520" 
d="M59 0v720h124v-720h-124zM121 0v98h353v-98h-353zM121 323v97h326v-97h-326zM121 622v98h344v-98h-344zM366 -216q-46 0 -71 23t-25 60q0 44 34.5 82t89.5 68l42 -17q-45 -36 -67 -64.5t-22 -55.5q0 -17 9 -25t21 -8q20 0 37 15l28 -56q-14 -10 -32.5 -16t-43.5 -6z" />
    <glyph glyph-name="eogonek" unicode="&#x119;" horiz-adv-x="496" 
d="M256 -10q-69 0 -121 33.5t-80.5 93t-28.5 139.5t29 139.5t81.5 92t122.5 32.5q66 0 113 -30.5t72.5 -87t25.5 -136.5q0 -12 -0.5 -23t-2.5 -21h-366v84h283l-27 -30q0 79 -26 116t-74 37q-52 0 -81 -43.5t-29 -130.5t28.5 -130.5t82.5 -43.5q36 0 59 18.5t32 54.5h111
q-18 -74 -70 -119t-134 -45zM299 -196q-46 0 -71 23t-25 60q0 44 34.5 82t89.5 68l42 -17q-45 -36 -67 -64.5t-22 -55.5q0 -17 9 -25t21 -8q20 0 37 15l28 -56q-14 -10 -32.5 -16t-43.5 -6z" />
    <glyph glyph-name="Ecaron" unicode="&#x11a;" horiz-adv-x="520" 
d="M59 0v720h124v-720h-124zM121 0v98h353v-98h-353zM121 323v97h326v-97h-326zM121 622v98h344v-98h-344zM212 793l-118 157h95l131 -127h-97l131 127h94l-117 -157h-119z" />
    <glyph glyph-name="ecaron" unicode="&#x11b;" horiz-adv-x="496" 
d="M256 -10q-69 0 -121 33.5t-80.5 93t-28.5 139.5t29 139.5t81.5 92t122.5 32.5q66 0 113 -30.5t72.5 -87t25.5 -136.5q0 -12 -0.5 -23t-2.5 -21h-366v84h283l-27 -30q0 79 -26 116t-74 37q-52 0 -81 -43.5t-29 -130.5t28.5 -130.5t82.5 -43.5q36 0 59 18.5t32 54.5h111
q-18 -74 -70 -119t-134 -45zM200 583l-118 157h95l131 -127h-97l131 127h94l-117 -157h-119z" />
    <glyph glyph-name="Gbreve" unicode="&#x11e;" horiz-adv-x="628" 
d="M336 -10q-96 0 -163.5 42.5t-102.5 124t-35 197.5q0 117 35.5 201t100.5 129.5t154 45.5q74 0 129.5 -31t88.5 -87t37 -133h-124q-4 74 -39 112t-92 38q-52 0 -88.5 -31t-56 -91t-19.5 -149q0 -91 20 -150.5t61 -88.5t102 -29q39 0 68.5 10.5t48.5 31.5l121 -40
q-42 -49 -104 -75.5t-142 -26.5zM458 91v231l31 -31h-158v98h251v-297zM325 786q-44 0 -80 19.5t-57.5 56.5t-21.5 88h81q0 -33 20.5 -54.5t57.5 -21.5t57 21.5t20 54.5h82q0 -51 -21.5 -87.5t-57.5 -56.5t-80 -20z" />
    <glyph glyph-name="gbreve" unicode="&#x11f;" 
d="M260 -215q-90 0 -146 44t-64 118h113q5 -28 30 -43.5t65 -15.5q52 0 78.5 26.5t26.5 78.5v129l8 -1q-9 -53 -50 -84.5t-100 -31.5q-58 0 -101 31.5t-66.5 88.5t-23.5 135q0 79 24.5 137.5t69.5 90.5t106 32t99.5 -32t46.5 -89h-7v111h114v-505q0 -104 -59 -162t-164 -58z
M261 102q49 0 77.5 41.5t28.5 120.5q0 78 -28.5 118.5t-78.5 40.5q-49 0 -77.5 -41.5t-28.5 -120.5q0 -78 28.5 -118.5t78.5 -40.5zM260 576q-44 0 -80 19.5t-57.5 56.5t-21.5 88h81q0 -33 20.5 -54.5t57.5 -21.5t57 21.5t20 54.5h82q0 -51 -21.5 -87.5t-57.5 -56.5t-80 -20
z" />
    <glyph glyph-name="Gdotaccent" unicode="&#x120;" horiz-adv-x="628" 
d="M336 -10q-96 0 -163.5 42.5t-102.5 124t-35 197.5q0 117 35.5 201t100.5 129.5t154 45.5q74 0 129.5 -31t88.5 -87t37 -133h-124q-4 74 -39 112t-92 38q-52 0 -88.5 -31t-56 -91t-19.5 -149q0 -91 20 -150.5t61 -88.5t102 -29q39 0 68.5 10.5t48.5 31.5l121 -40
q-42 -49 -104 -75.5t-142 -26.5zM458 91v231l31 -31h-158v98h251v-297zM259 804v132h130v-132h-130z" />
    <glyph glyph-name="gdotaccent" unicode="&#x121;" 
d="M260 -215q-90 0 -146 44t-64 118h113q5 -28 30 -43.5t65 -15.5q52 0 78.5 26.5t26.5 78.5v129l8 -1q-9 -53 -50 -84.5t-100 -31.5q-58 0 -101 31.5t-66.5 88.5t-23.5 135q0 79 24.5 137.5t69.5 90.5t106 32t99.5 -32t46.5 -89h-7v111h114v-505q0 -104 -59 -162t-164 -58z
M261 102q49 0 77.5 41.5t28.5 120.5q0 78 -28.5 118.5t-78.5 40.5q-49 0 -77.5 -41.5t-28.5 -120.5q0 -78 28.5 -118.5t78.5 -40.5zM195 594v132h130v-132h-130z" />
    <glyph glyph-name="uni0122" unicode="&#x122;" horiz-adv-x="628" 
d="M336 -10q-96 0 -163.5 42.5t-102.5 124t-35 197.5q0 117 35.5 201t100.5 129.5t154 45.5q74 0 129.5 -31t88.5 -87t37 -133h-124q-4 74 -39 112t-92 38q-52 0 -88.5 -31t-56 -91t-19.5 -149q0 -91 20 -150.5t61 -88.5t102 -29q39 0 68.5 10.5t48.5 31.5l121 -40
q-42 -49 -104 -75.5t-142 -26.5zM458 91v231l31 -31h-158v98h251v-297zM259 -324v56q33 5 49.5 24.5t16.5 54.5l44 -9h-110v125h131v-97q0 -63 -34.5 -104t-96.5 -50z" />
    <glyph glyph-name="uni0123" unicode="&#x123;" 
d="M260 -215q-90 0 -146 44t-64 118h113q5 -28 30 -43.5t65 -15.5q52 0 78.5 26.5t26.5 78.5v129l8 -1q-9 -53 -50 -84.5t-100 -31.5q-58 0 -101 31.5t-66.5 88.5t-23.5 135q0 79 24.5 137.5t69.5 90.5t106 32t99.5 -32t46.5 -89h-7v111h114v-505q0 -104 -59 -162t-164 -58z
M261 102q49 0 77.5 41.5t28.5 120.5q0 78 -28.5 118.5t-78.5 40.5q-49 0 -77.5 -41.5t-28.5 -120.5q0 -78 28.5 -118.5t78.5 -40.5zM195 583v97q0 63 34.5 104t96.5 50v-56q-33 -5 -49.5 -24.5t-16.5 -55.5l-44 9h110v-124h-131z" />
    <glyph glyph-name="Hbar" unicode="&#x126;" horiz-adv-x="630" 
d="M7 531v97h617v-97h-617zM68 0v720h124v-720h-124zM439 0v720h124v-720h-124zM130 424h366v-98h-366v98z" />
    <glyph glyph-name="hbar" unicode="&#x127;" horiz-adv-x="531" 
d="M0 584v81h330v-81h-330zM58 0v720h121v-720h-121zM357 0v344q0 40 -18.5 59t-53.5 19q-32 0 -56.5 -15.5t-37 -41.5t-12.5 -59l-14 100q22 53 65 83.5t103 30.5q68 0 106 -40.5t38 -109.5v-370h-120z" />
    <glyph glyph-name="Imacron" unicode="&#x12a;" horiz-adv-x="242" 
d="M59 0v720h124v-720h-124zM-39 838v86h319v-86h-319z" />
    <glyph glyph-name="imacron" unicode="&#x12b;" horiz-adv-x="237" 
d="M58 0v510h121v-510h-121zM-41 628v86h319v-86h-319z" />
    <glyph glyph-name="Iogonek" unicode="&#x12e;" horiz-adv-x="242" 
d="M59 0v720h124v-720h-124zM103 -216q-46 0 -71 23t-25 60q0 44 34.5 82t89.5 68l42 -17q-45 -36 -67 -64.5t-22 -55.5q0 -17 9 -25t21 -8q20 0 37 15l28 -56q-14 -10 -32.5 -16t-43.5 -6z" />
    <glyph glyph-name="iogonek" unicode="&#x12f;" horiz-adv-x="237" 
d="M58 0v510h121v-510h-121zM53 594v132h130v-132h-130zM108 -216q-46 0 -71 23t-25 60q0 44 34.5 82t89.5 68l42 -17q-45 -36 -67 -64.5t-22 -55.5q0 -17 9 -25t21 -8q20 0 37 15l28 -56q-14 -10 -32.5 -16t-43.5 -6z" />
    <glyph glyph-name="Idotaccent" unicode="&#x130;" horiz-adv-x="242" 
d="M59 0v720h124v-720h-124zM56 804v132h130v-132h-130z" />
    <glyph glyph-name="dotlessi" unicode="&#x131;" horiz-adv-x="237" 
d="M58 0v510h121v-510h-121z" />
    <glyph glyph-name="IJ" unicode="&#x132;" horiz-adv-x="605" 
d="M59 0v720h124v-720h-124zM353 -10q-32 0 -59 4.5t-40 11.5v98q14 -6 35 -10t42 -4q47 0 71 18t24 60v552h124v-563q0 -86 -52.5 -126.5t-144.5 -40.5z" />
    <glyph glyph-name="ij" unicode="&#x133;" horiz-adv-x="470" 
d="M58 0v510h121v-510h-121zM53 594v132h130v-132h-130zM262 -215q-17 0 -30 2t-24 5v93q6 -2 14.5 -3t18.5 -1q25 0 37.5 11t12.5 34v584h121v-589q0 -64 -37 -100t-113 -36zM286 594v132h130v-132h-130z" />
    <glyph glyph-name="uni0136" unicode="&#x136;" horiz-adv-x="597" 
d="M59 0v720h124v-720h-124zM159 374l254 346h148l-265 -346h-137zM427 0l-271 374h140l285 -374h-154zM242 -324v56q33 5 49.5 24.5t16.5 54.5l44 -9h-110v125h131v-97q0 -63 -34.5 -104t-96.5 -50z" />
    <glyph glyph-name="uni0137" unicode="&#x137;" horiz-adv-x="489" 
d="M58 0v723h121v-723h-121zM341 0l-182 265l176 245h135l-205 -267l4 46l211 -289h-139zM189 -324v56q33 5 49.5 24.5t16.5 54.5l44 -9h-110v125h131v-97q0 -63 -34.5 -104t-96.5 -50z" />
    <glyph glyph-name="Lacute" unicode="&#x139;" horiz-adv-x="483" 
d="M59 0v720h124v-720h-124zM121 0v98h323v-98h-323zM137 793h-101l87 157h156z" />
    <glyph glyph-name="lacute" unicode="&#x13a;" horiz-adv-x="237" 
d="M58 0v720h121v-720h-121zM135 793h-101l87 157h156z" />
    <glyph glyph-name="uni013B" unicode="&#x13b;" horiz-adv-x="483" 
d="M59 0v720h124v-720h-124zM121 0v98h323v-98h-323zM196 -324v56q33 5 49.5 24.5t16.5 54.5l44 -9h-110v125h131v-97q0 -63 -34.5 -104t-96.5 -50z" />
    <glyph glyph-name="uni013C" unicode="&#x13c;" horiz-adv-x="237" 
d="M58 0v720h121v-720h-121zM53 -324v56q33 5 49.5 24.5t16.5 54.5l44 -9h-110v125h131v-97q0 -63 -34.5 -104t-96.5 -50z" />
    <glyph glyph-name="Lcaron" unicode="&#x13d;" horiz-adv-x="483" 
d="M59 0v720h124v-720h-124zM121 0v98h323v-98h-323zM394 490h-78v230h104z" />
    <glyph glyph-name="lcaron" unicode="&#x13e;" horiz-adv-x="320" 
d="M58 0v720h121v-720h-121zM308 490h-78v230h104z" />
    <glyph glyph-name="Lslash" unicode="&#x141;" horiz-adv-x="489" 
d="M138 330l-138 -62v92l138 61v-91zM141 429l173 79v-92l-172 -78zM66 0v720h124v-720h-124zM128 0v98h323v-98h-323z" />
    <glyph glyph-name="lslash" unicode="&#x142;" horiz-adv-x="267" 
d="M138 337l-132 -59v84l132 58v-83zM138 428l123 56v-84l-123 -55v83zM73 0v720h121v-720h-121z" />
    <glyph glyph-name="Nacute" unicode="&#x143;" horiz-adv-x="616" 
d="M59 0v720h151l261 -619l-31 -5v624h117v-720h-151l-261 619l31 5v-624h-117zM325 793h-101l87 157h156z" />
    <glyph glyph-name="nacute" unicode="&#x144;" horiz-adv-x="531" 
d="M58 0v510h116v-108h5v-402h-121zM357 0v344q0 40 -18.5 59t-53.5 19q-32 0 -56 -15.5t-37 -41t-13 -59.5l-14 100q22 53 65 83.5t103 30.5q68 0 106 -40.5t38 -109.5v-370h-120zM301 583h-101l87 157h156z" />
    <glyph glyph-name="uni0145" unicode="&#x145;" horiz-adv-x="616" 
d="M59 0v720h151l261 -619l-31 -5v624h117v-720h-151l-261 619l31 5v-624h-117zM242 -324v56q33 5 49.5 24.5t16.5 54.5l44 -9h-110v125h131v-97q0 -63 -34.5 -104t-96.5 -50z" />
    <glyph glyph-name="uni0146" unicode="&#x146;" horiz-adv-x="531" 
d="M58 0v510h116v-108h5v-402h-121zM357 0v344q0 40 -18.5 59t-53.5 19q-32 0 -56 -15.5t-37 -41t-13 -59.5l-14 100q22 53 65 83.5t103 30.5q68 0 106 -40.5t38 -109.5v-370h-120zM206 -324v56q33 5 49.5 24.5t16.5 54.5l44 -9h-110v125h131v-97q0 -63 -34.5 -104
t-96.5 -50z" />
    <glyph glyph-name="Ncaron" unicode="&#x147;" horiz-adv-x="616" 
d="M59 0v720h151l261 -619l-31 -5v624h117v-720h-151l-261 619l31 5v-624h-117zM249 793l-118 157h95l131 -127h-97l131 127h94l-117 -157h-119z" />
    <glyph glyph-name="ncaron" unicode="&#x148;" horiz-adv-x="531" 
d="M58 0v510h116v-108h5v-402h-121zM357 0v344q0 40 -18.5 59t-53.5 19q-32 0 -56 -15.5t-37 -41t-13 -59.5l-14 100q22 53 65 83.5t103 30.5q68 0 106 -40.5t38 -109.5v-370h-120zM225 583l-118 157h95l131 -127h-97l131 127h94l-117 -157h-119z" />
    <glyph glyph-name="Eng" unicode="&#x14a;" horiz-adv-x="613" 
d="M58 0v720h150l283 -578l-53 5v573h117v-720h-118l-290 605l28 6v-611h-117zM395 -215q-24 0 -41 2.5t-30 6.5v98q9 -3 21.5 -5t26.5 -2q32 0 47 13.5t15 43.5v92h121v-100q0 -70 -38.5 -109.5t-121.5 -39.5z" />
    <glyph glyph-name="eng" unicode="&#x14b;" horiz-adv-x="531" 
d="M328 -215q-18 0 -31 2t-24 5v93q6 -2 15 -3t19 -1q25 0 37.5 11t12.5 34v418q0 40 -18.5 59t-53.5 19q-32 0 -56 -15.5t-37 -41t-13 -59.5l-14 100q22 53 65 83.5t103 30.5q68 0 106 -40.5t38 -109.5v-449q0 -64 -36.5 -100t-112.5 -36zM58 0v510h116v-108h5v-402h-121z
" />
    <glyph glyph-name="Omacron" unicode="&#x14c;" horiz-adv-x="654" 
d="M327 -10q-66 0 -120 26t-92.5 74.5t-59 117.5t-20.5 155q0 114 36 196t101.5 126.5t153.5 44.5q90 0 155.5 -44.5t101.5 -126.5t36 -197q0 -86 -21 -155t-59 -117t-92 -74t-120 -26zM326 91q52 0 89 32t57.5 93t20.5 148q0 86 -20 145t-57.5 89.5t-89.5 30.5
q-51 0 -88.5 -30.5t-57 -89.5t-19.5 -145q0 -87 20 -148t57 -93t88 -32zM167 838v86h319v-86h-319z" />
    <glyph glyph-name="omacron" unicode="&#x14d;" horiz-adv-x="521" 
d="M261 -10q-71 0 -124 34t-82 94t-29 139t29.5 138t82 92t123.5 33t123.5 -33t81.5 -92t29 -138t-29 -139t-81.5 -94t-123.5 -34zM261 86q32 0 57 20t38.5 58t13.5 94q0 82 -30 124t-79 42t-79.5 -42t-30.5 -124q0 -56 14 -94t38.5 -58t57.5 -20zM101 628v86h319v-86h-319z
" />
    <glyph glyph-name="Ohungarumlaut" unicode="&#x150;" horiz-adv-x="654" 
d="M327 -10q-66 0 -120 26t-92.5 74.5t-59 117.5t-20.5 155q0 114 36 196t101.5 126.5t153.5 44.5q90 0 155.5 -44.5t101.5 -126.5t36 -197q0 -86 -21 -155t-59 -117t-92 -74t-120 -26zM326 91q52 0 89 32t57.5 93t20.5 148q0 86 -20 145t-57.5 89.5t-89.5 30.5
q-51 0 -88.5 -30.5t-57 -89.5t-19.5 -145q0 -87 20 -148t57 -93t88 -32zM263 793h-89l49 157h131zM455 793h-89l49 157h131z" />
    <glyph glyph-name="ohungarumlaut" unicode="&#x151;" horiz-adv-x="521" 
d="M261 -10q-71 0 -124 34t-82 94t-29 139t29.5 138t82 92t123.5 33t123.5 -33t81.5 -92t29 -138t-29 -139t-81.5 -94t-123.5 -34zM261 86q32 0 57 20t38.5 58t13.5 94q0 82 -30 124t-79 42t-79.5 -42t-30.5 -124q0 -56 14 -94t38.5 -58t57.5 -20zM196 583h-89l49 157h131z
M388 583h-89l49 157h131z" />
    <glyph glyph-name="OE" unicode="&#x152;" horiz-adv-x="879" 
d="M348 -10q-96 0 -166.5 44.5t-108.5 127.5t-38 199q0 115 38 197.5t108.5 127t166.5 44.5q43 0 75.5 -6.5t61.5 -20.5l-24 -97q-20 11 -47.5 17t-63.5 6q-63 0 -105.5 -30.5t-63 -90t-20.5 -147.5t20.5 -148.5t63 -91t105.5 -30.5q36 0 63.5 6t47.5 17l24 -97
q-29 -14 -61.5 -20.5t-75.5 -6.5zM439 0v720h385v-98h-261v-202h243v-97h-243v-225h270v-98h-394z" />
    <glyph glyph-name="oe" unicode="&#x153;" horiz-adv-x="803" 
d="M251 -10q-66 0 -116.5 34t-79.5 94t-29 139t29 138t79.5 92t116.5 33t113.5 -33t73 -92t25.5 -138t-25.5 -139t-73 -94t-113.5 -34zM251 86q29 0 51.5 20t35 58t12.5 94q0 55 -12 91.5t-34 55.5t-53 19q-30 0 -52.5 -19t-35 -55.5t-12.5 -91.5q0 -56 12.5 -94t35.5 -58
t52 -20zM572 -10q-64 0 -111.5 33.5t-73.5 93t-26 139.5t26.5 139.5t74.5 92t113 32.5q61 0 106 -30.5t70 -87t25 -136.5q0 -12 -0.5 -23t-2.5 -21h-346v84h263l-25 -30q0 79 -24 116t-66 37q-31 0 -54 -19.5t-35 -58t-12 -96.5t12 -96.5t34.5 -58t53.5 -19.5q28 0 50 18.5
t30 54.5h112q-18 -74 -68 -119t-126 -45z" />
    <glyph glyph-name="Racute" unicode="&#x154;" horiz-adv-x="556" 
d="M58 0v720h232q69 0 119.5 -26.5t78.5 -73t28 -108.5t-27.5 -108.5t-78.5 -73t-120 -26.5h-137v94h132q53 0 82 30.5t29 82.5t-29 81.5t-82 29.5h-103v-622h-124zM393 0l-243 371h130l268 -371h-155zM295 793h-101l87 157h156z" />
    <glyph glyph-name="racute" unicode="&#x155;" horiz-adv-x="343" 
d="M58 0v510h116v-121h5v-389h-121zM179 285l-15 102q18 68 53.5 100.5t85.5 32.5q16 0 25 -3v-117q-4 2 -11.5 2.5t-18.5 0.5q-58 0 -88.5 -28.5t-30.5 -89.5zM206 583h-101l87 157h156z" />
    <glyph glyph-name="uni0156" unicode="&#x156;" horiz-adv-x="556" 
d="M58 0v720h232q69 0 119.5 -26.5t78.5 -73t28 -108.5t-27.5 -108.5t-78.5 -73t-120 -26.5h-137v94h132q53 0 82 30.5t29 82.5t-29 81.5t-82 29.5h-103v-622h-124zM393 0l-243 371h130l268 -371h-155zM212 -324v56q33 5 49.5 24.5t16.5 54.5l44 -9h-110v125h131v-97
q0 -63 -34.5 -104t-96.5 -50z" />
    <glyph glyph-name="uni0157" unicode="&#x157;" horiz-adv-x="343" 
d="M58 0v510h116v-121h5v-389h-121zM179 285l-15 102q18 68 53.5 100.5t85.5 32.5q16 0 25 -3v-117q-4 2 -11.5 2.5t-18.5 0.5q-58 0 -88.5 -28.5t-30.5 -89.5zM50 -324v56q33 5 49.5 24.5t16.5 54.5l44 -9h-110v125h131v-97q0 -63 -34.5 -104t-96.5 -50z" />
    <glyph glyph-name="Rcaron" unicode="&#x158;" horiz-adv-x="556" 
d="M58 0v720h232q69 0 119.5 -26.5t78.5 -73t28 -108.5t-27.5 -108.5t-78.5 -73t-120 -26.5h-137v94h132q53 0 82 30.5t29 82.5t-29 81.5t-82 29.5h-103v-622h-124zM393 0l-243 371h130l268 -371h-155zM219 793l-118 157h95l131 -127h-97l131 127h94l-117 -157h-119z" />
    <glyph glyph-name="rcaron" unicode="&#x159;" horiz-adv-x="343" 
d="M58 0v510h116v-121h5v-389h-121zM179 285l-15 102q18 68 53.5 100.5t85.5 32.5q16 0 25 -3v-117q-4 2 -11.5 2.5t-18.5 0.5q-58 0 -88.5 -28.5t-30.5 -89.5zM130 583l-118 157h95l131 -127h-97l131 127h94l-117 -157h-119z" />
    <glyph glyph-name="Sacute" unicode="&#x15a;" horiz-adv-x="535" 
d="M282 -9q-116 0 -181.5 63t-72.5 176h118q4 -68 41.5 -105t99.5 -37q49 0 76 22.5t27 63.5q0 37 -19 64t-63 49l-104 51q-76 36 -111.5 85.5t-35.5 115.5q0 59 26.5 102t75.5 66.5t116 23.5q103 0 161.5 -57t63.5 -160h-117q-5 62 -34 91t-79 29q-44 0 -69.5 -21
t-25.5 -60q0 -33 18.5 -58.5t63.5 -47.5l105 -52q77 -37 111.5 -88.5t34.5 -118.5q0 -94 -60 -145.5t-166 -51.5zM294 793h-101l87 157h156z" />
    <glyph glyph-name="sacute" unicode="&#x15b;" horiz-adv-x="421" 
d="M221 -10q-89 0 -141 44t-57 124h105q4 -40 28.5 -60.5t65.5 -20.5q36 0 54.5 14t18.5 41q0 20 -12 35t-47 30l-70 28q-61 23 -92 59.5t-31 89.5q0 67 46.5 106.5t125.5 39.5q80 0 127.5 -40t52.5 -112h-104q-4 33 -23 49t-53 16q-31 0 -48 -13t-17 -37q0 -20 13.5 -34.5
t47.5 -28.5l75 -31q56 -20 86 -60t30 -93q0 -68 -48 -107t-133 -39zM228 583h-101l87 157h156z" />
    <glyph glyph-name="Scedilla" unicode="&#x15e;" horiz-adv-x="535" 
d="M282 -9q-116 0 -181.5 63t-72.5 176h118q4 -68 41.5 -105t99.5 -37q49 0 76 22.5t27 63.5q0 37 -19 64t-63 49l-104 51q-76 36 -111.5 85.5t-35.5 115.5q0 59 26.5 102t75.5 66.5t116 23.5q103 0 161.5 -57t63.5 -160h-117q-5 62 -34 91t-79 29q-44 0 -69.5 -21
t-25.5 -60q0 -33 18.5 -58.5t63.5 -47.5l105 -52q77 -37 111.5 -88.5t34.5 -118.5q0 -94 -60 -145.5t-166 -51.5zM272 -215q-52 0 -83 24.5t-33 66.5h74q2 -15 14 -22.5t29 -7.5q15 0 25 7t10 20q0 17 -18 27t-63 13l21 99h68l-11 -50q40 -10 60 -33.5t20 -55.5
q0 -40 -30.5 -64t-82.5 -24z" />
    <glyph glyph-name="scedilla" unicode="&#x15f;" horiz-adv-x="421" 
d="M221 -10q-89 0 -141 44t-57 124h105q4 -40 28.5 -60.5t65.5 -20.5q36 0 54.5 14t18.5 41q0 20 -12 35t-47 30l-70 28q-61 23 -92 59.5t-31 89.5q0 67 46.5 106.5t125.5 39.5q80 0 127.5 -40t52.5 -112h-104q-4 33 -23 49t-53 16q-31 0 -48 -13t-17 -37q0 -20 13.5 -34.5
t47.5 -28.5l75 -31q56 -20 86 -60t30 -93q0 -68 -48 -107t-133 -39zM213 -215q-52 0 -83 24.5t-33 66.5h74q2 -15 14 -22.5t29 -7.5q15 0 25 7t10 20q0 17 -18 27t-63 13l21 99h68l-11 -50q40 -10 60 -33.5t20 -55.5q0 -40 -30.5 -64t-82.5 -24z" />
    <glyph glyph-name="Scaron" unicode="&#x160;" horiz-adv-x="535" 
d="M282 -9q-116 0 -181.5 63t-72.5 176h118q4 -68 41.5 -105t99.5 -37q49 0 76 22.5t27 63.5q0 37 -19 64t-63 49l-104 51q-76 36 -111.5 85.5t-35.5 115.5q0 59 26.5 102t75.5 66.5t116 23.5q103 0 161.5 -57t63.5 -160h-117q-5 62 -34 91t-79 29q-44 0 -69.5 -21
t-25.5 -60q0 -33 18.5 -58.5t63.5 -47.5l105 -52q77 -37 111.5 -88.5t34.5 -118.5q0 -94 -60 -145.5t-166 -51.5zM218 793l-118 157h95l131 -127h-97l131 127h94l-117 -157h-119z" />
    <glyph glyph-name="scaron" unicode="&#x161;" horiz-adv-x="421" 
d="M221 -10q-89 0 -141 44t-57 124h105q4 -40 28.5 -60.5t65.5 -20.5q36 0 54.5 14t18.5 41q0 20 -12 35t-47 30l-70 28q-61 23 -92 59.5t-31 89.5q0 67 46.5 106.5t125.5 39.5q80 0 127.5 -40t52.5 -112h-104q-4 33 -23 49t-53 16q-31 0 -48 -13t-17 -37q0 -20 13.5 -34.5
t47.5 -28.5l75 -31q56 -20 86 -60t30 -93q0 -68 -48 -107t-133 -39zM152 583l-118 157h95l131 -127h-97l131 127h94l-117 -157h-119z" />
    <glyph glyph-name="Tcaron" unicode="&#x164;" horiz-adv-x="540" 
d="M208 0v622h-188v98h499v-98h-187v-622h-124zM211 793l-118 157h95l131 -127h-97l131 127h94l-117 -157h-119z" />
    <glyph glyph-name="tcaron" unicode="&#x165;" horiz-adv-x="350" 
d="M256 -10q-82 0 -122 39.5t-40 117.5v468l121 49v-518q0 -30 16.5 -45t52.5 -15q14 0 25 2.5t20 6.5v-93q-11 -6 -30.5 -9t-42.5 -3zM13 415v95h315v-95h-315zM358 550h-78v230h104z" />
    <glyph glyph-name="Umacron" unicode="&#x16a;" horiz-adv-x="593" 
d="M296 -10q-119 0 -181 69.5t-62 194.5v466h124v-488q0 -71 31.5 -106t87.5 -35q57 0 88.5 34.5t31.5 106.5v488h124v-467q0 -124 -62 -193.5t-182 -69.5zM137 838v86h319v-86h-319z" />
    <glyph glyph-name="umacron" unicode="&#x16b;" horiz-adv-x="522" 
d="M194 -10q-43 0 -74.5 18.5t-49 51.5t-17.5 78v372h121v-346q0 -38 18 -57t50 -19q31 0 53.5 15.5t35.5 41.5t13 58l14 -100q-22 -52 -64 -82.5t-100 -30.5zM349 0v107h-5v403h120v-510h-115zM102 628v86h319v-86h-319z" />
    <glyph glyph-name="Ubreve" unicode="&#x16c;" horiz-adv-x="593" 
d="M296 -10q-119 0 -181 69.5t-62 194.5v466h124v-488q0 -71 31.5 -106t87.5 -35q57 0 88.5 34.5t31.5 106.5v488h124v-467q0 -124 -62 -193.5t-182 -69.5zM297 786q-44 0 -80 19.5t-57.5 56.5t-21.5 88h81q0 -33 20.5 -54.5t57.5 -21.5t57 21.5t20 54.5h82
q0 -51 -21.5 -87.5t-57.5 -56.5t-80 -20z" />
    <glyph glyph-name="ubreve" unicode="&#x16d;" horiz-adv-x="522" 
d="M194 -10q-43 0 -74.5 18.5t-49 51.5t-17.5 78v372h121v-346q0 -38 18 -57t50 -19q31 0 53.5 15.5t35.5 41.5t13 58l14 -100q-22 -52 -64 -82.5t-100 -30.5zM349 0v107h-5v403h120v-510h-115zM262 576q-44 0 -80 19.5t-57.5 56.5t-21.5 88h81q0 -33 20.5 -54.5t57.5 -21.5
t57 21.5t20 54.5h82q0 -51 -21.5 -87.5t-57.5 -56.5t-80 -20z" />
    <glyph glyph-name="Uring" unicode="&#x16e;" horiz-adv-x="593" 
d="M296 -10q-119 0 -181 69.5t-62 194.5v466h124v-488q0 -71 31.5 -106t87.5 -35q57 0 88.5 34.5t31.5 106.5v488h124v-467q0 -124 -62 -193.5t-182 -69.5zM297 771q-46 0 -77 31.5t-31 76.5q0 44 31 75.5t77 31.5t76.5 -31.5t30.5 -75.5q0 -45 -30.5 -76.5t-76.5 -31.5z
M297 834q19 0 31 13t12 32t-12 31.5t-31 12.5q-20 0 -32 -12.5t-12 -31.5t12 -32t32 -13z" />
    <glyph glyph-name="uring" unicode="&#x16f;" horiz-adv-x="522" 
d="M194 -10q-43 0 -74.5 18.5t-49 51.5t-17.5 78v372h121v-346q0 -38 18 -57t50 -19q31 0 53.5 15.5t35.5 41.5t13 58l14 -100q-22 -52 -64 -82.5t-100 -30.5zM349 0v107h-5v403h120v-510h-115zM261 561q-46 0 -77 31.5t-31 76.5q0 44 31 75.5t77 31.5t76.5 -31.5
t30.5 -75.5q0 -45 -30.5 -76.5t-76.5 -31.5zM261 624q19 0 31 13t12 32t-12 31.5t-31 12.5q-20 0 -32 -12.5t-12 -31.5t12 -32t32 -13z" />
    <glyph glyph-name="Uhungarumlaut" unicode="&#x170;" horiz-adv-x="593" 
d="M296 -10q-119 0 -181 69.5t-62 194.5v466h124v-488q0 -71 31.5 -106t87.5 -35q57 0 88.5 34.5t31.5 106.5v488h124v-467q0 -124 -62 -193.5t-182 -69.5zM232 793h-89l49 157h131zM424 793h-89l49 157h131z" />
    <glyph glyph-name="uhungarumlaut" unicode="&#x171;" horiz-adv-x="522" 
d="M194 -10q-43 0 -74.5 18.5t-49 51.5t-17.5 78v372h121v-346q0 -38 18 -57t50 -19q31 0 53.5 15.5t35.5 41.5t13 58l14 -100q-22 -52 -64 -82.5t-100 -30.5zM349 0v107h-5v403h120v-510h-115zM197 583h-89l49 157h131zM389 583h-89l49 157h131z" />
    <glyph glyph-name="Uogonek" unicode="&#x172;" horiz-adv-x="593" 
d="M296 -10q-119 0 -181 69.5t-62 194.5v466h124v-488q0 -71 31.5 -106t87.5 -35q57 0 88.5 34.5t31.5 106.5v488h124v-467q0 -124 -62 -193.5t-182 -69.5zM356 -196q-46 0 -71 23t-25 60q0 44 34.5 82t89.5 68l42 -17q-45 -36 -67 -64.5t-22 -55.5q0 -17 9 -25t21 -8
q20 0 37 15l28 -56q-14 -10 -32.5 -16t-43.5 -6z" />
    <glyph glyph-name="uogonek" unicode="&#x173;" horiz-adv-x="522" 
d="M194 -10q-43 0 -74.5 18.5t-49 51.5t-17.5 78v372h121v-346q0 -38 18 -57t50 -19q31 0 53.5 15.5t35.5 41.5t13 58l14 -100q-22 -52 -64 -82.5t-100 -30.5zM349 0v107h-5v403h120v-510h-115zM394 -216q-46 0 -71 23t-25 60q0 44 34.5 82t89.5 68l42 -17
q-45 -36 -67 -64.5t-22 -55.5q0 -17 9 -25t21 -8q20 0 37 15l28 -56q-14 -10 -32.5 -16t-43.5 -6z" />
    <glyph glyph-name="Wcircumflex" unicode="&#x174;" horiz-adv-x="865" 
d="M179 0l-147 720h122l119 -666h-26l120 666h137l119 -666h-25l119 666h116l-147 -720h-147l-119 657h26l-120 -657h-147zM255 793l118 157h119l117 -157h-94l-131 127h97l-131 -127h-95z" />
    <glyph glyph-name="wcircumflex" unicode="&#x175;" horiz-adv-x="720" 
d="M155 0l-134 510h123l78 -383h-10l95 383h111l95 -383h-10l78 383h118l-134 -510h-116l-94 378h11l-95 -378h-116zM183 583l118 157h119l117 -157h-94l-131 127h97l-131 -127h-95z" />
    <glyph glyph-name="Ycircumflex" unicode="&#x176;" horiz-adv-x="590" 
d="M233 0v310l-221 410h143l179 -366h-63l178 366h129l-221 -410v-310h-124zM117 793l118 157h119l117 -157h-94l-131 127h97l-131 -127h-95z" />
    <glyph glyph-name="ycircumflex" unicode="&#x177;" horiz-adv-x="472" 
d="M99 -205l103 292l21 32l116 391h123l-245 -715h-118zM190 -2l-179 512h129l136 -451zM62 583l118 157h119l117 -157h-94l-131 127h97l-131 -127h-95z" />
    <glyph glyph-name="Ydieresis" unicode="&#x178;" horiz-adv-x="590" 
d="M233 0v310l-221 410h143l179 -366h-63l178 366h129l-221 -410v-310h-124zM337 804v132h130v-132h-130zM122 804v132h129v-132h-129z" />
    <glyph glyph-name="Zacute" unicode="&#x179;" horiz-adv-x="538" 
d="M48 0v87l313 571l27 -36h-330v98h432v-80l-316 -576l-26 34h347v-98h-447zM287 793h-101l87 157h156z" />
    <glyph glyph-name="zacute" unicode="&#x17a;" horiz-adv-x="445" 
d="M40 0v85l239 363l23 -33h-253v95h355v-78l-241 -368l-22 31h268v-95h-369zM239 583h-101l87 157h156z" />
    <glyph glyph-name="Zdotaccent" unicode="&#x17b;" horiz-adv-x="538" 
d="M48 0v87l313 571l27 -36h-330v98h432v-80l-316 -576l-26 34h347v-98h-447zM204 804v132h130v-132h-130z" />
    <glyph glyph-name="zdotaccent" unicode="&#x17c;" horiz-adv-x="445" 
d="M40 0v85l239 363l23 -33h-253v95h355v-78l-241 -368l-22 31h268v-95h-369zM157 594v132h130v-132h-130z" />
    <glyph glyph-name="Zcaron" unicode="&#x17d;" horiz-adv-x="538" 
d="M48 0v87l313 571l27 -36h-330v98h432v-80l-316 -576l-26 34h347v-98h-447zM210 793l-118 157h95l131 -127h-97l131 127h94l-117 -157h-119z" />
    <glyph glyph-name="zcaron" unicode="&#x17e;" horiz-adv-x="445" 
d="M40 0v85l239 363l23 -33h-253v95h355v-78l-241 -368l-22 31h268v-95h-369zM163 583l-118 157h95l131 -127h-97l131 127h94l-117 -157h-119z" />
    <glyph glyph-name="uni01CD" unicode="&#x1cd;" horiz-adv-x="600" 
d="M22 0l203 720h100l-184 -720h-119zM452 0l-184 720h107l203 -720h-126zM136 275h323v-98h-323v98zM241 793l-118 157h95l131 -127h-97l131 127h94l-117 -157h-119z" />
    <glyph glyph-name="uni01CE" unicode="&#x1ce;" horiz-adv-x="480" 
d="M324 0q-6 19 -8 42t-2 51h-5v262q0 38 -17.5 56t-52.5 18t-55 -18t-23 -51h-111q4 70 55.5 115t140.5 45q88 0 134.5 -44t46.5 -125v-258q0 -22 2.5 -45.5t9.5 -47.5h-115zM175 -10q-62 0 -100 36.5t-38 99.5q0 61 38 100.5t115 62.5l144 45v-84l-103 -30
q-39 -12 -57.5 -31.5t-18.5 -49.5q0 -28 17 -43t47 -15q38 0 64 22.5t26 55.5l11 -70q-17 -50 -54.5 -74.5t-90.5 -24.5zM184 583l-118 157h95l131 -127h-97l131 127h94l-117 -157h-119z" />
    <glyph glyph-name="uni0218" unicode="&#x218;" horiz-adv-x="535" 
d="M282 -9q-116 0 -181.5 63t-72.5 176h118q4 -68 41.5 -105t99.5 -37q49 0 76 22.5t27 63.5q0 37 -19 64t-63 49l-104 51q-76 36 -111.5 85.5t-35.5 115.5q0 59 26.5 102t75.5 66.5t116 23.5q103 0 161.5 -57t63.5 -160h-117q-5 62 -34 91t-79 29q-44 0 -69.5 -21
t-25.5 -60q0 -33 18.5 -58.5t63.5 -47.5l105 -52q77 -37 111.5 -88.5t34.5 -118.5q0 -94 -60 -145.5t-166 -51.5zM215 -324v56q33 5 49.5 24.5t16.5 54.5l44 -9h-110v125h131v-97q0 -63 -34.5 -104t-96.5 -50z" />
    <glyph glyph-name="uni0219" unicode="&#x219;" horiz-adv-x="421" 
d="M221 -10q-89 0 -141 44t-57 124h105q4 -40 28.5 -60.5t65.5 -20.5q36 0 54.5 14t18.5 41q0 20 -12 35t-47 30l-70 28q-61 23 -92 59.5t-31 89.5q0 67 46.5 106.5t125.5 39.5q80 0 127.5 -40t52.5 -112h-104q-4 33 -23 49t-53 16q-31 0 -48 -13t-17 -37q0 -20 13.5 -34.5
t47.5 -28.5l75 -31q56 -20 86 -60t30 -93q0 -68 -48 -107t-133 -39zM155 -324v56q33 5 49.5 24.5t16.5 54.5l44 -9h-110v125h131v-97q0 -63 -34.5 -104t-96.5 -50z" />
    <glyph glyph-name="uni021A" unicode="&#x21a;" horiz-adv-x="540" 
d="M208 0v622h-188v98h499v-98h-187v-622h-124zM204 -324v56q33 5 49.5 24.5t16.5 54.5l44 -9h-110v125h131v-97q0 -63 -34.5 -104t-96.5 -50z" />
    <glyph glyph-name="uni021B" unicode="&#x21b;" horiz-adv-x="350" 
d="M256 -10q-82 0 -122 39.5t-40 117.5v468l121 49v-518q0 -30 16.5 -45t52.5 -15q14 0 25 2.5t20 6.5v-93q-11 -6 -30.5 -9t-42.5 -3zM13 415v95h315v-95h-315zM160 -324v56q33 5 49.5 24.5t16.5 54.5l44 -9h-110v125h131v-97q0 -63 -34.5 -104t-96.5 -50z" />
    <glyph glyph-name="uni0237" unicode="&#x237;" horiz-adv-x="237" 
d="M29 -215q-17 0 -30 2t-24 5v93q6 -2 14.5 -3t18.5 -1q25 0 37.5 11t12.5 34v584h121v-589q0 -64 -37 -100t-113 -36z" />
    <glyph glyph-name="circumflex" unicode="&#x2c6;" horiz-adv-x="433" 
d="M60 583l118 157h119l117 -157h-94l-131 127h97l-131 -127h-95z" />
    <glyph glyph-name="caron" unicode="&#x2c7;" horiz-adv-x="433" 
d="M178 583l-118 157h95l131 -127h-97l131 127h94l-117 -157h-119z" />
    <glyph glyph-name="breve" unicode="&#x2d8;" horiz-adv-x="408" 
d="M219 576q-44 0 -80 19.5t-57.5 56.5t-21.5 88h81q0 -33 20.5 -54.5t57.5 -21.5t57 21.5t20 54.5h82q0 -51 -21.5 -87.5t-57.5 -56.5t-80 -20z" />
    <glyph glyph-name="dotaccent" unicode="&#x2d9;" horiz-adv-x="250" 
d="M60 594v132h130v-132h-130z" />
    <glyph glyph-name="ring" unicode="&#x2da;" horiz-adv-x="335" 
d="M168 561q-46 0 -77 31.5t-31 76.5q0 44 31 75.5t77 31.5t76.5 -31.5t30.5 -75.5q0 -45 -30.5 -76.5t-76.5 -31.5zM168 624q19 0 31 13t12 32t-12 31.5t-31 12.5q-20 0 -32 -12.5t-12 -31.5t12 -32t32 -13z" />
    <glyph glyph-name="ogonek" unicode="&#x2db;" horiz-adv-x="269" 
d="M156 -216q-46 0 -71 23t-25 60q0 44 34.5 82t89.5 68l42 -17q-45 -36 -67 -64.5t-22 -55.5q0 -17 9 -25t21 -8q20 0 37 15l28 -56q-14 -10 -32.5 -16t-43.5 -6z" />
    <glyph glyph-name="tilde" unicode="&#x2dc;" horiz-adv-x="452" 
d="M314 597q-27 0 -46 7.5t-34 18.5t-29 19t-31 8q-18 0 -29 -11.5t-11 -35.5h-74q0 38 14 68t40.5 47t62.5 17q28 0 46.5 -8t32 -18.5t27 -18.5t30.5 -8q19 0 30.5 11.5t11.5 35.5h73q0 -38 -14 -68t-39.5 -47t-60.5 -17z" />
    <glyph glyph-name="hungarumlaut" unicode="&#x2dd;" horiz-adv-x="414" 
d="M149 583h-89l49 157h131zM341 583h-89l49 157h131z" />
    <glyph glyph-name="gravecomb" unicode="&#x300;" horiz-adv-x="0" 
d="M202 583l-142 157h156l87 -157h-101z" />
    <glyph glyph-name="acutecomb" unicode="&#x301;" horiz-adv-x="0" 
d="M161 583h-101l87 157h156z" />
    <glyph glyph-name="uni0302" unicode="&#x302;" horiz-adv-x="0" 
d="M60 583l118 157h119l117 -157h-94l-131 127h97l-131 -127h-95z" />
    <glyph glyph-name="tildecomb" unicode="&#x303;" horiz-adv-x="0" 
d="M314 597q-27 0 -46 7.5t-34 18.5t-29 19t-31 8q-18 0 -29 -11.5t-11 -35.5h-74q0 38 14 68t40.5 47t62.5 17q28 0 46.5 -8t32 -18.5t27 -18.5t30.5 -8q19 0 30.5 11.5t11.5 35.5h73q0 -38 -14 -68t-39.5 -47t-60.5 -17z" />
    <glyph glyph-name="uni0304" unicode="&#x304;" horiz-adv-x="0" 
d="M60 628v86h319v-86h-319z" />
    <glyph glyph-name="uni0306" unicode="&#x306;" horiz-adv-x="0" 
d="M219 576q-44 0 -80 19.5t-57.5 56.5t-21.5 88h81q0 -33 20.5 -54.5t57.5 -21.5t57 21.5t20 54.5h82q0 -51 -21.5 -87.5t-57.5 -56.5t-80 -20z" />
    <glyph glyph-name="uni0307" unicode="&#x307;" horiz-adv-x="0" 
d="M60 594v132h130v-132h-130z" />
    <glyph glyph-name="uni0308" unicode="&#x308;" horiz-adv-x="0" 
d="M275 594v132h130v-132h-130zM60 594v132h129v-132h-129z" />
    <glyph glyph-name="uni030A" unicode="&#x30a;" horiz-adv-x="0" 
d="M168 561q-46 0 -77 31.5t-31 76.5q0 44 31 75.5t77 31.5t76.5 -31.5t30.5 -75.5q0 -45 -30.5 -76.5t-76.5 -31.5zM168 624q19 0 31 13t12 32t-12 31.5t-31 12.5q-20 0 -32 -12.5t-12 -31.5t12 -32t32 -13z" />
    <glyph glyph-name="uni030B" unicode="&#x30b;" horiz-adv-x="0" 
d="M149 583h-89l49 157h131zM341 583h-89l49 157h131z" />
    <glyph glyph-name="uni030C" unicode="&#x30c;" horiz-adv-x="0" 
d="M178 583l-118 157h95l131 -127h-97l131 127h94l-117 -157h-119z" />
    <glyph glyph-name="uni0312" unicode="&#x312;" horiz-adv-x="0" 
d="M67 583v97q0 63 34.5 104t96.5 50v-56q-33 -5 -49.5 -24.5t-16.5 -55.5l-44 9h110v-124h-131z" />
    <glyph glyph-name="uni0326" unicode="&#x326;" horiz-adv-x="0" 
d="M67 -324v56q33 5 49.5 24.5t16.5 54.5l44 -9h-110v125h131v-97q0 -63 -34.5 -104t-96.5 -50z" />
    <glyph glyph-name="uni0327" unicode="&#x327;" horiz-adv-x="0" 
d="M176 -215q-52 0 -83 24.5t-33 66.5h74q2 -15 14 -22.5t29 -7.5q15 0 25 7t10 20q0 17 -18 27t-63 13l21 99h68l-11 -50q40 -10 60 -33.5t20 -55.5q0 -40 -30.5 -64t-82.5 -24z" />
    <glyph glyph-name="uni0328" unicode="&#x328;" horiz-adv-x="0" 
d="M156 -216q-46 0 -71 23t-25 60q0 44 34.5 82t89.5 68l42 -17q-45 -36 -67 -64.5t-22 -55.5q0 -17 9 -25t21 -8q20 0 37 15l28 -56q-14 -10 -32.5 -16t-43.5 -6z" />
    <glyph glyph-name="Wgrave" unicode="&#x1e80;" horiz-adv-x="865" 
d="M179 0l-147 720h122l119 -666h-26l120 666h137l119 -666h-25l119 666h116l-147 -720h-147l-119 657h26l-120 -657h-147zM416 793l-142 157h156l87 -157h-101z" />
    <glyph glyph-name="wgrave" unicode="&#x1e81;" horiz-adv-x="720" 
d="M155 0l-134 510h123l78 -383h-10l95 383h111l95 -383h-10l78 383h118l-134 -510h-116l-94 378h11l-95 -378h-116zM343 583l-142 157h156l87 -157h-101z" />
    <glyph glyph-name="Wacute" unicode="&#x1e82;" horiz-adv-x="865" 
d="M179 0l-147 720h122l119 -666h-26l120 666h137l119 -666h-25l119 666h116l-147 -720h-147l-119 657h26l-120 -657h-147zM450 793h-101l87 157h156z" />
    <glyph glyph-name="wacute" unicode="&#x1e83;" horiz-adv-x="720" 
d="M155 0l-134 510h123l78 -383h-10l95 383h111l95 -383h-10l78 383h118l-134 -510h-116l-94 378h11l-95 -378h-116zM377 583h-101l87 157h156z" />
    <glyph glyph-name="Wdieresis" unicode="&#x1e84;" horiz-adv-x="865" 
d="M179 0l-147 720h122l119 -666h-26l120 666h137l119 -666h-25l119 666h116l-147 -720h-147l-119 657h26l-120 -657h-147zM475 804v132h130v-132h-130zM260 804v132h129v-132h-129z" />
    <glyph glyph-name="wdieresis" unicode="&#x1e85;" horiz-adv-x="720" 
d="M155 0l-134 510h123l78 -383h-10l95 383h111l95 -383h-10l78 383h118l-134 -510h-116l-94 378h11l-95 -378h-116zM403 594v132h130v-132h-130zM188 594v132h129v-132h-129z" />
    <glyph glyph-name="uni1E9E" unicode="&#x1e9e;" horiz-adv-x="604" 
d="M348 -9q-28 0 -53.5 3.5t-46.5 10.5v99q19 -7 41 -10.5t48 -3.5q58 0 87 26t29 78q0 49 -33 86.5t-107 70.5l-34 16l174 271l-4 -66q-22 29 -54 44.5t-76 15.5q-65 0 -100.5 -38t-35.5 -114v-480h-124v471q0 126 68 193t196 67q76 0 138.5 -25.5t111.5 -79.5l-163 -252
l-41 65q105 -47 156.5 -109.5t51.5 -144.5q0 -59 -27.5 -102.5t-78.5 -67.5t-123 -24z" />
    <glyph glyph-name="Ygrave" unicode="&#x1ef2;" horiz-adv-x="590" 
d="M233 0v310l-221 410h143l179 -366h-63l178 366h129l-221 -410v-310h-124zM278 793l-142 157h156l87 -157h-101z" />
    <glyph glyph-name="ygrave" unicode="&#x1ef3;" horiz-adv-x="472" 
d="M99 -205l103 292l21 32l116 391h123l-245 -715h-118zM190 -2l-179 512h129l136 -451zM223 583l-142 157h156l87 -157h-101z" />
    <glyph glyph-name="endash" unicode="&#x2013;" horiz-adv-x="522" 
d="M58 225v94h406v-94h-406z" />
    <glyph glyph-name="emdash" unicode="&#x2014;" horiz-adv-x="770" 
d="M58 225v94h654v-94h-654z" />
    <glyph glyph-name="quoteleft" unicode="&#x2018;" horiz-adv-x="253" 
d="M57 462v97q0 69 35 119t107 62v-60q-39 -5 -55.5 -29.5t-16.5 -67.5l-48 10h118v-131h-140z" />
    <glyph glyph-name="quoteright" unicode="&#x2019;" horiz-adv-x="253" 
d="M54 464v60q39 5 55.5 30t16.5 67l48 -10h-118v131h140v-97q0 -69 -35 -119t-107 -62z" />
    <glyph glyph-name="quotesinglbase" unicode="&#x201a;" horiz-adv-x="250" 
d="M54 -185v61q41 12 55 37t14 68l48 -11h-117v140h139v-102q0 -71 -33 -122t-106 -71z" />
    <glyph glyph-name="quotedblleft" unicode="&#x201c;" horiz-adv-x="442" 
d="M246 462v97q0 69 35 119t107 62v-60q-39 -5 -55.5 -29.5t-16.5 -67.5l-48 10h118v-131h-140zM57 462v97q0 69 35 119t107 62v-60q-39 -5 -55.5 -29.5t-16.5 -67.5l-48 10h118v-131h-140z" />
    <glyph glyph-name="quotedblright" unicode="&#x201d;" horiz-adv-x="442" 
d="M243 464v60q39 5 55.5 30t16.5 67l48 -10h-118v131h140v-97q0 -69 -35 -119t-107 -62zM54 464v60q39 5 55.5 30t16.5 67l48 -10h-118v131h140v-97q0 -69 -35 -119t-107 -62z" />
    <glyph glyph-name="quotedblbase" unicode="&#x201e;" horiz-adv-x="438" 
d="M242 -185v61q41 12 55 37t14 68l48 -11h-117v140h139v-102q0 -71 -33 -122t-106 -71zM54 -185v61q41 12 55 37t14 68l48 -11h-117v140h139v-102q0 -71 -33 -122t-106 -71z" />
    <glyph glyph-name="bullet" unicode="&#x2022;" horiz-adv-x="312" 
d="M57 265v199h198v-199h-198z" />
    <glyph glyph-name="ellipsis" unicode="&#x2026;" horiz-adv-x="665" 
d="M57 0v140h139v-140h-139zM263 0v140h139v-140h-139zM469 0v140h139v-140h-139z" />
    <glyph glyph-name="perthousand" unicode="&#x2030;" horiz-adv-x="787" 
d="M162 371q-35 0 -65.5 19.5t-48.5 59.5t-18 101t18 100.5t48 59t66 19.5q56 0 94.5 -43.5t38.5 -135.5q0 -61 -18.5 -101t-48.5 -59.5t-66 -19.5zM162 438q28 0 45.5 29.5t17.5 84.5q0 54 -17 82.5t-46 28.5q-28 0 -45 -28.5t-17 -82.5q0 -55 17 -84.5t45 -29.5zM56 0
l423 720h85l-423 -720h-85zM450 -10q-33 0 -62.5 20t-47 60t-17.5 100t17.5 99.5t46.5 59.5t63 20q52 0 83.5 -43.5t31.5 -135.5q0 -93 -32.5 -136.5t-82.5 -43.5zM450 57q26 0 42 29t16 85q0 54 -16 82.5t-42 28.5t-41.5 -28.5t-15.5 -82.5q0 -56 15.5 -85t41.5 -29z
M629 57q27 0 42.5 29t15.5 85q0 54 -15.5 82.5t-42.5 28.5q-26 0 -41.5 -28.5t-15.5 -82.5q0 -56 16 -85t41 -29zM630 -10q-51 0 -83 43.5t-32 136.5q0 92 32 135.5t82 43.5q35 0 64 -20t46.5 -59.5t17.5 -99.5t-18 -100t-47 -60t-62 -20z" />
    <glyph glyph-name="guilsinglleft" unicode="&#x2039;" horiz-adv-x="321" 
d="M160 68l-117 183l117 183h108l-113 -183l113 -183h-108z" />
    <glyph glyph-name="guilsinglright" unicode="&#x203a;" horiz-adv-x="321" 
d="M161 68h-108l113 183l-113 183h108l117 -183z" />
    <glyph glyph-name="Euro" unicode="&#x20ac;" horiz-adv-x="602" 
d="M339 -10q-61 0 -111.5 26t-86 74.5t-54.5 117t-19 153.5q0 86 19 154t54.5 116t86 73.5t112.5 25.5t110 -23t79.5 -66.5t41.5 -104.5h-124q-7 47 -35.5 70.5t-73.5 23.5q-44 0 -77 -30t-50 -89.5t-17 -147.5q0 -89 17.5 -150t50.5 -92t77 -31t71.5 23.5t35.5 70.5h125
q-11 -61 -42.5 -104.5t-79.5 -66.5t-110 -23zM0 387l15 86h426l-15 -86h-426zM0 249l15 86h402l-15 -86h-402z" />
    <glyph glyph-name="trademark" unicode="&#x2122;" horiz-adv-x="735" 
d="M138 360v344h83v-344h-83zM48 651v69h262v-69h-262zM331 360v360h120l85 -342h-54l84 342h121v-360h-81v324h13l-76 -324h-72l-76 323h14v-323h-78z" />
    <glyph glyph-name="arrowleft" unicode="&#x2190;" horiz-adv-x="783" 
d="M723 306h-565l57 46l328 -328h-148l-335 336l335 336h148l-328 -328l-57 46h565v-108z" />
    <glyph glyph-name="arrowup" unicode="&#x2191;" horiz-adv-x="793" 
d="M342 34v565l46 -57l-328 -328v149l336 334l337 -335v-148l-329 328l47 57v-565h-109z" />
    <glyph glyph-name="arrowright" unicode="&#x2192;" horiz-adv-x="783" 
d="M60 414h565l-57 -46l-328 328h148l335 -336l-335 -336h-148l328 328l57 -46h-565v108z" />
    <glyph glyph-name="arrowdown" unicode="&#x2193;" horiz-adv-x="793" 
d="M342 686h109v-565l-47 57l329 328v-148l-337 -335l-336 334v149l328 -328l-46 -57v565z" />
    <glyph glyph-name="arrowboth" unicode="&#x2194;" horiz-adv-x="1116" 
d="M395 24l-335 336l335 336h148l-282 -282h594l-282 282h149l334 -336l-334 -336h-149l282 282h-594l282 -282h-148z" />
    <glyph glyph-name="arrowupdn" unicode="&#x2195;" horiz-adv-x="793" 
d="M396 -138l-336 334v149l282 -282v594l-282 -282v149l336 334l337 -335v-148l-282 282v-594l282 282v-148z" />
    <glyph glyph-name="uni2196" unicode="&#x2196;" horiz-adv-x="702" 
d="M492 142l-399 400l73 -8l-1 -464l-105 105l2 475l474 1l105 -105h-464l-8 73l399 -400z" />
    <glyph glyph-name="uni2197" unicode="&#x2197;" horiz-adv-x="702" 
d="M133 218l400 399l-8 -73h-464l105 106l475 -2l1 -475l-105 -105v464l73 8l-400 -399z" />
    <glyph glyph-name="uni2198" unicode="&#x2198;" horiz-adv-x="702" 
d="M210 578l399 -400l-73 8l1 464l105 -105l-2 -475l-474 -1l-105 105h464l8 -73l-400 400z" />
    <glyph glyph-name="uni2199" unicode="&#x2199;" horiz-adv-x="702" 
d="M568 501l-400 -399l8 73h464l-104 -106l-475 2l-1 474l105 105v-464l-73 -7l400 399z" />
    <glyph glyph-name="minus" unicode="&#x2212;" horiz-adv-x="544" 
d="M53 326v90h438v-90h-438z" />
    <glyph glyph-name="Adieresis.ss01" horiz-adv-x="600" 
d="M22 0l203 720h100l-184 -720h-119zM452 0l-184 720h107l203 -720h-126zM136 275h323v-98h-323v98zM192 802q-30 0 -50.5 21.5t-20.5 52.5t20.5 51t50.5 20t50.5 -20t20.5 -52q0 -31 -20.5 -52t-50.5 -21zM407 802q-30 0 -50.5 21.5t-20.5 52.5t21 51t50 20q30 0 50.5 -20
t20.5 -52q0 -31 -20.5 -52t-50.5 -21z" />
    <glyph glyph-name="Cdotaccent.ss01" horiz-adv-x="613" 
d="M320 -10q-65 0 -117.5 26t-90 74.5t-57.5 117t-20 153.5q0 86 20 154t57.5 116t90.5 73.5t117 25.5q75 0 132 -34t91 -97t38 -150h-121q-6 89 -43.5 134.5t-96.5 45.5q-49 0 -85 -29.5t-55 -88.5t-19 -148t19.5 -150t55.5 -91.5t84 -30.5q58 0 95.5 46t43.5 134h123
q-6 -86 -40 -149.5t-91 -97.5t-131 -34zM318 793q-32 0 -55 23t-23 56q0 35 23 57t55 22q33 0 55 -22t22 -57q0 -33 -22 -56t-55 -23z" />
    <glyph glyph-name="Edieresis.ss01" horiz-adv-x="520" 
d="M59 0v720h124v-720h-124zM121 0v98h353v-98h-353zM121 323v97h326v-97h-326zM121 622v98h344v-98h-344zM163 802q-30 0 -50.5 21.5t-20.5 52.5t20.5 51t50.5 20t50.5 -20t20.5 -52q0 -31 -20.5 -52t-50.5 -21zM378 802q-30 0 -50.5 21.5t-20.5 52.5t21 51t50 20
q30 0 50.5 -20t20.5 -52q0 -31 -20.5 -52t-50.5 -21z" />
    <glyph glyph-name="Edotaccent.ss01" horiz-adv-x="520" 
d="M59 0v720h124v-720h-124zM121 0v98h353v-98h-353zM121 323v97h326v-97h-326zM121 622v98h344v-98h-344zM271 793q-32 0 -55 23t-23 56q0 35 23 57t55 22q33 0 55 -22t22 -57q0 -33 -22 -56t-55 -23z" />
    <glyph glyph-name="uni0122.ss01" horiz-adv-x="628" 
d="M336 -10q-96 0 -163.5 42.5t-102.5 124t-35 197.5q0 117 35.5 201t100.5 129.5t154 45.5q74 0 129.5 -31t88.5 -87t37 -133h-124q-4 74 -39 112t-92 38q-52 0 -88.5 -31t-56 -91t-19.5 -149q0 -91 20 -150.5t61 -88.5t102 -29q39 0 68.5 10.5t48.5 31.5l121 -40
q-42 -49 -104 -75.5t-142 -26.5zM458 91v231l31 -31h-158v98h251v-297zM279 -324v56q33 5 49.5 24.5t16.5 54.5h37q-9 -6 -21.5 -11t-23.5 -5q-30 0 -51 19.5t-21 49.5q0 31 21 50.5t48 19.5q32 0 54 -23.5t22 -74.5q0 -41 -16 -75t-45 -56.5t-70 -28.5z" />
    <glyph glyph-name="Gdotaccent.ss01" horiz-adv-x="628" 
d="M336 -10q-96 0 -163.5 42.5t-102.5 124t-35 197.5q0 117 35.5 201t100.5 129.5t154 45.5q74 0 129.5 -31t88.5 -87t37 -133h-124q-4 74 -39 112t-92 38q-52 0 -88.5 -31t-56 -91t-19.5 -149q0 -91 20 -150.5t61 -88.5t102 -29q39 0 68.5 10.5t48.5 31.5l121 -40
q-42 -49 -104 -75.5t-142 -26.5zM458 91v231l31 -31h-158v98h251v-297zM325 793q-32 0 -55 23t-23 56q0 35 23 57t55 22q33 0 55 -22t22 -57q0 -33 -22 -56t-55 -23z" />
    <glyph glyph-name="Idieresis.ss01" horiz-adv-x="242" 
d="M59 0v720h124v-720h-124zM13 802q-30 0 -50.5 21.5t-20.5 52.5t20.5 51t50.5 20t50.5 -20t20.5 -52q0 -31 -20.5 -52t-50.5 -21zM228 802q-30 0 -50.5 21.5t-20.5 52.5t21 51t50 20q30 0 50.5 -20t20.5 -52q0 -31 -20.5 -52t-50.5 -21z" />
    <glyph glyph-name="Idotaccent.ss01" horiz-adv-x="242" 
d="M59 0v720h124v-720h-124zM121 793q-32 0 -55 23t-23 56q0 35 23 57t55 22q33 0 55 -22t22 -57q0 -33 -22 -56t-55 -23z" />
    <glyph glyph-name="uni0136.ss01" horiz-adv-x="597" 
d="M59 0v720h124v-720h-124zM159 374l254 346h148l-265 -346h-137zM427 0l-271 374h140l285 -374h-154zM249 -324v56q33 5 49.5 24.5t16.5 54.5h37q-9 -6 -21.5 -11t-23.5 -5q-30 0 -51 19.5t-21 49.5q0 31 21 50.5t48 19.5q32 0 54 -23.5t22 -74.5q0 -41 -16 -75t-45 -56.5
t-70 -28.5z" />
    <glyph glyph-name="uni013B.ss01" horiz-adv-x="483" 
d="M59 0v720h124v-720h-124zM121 0v98h323v-98h-323zM203 -324v56q33 5 49.5 24.5t16.5 54.5h37q-9 -6 -21.5 -11t-23.5 -5q-30 0 -51 19.5t-21 49.5q0 31 21 50.5t48 19.5q32 0 54 -23.5t22 -74.5q0 -41 -16 -75t-45 -56.5t-70 -28.5z" />
    <glyph glyph-name="uni0145.ss01" horiz-adv-x="616" 
d="M59 0v720h151l261 -619l-31 -5v624h117v-720h-151l-261 619l31 5v-624h-117zM249 -324v56q33 5 49.5 24.5t16.5 54.5h37q-9 -6 -21.5 -11t-23.5 -5q-30 0 -51 19.5t-21 49.5q0 31 21 50.5t48 19.5q32 0 54 -23.5t22 -74.5q0 -41 -16 -75t-45 -56.5t-70 -28.5z" />
    <glyph glyph-name="Odieresis.ss01" horiz-adv-x="654" 
d="M327 -10q-66 0 -120 26t-92.5 74.5t-59 117.5t-20.5 155q0 114 36 196t101.5 126.5t153.5 44.5q90 0 155.5 -44.5t101.5 -126.5t36 -197q0 -86 -21 -155t-59 -117t-92 -74t-120 -26zM326 91q52 0 89 32t57.5 93t20.5 148q0 86 -20 145t-57.5 89.5t-89.5 30.5
q-51 0 -88.5 -30.5t-57 -89.5t-19.5 -145q0 -87 20 -148t57 -93t88 -32zM219 802q-30 0 -50.5 21.5t-20.5 52.5t20.5 51t50.5 20t50.5 -20t20.5 -52q0 -31 -20.5 -52t-50.5 -21zM434 802q-30 0 -50.5 21.5t-20.5 52.5t21 51t50 20q30 0 50.5 -20t20.5 -52q0 -31 -20.5 -52
t-50.5 -21z" />
    <glyph glyph-name="uni0156.ss01" horiz-adv-x="556" 
d="M58 0v720h232q69 0 119.5 -26.5t78.5 -73t28 -108.5t-27.5 -108.5t-78.5 -73t-120 -26.5h-137v94h132q53 0 82 30.5t29 82.5t-29 81.5t-82 29.5h-103v-622h-124zM393 0l-243 371h130l268 -371h-155zM219 -324v56q33 5 49.5 24.5t16.5 54.5h37q-9 -6 -21.5 -11t-23.5 -5
q-30 0 -51 19.5t-21 49.5q0 31 21 50.5t48 19.5q32 0 54 -23.5t22 -74.5q0 -41 -16 -75t-45 -56.5t-70 -28.5z" />
    <glyph glyph-name="uni0218.ss01" horiz-adv-x="535" 
d="M282 -9q-116 0 -181.5 63t-72.5 176h118q4 -68 41.5 -105t99.5 -37q49 0 76 22.5t27 63.5q0 37 -19 64t-63 49l-104 51q-76 36 -111.5 85.5t-35.5 115.5q0 59 26.5 102t75.5 66.5t116 23.5q103 0 161.5 -57t63.5 -160h-117q-5 62 -34 91t-79 29q-44 0 -69.5 -21
t-25.5 -60q0 -33 18.5 -58.5t63.5 -47.5l105 -52q77 -37 111.5 -88.5t34.5 -118.5q0 -94 -60 -145.5t-166 -51.5zM222 -324v56q33 5 49.5 24.5t16.5 54.5h37q-9 -6 -21.5 -11t-23.5 -5q-30 0 -51 19.5t-21 49.5q0 31 21 50.5t48 19.5q32 0 54 -23.5t22 -74.5q0 -41 -16 -75
t-45 -56.5t-70 -28.5z" />
    <glyph glyph-name="uni021A.ss01" horiz-adv-x="540" 
d="M208 0v622h-188v98h499v-98h-187v-622h-124zM211 -324v56q33 5 49.5 24.5t16.5 54.5h37q-9 -6 -21.5 -11t-23.5 -5q-30 0 -51 19.5t-21 49.5q0 31 21 50.5t48 19.5q32 0 54 -23.5t22 -74.5q0 -41 -16 -75t-45 -56.5t-70 -28.5z" />
    <glyph glyph-name="Udieresis.ss01" horiz-adv-x="593" 
d="M296 -10q-119 0 -181 69.5t-62 194.5v466h124v-488q0 -71 31.5 -106t87.5 -35q57 0 88.5 34.5t31.5 106.5v488h124v-467q0 -124 -62 -193.5t-182 -69.5zM189 802q-30 0 -50.5 21.5t-20.5 52.5t20.5 51t50.5 20t50.5 -20t20.5 -52q0 -31 -20.5 -52t-50.5 -21zM404 802
q-30 0 -50.5 21.5t-20.5 52.5t21 51t50 20q30 0 50.5 -20t20.5 -52q0 -31 -20.5 -52t-50.5 -21z" />
    <glyph glyph-name="Ydieresis.ss01" horiz-adv-x="590" 
d="M233 0v310l-221 410h143l179 -366h-63l178 366h129l-221 -410v-310h-124zM187 802q-30 0 -50.5 21.5t-20.5 52.5t20.5 51t50.5 20t50.5 -20t20.5 -52q0 -31 -20.5 -52t-50.5 -21zM402 802q-30 0 -50.5 21.5t-20.5 52.5t21 51t50 20q30 0 50.5 -20t20.5 -52
q0 -31 -20.5 -52t-50.5 -21z" />
    <glyph glyph-name="Zdotaccent.ss01" horiz-adv-x="538" 
d="M48 0v87l313 571l27 -36h-330v98h432v-80l-316 -576l-26 34h347v-98h-447zM270 793q-32 0 -55 23t-23 56q0 35 23 57t55 22q33 0 55 -22t22 -57q0 -33 -22 -56t-55 -23z" />
    <glyph glyph-name="K.ss04" horiz-adv-x="597" 
d="M59 0v720h124v-720h-124zM114 283l306 437h144l-257 -348l-21 -9l-141 -194zM437 0l-219 415l113 29l250 -444h-144z" />
    <glyph glyph-name="uni0136.ss04" horiz-adv-x="597" 
d="M59 0v720h124v-720h-124zM114 283l306 437h144l-257 -348l-21 -9l-141 -194zM437 0l-219 415l113 29l250 -444h-144zM242 -324v56q33 5 49.5 24.5t16.5 54.5l44 -9h-110v125h131v-97q0 -63 -34.5 -104t-96.5 -50z" />
    <glyph glyph-name="R.ss05" horiz-adv-x="552" 
d="M59 0v720h241q70 0 118.5 -25t73.5 -69.5t25 -101.5q0 -74 -42 -120.5t-125 -67.5l3 34q79 -5 115.5 -45t36.5 -109v-216h-123v196q0 55 -26 82t-76 27h-146v96h152q51 0 79.5 30t28.5 83t-28 81.5t-80 28.5h-103v-624h-124z" />
    <glyph glyph-name="Racute.ss05" horiz-adv-x="552" 
d="M59 0v720h241q70 0 118.5 -25t73.5 -69.5t25 -101.5q0 -74 -42 -120.5t-125 -67.5l3 34q79 -5 115.5 -45t36.5 -109v-216h-123v196q0 55 -26 82t-76 27h-146v96h152q51 0 79.5 30t28.5 83t-28 81.5t-80 28.5h-103v-624h-124zM294 793h-101l87 157h156z" />
    <glyph glyph-name="Rcaron.ss05" horiz-adv-x="552" 
d="M59 0v720h241q70 0 118.5 -25t73.5 -69.5t25 -101.5q0 -74 -42 -120.5t-125 -67.5l3 34q79 -5 115.5 -45t36.5 -109v-216h-123v196q0 55 -26 82t-76 27h-146v96h152q51 0 79.5 30t28.5 83t-28 81.5t-80 28.5h-103v-624h-124zM218 793l-118 157h95l131 -127h-97l131 127
h94l-117 -157h-119z" />
    <glyph glyph-name="uni0156.ss05" horiz-adv-x="552" 
d="M59 0v720h241q70 0 118.5 -25t73.5 -69.5t25 -101.5q0 -74 -42 -120.5t-125 -67.5l3 34q79 -5 115.5 -45t36.5 -109v-216h-123v196q0 55 -26 82t-76 27h-146v96h152q51 0 79.5 30t28.5 83t-28 81.5t-80 28.5h-103v-624h-124zM215 -324v56q33 5 49.5 24.5t16.5 54.5l44 -9
h-110v125h131v-97q0 -63 -34.5 -104t-96.5 -50z" />
    <glyph glyph-name="M.ss06" horiz-adv-x="765" 
d="M40 0l60 720h147l162 -691h-53l161 691h148l60 -720h-122l-50 662l39 -1l-152 -661h-122l-151 658l38 1l-50 -659h-115z" />
    <glyph glyph-name="G.ss07" horiz-adv-x="631" 
d="M327 -10q-89 0 -155 45t-101.5 128t-35.5 196q0 114 36.5 197t102.5 128.5t154 45.5q75 0 131 -32t89 -88.5t38 -130.5h-122q-4 46 -21 79.5t-45.5 52t-69.5 18.5q-52 0 -89.5 -30t-57.5 -89.5t-20 -148.5q0 -88 19.5 -148.5t57 -91t91.5 -30.5q48 0 81.5 25t50.5 80
t17 144h119q0 -118 -32.5 -195.5t-93 -116t-144.5 -38.5zM530 285h-196v98h263v-43z" />
    <glyph glyph-name="Gbreve.ss07" horiz-adv-x="631" 
d="M327 -10q-89 0 -155 45t-101.5 128t-35.5 196q0 114 36.5 197t102.5 128.5t154 45.5q75 0 131 -32t89 -88.5t38 -130.5h-122q-4 46 -21 79.5t-45.5 52t-69.5 18.5q-52 0 -89.5 -30t-57.5 -89.5t-20 -148.5q0 -88 19.5 -148.5t57 -91t91.5 -30.5q48 0 81.5 25t50.5 80
t17 144h119q0 -118 -32.5 -195.5t-93 -116t-144.5 -38.5zM530 285h-196v98h263v-43zM325 786q-44 0 -80 19.5t-57.5 56.5t-21.5 88h81q0 -33 20.5 -54.5t57.5 -21.5t57 21.5t20 54.5h82q0 -51 -21.5 -87.5t-57.5 -56.5t-80 -20z" />
    <glyph glyph-name="uni0122.ss07" horiz-adv-x="631" 
d="M327 -10q-89 0 -155 45t-101.5 128t-35.5 196q0 114 36.5 197t102.5 128.5t154 45.5q75 0 131 -32t89 -88.5t38 -130.5h-122q-4 46 -21 79.5t-45.5 52t-69.5 18.5q-52 0 -89.5 -30t-57.5 -89.5t-20 -148.5q0 -88 19.5 -148.5t57 -91t91.5 -30.5q48 0 81.5 25t50.5 80
t17 144h119q0 -118 -32.5 -195.5t-93 -116t-144.5 -38.5zM530 285h-196v98h263v-43zM259 -324v56q33 5 49.5 24.5t16.5 54.5l44 -9h-110v125h131v-97q0 -63 -34.5 -104t-96.5 -50z" />
    <glyph glyph-name="Gdotaccent.ss07" horiz-adv-x="631" 
d="M327 -10q-89 0 -155 45t-101.5 128t-35.5 196q0 114 36.5 197t102.5 128.5t154 45.5q75 0 131 -32t89 -88.5t38 -130.5h-122q-4 46 -21 79.5t-45.5 52t-69.5 18.5q-52 0 -89.5 -30t-57.5 -89.5t-20 -148.5q0 -88 19.5 -148.5t57 -91t91.5 -30.5q48 0 81.5 25t50.5 80
t17 144h119q0 -118 -32.5 -195.5t-93 -116t-144.5 -38.5zM530 285h-196v98h263v-43zM259 804v132h130v-132h-130z" />
    <glyph glyph-name="J.ss08" 
d="M264 -10q-71 0 -121.5 29t-77 81.5t-26.5 122.5h120q0 -67 30 -99.5t75 -32.5q30 0 52.5 12.5t35.5 41t13 73.5v502h124v-491q0 -75 -26 -128.5t-76.5 -82t-122.5 -28.5z" />
    <glyph glyph-name="Q.ss09" horiz-adv-x="654" 
d="M327 -10q-66 0 -120 26t-92.5 74.5t-59 117.5t-20.5 155q0 114 36 196t101.5 126.5t153.5 44.5q90 0 155.5 -44.5t101.5 -126.5t36 -197q0 -86 -21 -155t-59 -117t-92 -74t-120 -26zM326 87q38 0 69.5 15t53.5 48t34 85.5t12 128.5q0 86 -20.5 145t-58.5 89.5t-90 30.5
q-51 0 -89 -30.5t-58 -89.5t-20 -145q0 -89 20.5 -150.5t58 -94t88.5 -32.5zM297 213l86 49l194 -338l-85 -49z" />
    <glyph glyph-name="uni0136.ss01.ss04" horiz-adv-x="597" 
d="M59 0v720h124v-720h-124zM114 283l306 437h144l-257 -348l-21 -9l-141 -194zM437 0l-219 415l113 29l250 -444h-144zM249 -324v56q33 5 49.5 24.5t16.5 54.5h37q-9 -6 -21.5 -11t-23.5 -5q-30 0 -51 19.5t-21 49.5q0 31 21 50.5t48 19.5q32 0 54 -23.5t22 -74.5
q0 -41 -16 -75t-45 -56.5t-70 -28.5z" />
    <glyph glyph-name="uni0156.ss01.ss05" horiz-adv-x="552" 
d="M59 0v720h241q70 0 118.5 -25t73.5 -69.5t25 -101.5q0 -74 -42 -120.5t-125 -67.5l3 34q79 -5 115.5 -45t36.5 -109v-216h-123v196q0 55 -26 82t-76 27h-146v96h152q51 0 79.5 30t28.5 83t-28 81.5t-80 28.5h-103v-624h-124zM222 -324v56q33 5 49.5 24.5t16.5 54.5h37
q-9 -6 -21.5 -11t-23.5 -5q-30 0 -51 19.5t-21 49.5q0 31 21 50.5t48 19.5q32 0 54 -23.5t22 -74.5q0 -41 -16 -75t-45 -56.5t-70 -28.5z" />
    <glyph glyph-name="uni0122.ss01.ss07" horiz-adv-x="631" 
d="M327 -10q-89 0 -155 45t-101.5 128t-35.5 196q0 114 36.5 197t102.5 128.5t154 45.5q75 0 131 -32t89 -88.5t38 -130.5h-122q-4 46 -21 79.5t-45.5 52t-69.5 18.5q-52 0 -89.5 -30t-57.5 -89.5t-20 -148.5q0 -88 19.5 -148.5t57 -91t91.5 -30.5q48 0 81.5 25t50.5 80
t17 144h119q0 -118 -32.5 -195.5t-93 -116t-144.5 -38.5zM530 285h-196v98h263v-43zM266 -324v56q33 5 49.5 24.5t16.5 54.5h37q-9 -6 -21.5 -11t-23.5 -5q-30 0 -51 19.5t-21 49.5q0 31 21 50.5t48 19.5q32 0 54 -23.5t22 -74.5q0 -41 -16 -75t-45 -56.5t-70 -28.5z" />
    <glyph glyph-name="Gdotaccent.ss01.ss07" horiz-adv-x="631" 
d="M327 -10q-89 0 -155 45t-101.5 128t-35.5 196q0 114 36.5 197t102.5 128.5t154 45.5q75 0 131 -32t89 -88.5t38 -130.5h-122q-4 46 -21 79.5t-45.5 52t-69.5 18.5q-52 0 -89.5 -30t-57.5 -89.5t-20 -148.5q0 -88 19.5 -148.5t57 -91t91.5 -30.5q48 0 81.5 25t50.5 80
t17 144h119q0 -118 -32.5 -195.5t-93 -116t-144.5 -38.5zM530 285h-196v98h263v-43zM325 793q-32 0 -55 23t-23 56q0 35 23 57t55 22q33 0 55 -22t22 -57q0 -33 -22 -56t-55 -23z" />
    <glyph glyph-name="i.loclTRK" horiz-adv-x="237" 
d="M58 0v510h121v-510h-121zM53 594v132h130v-132h-130z" />
    <glyph glyph-name="adieresis.ss01" horiz-adv-x="480" 
d="M324 0q-6 19 -8 42t-2 51h-5v262q0 38 -17.5 56t-52.5 18t-55 -18t-23 -51h-111q4 70 55.5 115t140.5 45q88 0 134.5 -44t46.5 -125v-258q0 -22 2.5 -45.5t9.5 -47.5h-115zM175 -10q-62 0 -100 36.5t-38 99.5q0 61 38 100.5t115 62.5l144 45v-84l-103 -30
q-39 -12 -57.5 -31.5t-18.5 -49.5q0 -28 17 -43t47 -15q38 0 64 22.5t26 55.5l11 -70q-17 -50 -54.5 -74.5t-90.5 -24.5zM135 592q-30 0 -50.5 21.5t-20.5 52.5t20.5 51t50.5 20t50.5 -20t20.5 -52q0 -31 -20.5 -52t-50.5 -21zM350 592q-30 0 -50.5 21.5t-20.5 52.5t21 51
t50 20q30 0 50.5 -20t20.5 -52q0 -31 -20.5 -52t-50.5 -21z" />
    <glyph glyph-name="cdotaccent.ss01" horiz-adv-x="477" 
d="M248 -10q-65 0 -115 32.5t-78.5 92.5t-28.5 141t29 140.5t79.5 91.5t115.5 32q56 0 100.5 -23.5t71.5 -67.5t31 -107h-112q-5 52 -28.5 77t-60.5 25q-30 0 -53.5 -18t-36 -55t-12.5 -95q0 -57 12.5 -95t35.5 -56.5t54 -18.5q36 0 60 25.5t29 76.5h112q-4 -62 -32 -106
t-73 -68t-100 -24zM251 583q-32 0 -55 23t-23 56q0 35 23 57t55 22q33 0 55 -22t22 -57q0 -33 -22 -56t-55 -23z" />
    <glyph glyph-name="edieresis.ss01" horiz-adv-x="496" 
d="M256 -10q-69 0 -121 33.5t-80.5 93t-28.5 139.5t29 139.5t81.5 92t122.5 32.5q66 0 113 -30.5t72.5 -87t25.5 -136.5q0 -12 -0.5 -23t-2.5 -21h-366v84h283l-27 -30q0 79 -26 116t-74 37q-52 0 -81 -43.5t-29 -130.5t28.5 -130.5t82.5 -43.5q36 0 59 18.5t32 54.5h111
q-18 -74 -70 -119t-134 -45zM151 592q-30 0 -50.5 21.5t-20.5 52.5t20.5 51t50.5 20t50.5 -20t20.5 -52q0 -31 -20.5 -52t-50.5 -21zM366 592q-30 0 -50.5 21.5t-20.5 52.5t21 51t50 20q30 0 50.5 -20t20.5 -52q0 -31 -20.5 -52t-50.5 -21z" />
    <glyph glyph-name="edotaccent.ss01" horiz-adv-x="496" 
d="M256 -10q-69 0 -121 33.5t-80.5 93t-28.5 139.5t29 139.5t81.5 92t122.5 32.5q66 0 113 -30.5t72.5 -87t25.5 -136.5q0 -12 -0.5 -23t-2.5 -21h-366v84h283l-27 -30q0 79 -26 116t-74 37q-52 0 -81 -43.5t-29 -130.5t28.5 -130.5t82.5 -43.5q36 0 59 18.5t32 54.5h111
q-18 -74 -70 -119t-134 -45zM259 583q-32 0 -55 23t-23 56q0 35 23 57t55 22q33 0 55 -22t22 -57q0 -33 -22 -56t-55 -23z" />
    <glyph glyph-name="uni0123.ss01" 
d="M260 -215q-90 0 -146 44t-64 118h113q5 -28 30 -43.5t65 -15.5q52 0 78.5 26.5t26.5 78.5v129l8 -1q-9 -53 -50 -84.5t-100 -31.5q-58 0 -101 31.5t-66.5 88.5t-23.5 135q0 79 24.5 137.5t69.5 90.5t106 32t99.5 -32t46.5 -89h-7v111h114v-505q0 -104 -59 -162t-164 -58z
M261 102q49 0 77.5 41.5t28.5 120.5q0 78 -28.5 118.5t-78.5 40.5q-49 0 -77.5 -41.5t-28.5 -120.5q0 -78 28.5 -118.5t78.5 -40.5zM263 576q-31 0 -53 23.5t-22 74.5q0 41 15.5 75t45 56.5t70.5 28.5v-56q-33 -5 -49.5 -24.5t-16.5 -55.5h-37q9 7 21 11.5t23 4.5
q31 0 52 -19t21 -50q0 -30 -21 -49.5t-49 -19.5z" />
    <glyph glyph-name="gdotaccent.ss01" 
d="M260 -215q-90 0 -146 44t-64 118h113q5 -28 30 -43.5t65 -15.5q52 0 78.5 26.5t26.5 78.5v129l8 -1q-9 -53 -50 -84.5t-100 -31.5q-58 0 -101 31.5t-66.5 88.5t-23.5 135q0 79 24.5 137.5t69.5 90.5t106 32t99.5 -32t46.5 -89h-7v111h114v-505q0 -104 -59 -162t-164 -58z
M261 102q49 0 77.5 41.5t28.5 120.5q0 78 -28.5 118.5t-78.5 40.5q-49 0 -77.5 -41.5t-28.5 -120.5q0 -78 28.5 -118.5t78.5 -40.5zM260 583q-32 0 -55 23t-23 56q0 35 23 57t55 22q33 0 55 -22t22 -57q0 -33 -22 -56t-55 -23z" />
    <glyph glyph-name="i.ss01" horiz-adv-x="237" 
d="M58 0v510h121v-510h-121zM119 583q-32 0 -55 23t-23 56q0 35 23 57t55 22q33 0 55 -22t22 -57q0 -33 -22 -56t-55 -23z" />
    <glyph glyph-name="idieresis.ss01" horiz-adv-x="237" 
d="M58 0v510h121v-510h-121zM11 592q-30 0 -50.5 21.5t-20.5 52.5t20.5 51t50.5 20t50.5 -20t20.5 -52q0 -31 -20.5 -52t-50.5 -21zM226 592q-30 0 -50.5 21.5t-20.5 52.5t21 51t50 20q30 0 50.5 -20t20.5 -52q0 -31 -20.5 -52t-50.5 -21z" />
    <glyph glyph-name="i.loclTRK.ss01" horiz-adv-x="237" 
d="M58 0v510h121v-510h-121zM119 583q-32 0 -55 23t-23 56q0 35 23 57t55 22q33 0 55 -22t22 -57q0 -33 -22 -56t-55 -23z" />
    <glyph glyph-name="ij.ss01" horiz-adv-x="469" 
d="M58 0v510h121v-510h-121zM119 583q-32 0 -55 23t-23 56q0 35 23 57t55 22q33 0 55 -22t22 -57q0 -33 -22 -56t-55 -23zM261 -215q-17 0 -30 2t-24 5v93q6 -2 14.5 -3t18.5 -1q25 0 37.5 11t12.5 34v584h121v-589q0 -64 -37 -100t-113 -36zM350 583q-32 0 -55 23t-23 56
q0 35 23 57t55 22q33 0 55 -22t22 -57q0 -33 -22 -56t-55 -23z" />
    <glyph glyph-name="iogonek.ss01" horiz-adv-x="237" 
d="M58 0v510h121v-510h-121zM119 583q-32 0 -55 23t-23 56q0 35 23 57t55 22q33 0 55 -22t22 -57q0 -33 -22 -56t-55 -23zM108 -216q-46 0 -71 23t-25 60q0 44 34.5 82t89.5 68l42 -17q-45 -36 -67 -64.5t-22 -55.5q0 -17 9 -25t21 -8q20 0 37 15l28 -56q-14 -10 -32.5 -16
t-43.5 -6z" />
    <glyph glyph-name="j.ss01" horiz-adv-x="237" 
d="M29 -215q-17 0 -30 2t-24 5v93q6 -2 14.5 -3t18.5 -1q25 0 37.5 11t12.5 34v584h121v-589q0 -64 -37 -100t-113 -36zM119 583q-32 0 -55 23t-23 56q0 35 23 57t55 22q33 0 55 -22t22 -57q0 -33 -22 -56t-55 -23z" />
    <glyph glyph-name="uni0137.ss01" horiz-adv-x="489" 
d="M58 0v723h121v-723h-121zM341 0l-182 265l176 245h135l-205 -267l4 46l211 -289h-139zM196 -324v56q33 5 49.5 24.5t16.5 54.5h37q-9 -6 -21.5 -11t-23.5 -5q-30 0 -51 19.5t-21 49.5q0 31 21 50.5t48 19.5q32 0 54 -23.5t22 -74.5q0 -41 -16 -75t-45 -56.5t-70 -28.5z
" />
    <glyph glyph-name="uni013C.ss01" horiz-adv-x="237" 
d="M58 0v720h121v-720h-121zM60 -324v56q33 5 49.5 24.5t16.5 54.5h37q-9 -6 -21.5 -11t-23.5 -5q-30 0 -51 19.5t-21 49.5q0 31 21 50.5t48 19.5q32 0 54 -23.5t22 -74.5q0 -41 -16 -75t-45 -56.5t-70 -28.5z" />
    <glyph glyph-name="uni0146.ss01" horiz-adv-x="531" 
d="M58 0v510h116v-108h5v-402h-121zM357 0v344q0 40 -18.5 59t-53.5 19q-32 0 -56 -15.5t-37 -41t-13 -59.5l-14 100q22 53 65 83.5t103 30.5q68 0 106 -40.5t38 -109.5v-370h-120zM213 -324v56q33 5 49.5 24.5t16.5 54.5h37q-9 -6 -21.5 -11t-23.5 -5q-30 0 -51 19.5
t-21 49.5q0 31 21 50.5t48 19.5q32 0 54 -23.5t22 -74.5q0 -41 -16 -75t-45 -56.5t-70 -28.5z" />
    <glyph glyph-name="odieresis.ss01" horiz-adv-x="521" 
d="M261 -10q-71 0 -124 34t-82 94t-29 139t29.5 138t82 92t123.5 33t123.5 -33t81.5 -92t29 -138t-29 -139t-81.5 -94t-123.5 -34zM261 86q32 0 57 20t38.5 58t13.5 94q0 82 -30 124t-79 42t-79.5 -42t-30.5 -124q0 -56 14 -94t38.5 -58t57.5 -20zM153 592q-30 0 -50.5 21.5
t-20.5 52.5t20.5 51t50.5 20t50.5 -20t20.5 -52q0 -31 -20.5 -52t-50.5 -21zM368 592q-30 0 -50.5 21.5t-20.5 52.5t21 51t50 20q30 0 50.5 -20t20.5 -52q0 -31 -20.5 -52t-50.5 -21z" />
    <glyph glyph-name="uni0157.ss01" horiz-adv-x="343" 
d="M58 0v510h116v-121h5v-389h-121zM179 285l-15 102q18 68 53.5 100.5t85.5 32.5q16 0 25 -3v-117q-4 2 -11.5 2.5t-18.5 0.5q-58 0 -88.5 -28.5t-30.5 -89.5zM57 -324v56q33 5 49.5 24.5t16.5 54.5h37q-9 -6 -21.5 -11t-23.5 -5q-30 0 -51 19.5t-21 49.5q0 31 21 50.5
t48 19.5q32 0 54 -23.5t22 -74.5q0 -41 -16 -75t-45 -56.5t-70 -28.5z" />
    <glyph glyph-name="uni0219.ss01" horiz-adv-x="421" 
d="M221 -10q-89 0 -141 44t-57 124h105q4 -40 28.5 -60.5t65.5 -20.5q36 0 54.5 14t18.5 41q0 20 -12 35t-47 30l-70 28q-61 23 -92 59.5t-31 89.5q0 67 46.5 106.5t125.5 39.5q80 0 127.5 -40t52.5 -112h-104q-4 33 -23 49t-53 16q-31 0 -48 -13t-17 -37q0 -20 13.5 -34.5
t47.5 -28.5l75 -31q56 -20 86 -60t30 -93q0 -68 -48 -107t-133 -39zM162 -324v56q33 5 49.5 24.5t16.5 54.5h37q-9 -6 -21.5 -11t-23.5 -5q-30 0 -51 19.5t-21 49.5q0 31 21 50.5t48 19.5q32 0 54 -23.5t22 -74.5q0 -41 -16 -75t-45 -56.5t-70 -28.5z" />
    <glyph glyph-name="uni021B.ss01" horiz-adv-x="350" 
d="M256 -10q-82 0 -122 39.5t-40 117.5v468l121 49v-518q0 -30 16.5 -45t52.5 -15q14 0 25 2.5t20 6.5v-93q-11 -6 -30.5 -9t-42.5 -3zM13 415v95h315v-95h-315zM167 -324v56q33 5 49.5 24.5t16.5 54.5h37q-9 -6 -21.5 -11t-23.5 -5q-30 0 -51 19.5t-21 49.5q0 31 21 50.5
t48 19.5q32 0 54 -23.5t22 -74.5q0 -41 -16 -75t-45 -56.5t-70 -28.5z" />
    <glyph glyph-name="udieresis.ss01" horiz-adv-x="522" 
d="M194 -10q-43 0 -74.5 18.5t-49 51.5t-17.5 78v372h121v-346q0 -38 18 -57t50 -19q31 0 53.5 15.5t35.5 41.5t13 58l14 -100q-22 -52 -64 -82.5t-100 -30.5zM349 0v107h-5v403h120v-510h-115zM154 592q-30 0 -50.5 21.5t-20.5 52.5t20.5 51t50.5 20t50.5 -20t20.5 -52
q0 -31 -20.5 -52t-50.5 -21zM369 592q-30 0 -50.5 21.5t-20.5 52.5t21 51t50 20q30 0 50.5 -20t20.5 -52q0 -31 -20.5 -52t-50.5 -21z" />
    <glyph glyph-name="wdieresis.ss01" horiz-adv-x="720" 
d="M155 0l-134 510h123l78 -383h-10l95 383h111l95 -383h-10l78 383h118l-134 -510h-116l-94 378h11l-95 -378h-116zM252 592q-30 0 -50.5 21.5t-20.5 52.5t20.5 51t50.5 20t50.5 -20t20.5 -52q0 -31 -20.5 -52t-50.5 -21zM467 592q-30 0 -50.5 21.5t-20.5 52.5t21 51t50 20
q30 0 50.5 -20t20.5 -52q0 -31 -20.5 -52t-50.5 -21z" />
    <glyph glyph-name="ydieresis.ss01" horiz-adv-x="472" 
d="M99 -205l103 292l21 32l116 391h123l-245 -715h-118zM190 -2l-179 512h129l136 -451zM132 592q-30 0 -50.5 21.5t-20.5 52.5t20.5 51t50.5 20t50.5 -20t20.5 -52q0 -31 -20.5 -52t-50.5 -21zM347 592q-30 0 -50.5 21.5t-20.5 52.5t21 51t50 20q30 0 50.5 -20t20.5 -52
q0 -31 -20.5 -52t-50.5 -21z" />
    <glyph glyph-name="zdotaccent.ss01" horiz-adv-x="445" 
d="M40 0v85l239 363l23 -33h-253v95h355v-78l-241 -368l-22 31h268v-95h-369zM223 583q-32 0 -55 23t-23 56q0 35 23 57t55 22q33 0 55 -22t22 -57q0 -33 -22 -56t-55 -23z" />
    <glyph glyph-name="a.ss02" 
d="M221 -10q-59 0 -102 32t-66 90t-23 139q0 82 24 142.5t68.5 93.5t103.5 33q58 0 99.5 -31.5t50.5 -89.5l-9 -2v113h116v-510h-116v107l9 -2q-12 -54 -54.5 -84.5t-100.5 -30.5zM261 88q50 0 78 42.5t28 125.5q0 82 -28 123.5t-79 41.5t-78.5 -42.5t-27.5 -124.5t28 -124
t79 -42z" />
    <glyph glyph-name="aacute.ss02" 
d="M221 -10q-59 0 -102 32t-66 90t-23 139q0 82 24 142.5t68.5 93.5t103.5 33q58 0 99.5 -31.5t50.5 -89.5l-9 -2v113h116v-510h-116v107l9 -2q-12 -54 -54.5 -84.5t-100.5 -30.5zM261 88q50 0 78 42.5t28 125.5q0 82 -28 123.5t-79 41.5t-78.5 -42.5t-27.5 -124.5t28 -124
t79 -42zM288 583h-101l87 157h156z" />
    <glyph glyph-name="abreve.ss02" 
d="M221 -10q-59 0 -102 32t-66 90t-23 139q0 82 24 142.5t68.5 93.5t103.5 33q58 0 99.5 -31.5t50.5 -89.5l-9 -2v113h116v-510h-116v107l9 -2q-12 -54 -54.5 -84.5t-100.5 -30.5zM261 88q50 0 78 42.5t28 125.5q0 82 -28 123.5t-79 41.5t-78.5 -42.5t-27.5 -124.5t28 -124
t79 -42zM271 576q-44 0 -80 19.5t-57.5 56.5t-21.5 88h81q0 -33 20.5 -54.5t57.5 -21.5t57 21.5t20 54.5h82q0 -51 -21.5 -87.5t-57.5 -56.5t-80 -20z" />
    <glyph glyph-name="uni01CE.ss02" 
d="M221 -10q-59 0 -102 32t-66 90t-23 139q0 82 24 142.5t68.5 93.5t103.5 33q58 0 99.5 -31.5t50.5 -89.5l-9 -2v113h116v-510h-116v107l9 -2q-12 -54 -54.5 -84.5t-100.5 -30.5zM261 88q50 0 78 42.5t28 125.5q0 82 -28 123.5t-79 41.5t-78.5 -42.5t-27.5 -124.5t28 -124
t79 -42zM212 583l-118 157h95l131 -127h-97l131 127h94l-117 -157h-119z" />
    <glyph glyph-name="acircumflex.ss02" 
d="M221 -10q-59 0 -102 32t-66 90t-23 139q0 82 24 142.5t68.5 93.5t103.5 33q58 0 99.5 -31.5t50.5 -89.5l-9 -2v113h116v-510h-116v107l9 -2q-12 -54 -54.5 -84.5t-100.5 -30.5zM261 88q50 0 78 42.5t28 125.5q0 82 -28 123.5t-79 41.5t-78.5 -42.5t-27.5 -124.5t28 -124
t79 -42zM93 583l118 157h119l117 -157h-94l-131 127h97l-131 -127h-95z" />
    <glyph glyph-name="adieresis.ss02" 
d="M221 -10q-59 0 -102 32t-66 90t-23 139q0 82 24 142.5t68.5 93.5t103.5 33q58 0 99.5 -31.5t50.5 -89.5l-9 -2v113h116v-510h-116v107l9 -2q-12 -54 -54.5 -84.5t-100.5 -30.5zM261 88q50 0 78 42.5t28 125.5q0 82 -28 123.5t-79 41.5t-78.5 -42.5t-27.5 -124.5t28 -124
t79 -42zM313 594v132h130v-132h-130zM98 594v132h129v-132h-129z" />
    <glyph glyph-name="agrave.ss02" 
d="M221 -10q-59 0 -102 32t-66 90t-23 139q0 82 24 142.5t68.5 93.5t103.5 33q58 0 99.5 -31.5t50.5 -89.5l-9 -2v113h116v-510h-116v107l9 -2q-12 -54 -54.5 -84.5t-100.5 -30.5zM261 88q50 0 78 42.5t28 125.5q0 82 -28 123.5t-79 41.5t-78.5 -42.5t-27.5 -124.5t28 -124
t79 -42zM254 583l-142 157h156l87 -157h-101z" />
    <glyph glyph-name="amacron.ss02" 
d="M221 -10q-59 0 -102 32t-66 90t-23 139q0 82 24 142.5t68.5 93.5t103.5 33q58 0 99.5 -31.5t50.5 -89.5l-9 -2v113h116v-510h-116v107l9 -2q-12 -54 -54.5 -84.5t-100.5 -30.5zM261 88q50 0 78 42.5t28 125.5q0 82 -28 123.5t-79 41.5t-78.5 -42.5t-27.5 -124.5t28 -124
t79 -42zM111 628v86h319v-86h-319z" />
    <glyph glyph-name="aogonek.ss02" 
d="M221 -10q-59 0 -102 32t-66 90t-23 139q0 82 24 142.5t68.5 93.5t103.5 33q58 0 99.5 -31.5t50.5 -89.5l-9 -2v113h116v-510h-116v107l9 -2q-12 -54 -54.5 -84.5t-100.5 -30.5zM261 88q50 0 78 42.5t28 125.5q0 82 -28 123.5t-79 41.5t-78.5 -42.5t-27.5 -124.5t28 -124
t79 -42zM413 -216q-46 0 -71 23t-25 60q0 44 34.5 82t89.5 68l42 -17q-45 -36 -67 -64.5t-22 -55.5q0 -17 9 -25t21 -8q20 0 37 15l28 -56q-14 -10 -32.5 -16t-43.5 -6z" />
    <glyph glyph-name="aring.ss02" 
d="M221 -10q-59 0 -102 32t-66 90t-23 139q0 82 24 142.5t68.5 93.5t103.5 33q58 0 99.5 -31.5t50.5 -89.5l-9 -2v113h116v-510h-116v107l9 -2q-12 -54 -54.5 -84.5t-100.5 -30.5zM261 88q50 0 78 42.5t28 125.5q0 82 -28 123.5t-79 41.5t-78.5 -42.5t-27.5 -124.5t28 -124
t79 -42zM271 561q-46 0 -77 31.5t-31 76.5q0 44 31 75.5t77 31.5t76.5 -31.5t30.5 -75.5q0 -45 -30.5 -76.5t-76.5 -31.5zM271 624q19 0 31 13t12 32t-12 31.5t-31 12.5q-20 0 -32 -12.5t-12 -31.5t12 -32t32 -13z" />
    <glyph glyph-name="atilde.ss02" 
d="M221 -10q-59 0 -102 32t-66 90t-23 139q0 82 24 142.5t68.5 93.5t103.5 33q58 0 99.5 -31.5t50.5 -89.5l-9 -2v113h116v-510h-116v107l9 -2q-12 -54 -54.5 -84.5t-100.5 -30.5zM261 88q50 0 78 42.5t28 125.5q0 82 -28 123.5t-79 41.5t-78.5 -42.5t-27.5 -124.5t28 -124
t79 -42zM341 597q-27 0 -46 7.5t-34 18.5t-29 19t-31 8q-18 0 -29 -11.5t-11 -35.5h-74q0 38 14 68t40.5 47t62.5 17q28 0 46.5 -8t32 -18.5t27 -18.5t30.5 -8q19 0 30.5 11.5t11.5 35.5h73q0 -38 -14 -68t-39.5 -47t-60.5 -17z" />
    <glyph glyph-name="y.ss03" horiz-adv-x="479" 
d="M114 -215q-16 0 -29 2t-25 5v96q7 -2 16 -3.5t20 -1.5q28 0 48 15.5t31 51.5l40 134l28 42l110 384h116l-197 -592q-15 -48 -38 -77.5t-52.5 -42.5t-67.5 -13zM197 -1l-180 511h126l134 -440z" />
    <glyph glyph-name="yacute.ss03" horiz-adv-x="479" 
d="M114 -215q-16 0 -29 2t-25 5v96q7 -2 16 -3.5t20 -1.5q28 0 48 15.5t31 51.5l40 134l28 42l110 384h116l-197 -592q-15 -48 -38 -77.5t-52.5 -42.5t-67.5 -13zM197 -1l-180 511h126l134 -440zM256 583h-101l87 157h156z" />
    <glyph glyph-name="ycircumflex.ss03" horiz-adv-x="479" 
d="M114 -215q-16 0 -29 2t-25 5v96q7 -2 16 -3.5t20 -1.5q28 0 48 15.5t31 51.5l40 134l28 42l110 384h116l-197 -592q-15 -48 -38 -77.5t-52.5 -42.5t-67.5 -13zM197 -1l-180 511h126l134 -440zM62 583l118 157h119l117 -157h-94l-131 127h97l-131 -127h-95z" />
    <glyph glyph-name="ydieresis.ss03" horiz-adv-x="479" 
d="M114 -215q-16 0 -29 2t-25 5v96q7 -2 16 -3.5t20 -1.5q28 0 48 15.5t31 51.5l40 134l28 42l110 384h116l-197 -592q-15 -48 -38 -77.5t-52.5 -42.5t-67.5 -13zM197 -1l-180 511h126l134 -440zM282 594v132h130v-132h-130zM67 594v132h129v-132h-129z" />
    <glyph glyph-name="ygrave.ss03" horiz-adv-x="479" 
d="M114 -215q-16 0 -29 2t-25 5v96q7 -2 16 -3.5t20 -1.5q28 0 48 15.5t31 51.5l40 134l28 42l110 384h116l-197 -592q-15 -48 -38 -77.5t-52.5 -42.5t-67.5 -13zM197 -1l-180 511h126l134 -440zM222 583l-142 157h156l87 -157h-101z" />
    <glyph glyph-name="k.ss04" horiz-adv-x="489" 
d="M58 0v720h121v-720h-121zM142 235l192 275h134l-174 -237l-14 -5l-117 -151zM306 310l177 -310h-132l-146 270z" />
    <glyph glyph-name="uni0137.ss04" horiz-adv-x="489" 
d="M58 0v720h121v-720h-121zM142 235l192 275h134l-174 -237l-14 -5l-117 -151zM306 310l177 -310h-132l-146 270zM189 -324v56q33 5 49.5 24.5t16.5 54.5l44 -9h-110v125h131v-97q0 -63 -34.5 -104t-96.5 -50z" />
    <glyph glyph-name="adieresis.ss01.ss02" 
d="M221 -10q-59 0 -102 32t-66 90t-23 139q0 82 24 142.5t68.5 93.5t103.5 33q58 0 99.5 -31.5t50.5 -89.5l-9 -2v113h116v-510h-116v107l9 -2q-12 -54 -54.5 -84.5t-100.5 -30.5zM261 88q50 0 78 42.5t28 125.5q0 82 -28 123.5t-79 41.5t-78.5 -42.5t-27.5 -124.5t28 -124
t79 -42zM163 592q-30 0 -50.5 21.5t-20.5 52.5t20.5 51t50.5 20t50.5 -20t20.5 -52q0 -31 -20.5 -52t-50.5 -21zM378 592q-30 0 -50.5 21.5t-20.5 52.5t21 51t50 20q30 0 50.5 -20t20.5 -52q0 -31 -20.5 -52t-50.5 -21z" />
    <glyph glyph-name="ydieresis.ss01.ss03" horiz-adv-x="479" 
d="M114 -215q-16 0 -29 2t-25 5v96q7 -2 16 -3.5t20 -1.5q28 0 48 15.5t31 51.5l40 134l28 42l110 384h116l-197 -592q-15 -48 -38 -77.5t-52.5 -42.5t-67.5 -13zM197 -1l-180 511h126l134 -440zM132 592q-30 0 -50.5 21.5t-20.5 52.5t20.5 51t50.5 20t50.5 -20t20.5 -52
q0 -31 -20.5 -52t-50.5 -21zM347 592q-30 0 -50.5 21.5t-20.5 52.5t21 51t50 20q30 0 50.5 -20t20.5 -52q0 -31 -20.5 -52t-50.5 -21z" />
    <glyph glyph-name="uni0137.ss01.ss04" horiz-adv-x="489" 
d="M58 0v720h121v-720h-121zM142 235l192 275h134l-174 -237l-14 -5l-117 -151zM306 310l177 -310h-132l-146 270zM196 -324v56q33 5 49.5 24.5t16.5 54.5h37q-9 -6 -21.5 -11t-23.5 -5q-30 0 -51 19.5t-21 49.5q0 31 21 50.5t48 19.5q32 0 54 -23.5t22 -74.5q0 -41 -16 -75
t-45 -56.5t-70 -28.5z" />
    <glyph glyph-name="f_f_i.ss01" horiz-adv-x="827" 
d="M370 0v574q0 76 41.5 116t118.5 40q19 0 31.5 -1.5t23.5 -5.5v-100q-6 2 -14.5 3.5t-19.5 1.5q-30 0 -45 -15.5t-15 -45.5v-567h-121zM88 0v574q0 76 41.5 116t119.5 40q19 0 31.5 -1.5t24.5 -5.5v-100q-6 2 -15 3.5t-21 1.5q-30 0 -45 -16t-15 -45v-567h-121zM13 408
v102h678v-102h-678zM651 0v510h121v-510h-121zM714 578q-30 0 -51.5 21.5t-21.5 52.5q0 33 21.5 53t51.5 20q31 0 51.5 -20t20.5 -53q0 -31 -20.5 -52.5t-51.5 -21.5z" />
    <glyph glyph-name="f_i.ss01" horiz-adv-x="557" 
d="M88 0v574q0 76 41.5 116t119.5 40q18 0 30.5 -1.5t23.5 -5.5v-100q-6 2 -14.5 3.5t-19.5 1.5q-30 0 -45 -15.5t-15 -45.5v-567h-121zM369 0v510h121v-510h-121zM432 581q-30 0 -51.5 21.5t-21.5 52.5q0 33 21.5 53.5t51.5 20.5q31 0 51.5 -20.5t20.5 -53.5
q0 -31 -20.5 -52.5t-51.5 -21.5zM13 408v102h396v-102h-396z" />
    <glyph glyph-name="two.ss10" horiz-adv-x="485" 
d="M34 0v75q0 63 21 110.5t54.5 84.5t71 68.5t71 62t54.5 63.5t21 75q0 46 -22.5 70t-60.5 24q-44 0 -71.5 -30.5t-30.5 -89.5h-120q5 101 66 159t160 58q96 0 151 -52t55 -145q0 -50 -17.5 -89t-46 -71.5t-63 -60t-67.5 -54.5t-60 -56t-41 -63.5t-10 -77.5l-16 35h332v-96
h-431z" />
    <glyph glyph-name="zero.tf" horiz-adv-x="548" 
d="M274 -10q-72 0 -127 43.5t-86 126.5t-31 203q0 119 30.5 201t86 124t127.5 42q73 0 128 -42t85.5 -124t30.5 -202t-31 -203t-86 -126t-127 -43zM274 91q36 0 61.5 30.5t39 91t13.5 151.5q0 90 -13.5 148.5t-39 87.5t-61.5 29q-37 0 -62 -29t-38.5 -87.5t-13.5 -148.5
q0 -91 13.5 -151.5t39 -91t61.5 -30.5z" />
    <glyph glyph-name="one.tf" horiz-adv-x="548" 
d="M250 32v594l21 -27q-15 -30 -40.5 -56t-59 -43.5t-73.5 -25.5v122q39 8 73.5 26.5t61 43.5t41.5 54h98v-688h-122zM91 0v96h418v-96h-418z" />
    <glyph glyph-name="two.tf" horiz-adv-x="548" 
d="M72 0v91q76 83 129 148t85.5 117.5t47 96.5t14.5 83q0 48 -19 72.5t-56 24.5q-42 0 -65 -31t-26 -89h-122q5 100 63.5 158.5t155.5 58.5q92 0 145 -53t53 -146q0 -47 -16.5 -97.5t-51 -107t-88 -122.5t-129.5 -144l-25 36h321v-96h-416z" />
    <glyph glyph-name="three.tf" horiz-adv-x="548" 
d="M278 -10q-66 0 -115 27.5t-77 80t-31 127.5h122q3 -69 27 -103.5t70 -34.5q39 0 63.5 29.5t24.5 84.5q0 58 -25 92.5t-80 34.5h-55v95h52q49 0 72 30.5t23 80.5q0 47 -19 73t-58 26q-38 0 -61.5 -29.5t-26.5 -89.5h-122q4 67 31.5 115.5t74.5 74.5t110 26q60 0 104.5 -23
t69.5 -65t25 -99q0 -51 -20 -90.5t-52 -61.5t-70 -22l-1 21q47 0 82.5 -25t55 -69t19.5 -100q0 -62 -27 -109t-75.5 -72t-110.5 -25z" />
    <glyph glyph-name="four.tf" horiz-adv-x="548" 
d="M315 0v185l6 20v394l44 -11l-218 -381l-36 32h396v-96h-466v93l276 484h123v-720h-125z" />
    <glyph glyph-name="five.tf" horiz-adv-x="548" 
d="M275 -10q-96 0 -153 58.5t-65 161.5h122q3 -60 29 -91.5t65 -31.5q41 0 65 35t24 112q0 76 -23 112t-65 36q-27 0 -48 -15t-32 -44h-106l24 397h345v-96h-293l61 33l-13 -252l-35 1q18 30 48 48.5t77 18.5q58 0 100.5 -28.5t66 -81.5t23.5 -128q0 -79 -27 -133.5
t-75.5 -83t-114.5 -28.5z" />
    <glyph glyph-name="six.tf" horiz-adv-x="548" 
d="M285 -10q-114 0 -175 90t-61 267q0 124 29 209t83.5 129.5t133.5 44.5q87 0 140 -53t61 -147h-121q-4 51 -26.5 77t-57.5 26q-58 0 -85.5 -67t-27.5 -212v-45l-27 8q10 44 32 74t55.5 46t75.5 16q58 0 101 -28t66.5 -79t23.5 -120q0 -73 -27 -126t-76.5 -81.5
t-116.5 -28.5zM279 87q43 0 69.5 35t26.5 103t-27 102.5t-70 34.5q-44 0 -72 -34t-28 -100q0 -45 13.5 -76.5t36.5 -48t51 -16.5z" />
    <glyph glyph-name="seven.tf" horiz-adv-x="548" 
d="M162 0q13 179 67 340t149 306l30 -22h-349v96h430v-89q-86 -146 -135 -301t-60 -330h-132z" />
    <glyph glyph-name="eight.tf" horiz-adv-x="548" 
d="M275 -10q-67 0 -117.5 26.5t-78.5 73.5t-28 109q0 54 21 97.5t57 68.5t83 25l10 -21q-47 0 -82 21t-54 59.5t-19 88.5q0 58 26 101t72.5 67t108.5 24q63 0 109.5 -24t72 -67t25.5 -101q0 -50 -19 -88t-53.5 -59.5t-82.5 -21.5l11 21q46 0 82 -25t57 -68.5t21 -98.5
q0 -62 -28 -109t-78 -73t-116 -26zM274 87q44 0 68.5 32.5t24.5 88.5q0 57 -25 89.5t-68 32.5t-68 -32.5t-25 -89.5t24.5 -89t68.5 -32zM274 422q35 0 56.5 28.5t21.5 76.5q0 50 -21 78t-57 28t-57 -28.5t-21 -77.5q0 -48 22 -76.5t56 -28.5z" />
    <glyph glyph-name="nine.tf" horiz-adv-x="548" 
d="M260 -10q-59 0 -104.5 25.5t-72 75t-31.5 118.5h121q5 -66 29.5 -94t62.5 -28q28 0 47.5 14.5t31.5 46t17.5 85.5t5.5 133v45l31 1q-10 -43 -32.5 -73.5t-56 -46.5t-75.5 -16q-57 0 -100.5 28t-67 78t-23.5 116q0 71 27 123t77 80.5t117 28.5q117 0 176 -91t59 -270
q0 -129 -26.5 -213t-79.5 -125t-133 -41zM270 368q46 0 70 33t24 95t-24.5 99.5t-69.5 37.5t-70 -35.5t-25 -97.5t25 -97t70 -35z" />
    <glyph glyph-name="two.tf.ss10" horiz-adv-x="548" 
d="M72 0v75q0 63 20 110.5t51.5 84.5t66.5 68.5t66.5 62.5t51.5 65t20 76q0 44 -19.5 67.5t-54.5 23.5q-41 0 -65 -29.5t-27 -90.5h-122q5 101 63 159t155 58q92 0 145.5 -51.5t53.5 -141.5q0 -51 -16.5 -91t-44 -72.5t-59.5 -60.5t-63.5 -55t-56.5 -56t-38.5 -63.5
t-8.5 -77.5l-16 35h314v-96h-416z" />
    <glyph glyph-name="colon.case" horiz-adv-x="253" 
d="M57 132v140h139v-140h-139zM57 479v140h139v-140h-139z" />
    <glyph glyph-name="semicolon.case" horiz-adv-x="253" 
d="M57 -23v61q41 12 55 37t14 68l48 -11h-117v140h139v-102q0 -71 -33 -122t-106 -71zM57 479v140h139v-140h-139z" />
    <glyph glyph-name="exclam.case" horiz-adv-x="273" 
d="M88 244l-19 476h134l-18 -476h-97zM67 0v140h139v-140h-139z" />
    <glyph glyph-name="exclamdown.case" horiz-adv-x="271" 
d="M68 0l19 476h97l19 -476h-135zM206 720v-140h-140v140h140z" />
    <glyph glyph-name="question.case" horiz-adv-x="493" 
d="M192 244q0 50 11 85t28 61t36 45.5t36.5 38t28.5 39t11 48.5q0 32 -22 52t-64 20q-47 0 -75 -28t-33 -84h-116q4 65 33.5 111.5t79.5 72t115 25.5q63 0 109 -22t71 -60t25 -86q0 -40 -11.5 -69t-29.5 -51t-38.5 -41.5t-39 -41.5t-30 -49.5t-11.5 -65.5h-114zM179 0v140
h140v-140h-140z" />
    <glyph glyph-name="questiondown.case" horiz-adv-x="493" 
d="M232 -10q-62 0 -108 22t-71.5 62t-25.5 93q0 40 11.5 68.5t29.5 50t38.5 40.5t38.5 39.5t29.5 47t11.5 63.5h115q0 -49 -11 -83t-28.5 -58t-36.5 -42.5t-36 -36t-28 -37.5t-11 -47q0 -40 23.5 -60.5t63.5 -20.5q44 0 72.5 24.5t32.5 73.5h118q-4 -62 -34 -106.5
t-80 -68.5t-114 -24zM313 720v-140h-139v140h139z" />
    <glyph glyph-name="bullet.case" horiz-adv-x="651" 
d="M57 110v539h537v-539h-537z" />
    <glyph glyph-name="periodcentered.loclCAT" horiz-adv-x="156" 
d="M79 295q-33 0 -56 21.5t-23 57.5q0 34 23 55.5t56 21.5q30 0 53.5 -21.5t23.5 -55.5q0 -36 -23.5 -57.5t-53.5 -21.5z" />
    <glyph glyph-name="period.ss01" horiz-adv-x="253" 
d="M127 -10q-33 0 -56 21.5t-23 57.5q0 34 23 55.5t56 21.5q30 0 53.5 -21.5t23.5 -55.5q0 -36 -23.5 -57.5t-53.5 -21.5z" />
    <glyph glyph-name="comma.ss01" horiz-adv-x="253" 
d="M64 -155v61q35 12 53 37t18 68h39q-9 -7 -22 -12t-26 -5q-33 0 -55.5 21t-22.5 55t23 55t53 21q33 0 56.5 -25.5t23.5 -82.5q0 -72 -37 -123t-103 -70z" />
    <glyph glyph-name="colon.ss01" horiz-adv-x="253" 
d="M127 -10q-33 0 -56 21.5t-23 57.5q0 34 23 55.5t56 21.5q30 0 53.5 -21.5t23.5 -55.5q0 -36 -23.5 -57.5t-53.5 -21.5zM127 337q-33 0 -56 21.5t-23 57.5q0 34 23 55.5t56 21.5q30 0 53.5 -21.5t23.5 -55.5q0 -36 -23.5 -57.5t-53.5 -21.5z" />
    <glyph glyph-name="semicolon.ss01" horiz-adv-x="255" 
d="M64 -155v61q35 12 53 37t18 68h39q-9 -7 -22 -12t-26 -5q-33 0 -55.5 21t-22.5 55t23 55t53 21q33 0 56.5 -25.5t23.5 -82.5q0 -72 -37 -123t-103 -70zM129 337q-33 0 -56 21.5t-23 57.5q0 34 23 55.5t56 21.5q30 0 53.5 -21.5t23.5 -55.5q0 -36 -23.5 -57.5t-53.5 -21.5
z" />
    <glyph glyph-name="ellipsis.ss01" horiz-adv-x="665" 
d="M127 -10q-33 0 -56 21.5t-23 57.5q0 34 23 55.5t56 21.5q30 0 53.5 -21.5t23.5 -55.5q0 -36 -23.5 -57.5t-53.5 -21.5zM333 -10q-33 0 -56 21.5t-23 57.5q0 34 23 55.5t56 21.5q30 0 53.5 -21.5t23.5 -55.5q0 -36 -23.5 -57.5t-53.5 -21.5zM539 -10q-33 0 -56 21.5
t-23 57.5q0 34 23 55.5t56 21.5q30 0 53.5 -21.5t23.5 -55.5q0 -36 -23.5 -57.5t-53.5 -21.5z" />
    <glyph glyph-name="exclam.ss01" horiz-adv-x="273" 
d="M88 244l-19 496h134l-18 -496h-97zM137 -10q-33 0 -56 21.5t-23 57.5q0 34 23 55.5t56 21.5q30 0 53.5 -21.5t23.5 -55.5q0 -36 -23.5 -57.5t-53.5 -21.5z" />
    <glyph glyph-name="exclamdown.ss01" horiz-adv-x="287" 
d="M76 -204l19 470h97l18 -470h-134zM143 520q34 0 56.5 -21.5t22.5 -56.5q0 -34 -23 -56t-56 -22q-30 0 -54 22t-24 55q0 36 24 57.5t54 21.5z" />
    <glyph glyph-name="question.ss01" horiz-adv-x="493" 
d="M192 244q0 52 11 89t28 64t36 47.5t36.5 39t28.5 39t11 48.5q0 39 -22.5 60.5t-63.5 21.5q-47 0 -75 -28t-33 -84h-116q4 65 33.5 111.5t79.5 72t115 25.5q62 0 108 -22.5t71.5 -62.5t25.5 -93q0 -40 -11.5 -69t-29.5 -51t-38.5 -42.5t-39 -43.5t-30 -52t-11.5 -70h-114z
M249 -10q-33 0 -55.5 21.5t-22.5 57.5q0 34 22.5 55.5t55.5 21.5q31 0 54.5 -21.5t23.5 -55.5q0 -36 -23.5 -57.5t-54.5 -21.5z" />
    <glyph glyph-name="questiondown.ss01" horiz-adv-x="493" 
d="M232 -215q-62 0 -108 22t-71.5 61t-25.5 90q0 41 11.5 69t29.5 49.5t38.5 40t38.5 39t29.5 47t11.5 63.5h115q0 -49 -11 -83t-28.5 -58t-36.5 -42.5t-36 -36t-28 -37.5t-11 -47q0 -36 23.5 -56t63.5 -20q44 0 72.5 24.5t32.5 73.5h118q-4 -62 -34 -106.5t-80 -68.5
t-114 -24zM243 520q33 0 56 -21.5t23 -56.5q0 -34 -23 -56t-56 -22q-30 0 -54 22t-24 56q0 35 24 56.5t54 21.5z" />
    <glyph glyph-name="periodcentered.ss01" horiz-adv-x="156" 
d="M79 295q-33 0 -56 21.5t-23 57.5q0 34 23 55.5t56 21.5q30 0 53.5 -21.5t23.5 -55.5q0 -36 -23.5 -57.5t-53.5 -21.5z" />
    <glyph glyph-name="bullet.ss01" horiz-adv-x="335" 
d="M168 251q-47 0 -79 30.5t-32 80.5q0 48 32 79.5t79 31.5q43 0 77 -31.5t34 -79.5q0 -50 -34 -80.5t-77 -30.5z" />
    <glyph glyph-name="periodcentered.loclCAT.case" horiz-adv-x="140" 
d="M0 359v140h139v-140h-139z" />
    <glyph glyph-name="bullet.case.ss01" horiz-adv-x="714" 
d="M359 71q-128 0 -215 83t-87 219q0 130 87 215t215 85q116 0 207.5 -85t91.5 -215q0 -136 -91.5 -219t-207.5 -83z" />
    <glyph glyph-name="periodcentered.loclCAT.case.ss01" horiz-adv-x="156" 
d="M79 349q-33 0 -56 21.5t-23 57.5q0 34 23 55.5t56 21.5q30 0 53.5 -21.5t23.5 -55.5q0 -36 -23.5 -57.5t-53.5 -21.5z" />
    <glyph glyph-name="hyphen.case" horiz-adv-x="422" 
d="M58 308v104h306v-104h-306z" />
    <glyph glyph-name="endash.case" horiz-adv-x="522" 
d="M58 313v94h406v-94h-406z" />
    <glyph glyph-name="emdash.case" horiz-adv-x="770" 
d="M58 313v94h654v-94h-654z" />
    <glyph glyph-name="parenleft.case" horiz-adv-x="400" 
d="M248 -40q-61 60 -101 125.5t-59.5 135t-19.5 139.5q0 69 20 138.5t60 135.5t100 126h113q-88 -89 -133.5 -191t-45.5 -209q0 -108 46 -209.5t133 -190.5h-113z" />
    <glyph glyph-name="parenright.case" horiz-adv-x="400" 
d="M152 760q61 -59 100.5 -125t59 -135.5t19.5 -139.5q0 -69 -19.5 -138.5t-59.5 -135.5t-100 -126h-114q89 90 134 192t45 208q0 109 -45.5 210t-133.5 190h114z" />
    <glyph glyph-name="braceleft.case" horiz-adv-x="400" 
d="M257 -40q-60 0 -98 21t-51.5 58.5t0.5 84.5l24 95q13 49 -5.5 71.5t-63.5 22.5h-35v94h35q45 0 63.5 22.5t4.5 71.5l-23 95q-13 48 0 85t51 58t98 21h94v-95h-81q-31 0 -47.5 -18.5t-6.5 -50.5l23 -84q12 -39 6.5 -69.5t-24.5 -51.5t-49 -31q30 -10 49 -31t24.5 -51.5
t-6.5 -69.5l-23 -84q-11 -32 6 -50.5t48 -18.5h81v-95h-94z" />
    <glyph glyph-name="braceright.case" horiz-adv-x="400" 
d="M143 760q60 0 98 -21t51 -58t-1 -85l-23 -95q-14 -49 4.5 -71.5t63.5 -22.5h35v-94h-35q-45 0 -63 -22.5t-5 -71.5l23 -95q14 -47 1 -84.5t-51 -58.5t-98 -21h-95v95h81q32 0 48.5 18.5t6.5 50.5l-23 84q-12 39 -7 69.5t24.5 51.5t48.5 31q-29 10 -48.5 31t-24.5 52t7 69
l23 84q10 32 -6.5 50.5t-48.5 18.5h-81v95h95z" />
    <glyph glyph-name="bracketleft.case" horiz-adv-x="400" 
d="M78 -40v800h273v-95h-159v-610h159v-95h-273z" />
    <glyph glyph-name="bracketright.case" horiz-adv-x="400" 
d="M321 760v-800h-273v95h160v610h-160v95h273z" />
    <glyph glyph-name="quotesinglbase.ss01" horiz-adv-x="267" 
d="M60 -170v60q41 5 61 29t20 68l39 1q-9 -8 -22 -13t-26 -5q-34 0 -56 21t-22 52q0 32 22.5 52.5t52.5 20.5q35 0 58 -25t23 -80q0 -70 -39 -119.5t-111 -61.5z" />
    <glyph glyph-name="quotedblbase.ss01" horiz-adv-x="456" 
d="M60 -170v60q41 5 61 29t20 68l39 1q-9 -8 -22 -13t-26 -5q-34 0 -56 21t-22 52q0 32 22.5 52.5t52.5 20.5q35 0 58 -25t23 -80q0 -70 -39 -119.5t-111 -61.5zM249 -170v60q41 5 61 29t20 68l39 1q-9 -8 -22 -13t-26 -5q-34 0 -56 21t-22 52q0 32 22.5 52.5t52.5 20.5
q35 0 58 -25t23 -80q0 -70 -39 -119.5t-111 -61.5z" />
    <glyph glyph-name="quotedblleft.ss01" horiz-adv-x="456" 
d="M138 452q-34 0 -57.5 25.5t-23.5 80.5q0 70 39 120t112 62v-60q-42 -6 -61.5 -30.5t-19.5 -68.5h-40q10 7 23 12t25 5q34 0 56 -20.5t22 -52.5q0 -31 -22 -52t-53 -21zM327 452q-34 0 -57.5 25.5t-23.5 80.5q0 70 39 120t112 62v-60q-42 -6 -61.5 -30.5t-19.5 -68.5h-40
q10 7 23 12t25 5q34 0 56 -20.5t22 -52.5q0 -31 -22 -52t-53 -21z" />
    <glyph glyph-name="quotedblright.ss01" horiz-adv-x="456" 
d="M60 464v60q41 5 61 29t20 68l39 1q-9 -8 -22 -13t-26 -5q-34 0 -56 21t-22 52q0 32 22.5 52.5t52.5 20.5q35 0 58 -25t23 -80q0 -70 -39 -119.5t-111 -61.5zM249 464v60q41 5 61 29t20 68l39 1q-9 -8 -22 -13t-26 -5q-34 0 -56 21t-22 52q0 32 22.5 52.5t52.5 20.5
q35 0 58 -25t23 -80q0 -70 -39 -119.5t-111 -61.5z" />
    <glyph glyph-name="quoteleft.ss01" horiz-adv-x="267" 
d="M138 452q-34 0 -57.5 25.5t-23.5 80.5q0 70 39 120t112 62v-60q-42 -6 -61.5 -30.5t-19.5 -68.5h-40q10 7 23 12t25 5q34 0 56 -20.5t22 -52.5q0 -31 -22 -52t-53 -21z" />
    <glyph glyph-name="quoteright.ss01" horiz-adv-x="253" 
d="M54 464v60q41 5 61 29t20 68l39 1q-9 -8 -22 -13t-26 -5q-34 0 -56 21t-22 52q0 32 22.5 52.5t52.5 20.5q35 0 58 -25t23 -80q0 -70 -39 -119.5t-111 -61.5z" />
    <glyph glyph-name="ampersand.ss11" horiz-adv-x="643" 
d="M235 0q-62 0 -107.5 24t-71 68.5t-25.5 102.5t23.5 102t64 68.5t91.5 24.5l9 -21q-45 0 -81.5 22t-58 62t-21.5 92q0 84 60 134.5t169 50.5q31 0 57 -3.5t49 -12.5v-94q-19 7 -42.5 10.5t-47.5 3.5q-63 0 -93 -27.5t-30 -77.5q0 -51 28 -78.5t79 -27.5h335v-92h-358
q-51 0 -80 -32.5t-29 -90.5q0 -53 27.5 -84t75.5 -31h195v-93h-218zM398 0v544h124v-544h-124z" />
    <glyph glyph-name="cent.ss12" horiz-adv-x="477" 
d="M248 -10q-65 0 -115 32.5t-78.5 92.5t-28.5 141t29 140.5t79.5 91.5t115.5 32q56 0 100.5 -23.5t71.5 -67.5t31 -107h-99q-5 55 -30.5 84t-72.5 29q-57 0 -87 -44.5t-30 -134.5t30 -135.5t86 -45.5q47 0 73.5 29.5t31.5 83.5h98q-4 -62 -32 -106t-73 -68t-100 -24z
M199 -109v138l8 22v407l-8 28v130h98v-131l-7 -23v-409l7 -23v-139h-98z" />
    <glyph glyph-name="dollar.ss12" horiz-adv-x="533" 
d="M281 -9q-116 0 -181.5 63t-71.5 176h110q4 -68 42 -107.5t106 -39.5q56 0 83.5 23.5t27.5 67.5q0 37 -20.5 63.5t-68.5 52.5l-105 51q-75 37 -111 84.5t-36 113.5q0 59 27 102t76 66.5t115 23.5q103 0 161.5 -57t63.5 -160h-109q-5 65 -34.5 94.5t-86.5 29.5
q-49 0 -75.5 -21t-26.5 -62q0 -33 20.5 -59.5t68.5 -52.5l106 -51q75 -36 110.5 -86.5t35.5 -117.5q0 -94 -60.5 -145.5t-166.5 -51.5zM227 -109v138l9 22v621l-9 28v130h98v-131l-9 -23v-623l9 -23v-139h-98z" />
    <glyph glyph-name="plus.tf" horiz-adv-x="548" 
d="M228 140v463h93v-463h-93zM60 326v90h428v-90h-428z" />
    <glyph glyph-name="minus.tf" horiz-adv-x="548" 
d="M60 326v90h428v-90h-428z" />
    <glyph glyph-name="multiply.tf" horiz-adv-x="548" 
d="M425 156l-365 367l63 64l365 -367zM123 156l-63 64l365 367l63 -64z" />
    <glyph glyph-name="divide.tf" horiz-adv-x="548" 
d="M60 326v90h428v-90h-428zM274 482q-27 0 -45.5 18t-18.5 48q0 28 18.5 46.5t45.5 18.5q26 0 45 -18.5t19 -46.5q0 -30 -19.5 -48t-44.5 -18zM274 130q-27 0 -45.5 18t-18.5 48q0 28 18.5 46.5t45.5 18.5q26 0 45 -18.5t19 -46.5q0 -30 -19.5 -48t-44.5 -18z" />
    <glyph glyph-name="equal.tf" horiz-adv-x="548" 
d="M56 426v90h436v-90h-436zM56 226v90h436v-90h-436z" />
    <glyph glyph-name="greater.tf" horiz-adv-x="548" 
d="M61 171v95l329 116v-23l-329 114v95l428 -150v-94z" />
    <glyph glyph-name="less.tf" horiz-adv-x="548" 
d="M491 571v-95l-343 -116v23l343 -114v-95l-438 150v94z" />
    <glyph glyph-name="percent.tf" horiz-adv-x="548" 
d="M43 0l384 720h78l-385 -720h-77zM400 -10q-32 0 -59 19t-44 58.5t-17 97.5t17 96.5t44 57.5t59 19q33 0 60.5 -19t44 -57.5t16.5 -96.5t-17 -97.5t-44.5 -58.5t-59.5 -19zM400 54q19 0 33 26.5t14 85.5q0 57 -13.5 82.5t-33.5 25.5t-33 -25.5t-13 -83.5t13 -84.5
t33 -26.5zM147 382q-32 0 -59.5 19.5t-44 58.5t-16.5 96q0 59 16.5 97.5t44 57.5t59.5 19q33 0 60.5 -19t44 -57.5t16.5 -97.5q0 -58 -17 -97t-44.5 -58t-59.5 -19zM147 446q19 0 33 26t14 85q0 58 -13 83.5t-33 25.5q-21 0 -34 -25.5t-13 -83.5q0 -59 13 -85t33 -26z" />
    <glyph glyph-name="perthousand.tf" horiz-adv-x="548" 
d="M57 278l-22 62l449 156l23 -62zM243 -10q-45 0 -76 40.5t-31 114.5t30.5 114t76.5 40t76 -40.5t30 -113.5t-30.5 -114t-75.5 -41zM243 49q19 0 30.5 25t11.5 72q0 46 -11.5 70t-30.5 24t-29.5 -24t-10.5 -70q0 -47 10.5 -72t29.5 -25zM401 -10q-45 0 -75 41.5t-30 113.5
t29.5 113t75.5 41q47 0 77.5 -40t30.5 -114t-31.5 -114.5t-76.5 -40.5zM401 49q18 0 29.5 25t11.5 72t-11 70.5t-30 23.5t-30 -24t-11 -70q0 -47 11 -72t30 -25zM150 419q-46 0 -77 41t-31 115t30.5 114.5t77.5 40.5q46 0 76.5 -40.5t30.5 -114.5q0 -75 -31 -115.5
t-76 -40.5zM150 478q18 0 29.5 24.5t11.5 73.5q0 46 -11 70.5t-30 24.5q-20 0 -30.5 -24t-10.5 -71q0 -48 10.5 -73t30.5 -25z" />
    <glyph glyph-name="uni030C.alt" horiz-adv-x="0" 
d="M138 490h-78v230h104z" />
    <glyph glyph-name="uni0308.ss01" horiz-adv-x="0" 
d="M131 592q-30 0 -50.5 21.5t-20.5 52.5t20.5 51t50.5 20t50.5 -20t20.5 -52q0 -31 -20.5 -52t-50.5 -21zM346 592q-30 0 -50.5 21.5t-20.5 52.5t21 51t50 20q30 0 50.5 -20t20.5 -52q0 -31 -20.5 -52t-50.5 -21z" />
    <glyph glyph-name="uni0307.ss01" horiz-adv-x="0" 
d="M138 583q-32 0 -55 23t-23 56q0 35 23 57t55 22q33 0 55 -22t22 -57q0 -33 -22 -56t-55 -23z" />
    <glyph glyph-name="uni0312.ss01" horiz-adv-x="0" 
d="M135 576q-31 0 -53 23.5t-22 74.5q0 41 15.5 75t45 56.5t70.5 28.5v-56q-33 -5 -49.5 -24.5t-16.5 -55.5h-37q9 7 21 11.5t23 4.5q31 0 52 -19t21 -50q0 -30 -21 -49.5t-49 -19.5z" />
    <glyph glyph-name="uni0326.ss01" horiz-adv-x="0" 
d="M74 -324v56q33 5 49.5 24.5t16.5 54.5h37q-9 -6 -21.5 -11t-23.5 -5q-30 0 -51 19.5t-21 49.5q0 31 21 50.5t48 19.5q32 0 54 -23.5t22 -74.5q0 -41 -16 -75t-45 -56.5t-70 -28.5z" />
    <glyph glyph-name="dieresis.ss01" horiz-adv-x="477" 
d="M131 592q-30 0 -50.5 21.5t-20.5 52.5t20.5 51t50.5 20t50.5 -20t20.5 -52q0 -31 -20.5 -52t-50.5 -21zM346 592q-30 0 -50.5 21.5t-20.5 52.5t21 51t50 20q30 0 50.5 -20t20.5 -52q0 -31 -20.5 -52t-50.5 -21z" />
    <glyph glyph-name="dotaccent.ss01" horiz-adv-x="275" 
d="M138 583q-32 0 -55 23t-23 56q0 35 23 57t55 22q33 0 55 -22t22 -57q0 -33 -22 -56t-55 -23z" />
    </font>
</defs>
</svg>
