<?xml version="1.0" standalone="no"?>
<!DOCTYPE svg PUBLIC "-//W3C//DTD SVG 1.1//EN" "http://www.w3.org/Graphics/SVG/1.1/DTD/svg11.dtd" >
<svg xmlns="http://www.w3.org/2000/svg" xmlns:xlink="http://www.w3.org/1999/xlink" version="1.1">
<metadata>
Created by FontForge 20201107 at Wed Apr 12 12:05:17 2023
 By 
Copyright 2022 The Instrument Sans Project Authors (https://github.com/Instrument/instrument-sans)
</metadata>
<defs>
<font id="InstrumentSansSemiCondensed-Italic" horiz-adv-x="524" >
  <font-face 
    font-family="Instrument Sans SemiCondensed"
    font-weight="400"
    font-style="italic"
    font-stretch="semi-condensed"
    units-per-em="1000"
    panose-1="0 0 0 0 0 0 0 0 0 0"
    ascent="800"
    descent="-200"
    x-height="510"
    cap-height="720"
    bbox="-132 -284 1868 986"
    underline-thickness="38"
    underline-position="-199"
    slope="-13"
    unicode-range="U+0020-2212"
  />
<missing-glyph horiz-adv-x="585" 
d="M20 0l165 720h428l-165 -720h-428zM111 67h277l134 586h-276z" />
    <glyph glyph-name="f_f_i" unicode="ffi" horiz-adv-x="804" 
d="M42 0l141 614q12 55 49 85.5t100 30.5q17 0 34 -2.5t29 -7.5l-15 -59q-6 3 -18.5 5t-24.5 2q-37 0 -56.5 -18t-26.5 -49l-139 -601h-73zM320 0l141 614q12 55 49 85.5t100 30.5q17 0 34 -2.5t29 -7.5l-15 -59q-6 3 -18.5 5t-24.5 2q-37 0 -56.5 -18t-26.5 -49l-139 -601
h-73zM598 0l118 510h74l-118 -510h-74zM59 447l14 63h679l-14 -63h-679zM736 630l21 90h88l-21 -90h-88z" />
    <glyph glyph-name="f_f_l" unicode="ffl" horiz-adv-x="802" 
d="M320 0l139 604q13 55 50 85.5t100 30.5h180l-14 -61h-162q-36 0 -56 -18.5t-27 -49.5l-137 -591h-73zM42 0l139 604q12 55 49 85.5t100 30.5q17 0 34 -2.5t29 -7.5l-15 -59q-6 3 -18.5 5t-24.5 2q-37 0 -56.5 -18t-26.5 -49l-137 -591h-73zM59 447l14 63h538l-14 -63
h-538zM598 0l166 720h74l-166 -720h-74z" />
    <glyph glyph-name="f_i" unicode="fi" horiz-adv-x="517" 
d="M41 0l141 614q13 55 50 85.5t100 30.5q17 0 33.5 -2.5t28.5 -7.5l-14 -59q-6 3 -18.5 5t-24.5 2q-37 0 -56.5 -18t-27.5 -49l-138 -601h-74zM320 0l118 510h73l-118 -510h-73zM59 447l14 63h400l-14 -63h-400zM458 630l21 90h87l-20 -90h-88z" />
    <glyph glyph-name="f_l" unicode="fl" 
d="M41 0l140 604q12 55 49 85.5t100 30.5h181l-15 -61h-161q-37 0 -56.5 -18.5t-26.5 -49.5l-137 -591h-74zM59 447l14 63h259l-14 -63h-259zM320 0l166 720h73l-166 -720h-73z" />
    <glyph glyph-name="w_w_w.liga" unicode="www" horiz-adv-x="1838" 
d="M110 0l-22 510h72l7 -426h-17l224 426h53l28 -426h-17l224 426h53l29 -426h-17l224 426h53l28 -426h-16l224 426h53l28 -426h-17l225 426h53l28 -426h-17l202 426h73l-259 -510h-55l-29 417h19l-224 -417h-55l-29 417h19l-223 -417h-56l-28 417h18l-223 -417h-55l-29 417
h19l-224 -417h-55l-29 417h19l-223 -417h-56z" />
    <glyph glyph-name="hyphen_greater.liga" unicode="&#x2d;&#x3e;" horiz-adv-x="754" 
d="M119 369h572l-26 -25l-320 322h93l327 -330l-328 -330h-92l320 322l26 -25h-572v66z" />
    <glyph glyph-name="less_hyphen.liga" unicode="&#x3c;&#x2d;" horiz-adv-x="746" 
d="M736 351h-573l27 25l320 -322h-93l-328 330l328 330h93l-320 -322l-27 25h573v-66z" />
    <glyph glyph-name=".notdef" horiz-adv-x="585" 
d="M20 0l165 720h428l-165 -720h-428zM111 67h277l134 586h-276z" />
    <glyph glyph-name=".null" horiz-adv-x="0" 
 />
    <glyph glyph-name="nonmarkingreturn" horiz-adv-x="333" 
 />
    <glyph glyph-name="space" unicode=" " horiz-adv-x="174" 
 />
    <glyph glyph-name="exclam" unicode="!" horiz-adv-x="251" 
d="M85 205l112 535h81l-136 -535h-57zM18 0l23 97h96l-22 -97h-97z" />
    <glyph glyph-name="quotedbl" unicode="&#x22;" horiz-adv-x="365" 
d="M150 497l5 116q2 32 3.5 54t4.5 38q4 14 11.5 24t18 15.5t22.5 5.5q14 0 23.5 -6t13.5 -15.5t4 -21.5q0 -10 -4.5 -26t-12 -36t-16.5 -41l-45 -107h-28zM301 497l5 116q2 32 3.5 54t4.5 38q4 14 11.5 24t18 15.5t22.5 5.5q14 0 23.5 -6t13.5 -15.5t4 -21.5
q0 -10 -4.5 -26t-12 -36t-16.5 -41l-45 -107h-28z" />
    <glyph glyph-name="numbersign" unicode="#" horiz-adv-x="583" 
d="M48 0l266 720h68l-266 -720h-68zM249 0l266 720h68l-266 -720h-68zM113 496h494l-15 -63h-494zM41 297h495l-14 -63h-495z" />
    <glyph glyph-name="dollar" unicode="$" horiz-adv-x="502" 
d="M332 696l31 134h60l-31 -134h-60zM258 20l-30 -129h-61l30 129h61zM238 -9q-57 0 -99 19t-67.5 52.5t-35.5 77t-5 91.5h73q-4 -33 1.5 -64.5t22 -56t45 -39t69.5 -14.5q62 0 98 34.5t36 97.5q0 35 -14.5 62t-47.5 51l-90 72q-48 33 -72.5 71.5t-24.5 89.5q0 58 27.5 102
t75.5 69.5t109 25.5q50 0 86 -17t57.5 -47t30 -69.5t3.5 -84.5h-72q5 43 -4.5 77t-36.5 54t-73 20q-40 0 -68.5 -15t-43.5 -42.5t-15 -64.5q0 -31 15.5 -56.5t49.5 -51.5l92 -71q46 -33 68.5 -74t22.5 -95q0 -63 -26.5 -108.5t-74.5 -70.5t-112 -25z" />
    <glyph glyph-name="percent" unicode="%" horiz-adv-x="700" 
d="M5 0l664 720h79l-665 -720h-78zM482 -10q-34 0 -62.5 15.5t-45 46t-16.5 74.5q0 32 9.5 70.5t30 73t53 57t77.5 22.5q53 0 89 -34.5t36 -100.5q0 -32 -9.5 -70.5t-30 -73.5t-53 -57.5t-78.5 -22.5zM483 44q28 0 48 18t33 45.5t19 56t6 49.5q0 39 -17.5 60t-45.5 21
q-29 0 -48.5 -17.5t-32 -45t-18 -55.5t-5.5 -50q0 -39 16.5 -60.5t44.5 -21.5zM220 371q-34 0 -62.5 15.5t-45.5 46t-17 74.5q0 32 10 70.5t30.5 73t53 57t77.5 22.5q53 0 89 -34t36 -101q0 -32 -10 -70.5t-30 -73.5t-52.5 -57.5t-78.5 -22.5zM221 426q28 0 48 17.5t33 45
t19 56t6 49.5q0 40 -17.5 61t-46.5 21q-28 0 -47.5 -18t-32 -45.5t-18 -55.5t-5.5 -49q0 -39 16.5 -60.5t44.5 -21.5z" />
    <glyph glyph-name="ampersand" unicode="&#x26;" horiz-adv-x="648" 
d="M478 0l-244 424q-21 35 -31.5 67.5t-10.5 62.5q0 51 23.5 90.5t65 62.5t94.5 23q46 0 81.5 -17.5t55.5 -48t20 -70.5q0 -44 -26 -83t-75.5 -70.5t-120.5 -54.5l-22 54q55 16 93 37.5t58.5 48.5t20.5 59q0 36 -25 58.5t-66 22.5q-45 0 -73.5 -30t-28.5 -79q0 -25 10 -52.5
t34 -64.5l260 -440h-93zM244 -9q-47 0 -86.5 12.5t-69 37t-45 59t-15.5 76.5q0 63 32 114.5t87 88t124 54.5l25 -51q-62 -18 -105 -46t-65 -65.5t-22 -82.5t20 -74t53.5 -43t76.5 -14q52 0 97 20.5t81.5 62t64 103.5t44.5 145h73q-19 -94 -54 -168t-83 -125t-107.5 -77.5
t-125.5 -26.5z" />
    <glyph glyph-name="quotesingle" unicode="'" horiz-adv-x="213" 
d="M150 497l5 116q2 32 3.5 54t4.5 38q4 14 11.5 24t18 15.5t22.5 5.5q14 0 23.5 -6t13.5 -15.5t4 -21.5q0 -10 -4.5 -26t-12 -36t-16.5 -41l-45 -107h-28z" />
    <glyph glyph-name="parenleft" unicode="(" horiz-adv-x="370" 
d="M175 -110q-49 76 -72.5 156t-23.5 160q0 101 33.5 198.5t98 185.5t158.5 160h67q-98 -80 -162.5 -171.5t-95.5 -188.5t-31 -194q0 -81 23.5 -158.5t70.5 -147.5h-66z" />
    <glyph glyph-name="parenright" unicode=")" horiz-adv-x="370" 
d="M225 752q49 -76 72.5 -156t23.5 -160q0 -100 -33.5 -198t-98 -186t-158.5 -160h-67q99 80 163 171.5t95.5 189t31.5 193.5q0 81 -23 158.5t-72 147.5h66z" />
    <glyph glyph-name="asterisk" unicode="*" horiz-adv-x="392" 
d="M206 441l48 127l-118 -67l-20 61l129 32l-108 60l47 54l81 -92l10 124h66l-48 -127l118 67l20 -62l-129 -31l108 -60l-46 -55l-82 92l-9 -123h-67z" />
    <glyph glyph-name="plus" unicode="+" horiz-adv-x="531" 
d="M209 153l101 437h66l-101 -437h-66zM80 340l14 62h411l-14 -62h-411z" />
    <glyph glyph-name="comma" unicode="," horiz-adv-x="233" 
d="M-22 -137l9 39q30 11 47.5 33.5t28.5 67.5l29 -3h-82l22 96h96l-21 -94q-14 -58 -44.5 -90.5t-84.5 -48.5z" />
    <glyph glyph-name="hyphen" unicode="-" horiz-adv-x="432" 
d="M67 236l17 72h289l-17 -72h-289z" />
    <glyph glyph-name="period" unicode="." horiz-adv-x="233" 
d="M9 0l23 97h96l-22 -97h-97z" />
    <glyph glyph-name="slash" unicode="/" horiz-adv-x="350" 
d="M-21 -60l364 810h69l-364 -810h-69z" />
    <glyph glyph-name="zero" unicode="0" horiz-adv-x="559" 
d="M243 -8q-57 0 -98.5 29.5t-64.5 83.5t-23 130q0 44 8.5 97.5t25 109t42 106.5t59.5 92t77.5 64.5t94.5 23.5q57 0 98.5 -28.5t65 -82t23.5 -130.5q0 -44 -8.5 -98t-25.5 -109.5t-43 -107t-60 -92.5t-77 -64.5t-94 -23.5zM247 58q39 0 70.5 23t56.5 61.5t43.5 86.5t31 98
t18.5 95t6 79q0 78 -30.5 119.5t-82.5 41.5q-39 0 -71 -23t-57 -61t-43 -85.5t-30 -97t-18 -94.5t-6 -78q0 -78 29.5 -121.5t82.5 -43.5z" />
    <glyph glyph-name="one" unicode="1" horiz-adv-x="342" 
d="M131 0l148 642l15 -12q-20 -22 -53 -41.5t-73 -32.5t-82 -15l16 73q46 3 85.5 17t72.5 37t56 52h55l-166 -720h-74z" />
    <glyph glyph-name="two" unicode="2" horiz-adv-x="472" 
d="M-14 0l15 64q106 88 185 160.5t130.5 133t77.5 111.5t26 96q0 46 -26 72t-74 26q-56 0 -93.5 -37t-57.5 -110h-74q24 104 85 158.5t147 54.5q53 0 91.5 -19t59.5 -54.5t21 -82.5q0 -53 -28.5 -113t-83.5 -127t-134.5 -140.5t-181.5 -153.5l-14 27h343l-15 -66h-399z" />
    <glyph glyph-name="three" unicode="3" horiz-adv-x="489" 
d="M214 -10q-55 0 -94.5 19.5t-63 52.5t-31 73.5t0.5 81.5h74q-5 -29 0 -57.5t19 -51.5t38 -37t60 -14t63 15.5t45 41t27 56t9 59.5q0 51 -25.5 83.5t-72.5 32.5h-69l14 64h69q48 0 81 21t51 55t18 74q0 50 -27.5 76t-76.5 26q-52 0 -89.5 -34.5t-54.5 -105.5h-76
q24 103 82.5 155t141.5 52q54 0 94.5 -19.5t62.5 -55.5t22 -86q0 -43 -15.5 -81t-44 -66.5t-66 -42.5t-82.5 -9l-1 21q66 -9 104.5 -52.5t38.5 -112.5q0 -42 -15 -83t-43.5 -75.5t-70.5 -55t-97 -20.5z" />
    <glyph glyph-name="four" unicode="4" horiz-adv-x="503" 
d="M258 0l43 185l5 20l91 394l22 -1l-329 -399l-20 30h403l-15 -66h-453l13 56l410 501h73l-166 -720h-77z" />
    <glyph glyph-name="five" unicode="5" horiz-adv-x="497" 
d="M211 -10q-54 0 -92 20t-60 51.5t-29 69t-1 71.5h76q-6 -37 4.5 -70.5t36.5 -54t68 -20.5q33 0 59 14.5t45 38.5t32 53t19 60t6 58q0 63 -30.5 93.5t-83.5 30.5q-38 0 -67.5 -16t-46.5 -44h-59l109 375h330l-15 -66h-280l25 24l-79 -273l-13 11q18 23 48 36.5t72 13.5
q50 0 88.5 -22t60 -64t21.5 -102q0 -39 -10 -79.5t-30 -78t-49 -67t-68 -46.5t-87 -17z" />
    <glyph glyph-name="six" unicode="6" horiz-adv-x="513" 
d="M237 -10q-56 0 -97.5 25t-64 74.5t-22.5 122.5q0 41 7.5 94.5t23.5 111.5t41 113t60 100t80 71.5t102 26.5q60 0 97.5 -29t53 -73t8.5 -91h-76q5 27 -2 56.5t-28.5 49.5t-61.5 20q-44 0 -83.5 -31.5t-71 -96t-53.5 -164.5l-10 -48l-12 6q24 57 71.5 89t105.5 32
q48 0 86 -22t59.5 -63t21.5 -99q0 -47 -15 -95.5t-44.5 -89.5t-73.5 -65.5t-102 -24.5zM242 57q41 0 69.5 22t46.5 55t25.5 69t7.5 63q0 40 -14.5 66t-39 39t-54.5 13q-40 0 -69 -19t-48 -49.5t-28.5 -65t-9.5 -64.5q0 -60 32 -94.5t82 -34.5z" />
    <glyph glyph-name="seven" unicode="7" horiz-adv-x="454" 
d="M79 0q50 170 142.5 339.5t239.5 343.5l16 -29h-365l15 66h415l-12 -54q-97 -116 -167 -226.5t-118.5 -219t-81.5 -220.5h-84z" />
    <glyph glyph-name="eight" unicode="8" horiz-adv-x="499" 
d="M219 -10q-56 0 -100 22t-69.5 62.5t-25.5 94.5q0 45 16.5 85.5t45.5 71.5t67 49.5t82 18.5l1 -19q-35 0 -61.5 20t-41 52.5t-14.5 71.5t14 76.5t41 67.5t66.5 48.5t89.5 18.5q54 0 95 -20.5t64 -57.5t23 -86q0 -36 -13.5 -71.5t-38.5 -65t-60.5 -47.5t-79.5 -18l1 17
q37 0 65.5 -21t45 -56.5t16.5 -79.5q0 -42 -15 -84t-44.5 -75.5t-72 -54t-97.5 -20.5zM221 57q35 0 62.5 15.5t46 40.5t28.5 55.5t10 59.5q0 55 -32 86.5t-83 31.5q-37 0 -64.5 -16t-46 -42t-28.5 -56t-10 -59q0 -58 35 -87t82 -29zM301 409q31 0 56 13.5t42 35.5t25.5 48.5
t8.5 52.5q0 49 -29 76.5t-74 27.5q-32 0 -57 -13.5t-41.5 -36t-25.5 -48.5t-9 -51q0 -48 29 -76.5t75 -28.5z" />
    <glyph glyph-name="nine" unicode="9" horiz-adv-x="519" 
d="M199 -10q-62 0 -100 29.5t-53 78.5t-6 106h77q-8 -39 -2 -72.5t28 -54.5t65 -21q47 0 84.5 32.5t67.5 100t51 169.5l10 48l12 -6q-16 -37 -43 -64t-61 -42t-73 -15q-46 0 -83.5 21.5t-59 62t-21.5 96.5q0 45 14.5 92t44 87.5t73.5 65.5t101 25q56 0 97.5 -25t63.5 -74
t22 -121q0 -38 -7 -91t-22 -111.5t-39 -115t-58.5 -102t-79.5 -72.5t-103 -27zM279 344q39 0 68 19t48 49t28.5 63.5t9.5 61.5q0 56 -31.5 90t-81.5 34q-40 0 -68.5 -21.5t-46 -54.5t-25.5 -68t-8 -60q0 -37 14.5 -62t39 -38t53.5 -13z" />
    <glyph glyph-name="colon" unicode=":" horiz-adv-x="233" 
d="M9 0l23 97h96l-22 -97h-97zM97 380l23 97h96l-22 -97h-97z" />
    <glyph glyph-name="semicolon" unicode=";" horiz-adv-x="233" 
d="M-22 -137l9 39q30 11 47.5 33.5t28.5 67.5l29 -3h-82l22 96h96l-21 -94q-14 -58 -44.5 -90.5t-84.5 -48.5zM97 380l23 97h96l-22 -97h-97z" />
    <glyph glyph-name="less" unicode="&#x3c;" horiz-adv-x="531" 
d="M542 565l-16 -72l-395 -139l5 26l333 -130l-13 -63l-377 150l15 68z" />
    <glyph glyph-name="equal" unicode="=" horiz-adv-x="531" 
d="M104 440l14 62h411l-14 -62h-411zM58 240l13 62h411l-13 -62h-411z" />
    <glyph glyph-name="greater" unicode="&#x3e;" horiz-adv-x="531" 
d="M42 177l16 72l395 139l-5 -26l-333 130l14 63l376 -150l-15 -68z" />
    <glyph glyph-name="question" unicode="?" horiz-adv-x="477" 
d="M197 204q14 65 38 109.5t52 75.5t56 54.5t51 45t37.5 45.5t14.5 57q0 47 -30 69.5t-77 22.5q-57 0 -98 -34.5t-61 -107.5h-73q16 68 49.5 114.5t82 70.5t107.5 24q51 0 90 -17t62 -51t23 -85q0 -43 -15 -73.5t-40 -55t-54 -48.5t-58.5 -52.5t-53 -68t-36.5 -95.5h-67z
M141 0l23 97h97l-23 -97h-97z" />
    <glyph glyph-name="at" unicode="@" horiz-adv-x="796" 
d="M401 -10q-66 0 -127 19t-108.5 57t-74.5 94.5t-27 131.5q0 66 21.5 129.5t61 119.5t94 98.5t121 66.5t140.5 24q61 0 113.5 -18t92 -52t62 -82t22.5 -109q0 -57 -19 -113t-53 -102.5t-79.5 -74t-98.5 -27.5q-39 0 -60 16.5t-23 44.5t12 62v-39q-32 -40 -68 -62t-75 -22
q-50 0 -79 36t-29 90q0 37 12.5 77.5t35 79t53.5 69t67.5 49t76.5 18.5q42 0 65.5 -20t30.5 -50t-3 -60h-15l58 116h71l-135 -270q-13 -25 -15.5 -43.5t5.5 -28.5t27 -10q34 0 65.5 23t57.5 61t41 83.5t15 92.5q0 64 -32 111t-86 73.5t-120 26.5q-79 0 -146.5 -32
t-118 -86.5t-79 -122t-28.5 -138.5q0 -63 22.5 -110.5t61.5 -79t90 -47.5t107 -16q39 0 78.5 7.5t74.5 21.5l13 -48q-34 -17 -78 -26t-91 -9zM351 209q26 0 51.5 15.5t48 40.5t40 55.5t27 60.5t9.5 55q0 35 -17.5 56t-49.5 21t-62.5 -22t-55 -57.5t-38.5 -74t-14 -71.5
q0 -35 16 -57t45 -22z" />
    <glyph glyph-name="A" unicode="A" horiz-adv-x="583" 
d="M-29 0l378 720h69l-371 -720h-76zM420 0l-41 720h65l50 -720h-74zM144 283h302l-14 -66h-302z" />
    <glyph glyph-name="B" unicode="B" horiz-adv-x="531" 
d="M70 0l14 63h157q48 0 83.5 21t56 59t20.5 86q0 55 -27.5 86t-76.5 31h-145l14 62h146q44 0 78.5 19.5t53.5 53.5t19 77q0 48 -25.5 73.5t-74.5 25.5h-143l14 63h143q75 0 119 -42t44 -114q0 -46 -17.5 -84.5t-48 -66t-69 -40.5t-80.5 -7l8 20q69 -7 107.5 -50t38.5 -113
q0 -65 -31 -115.5t-85.5 -79t-125.5 -28.5h-167zM20 0l165 720h75l-165 -720h-75z" />
    <glyph glyph-name="C" unicode="C" horiz-adv-x="596" 
d="M278 -10q-66 0 -114.5 32t-75 90t-26.5 138q0 57 12 114.5t33.5 111.5t52.5 100t69.5 80.5t84 54t95.5 19.5q57 0 97.5 -23t65 -62.5t32.5 -88t0 -99.5h-76q6 39 2 75.5t-18.5 65.5t-41.5 46t-69 17q-44 0 -84 -24.5t-72.5 -66.5t-56 -94.5t-36 -111t-12.5 -114.5
q0 -93 38 -142t108 -49t120.5 52t77.5 152h75q-21 -87 -62 -148.5t-96.5 -93t-122.5 -31.5z" />
    <glyph glyph-name="D" unicode="D" horiz-adv-x="619" 
d="M68 0l15 69h156q60 0 112.5 30t92 82t61.5 118t22 138q0 69 -18.5 117.5t-56 73.5t-95.5 25h-143l15 67h140q72 0 125 -33.5t82 -94.5t29 -145q0 -88 -29 -169t-80 -143.5t-118 -98.5t-143 -36h-167zM20 0l165 720h75l-165 -720h-75z" />
    <glyph glyph-name="E" unicode="E" horiz-adv-x="522" 
d="M19 0l166 720h75l-166 -720h-75zM61 0l15 67h343l-15 -67h-343zM139 342l15 66h314l-15 -66h-314zM211 653l16 67h335l-16 -67h-335z" />
    <glyph glyph-name="F" unicode="F" horiz-adv-x="487" 
d="M20 0l165 720h75l-165 -720h-75zM132 312l16 66h298l-16 -66h-298zM211 653l16 67h319l-16 -67h-319z" />
    <glyph glyph-name="G" unicode="G" horiz-adv-x="618" 
d="M286 -10q-71 0 -121.5 32t-77.5 90t-27 139q0 68 16.5 136.5t47.5 130t74 109.5t95.5 75.5t112.5 27.5q55 0 94.5 -21t63.5 -56t34 -78t7 -88h-75q1 33 -5.5 63.5t-21 55.5t-40.5 40t-64 15q-45 0 -85 -24.5t-72.5 -66.5t-55.5 -94.5t-36 -111t-13 -114.5
q0 -93 39.5 -142t115.5 -49q51 0 92 15.5t66 45.5l68 -30q-43 -48 -101 -74t-131 -26zM442 92l58 250l23 -31h-183l17 66h227l-66 -287z" />
    <glyph glyph-name="H" unicode="H" horiz-adv-x="613" 
d="M20 0l165 720h75l-165 -720h-75zM401 0l165 720h76l-165 -720h-76zM155 408h371l-15 -66h-371z" />
    <glyph glyph-name="I" unicode="I" horiz-adv-x="231" 
d="M19 0l166 720h75l-166 -720h-75z" />
    <glyph glyph-name="J" unicode="J" horiz-adv-x="378" 
d="M59 -10q-35 0 -62 4.5t-39 10.5l16 70q16 -7 42.5 -12t56.5 -5q55 0 89.5 26t49.5 90l126 546h75l-126 -551q-22 -96 -79.5 -137.5t-148.5 -41.5z" />
    <glyph glyph-name="K" unicode="K" horiz-adv-x="575" 
d="M19 0l166 720h75l-166 -720h-75zM161 373l376 347h105l-380 -346zM405 0l-230 378l87 -4l234 -374h-91z" />
    <glyph glyph-name="L" unicode="L" horiz-adv-x="477" 
d="M19 0l166 720h75l-166 -720h-75zM61 0l15 67h313l-15 -67h-313z" />
    <glyph glyph-name="M" unicode="M" horiz-adv-x="784" 
d="M19 0l166 720h111l58 -685h-34l373 685h120l-166 -720h-75l149 648h7l-354 -648h-89l-56 645l7 1l-149 -646h-68z" />
    <glyph glyph-name="N" unicode="N" horiz-adv-x="616" 
d="M19 0l166 720h81l175 -606l-7 -2l140 608h71l-166 -720h-82l-175 606l8 2l-140 -608h-71z" />
    <glyph glyph-name="O" unicode="O" horiz-adv-x="638" 
d="M279 -10q-64 0 -113 33t-76.5 93.5t-27.5 141.5q0 93 27.5 178.5t75.5 151.5t110 104t131 38q67 0 116 -33.5t76 -94t27 -143.5q-1 -93 -29 -177.5t-75.5 -150t-109.5 -103.5t-132 -38zM288 59q50 0 96.5 33.5t83 91.5t58 131.5t21.5 151.5q0 60 -18.5 103.5t-52.5 67
t-81 23.5q-49 0 -94.5 -33.5t-82 -91t-57.5 -130.5t-21 -152q0 -59 18.5 -103.5t51.5 -68t78 -23.5z" />
    <glyph glyph-name="P" unicode="P" horiz-adv-x="541" 
d="M19 0l166 720h205q54 0 93 -22.5t60.5 -63t21.5 -93.5q0 -49 -17.5 -93t-50.5 -78t-78 -53.5t-101 -19.5h-178l15 67h170q41 0 71.5 15.5t51 41.5t31 57t10.5 60q0 50 -29 82.5t-89 32.5h-126l-151 -653h-75z" />
    <glyph glyph-name="Q" unicode="Q" horiz-adv-x="638" 
d="M281 -10q-66 0 -115.5 33t-76.5 93.5t-27 140.5q0 94 27.5 179.5t75.5 151.5t110 104t132 38q67 0 116 -33t76 -93t27 -141q0 -77 -20 -148.5t-57 -130.5t-88 -100.5t-113 -58.5zM289 59q50 0 96.5 33.5t83 91.5t58 131.5t21.5 151.5q0 60 -18.5 103.5t-52.5 67t-81 23.5
q-49 0 -95 -33.5t-82.5 -91t-57.5 -130.5t-21 -152q0 -59 18.5 -103.5t52 -68t78.5 -23.5zM281 -10l-3 53l294 24l-15 -67q-48 0 -83.5 -1.5t-65 -3.5t-59.5 -3.5t-68 -1.5z" />
    <glyph glyph-name="R" unicode="R" horiz-adv-x="541" 
d="M19 0l166 720h200q57 0 95.5 -23.5t58.5 -63.5t19 -89q-1 -62 -32 -113.5t-87 -82.5t-134 -31h-160l16 67h155q52 0 89 21t56.5 56t19.5 78q1 49 -26 81.5t-88 32.5h-122l-151 -653h-75zM372 0l-223 366h85l231 -366h-93z" />
    <glyph glyph-name="S" unicode="S" horiz-adv-x="507" 
d="M238 -9q-57 0 -99 19t-67.5 52.5t-35.5 77t-5 91.5h73q-4 -33 1.5 -64.5t22 -56t45 -39t69.5 -14.5q62 0 98 34.5t36 97.5q0 35 -14.5 62t-47.5 51l-90 72q-48 33 -72.5 71.5t-24.5 89.5q0 58 27.5 102t75.5 69.5t109 25.5q50 0 86 -17t57.5 -47t30 -69.5t3.5 -84.5h-72
q5 43 -4.5 77t-36.5 54t-73 20q-40 0 -68.5 -15t-43.5 -42.5t-15 -64.5q0 -31 15.5 -56.5t49.5 -51.5l92 -71q46 -33 68.5 -74t22.5 -95q0 -63 -26.5 -108.5t-74.5 -70.5t-112 -25z" />
    <glyph glyph-name="T" unicode="T" horiz-adv-x="527" 
d="M166 0l150 653h-197l16 67h472l-16 -67h-199l-150 -653h-76z" />
    <glyph glyph-name="U" unicode="U" horiz-adv-x="589" 
d="M261 -9q-75 0 -123.5 33.5t-65.5 95t2 142.5l105 458h75l-108 -470q-12 -57 -4.5 -99.5t38.5 -67t87 -24.5q68 0 108 40t58 119l116 502h76l-117 -505q-25 -109 -87.5 -166.5t-159.5 -57.5z" />
    <glyph glyph-name="V" unicode="V" horiz-adv-x="583" 
d="M185 0l-48 720h76l40 -676h-23l350 676h80l-380 -720h-95z" />
    <glyph glyph-name="W" unicode="W" horiz-adv-x="837" 
d="M133 0l11 720h75l-14 -652h-14l285 652h98l-15 -652h-14l286 652h76l-321 -720h-95l9 631h10l-282 -631h-95z" />
    <glyph glyph-name="X" unicode="X" horiz-adv-x="562" 
d="M392 0l-111 341l-127 379h80l102 -311l136 -409h-80zM303 412l244 308h86l-303 -384zM317 334l-261 -334h-86l321 410z" />
    <glyph glyph-name="Y" unicode="Y" horiz-adv-x="560" 
d="M183 0l76 331l-134 389h82l115 -341h-34l272 341h89l-314 -389l-76 -331h-76z" />
    <glyph glyph-name="Z" unicode="Z" horiz-adv-x="534" 
d="M2 0l13 57l477 632l24 -36h-353l16 67h399l-14 -57l-476 -632l-25 36h372l-16 -67h-417z" />
    <glyph glyph-name="bracketleft" unicode="[" horiz-adv-x="370" 
d="M1 -108l198 858h230l-14 -59h-161l-170 -740h161l-14 -59h-230z" />
    <glyph glyph-name="backslash" unicode="\" horiz-adv-x="350" 
d="M166 750h63l-4 -810h-62z" />
    <glyph glyph-name="bracketright" unicode="]" horiz-adv-x="371" 
d="M400 750l-198 -858h-230l13 59h161l171 740h-161l14 59h230z" />
    <glyph glyph-name="asciicircum" unicode="^" horiz-adv-x="531" 
d="M209 491h-64l195 249h75l79 -249h-52l-84 208h31z" />
    <glyph glyph-name="underscore" unicode="_" horiz-adv-x="369" 
d="M-85 -114l15 64h369l-15 -64h-369z" />
    <glyph glyph-name="grave" unicode="`" horiz-adv-x="326" 
d="M286 583l-114 157h96l74 -157h-56z" />
    <glyph glyph-name="a" unicode="a" horiz-adv-x="458" 
d="M274 0q-1 13 2.5 34.5t8.5 46.5l-6 1l61 267q6 27 3.5 52t-20.5 40.5t-58 15.5q-46 0 -74 -24.5t-40 -70.5h-69q18 77 68 117.5t127 40.5q66 0 98 -26t39 -68t-3 -87l-60 -260q-4 -20 -7 -41t-2 -38h-68zM139 -10q-57 0 -91 32.5t-34 87.5q0 44 21.5 78.5t62 58.5
t100.5 37l151 33l-14 -62l-130 -28q-61 -13 -89 -41t-28 -68q0 -33 19.5 -49t55.5 -16q50 0 86 28.5t48 79.5l-5 -77q-25 -46 -64.5 -70t-88.5 -24z" />
    <glyph glyph-name="b" unicode="b" 
d="M242 -10q-42 0 -74 17.5t-49 49.5t-16 74l8 4l-31 -135h-67l166 720h73l-71 -307l-7 6q25 49 68 75t94 26q72 0 113 -52t41 -138q0 -69 -19.5 -130t-53.5 -108t-79 -74.5t-96 -27.5zM238 56q37 0 69 21.5t56 58t37.5 84t13.5 99.5q0 65 -27 100t-78 35q-33 0 -61 -17.5
t-49.5 -46t-36.5 -64t-22.5 -71.5t-7.5 -67q0 -63 29 -97.5t77 -34.5z" />
    <glyph glyph-name="c" unicode="c" horiz-adv-x="456" 
d="M195 -10q-50 0 -86 23t-56 67.5t-20 108.5q0 52 13 101t36.5 90.5t55.5 72.5t70.5 48.5t81.5 17.5q41 0 70.5 -16t48 -43t26 -60.5t2.5 -67.5h-69q3 31 -4 59t-26 46.5t-54 18.5q-30 0 -56.5 -14.5t-48.5 -40t-37.5 -59.5t-24 -74t-8.5 -82q0 -64 24 -98.5t69 -34.5
q46 0 81 33t51 92h69q-23 -87 -77.5 -137.5t-130.5 -50.5z" />
    <glyph glyph-name="d" unicode="d" 
d="M325 0l22 98l2 -7q-24 -49 -67 -75t-94 -26q-72 0 -113 52t-41 138q0 69 19.5 130t53.5 108t78.5 74.5t95.5 27.5q43 0 74.5 -17.5t49.5 -49t16 -74.5l-15 -4l80 345h73l-166 -720h-68zM214 56q34 0 62 17.5t49.5 46t36.5 64t22.5 71.5t7.5 67q0 63 -29 97.5t-77 34.5
q-49 0 -89 -36t-63.5 -94.5t-23.5 -128.5q0 -64 27.5 -101.5t76.5 -37.5z" />
    <glyph glyph-name="e" unicode="e" horiz-adv-x="479" 
d="M206 -10q-53 0 -92.5 24t-60.5 68t-21 104q0 43 11.5 89.5t32.5 90t52.5 78t72.5 55t91 20.5t86 -20.5t55.5 -59t19.5 -93.5q0 -29 -5 -59.5t-14 -50.5h-343l13 62h301l-35 -52q8 32 10.5 68.5t-5 68.5t-28.5 52t-60 20q-34 0 -62 -17.5t-49.5 -46.5t-37 -64.5t-23 -72
t-7.5 -68.5q0 -63 28.5 -97.5t80.5 -34.5q40 0 70.5 24.5t50.5 73.5h70q-31 -80 -82.5 -121t-119.5 -41z" />
    <glyph glyph-name="f" unicode="f" horiz-adv-x="302" 
d="M42 0l141 614q12 55 49 85.5t100 30.5q17 0 34 -2.5t29 -7.5l-15 -59q-6 3 -18.5 5t-24.5 2q-37 0 -56.5 -18t-26.5 -49l-139 -601h-73zM59 447l14 63h263l-14 -63h-263z" />
    <glyph glyph-name="g" unicode="g" 
d="M172 -215q-61 0 -101.5 20.5t-60.5 55t-20 73.5h67q4 -43 35 -64t84 -21q54 0 91 32t50 96l27 121l5 -12q-25 -47 -67 -71.5t-91 -24.5q-73 0 -114.5 53t-41.5 141q0 68 19 128.5t53 107t78 73.5t94 27q42 0 73.5 -17t49.5 -47t18 -71l-8 -8l29 133h68l-119 -536
q-20 -91 -77 -140t-141 -49zM216 56q34 0 61.5 17t48.5 45.5t35.5 63.5t22 70.5t7.5 66.5q0 65 -29 100t-78 35t-88.5 -36t-62 -94.5t-22.5 -128.5q0 -64 28 -101.5t77 -37.5z" />
    <glyph glyph-name="h" unicode="h" horiz-adv-x="517" 
d="M13 0l166 720h73l-166 -720h-73zM318 0l79 346q13 54 -7 82.5t-68 28.5q-59 0 -103.5 -40.5t-61.5 -109.5l13 102q31 54 76.5 82.5t99.5 28.5q74 0 108.5 -47t17.5 -125l-80 -348h-74z" />
    <glyph glyph-name="i" unicode="i" horiz-adv-x="218" 
d="M14 0l117 510h73l-117 -510h-73zM149 630l19 90h88l-19 -90h-88z" />
    <glyph glyph-name="j" unicode="j" horiz-adv-x="217" 
d="M-66 -214q-11 0 -31.5 2.5t-34.5 9.5l13 58q7 -4 20.5 -7t28.5 -3q25 0 39.5 13t20.5 38l141 613h73l-144 -624q-11 -47 -42 -74t-84 -26zM149 630l19 90h88l-19 -90h-88z" />
    <glyph glyph-name="k" unicode="k" horiz-adv-x="464" 
d="M13 0l168 730h74l-169 -730h-73zM308 0l-175 265l267 245h101l-296 -266l-5 45l193 -289h-85z" />
    <glyph glyph-name="l" unicode="l" horiz-adv-x="217" 
d="M13 0l166 720h73l-166 -720h-73z" />
    <glyph glyph-name="m" unicode="m" horiz-adv-x="794" 
d="M14 0l117 510h68l-24 -108h5l-93 -402h-73zM304 0l79 346q12 54 -6.5 82.5t-61.5 28.5q-54 0 -97.5 -40.5t-59.5 -109.5l13 102q30 54 75.5 82.5t96.5 28.5q68 0 101 -44t14 -128l-80 -348h-74zM595 0l79 346q12 54 -6.5 82.5t-61.5 28.5q-54 0 -97.5 -40.5t-61.5 -110.5
l-2 93q36 62 85.5 91.5t99.5 29.5q46 0 77 -21.5t42.5 -60t-0.5 -90.5l-80 -348h-74z" />
    <glyph glyph-name="n" unicode="n" horiz-adv-x="518" 
d="M14 0l117 510h68l-24 -108h5l-93 -402h-73zM319 0l79 346q12 54 -8 82.5t-68 28.5q-59 0 -103.5 -40.5t-60.5 -109.5l13 102q30 54 75.5 82.5t99.5 28.5q74 0 109 -47t18 -125l-81 -348h-73z" />
    <glyph glyph-name="o" unicode="o" horiz-adv-x="505" 
d="M212 -10q-53 0 -93.5 25t-62.5 71t-22 109q0 66 20.5 125t56.5 104t83 70.5t99 25.5q55 0 95 -24.5t61.5 -70t21.5 -106.5q0 -67 -21 -126.5t-57 -105t-82.5 -71.5t-98.5 -26zM217 54q35 0 67.5 21.5t57.5 58.5t39.5 85t14.5 101q0 64 -28.5 100t-79.5 36q-36 0 -68 -21
t-56.5 -57t-39 -83.5t-14.5 -101.5q0 -65 29 -102t78 -37z" />
    <glyph glyph-name="p" unicode="p" 
d="M242 -10q-42 0 -74 17.5t-49 49.5t-16 74l16 4l-78 -340h-75l165 715h68l-23 -97l-2 6q25 49 68 75t94 26q72 0 113 -52t41 -138q0 -69 -19.5 -130t-53.5 -108t-79 -74.5t-96 -27.5zM238 56q37 0 69 21.5t56 58t37.5 84t13.5 99.5q0 65 -27 100t-78 35q-33 0 -61 -17.5
t-49.5 -46t-36.5 -64t-22.5 -71.5t-7.5 -67q0 -63 29 -97.5t77 -34.5z" />
    <glyph glyph-name="q" unicode="q" horiz-adv-x="525" 
d="M274 -205l68 303l7 -7q-24 -49 -67 -75t-94 -26q-72 0 -113 52t-41 138q0 69 19.5 130t53.5 108t78.5 74.5t95.5 27.5q43 0 74.5 -17.5t49.5 -49t16 -74.5l-10 -4l33 135h68l-165 -715h-73zM214 56q34 0 62 17.5t49.5 46t36.5 64t22.5 71.5t7.5 67q0 63 -29 97.5
t-77 34.5q-49 0 -89 -36t-63.5 -94.5t-23.5 -128.5q0 -64 27.5 -101.5t76.5 -37.5z" />
    <glyph glyph-name="r" unicode="r" horiz-adv-x="324" 
d="M13 0l118 510h68l-27 -118h5l-91 -392h-73zM158 312l7 97q30 52 70 81.5t88 29.5q11 0 21.5 -2t17.5 -5l-16 -71q-7 3 -19 4.5t-24 1.5q-54 0 -92 -34.5t-53 -101.5z" />
    <glyph glyph-name="s" unicode="s" horiz-adv-x="394" 
d="M168 -10q-55 0 -92.5 23.5t-54 61t-11.5 80.5h69q-2 -27 7.5 -50.5t31 -38t55.5 -14.5q44 0 68.5 23t24.5 60q0 24 -12 41.5t-38 33.5l-59 39q-39 24 -59 54t-20 70q0 43 21 76t57.5 51.5t84.5 18.5q51 0 83.5 -20.5t46.5 -54.5t11 -73h-68q0 22 -7.5 42t-25 32.5
t-48.5 12.5q-39 0 -61.5 -21.5t-22.5 -56.5q0 -21 12 -39t38 -35l59 -39q39 -24 58.5 -54.5t19.5 -69.5q0 -45 -21 -79.5t-58.5 -54t-88.5 -19.5z" />
    <glyph glyph-name="t" unicode="t" horiz-adv-x="321" 
d="M187 -10q-71 0 -100 38.5t-14 103.5l110 481l81 30l-120 -519q-8 -36 7 -53.5t55 -17.5q16 0 29 2t21 5l-14 -62q-11 -4 -24 -6t-31 -2zM59 447l14 63h286l-14 -63h-286z" />
    <glyph glyph-name="u" unicode="u" horiz-adv-x="509" 
d="M169 -10q-72 0 -106.5 47t-17.5 125l81 348h74l-80 -346q-12 -53 7.5 -82t65.5 -29q55 0 98.5 40.5t59.5 109.5l-12 -102q-30 -54 -75 -82.5t-95 -28.5zM311 0l25 108h-7l93 402h74l-118 -510h-67z" />
    <glyph glyph-name="v" unicode="v" horiz-adv-x="453" 
d="M140 0l-62 510h75l44 -445h-34l250 445h80l-298 -510h-55z" />
    <glyph glyph-name="w" unicode="w" horiz-adv-x="683" 
d="M110 0l-22 510h72l6 -426h-19l226 426h54l29 -426h-21l202 426h76l-259 -510h-54l-29 417h20l-224 -417h-57z" />
    <glyph glyph-name="x" unicode="x" horiz-adv-x="465" 
d="M303 0l-88 240l-112 270h76l80 -221l119 -289h-75zM222 287l185 223h84l-238 -278zM246 229l-193 -229h-84l248 286z" />
    <glyph glyph-name="y" unicode="y" horiz-adv-x="453" 
d="M-5 -205l159 268l19 26l240 421h80l-416 -715h-82zM152 0l-74 510h76l57 -445z" />
    <glyph glyph-name="z" unicode="z" horiz-adv-x="419" 
d="M-17 0l12 53l354 426l24 -32h-276l15 63h322l-13 -53l-354 -426l-24 32h294l-14 -63h-340z" />
    <glyph glyph-name="braceleft" unicode="{" horiz-adv-x="370" 
d="M149 -108q-46 0 -72 21t-30.5 54.5t11.5 70.5l69 163q20 48 10.5 69.5t-51.5 21.5h-42l13 58h43q28 0 44.5 7t25 25t10.5 52l12 191q4 60 42.5 92.5t104.5 32.5h89l-13 -59h-80q-34 0 -53 -17t-21 -54l-10 -172q-3 -61 -24.5 -91t-62.5 -41q34 -19 41.5 -54t-17.5 -92
l-62 -143q-15 -34 -4.5 -55t43.5 -21h80l-15 -59h-81z" />
    <glyph glyph-name="bar" unicode="|" horiz-adv-x="221" 
d="M-10 -130l212 920h65l-212 -920h-65z" />
    <glyph glyph-name="braceright" unicode="}" horiz-adv-x="370" 
d="M252 750q46 0 71.5 -21t30.5 -54.5t-11 -70.5l-70 -163q-20 -48 -10.5 -69.5t51.5 -21.5h43l-14 -58h-42q-27 0 -44 -6.5t-26 -25t-11 -52.5l-12 -191q-2 -59 -41 -92t-106 -33h-89l13 59h81q33 0 52.5 17.5t21.5 53.5l10 172q4 62 25 92t61 40q-34 20 -40.5 54.5
t17.5 91.5l62 143q15 34 4.5 55t-43.5 21h-80l14 59h82z" />
    <glyph glyph-name="asciitilde" unicode="~" horiz-adv-x="531" 
d="M382 299q50 0 85 27t56 80h-57q-11 -26 -29 -38.5t-42 -12.5q-25 0 -47 9t-44 21.5t-48 21.5t-59 9q-49 0 -84 -26.5t-57 -80.5h57q12 26 30 38.5t41 12.5q27 0 49 -9t43.5 -21.5t46.5 -21.5t59 -9z" />
    <glyph glyph-name="uni00A0" unicode="&#xa0;" horiz-adv-x="174" 
 />
    <glyph glyph-name="exclamdown" unicode="&#xa1;" horiz-adv-x="251" 
d="M-16 -205l129 511h57l-106 -511h-80zM233 510l-22 -97h-97l22 97h97z" />
    <glyph glyph-name="cent" unicode="&#xa2;" horiz-adv-x="456" 
d="M270 482l31 134h60l-31 -134h-60zM224 20l-30 -129h-60l30 129h60zM195 -10q-50 0 -86 23t-56 67.5t-20 108.5q0 52 13 101t36.5 90.5t55.5 72.5t70.5 48.5t81.5 17.5q41 0 70.5 -16t48 -43t26 -60.5t2.5 -67.5h-69q3 31 -4 59t-26 46.5t-54 18.5q-30 0 -56.5 -14.5
t-48.5 -40t-37.5 -59.5t-24 -74t-8.5 -82q0 -64 24 -98.5t69 -34.5q46 0 81 33t51 92h69q-23 -87 -77.5 -137.5t-130.5 -50.5z" />
    <glyph glyph-name="sterling" unicode="&#xa3;" horiz-adv-x="498" 
d="M-16 0l15 67q34 42 62 84t45 86.5t17 91.5q0 29 -5 58t-10.5 58t-5.5 57q0 40 13.5 80t40.5 74t69 54t100 20q51 0 88.5 -17t61.5 -45t34.5 -63.5t8.5 -73.5h-72q1 35 -12 65t-40.5 48.5t-70.5 18.5q-39 0 -66.5 -14.5t-46 -39t-26.5 -53.5t-8 -58q0 -37 8.5 -80.5
t8.5 -84.5q0 -58 -22 -110t-55.5 -95.5t-67.5 -79.5l-10 19h355l-15 -67h-394zM27 312l15 62h358l-15 -62h-358z" />
    <glyph glyph-name="yen" unicode="&#xa5;" horiz-adv-x="510" 
d="M158 0l76 331l-109 389h82l91 -341h-35l247 341h89l-289 -389l-76 -331h-76zM40 262l15 63h433l-14 -63h-434zM255 397h-184l15 63h154zM379 460h141l-15 -63h-173z" />
    <glyph glyph-name="section" unicode="&#xa7;" horiz-adv-x="412" 
d="M204 193l5 50q37 0 62 10.5t37.5 30t12.5 48.5q0 26 -13 44.5t-36 34.5l-60 39q-38 24 -58.5 57t-20.5 74q0 44 21 77.5t58 52.5t85 19q46 0 78.5 -18.5t49 -52t13.5 -78.5h-68q2 43 -19 65t-61 22q-41 0 -63.5 -21.5t-22.5 -60.5q0 -25 14 -44.5t41 -36.5l55 -38
q38 -23 58 -55.5t20 -72.5q0 -68 -50 -107t-138 -39zM155 -53q-46 0 -79 18.5t-49.5 52t-12.5 78.5h68q-1 -41 20 -64t60 -23q40 0 63 22t23 60q0 25 -12 43.5t-39 35.5l-59 39q-39 24 -58.5 56.5t-19.5 72.5q0 68 50 107t138 39l-5 -50q-37 0 -62 -10.5t-38 -30t-13 -48.5
q0 -27 11.5 -45t38.5 -34l60 -39q38 -24 58 -57t20 -74q0 -43 -20.5 -77t-57.5 -53t-85 -19z" />
    <glyph glyph-name="dieresis" unicode="&#xa8;" horiz-adv-x="416" 
d="M355 630l20 90h88l-20 -90h-88zM147 630l20 90h88l-21 -90h-87z" />
    <glyph glyph-name="copyright" unicode="&#xa9;" horiz-adv-x="860" 
d="M454 -15q-78 0 -146 29t-119.5 80.5t-80.5 119.5t-29 146t29 146t80.5 119.5t119.5 80.5t146 29t146 -29t119.5 -80.5t80.5 -119.5t29 -146t-29 -146t-80.5 -119.5t-119.5 -80.5t-146 -29zM454 23q69 0 130 26.5t107 73t72 107.5t26 130t-26 130t-72 107.5t-107 73
t-130 26.5t-130 -26.5t-107 -73t-72 -107.5t-26 -130t26 -130t72 -107.5t107 -73t130 -26.5zM456 140q-59 0 -105 28.5t-72 78t-26 113.5t26 113.5t72 78t104 28.5q72 0 121.5 -43.5t59.5 -114.5h-49q-7 53 -42 83.5t-89 30.5q-69 0 -111 -49t-42 -127q0 -79 42 -127.5
t110 -48.5q56 0 91 31t42 83h49q-10 -72 -59 -115t-122 -43z" />
    <glyph glyph-name="ordfeminine" unicode="&#xaa;" horiz-adv-x="325" 
d="M252 418q-1 6 0.5 20.5t4.5 28.5l-3 1l36 159q4 19 -3.5 36.5t-36.5 17.5q-24 0 -36.5 -12.5t-20.5 -34.5h-54q13 47 41.5 71.5t75.5 24.5q40 0 61.5 -16t28.5 -41t0 -55l-36 -158q-3 -13 -4 -24t0 -18h-54zM175 412q-33 0 -55 19t-22 53q0 37 27.5 63.5t83.5 41.5l90 26
l-11 -46l-74 -22q-24 -7 -40 -19t-16 -35q0 -35 42 -35q23 0 40.5 14t24.5 43l-3 -48q-18 -30 -40 -42.5t-47 -12.5z" />
    <glyph glyph-name="guillemotleft" unicode="&#xab;" horiz-adv-x="452" 
d="M124 68l-73 194l150 172h78l-158 -185l65 -181h-62zM279 68l-73 194l150 172h78l-158 -185l65 -181h-62z" />
    <glyph glyph-name="registered" unicode="&#xae;" horiz-adv-x="860" 
d="M454 -15q-78 0 -146 29t-119.5 80.5t-80.5 119.5t-29 146t29 146t80.5 119.5t119.5 80.5t146 29t146 -29t119.5 -80.5t80.5 -119.5t29 -146t-29 -146t-80.5 -119.5t-119.5 -80.5t-146 -29zM454 23q69 0 130 26.5t107 73t72 107.5t26 130t-26 130t-72 107.5t-107 73
t-130 26.5t-130 -26.5t-107 -73t-72 -107.5t-26 -130t26 -130t72 -107.5t107 -73t130 -26.5zM314 145v430h159q67 0 106 -31.5t39 -85.5q0 -88 -115 -113l6 16q47 2 74.5 -23.5t27.5 -70.5v-71q0 -11 1 -23.5t4 -27.5h-50q-2 9 -3 22t-1 29v61q0 39 -22.5 59.5t-63.5 20.5
h-126v40h121q47 0 72.5 21t25.5 58t-25.5 56.5t-72.5 19.5h-108v-387h-49z" />
    <glyph glyph-name="macron" unicode="&#xaf;" horiz-adv-x="425" 
d="M150 645l12 52h305l-12 -52h-305z" />
    <glyph glyph-name="degree" unicode="&#xb0;" horiz-adv-x="386" 
d="M257 449q-38 0 -67 17.5t-45 47t-16 65.5q0 42 21.5 77.5t57.5 57t79 21.5q57 0 91.5 -36.5t34.5 -90.5q0 -41 -20.5 -77.5t-56 -59t-79.5 -22.5zM260 492q31 0 55.5 15.5t39 40.5t14.5 54q0 38 -22.5 64t-64.5 26q-31 0 -55.5 -15.5t-39 -40t-14.5 -55.5q0 -38 23 -63.5
t64 -25.5z" />
    <glyph glyph-name="acute" unicode="&#xb4;" horiz-adv-x="326" 
d="M201 583h-65l128 157h114z" />
    <glyph glyph-name="paragraph" unicode="&#xb6;" horiz-adv-x="602" 
d="M213 -130l105 456h-62q-51 0 -86.5 23.5t-54.5 62.5t-19 83q0 58 28 109t79.5 83.5t120.5 32.5h307l-196 -850h-60l182 791h-101l-182 -791h-61z" />
    <glyph glyph-name="periodcentered" unicode="&#xb7;" horiz-adv-x="97" 
d="M17 331l23 97h96l-22 -97h-97z" />
    <glyph glyph-name="cedilla" unicode="&#xb8;" horiz-adv-x="329" 
d="M73 -215q-32 0 -55.5 11.5t-36 31t-10.5 42.5h49q-1 -16 15 -27t41 -11q20 0 34.5 10t14.5 27q0 18 -15 30t-57 20l42 93h51l-28 -63q31 -10 45.5 -31.5t14.5 -46.5q0 -39 -29 -62.5t-76 -23.5z" />
    <glyph glyph-name="ordmasculine" unicode="&#xba;" horiz-adv-x="359" 
d="M231 412q-54 0 -84.5 35.5t-30.5 90.5q0 31 10 64t30 62.5t49.5 47.5t67.5 18q34 0 60.5 -15.5t41 -43t14.5 -66.5q0 -31 -10.5 -65t-30.5 -63t-49.5 -47t-67.5 -18zM235 463q25 0 43 15.5t29.5 39t17 48.5t5.5 43q0 33 -16.5 51.5t-44.5 18.5q-26 0 -44 -15.5t-29 -39
t-16 -48t-5 -41.5q0 -32 16.5 -52t43.5 -20z" />
    <glyph glyph-name="guillemotright" unicode="&#xbb;" horiz-adv-x="452" 
d="M327 434l72 -194l-150 -172h-77l157 185l-65 181h63zM172 434l72 -194l-150 -172h-77l157 185l-65 181h63z" />
    <glyph glyph-name="questiondown" unicode="&#xbf;" horiz-adv-x="476" 
d="M133 -215q-48 0 -87 16.5t-62 50t-23 82.5q0 43 14.5 75t39 57t53.5 48t57.5 49.5t52 61t35.5 81.5h68q-14 -56 -37 -96t-50.5 -68.5t-55.5 -51.5t-51 -44.5t-37 -46.5t-14 -60q0 -44 29.5 -66t75.5 -22q57 0 98 34t61 99h72q-15 -63 -48.5 -107.5t-81.5 -68t-109 -23.5z
M336 511l-22 -97h-97l23 97h96z" />
    <glyph glyph-name="Agrave" unicode="&#xc0;" horiz-adv-x="583" 
d="M-29 0l378 720h69l-371 -720h-76zM420 0l-41 720h65l50 -720h-74zM144 283h302l-14 -66h-302zM427 793l-114 157h96l74 -157h-56z" />
    <glyph glyph-name="Aacute" unicode="&#xc1;" horiz-adv-x="583" 
d="M-29 0l378 720h69l-371 -720h-76zM420 0l-41 720h65l50 -720h-74zM144 283h302l-14 -66h-302zM403 793h-65l128 157h114z" />
    <glyph glyph-name="Acircumflex" unicode="&#xc2;" horiz-adv-x="583" 
d="M-29 0l378 720h69l-371 -720h-76zM420 0l-41 720h65l50 -720h-74zM144 283h302l-14 -66h-302zM245 793l162 157h76l90 -157h-51l-109 137h69l-171 -137h-66z" />
    <glyph glyph-name="Atilde" unicode="&#xc3;" horiz-adv-x="583" 
d="M-29 0l378 720h69l-371 -720h-76zM420 0l-41 720h65l50 -720h-74zM144 283h302l-14 -66h-302zM496 807q-27 0 -46 10.5t-34.5 24t-30 24t-32.5 10.5q-21 0 -34 -14t-21 -45h-50q8 36 23 62t38.5 39.5t52.5 13.5q28 0 46.5 -10.5t32.5 -24t28.5 -24t33.5 -10.5q21 0 34 14
t20 45h50q-11 -56 -41 -85.5t-70 -29.5z" />
    <glyph glyph-name="Adieresis" unicode="&#xc4;" horiz-adv-x="583" 
d="M-29 0l378 720h69l-371 -720h-76zM420 0l-41 720h65l50 -720h-74zM144 283h302l-14 -66h-302zM481 840l20 90h88l-20 -90h-88zM273 840l20 90h88l-21 -90h-87z" />
    <glyph glyph-name="Aring" unicode="&#xc5;" horiz-adv-x="583" 
d="M-29 0l378 720h69l-371 -720h-76zM420 0l-41 720h65l50 -720h-74zM144 283h302l-14 -66h-302zM418 771q-41 0 -69 27.5t-28 68.5q0 33 16 60t42.5 43t57.5 16q42 0 70 -27.5t28 -68.5q0 -31 -16.5 -58.5t-43 -44t-57.5 -16.5zM421 816q27 0 47 20.5t20 49.5q0 24 -15 40
t-39 16q-26 0 -46 -20.5t-20 -49.5q0 -24 15 -40t38 -16z" />
    <glyph glyph-name="AE" unicode="&#xc6;" horiz-adv-x="794" 
d="M-29 0l378 720h71l-372 -720h-77zM334 0l164 720h76l-164 -720h-76zM376 0l15 67h300l-15 -67h-300zM203 342l15 66h522l-15 -66h-522zM353 653l15 67h464l-15 -67h-464z" />
    <glyph glyph-name="Ccedilla" unicode="&#xc7;" horiz-adv-x="596" 
d="M278 -10q-66 0 -114.5 32t-75 90t-26.5 138q0 57 12 114.5t33.5 111.5t52.5 100t69.5 80.5t84 54t95.5 19.5q57 0 97.5 -23t65 -62.5t32.5 -88t0 -99.5h-76q6 39 2 75.5t-18.5 65.5t-41.5 46t-69 17q-44 0 -84 -24.5t-72.5 -66.5t-56 -94.5t-36 -111t-12.5 -114.5
q0 -93 38 -142t108 -49t120.5 52t77.5 152h75q-21 -87 -62 -148.5t-96.5 -93t-122.5 -31.5zM222 -215q-32 0 -55.5 11.5t-36 31t-10.5 42.5h49q-1 -16 15 -27t41 -11q20 0 34.5 10t14.5 27q0 18 -15 30t-57 20l42 93h51l-28 -63q31 -10 45.5 -31.5t14.5 -46.5
q0 -39 -29 -62.5t-76 -23.5z" />
    <glyph glyph-name="Egrave" unicode="&#xc8;" horiz-adv-x="522" 
d="M19 0l166 720h75l-166 -720h-75zM61 0l15 67h343l-15 -67h-343zM139 342l15 66h314l-15 -66h-314zM211 653l16 67h335l-16 -67h-335zM412 793l-114 157h96l74 -157h-56z" />
    <glyph glyph-name="Eacute" unicode="&#xc9;" horiz-adv-x="522" 
d="M19 0l166 720h75l-166 -720h-75zM61 0l15 67h343l-15 -67h-343zM139 342l15 66h314l-15 -66h-314zM211 653l16 67h335l-16 -67h-335zM388 793h-65l128 157h114z" />
    <glyph glyph-name="Ecircumflex" unicode="&#xca;" horiz-adv-x="522" 
d="M19 0l166 720h75l-166 -720h-75zM61 0l15 67h343l-15 -67h-343zM139 342l15 66h314l-15 -66h-314zM211 653l16 67h335l-16 -67h-335zM230 793l162 157h76l90 -157h-51l-109 137h69l-171 -137h-66z" />
    <glyph glyph-name="Edieresis" unicode="&#xcb;" horiz-adv-x="522" 
d="M19 0l166 720h75l-166 -720h-75zM61 0l15 67h343l-15 -67h-343zM139 342l15 66h314l-15 -66h-314zM211 653l16 67h335l-16 -67h-335zM466 840l20 90h88l-20 -90h-88zM258 840l20 90h88l-21 -90h-87z" />
    <glyph glyph-name="Igrave" unicode="&#xcc;" horiz-adv-x="231" 
d="M19 0l166 720h75l-166 -720h-75zM256 793l-114 157h96l74 -157h-56z" />
    <glyph glyph-name="Iacute" unicode="&#xcd;" horiz-adv-x="231" 
d="M19 0l166 720h75l-166 -720h-75zM232 793h-65l128 157h114z" />
    <glyph glyph-name="Icircumflex" unicode="&#xce;" horiz-adv-x="231" 
d="M19 0l166 720h75l-166 -720h-75zM74 793l162 157h76l90 -157h-51l-109 137h69l-171 -137h-66z" />
    <glyph glyph-name="Idieresis" unicode="&#xcf;" horiz-adv-x="231" 
d="M19 0l166 720h75l-166 -720h-75zM310 840l20 90h88l-20 -90h-88zM102 840l20 90h88l-21 -90h-87z" />
    <glyph glyph-name="Eth" unicode="&#xd0;" horiz-adv-x="619" 
d="M17 329l15 62h320l-15 -62h-320zM68 0l15 69h156q60 0 112.5 30t92 82t61.5 118t22 138q0 69 -18.5 117.5t-56 73.5t-95.5 25h-143l15 67h140q72 0 125 -33.5t82 -94.5t29 -145q0 -88 -29 -169t-80 -143.5t-118 -98.5t-143 -36h-167zM20 0l165 720h75l-165 -720h-75z" />
    <glyph glyph-name="Ntilde" unicode="&#xd1;" horiz-adv-x="616" 
d="M19 0l166 720h81l175 -606l-7 -2l140 608h71l-166 -720h-82l-175 606l8 2l-140 -608h-71zM511 807q-27 0 -46 10.5t-34.5 24t-30 24t-32.5 10.5q-21 0 -34 -14t-21 -45h-50q8 36 23 62t38.5 39.5t52.5 13.5q28 0 46.5 -10.5t32.5 -24t28.5 -24t33.5 -10.5q21 0 34 14
t20 45h50q-11 -56 -41 -85.5t-70 -29.5z" />
    <glyph glyph-name="Ograve" unicode="&#xd2;" horiz-adv-x="638" 
d="M279 -10q-64 0 -113 33t-76.5 93.5t-27.5 141.5q0 93 27.5 178.5t75.5 151.5t110 104t131 38q67 0 116 -33.5t76 -94t27 -143.5q-1 -93 -29 -177.5t-75.5 -150t-109.5 -103.5t-132 -38zM288 59q50 0 96.5 33.5t83 91.5t58 131.5t21.5 151.5q0 60 -18.5 103.5t-52.5 67
t-81 23.5q-49 0 -94.5 -33.5t-82 -91t-57.5 -130.5t-21 -152q0 -59 18.5 -103.5t51.5 -68t78 -23.5zM460 793l-114 157h96l74 -157h-56z" />
    <glyph glyph-name="Oacute" unicode="&#xd3;" horiz-adv-x="638" 
d="M279 -10q-64 0 -113 33t-76.5 93.5t-27.5 141.5q0 93 27.5 178.5t75.5 151.5t110 104t131 38q67 0 116 -33.5t76 -94t27 -143.5q-1 -93 -29 -177.5t-75.5 -150t-109.5 -103.5t-132 -38zM288 59q50 0 96.5 33.5t83 91.5t58 131.5t21.5 151.5q0 60 -18.5 103.5t-52.5 67
t-81 23.5q-49 0 -94.5 -33.5t-82 -91t-57.5 -130.5t-21 -152q0 -59 18.5 -103.5t51.5 -68t78 -23.5zM435 793h-65l128 157h114z" />
    <glyph glyph-name="Ocircumflex" unicode="&#xd4;" horiz-adv-x="638" 
d="M279 -10q-64 0 -113 33t-76.5 93.5t-27.5 141.5q0 93 27.5 178.5t75.5 151.5t110 104t131 38q67 0 116 -33.5t76 -94t27 -143.5q-1 -93 -29 -177.5t-75.5 -150t-109.5 -103.5t-132 -38zM288 59q50 0 96.5 33.5t83 91.5t58 131.5t21.5 151.5q0 60 -18.5 103.5t-52.5 67
t-81 23.5q-49 0 -94.5 -33.5t-82 -91t-57.5 -130.5t-21 -152q0 -59 18.5 -103.5t51.5 -68t78 -23.5zM277 793l162 157h76l90 -157h-51l-109 137h69l-171 -137h-66z" />
    <glyph glyph-name="Otilde" unicode="&#xd5;" horiz-adv-x="638" 
d="M279 -10q-64 0 -113 33t-76.5 93.5t-27.5 141.5q0 93 27.5 178.5t75.5 151.5t110 104t131 38q67 0 116 -33.5t76 -94t27 -143.5q-1 -93 -29 -177.5t-75.5 -150t-109.5 -103.5t-132 -38zM288 59q50 0 96.5 33.5t83 91.5t58 131.5t21.5 151.5q0 60 -18.5 103.5t-52.5 67
t-81 23.5q-49 0 -94.5 -33.5t-82 -91t-57.5 -130.5t-21 -152q0 -59 18.5 -103.5t51.5 -68t78 -23.5zM528 807q-27 0 -46 10.5t-34.5 24t-30 24t-32.5 10.5q-21 0 -34 -14t-21 -45h-50q8 36 23 62t38.5 39.5t52.5 13.5q28 0 46.5 -10.5t32.5 -24t28.5 -24t33.5 -10.5
q21 0 34 14t20 45h50q-11 -56 -41 -85.5t-70 -29.5z" />
    <glyph glyph-name="Odieresis" unicode="&#xd6;" horiz-adv-x="638" 
d="M279 -10q-64 0 -113 33t-76.5 93.5t-27.5 141.5q0 93 27.5 178.5t75.5 151.5t110 104t131 38q67 0 116 -33.5t76 -94t27 -143.5q-1 -93 -29 -177.5t-75.5 -150t-109.5 -103.5t-132 -38zM288 59q50 0 96.5 33.5t83 91.5t58 131.5t21.5 151.5q0 60 -18.5 103.5t-52.5 67
t-81 23.5q-49 0 -94.5 -33.5t-82 -91t-57.5 -130.5t-21 -152q0 -59 18.5 -103.5t51.5 -68t78 -23.5zM513 840l20 90h88l-20 -90h-88zM305 840l20 90h88l-21 -90h-87z" />
    <glyph glyph-name="multiply" unicode="&#xd7;" horiz-adv-x="531" 
d="M404 177l-273 351l50 38l273 -351zM107 176l-40 48l411 343l39 -48z" />
    <glyph glyph-name="Oslash" unicode="&#xd8;" horiz-adv-x="638" 
d="M89 -10l-46 32l506 708l46 -32zM279 -10q-64 0 -113 33t-76.5 93.5t-27.5 141.5q0 93 27.5 178.5t75.5 151.5t110 104t131 38q67 0 116 -33.5t76 -94t27 -143.5q-1 -93 -29 -177.5t-75.5 -150t-109.5 -103.5t-132 -38zM288 59q50 0 96.5 33.5t83 91.5t58 131.5
t21.5 151.5q0 60 -18.5 103.5t-52.5 67t-81 23.5q-49 0 -94.5 -33.5t-82 -91t-57.5 -130.5t-21 -152q0 -59 18.5 -103.5t51.5 -68t78 -23.5z" />
    <glyph glyph-name="Ugrave" unicode="&#xd9;" horiz-adv-x="589" 
d="M261 -9q-75 0 -123.5 33.5t-65.5 95t2 142.5l105 458h75l-108 -470q-12 -57 -4.5 -99.5t38.5 -67t87 -24.5q68 0 108 40t58 119l116 502h76l-117 -505q-25 -109 -87.5 -166.5t-159.5 -57.5zM436 793l-114 157h96l74 -157h-56z" />
    <glyph glyph-name="Uacute" unicode="&#xda;" horiz-adv-x="589" 
d="M261 -9q-75 0 -123.5 33.5t-65.5 95t2 142.5l105 458h75l-108 -470q-12 -57 -4.5 -99.5t38.5 -67t87 -24.5q68 0 108 40t58 119l116 502h76l-117 -505q-25 -109 -87.5 -166.5t-159.5 -57.5zM411 793h-65l128 157h114z" />
    <glyph glyph-name="Ucircumflex" unicode="&#xdb;" horiz-adv-x="589" 
d="M261 -9q-75 0 -123.5 33.5t-65.5 95t2 142.5l105 458h75l-108 -470q-12 -57 -4.5 -99.5t38.5 -67t87 -24.5q68 0 108 40t58 119l116 502h76l-117 -505q-25 -109 -87.5 -166.5t-159.5 -57.5zM253 793l162 157h76l90 -157h-51l-109 137h69l-171 -137h-66z" />
    <glyph glyph-name="Udieresis" unicode="&#xdc;" horiz-adv-x="589" 
d="M261 -9q-75 0 -123.5 33.5t-65.5 95t2 142.5l105 458h75l-108 -470q-12 -57 -4.5 -99.5t38.5 -67t87 -24.5q68 0 108 40t58 119l116 502h76l-117 -505q-25 -109 -87.5 -166.5t-159.5 -57.5zM489 840l20 90h88l-20 -90h-88zM281 840l20 90h88l-21 -90h-87z" />
    <glyph glyph-name="Yacute" unicode="&#xdd;" horiz-adv-x="560" 
d="M183 0l76 331l-134 389h82l115 -341h-34l272 341h89l-314 -389l-76 -331h-76zM396 793h-65l128 157h114z" />
    <glyph glyph-name="Thorn" unicode="&#xde;" horiz-adv-x="541" 
d="M110 165l15 67h158q57 0 96 23.5t58.5 61.5t19.5 80q0 48 -28.5 79.5t-88.5 31.5h-151l15 67h152q55 0 94.5 -23t61 -63t21.5 -90q0 -63 -32.5 -116.5t-90 -85.5t-134.5 -32h-166zM19 0l166 720h75l-166 -720h-75z" />
    <glyph glyph-name="germandbls" unicode="&#xdf;" horiz-adv-x="528" 
d="M245 -10q-12 0 -28 1.5t-32 5.5t-29 9l14 62q21 -8 41.5 -11t34.5 -3q48 0 82 21.5t53 60t19 86.5q0 55 -29.5 91.5t-77.5 36.5h-41l15 65h38q29 0 54.5 10.5t45 31t30.5 49t11 62.5q0 47 -25 74t-72 27q-52 0 -88 -34.5t-53 -105.5l-122 -529h-73l125 542q21 92 77 140
t136 48q35 0 66 -9.5t54.5 -29t37.5 -48.5t14 -67q0 -46 -17.5 -85.5t-46.5 -68t-65.5 -42t-74.5 -9.5l-1 22q74 -8 115.5 -54.5t40.5 -116.5q0 -67 -30.5 -119t-82 -82.5t-116.5 -30.5z" />
    <glyph glyph-name="agrave" unicode="&#xe0;" horiz-adv-x="458" 
d="M274 0q-1 13 2.5 34.5t8.5 46.5l-6 1l61 267q6 27 3.5 52t-20.5 40.5t-58 15.5q-46 0 -74 -24.5t-40 -70.5h-69q18 77 68 117.5t127 40.5q66 0 98 -26t39 -68t-3 -87l-60 -260q-4 -20 -7 -41t-2 -38h-68zM139 -10q-57 0 -91 32.5t-34 87.5q0 44 21.5 78.5t62 58.5
t100.5 37l151 33l-14 -62l-130 -28q-61 -13 -89 -41t-28 -68q0 -33 19.5 -49t55.5 -16q50 0 86 28.5t48 79.5l-5 -77q-25 -46 -64.5 -70t-88.5 -24zM319 583l-114 157h96l74 -157h-56z" />
    <glyph glyph-name="aacute" unicode="&#xe1;" horiz-adv-x="458" 
d="M274 0q-1 13 2.5 34.5t8.5 46.5l-6 1l61 267q6 27 3.5 52t-20.5 40.5t-58 15.5q-46 0 -74 -24.5t-40 -70.5h-69q18 77 68 117.5t127 40.5q66 0 98 -26t39 -68t-3 -87l-60 -260q-4 -20 -7 -41t-2 -38h-68zM139 -10q-57 0 -91 32.5t-34 87.5q0 44 21.5 78.5t62 58.5
t100.5 37l151 33l-14 -62l-130 -28q-61 -13 -89 -41t-28 -68q0 -33 19.5 -49t55.5 -16q50 0 86 28.5t48 79.5l-5 -77q-25 -46 -64.5 -70t-88.5 -24zM294 583h-65l128 157h114z" />
    <glyph glyph-name="acircumflex" unicode="&#xe2;" horiz-adv-x="458" 
d="M274 0q-1 13 2.5 34.5t8.5 46.5l-6 1l61 267q6 27 3.5 52t-20.5 40.5t-58 15.5q-46 0 -74 -24.5t-40 -70.5h-69q18 77 68 117.5t127 40.5q66 0 98 -26t39 -68t-3 -87l-60 -260q-4 -20 -7 -41t-2 -38h-68zM139 -10q-57 0 -91 32.5t-34 87.5q0 44 21.5 78.5t62 58.5
t100.5 37l151 33l-14 -62l-130 -28q-61 -13 -89 -41t-28 -68q0 -33 19.5 -49t55.5 -16q50 0 86 28.5t48 79.5l-5 -77q-25 -46 -64.5 -70t-88.5 -24zM137 583l162 157h76l90 -157h-51l-109 137h69l-171 -137h-66z" />
    <glyph glyph-name="atilde" unicode="&#xe3;" horiz-adv-x="458" 
d="M274 0q-1 13 2.5 34.5t8.5 46.5l-6 1l61 267q6 27 3.5 52t-20.5 40.5t-58 15.5q-46 0 -74 -24.5t-40 -70.5h-69q18 77 68 117.5t127 40.5q66 0 98 -26t39 -68t-3 -87l-60 -260q-4 -20 -7 -41t-2 -38h-68zM139 -10q-57 0 -91 32.5t-34 87.5q0 44 21.5 78.5t62 58.5
t100.5 37l151 33l-14 -62l-130 -28q-61 -13 -89 -41t-28 -68q0 -33 19.5 -49t55.5 -16q50 0 86 28.5t48 79.5l-5 -77q-25 -46 -64.5 -70t-88.5 -24zM387 597q-27 0 -46 10.5t-34.5 24t-30 24t-32.5 10.5q-21 0 -34 -14t-21 -45h-50q8 36 23 62t38.5 39.5t52.5 13.5
q28 0 46.5 -10.5t32.5 -24t28.5 -24t33.5 -10.5q21 0 34 14t20 45h50q-11 -56 -41 -85.5t-70 -29.5z" />
    <glyph glyph-name="adieresis" unicode="&#xe4;" horiz-adv-x="458" 
d="M274 0q-1 13 2.5 34.5t8.5 46.5l-6 1l61 267q6 27 3.5 52t-20.5 40.5t-58 15.5q-46 0 -74 -24.5t-40 -70.5h-69q18 77 68 117.5t127 40.5q66 0 98 -26t39 -68t-3 -87l-60 -260q-4 -20 -7 -41t-2 -38h-68zM139 -10q-57 0 -91 32.5t-34 87.5q0 44 21.5 78.5t62 58.5
t100.5 37l151 33l-14 -62l-130 -28q-61 -13 -89 -41t-28 -68q0 -33 19.5 -49t55.5 -16q50 0 86 28.5t48 79.5l-5 -77q-25 -46 -64.5 -70t-88.5 -24zM372 630l20 90h88l-20 -90h-88zM164 630l20 90h88l-21 -90h-87z" />
    <glyph glyph-name="aring" unicode="&#xe5;" horiz-adv-x="458" 
d="M274 0q-1 13 2.5 34.5t8.5 46.5l-6 1l61 267q6 27 3.5 52t-20.5 40.5t-58 15.5q-46 0 -74 -24.5t-40 -70.5h-69q18 77 68 117.5t127 40.5q66 0 98 -26t39 -68t-3 -87l-60 -260q-4 -20 -7 -41t-2 -38h-68zM139 -10q-57 0 -91 32.5t-34 87.5q0 44 21.5 78.5t62 58.5
t100.5 37l151 33l-14 -62l-130 -28q-61 -13 -89 -41t-28 -68q0 -33 19.5 -49t55.5 -16q50 0 86 28.5t48 79.5l-5 -77q-25 -46 -64.5 -70t-88.5 -24zM310 561q-41 0 -69 27.5t-28 68.5q0 33 16 60t42.5 43t57.5 16q42 0 70 -27.5t28 -68.5q0 -31 -16.5 -58.5t-43 -44
t-57.5 -16.5zM313 606q27 0 47 20.5t20 49.5q0 24 -15 40t-39 16q-26 0 -46 -20.5t-20 -49.5q0 -24 15 -40t38 -16z" />
    <glyph glyph-name="ae" unicode="&#xe6;" horiz-adv-x="735" 
d="M289 125l51 224q6 27 3 52t-20.5 40.5t-57.5 15.5q-46 0 -74 -24.5t-40 -70.5h-69q18 77 68 117.5t127 40.5q66 0 98 -26t39 -68t-3 -87l-50 -217zM145 -10q-59 0 -95 32.5t-36 87.5q0 44 21.5 78.5t62 58.5t100.5 37l151 33l-14 -62l-130 -28q-61 -13 -89 -41t-28 -68
q0 -33 19.5 -49t55.5 -16q50 0 86 28.5t48 78.5l46 -36q-36 -67 -85 -100.5t-113 -33.5zM474 -10q-49 0 -85.5 24t-56 68t-19.5 104q0 43 10.5 89.5t31 90t50.5 78t69 55t86 20.5q46 0 79.5 -20.5t51.5 -59t18 -93.5q0 -29 -5.5 -59.5t-13.5 -50.5h-319l14 62h276l-35 -52
q8 32 11 68.5t-2.5 68.5t-24 52t-55.5 20q-32 0 -58 -17.5t-46.5 -46.5t-34 -64.5t-20.5 -72t-7 -68.5q0 -63 25 -97.5t71 -34.5q35 0 64 24.5t45 73.5h70q-28 -80 -77.5 -121t-112.5 -41z" />
    <glyph glyph-name="ccedilla" unicode="&#xe7;" horiz-adv-x="456" 
d="M195 -10q-50 0 -86 23t-56 67.5t-20 108.5q0 52 13 101t36.5 90.5t55.5 72.5t70.5 48.5t81.5 17.5q41 0 70.5 -16t48 -43t26 -60.5t2.5 -67.5h-69q3 31 -4 59t-26 46.5t-54 18.5q-30 0 -56.5 -14.5t-48.5 -40t-37.5 -59.5t-24 -74t-8.5 -82q0 -64 24 -98.5t69 -34.5
q46 0 81 33t51 92h69q-23 -87 -77.5 -137.5t-130.5 -50.5zM141 -215q-32 0 -55.5 11.5t-36 31t-10.5 42.5h49q-1 -16 15 -27t41 -11q20 0 34.5 10t14.5 27q0 18 -15 30t-57 20l42 93h51l-28 -63q31 -10 45.5 -31.5t14.5 -46.5q0 -39 -29 -62.5t-76 -23.5z" />
    <glyph glyph-name="egrave" unicode="&#xe8;" horiz-adv-x="479" 
d="M206 -10q-53 0 -92.5 24t-60.5 68t-21 104q0 43 11.5 89.5t32.5 90t52.5 78t72.5 55t91 20.5t86 -20.5t55.5 -59t19.5 -93.5q0 -29 -5 -59.5t-14 -50.5h-343l13 62h301l-35 -52q8 32 10.5 68.5t-5 68.5t-28.5 52t-60 20q-34 0 -62 -17.5t-49.5 -46.5t-37 -64.5t-23 -72
t-7.5 -68.5q0 -63 28.5 -97.5t80.5 -34.5q40 0 70.5 24.5t50.5 73.5h70q-31 -80 -82.5 -121t-119.5 -41zM335 583l-114 157h96l74 -157h-56z" />
    <glyph glyph-name="eacute" unicode="&#xe9;" horiz-adv-x="479" 
d="M206 -10q-53 0 -92.5 24t-60.5 68t-21 104q0 43 11.5 89.5t32.5 90t52.5 78t72.5 55t91 20.5t86 -20.5t55.5 -59t19.5 -93.5q0 -29 -5 -59.5t-14 -50.5h-343l13 62h301l-35 -52q8 32 10.5 68.5t-5 68.5t-28.5 52t-60 20q-34 0 -62 -17.5t-49.5 -46.5t-37 -64.5t-23 -72
t-7.5 -68.5q0 -63 28.5 -97.5t80.5 -34.5q40 0 70.5 24.5t50.5 73.5h70q-31 -80 -82.5 -121t-119.5 -41zM311 583h-65l128 157h114z" />
    <glyph glyph-name="ecircumflex" unicode="&#xea;" horiz-adv-x="479" 
d="M206 -10q-53 0 -92.5 24t-60.5 68t-21 104q0 43 11.5 89.5t32.5 90t52.5 78t72.5 55t91 20.5t86 -20.5t55.5 -59t19.5 -93.5q0 -29 -5 -59.5t-14 -50.5h-343l13 62h301l-35 -52q8 32 10.5 68.5t-5 68.5t-28.5 52t-60 20q-34 0 -62 -17.5t-49.5 -46.5t-37 -64.5t-23 -72
t-7.5 -68.5q0 -63 28.5 -97.5t80.5 -34.5q40 0 70.5 24.5t50.5 73.5h70q-31 -80 -82.5 -121t-119.5 -41zM153 583l162 157h76l90 -157h-51l-109 137h69l-171 -137h-66z" />
    <glyph glyph-name="edieresis" unicode="&#xeb;" horiz-adv-x="479" 
d="M206 -10q-53 0 -92.5 24t-60.5 68t-21 104q0 43 11.5 89.5t32.5 90t52.5 78t72.5 55t91 20.5t86 -20.5t55.5 -59t19.5 -93.5q0 -29 -5 -59.5t-14 -50.5h-343l13 62h301l-35 -52q8 32 10.5 68.5t-5 68.5t-28.5 52t-60 20q-34 0 -62 -17.5t-49.5 -46.5t-37 -64.5t-23 -72
t-7.5 -68.5q0 -63 28.5 -97.5t80.5 -34.5q40 0 70.5 24.5t50.5 73.5h70q-31 -80 -82.5 -121t-119.5 -41zM389 630l20 90h88l-20 -90h-88zM181 630l20 90h88l-21 -90h-87z" />
    <glyph glyph-name="igrave" unicode="&#xec;" horiz-adv-x="218" 
d="M14 0l117 510h73l-117 -510h-73zM201 583l-114 157h96l74 -157h-56z" />
    <glyph glyph-name="iacute" unicode="&#xed;" horiz-adv-x="218" 
d="M14 0l117 510h73l-117 -510h-73zM177 583h-65l128 157h114z" />
    <glyph glyph-name="icircumflex" unicode="&#xee;" horiz-adv-x="218" 
d="M14 0l117 510h73l-117 -510h-73zM19 583l162 157h76l90 -157h-51l-109 137h69l-171 -137h-66z" />
    <glyph glyph-name="idieresis" unicode="&#xef;" horiz-adv-x="218" 
d="M14 0l117 510h73l-117 -510h-73zM255 630l20 90h88l-20 -90h-88zM47 630l20 90h88l-21 -90h-87z" />
    <glyph glyph-name="eth" unicode="&#xf0;" horiz-adv-x="509" 
d="M207 -8q-49 0 -90 21t-65.5 63.5t-24.5 105.5q0 40 11 84.5t31.5 86t50.5 75t69 54t85 20.5q48 0 83 -20.5t54 -56t17 -82.5l-24 -28l8 35q15 63 10.5 119.5t-33 100.5t-80.5 70t-132 29l27 60q99 -4 162.5 -42t95 -103t31.5 -153q0 -48 -10 -106t-31 -117t-54.5 -108
t-80.5 -78.5t-110 -29.5zM212 58q36 0 64.5 17t49.5 44.5t35 60.5t21 66.5t7 62.5q0 39 -13.5 67.5t-39 44t-59.5 15.5q-38 0 -67 -18t-49.5 -47t-33.5 -63t-18.5 -67t-5.5 -58q0 -63 31 -94t78 -31zM226 545l-21 47l278 148l21 -47z" />
    <glyph glyph-name="ntilde" unicode="&#xf1;" horiz-adv-x="518" 
d="M14 0l117 510h68l-24 -108h5l-93 -402h-73zM319 0l79 346q12 54 -8 82.5t-68 28.5q-59 0 -103.5 -40.5t-60.5 -109.5l13 102q30 54 75.5 82.5t99.5 28.5q74 0 109 -47t18 -125l-81 -348h-73zM442 597q-27 0 -46 10.5t-34.5 24t-30 24t-32.5 10.5q-21 0 -34 -14t-21 -45
h-50q8 36 23 62t38.5 39.5t52.5 13.5q28 0 46.5 -10.5t32.5 -24t28.5 -24t33.5 -10.5q21 0 34 14t20 45h50q-11 -56 -41 -85.5t-70 -29.5z" />
    <glyph glyph-name="ograve" unicode="&#xf2;" horiz-adv-x="505" 
d="M212 -10q-53 0 -93.5 25t-62.5 71t-22 109q0 66 20.5 125t56.5 104t83 70.5t99 25.5q55 0 95 -24.5t61.5 -70t21.5 -106.5q0 -67 -21 -126.5t-57 -105t-82.5 -71.5t-98.5 -26zM217 54q35 0 67.5 21.5t57.5 58.5t39.5 85t14.5 101q0 64 -28.5 100t-79.5 36q-36 0 -68 -21
t-56.5 -57t-39 -83.5t-14.5 -101.5q0 -65 29 -102t78 -37zM344 583l-114 157h96l74 -157h-56z" />
    <glyph glyph-name="oacute" unicode="&#xf3;" horiz-adv-x="505" 
d="M212 -10q-53 0 -93.5 25t-62.5 71t-22 109q0 66 20.5 125t56.5 104t83 70.5t99 25.5q55 0 95 -24.5t61.5 -70t21.5 -106.5q0 -67 -21 -126.5t-57 -105t-82.5 -71.5t-98.5 -26zM217 54q35 0 67.5 21.5t57.5 58.5t39.5 85t14.5 101q0 64 -28.5 100t-79.5 36q-36 0 -68 -21
t-56.5 -57t-39 -83.5t-14.5 -101.5q0 -65 29 -102t78 -37zM319 583h-65l128 157h114z" />
    <glyph glyph-name="ocircumflex" unicode="&#xf4;" horiz-adv-x="505" 
d="M212 -10q-53 0 -93.5 25t-62.5 71t-22 109q0 66 20.5 125t56.5 104t83 70.5t99 25.5q55 0 95 -24.5t61.5 -70t21.5 -106.5q0 -67 -21 -126.5t-57 -105t-82.5 -71.5t-98.5 -26zM217 54q35 0 67.5 21.5t57.5 58.5t39.5 85t14.5 101q0 64 -28.5 100t-79.5 36q-36 0 -68 -21
t-56.5 -57t-39 -83.5t-14.5 -101.5q0 -65 29 -102t78 -37zM162 583l162 157h76l90 -157h-51l-109 137h69l-171 -137h-66z" />
    <glyph glyph-name="otilde" unicode="&#xf5;" horiz-adv-x="505" 
d="M212 -10q-53 0 -93.5 25t-62.5 71t-22 109q0 66 20.5 125t56.5 104t83 70.5t99 25.5q55 0 95 -24.5t61.5 -70t21.5 -106.5q0 -67 -21 -126.5t-57 -105t-82.5 -71.5t-98.5 -26zM217 54q35 0 67.5 21.5t57.5 58.5t39.5 85t14.5 101q0 64 -28.5 100t-79.5 36q-36 0 -68 -21
t-56.5 -57t-39 -83.5t-14.5 -101.5q0 -65 29 -102t78 -37zM412 597q-27 0 -46 10.5t-34.5 24t-30 24t-32.5 10.5q-21 0 -34 -14t-21 -45h-50q8 36 23 62t38.5 39.5t52.5 13.5q28 0 46.5 -10.5t32.5 -24t28.5 -24t33.5 -10.5q21 0 34 14t20 45h50q-11 -56 -41 -85.5
t-70 -29.5z" />
    <glyph glyph-name="odieresis" unicode="&#xf6;" horiz-adv-x="505" 
d="M212 -10q-53 0 -93.5 25t-62.5 71t-22 109q0 66 20.5 125t56.5 104t83 70.5t99 25.5q55 0 95 -24.5t61.5 -70t21.5 -106.5q0 -67 -21 -126.5t-57 -105t-82.5 -71.5t-98.5 -26zM217 54q35 0 67.5 21.5t57.5 58.5t39.5 85t14.5 101q0 64 -28.5 100t-79.5 36q-36 0 -68 -21
t-56.5 -57t-39 -83.5t-14.5 -101.5q0 -65 29 -102t78 -37zM398 630l20 90h88l-20 -90h-88zM190 630l20 90h88l-21 -90h-87z" />
    <glyph glyph-name="divide" unicode="&#xf7;" horiz-adv-x="531" 
d="M80 340l14 62h411l-14 -62h-411zM324 483q-21 0 -35 13.5t-14 34.5q0 26 18.5 44t42.5 18q21 0 35 -14t14 -36q0 -27 -18.5 -43.5t-42.5 -16.5zM248 150q-22 0 -36 14t-14 35q0 26 18.5 43.5t43.5 17.5q20 0 34.5 -14t14.5 -35q0 -28 -18.5 -44.5t-42.5 -16.5z" />
    <glyph glyph-name="oslash" unicode="&#xf8;" horiz-adv-x="505" 
d="M212 -10q-53 0 -93.5 25t-62.5 71t-22 109q0 66 20.5 125t56.5 104t83 70.5t99 25.5q55 0 95 -24.5t61.5 -70t21.5 -106.5q0 -67 -21 -126.5t-57 -105t-82.5 -71.5t-98.5 -26zM217 54q35 0 67.5 21.5t57.5 58.5t39.5 85t14.5 101q0 64 -28.5 100t-79.5 36q-36 0 -68 -21
t-56.5 -57t-39 -83.5t-14.5 -101.5q0 -65 29 -102t78 -37zM18 -6l-34 36l503 486l34 -36z" />
    <glyph glyph-name="ugrave" unicode="&#xf9;" horiz-adv-x="509" 
d="M169 -10q-72 0 -106.5 47t-17.5 125l81 348h74l-80 -346q-12 -53 7.5 -82t65.5 -29q55 0 98.5 40.5t59.5 109.5l-12 -102q-30 -54 -75 -82.5t-95 -28.5zM311 0l25 108h-7l93 402h74l-118 -510h-67zM347 583l-114 157h96l74 -157h-56z" />
    <glyph glyph-name="uacute" unicode="&#xfa;" horiz-adv-x="509" 
d="M169 -10q-72 0 -106.5 47t-17.5 125l81 348h74l-80 -346q-12 -53 7.5 -82t65.5 -29q55 0 98.5 40.5t59.5 109.5l-12 -102q-30 -54 -75 -82.5t-95 -28.5zM311 0l25 108h-7l93 402h74l-118 -510h-67zM323 583h-65l128 157h114z" />
    <glyph glyph-name="ucircumflex" unicode="&#xfb;" horiz-adv-x="509" 
d="M169 -10q-72 0 -106.5 47t-17.5 125l81 348h74l-80 -346q-12 -53 7.5 -82t65.5 -29q55 0 98.5 40.5t59.5 109.5l-12 -102q-30 -54 -75 -82.5t-95 -28.5zM311 0l25 108h-7l93 402h74l-118 -510h-67zM165 583l162 157h76l90 -157h-51l-109 137h69l-171 -137h-66z" />
    <glyph glyph-name="udieresis" unicode="&#xfc;" horiz-adv-x="509" 
d="M169 -10q-72 0 -106.5 47t-17.5 125l81 348h74l-80 -346q-12 -53 7.5 -82t65.5 -29q55 0 98.5 40.5t59.5 109.5l-12 -102q-30 -54 -75 -82.5t-95 -28.5zM311 0l25 108h-7l93 402h74l-118 -510h-67zM401 630l20 90h88l-20 -90h-88zM193 630l20 90h88l-21 -90h-87z" />
    <glyph glyph-name="yacute" unicode="&#xfd;" horiz-adv-x="453" 
d="M-5 -205l159 268l19 26l240 421h80l-416 -715h-82zM152 0l-74 510h76l57 -445zM295 583h-65l128 157h114z" />
    <glyph glyph-name="thorn" unicode="&#xfe;" 
d="M242 -10q-42 0 -74 17.5t-49 49.5t-16 74l15 4l-79 -340h-73l213 925h73l-71 -307l-7 6q25 49 68 75t94 26q72 0 113 -52t41 -138q0 -69 -19.5 -130t-53.5 -108t-79 -74.5t-96 -27.5zM238 56q37 0 69 21.5t56 58t37.5 84t13.5 99.5q0 65 -27 100t-78 35q-33 0 -61 -17.5
t-49.5 -46t-36.5 -64t-22.5 -71.5t-7.5 -67q0 -63 29 -97.5t77 -34.5z" />
    <glyph glyph-name="ydieresis" unicode="&#xff;" horiz-adv-x="453" 
d="M-5 -205l159 268l19 26l240 421h80l-416 -715h-82zM152 0l-74 510h76l57 -445zM373 630l20 90h88l-20 -90h-88zM165 630l20 90h88l-21 -90h-87z" />
    <glyph glyph-name="Amacron" unicode="&#x100;" horiz-adv-x="583" 
d="M-29 0l378 720h69l-371 -720h-76zM420 0l-41 720h65l50 -720h-74zM144 283h302l-14 -66h-302zM271 855l12 52h305l-12 -52h-305z" />
    <glyph glyph-name="amacron" unicode="&#x101;" horiz-adv-x="458" 
d="M274 0q-1 13 2.5 34.5t8.5 46.5l-6 1l61 267q6 27 3.5 52t-20.5 40.5t-58 15.5q-46 0 -74 -24.5t-40 -70.5h-69q18 77 68 117.5t127 40.5q66 0 98 -26t39 -68t-3 -87l-60 -260q-4 -20 -7 -41t-2 -38h-68zM139 -10q-57 0 -91 32.5t-34 87.5q0 44 21.5 78.5t62 58.5
t100.5 37l151 33l-14 -62l-130 -28q-61 -13 -89 -41t-28 -68q0 -33 19.5 -49t55.5 -16q50 0 86 28.5t48 79.5l-5 -77q-25 -46 -64.5 -70t-88.5 -24zM163 645l12 52h305l-12 -52h-305z" />
    <glyph glyph-name="Abreve" unicode="&#x102;" horiz-adv-x="583" 
d="M-29 0l378 720h69l-371 -720h-76zM420 0l-41 720h65l50 -720h-74zM144 283h302l-14 -66h-302zM425 789q-39 0 -66.5 14.5t-44 38t-20.5 52.5t4 56h52q-7 -23 -1 -46.5t27 -39t56 -15.5q43 0 71.5 25t38.5 76h53q-16 -82 -62.5 -121.5t-107.5 -39.5z" />
    <glyph glyph-name="abreve" unicode="&#x103;" horiz-adv-x="458" 
d="M274 0q-1 13 2.5 34.5t8.5 46.5l-6 1l61 267q6 27 3.5 52t-20.5 40.5t-58 15.5q-46 0 -74 -24.5t-40 -70.5h-69q18 77 68 117.5t127 40.5q66 0 98 -26t39 -68t-3 -87l-60 -260q-4 -20 -7 -41t-2 -38h-68zM139 -10q-57 0 -91 32.5t-34 87.5q0 44 21.5 78.5t62 58.5
t100.5 37l151 33l-14 -62l-130 -28q-61 -13 -89 -41t-28 -68q0 -33 19.5 -49t55.5 -16q50 0 86 28.5t48 79.5l-5 -77q-25 -46 -64.5 -70t-88.5 -24zM316 579q-39 0 -66.5 14.5t-44 38t-20.5 52.5t4 56h52q-7 -23 -1 -46.5t27 -39t56 -15.5q43 0 71.5 25t38.5 76h53
q-16 -82 -62.5 -121.5t-107.5 -39.5z" />
    <glyph glyph-name="Aogonek" unicode="&#x104;" horiz-adv-x="583" 
d="M-29 0l378 720h69l-371 -720h-76zM420 0l-41 720h65l50 -720h-74zM144 283h302l-14 -66h-302zM390 -216q-35 0 -56 18t-21 49q0 46 46 90.5t118 77.5l17 -19q-57 -37 -91.5 -70.5t-34.5 -67.5q0 -16 9 -23.5t22 -7.5q16 0 33 12l19 -39q-15 -10 -29.5 -15t-31.5 -5z" />
    <glyph glyph-name="aogonek" unicode="&#x105;" horiz-adv-x="458" 
d="M274 0q-1 13 2.5 34.5t8.5 46.5l-6 1l61 267q6 27 3.5 52t-20.5 40.5t-58 15.5q-46 0 -74 -24.5t-40 -70.5h-69q18 77 68 117.5t127 40.5q66 0 98 -26t39 -68t-3 -87l-60 -260q-4 -20 -7 -41t-2 -38h-68zM139 -10q-57 0 -91 32.5t-34 87.5q0 44 21.5 78.5t62 58.5
t100.5 37l151 33l-14 -62l-130 -28q-61 -13 -89 -41t-28 -68q0 -33 19.5 -49t55.5 -16q50 0 86 28.5t48 79.5l-5 -77q-25 -46 -64.5 -70t-88.5 -24zM241 -216q-35 0 -56 18t-21 49q0 46 46 90.5t118 77.5l17 -19q-57 -37 -91.5 -70.5t-34.5 -67.5q0 -16 9 -23.5t22 -7.5
q16 0 33 12l19 -39q-15 -10 -29.5 -15t-31.5 -5z" />
    <glyph glyph-name="Cacute" unicode="&#x106;" horiz-adv-x="596" 
d="M278 -10q-66 0 -114.5 32t-75 90t-26.5 138q0 57 12 114.5t33.5 111.5t52.5 100t69.5 80.5t84 54t95.5 19.5q57 0 97.5 -23t65 -62.5t32.5 -88t0 -99.5h-76q6 39 2 75.5t-18.5 65.5t-41.5 46t-69 17q-44 0 -84 -24.5t-72.5 -66.5t-56 -94.5t-36 -111t-12.5 -114.5
q0 -93 38 -142t108 -49t120.5 52t77.5 152h75q-21 -87 -62 -148.5t-96.5 -93t-122.5 -31.5zM409 793h-65l128 157h114z" />
    <glyph glyph-name="cacute" unicode="&#x107;" horiz-adv-x="456" 
d="M195 -10q-50 0 -86 23t-56 67.5t-20 108.5q0 52 13 101t36.5 90.5t55.5 72.5t70.5 48.5t81.5 17.5q41 0 70.5 -16t48 -43t26 -60.5t2.5 -67.5h-69q3 31 -4 59t-26 46.5t-54 18.5q-30 0 -56.5 -14.5t-48.5 -40t-37.5 -59.5t-24 -74t-8.5 -82q0 -64 24 -98.5t69 -34.5
q46 0 81 33t51 92h69q-23 -87 -77.5 -137.5t-130.5 -50.5zM311 583h-65l128 157h114z" />
    <glyph glyph-name="Cdotaccent" unicode="&#x10a;" horiz-adv-x="596" 
d="M278 -10q-66 0 -114.5 32t-75 90t-26.5 138q0 57 12 114.5t33.5 111.5t52.5 100t69.5 80.5t84 54t95.5 19.5q57 0 97.5 -23t65 -62.5t32.5 -88t0 -99.5h-76q6 39 2 75.5t-18.5 65.5t-41.5 46t-69 17q-44 0 -84 -24.5t-72.5 -66.5t-56 -94.5t-36 -111t-12.5 -114.5
q0 -93 38 -142t108 -49t120.5 52t77.5 152h75q-21 -87 -62 -148.5t-96.5 -93t-122.5 -31.5zM381 840l19 90h88l-19 -90h-88z" />
    <glyph glyph-name="cdotaccent" unicode="&#x10b;" horiz-adv-x="456" 
d="M195 -10q-50 0 -86 23t-56 67.5t-20 108.5q0 52 13 101t36.5 90.5t55.5 72.5t70.5 48.5t81.5 17.5q41 0 70.5 -16t48 -43t26 -60.5t2.5 -67.5h-69q3 31 -4 59t-26 46.5t-54 18.5q-30 0 -56.5 -14.5t-48.5 -40t-37.5 -59.5t-24 -74t-8.5 -82q0 -64 24 -98.5t69 -34.5
q46 0 81 33t51 92h69q-23 -87 -77.5 -137.5t-130.5 -50.5zM283 630l19 90h88l-19 -90h-88z" />
    <glyph glyph-name="Ccaron" unicode="&#x10c;" horiz-adv-x="596" 
d="M278 -10q-66 0 -114.5 32t-75 90t-26.5 138q0 57 12 114.5t33.5 111.5t52.5 100t69.5 80.5t84 54t95.5 19.5q57 0 97.5 -23t65 -62.5t32.5 -88t0 -99.5h-76q6 39 2 75.5t-18.5 65.5t-41.5 46t-69 17q-44 0 -84 -24.5t-72.5 -66.5t-56 -94.5t-36 -111t-12.5 -114.5
q0 -93 38 -142t108 -49t120.5 52t77.5 152h75q-21 -87 -62 -148.5t-96.5 -93t-122.5 -31.5zM379 793l-90 157h51l109 -137h-69l171 137h66l-162 -157h-76z" />
    <glyph glyph-name="ccaron" unicode="&#x10d;" horiz-adv-x="456" 
d="M195 -10q-50 0 -86 23t-56 67.5t-20 108.5q0 52 13 101t36.5 90.5t55.5 72.5t70.5 48.5t81.5 17.5q41 0 70.5 -16t48 -43t26 -60.5t2.5 -67.5h-69q3 31 -4 59t-26 46.5t-54 18.5q-30 0 -56.5 -14.5t-48.5 -40t-37.5 -59.5t-24 -74t-8.5 -82q0 -64 24 -98.5t69 -34.5
q46 0 81 33t51 92h69q-23 -87 -77.5 -137.5t-130.5 -50.5zM280 583l-90 157h51l109 -137h-69l171 137h66l-162 -157h-76z" />
    <glyph glyph-name="Dcaron" unicode="&#x10e;" horiz-adv-x="619" 
d="M68 0l15 69h156q60 0 112.5 30t92 82t61.5 118t22 138q0 69 -18.5 117.5t-56 73.5t-95.5 25h-143l15 67h140q72 0 125 -33.5t82 -94.5t29 -145q0 -88 -29 -169t-80 -143.5t-118 -98.5t-143 -36h-167zM20 0l165 720h75l-165 -720h-75zM375 793l-90 157h51l109 -137h-69
l171 137h66l-162 -157h-76z" />
    <glyph glyph-name="dcaron" unicode="&#x10f;" horiz-adv-x="561" 
d="M325 0l22 98l2 -7q-24 -49 -67 -75t-94 -26q-72 0 -113 52t-41 138q0 69 19.5 130t53.5 108t78.5 74.5t95.5 27.5q43 0 74.5 -17.5t49.5 -49t16 -74.5l-15 -4l80 345h73l-166 -720h-68zM214 56q34 0 62 17.5t49.5 46t36.5 64t22.5 71.5t7.5 67q0 63 -29 97.5t-77 34.5
q-49 0 -89 -36t-63.5 -94.5t-23.5 -128.5q0 -64 27.5 -101.5t76.5 -37.5zM614 503h-45l50 217h71z" />
    <glyph glyph-name="Dcroat" unicode="&#x110;" horiz-adv-x="619" 
d="M17 329l15 62h320l-15 -62h-320zM68 0l15 69h156q60 0 112.5 30t92 82t61.5 118t22 138q0 69 -18.5 117.5t-56 73.5t-95.5 25h-143l15 67h140q72 0 125 -33.5t82 -94.5t29 -145q0 -88 -29 -169t-80 -143.5t-118 -98.5t-143 -36h-167zM20 0l165 720h75l-165 -720h-75z" />
    <glyph glyph-name="dcroat" unicode="&#x111;" 
d="M302 595l13 53h299l-12 -53h-300zM325 0l22 98l2 -7q-24 -49 -67 -75t-94 -26q-72 0 -113 52t-41 138q0 69 19.5 130t53.5 108t78.5 74.5t95.5 27.5q43 0 74.5 -17.5t49.5 -49t16 -74.5l-15 -4l80 345h73l-166 -720h-68zM214 56q34 0 62 17.5t49.5 46t36.5 64t22.5 71.5
t7.5 67q0 63 -29 97.5t-77 34.5q-49 0 -89 -36t-63.5 -94.5t-23.5 -128.5q0 -64 27.5 -101.5t76.5 -37.5z" />
    <glyph glyph-name="Emacron" unicode="&#x112;" horiz-adv-x="522" 
d="M19 0l166 720h75l-166 -720h-75zM61 0l15 67h343l-15 -67h-343zM139 342l15 66h314l-15 -66h-314zM211 653l16 67h335l-16 -67h-335zM256 855l12 52h305l-12 -52h-305z" />
    <glyph glyph-name="emacron" unicode="&#x113;" horiz-adv-x="479" 
d="M206 -10q-53 0 -92.5 24t-60.5 68t-21 104q0 43 11.5 89.5t32.5 90t52.5 78t72.5 55t91 20.5t86 -20.5t55.5 -59t19.5 -93.5q0 -29 -5 -59.5t-14 -50.5h-343l13 62h301l-35 -52q8 32 10.5 68.5t-5 68.5t-28.5 52t-60 20q-34 0 -62 -17.5t-49.5 -46.5t-37 -64.5t-23 -72
t-7.5 -68.5q0 -63 28.5 -97.5t80.5 -34.5q40 0 70.5 24.5t50.5 73.5h70q-31 -80 -82.5 -121t-119.5 -41zM179 645l12 52h305l-12 -52h-305z" />
    <glyph glyph-name="Edotaccent" unicode="&#x116;" horiz-adv-x="522" 
d="M19 0l166 720h75l-166 -720h-75zM61 0l15 67h343l-15 -67h-343zM139 342l15 66h314l-15 -66h-314zM211 653l16 67h335l-16 -67h-335zM359 840l19 90h88l-19 -90h-88z" />
    <glyph glyph-name="edotaccent" unicode="&#x117;" horiz-adv-x="479" 
d="M206 -10q-53 0 -92.5 24t-60.5 68t-21 104q0 43 11.5 89.5t32.5 90t52.5 78t72.5 55t91 20.5t86 -20.5t55.5 -59t19.5 -93.5q0 -29 -5 -59.5t-14 -50.5h-343l13 62h301l-35 -52q8 32 10.5 68.5t-5 68.5t-28.5 52t-60 20q-34 0 -62 -17.5t-49.5 -46.5t-37 -64.5t-23 -72
t-7.5 -68.5q0 -63 28.5 -97.5t80.5 -34.5q40 0 70.5 24.5t50.5 73.5h70q-31 -80 -82.5 -121t-119.5 -41zM282 630l19 90h88l-19 -90h-88z" />
    <glyph glyph-name="Eogonek" unicode="&#x118;" horiz-adv-x="522" 
d="M19 0l166 720h75l-166 -720h-75zM61 0l15 67h343l-15 -67h-343zM139 342l15 66h314l-15 -66h-314zM211 653l16 67h335l-16 -67h-335zM264 -216q-35 0 -56 18t-21 49q0 46 46 90.5t118 77.5l17 -19q-57 -37 -91.5 -70.5t-34.5 -67.5q0 -16 9 -23.5t22 -7.5q16 0 33 12
l19 -39q-15 -10 -29.5 -15t-31.5 -5z" />
    <glyph glyph-name="eogonek" unicode="&#x119;" horiz-adv-x="479" 
d="M206 -10q-53 0 -92.5 24t-60.5 68t-21 104q0 43 11.5 89.5t32.5 90t52.5 78t72.5 55t91 20.5t86 -20.5t55.5 -59t19.5 -93.5q0 -29 -5 -59.5t-14 -50.5h-343l13 62h301l-35 -52q8 32 10.5 68.5t-5 68.5t-28.5 52t-60 20q-34 0 -62 -17.5t-49.5 -46.5t-37 -64.5t-23 -72
t-7.5 -68.5q0 -63 28.5 -97.5t80.5 -34.5q40 0 70.5 24.5t50.5 73.5h70q-31 -80 -82.5 -121t-119.5 -41zM190 -196q-35 0 -56 18t-21 49q0 46 46 90.5t118 77.5l17 -19q-57 -37 -91.5 -70.5t-34.5 -67.5q0 -16 9 -23.5t22 -7.5q16 0 33 12l19 -39q-15 -10 -29.5 -15
t-31.5 -5z" />
    <glyph glyph-name="Ecaron" unicode="&#x11a;" horiz-adv-x="522" 
d="M19 0l166 720h75l-166 -720h-75zM61 0l15 67h343l-15 -67h-343zM139 342l15 66h314l-15 -66h-314zM211 653l16 67h335l-16 -67h-335zM357 793l-90 157h51l109 -137h-69l171 137h66l-162 -157h-76z" />
    <glyph glyph-name="ecaron" unicode="&#x11b;" horiz-adv-x="479" 
d="M206 -10q-53 0 -92.5 24t-60.5 68t-21 104q0 43 11.5 89.5t32.5 90t52.5 78t72.5 55t91 20.5t86 -20.5t55.5 -59t19.5 -93.5q0 -29 -5 -59.5t-14 -50.5h-343l13 62h301l-35 -52q8 32 10.5 68.5t-5 68.5t-28.5 52t-60 20q-34 0 -62 -17.5t-49.5 -46.5t-37 -64.5t-23 -72
t-7.5 -68.5q0 -63 28.5 -97.5t80.5 -34.5q40 0 70.5 24.5t50.5 73.5h70q-31 -80 -82.5 -121t-119.5 -41zM280 583l-90 157h51l109 -137h-69l171 137h66l-162 -157h-76z" />
    <glyph glyph-name="Gbreve" unicode="&#x11e;" horiz-adv-x="618" 
d="M286 -10q-71 0 -121.5 32t-77.5 90t-27 139q0 68 16.5 136.5t47.5 130t74 109.5t95.5 75.5t112.5 27.5q55 0 94.5 -21t63.5 -56t34 -78t7 -88h-75q1 33 -5.5 63.5t-21 55.5t-40.5 40t-64 15q-45 0 -85 -24.5t-72.5 -66.5t-55.5 -94.5t-36 -111t-13 -114.5
q0 -93 39.5 -142t115.5 -49q51 0 92 15.5t66 45.5l68 -30q-43 -48 -101 -74t-131 -26zM442 92l58 250l23 -31h-183l17 66h227l-66 -287zM455 789q-39 0 -66.5 14.5t-44 38t-20.5 52.5t4 56h52q-7 -23 -1 -46.5t27 -39t56 -15.5q43 0 71.5 25t38.5 76h53
q-16 -82 -62.5 -121.5t-107.5 -39.5z" />
    <glyph glyph-name="gbreve" unicode="&#x11f;" 
d="M172 -215q-61 0 -101.5 20.5t-60.5 55t-20 73.5h67q4 -43 35 -64t84 -21q54 0 91 32t50 96l27 121l5 -12q-25 -47 -67 -71.5t-91 -24.5q-73 0 -114.5 53t-41.5 141q0 68 19 128.5t53 107t78 73.5t94 27q42 0 73.5 -17t49.5 -47t18 -71l-8 -8l29 133h68l-119 -536
q-20 -91 -77 -140t-141 -49zM216 56q34 0 61.5 17t48.5 45.5t35.5 63.5t22 70.5t7.5 66.5q0 65 -29 100t-78 35t-88.5 -36t-62 -94.5t-22.5 -128.5q0 -64 28 -101.5t77 -37.5zM335 579q-39 0 -66.5 14.5t-44 38t-20.5 52.5t4 56h52q-7 -23 -1 -46.5t27 -39t56 -15.5
q43 0 71.5 25t38.5 76h53q-16 -82 -62.5 -121.5t-107.5 -39.5z" />
    <glyph glyph-name="Gdotaccent" unicode="&#x120;" horiz-adv-x="618" 
d="M286 -10q-71 0 -121.5 32t-77.5 90t-27 139q0 68 16.5 136.5t47.5 130t74 109.5t95.5 75.5t112.5 27.5q55 0 94.5 -21t63.5 -56t34 -78t7 -88h-75q1 33 -5.5 63.5t-21 55.5t-40.5 40t-64 15q-45 0 -85 -24.5t-72.5 -66.5t-55.5 -94.5t-36 -111t-13 -114.5
q0 -93 39.5 -142t115.5 -49q51 0 92 15.5t66 45.5l68 -30q-43 -48 -101 -74t-131 -26zM442 92l58 250l23 -31h-183l17 66h227l-66 -287zM405 840l19 90h88l-19 -90h-88z" />
    <glyph glyph-name="gdotaccent" unicode="&#x121;" 
d="M172 -215q-61 0 -101.5 20.5t-60.5 55t-20 73.5h67q4 -43 35 -64t84 -21q54 0 91 32t50 96l27 121l5 -12q-25 -47 -67 -71.5t-91 -24.5q-73 0 -114.5 53t-41.5 141q0 68 19 128.5t53 107t78 73.5t94 27q42 0 73.5 -17t49.5 -47t18 -71l-8 -8l29 133h68l-119 -536
q-20 -91 -77 -140t-141 -49zM216 56q34 0 61.5 17t48.5 45.5t35.5 63.5t22 70.5t7.5 66.5q0 65 -29 100t-78 35t-88.5 -36t-62 -94.5t-22.5 -128.5q0 -64 28 -101.5t77 -37.5zM284 630l19 90h88l-19 -90h-88z" />
    <glyph glyph-name="uni0122" unicode="&#x122;" horiz-adv-x="618" 
d="M286 -10q-71 0 -121.5 32t-77.5 90t-27 139q0 68 16.5 136.5t47.5 130t74 109.5t95.5 75.5t112.5 27.5q55 0 94.5 -21t63.5 -56t34 -78t7 -88h-75q1 33 -5.5 63.5t-21 55.5t-40.5 40t-64 15q-45 0 -85 -24.5t-72.5 -66.5t-55.5 -94.5t-36 -111t-13 -114.5
q0 -93 39.5 -142t115.5 -49q51 0 92 15.5t66 45.5l68 -30q-43 -48 -101 -74t-131 -26zM442 92l58 250l23 -31h-183l17 66h227l-66 -287zM147 -284l9 39q30 10 48.5 30t25.5 51l27 -4h-83l22 97h100l-20 -84q-12 -52 -43 -83t-86 -46z" />
    <glyph glyph-name="uni0123" unicode="&#x123;" 
d="M172 -215q-61 0 -101.5 20.5t-60.5 55t-20 73.5h67q4 -43 35 -64t84 -21q54 0 91 32t50 96l27 121l5 -12q-25 -47 -67 -71.5t-91 -24.5q-73 0 -114.5 53t-41.5 141q0 68 19 128.5t53 107t78 73.5t94 27q42 0 73.5 -17t49.5 -47t18 -71l-8 -8l29 133h68l-119 -536
q-20 -91 -77 -140t-141 -49zM216 56q34 0 61.5 17t48.5 45.5t35.5 63.5t22 70.5t7.5 66.5q0 65 -29 100t-78 35t-88.5 -36t-62 -94.5t-22.5 -128.5q0 -64 28 -101.5t77 -37.5zM268 581l21 89q12 50 45 81.5t84 42.5l-10 -39q-29 -10 -47.5 -30t-26.5 -52l-27 5h84l-23 -97
h-100z" />
    <glyph glyph-name="Hbar" unicode="&#x126;" horiz-adv-x="613" 
d="M67 544l14 62h613l-14 -62h-613zM20 0l165 720h75l-165 -720h-75zM401 0l165 720h76l-165 -720h-76zM155 408h371l-15 -66h-371z" />
    <glyph glyph-name="hbar" unicode="&#x127;" horiz-adv-x="517" 
d="M79 595l12 53h300l-13 -53h-299zM13 0l166 720h73l-166 -720h-73zM318 0l79 346q13 54 -7 82.5t-68 28.5q-59 0 -103.5 -40.5t-61.5 -109.5l13 102q31 54 76.5 82.5t99.5 28.5q74 0 108.5 -47t17.5 -125l-80 -348h-74z" />
    <glyph glyph-name="Imacron" unicode="&#x12a;" horiz-adv-x="231" 
d="M19 0l166 720h75l-166 -720h-75zM100 855l12 52h305l-12 -52h-305z" />
    <glyph glyph-name="imacron" unicode="&#x12b;" horiz-adv-x="218" 
d="M14 0l117 510h73l-117 -510h-73zM45 645l12 52h305l-12 -52h-305z" />
    <glyph glyph-name="Iogonek" unicode="&#x12e;" horiz-adv-x="231" 
d="M19 0l166 720h75l-166 -720h-75zM-19 -216q-35 0 -56 18t-21 49q0 46 46 90.5t118 77.5l17 -19q-57 -37 -91.5 -70.5t-34.5 -67.5q0 -16 9 -23.5t22 -7.5q16 0 33 12l19 -39q-15 -10 -29.5 -15t-31.5 -5z" />
    <glyph glyph-name="iogonek" unicode="&#x12f;" horiz-adv-x="218" 
d="M14 0l117 510h73l-117 -510h-73zM149 630l19 90h88l-19 -90h-88zM-17 -216q-35 0 -56 18t-21 49q0 46 46 90.5t118 77.5l17 -19q-57 -37 -91.5 -70.5t-34.5 -67.5q0 -16 9 -23.5t22 -7.5q16 0 33 12l19 -39q-15 -10 -29.5 -15t-31.5 -5z" />
    <glyph glyph-name="Idotaccent" unicode="&#x130;" horiz-adv-x="231" 
d="M19 0l166 720h75l-166 -720h-75zM204 840l19 90h88l-19 -90h-88z" />
    <glyph glyph-name="dotlessi" unicode="&#x131;" horiz-adv-x="218" 
d="M14 0l117 510h73l-117 -510h-73z" />
    <glyph glyph-name="IJ" unicode="&#x132;" horiz-adv-x="609" 
d="M19 0l166 720h75l-166 -720h-75zM290 -10q-35 0 -62 4.5t-39 10.5l16 70q16 -7 42.5 -12t56.5 -5q55 0 89.5 26t49.5 90l126 546h75l-126 -551q-22 -96 -79.5 -137.5t-148.5 -41.5z" />
    <glyph glyph-name="ij" unicode="&#x133;" horiz-adv-x="434" 
d="M14 0l117 510h73l-117 -510h-73zM149 630l19 90h88l-19 -90h-88zM151 -214q-11 0 -31.5 2.5t-34.5 9.5l13 58q7 -4 20.5 -7t28.5 -3q25 0 39.5 13t20.5 38l141 613h73l-144 -624q-11 -47 -42 -74t-84 -26zM365 630l19 90h88l-19 -90h-88z" />
    <glyph glyph-name="uni0136" unicode="&#x136;" horiz-adv-x="575" 
d="M19 0l166 720h75l-166 -720h-75zM161 373l376 347h105l-380 -346zM405 0l-230 378l87 -4l234 -374h-91zM128 -284l9 39q30 10 48.5 30t25.5 51l27 -4h-83l22 97h100l-20 -84q-12 -52 -43 -83t-86 -46z" />
    <glyph glyph-name="uni0137" unicode="&#x137;" horiz-adv-x="464" 
d="M13 0l168 730h74l-169 -730h-73zM308 0l-175 265l267 245h101l-296 -266l-5 45l193 -289h-85zM78 -284l9 39q30 10 48.5 30t25.5 51l27 -4h-83l22 97h100l-20 -84q-12 -52 -43 -83t-86 -46z" />
    <glyph glyph-name="Lacute" unicode="&#x139;" horiz-adv-x="477" 
d="M19 0l166 720h75l-166 -720h-75zM61 0l15 67h313l-15 -67h-313zM231 793h-65l128 157h114z" />
    <glyph glyph-name="lacute" unicode="&#x13a;" horiz-adv-x="217" 
d="M13 0l166 720h73l-166 -720h-73zM225 793h-65l128 157h114z" />
    <glyph glyph-name="uni013B" unicode="&#x13b;" horiz-adv-x="477" 
d="M19 0l166 720h75l-166 -720h-75zM61 0l15 67h313l-15 -67h-313zM92 -284l9 39q30 10 48.5 30t25.5 51l27 -4h-83l22 97h100l-20 -84q-12 -52 -43 -83t-86 -46z" />
    <glyph glyph-name="uni013C" unicode="&#x13c;" horiz-adv-x="217" 
d="M13 0l166 720h73l-166 -720h-73zM-66 -284l9 39q30 10 48.5 30t25.5 51l27 -4h-83l22 97h100l-20 -84q-12 -52 -43 -83t-86 -46z" />
    <glyph glyph-name="Lcaron" unicode="&#x13d;" horiz-adv-x="477" 
d="M19 0l166 720h75l-166 -720h-75zM61 0l15 67h313l-15 -67h-313zM429 503h-45l50 217h71z" />
    <glyph glyph-name="lcaron" unicode="&#x13e;" horiz-adv-x="254" 
d="M13 0l166 720h73l-166 -720h-73zM307 503h-45l50 217h71z" />
    <glyph glyph-name="Lslash" unicode="&#x141;" horiz-adv-x="477" 
d="M138 345l-129 -53l14 62l127 52zM151 410l184 77l-14 -62l-182 -76zM19 0l166 720h75l-166 -720h-75zM61 0l15 67h313l-15 -67h-313z" />
    <glyph glyph-name="lslash" unicode="&#x142;" horiz-adv-x="227" 
d="M138 350l-128 -53l13 59l127 52zM151 412l124 52l-13 -59l-123 -51zM18 0l166 720h73l-166 -720h-73z" />
    <glyph glyph-name="Nacute" unicode="&#x143;" horiz-adv-x="616" 
d="M19 0l166 720h81l175 -606l-7 -2l140 608h71l-166 -720h-82l-175 606l8 2l-140 -608h-71zM418 793h-65l128 157h114z" />
    <glyph glyph-name="nacute" unicode="&#x144;" horiz-adv-x="518" 
d="M14 0l117 510h68l-24 -108h5l-93 -402h-73zM319 0l79 346q12 54 -8 82.5t-68 28.5q-59 0 -103.5 -40.5t-60.5 -109.5l13 102q30 54 75.5 82.5t99.5 28.5q74 0 109 -47t18 -125l-81 -348h-73zM349 583h-65l128 157h114z" />
    <glyph glyph-name="uni0145" unicode="&#x145;" horiz-adv-x="616" 
d="M19 0l166 720h81l175 -606l-7 -2l140 608h71l-166 -720h-82l-175 606l8 2l-140 -608h-71zM133 -284l9 39q30 10 48.5 30t25.5 51l27 -4h-83l22 97h100l-20 -84q-12 -52 -43 -83t-86 -46z" />
    <glyph glyph-name="uni0146" unicode="&#x146;" horiz-adv-x="518" 
d="M14 0l117 510h68l-24 -108h5l-93 -402h-73zM319 0l79 346q12 54 -8 82.5t-68 28.5q-59 0 -103.5 -40.5t-60.5 -109.5l13 102q30 54 75.5 82.5t99.5 28.5q74 0 109 -47t18 -125l-81 -348h-73zM93 -284l9 39q30 10 48.5 30t25.5 51l27 -4h-83l22 97h100l-20 -84
q-12 -52 -43 -83t-86 -46z" />
    <glyph glyph-name="Ncaron" unicode="&#x147;" horiz-adv-x="616" 
d="M19 0l166 720h81l175 -606l-7 -2l140 608h71l-166 -720h-82l-175 606l8 2l-140 -608h-71zM388 793l-90 157h51l109 -137h-69l171 137h66l-162 -157h-76z" />
    <glyph glyph-name="ncaron" unicode="&#x148;" horiz-adv-x="518" 
d="M14 0l117 510h68l-24 -108h5l-93 -402h-73zM319 0l79 346q12 54 -8 82.5t-68 28.5q-59 0 -103.5 -40.5t-60.5 -109.5l13 102q30 54 75.5 82.5t99.5 28.5q74 0 109 -47t18 -125l-81 -348h-73zM318 583l-90 157h51l109 -137h-69l171 137h66l-162 -157h-76z" />
    <glyph glyph-name="Eng" unicode="&#x14a;" horiz-adv-x="616" 
d="M19 0l166 720h80l192 -606l-23 -2l140 608h71l-166 -720h-66l-192 606l9 2l-140 -608h-71zM304 -215q-30 0 -44.5 2.5t-25.5 5.5l16 67q10 -3 24.5 -5t35.5 -2q32 0 51 17.5t29 61.5l23 104l66 -36l-17 -76q-15 -66 -52 -102.5t-106 -36.5z" />
    <glyph glyph-name="eng" unicode="&#x14b;" horiz-adv-x="517" 
d="M239 -214q-11 0 -32 2.5t-34 9.5l13 58q7 -4 20.5 -7t28.5 -3q25 0 39.5 13t19.5 38l103 449q13 54 -7 82.5t-68 28.5q-59 0 -103.5 -40.5t-60.5 -109.5l13 102q30 54 75.5 82.5t99.5 28.5q74 0 109 -47t17 -125l-107 -462q-11 -47 -42.5 -74t-83.5 -26zM14 0l117 510h68
l-24 -108h5l-93 -402h-73z" />
    <glyph glyph-name="Omacron" unicode="&#x14c;" horiz-adv-x="638" 
d="M279 -10q-64 0 -113 33t-76.5 93.5t-27.5 141.5q0 93 27.5 178.5t75.5 151.5t110 104t131 38q67 0 116 -33.5t76 -94t27 -143.5q-1 -93 -29 -177.5t-75.5 -150t-109.5 -103.5t-132 -38zM288 59q50 0 96.5 33.5t83 91.5t58 131.5t21.5 151.5q0 60 -18.5 103.5t-52.5 67
t-81 23.5q-49 0 -94.5 -33.5t-82 -91t-57.5 -130.5t-21 -152q0 -59 18.5 -103.5t51.5 -68t78 -23.5zM303 855l12 52h305l-12 -52h-305z" />
    <glyph glyph-name="omacron" unicode="&#x14d;" horiz-adv-x="505" 
d="M212 -10q-53 0 -93.5 25t-62.5 71t-22 109q0 66 20.5 125t56.5 104t83 70.5t99 25.5q55 0 95 -24.5t61.5 -70t21.5 -106.5q0 -67 -21 -126.5t-57 -105t-82.5 -71.5t-98.5 -26zM217 54q35 0 67.5 21.5t57.5 58.5t39.5 85t14.5 101q0 64 -28.5 100t-79.5 36q-36 0 -68 -21
t-56.5 -57t-39 -83.5t-14.5 -101.5q0 -65 29 -102t78 -37zM188 645l12 52h305l-12 -52h-305z" />
    <glyph glyph-name="Ohungarumlaut" unicode="&#x150;" horiz-adv-x="638" 
d="M279 -10q-64 0 -113 33t-76.5 93.5t-27.5 141.5q0 93 27.5 178.5t75.5 151.5t110 104t131 38q67 0 116 -33.5t76 -94t27 -143.5q-1 -93 -29 -177.5t-75.5 -150t-109.5 -103.5t-132 -38zM288 59q50 0 96.5 33.5t83 91.5t58 131.5t21.5 151.5q0 60 -18.5 103.5t-52.5 67
t-81 23.5q-49 0 -94.5 -33.5t-82 -91t-57.5 -130.5t-21 -152q0 -59 18.5 -103.5t51.5 -68t78 -23.5zM367 793h-57l86 157h96zM542 793h-57l86 157h96z" />
    <glyph glyph-name="ohungarumlaut" unicode="&#x151;" horiz-adv-x="505" 
d="M212 -10q-53 0 -93.5 25t-62.5 71t-22 109q0 66 20.5 125t56.5 104t83 70.5t99 25.5q55 0 95 -24.5t61.5 -70t21.5 -106.5q0 -67 -21 -126.5t-57 -105t-82.5 -71.5t-98.5 -26zM217 54q35 0 67.5 21.5t57.5 58.5t39.5 85t14.5 101q0 64 -28.5 100t-79.5 36q-36 0 -68 -21
t-56.5 -57t-39 -83.5t-14.5 -101.5q0 -65 29 -102t78 -37zM251 583h-57l86 157h96zM426 583h-57l86 157h96z" />
    <glyph glyph-name="OE" unicode="&#x152;" horiz-adv-x="857" 
d="M290 -10q-72 0 -123.5 32.5t-78 94t-26.5 146.5q0 72 17.5 140.5t51 127.5t81.5 104t109.5 70t132.5 25q30 0 60 -4.5t50 -14.5l-18 -81q-12 14 -42.5 22.5t-64.5 8.5q-54 0 -100.5 -22.5t-83 -61.5t-62.5 -90t-39.5 -109t-13.5 -116q0 -95 39.5 -149t123.5 -54
q22 0 44.5 4t42.5 11t32 16l-19 -81q-27 -10 -57.5 -14.5t-55.5 -4.5zM369 0l166 720h362l-16 -67h-287l-56 -245h265l-15 -66h-265l-64 -275h295l-15 -67h-370z" />
    <glyph glyph-name="oe" unicode="&#x153;" horiz-adv-x="793" 
d="M202 -10q-48 0 -86.5 25t-60 71t-21.5 109q0 66 20.5 125t55.5 104t79.5 70.5t93.5 25.5q50 0 86.5 -24.5t56.5 -70t20 -106.5q0 -67 -19.5 -126.5t-54 -105t-78 -71.5t-92.5 -26zM207 54q32 0 62 21.5t54 58.5t38.5 85t14.5 101q0 64 -27.5 100t-70.5 36
q-36 0 -66.5 -21t-53.5 -57t-35.5 -83.5t-12.5 -101.5q0 -65 27.5 -102t69.5 -37zM530 -10q-49 0 -85 24t-55 68t-19 104q0 43 10.5 89.5t30.5 90t50 78t68.5 55t85.5 20.5q45 0 79 -20.5t53 -59t19 -93.5q0 -29 -5.5 -59.5t-13.5 -50.5h-324l14 62h281l-35 -52
q8 32 10.5 68.5t-4 68.5t-25.5 52t-55 20q-30 0 -56.5 -17.5t-47 -46.5t-35 -64.5t-22.5 -72t-8 -68.5q0 -63 27.5 -97.5t71.5 -34.5q35 0 64.5 24.5t47.5 73.5h70q-30 -80 -80 -121t-112 -41z" />
    <glyph glyph-name="Racute" unicode="&#x154;" horiz-adv-x="541" 
d="M19 0l166 720h200q57 0 95.5 -23.5t58.5 -63.5t19 -89q-1 -62 -32 -113.5t-87 -82.5t-134 -31h-160l16 67h155q52 0 89 21t56.5 56t19.5 78q1 49 -26 81.5t-88 32.5h-122l-151 -653h-75zM372 0l-223 366h85l231 -366h-93zM387 793h-65l128 157h114z" />
    <glyph glyph-name="racute" unicode="&#x155;" horiz-adv-x="324" 
d="M13 0l118 510h68l-27 -118h5l-91 -392h-73zM158 312l7 97q30 52 70 81.5t88 29.5q11 0 21.5 -2t17.5 -5l-16 -71q-7 3 -19 4.5t-24 1.5q-54 0 -92 -34.5t-53 -101.5zM254 583h-65l128 157h114z" />
    <glyph glyph-name="uni0156" unicode="&#x156;" horiz-adv-x="541" 
d="M19 0l166 720h200q57 0 95.5 -23.5t58.5 -63.5t19 -89q-1 -62 -32 -113.5t-87 -82.5t-134 -31h-160l16 67h155q52 0 89 21t56.5 56t19.5 78q1 49 -26 81.5t-88 32.5h-122l-151 -653h-75zM372 0l-223 366h85l231 -366h-93zM95 -284l9 39q30 10 48.5 30t25.5 51l27 -4h-83
l22 97h100l-20 -84q-12 -52 -43 -83t-86 -46z" />
    <glyph glyph-name="uni0157" unicode="&#x157;" horiz-adv-x="324" 
d="M13 0l118 510h68l-27 -118h5l-91 -392h-73zM158 312l7 97q30 52 70 81.5t88 29.5q11 0 21.5 -2t17.5 -5l-16 -71q-7 3 -19 4.5t-24 1.5q-54 0 -92 -34.5t-53 -101.5zM-67 -284l9 39q30 10 48.5 30t25.5 51l27 -4h-83l22 97h100l-20 -84q-12 -52 -43 -83t-86 -46z" />
    <glyph glyph-name="Rcaron" unicode="&#x158;" horiz-adv-x="541" 
d="M19 0l166 720h200q57 0 95.5 -23.5t58.5 -63.5t19 -89q-1 -62 -32 -113.5t-87 -82.5t-134 -31h-160l16 67h155q52 0 89 21t56.5 56t19.5 78q1 49 -26 81.5t-88 32.5h-122l-151 -653h-75zM372 0l-223 366h85l231 -366h-93zM356 793l-90 157h51l109 -137h-69l171 137h66
l-162 -157h-76z" />
    <glyph glyph-name="rcaron" unicode="&#x159;" horiz-adv-x="324" 
d="M13 0l118 510h68l-27 -118h5l-91 -392h-73zM158 312l7 97q30 52 70 81.5t88 29.5q11 0 21.5 -2t17.5 -5l-16 -71q-7 3 -19 4.5t-24 1.5q-54 0 -92 -34.5t-53 -101.5zM223 583l-90 157h51l109 -137h-69l171 137h66l-162 -157h-76z" />
    <glyph glyph-name="Sacute" unicode="&#x15a;" horiz-adv-x="507" 
d="M238 -9q-57 0 -99 19t-67.5 52.5t-35.5 77t-5 91.5h73q-4 -33 1.5 -64.5t22 -56t45 -39t69.5 -14.5q62 0 98 34.5t36 97.5q0 35 -14.5 62t-47.5 51l-90 72q-48 33 -72.5 71.5t-24.5 89.5q0 58 27.5 102t75.5 69.5t109 25.5q50 0 86 -17t57.5 -47t30 -69.5t3.5 -84.5h-72
q5 43 -4.5 77t-36.5 54t-73 20q-40 0 -68.5 -15t-43.5 -42.5t-15 -64.5q0 -31 15.5 -56.5t49.5 -51.5l92 -71q46 -33 68.5 -74t22.5 -95q0 -63 -26.5 -108.5t-74.5 -70.5t-112 -25zM357 793h-65l128 157h114z" />
    <glyph glyph-name="sacute" unicode="&#x15b;" horiz-adv-x="394" 
d="M168 -10q-55 0 -92.5 23.5t-54 61t-11.5 80.5h69q-2 -27 7.5 -50.5t31 -38t55.5 -14.5q44 0 68.5 23t24.5 60q0 24 -12 41.5t-38 33.5l-59 39q-39 24 -59 54t-20 70q0 43 21 76t57.5 51.5t84.5 18.5q51 0 83.5 -20.5t46.5 -54.5t11 -73h-68q0 22 -7.5 42t-25 32.5
t-48.5 12.5q-39 0 -61.5 -21.5t-22.5 -56.5q0 -21 12 -39t38 -35l59 -39q39 -24 58.5 -54.5t19.5 -69.5q0 -45 -21 -79.5t-58.5 -54t-88.5 -19.5zM268 583h-65l128 157h114z" />
    <glyph glyph-name="Scedilla" unicode="&#x15e;" horiz-adv-x="507" 
d="M238 -9q-57 0 -99 19t-67.5 52.5t-35.5 77t-5 91.5h73q-4 -33 1.5 -64.5t22 -56t45 -39t69.5 -14.5q62 0 98 34.5t36 97.5q0 35 -14.5 62t-47.5 51l-90 72q-48 33 -72.5 71.5t-24.5 89.5q0 58 27.5 102t75.5 69.5t109 25.5q50 0 86 -17t57.5 -47t30 -69.5t3.5 -84.5h-72
q5 43 -4.5 77t-36.5 54t-73 20q-40 0 -68.5 -15t-43.5 -42.5t-15 -64.5q0 -31 15.5 -56.5t49.5 -51.5l92 -71q46 -33 68.5 -74t22.5 -95q0 -63 -26.5 -108.5t-74.5 -70.5t-112 -25zM180 -215q-32 0 -55.5 11.5t-36 31t-10.5 42.5h49q-1 -16 15 -27t41 -11q20 0 34.5 10
t14.5 27q0 18 -15 30t-57 20l42 93h51l-28 -63q31 -10 45.5 -31.5t14.5 -46.5q0 -39 -29 -62.5t-76 -23.5z" />
    <glyph glyph-name="scedilla" unicode="&#x15f;" horiz-adv-x="394" 
d="M168 -10q-55 0 -92.5 23.5t-54 61t-11.5 80.5h69q-2 -27 7.5 -50.5t31 -38t55.5 -14.5q44 0 68.5 23t24.5 60q0 24 -12 41.5t-38 33.5l-59 39q-39 24 -59 54t-20 70q0 43 21 76t57.5 51.5t84.5 18.5q51 0 83.5 -20.5t46.5 -54.5t11 -73h-68q0 22 -7.5 42t-25 32.5
t-48.5 12.5q-39 0 -61.5 -21.5t-22.5 -56.5q0 -21 12 -39t38 -35l59 -39q39 -24 58.5 -54.5t19.5 -69.5q0 -45 -21 -79.5t-58.5 -54t-88.5 -19.5zM110 -215q-32 0 -55.5 11.5t-36 31t-10.5 42.5h49q-1 -16 15 -27t41 -11q20 0 34.5 10t14.5 27q0 18 -15 30t-57 20l42 93h51
l-28 -63q31 -10 45.5 -31.5t14.5 -46.5q0 -39 -29 -62.5t-76 -23.5z" />
    <glyph glyph-name="Scaron" unicode="&#x160;" horiz-adv-x="507" 
d="M238 -9q-57 0 -99 19t-67.5 52.5t-35.5 77t-5 91.5h73q-4 -33 1.5 -64.5t22 -56t45 -39t69.5 -14.5q62 0 98 34.5t36 97.5q0 35 -14.5 62t-47.5 51l-90 72q-48 33 -72.5 71.5t-24.5 89.5q0 58 27.5 102t75.5 69.5t109 25.5q50 0 86 -17t57.5 -47t30 -69.5t3.5 -84.5h-72
q5 43 -4.5 77t-36.5 54t-73 20q-40 0 -68.5 -15t-43.5 -42.5t-15 -64.5q0 -31 15.5 -56.5t49.5 -51.5l92 -71q46 -33 68.5 -74t22.5 -95q0 -63 -26.5 -108.5t-74.5 -70.5t-112 -25zM327 793l-90 157h51l109 -137h-69l171 137h66l-162 -157h-76z" />
    <glyph glyph-name="scaron" unicode="&#x161;" horiz-adv-x="394" 
d="M168 -10q-55 0 -92.5 23.5t-54 61t-11.5 80.5h69q-2 -27 7.5 -50.5t31 -38t55.5 -14.5q44 0 68.5 23t24.5 60q0 24 -12 41.5t-38 33.5l-59 39q-39 24 -59 54t-20 70q0 43 21 76t57.5 51.5t84.5 18.5q51 0 83.5 -20.5t46.5 -54.5t11 -73h-68q0 22 -7.5 42t-25 32.5
t-48.5 12.5q-39 0 -61.5 -21.5t-22.5 -56.5q0 -21 12 -39t38 -35l59 -39q39 -24 58.5 -54.5t19.5 -69.5q0 -45 -21 -79.5t-58.5 -54t-88.5 -19.5zM237 583l-90 157h51l109 -137h-69l171 137h66l-162 -157h-76z" />
    <glyph glyph-name="Tcaron" unicode="&#x164;" horiz-adv-x="527" 
d="M166 0l150 653h-197l16 67h472l-16 -67h-199l-150 -653h-76zM349 793l-90 157h51l109 -137h-69l171 137h66l-162 -157h-76z" />
    <glyph glyph-name="tcaron" unicode="&#x165;" horiz-adv-x="321" 
d="M187 -10q-71 0 -100 38.5t-14 103.5l110 481l81 30l-120 -519q-8 -36 7 -53.5t55 -17.5q16 0 29 2t21 5l-14 -62q-11 -4 -24 -6t-31 -2zM59 447l14 63h286l-14 -63h-286zM378 553h-45l50 217h71z" />
    <glyph glyph-name="Umacron" unicode="&#x16a;" horiz-adv-x="589" 
d="M261 -9q-75 0 -123.5 33.5t-65.5 95t2 142.5l105 458h75l-108 -470q-12 -57 -4.5 -99.5t38.5 -67t87 -24.5q68 0 108 40t58 119l116 502h76l-117 -505q-25 -109 -87.5 -166.5t-159.5 -57.5zM279 855l12 52h305l-12 -52h-305z" />
    <glyph glyph-name="umacron" unicode="&#x16b;" horiz-adv-x="509" 
d="M169 -10q-72 0 -106.5 47t-17.5 125l81 348h74l-80 -346q-12 -53 7.5 -82t65.5 -29q55 0 98.5 40.5t59.5 109.5l-12 -102q-30 -54 -75 -82.5t-95 -28.5zM311 0l25 108h-7l93 402h74l-118 -510h-67zM191 645l12 52h305l-12 -52h-305z" />
    <glyph glyph-name="Ubreve" unicode="&#x16c;" horiz-adv-x="589" 
d="M261 -9q-75 0 -123.5 33.5t-65.5 95t2 142.5l105 458h75l-108 -470q-12 -57 -4.5 -99.5t38.5 -67t87 -24.5q68 0 108 40t58 119l116 502h76l-117 -505q-25 -109 -87.5 -166.5t-159.5 -57.5zM433 789q-39 0 -66.5 14.5t-44 38t-20.5 52.5t4 56h52q-7 -23 -1 -46.5t27 -39
t56 -15.5q43 0 71.5 25t38.5 76h53q-16 -82 -62.5 -121.5t-107.5 -39.5z" />
    <glyph glyph-name="ubreve" unicode="&#x16d;" horiz-adv-x="509" 
d="M169 -10q-72 0 -106.5 47t-17.5 125l81 348h74l-80 -346q-12 -53 7.5 -82t65.5 -29q55 0 98.5 40.5t59.5 109.5l-12 -102q-30 -54 -75 -82.5t-95 -28.5zM311 0l25 108h-7l93 402h74l-118 -510h-67zM345 579q-39 0 -66.5 14.5t-44 38t-20.5 52.5t4 56h52q-7 -23 -1 -46.5
t27 -39t56 -15.5q43 0 71.5 25t38.5 76h53q-16 -82 -62.5 -121.5t-107.5 -39.5z" />
    <glyph glyph-name="Uring" unicode="&#x16e;" horiz-adv-x="589" 
d="M261 -9q-75 0 -123.5 33.5t-65.5 95t2 142.5l105 458h75l-108 -470q-12 -57 -4.5 -99.5t38.5 -67t87 -24.5q68 0 108 40t58 119l116 502h76l-117 -505q-25 -109 -87.5 -166.5t-159.5 -57.5zM427 771q-41 0 -69 27.5t-28 68.5q0 33 16 60t42.5 43t57.5 16q42 0 70 -27.5
t28 -68.5q0 -31 -16.5 -58.5t-43 -44t-57.5 -16.5zM430 816q27 0 47 20.5t20 49.5q0 24 -15 40t-39 16q-26 0 -46 -20.5t-20 -49.5q0 -24 15 -40t38 -16z" />
    <glyph glyph-name="uring" unicode="&#x16f;" horiz-adv-x="509" 
d="M169 -10q-72 0 -106.5 47t-17.5 125l81 348h74l-80 -346q-12 -53 7.5 -82t65.5 -29q55 0 98.5 40.5t59.5 109.5l-12 -102q-30 -54 -75 -82.5t-95 -28.5zM311 0l25 108h-7l93 402h74l-118 -510h-67zM339 561q-41 0 -69 27.5t-28 68.5q0 33 16 60t42.5 43t57.5 16
q42 0 70 -27.5t28 -68.5q0 -31 -16.5 -58.5t-43 -44t-57.5 -16.5zM342 606q27 0 47 20.5t20 49.5q0 24 -15 40t-39 16q-26 0 -46 -20.5t-20 -49.5q0 -24 15 -40t38 -16z" />
    <glyph glyph-name="Uhungarumlaut" unicode="&#x170;" horiz-adv-x="589" 
d="M261 -9q-75 0 -123.5 33.5t-65.5 95t2 142.5l105 458h75l-108 -470q-12 -57 -4.5 -99.5t38.5 -67t87 -24.5q68 0 108 40t58 119l116 502h76l-117 -505q-25 -109 -87.5 -166.5t-159.5 -57.5zM343 793h-57l86 157h96zM518 793h-57l86 157h96z" />
    <glyph glyph-name="uhungarumlaut" unicode="&#x171;" horiz-adv-x="509" 
d="M169 -10q-72 0 -106.5 47t-17.5 125l81 348h74l-80 -346q-12 -53 7.5 -82t65.5 -29q55 0 98.5 40.5t59.5 109.5l-12 -102q-30 -54 -75 -82.5t-95 -28.5zM311 0l25 108h-7l93 402h74l-118 -510h-67zM255 583h-57l86 157h96zM430 583h-57l86 157h96z" />
    <glyph glyph-name="Uogonek" unicode="&#x172;" horiz-adv-x="589" 
d="M261 -9q-75 0 -123.5 33.5t-65.5 95t2 142.5l105 458h75l-108 -470q-12 -57 -4.5 -99.5t38.5 -67t87 -24.5q68 0 108 40t58 119l116 502h76l-117 -505q-25 -109 -87.5 -166.5t-159.5 -57.5zM255 -196q-35 0 -56 18t-21 49q0 46 46 90.5t118 77.5l17 -19
q-57 -37 -91.5 -70.5t-34.5 -67.5q0 -16 9 -23.5t22 -7.5q16 0 33 12l19 -39q-15 -10 -29.5 -15t-31.5 -5z" />
    <glyph glyph-name="uogonek" unicode="&#x173;" horiz-adv-x="509" 
d="M169 -10q-72 0 -106.5 47t-17.5 125l81 348h74l-80 -346q-12 -53 7.5 -82t65.5 -29q55 0 98.5 40.5t59.5 109.5l-12 -102q-30 -54 -75 -82.5t-95 -28.5zM311 0l25 108h-7l93 402h74l-118 -510h-67zM274 -216q-35 0 -56 18t-21 49q0 46 46 90.5t118 77.5l17 -19
q-57 -37 -91.5 -70.5t-34.5 -67.5q0 -16 9 -23.5t22 -7.5q16 0 33 12l19 -39q-15 -10 -29.5 -15t-31.5 -5z" />
    <glyph glyph-name="Wcircumflex" unicode="&#x174;" horiz-adv-x="837" 
d="M133 0l11 720h75l-14 -652h-14l285 652h98l-15 -652h-14l286 652h76l-321 -720h-95l9 631h10l-282 -631h-95zM377 793l162 157h76l90 -157h-51l-109 137h69l-171 -137h-66z" />
    <glyph glyph-name="wcircumflex" unicode="&#x175;" horiz-adv-x="683" 
d="M110 0l-22 510h72l6 -426h-19l226 426h54l29 -426h-21l202 426h76l-259 -510h-54l-29 417h20l-224 -417h-57zM253 583l162 157h76l90 -157h-51l-109 137h69l-171 -137h-66z" />
    <glyph glyph-name="Ycircumflex" unicode="&#x176;" horiz-adv-x="560" 
d="M183 0l76 331l-134 389h82l115 -341h-34l272 341h89l-314 -389l-76 -331h-76zM239 793l162 157h76l90 -157h-51l-109 137h69l-171 -137h-66z" />
    <glyph glyph-name="ycircumflex" unicode="&#x177;" horiz-adv-x="453" 
d="M-5 -205l159 268l19 26l240 421h80l-416 -715h-82zM152 0l-74 510h76l57 -445zM137 583l162 157h76l90 -157h-51l-109 137h69l-171 -137h-66z" />
    <glyph glyph-name="Ydieresis" unicode="&#x178;" horiz-adv-x="560" 
d="M183 0l76 331l-134 389h82l115 -341h-34l272 341h89l-314 -389l-76 -331h-76zM474 840l20 90h88l-20 -90h-88zM266 840l20 90h88l-21 -90h-87z" />
    <glyph glyph-name="Zacute" unicode="&#x179;" horiz-adv-x="534" 
d="M2 0l13 57l477 632l24 -36h-353l16 67h399l-14 -57l-476 -632l-25 36h372l-16 -67h-417zM384 793h-65l128 157h114z" />
    <glyph glyph-name="zacute" unicode="&#x17a;" horiz-adv-x="419" 
d="M-17 0l12 53l354 426l24 -32h-276l15 63h322l-13 -53l-354 -426l-24 32h294l-14 -63h-340zM278 583h-65l128 157h114z" />
    <glyph glyph-name="Zdotaccent" unicode="&#x17b;" horiz-adv-x="534" 
d="M2 0l13 57l477 632l24 -36h-353l16 67h399l-14 -57l-476 -632l-25 36h372l-16 -67h-417zM355 840l19 90h88l-19 -90h-88z" />
    <glyph glyph-name="zdotaccent" unicode="&#x17c;" horiz-adv-x="419" 
d="M-17 0l12 53l354 426l24 -32h-276l15 63h322l-13 -53l-354 -426l-24 32h294l-14 -63h-340zM250 630l19 90h88l-19 -90h-88z" />
    <glyph glyph-name="Zcaron" unicode="&#x17d;" horiz-adv-x="534" 
d="M2 0l13 57l477 632l24 -36h-353l16 67h399l-14 -57l-476 -632l-25 36h372l-16 -67h-417zM353 793l-90 157h51l109 -137h-69l171 137h66l-162 -157h-76z" />
    <glyph glyph-name="zcaron" unicode="&#x17e;" horiz-adv-x="419" 
d="M-17 0l12 53l354 426l24 -32h-276l15 63h322l-13 -53l-354 -426l-24 32h294l-14 -63h-340zM247 583l-90 157h51l109 -137h-69l171 137h66l-162 -157h-76z" />
    <glyph glyph-name="uni01CD" unicode="&#x1cd;" horiz-adv-x="583" 
d="M-29 0l378 720h69l-371 -720h-76zM420 0l-41 720h65l50 -720h-74zM144 283h302l-14 -66h-302zM372 793l-90 157h51l109 -137h-69l171 137h66l-162 -157h-76z" />
    <glyph glyph-name="uni01CE" unicode="&#x1ce;" horiz-adv-x="458" 
d="M274 0q-1 13 2.5 34.5t8.5 46.5l-6 1l61 267q6 27 3.5 52t-20.5 40.5t-58 15.5q-46 0 -74 -24.5t-40 -70.5h-69q18 77 68 117.5t127 40.5q66 0 98 -26t39 -68t-3 -87l-60 -260q-4 -20 -7 -41t-2 -38h-68zM139 -10q-57 0 -91 32.5t-34 87.5q0 44 21.5 78.5t62 58.5
t100.5 37l151 33l-14 -62l-130 -28q-61 -13 -89 -41t-28 -68q0 -33 19.5 -49t55.5 -16q50 0 86 28.5t48 79.5l-5 -77q-25 -46 -64.5 -70t-88.5 -24zM264 583l-90 157h51l109 -137h-69l171 137h66l-162 -157h-76z" />
    <glyph glyph-name="uni0218" unicode="&#x218;" horiz-adv-x="507" 
d="M238 -9q-57 0 -99 19t-67.5 52.5t-35.5 77t-5 91.5h73q-4 -33 1.5 -64.5t22 -56t45 -39t69.5 -14.5q62 0 98 34.5t36 97.5q0 35 -14.5 62t-47.5 51l-90 72q-48 33 -72.5 71.5t-24.5 89.5q0 58 27.5 102t75.5 69.5t109 25.5q50 0 86 -17t57.5 -47t30 -69.5t3.5 -84.5h-72
q5 43 -4.5 77t-36.5 54t-73 20q-40 0 -68.5 -15t-43.5 -42.5t-15 -64.5q0 -31 15.5 -56.5t49.5 -51.5l92 -71q46 -33 68.5 -74t22.5 -95q0 -63 -26.5 -108.5t-74.5 -70.5t-112 -25zM104 -284l9 39q30 10 48.5 30t25.5 51l27 -4h-83l22 97h100l-20 -84q-12 -52 -43 -83
t-86 -46z" />
    <glyph glyph-name="uni0219" unicode="&#x219;" horiz-adv-x="394" 
d="M168 -10q-55 0 -92.5 23.5t-54 61t-11.5 80.5h69q-2 -27 7.5 -50.5t31 -38t55.5 -14.5q44 0 68.5 23t24.5 60q0 24 -12 41.5t-38 33.5l-59 39q-39 24 -59 54t-20 70q0 43 21 76t57.5 51.5t84.5 18.5q51 0 83.5 -20.5t46.5 -54.5t11 -73h-68q0 22 -7.5 42t-25 32.5
t-48.5 12.5q-39 0 -61.5 -21.5t-22.5 -56.5q0 -21 12 -39t38 -35l59 -39q39 -24 58.5 -54.5t19.5 -69.5q0 -45 -21 -79.5t-58.5 -54t-88.5 -19.5zM34 -284l9 39q30 10 48.5 30t25.5 51l27 -4h-83l22 97h100l-20 -84q-12 -52 -43 -83t-86 -46z" />
    <glyph glyph-name="uni021A" unicode="&#x21a;" horiz-adv-x="527" 
d="M166 0l150 653h-197l16 67h472l-16 -67h-199l-150 -653h-76zM88 -284l9 39q30 10 48.5 30t25.5 51l27 -4h-83l22 97h100l-20 -84q-12 -52 -43 -83t-86 -46z" />
    <glyph glyph-name="uni021B" unicode="&#x21b;" horiz-adv-x="321" 
d="M187 -10q-71 0 -100 38.5t-14 103.5l110 481l81 30l-120 -519q-8 -36 7 -53.5t55 -17.5q16 0 29 2t21 5l-14 -62q-11 -4 -24 -6t-31 -2zM59 447l14 63h286l-14 -63h-286zM34 -284l9 39q30 10 48.5 30t25.5 51l27 -4h-83l22 97h100l-20 -84q-12 -52 -43 -83t-86 -46z" />
    <glyph glyph-name="uni0237" unicode="&#x237;" horiz-adv-x="217" 
d="M-66 -214q-11 0 -31.5 2.5t-34.5 9.5l13 58q7 -4 20.5 -7t28.5 -3q25 0 39.5 13t20.5 38l141 613h73l-144 -624q-11 -47 -42 -74t-84 -26z" />
    <glyph glyph-name="circumflex" unicode="&#x2c6;" horiz-adv-x="448" 
d="M136 583l162 157h76l90 -157h-51l-109 137h69l-171 -137h-66z" />
    <glyph glyph-name="caron" unicode="&#x2c7;" horiz-adv-x="448" 
d="M262 583l-90 157h51l109 -137h-69l171 137h66l-162 -157h-76z" />
    <glyph glyph-name="breve" unicode="&#x2d8;" horiz-adv-x="417" 
d="M299 579q-39 0 -66.5 14.5t-44 38t-20.5 52.5t4 56h52q-7 -23 -1 -46.5t27 -39t56 -15.5q43 0 71.5 25t38.5 76h53q-16 -82 -62.5 -121.5t-107.5 -39.5z" />
    <glyph glyph-name="dotaccent" unicode="&#x2d9;" horiz-adv-x="209" 
d="M148 630l19 90h88l-19 -90h-88z" />
    <glyph glyph-name="ring" unicode="&#x2da;" horiz-adv-x="335" 
d="M253 561q-41 0 -69 27.5t-28 68.5q0 33 16 60t42.5 43t57.5 16q42 0 70 -27.5t28 -68.5q0 -31 -16.5 -58.5t-43 -44t-57.5 -16.5zM256 606q27 0 47 20.5t20 49.5q0 24 -15 40t-39 16q-26 0 -46 -20.5t-20 -49.5q0 -24 15 -40t38 -16z" />
    <glyph glyph-name="ogonek" unicode="&#x2db;" horiz-adv-x="272" 
d="M46 -216q-35 0 -56 18t-21 49q0 46 46 90.5t118 77.5l17 -19q-57 -37 -91.5 -70.5t-34.5 -67.5q0 -16 9 -23.5t22 -7.5q16 0 33 12l19 -39q-15 -10 -29.5 -15t-31.5 -5z" />
    <glyph glyph-name="tilde" unicode="&#x2dc;" horiz-adv-x="455" 
d="M389 597q-27 0 -46 10.5t-34.5 24t-30 24t-32.5 10.5q-21 0 -34 -14t-21 -45h-50q8 36 23 62t38.5 39.5t52.5 13.5q28 0 46.5 -10.5t32.5 -24t28.5 -24t33.5 -10.5q21 0 34 14t20 45h50q-11 -56 -41 -85.5t-70 -29.5z" />
    <glyph glyph-name="hungarumlaut" unicode="&#x2dd;" horiz-adv-x="441" 
d="M193 583h-57l86 157h96zM368 583h-57l86 157h96z" />
    <glyph glyph-name="gravecomb" unicode="&#x300;" horiz-adv-x="0" 
d="M286 583l-114 157h96l74 -157h-56z" />
    <glyph glyph-name="acutecomb" unicode="&#x301;" horiz-adv-x="0" 
d="M201 583h-65l128 157h114z" />
    <glyph glyph-name="uni0302" unicode="&#x302;" horiz-adv-x="0" 
d="M136 583l162 157h76l90 -157h-51l-109 137h69l-171 -137h-66z" />
    <glyph glyph-name="tildecomb" unicode="&#x303;" horiz-adv-x="0" 
d="M389 597q-27 0 -46 10.5t-34.5 24t-30 24t-32.5 10.5q-21 0 -34 -14t-21 -45h-50q8 36 23 62t38.5 39.5t52.5 13.5q28 0 46.5 -10.5t32.5 -24t28.5 -24t33.5 -10.5q21 0 34 14t20 45h50q-11 -56 -41 -85.5t-70 -29.5z" />
    <glyph glyph-name="uni0304" unicode="&#x304;" horiz-adv-x="0" 
d="M150 645l12 52h305l-12 -52h-305z" />
    <glyph glyph-name="uni0306" unicode="&#x306;" horiz-adv-x="0" 
d="M299 579q-39 0 -66.5 14.5t-44 38t-20.5 52.5t4 56h52q-7 -23 -1 -46.5t27 -39t56 -15.5q43 0 71.5 25t38.5 76h53q-16 -82 -62.5 -121.5t-107.5 -39.5z" />
    <glyph glyph-name="uni0307" unicode="&#x307;" horiz-adv-x="0" 
d="M148 630l19 90h88l-19 -90h-88z" />
    <glyph glyph-name="uni0308" unicode="&#x308;" horiz-adv-x="0" 
d="M355 630l20 90h88l-20 -90h-88zM147 630l20 90h88l-21 -90h-87z" />
    <glyph glyph-name="uni030A" unicode="&#x30a;" horiz-adv-x="0" 
d="M253 561q-41 0 -69 27.5t-28 68.5q0 33 16 60t42.5 43t57.5 16q42 0 70 -27.5t28 -68.5q0 -31 -16.5 -58.5t-43 -44t-57.5 -16.5zM256 606q27 0 47 20.5t20 49.5q0 24 -15 40t-39 16q-26 0 -46 -20.5t-20 -49.5q0 -24 15 -40t38 -16z" />
    <glyph glyph-name="uni030B" unicode="&#x30b;" horiz-adv-x="0" 
d="M193 583h-57l86 157h96zM368 583h-57l86 157h96z" />
    <glyph glyph-name="uni030C" unicode="&#x30c;" horiz-adv-x="0" 
d="M262 583l-90 157h51l109 -137h-69l171 137h66l-162 -157h-76z" />
    <glyph glyph-name="uni0312" unicode="&#x312;" horiz-adv-x="0" 
d="M135 581l21 89q12 50 45 81.5t84 42.5l-10 -39q-29 -10 -47.5 -30t-26.5 -52l-27 5h84l-23 -97h-100z" />
    <glyph glyph-name="uni0326" unicode="&#x326;" horiz-adv-x="0" 
d="M-64 -284l9 39q30 10 48.5 30t25.5 51l27 -4h-83l22 97h100l-20 -84q-12 -52 -43 -83t-86 -46z" />
    <glyph glyph-name="uni0327" unicode="&#x327;" horiz-adv-x="0" 
d="M73 -215q-32 0 -55.5 11.5t-36 31t-10.5 42.5h49q-1 -16 15 -27t41 -11q20 0 34.5 10t14.5 27q0 18 -15 30t-57 20l42 93h51l-28 -63q31 -10 45.5 -31.5t14.5 -46.5q0 -39 -29 -62.5t-76 -23.5z" />
    <glyph glyph-name="uni0328" unicode="&#x328;" horiz-adv-x="0" 
d="M46 -216q-35 0 -56 18t-21 49q0 46 46 90.5t118 77.5l17 -19q-57 -37 -91.5 -70.5t-34.5 -67.5q0 -16 9 -23.5t22 -7.5q16 0 33 12l19 -39q-15 -10 -29.5 -15t-31.5 -5z" />
    <glyph glyph-name="Wgrave" unicode="&#x1e80;" horiz-adv-x="837" 
d="M133 0l11 720h75l-14 -652h-14l285 652h98l-15 -652h-14l286 652h76l-321 -720h-95l9 631h10l-282 -631h-95zM560 793l-114 157h96l74 -157h-56z" />
    <glyph glyph-name="wgrave" unicode="&#x1e81;" horiz-adv-x="683" 
d="M110 0l-22 510h72l6 -426h-19l226 426h54l29 -426h-21l202 426h76l-259 -510h-54l-29 417h20l-224 -417h-57zM435 583l-114 157h96l74 -157h-56z" />
    <glyph glyph-name="Wacute" unicode="&#x1e82;" horiz-adv-x="837" 
d="M133 0l11 720h75l-14 -652h-14l285 652h98l-15 -652h-14l286 652h76l-321 -720h-95l9 631h10l-282 -631h-95zM535 793h-65l128 157h114z" />
    <glyph glyph-name="wacute" unicode="&#x1e83;" horiz-adv-x="683" 
d="M110 0l-22 510h72l6 -426h-19l226 426h54l29 -426h-21l202 426h76l-259 -510h-54l-29 417h20l-224 -417h-57zM410 583h-65l128 157h114z" />
    <glyph glyph-name="Wdieresis" unicode="&#x1e84;" horiz-adv-x="837" 
d="M133 0l11 720h75l-14 -652h-14l285 652h98l-15 -652h-14l286 652h76l-321 -720h-95l9 631h10l-282 -631h-95zM613 840l20 90h88l-20 -90h-88zM405 840l20 90h88l-21 -90h-87z" />
    <glyph glyph-name="wdieresis" unicode="&#x1e85;" horiz-adv-x="683" 
d="M110 0l-22 510h72l6 -426h-19l226 426h54l29 -426h-21l202 426h76l-259 -510h-54l-29 417h20l-224 -417h-57zM488 630l20 90h88l-20 -90h-88zM280 630l20 90h88l-21 -90h-87z" />
    <glyph glyph-name="uni1E9E" unicode="&#x1e9e;" horiz-adv-x="592" 
d="M321 -12q-24 0 -51 3.5t-50 10t-40 14.5l16 69q23 -12 59 -21t67 -9q42 0 73 18.5t48 51.5t17 75q0 47 -26.5 85.5t-89.5 77.5l-23 18l240 246l-8 -58q-21 45 -64 70t-99 25q-142 0 -181 -172l-114 -492h-75l114 500q27 115 93 173t172 58q78 0 136.5 -32.5t96.5 -96.5
l-230 -237l-13 60q76 -46 112 -101.5t36 -120.5q0 -63 -27.5 -111.5t-76.5 -76t-112 -27.5z" />
    <glyph glyph-name="Ygrave" unicode="&#x1ef2;" horiz-adv-x="560" 
d="M183 0l76 331l-134 389h82l115 -341h-34l272 341h89l-314 -389l-76 -331h-76zM421 793l-114 157h96l74 -157h-56z" />
    <glyph glyph-name="ygrave" unicode="&#x1ef3;" horiz-adv-x="453" 
d="M-5 -205l159 268l19 26l240 421h80l-416 -715h-82zM152 0l-74 510h76l57 -445zM320 583l-114 157h96l74 -157h-56z" />
    <glyph glyph-name="endash" unicode="&#x2013;" horiz-adv-x="512" 
d="M68 240l15 64h369l-15 -64h-369z" />
    <glyph glyph-name="emdash" unicode="&#x2014;" horiz-adv-x="760" 
d="M68 240l15 64h617l-15 -64h-617z" />
    <glyph glyph-name="quoteleft" unicode="&#x2018;" horiz-adv-x="234" 
d="M129 514l21 93q14 59 45.5 90.5t85.5 42.5l-8 -39q-30 -7 -49 -27.5t-30 -66.5l-30 4h85l-21 -97h-99z" />
    <glyph glyph-name="quoteright" unicode="&#x2019;" horiz-adv-x="234" 
d="M125 518l9 39q30 6 49 27t29 67l30 -5h-85l21 97h99l-21 -93q-13 -58 -44.5 -90t-86.5 -42z" />
    <glyph glyph-name="quotesinglbase" unicode="&#x201a;" horiz-adv-x="227" 
d="M-29 -137l9 39q30 11 47.5 33.5t28.5 67.5l29 -3h-82l22 96h96l-21 -94q-14 -58 -44.5 -90.5t-84.5 -48.5z" />
    <glyph glyph-name="quotedblleft" unicode="&#x201c;" horiz-adv-x="386" 
d="M281 514l21 93q14 59 45.5 90.5t85.5 42.5l-8 -39q-30 -7 -49 -27.5t-30 -66.5l-30 4h85l-21 -97h-99zM129 514l21 93q14 59 45.5 90.5t85.5 42.5l-8 -39q-30 -7 -49 -27.5t-30 -66.5l-30 4h85l-21 -97h-99z" />
    <glyph glyph-name="quotedblright" unicode="&#x201d;" horiz-adv-x="386" 
d="M277 518l9 39q30 6 49 27t29 67l30 -5h-85l21 97h99l-21 -93q-13 -58 -44.5 -90t-86.5 -42zM125 518l9 39q30 6 49 27t29 67l30 -5h-85l21 97h99l-21 -93q-13 -58 -44.5 -90t-86.5 -42z" />
    <glyph glyph-name="quotedblbase" unicode="&#x201e;" horiz-adv-x="377" 
d="M121 -137l9 39q30 11 47.5 33.5t28.5 67.5l29 -3h-82l22 96h96l-21 -94q-14 -58 -44.5 -90.5t-84.5 -48.5zM-29 -137l9 39q30 11 47.5 33.5t28.5 67.5l29 -3h-82l22 96h96l-21 -94q-14 -58 -44.5 -90.5t-84.5 -48.5z" />
    <glyph glyph-name="bullet" unicode="&#x2022;" horiz-adv-x="282" 
d="M78 297l34 146h145l-34 -146h-145z" />
    <glyph glyph-name="ellipsis" unicode="&#x2026;" horiz-adv-x="592" 
d="M9 0l23 97h96l-22 -97h-97zM188 0l23 97h96l-22 -97h-97zM367 0l23 97h96l-22 -97h-97z" />
    <glyph glyph-name="perthousand" unicode="&#x2030;" horiz-adv-x="811" 
d="M204 371q-47 0 -78 35t-31 99q0 33 9.5 72t29 73.5t49 57t69.5 22.5q48 0 78.5 -34.5t30.5 -98.5q0 -34 -9.5 -72.5t-29 -74t-49 -57.5t-69.5 -22zM207 426q22 0 38.5 17.5t28.5 44.5t17.5 56.5t5.5 53.5q0 34 -12.5 56t-36.5 22q-22 0 -39 -17.5t-27.5 -44.5t-16 -56.5
t-5.5 -53.5q0 -35 12 -56.5t35 -21.5zM2 0l606 720h71l-605 -720h-72zM424 -10q-45 0 -75.5 35t-30.5 99q0 34 9.5 73t28.5 73.5t48 56.5t67 22q45 0 73 -34.5t28 -98.5q0 -35 -9 -74t-27.5 -73.5t-46 -56.5t-65.5 -22zM427 44q20 0 35.5 17.5t27 44.5t17.5 56.5t6 53.5
q0 35 -12 56.5t-35 21.5q-20 0 -35.5 -17t-26 -43.5t-16 -56t-5.5 -54.5q0 -36 11.5 -57.5t32.5 -21.5zM615 44q20 0 35.5 17.5t27 44.5t17.5 56.5t6 53.5q0 35 -12 56.5t-35 21.5q-20 0 -35.5 -17t-26 -43.5t-16 -56t-5.5 -54.5q0 -36 11.5 -57.5t32.5 -21.5zM612 -10
q-44 0 -72.5 34.5t-28.5 99.5q0 34 8.5 73t27 73.5t46 56.5t66.5 22q45 0 75.5 -34.5t30.5 -99.5q0 -34 -10 -73t-29 -73.5t-47.5 -56.5t-66.5 -22z" />
    <glyph glyph-name="guilsinglleft" unicode="&#x2039;" horiz-adv-x="298" 
d="M124 68l-73 194l150 172h78l-158 -185l65 -181h-62z" />
    <glyph glyph-name="guilsinglright" unicode="&#x203a;" horiz-adv-x="298" 
d="M88 68h-71l158 187l-69 179h66l75 -183z" />
    <glyph glyph-name="Euro" unicode="&#x20ac;" horiz-adv-x="579" 
d="M290 -10q-63 0 -109 32t-71 89t-25 133q0 45 9.5 98.5t29 108t48 104.5t65.5 89.5t83.5 62.5t101.5 23q43 0 77.5 -15t58.5 -41t36 -58.5t13 -67.5h-76q-1 32 -13.5 57.5t-36.5 40.5t-60 15q-44 0 -80 -21.5t-64.5 -57t-50 -80t-35.5 -92.5t-21 -92.5t-7 -79.5
q0 -55 16 -95.5t46 -62.5t72 -22q34 0 63 14t51 40t33 60h77q-20 -58 -55 -98.5t-80 -62t-96 -21.5zM33 397l26 63h421l-26 -63h-421zM2 262l26 63h397l-26 -63h-397z" />
    <glyph glyph-name="trademark" unicode="&#x2122;" horiz-adv-x="726" 
d="M215 360v348h60v-348h-60zM121 670v50h248v-50h-248zM404 360v360h86l97 -342h-34l96 342h88v-360h-59v324h9l-90 -324h-57l-90 323h8v-323h-54z" />
    <glyph glyph-name="arrowleft" unicode="&#x2190;" horiz-adv-x="774" 
d="M736 351h-573l27 25l320 -322h-93l-328 330l328 330h93l-320 -322l-27 25h573v-66z" />
    <glyph glyph-name="arrowup" unicode="&#x2191;" horiz-adv-x="801" 
d="M381 39v573l25 -26l-322 -320v92l330 328l330 -328v-93l-322 321l25 26v-573h-66z" />
    <glyph glyph-name="arrowright" unicode="&#x2192;" horiz-adv-x="775" 
d="M87 369h572l-26 -25l-320 322h93l327 -330l-328 -330h-92l320 322l26 -25h-572v66z" />
    <glyph glyph-name="arrowdown" unicode="&#x2193;" horiz-adv-x="801" 
d="M403 681h66v-573l-25 26l322 321v-93l-330 -328l-330 328v92l322 -320l-25 -26v573z" />
    <glyph glyph-name="arrowboth" unicode="&#x2194;" horiz-adv-x="1004" 
d="M412 30l-328 330l328 330h92l-295 -297h634l-295 297h93l327 -330l-328 -330h-92l295 297h-634l296 -297h-93z" />
    <glyph glyph-name="arrowupdn" unicode="&#x2195;" horiz-adv-x="833" 
d="M441 -82l-330 327v93l297 -295v634l-297 -295v93l330 327l330 -328v-93l-297 296v-634l297 296v-93z" />
    <glyph glyph-name="uni2196" unicode="&#x2196;" horiz-adv-x="714" 
d="M583 161l-405 406l36 -1l-1 -454l-66 65l2 466l465 1l66 -66l-454 -1l-1 36l405 -405z" />
    <glyph glyph-name="uni2197" unicode="&#x2197;" horiz-adv-x="744" 
d="M176 175l406 404l-1 -36l-454 2l65 65l465 -2l1 -465l-65 -66l-1 455l36 1l-405 -405z" />
    <glyph glyph-name="uni2198" unicode="&#x2198;" horiz-adv-x="715" 
d="M180 559l405 -406l-36 1l2 454l65 -65l-2 -466l-465 -1l-66 66l455 1v-36l-404 405z" />
    <glyph glyph-name="uni2199" unicode="&#x2199;" horiz-adv-x="744" 
d="M617 545l-406 -404l1 36l454 -2l-65 -65l-466 2l-1 465l66 66l1 -455l-36 -1l405 405z" />
    <glyph glyph-name="minus" unicode="&#x2212;" horiz-adv-x="531" 
d="M80 340l14 62h411l-14 -62h-411z" />
    <glyph glyph-name="Adieresis.ss01" horiz-adv-x="583" 
d="M-29 0l378 720h69l-371 -720h-76zM420 0l-41 720h65l50 -720h-74zM144 283h302l-14 -66h-302zM317 815q-20 0 -33 14t-13 35q0 24 17.5 41t41.5 17q21 0 33.5 -12.5t12.5 -33.5q0 -25 -17.5 -43t-41.5 -18zM524 815q-19 0 -32 14t-13 35q0 24 17.5 41t41.5 17
q21 0 33.5 -12.5t12.5 -33.5q0 -25 -17.5 -43t-42.5 -18z" />
    <glyph glyph-name="Cdotaccent.ss01" horiz-adv-x="596" 
d="M278 -10q-66 0 -114.5 32t-75 90t-26.5 138q0 57 12 114.5t33.5 111.5t52.5 100t69.5 80.5t84 54t95.5 19.5q57 0 97.5 -23t65 -62.5t32.5 -88t0 -99.5h-76q6 39 2 75.5t-18.5 65.5t-41.5 46t-69 17q-44 0 -84 -24.5t-72.5 -66.5t-56 -94.5t-36 -111t-12.5 -114.5
q0 -93 38 -142t108 -49t120.5 52t77.5 152h75q-21 -87 -62 -148.5t-96.5 -93t-122.5 -31.5zM427 815q-20 0 -32.5 14t-12.5 35q0 16 8 29t21.5 21t29.5 8q19 0 32 -12.5t13 -33.5q0 -16 -8 -30t-21.5 -22.5t-29.5 -8.5z" />
    <glyph glyph-name="Edieresis.ss01" horiz-adv-x="522" 
d="M19 0l166 720h75l-166 -720h-75zM61 0l15 67h343l-15 -67h-343zM139 342l15 66h314l-15 -66h-314zM211 653l16 67h335l-16 -67h-335zM302 815q-20 0 -33 14t-13 35q0 24 17.5 41t41.5 17q21 0 33.5 -12.5t12.5 -33.5q0 -25 -17.5 -43t-41.5 -18zM509 815q-19 0 -32 14
t-13 35q0 24 17.5 41t41.5 17q21 0 33.5 -12.5t12.5 -33.5q0 -25 -17.5 -43t-42.5 -18z" />
    <glyph glyph-name="Edotaccent.ss01" horiz-adv-x="522" 
d="M19 0l166 720h75l-166 -720h-75zM61 0l15 67h343l-15 -67h-343zM139 342l15 66h314l-15 -66h-314zM211 653l16 67h335l-16 -67h-335zM405 815q-20 0 -32.5 14t-12.5 35q0 16 8 29t21.5 21t29.5 8q19 0 32 -12.5t13 -33.5q0 -16 -8 -30t-21.5 -22.5t-29.5 -8.5z" />
    <glyph glyph-name="uni0122.ss01" horiz-adv-x="618" 
d="M286 -10q-71 0 -121.5 32t-77.5 90t-27 139q0 68 16.5 136.5t47.5 130t74 109.5t95.5 75.5t112.5 27.5q55 0 94.5 -21t63.5 -56t34 -78t7 -88h-75q1 33 -5.5 63.5t-21 55.5t-40.5 40t-64 15q-45 0 -85 -24.5t-72.5 -66.5t-55.5 -94.5t-36 -111t-13 -114.5
q0 -93 39.5 -142t115.5 -49q51 0 92 15.5t66 45.5l68 -30q-43 -48 -101 -74t-131 -26zM442 92l58 250l23 -31h-183l17 66h227l-66 -287zM169 -284l8 39q29 10 47.5 30.5t25.5 49.5h23q-14 -9 -30 -9q-20 0 -33.5 13t-13.5 35q0 26 16.5 43t40.5 17q21 0 34.5 -14t13.5 -44
q0 -25 -10 -50.5t-28 -48t-42 -38.5t-52 -23z" />
    <glyph glyph-name="Gdotaccent.ss01" horiz-adv-x="618" 
d="M286 -10q-71 0 -121.5 32t-77.5 90t-27 139q0 68 16.5 136.5t47.5 130t74 109.5t95.5 75.5t112.5 27.5q55 0 94.5 -21t63.5 -56t34 -78t7 -88h-75q1 33 -5.5 63.5t-21 55.5t-40.5 40t-64 15q-45 0 -85 -24.5t-72.5 -66.5t-55.5 -94.5t-36 -111t-13 -114.5
q0 -93 39.5 -142t115.5 -49q51 0 92 15.5t66 45.5l68 -30q-43 -48 -101 -74t-131 -26zM442 92l58 250l23 -31h-183l17 66h227l-66 -287zM451 815q-20 0 -32.5 14t-12.5 35q0 16 8 29t21.5 21t29.5 8q19 0 32 -12.5t13 -33.5q0 -16 -8 -30t-21.5 -22.5t-29.5 -8.5z" />
    <glyph glyph-name="Idieresis.ss01" horiz-adv-x="231" 
d="M19 0l166 720h75l-166 -720h-75zM146 815q-20 0 -33 14t-13 35q0 24 17.5 41t41.5 17q21 0 33.5 -12.5t12.5 -33.5q0 -25 -17.5 -43t-41.5 -18zM353 815q-19 0 -32 14t-13 35q0 24 17.5 41t41.5 17q21 0 33.5 -12.5t12.5 -33.5q0 -25 -17.5 -43t-42.5 -18z" />
    <glyph glyph-name="Idotaccent.ss01" horiz-adv-x="231" 
d="M19 0l166 720h75l-166 -720h-75zM250 815q-20 0 -32.5 14t-12.5 35q0 16 8 29t21.5 21t29.5 8q19 0 32 -12.5t13 -33.5q0 -16 -8 -30t-21.5 -22.5t-29.5 -8.5z" />
    <glyph glyph-name="uni0136.ss01" horiz-adv-x="575" 
d="M19 0l166 720h75l-166 -720h-75zM161 373l376 347h105l-380 -346zM405 0l-230 378l87 -4l234 -374h-91zM134 -284l8 39q29 10 47.5 30.5t25.5 49.5h23q-14 -9 -30 -9q-20 0 -33.5 13t-13.5 35q0 26 16.5 43t40.5 17q21 0 34.5 -14t13.5 -44q0 -25 -10 -50.5t-28 -48
t-42 -38.5t-52 -23z" />
    <glyph glyph-name="uni013B.ss01" horiz-adv-x="477" 
d="M19 0l166 720h75l-166 -720h-75zM61 0l15 67h313l-15 -67h-313zM98 -284l8 39q29 10 47.5 30.5t25.5 49.5h23q-14 -9 -30 -9q-20 0 -33.5 13t-13.5 35q0 26 16.5 43t40.5 17q21 0 34.5 -14t13.5 -44q0 -25 -10 -50.5t-28 -48t-42 -38.5t-52 -23z" />
    <glyph glyph-name="uni0145.ss01" horiz-adv-x="616" 
d="M19 0l166 720h81l175 -606l-7 -2l140 608h71l-166 -720h-82l-175 606l8 2l-140 -608h-71zM139 -284l8 39q29 10 47.5 30.5t25.5 49.5h23q-14 -9 -30 -9q-20 0 -33.5 13t-13.5 35q0 26 16.5 43t40.5 17q21 0 34.5 -14t13.5 -44q0 -25 -10 -50.5t-28 -48t-42 -38.5t-52 -23
z" />
    <glyph glyph-name="Odieresis.ss01" horiz-adv-x="638" 
d="M279 -10q-64 0 -113 33t-76.5 93.5t-27.5 141.5q0 93 27.5 178.5t75.5 151.5t110 104t131 38q67 0 116 -33.5t76 -94t27 -143.5q-1 -93 -29 -177.5t-75.5 -150t-109.5 -103.5t-132 -38zM288 59q50 0 96.5 33.5t83 91.5t58 131.5t21.5 151.5q0 60 -18.5 103.5t-52.5 67
t-81 23.5q-49 0 -94.5 -33.5t-82 -91t-57.5 -130.5t-21 -152q0 -59 18.5 -103.5t51.5 -68t78 -23.5zM349 815q-20 0 -33 14t-13 35q0 24 17.5 41t41.5 17q21 0 33.5 -12.5t12.5 -33.5q0 -25 -17.5 -43t-41.5 -18zM556 815q-19 0 -32 14t-13 35q0 24 17.5 41t41.5 17
q21 0 33.5 -12.5t12.5 -33.5q0 -25 -17.5 -43t-42.5 -18z" />
    <glyph glyph-name="uni0156.ss01" horiz-adv-x="541" 
d="M19 0l166 720h200q57 0 95.5 -23.5t58.5 -63.5t19 -89q-1 -62 -32 -113.5t-87 -82.5t-134 -31h-160l16 67h155q52 0 89 21t56.5 56t19.5 78q1 49 -26 81.5t-88 32.5h-122l-151 -653h-75zM372 0l-223 366h85l231 -366h-93zM112 -284l8 39q29 10 47.5 30.5t25.5 49.5h23
q-14 -9 -30 -9q-20 0 -33.5 13t-13.5 35q0 26 16.5 43t40.5 17q21 0 34.5 -14t13.5 -44q0 -25 -10 -50.5t-28 -48t-42 -38.5t-52 -23z" />
    <glyph glyph-name="uni0218.ss01" horiz-adv-x="507" 
d="M238 -9q-57 0 -99 19t-67.5 52.5t-35.5 77t-5 91.5h73q-4 -33 1.5 -64.5t22 -56t45 -39t69.5 -14.5q62 0 98 34.5t36 97.5q0 35 -14.5 62t-47.5 51l-90 72q-48 33 -72.5 71.5t-24.5 89.5q0 58 27.5 102t75.5 69.5t109 25.5q50 0 86 -17t57.5 -47t30 -69.5t3.5 -84.5h-72
q5 43 -4.5 77t-36.5 54t-73 20q-40 0 -68.5 -15t-43.5 -42.5t-15 -64.5q0 -31 15.5 -56.5t49.5 -51.5l92 -71q46 -33 68.5 -74t22.5 -95q0 -63 -26.5 -108.5t-74.5 -70.5t-112 -25zM110 -284l8 39q29 10 47.5 30.5t25.5 49.5h23q-14 -9 -30 -9q-20 0 -33.5 13t-13.5 35
q0 26 16.5 43t40.5 17q21 0 34.5 -14t13.5 -44q0 -25 -10 -50.5t-28 -48t-42 -38.5t-52 -23z" />
    <glyph glyph-name="uni021A.ss01" horiz-adv-x="527" 
d="M166 0l150 653h-197l16 67h472l-16 -67h-199l-150 -653h-76zM94 -284l8 39q29 10 47.5 30.5t25.5 49.5h23q-14 -9 -30 -9q-20 0 -33.5 13t-13.5 35q0 26 16.5 43t40.5 17q21 0 34.5 -14t13.5 -44q0 -25 -10 -50.5t-28 -48t-42 -38.5t-52 -23z" />
    <glyph glyph-name="Udieresis.ss01" horiz-adv-x="589" 
d="M261 -9q-75 0 -123.5 33.5t-65.5 95t2 142.5l105 458h75l-108 -470q-12 -57 -4.5 -99.5t38.5 -67t87 -24.5q68 0 108 40t58 119l116 502h76l-117 -505q-25 -109 -87.5 -166.5t-159.5 -57.5zM325 815q-20 0 -33 14t-13 35q0 24 17.5 41t41.5 17q21 0 33.5 -12.5
t12.5 -33.5q0 -25 -17.5 -43t-41.5 -18zM532 815q-19 0 -32 14t-13 35q0 24 17.5 41t41.5 17q21 0 33.5 -12.5t12.5 -33.5q0 -25 -17.5 -43t-42.5 -18z" />
    <glyph glyph-name="Ydieresis.ss01" horiz-adv-x="560" 
d="M183 0l76 331l-134 389h82l115 -341h-34l272 341h89l-314 -389l-76 -331h-76zM310 815q-20 0 -33 14t-13 35q0 24 17.5 41t41.5 17q21 0 33.5 -12.5t12.5 -33.5q0 -25 -17.5 -43t-41.5 -18zM517 815q-19 0 -32 14t-13 35q0 24 17.5 41t41.5 17q21 0 33.5 -12.5
t12.5 -33.5q0 -25 -17.5 -43t-42.5 -18z" />
    <glyph glyph-name="Zdotaccent.ss01" horiz-adv-x="534" 
d="M2 0l13 57l477 632l24 -36h-353l16 67h399l-14 -57l-476 -632l-25 36h372l-16 -67h-417zM401 815q-20 0 -32.5 14t-12.5 35q0 16 8 29t21.5 21t29.5 8q19 0 32 -12.5t13 -33.5q0 -16 -8 -30t-21.5 -22.5t-29.5 -8.5z" />
    <glyph glyph-name="K.ss04" horiz-adv-x="575" 
d="M19 0l166 720h75l-166 -720h-75zM89 261l451 459h102l-328 -328l-16 -9l-194 -194zM410 0l-151 409l74 10l163 -419h-86z" />
    <glyph glyph-name="uni0136.ss04" horiz-adv-x="575" 
d="M19 0l166 720h75l-166 -720h-75zM89 261l451 459h102l-328 -328l-16 -9l-194 -194zM410 0l-151 409l74 10l163 -419h-86zM128 -284l9 39q30 10 48.5 30t25.5 51l27 -4h-83l22 97h100l-20 -84q-12 -52 -43 -83t-86 -46z" />
    <glyph glyph-name="R.ss05" horiz-adv-x="535" 
d="M19 0l166 720h197q56 0 95 -20t58.5 -56.5t19.5 -85.5q0 -55 -24 -102.5t-69.5 -79.5t-107.5 -42l-1 23q57 -6 83 -31.5t31 -61t-4 -75.5l-43 -189h-76l43 189q7 32 3 62t-25.5 50t-68.5 20h-150l15 63h165q45 0 79.5 23t54 59.5t19.5 77.5q0 49 -30.5 79t-84.5 30h-119
l-151 -653h-75z" />
    <glyph glyph-name="Racute.ss05" horiz-adv-x="535" 
d="M19 0l166 720h197q56 0 95 -20t58.5 -56.5t19.5 -85.5q0 -55 -24 -102.5t-69.5 -79.5t-107.5 -42l-1 23q57 -6 83 -31.5t31 -61t-4 -75.5l-43 -189h-76l43 189q7 32 3 62t-25.5 50t-68.5 20h-150l15 63h165q45 0 79.5 23t54 59.5t19.5 77.5q0 49 -30.5 79t-84.5 30h-119
l-151 -653h-75zM387 793h-65l128 157h114z" />
    <glyph glyph-name="Rcaron.ss05" horiz-adv-x="535" 
d="M19 0l166 720h197q56 0 95 -20t58.5 -56.5t19.5 -85.5q0 -55 -24 -102.5t-69.5 -79.5t-107.5 -42l-1 23q57 -6 83 -31.5t31 -61t-4 -75.5l-43 -189h-76l43 189q7 32 3 62t-25.5 50t-68.5 20h-150l15 63h165q45 0 79.5 23t54 59.5t19.5 77.5q0 49 -30.5 79t-84.5 30h-119
l-151 -653h-75zM357 793l-90 157h51l109 -137h-69l171 137h66l-162 -157h-76z" />
    <glyph glyph-name="uni0156.ss05" horiz-adv-x="535" 
d="M19 0l166 720h197q56 0 95 -20t58.5 -56.5t19.5 -85.5q0 -55 -24 -102.5t-69.5 -79.5t-107.5 -42l-1 23q57 -6 83 -31.5t31 -61t-4 -75.5l-43 -189h-76l43 189q7 32 3 62t-25.5 50t-68.5 20h-150l15 63h165q45 0 79.5 23t54 59.5t19.5 77.5q0 49 -30.5 79t-84.5 30h-119
l-151 -653h-75zM101 -284l9 39q30 10 48.5 30t25.5 51l27 -4h-83l22 97h100l-20 -84q-12 -52 -43 -83t-86 -46z" />
    <glyph glyph-name="M.ss06" horiz-adv-x="761" 
d="M-1 0l215 720h105l20 -685h-24l335 685h110l-116 -720h-76l103 648h17l-317 -648h-104l-18 645l16 1l-195 -646h-71z" />
    <glyph glyph-name="G.ss07" horiz-adv-x="612" 
d="M287 -10q-73 0 -124 31.5t-77.5 89t-26.5 136.5q0 49 10 103.5t30.5 108.5t50 102.5t68 86t85.5 59t101 21.5t95.5 -20.5t68 -55t37.5 -77.5t5 -88h-75q4 31 -2.5 61.5t-23.5 55.5t-45 40t-66 15q-41 0 -76.5 -19t-65 -52t-52 -75t-38 -88.5t-23.5 -92t-8 -85.5
q0 -89 40.5 -138.5t116.5 -49.5q54 0 96 28.5t73.5 92.5t53.5 170l72 -9q-26 -122 -68 -200t-100 -114.5t-132 -36.5zM529 306h-183l16 67h232l-7 -32z" />
    <glyph glyph-name="Gbreve.ss07" horiz-adv-x="612" 
d="M287 -10q-73 0 -124 31.5t-77.5 89t-26.5 136.5q0 49 10 103.5t30.5 108.5t50 102.5t68 86t85.5 59t101 21.5t95.5 -20.5t68 -55t37.5 -77.5t5 -88h-75q4 31 -2.5 61.5t-23.5 55.5t-45 40t-66 15q-41 0 -76.5 -19t-65 -52t-52 -75t-38 -88.5t-23.5 -92t-8 -85.5
q0 -89 40.5 -138.5t116.5 -49.5q54 0 96 28.5t73.5 92.5t53.5 170l72 -9q-26 -122 -68 -200t-100 -114.5t-132 -36.5zM529 306h-183l16 67h232l-7 -32zM431 789q-39 0 -66.5 14.5t-44 38t-20.5 52.5t4 56h52q-7 -23 -1 -46.5t27 -39t56 -15.5q43 0 71.5 25t38.5 76h53
q-16 -82 -62.5 -121.5t-107.5 -39.5z" />
    <glyph glyph-name="uni0122.ss07" horiz-adv-x="612" 
d="M287 -10q-73 0 -124 31.5t-77.5 89t-26.5 136.5q0 49 10 103.5t30.5 108.5t50 102.5t68 86t85.5 59t101 21.5t95.5 -20.5t68 -55t37.5 -77.5t5 -88h-75q4 31 -2.5 61.5t-23.5 55.5t-45 40t-66 15q-41 0 -76.5 -19t-65 -52t-52 -75t-38 -88.5t-23.5 -92t-8 -85.5
q0 -89 40.5 -138.5t116.5 -49.5q54 0 96 28.5t73.5 92.5t53.5 170l72 -9q-26 -122 -68 -200t-100 -114.5t-132 -36.5zM529 306h-183l16 67h232l-7 -32zM167 -284l9 39q30 10 48.5 30t25.5 51l27 -4h-83l22 97h100l-20 -84q-12 -52 -43 -83t-86 -46z" />
    <glyph glyph-name="Gdotaccent.ss07" horiz-adv-x="612" 
d="M287 -10q-73 0 -124 31.5t-77.5 89t-26.5 136.5q0 49 10 103.5t30.5 108.5t50 102.5t68 86t85.5 59t101 21.5t95.5 -20.5t68 -55t37.5 -77.5t5 -88h-75q4 31 -2.5 61.5t-23.5 55.5t-45 40t-66 15q-41 0 -76.5 -19t-65 -52t-52 -75t-38 -88.5t-23.5 -92t-8 -85.5
q0 -89 40.5 -138.5t116.5 -49.5q54 0 96 28.5t73.5 92.5t53.5 170l72 -9q-26 -122 -68 -200t-100 -114.5t-132 -36.5zM529 306h-183l16 67h232l-7 -32zM381 840l19 90h88l-19 -90h-88z" />
    <glyph glyph-name="J.ss08" horiz-adv-x="525" 
d="M213 -10q-48 0 -84 16.5t-59 46.5t-30 69.5t2 84.5h73q-9 -44 1 -77.5t36.5 -52t66.5 -18.5q56 0 92.5 36t54.5 112l119 513h75l-122 -527q-24 -102 -81 -152.5t-144 -50.5z" />
    <glyph glyph-name="Q.ss09" horiz-adv-x="638" 
d="M280 -10q-64 0 -113.5 33t-77 93.5t-27.5 141.5q0 93 27 178.5t75 151.5t110.5 104t132.5 38q65 0 114 -33.5t76 -94t27 -143.5q0 -93 -27.5 -177.5t-75.5 -150t-110 -103.5t-131 -38zM289 59q50 0 95.5 33.5t82 91.5t58 131.5t21.5 151.5q0 60 -18.5 103.5t-52 67
t-79.5 23.5q-49 0 -95 -33.5t-82.5 -91t-57.5 -130.5t-21 -152q0 -59 18.5 -103.5t52 -68t78.5 -23.5zM307 208l64 23l104 -302l-64 -23z" />
    <glyph glyph-name="uni0136.ss01.ss04" horiz-adv-x="575" 
d="M19 0l166 720h75l-166 -720h-75zM89 261l451 459h102l-328 -328l-16 -9l-194 -194zM410 0l-151 409l74 10l163 -419h-86zM134 -284l8 39q29 10 47.5 30.5t25.5 49.5h23q-14 -9 -30 -9q-20 0 -33.5 13t-13.5 35q0 26 16.5 43t40.5 17q21 0 34.5 -14t13.5 -44
q0 -25 -10 -50.5t-28 -48t-42 -38.5t-52 -23z" />
    <glyph glyph-name="uni0156.ss01.ss05" horiz-adv-x="535" 
d="M19 0l166 720h197q56 0 95 -20t58.5 -56.5t19.5 -85.5q0 -55 -24 -102.5t-69.5 -79.5t-107.5 -42l-1 23q57 -6 83 -31.5t31 -61t-4 -75.5l-43 -189h-76l43 189q7 32 3 62t-25.5 50t-68.5 20h-150l15 63h165q45 0 79.5 23t54 59.5t19.5 77.5q0 49 -30.5 79t-84.5 30h-119
l-151 -653h-75zM107 -284l8 39q29 10 47.5 30.5t25.5 49.5h23q-14 -9 -30 -9q-20 0 -33.5 13t-13.5 35q0 26 16.5 43t40.5 17q21 0 34.5 -14t13.5 -44q0 -25 -10 -50.5t-28 -48t-42 -38.5t-52 -23z" />
    <glyph glyph-name="uni0122.ss01.ss07" horiz-adv-x="612" 
d="M287 -10q-73 0 -124 31.5t-77.5 89t-26.5 136.5q0 49 10 103.5t30.5 108.5t50 102.5t68 86t85.5 59t101 21.5t95.5 -20.5t68 -55t37.5 -77.5t5 -88h-75q4 31 -2.5 61.5t-23.5 55.5t-45 40t-66 15q-41 0 -76.5 -19t-65 -52t-52 -75t-38 -88.5t-23.5 -92t-8 -85.5
q0 -89 40.5 -138.5t116.5 -49.5q54 0 96 28.5t73.5 92.5t53.5 170l72 -9q-26 -122 -68 -200t-100 -114.5t-132 -36.5zM529 306h-183l16 67h232l-7 -32zM171 -284l8 39q29 10 47.5 30.5t25.5 49.5h23q-14 -9 -30 -9q-20 0 -33.5 13t-13.5 35q0 26 16.5 43t40.5 17
q21 0 34.5 -14t13.5 -44q0 -25 -10 -50.5t-28 -48t-42 -38.5t-52 -23z" />
    <glyph glyph-name="Gdotaccent.ss01.ss07" horiz-adv-x="612" 
d="M287 -10q-73 0 -124 31.5t-77.5 89t-26.5 136.5q0 49 10 103.5t30.5 108.5t50 102.5t68 86t85.5 59t101 21.5t95.5 -20.5t68 -55t37.5 -77.5t5 -88h-75q4 31 -2.5 61.5t-23.5 55.5t-45 40t-66 15q-41 0 -76.5 -19t-65 -52t-52 -75t-38 -88.5t-23.5 -92t-8 -85.5
q0 -89 40.5 -138.5t116.5 -49.5q54 0 96 28.5t73.5 92.5t53.5 170l72 -9q-26 -122 -68 -200t-100 -114.5t-132 -36.5zM529 306h-183l16 67h232l-7 -32zM427 815q-20 0 -32.5 14t-12.5 35q0 16 8 29t21.5 21t29.5 8q19 0 32 -12.5t13 -33.5q0 -16 -8 -30t-21.5 -22.5
t-29.5 -8.5z" />
    <glyph glyph-name="i.loclTRK" horiz-adv-x="218" 
d="M14 0l117 510h73l-117 -510h-73zM149 630l19 90h88l-19 -90h-88z" />
    <glyph glyph-name="adieresis.ss01" horiz-adv-x="458" 
d="M274 0q-1 13 2.5 34.5t8.5 46.5l-6 1l61 267q6 27 3.5 52t-20.5 40.5t-58 15.5q-46 0 -74 -24.5t-40 -70.5h-69q18 77 68 117.5t127 40.5q66 0 98 -26t39 -68t-3 -87l-60 -260q-4 -20 -7 -41t-2 -38h-68zM139 -10q-57 0 -91 32.5t-34 87.5q0 44 21.5 78.5t62 58.5
t100.5 37l151 33l-14 -62l-130 -28q-61 -13 -89 -41t-28 -68q0 -33 19.5 -49t55.5 -16q50 0 86 28.5t48 79.5l-5 -77q-25 -46 -64.5 -70t-88.5 -24zM208 605q-20 0 -33 14t-13 35q0 24 17.5 41t41.5 17q21 0 33.5 -12.5t12.5 -33.5q0 -25 -17.5 -43t-41.5 -18zM415 605
q-19 0 -32 14t-13 35q0 24 17.5 41t41.5 17q21 0 33.5 -12.5t12.5 -33.5q0 -25 -17.5 -43t-42.5 -18z" />
    <glyph glyph-name="cdotaccent.ss01" horiz-adv-x="456" 
d="M195 -10q-50 0 -86 23t-56 67.5t-20 108.5q0 52 13 101t36.5 90.5t55.5 72.5t70.5 48.5t81.5 17.5q41 0 70.5 -16t48 -43t26 -60.5t2.5 -67.5h-69q3 31 -4 59t-26 46.5t-54 18.5q-30 0 -56.5 -14.5t-48.5 -40t-37.5 -59.5t-24 -74t-8.5 -82q0 -64 24 -98.5t69 -34.5
q46 0 81 33t51 92h69q-23 -87 -77.5 -137.5t-130.5 -50.5zM329 605q-20 0 -32.5 14t-12.5 35q0 16 8 29t21.5 21t29.5 8q19 0 32 -12.5t13 -33.5q0 -16 -8 -30t-21.5 -22.5t-29.5 -8.5z" />
    <glyph glyph-name="edieresis.ss01" horiz-adv-x="479" 
d="M206 -10q-53 0 -92.5 24t-60.5 68t-21 104q0 43 11.5 89.5t32.5 90t52.5 78t72.5 55t91 20.5t86 -20.5t55.5 -59t19.5 -93.5q0 -29 -5 -59.5t-14 -50.5h-343l13 62h301l-35 -52q8 32 10.5 68.5t-5 68.5t-28.5 52t-60 20q-34 0 -62 -17.5t-49.5 -46.5t-37 -64.5t-23 -72
t-7.5 -68.5q0 -63 28.5 -97.5t80.5 -34.5q40 0 70.5 24.5t50.5 73.5h70q-31 -80 -82.5 -121t-119.5 -41zM225 605q-20 0 -33 14t-13 35q0 24 17.5 41t41.5 17q21 0 33.5 -12.5t12.5 -33.5q0 -25 -17.5 -43t-41.5 -18zM432 605q-19 0 -32 14t-13 35q0 24 17.5 41t41.5 17
q21 0 33.5 -12.5t12.5 -33.5q0 -25 -17.5 -43t-42.5 -18z" />
    <glyph glyph-name="edotaccent.ss01" horiz-adv-x="479" 
d="M206 -10q-53 0 -92.5 24t-60.5 68t-21 104q0 43 11.5 89.5t32.5 90t52.5 78t72.5 55t91 20.5t86 -20.5t55.5 -59t19.5 -93.5q0 -29 -5 -59.5t-14 -50.5h-343l13 62h301l-35 -52q8 32 10.5 68.5t-5 68.5t-28.5 52t-60 20q-34 0 -62 -17.5t-49.5 -46.5t-37 -64.5t-23 -72
t-7.5 -68.5q0 -63 28.5 -97.5t80.5 -34.5q40 0 70.5 24.5t50.5 73.5h70q-31 -80 -82.5 -121t-119.5 -41zM328 605q-20 0 -32.5 14t-12.5 35q0 16 8 29t21.5 21t29.5 8q19 0 32 -12.5t13 -33.5q0 -16 -8 -30t-21.5 -22.5t-29.5 -8.5z" />
    <glyph glyph-name="uni0123.ss01" 
d="M172 -215q-61 0 -101.5 20.5t-60.5 55t-20 73.5h67q4 -43 35 -64t84 -21q54 0 91 32t50 96l27 121l5 -12q-25 -47 -67 -71.5t-91 -24.5q-73 0 -114.5 53t-41.5 141q0 68 19 128.5t53 107t78 73.5t94 27q42 0 73.5 -17t49.5 -47t18 -71l-8 -8l29 133h68l-119 -536
q-20 -91 -77 -140t-141 -49zM216 56q34 0 61.5 17t48.5 45.5t35.5 63.5t22 70.5t7.5 66.5q0 65 -29 100t-78 35t-88.5 -36t-62 -94.5t-22.5 -128.5q0 -64 28 -101.5t77 -37.5zM327 576q-21 0 -34.5 14t-13.5 44q0 25 10 50.5t28 48t42 38.5t53 22l-9 -38q-28 -11 -47 -31
t-26 -50h-23q14 9 30 9q20 0 33.5 -13t13.5 -35q0 -25 -16.5 -42t-40.5 -17z" />
    <glyph glyph-name="gdotaccent.ss01" 
d="M172 -215q-61 0 -101.5 20.5t-60.5 55t-20 73.5h67q4 -43 35 -64t84 -21q54 0 91 32t50 96l27 121l5 -12q-25 -47 -67 -71.5t-91 -24.5q-73 0 -114.5 53t-41.5 141q0 68 19 128.5t53 107t78 73.5t94 27q42 0 73.5 -17t49.5 -47t18 -71l-8 -8l29 133h68l-119 -536
q-20 -91 -77 -140t-141 -49zM216 56q34 0 61.5 17t48.5 45.5t35.5 63.5t22 70.5t7.5 66.5q0 65 -29 100t-78 35t-88.5 -36t-62 -94.5t-22.5 -128.5q0 -64 28 -101.5t77 -37.5zM330 605q-20 0 -32.5 14t-12.5 35q0 16 8 29t21.5 21t29.5 8q19 0 32 -12.5t13 -33.5
q0 -16 -8 -30t-21.5 -22.5t-29.5 -8.5z" />
    <glyph glyph-name="i.ss01" horiz-adv-x="218" 
d="M14 0l117 510h73l-117 -510h-73zM195 605q-20 0 -32.5 14t-12.5 35q0 16 8 29t21.5 21t29.5 8q19 0 32 -12.5t13 -33.5q0 -16 -8 -30t-21.5 -22.5t-29.5 -8.5z" />
    <glyph glyph-name="idieresis.ss01" horiz-adv-x="218" 
d="M14 0l117 510h73l-117 -510h-73zM91 605q-20 0 -33 14t-13 35q0 24 17.5 41t41.5 17q21 0 33.5 -12.5t12.5 -33.5q0 -25 -17.5 -43t-41.5 -18zM298 605q-19 0 -32 14t-13 35q0 24 17.5 41t41.5 17q21 0 33.5 -12.5t12.5 -33.5q0 -25 -17.5 -43t-42.5 -18z" />
    <glyph glyph-name="i.loclTRK.ss01" horiz-adv-x="218" 
d="M14 0l117 510h73l-117 -510h-73zM195 605q-20 0 -32.5 14t-12.5 35q0 16 8 29t21.5 21t29.5 8q19 0 32 -12.5t13 -33.5q0 -16 -8 -30t-21.5 -22.5t-29.5 -8.5z" />
    <glyph glyph-name="ij.ss01" horiz-adv-x="432" 
d="M14 0l117 510h73l-117 -510h-73zM195 605q-20 0 -32.5 14t-12.5 35q0 16 8 29t21.5 21t29.5 8q19 0 32 -12.5t13 -33.5q0 -16 -8 -30t-21.5 -22.5t-29.5 -8.5zM149 -214q-11 0 -31.5 2.5t-34.5 9.5l13 58q7 -4 20.5 -7t28.5 -3q25 0 39.5 13t20.5 38l141 613h73
l-144 -624q-11 -47 -42 -74t-84 -26zM409 605q-20 0 -32.5 14t-12.5 35q0 16 8 29t21.5 21t29.5 8q19 0 32 -12.5t13 -33.5q0 -16 -8 -30t-21.5 -22.5t-29.5 -8.5z" />
    <glyph glyph-name="iogonek.ss01" horiz-adv-x="218" 
d="M14 0l117 510h73l-117 -510h-73zM195 605q-20 0 -32.5 14t-12.5 35q0 16 8 29t21.5 21t29.5 8q19 0 32 -12.5t13 -33.5q0 -16 -8 -30t-21.5 -22.5t-29.5 -8.5zM-17 -216q-35 0 -56 18t-21 49q0 46 46 90.5t118 77.5l17 -19q-57 -37 -91.5 -70.5t-34.5 -67.5
q0 -16 9 -23.5t22 -7.5q16 0 33 12l19 -39q-15 -10 -29.5 -15t-31.5 -5z" />
    <glyph glyph-name="j.ss01" horiz-adv-x="217" 
d="M-66 -214q-11 0 -31.5 2.5t-34.5 9.5l13 58q7 -4 20.5 -7t28.5 -3q25 0 39.5 13t20.5 38l141 613h73l-144 -624q-11 -47 -42 -74t-84 -26zM195 605q-20 0 -32.5 14t-12.5 35q0 16 8 29t21.5 21t29.5 8q19 0 32 -12.5t13 -33.5q0 -16 -8 -30t-21.5 -22.5t-29.5 -8.5z" />
    <glyph glyph-name="uni0137.ss01" horiz-adv-x="464" 
d="M13 0l168 730h74l-169 -730h-73zM308 0l-175 265l267 245h101l-296 -266l-5 45l193 -289h-85zM84 -284l8 39q29 10 47.5 30.5t25.5 49.5h23q-14 -9 -30 -9q-20 0 -33.5 13t-13.5 35q0 26 16.5 43t40.5 17q21 0 34.5 -14t13.5 -44q0 -25 -10 -50.5t-28 -48t-42 -38.5
t-52 -23z" />
    <glyph glyph-name="uni013C.ss01" horiz-adv-x="217" 
d="M13 0l166 720h73l-166 -720h-73zM-60 -284l8 39q29 10 47.5 30.5t25.5 49.5h23q-14 -9 -30 -9q-20 0 -33.5 13t-13.5 35q0 26 16.5 43t40.5 17q21 0 34.5 -14t13.5 -44q0 -25 -10 -50.5t-28 -48t-42 -38.5t-52 -23z" />
    <glyph glyph-name="uni0146.ss01" horiz-adv-x="518" 
d="M14 0l117 510h68l-24 -108h5l-93 -402h-73zM319 0l79 346q12 54 -8 82.5t-68 28.5q-59 0 -103.5 -40.5t-60.5 -109.5l13 102q30 54 75.5 82.5t99.5 28.5q74 0 109 -47t18 -125l-81 -348h-73zM99 -284l8 39q29 10 47.5 30.5t25.5 49.5h23q-14 -9 -30 -9q-20 0 -33.5 13
t-13.5 35q0 26 16.5 43t40.5 17q21 0 34.5 -14t13.5 -44q0 -25 -10 -50.5t-28 -48t-42 -38.5t-52 -23z" />
    <glyph glyph-name="odieresis.ss01" horiz-adv-x="505" 
d="M212 -10q-53 0 -93.5 25t-62.5 71t-22 109q0 66 20.5 125t56.5 104t83 70.5t99 25.5q55 0 95 -24.5t61.5 -70t21.5 -106.5q0 -67 -21 -126.5t-57 -105t-82.5 -71.5t-98.5 -26zM217 54q35 0 67.5 21.5t57.5 58.5t39.5 85t14.5 101q0 64 -28.5 100t-79.5 36q-36 0 -68 -21
t-56.5 -57t-39 -83.5t-14.5 -101.5q0 -65 29 -102t78 -37zM234 605q-20 0 -33 14t-13 35q0 24 17.5 41t41.5 17q21 0 33.5 -12.5t12.5 -33.5q0 -25 -17.5 -43t-41.5 -18zM441 605q-19 0 -32 14t-13 35q0 24 17.5 41t41.5 17q21 0 33.5 -12.5t12.5 -33.5q0 -25 -17.5 -43
t-42.5 -18z" />
    <glyph glyph-name="uni0157.ss01" horiz-adv-x="324" 
d="M13 0l118 510h68l-27 -118h5l-91 -392h-73zM158 312l7 97q30 52 70 81.5t88 29.5q11 0 21.5 -2t17.5 -5l-16 -71q-7 3 -19 4.5t-24 1.5q-54 0 -92 -34.5t-53 -101.5zM-61 -284l8 39q29 10 47.5 30.5t25.5 49.5h23q-14 -9 -30 -9q-20 0 -33.5 13t-13.5 35q0 26 16.5 43
t40.5 17q21 0 34.5 -14t13.5 -44q0 -25 -10 -50.5t-28 -48t-42 -38.5t-52 -23z" />
    <glyph glyph-name="uni0219.ss01" horiz-adv-x="394" 
d="M168 -10q-55 0 -92.5 23.5t-54 61t-11.5 80.5h69q-2 -27 7.5 -50.5t31 -38t55.5 -14.5q44 0 68.5 23t24.5 60q0 24 -12 41.5t-38 33.5l-59 39q-39 24 -59 54t-20 70q0 43 21 76t57.5 51.5t84.5 18.5q51 0 83.5 -20.5t46.5 -54.5t11 -73h-68q0 22 -7.5 42t-25 32.5
t-48.5 12.5q-39 0 -61.5 -21.5t-22.5 -56.5q0 -21 12 -39t38 -35l59 -39q39 -24 58.5 -54.5t19.5 -69.5q0 -45 -21 -79.5t-58.5 -54t-88.5 -19.5zM40 -284l8 39q29 10 47.5 30.5t25.5 49.5h23q-14 -9 -30 -9q-20 0 -33.5 13t-13.5 35q0 26 16.5 43t40.5 17q21 0 34.5 -14
t13.5 -44q0 -25 -10 -50.5t-28 -48t-42 -38.5t-52 -23z" />
    <glyph glyph-name="uni021B.ss01" horiz-adv-x="321" 
d="M187 -10q-71 0 -100 38.5t-14 103.5l110 481l81 30l-120 -519q-8 -36 7 -53.5t55 -17.5q16 0 29 2t21 5l-14 -62q-11 -4 -24 -6t-31 -2zM59 447l14 63h286l-14 -63h-286zM40 -284l8 39q29 10 47.5 30.5t25.5 49.5h23q-14 -9 -30 -9q-20 0 -33.5 13t-13.5 35q0 26 16.5 43
t40.5 17q21 0 34.5 -14t13.5 -44q0 -25 -10 -50.5t-28 -48t-42 -38.5t-52 -23z" />
    <glyph glyph-name="udieresis.ss01" horiz-adv-x="509" 
d="M169 -10q-72 0 -106.5 47t-17.5 125l81 348h74l-80 -346q-12 -53 7.5 -82t65.5 -29q55 0 98.5 40.5t59.5 109.5l-12 -102q-30 -54 -75 -82.5t-95 -28.5zM311 0l25 108h-7l93 402h74l-118 -510h-67zM237 605q-20 0 -33 14t-13 35q0 24 17.5 41t41.5 17q21 0 33.5 -12.5
t12.5 -33.5q0 -25 -17.5 -43t-41.5 -18zM444 605q-19 0 -32 14t-13 35q0 24 17.5 41t41.5 17q21 0 33.5 -12.5t12.5 -33.5q0 -25 -17.5 -43t-42.5 -18z" />
    <glyph glyph-name="wdieresis.ss01" horiz-adv-x="683" 
d="M110 0l-22 510h72l6 -426h-19l226 426h54l29 -426h-21l202 426h76l-259 -510h-54l-29 417h20l-224 -417h-57zM324 605q-20 0 -33 14t-13 35q0 24 17.5 41t41.5 17q21 0 33.5 -12.5t12.5 -33.5q0 -25 -17.5 -43t-41.5 -18zM531 605q-19 0 -32 14t-13 35q0 24 17.5 41
t41.5 17q21 0 33.5 -12.5t12.5 -33.5q0 -25 -17.5 -43t-42.5 -18z" />
    <glyph glyph-name="ydieresis.ss01" horiz-adv-x="453" 
d="M-5 -205l159 268l19 26l240 421h80l-416 -715h-82zM152 0l-74 510h76l57 -445zM209 605q-20 0 -33 14t-13 35q0 24 17.5 41t41.5 17q21 0 33.5 -12.5t12.5 -33.5q0 -25 -17.5 -43t-41.5 -18zM416 605q-19 0 -32 14t-13 35q0 24 17.5 41t41.5 17q21 0 33.5 -12.5
t12.5 -33.5q0 -25 -17.5 -43t-42.5 -18z" />
    <glyph glyph-name="zdotaccent.ss01" horiz-adv-x="419" 
d="M-17 0l12 53l354 426l24 -32h-276l15 63h322l-13 -53l-354 -426l-24 32h294l-14 -63h-340zM296 605q-20 0 -32.5 14t-12.5 35q0 16 8 29t21.5 21t29.5 8q19 0 32 -12.5t13 -33.5q0 -16 -8 -30t-21.5 -22.5t-29.5 -8.5z" />
    <glyph glyph-name="a.ss02" 
d="M188 -10q-72 0 -113 52t-41 138q0 69 19.5 130t53.5 108t78.5 74.5t95.5 27.5q43 0 74.5 -17.5t49.5 -49t16 -74.5l-10 -4l32 135h68l-118 -510h-68l22 98l2 -7q-24 -49 -67 -75t-94 -26zM214 56q34 0 62 17.5t49.5 46t36.5 64t22.5 71.5t7.5 67q0 63 -29 97.5t-77 34.5
q-49 0 -89 -36t-63.5 -94.5t-23.5 -128.5q0 -64 27.5 -101.5t76.5 -37.5z" />
    <glyph glyph-name="aacute.ss02" 
d="M188 -10q-72 0 -113 52t-41 138q0 69 19.5 130t53.5 108t78.5 74.5t95.5 27.5q43 0 74.5 -17.5t49.5 -49t16 -74.5l-10 -4l32 135h68l-118 -510h-68l22 98l2 -7q-24 -49 -67 -75t-94 -26zM214 56q34 0 62 17.5t49.5 46t36.5 64t22.5 71.5t7.5 67q0 63 -29 97.5t-77 34.5
q-49 0 -89 -36t-63.5 -94.5t-23.5 -128.5q0 -64 27.5 -101.5t76.5 -37.5zM331 583h-65l128 157h114z" />
    <glyph glyph-name="abreve.ss02" 
d="M188 -10q-72 0 -113 52t-41 138q0 69 19.5 130t53.5 108t78.5 74.5t95.5 27.5q43 0 74.5 -17.5t49.5 -49t16 -74.5l-10 -4l32 135h68l-118 -510h-68l22 98l2 -7q-24 -49 -67 -75t-94 -26zM214 56q34 0 62 17.5t49.5 46t36.5 64t22.5 71.5t7.5 67q0 63 -29 97.5t-77 34.5
q-49 0 -89 -36t-63.5 -94.5t-23.5 -128.5q0 -64 27.5 -101.5t76.5 -37.5zM354 579q-39 0 -66.5 14.5t-44 38t-20.5 52.5t4 56h52q-7 -23 -1 -46.5t27 -39t56 -15.5q43 0 71.5 25t38.5 76h53q-16 -82 -62.5 -121.5t-107.5 -39.5z" />
    <glyph glyph-name="uni01CE.ss02" 
d="M188 -10q-72 0 -113 52t-41 138q0 69 19.5 130t53.5 108t78.5 74.5t95.5 27.5q43 0 74.5 -17.5t49.5 -49t16 -74.5l-10 -4l32 135h68l-118 -510h-68l22 98l2 -7q-24 -49 -67 -75t-94 -26zM214 56q34 0 62 17.5t49.5 46t36.5 64t22.5 71.5t7.5 67q0 63 -29 97.5t-77 34.5
q-49 0 -89 -36t-63.5 -94.5t-23.5 -128.5q0 -64 27.5 -101.5t76.5 -37.5zM301 583l-90 157h51l109 -137h-69l171 137h66l-162 -157h-76z" />
    <glyph glyph-name="acircumflex.ss02" 
d="M188 -10q-72 0 -113 52t-41 138q0 69 19.5 130t53.5 108t78.5 74.5t95.5 27.5q43 0 74.5 -17.5t49.5 -49t16 -74.5l-10 -4l32 135h68l-118 -510h-68l22 98l2 -7q-24 -49 -67 -75t-94 -26zM214 56q34 0 62 17.5t49.5 46t36.5 64t22.5 71.5t7.5 67q0 63 -29 97.5t-77 34.5
q-49 0 -89 -36t-63.5 -94.5t-23.5 -128.5q0 -64 27.5 -101.5t76.5 -37.5zM174 583l162 157h76l90 -157h-51l-109 137h69l-171 -137h-66z" />
    <glyph glyph-name="adieresis.ss02" 
d="M188 -10q-72 0 -113 52t-41 138q0 69 19.5 130t53.5 108t78.5 74.5t95.5 27.5q43 0 74.5 -17.5t49.5 -49t16 -74.5l-10 -4l32 135h68l-118 -510h-68l22 98l2 -7q-24 -49 -67 -75t-94 -26zM214 56q34 0 62 17.5t49.5 46t36.5 64t22.5 71.5t7.5 67q0 63 -29 97.5t-77 34.5
q-49 0 -89 -36t-63.5 -94.5t-23.5 -128.5q0 -64 27.5 -101.5t76.5 -37.5zM409 630l20 90h88l-20 -90h-88zM201 630l20 90h88l-21 -90h-87z" />
    <glyph glyph-name="agrave.ss02" 
d="M188 -10q-72 0 -113 52t-41 138q0 69 19.5 130t53.5 108t78.5 74.5t95.5 27.5q43 0 74.5 -17.5t49.5 -49t16 -74.5l-10 -4l32 135h68l-118 -510h-68l22 98l2 -7q-24 -49 -67 -75t-94 -26zM214 56q34 0 62 17.5t49.5 46t36.5 64t22.5 71.5t7.5 67q0 63 -29 97.5t-77 34.5
q-49 0 -89 -36t-63.5 -94.5t-23.5 -128.5q0 -64 27.5 -101.5t76.5 -37.5zM356 583l-114 157h96l74 -157h-56z" />
    <glyph glyph-name="amacron.ss02" 
d="M188 -10q-72 0 -113 52t-41 138q0 69 19.5 130t53.5 108t78.5 74.5t95.5 27.5q43 0 74.5 -17.5t49.5 -49t16 -74.5l-10 -4l32 135h68l-118 -510h-68l22 98l2 -7q-24 -49 -67 -75t-94 -26zM214 56q34 0 62 17.5t49.5 46t36.5 64t22.5 71.5t7.5 67q0 63 -29 97.5t-77 34.5
q-49 0 -89 -36t-63.5 -94.5t-23.5 -128.5q0 -64 27.5 -101.5t76.5 -37.5zM200 645l12 52h305l-12 -52h-305z" />
    <glyph glyph-name="aogonek.ss02" 
d="M188 -10q-72 0 -113 52t-41 138q0 69 19.5 130t53.5 108t78.5 74.5t95.5 27.5q43 0 74.5 -17.5t49.5 -49t16 -74.5l-10 -4l32 135h68l-118 -510h-68l22 98l2 -7q-24 -49 -67 -75t-94 -26zM214 56q34 0 62 17.5t49.5 46t36.5 64t22.5 71.5t7.5 67q0 63 -29 97.5t-77 34.5
q-49 0 -89 -36t-63.5 -94.5t-23.5 -128.5q0 -64 27.5 -101.5t76.5 -37.5zM290 -216q-35 0 -56 18t-21 49q0 46 46 90.5t118 77.5l17 -19q-57 -37 -91.5 -70.5t-34.5 -67.5q0 -16 9 -23.5t22 -7.5q16 0 33 12l19 -39q-15 -10 -29.5 -15t-31.5 -5z" />
    <glyph glyph-name="aring.ss02" 
d="M188 -10q-72 0 -113 52t-41 138q0 69 19.5 130t53.5 108t78.5 74.5t95.5 27.5q43 0 74.5 -17.5t49.5 -49t16 -74.5l-10 -4l32 135h68l-118 -510h-68l22 98l2 -7q-24 -49 -67 -75t-94 -26zM214 56q34 0 62 17.5t49.5 46t36.5 64t22.5 71.5t7.5 67q0 63 -29 97.5t-77 34.5
q-49 0 -89 -36t-63.5 -94.5t-23.5 -128.5q0 -64 27.5 -101.5t76.5 -37.5zM347 561q-41 0 -69 27.5t-28 68.5q0 33 16 60t42.5 43t57.5 16q42 0 70 -27.5t28 -68.5q0 -31 -16.5 -58.5t-43 -44t-57.5 -16.5zM350 606q27 0 47 20.5t20 49.5q0 24 -15 40t-39 16q-26 0 -46 -20.5
t-20 -49.5q0 -24 15 -40t38 -16z" />
    <glyph glyph-name="atilde.ss02" 
d="M188 -10q-72 0 -113 52t-41 138q0 69 19.5 130t53.5 108t78.5 74.5t95.5 27.5q43 0 74.5 -17.5t49.5 -49t16 -74.5l-10 -4l32 135h68l-118 -510h-68l22 98l2 -7q-24 -49 -67 -75t-94 -26zM214 56q34 0 62 17.5t49.5 46t36.5 64t22.5 71.5t7.5 67q0 63 -29 97.5t-77 34.5
q-49 0 -89 -36t-63.5 -94.5t-23.5 -128.5q0 -64 27.5 -101.5t76.5 -37.5zM424 597q-27 0 -46 10.5t-34.5 24t-30 24t-32.5 10.5q-21 0 -34 -14t-21 -45h-50q8 36 23 62t38.5 39.5t52.5 13.5q28 0 46.5 -10.5t32.5 -24t28.5 -24t33.5 -10.5q21 0 34 14t20 45h50
q-11 -56 -41 -85.5t-70 -29.5z" />
    <glyph glyph-name="y.ss03" horiz-adv-x="453" 
d="M-3 -215q-16 0 -26.5 2t-17.5 4l14 59q6 -2 15 -4t22 -2q29 0 46.5 12t37.5 49l79 147l17 33l230 425h79l-351 -633q-19 -35 -40.5 -55.5t-47 -28.5t-57.5 -8zM152 0l-74 510h76l57 -445z" />
    <glyph glyph-name="yacute.ss03" horiz-adv-x="453" 
d="M-3 -215q-16 0 -26.5 2t-17.5 4l14 59q6 -2 15 -4t22 -2q29 0 46.5 12t37.5 49l79 147l17 33l230 425h79l-351 -633q-19 -35 -40.5 -55.5t-47 -28.5t-57.5 -8zM152 0l-74 510h76l57 -445zM299 583h-65l128 157h114z" />
    <glyph glyph-name="ycircumflex.ss03" horiz-adv-x="453" 
d="M-3 -215q-16 0 -26.5 2t-17.5 4l14 59q6 -2 15 -4t22 -2q29 0 46.5 12t37.5 49l79 147l17 33l230 425h79l-351 -633q-19 -35 -40.5 -55.5t-47 -28.5t-57.5 -8zM152 0l-74 510h76l57 -445zM142 583l162 157h76l90 -157h-51l-109 137h69l-171 -137h-66z" />
    <glyph glyph-name="ydieresis.ss03" horiz-adv-x="453" 
d="M-3 -215q-16 0 -26.5 2t-17.5 4l14 59q6 -2 15 -4t22 -2q29 0 46.5 12t37.5 49l79 147l17 33l230 425h79l-351 -633q-19 -35 -40.5 -55.5t-47 -28.5t-57.5 -8zM152 0l-74 510h76l57 -445zM377 630l20 90h88l-20 -90h-88zM169 630l20 90h88l-21 -90h-87z" />
    <glyph glyph-name="ygrave.ss03" horiz-adv-x="453" 
d="M-3 -215q-16 0 -26.5 2t-17.5 4l14 59q6 -2 15 -4t22 -2q29 0 46.5 12t37.5 49l79 147l17 33l230 425h79l-351 -633q-19 -35 -40.5 -55.5t-47 -28.5t-57.5 -8zM152 0l-74 510h76l57 -445zM324 583l-114 157h96l74 -157h-56z" />
    <glyph glyph-name="k.ss04" horiz-adv-x="464" 
d="M13 0l166 720h73l-166 -720h-73zM125 233l279 277h96l-239 -233l-11 -3l-145 -136zM280 304l113 -304h-76l-100 280z" />
    <glyph glyph-name="uni0137.ss04" horiz-adv-x="464" 
d="M13 0l166 720h73l-166 -720h-73zM125 233l279 277h96l-239 -233l-11 -3l-145 -136zM280 304l113 -304h-76l-100 280zM78 -284l9 39q30 10 48.5 30t25.5 51l27 -4h-83l22 97h100l-20 -84q-12 -52 -43 -83t-86 -46z" />
    <glyph glyph-name="adieresis.ss01.ss02" 
d="M188 -10q-72 0 -113 52t-41 138q0 69 19.5 130t53.5 108t78.5 74.5t95.5 27.5q43 0 74.5 -17.5t49.5 -49t16 -74.5l-10 -4l32 135h68l-118 -510h-68l22 98l2 -7q-24 -49 -67 -75t-94 -26zM214 56q34 0 62 17.5t49.5 46t36.5 64t22.5 71.5t7.5 67q0 63 -29 97.5t-77 34.5
q-49 0 -89 -36t-63.5 -94.5t-23.5 -128.5q0 -64 27.5 -101.5t76.5 -37.5zM245 605q-20 0 -33 14t-13 35q0 24 17.5 41t41.5 17q21 0 33.5 -12.5t12.5 -33.5q0 -25 -17.5 -43t-41.5 -18zM452 605q-19 0 -32 14t-13 35q0 24 17.5 41t41.5 17q21 0 33.5 -12.5t12.5 -33.5
q0 -25 -17.5 -43t-42.5 -18z" />
    <glyph glyph-name="ydieresis.ss01.ss03" horiz-adv-x="453" 
d="M-3 -215q-16 0 -26.5 2t-17.5 4l14 59q6 -2 15 -4t22 -2q29 0 46.5 12t37.5 49l79 147l17 33l230 425h79l-351 -633q-19 -35 -40.5 -55.5t-47 -28.5t-57.5 -8zM152 0l-74 510h76l57 -445zM213 605q-20 0 -33 14t-13 35q0 24 17.5 41t41.5 17q21 0 33.5 -12.5t12.5 -33.5
q0 -25 -17.5 -43t-41.5 -18zM420 605q-19 0 -32 14t-13 35q0 24 17.5 41t41.5 17q21 0 33.5 -12.5t12.5 -33.5q0 -25 -17.5 -43t-42.5 -18z" />
    <glyph glyph-name="uni0137.ss01.ss04" horiz-adv-x="464" 
d="M13 0l166 720h73l-166 -720h-73zM125 233l279 277h96l-239 -233l-11 -3l-145 -136zM280 304l113 -304h-76l-100 280zM84 -284l8 39q29 10 47.5 30.5t25.5 49.5h23q-14 -9 -30 -9q-20 0 -33.5 13t-13.5 35q0 26 16.5 43t40.5 17q21 0 34.5 -14t13.5 -44q0 -25 -10 -50.5
t-28 -48t-42 -38.5t-52 -23z" />
    <glyph glyph-name="f_f_i.ss01" horiz-adv-x="804" 
d="M320 0l141 614q12 55 49 85.5t100 30.5q17 0 34 -2.5t29 -7.5l-15 -59q-6 3 -18.5 5t-24.5 2q-37 0 -56.5 -18t-26.5 -49l-139 -601h-73zM42 0l141 614q12 55 49 85.5t100 30.5q17 0 34 -2.5t29 -7.5l-15 -59q-6 3 -18.5 5t-24.5 2q-37 0 -56.5 -18t-26.5 -49l-139 -601
h-73zM59 447l14 63h679l-14 -63h-679zM598 0l118 510h74l-118 -510h-74zM780 605q-21 0 -33.5 14.5t-12.5 33.5q0 27 17.5 43t41.5 16q21 0 33.5 -13t12.5 -33q0 -27 -18 -44t-41 -17z" />
    <glyph glyph-name="f_i.ss01" horiz-adv-x="534" 
d="M41 0l141 614q13 55 50 85.5t100 30.5q17 0 33.5 -2.5t28.5 -7.5l-14 -59q-6 3 -18.5 5t-24.5 2q-37 0 -56.5 -18t-27.5 -49l-138 -601h-74zM320 0l118 510h73l-118 -510h-73zM501 605q-21 0 -33 14.5t-12 33.5q0 27 17.5 43t41.5 16q21 0 33.5 -13t12.5 -33
q0 -27 -18 -44t-42 -17zM59 447l14 63h400l-14 -63h-400z" />
    <glyph glyph-name="two.ss10" horiz-adv-x="472" 
d="M-14 0l19 80q13 57 42 100.5t68 77t81 61t82 54t73 54t52.5 61t19.5 76.5q0 48 -25.5 73.5t-72.5 25.5q-54 0 -95.5 -36.5t-60.5 -110.5h-75q25 106 87.5 159.5t148.5 53.5q50 0 89 -18t61 -54.5t22 -91.5t-21.5 -96t-56 -74t-77.5 -61.5t-87 -56.5t-83 -59t-67 -70
t-38 -90l-15 8h343l-15 -66h-399z" />
    <glyph glyph-name="zero.tf" horiz-adv-x="548" 
d="M236 -10q-54 0 -94 29t-62.5 83t-22.5 129q0 45 8.5 98.5t25.5 109.5t42 108t58.5 93t75.5 65.5t93 24.5q55 0 95.5 -28.5t62.5 -82t22 -128.5q0 -45 -8.5 -99t-25.5 -110.5t-42 -108.5t-59 -93.5t-76.5 -65.5t-92.5 -24zM241 57q38 0 68.5 24t54.5 63t41.5 88t29.5 99.5
t18 96.5t6 80q0 74 -27.5 114.5t-77.5 40.5q-38 0 -68.5 -23.5t-54.5 -62.5t-41.5 -87t-28.5 -98.5t-16.5 -96t-5.5 -79.5q0 -74 26 -116.5t76 -42.5z" />
    <glyph glyph-name="one.tf" horiz-adv-x="548" 
d="M220 23l143 622l14 -13q-18 -20 -50.5 -40t-73.5 -33.5t-87 -15.5l16 74q47 3 88 16.5t73.5 36t54.5 50.5h57l-160 -704zM36 0l16 66h414l-16 -66h-414z" />
    <glyph glyph-name="two.tf" horiz-adv-x="548" 
d="M27 0l15 64q104 88 181 160.5t127.5 133t75.5 111.5t25 96q0 46 -25.5 72t-70.5 26q-53 0 -87.5 -37t-53.5 -110h-77q24 104 83.5 159t143.5 55q77 0 122.5 -43t45.5 -114q0 -53 -28.5 -113t-83 -127t-132 -140.5t-177.5 -153.5l-13 27h334l-15 -66h-390z" />
    <glyph glyph-name="three.tf" horiz-adv-x="548" 
d="M244 -10q-54 0 -92 19.5t-61 52.5t-30.5 73.5t0.5 81.5h77q-4 -29 -1 -57.5t16 -51.5t35.5 -37t56.5 -14t60 15t43.5 40t26 56t8.5 61q0 51 -23 83.5t-70 32.5h-66l15 64h64q46 0 78.5 21t50 55t17.5 74q0 50 -25.5 76t-71.5 26q-50 0 -86 -34.5t-53 -105.5h-77
q24 103 82.5 155t138.5 52q53 0 91.5 -19.5t59.5 -55.5t21 -86q0 -43 -15 -81t-43 -66.5t-65 -42.5t-80 -9l-1 21q65 -9 102 -52.5t37 -112.5q0 -42 -14 -83t-42 -75.5t-69 -55t-95 -20.5z" />
    <glyph glyph-name="four.tf" horiz-adv-x="548" 
d="M277 0l43 185l5 20l90 394l23 -1l-321 -399l-19 30h390l-15 -66h-441l13 56l402 501h72l-166 -720h-76z" />
    <glyph glyph-name="five.tf" horiz-adv-x="548" 
d="M236 -10q-52 0 -88 20t-57.5 52t-28.5 69t-1 71h75q-5 -36 4.5 -69.5t34.5 -54.5t64 -21q32 0 57 14.5t43.5 38.5t31 53t18.5 60t6 58q0 63 -29 93.5t-77 30.5q-36 0 -62.5 -16t-44.5 -44h-59l109 375h322l-15 -66h-272l26 24l-79 -273l-14 11q18 23 46 36.5t67 13.5
q47 0 84 -22t58.5 -64t21.5 -102q0 -39 -10 -79.5t-30 -78t-49 -67t-67 -46.5t-85 -17z" />
    <glyph glyph-name="six.tf" horiz-adv-x="548" 
d="M255 -10q-54 0 -94.5 25t-62.5 74.5t-22 122.5q0 41 7 94t22.5 111.5t40 113.5t58.5 100t78.5 71.5t100.5 26.5q43 0 74.5 -17t51 -45t27 -62t2.5 -69h-76q5 29 -1.5 58t-27.5 48.5t-61 19.5q-44 0 -81.5 -31.5t-67 -96t-51.5 -164.5l-10 -48l-11 6q16 38 42.5 64.5
t60 41.5t69.5 15q45 0 81.5 -22t58 -63t21.5 -99q0 -47 -14.5 -95.5t-44 -89.5t-72 -65.5t-98.5 -24.5zM259 57q40 0 67.5 22t44.5 55t25 69t8 63q0 40 -14.5 66t-38 39t-52.5 13q-37 0 -65 -19t-46.5 -49.5t-27.5 -65t-9 -64.5q0 -60 31 -94.5t77 -34.5z" />
    <glyph glyph-name="seven.tf" horiz-adv-x="548" 
d="M126 0q34 114 83.5 226.5t121 226.5t171.5 230l15 -29h-353l15 66h405l-12 -54q-140 -174 -226 -336.5t-134 -329.5h-86z" />
    <glyph glyph-name="eight.tf" horiz-adv-x="548" 
d="M241 -10q-53 0 -95.5 22t-67 62.5t-24.5 94.5q0 45 16.5 85.5t45.5 71.5t67 49.5t82 18.5l1 -19q-35 0 -61.5 20t-41.5 52.5t-15 72.5q0 38 14.5 75.5t41.5 67.5t65.5 48.5t86.5 18.5q52 0 91 -20.5t61.5 -57.5t22.5 -86q0 -36 -13.5 -71.5t-38 -65t-60 -47.5t-80.5 -18
l1 17q37 0 65.5 -21t45 -57t16.5 -80q0 -42 -15.5 -83.5t-44.5 -75t-71 -54t-95 -20.5zM246 57q33 0 59.5 15.5t44.5 40.5t27.5 55.5t9.5 59.5q0 37 -14.5 63t-39 40.5t-55.5 14.5q-35 0 -62 -16t-45 -42t-27.5 -56t-9.5 -59q0 -39 16 -64.5t41.5 -38.5t54.5 -13zM326 409
q29 0 52.5 13.5t40 35.5t25.5 48.5t9 52.5q0 47 -27.5 75.5t-74.5 28.5q-32 0 -55.5 -13.5t-38.5 -35.5t-22.5 -48t-7.5 -50q0 -50 28.5 -78.5t70.5 -28.5z" />
    <glyph glyph-name="nine.tf" horiz-adv-x="548" 
d="M215 -10q-44 0 -76.5 17t-52 47t-26 68.5t0.5 81.5h76q-7 -39 -1.5 -72.5t27.5 -54.5t61 -21q45 0 81.5 32.5t66 100t50.5 169.5l10 48l11 -6q-15 -37 -42 -64t-60 -42t-68 -15q-34 0 -63 12.5t-51 36t-34 56.5t-12 75q0 45 14.5 92t43.5 87.5t71.5 65.5t98.5 25
q53 0 93.5 -25t62.5 -74t22 -121q0 -38 -7 -91t-21.5 -111.5t-39 -115t-58 -102t-77.5 -72.5t-101 -27zM296 344q37 0 64.5 19t46 49t27.5 63.5t9 61.5q0 56 -30 90t-78 34q-38 0 -64.5 -21t-43.5 -53t-25.5 -66.5t-8.5 -61.5q0 -38 14.5 -63.5t38 -38.5t50.5 -13z" />
    <glyph glyph-name="two.tf.ss10" horiz-adv-x="548" 
d="M28 0l19 80q14 57 42.5 100.5t66 77t78.5 61t80.5 54t71 54t50.5 60.5t19 77q0 48 -25 73.5t-69 25.5q-52 0 -91.5 -36.5t-57.5 -110.5h-75q25 106 85 159.5t144 53.5q49 0 87 -18t59.5 -54.5t21.5 -91.5t-20 -96t-54.5 -74t-76 -61.5t-84.5 -56t-81.5 -59t-65.5 -70.5
t-37 -90l-15 8h332l-15 -66h-389z" />
    <glyph glyph-name="colon.case" horiz-adv-x="233" 
d="M40 135l23 97h96l-22 -97h-97zM128 515l23 97h96l-22 -97h-97z" />
    <glyph glyph-name="semicolon.case" horiz-adv-x="234" 
d="M9 -2l9 39q30 11 47.5 33.5t28.5 67.5l29 -3h-82l22 96h96l-21 -94q-14 -58 -44.5 -90.5t-84.5 -48.5zM128 515l23 97h96l-22 -97h-97z" />
    <glyph glyph-name="exclam.case" horiz-adv-x="253" 
d="M86 205l107 515h81l-131 -515h-57zM19 0l23 97h96l-22 -97h-97z" />
    <glyph glyph-name="exclamdown.case" horiz-adv-x="252" 
d="M27 0l131 515h57l-108 -515h-80zM281 720l-22 -97h-97l23 97h96z" />
    <glyph glyph-name="question.case" horiz-adv-x="477" 
d="M198 204q13 57 35.5 97t50 69.5t55.5 53t51 45t37.5 46t14.5 56.5q0 42 -29 67t-80 25q-59 0 -98 -36t-59 -106h-74q18 69 51 115t80.5 70t107.5 24q56 0 95 -19t59.5 -53.5t20.5 -81.5q0 -42 -14.5 -73.5t-39.5 -55.5t-54 -47t-57.5 -49.5t-51 -61.5t-33.5 -85h-68z
M136 0l23 97h97l-23 -97h-97z" />
    <glyph glyph-name="questiondown.case" horiz-adv-x="477" 
d="M184 -9q-55 0 -94.5 18.5t-60 53.5t-20.5 81q0 43 15 74t39.5 55.5t53.5 47.5t57.5 49t51.5 61.5t34 84.5h68q-13 -56 -35.5 -96.5t-50 -70t-55.5 -53t-51 -44.5t-37.5 -45.5t-14.5 -56.5q0 -43 28.5 -68t79.5 -25q59 0 99 36t58 106h74q-16 -67 -49.5 -114t-81.5 -70.5
t-108 -23.5zM389 720l-22 -97h-97l23 97h96z" />
    <glyph glyph-name="bullet.case" horiz-adv-x="622" 
d="M44 146l112 485h485l-112 -485h-485z" />
    <glyph glyph-name="periodcentered.loclCAT" horiz-adv-x="110" 
d="M77 322q-21 0 -35 13.5t-14 34.5q0 18 9 32t23 22t29 8q21 0 35 -14t14 -37q0 -25 -18 -42t-43 -17z" />
    <glyph glyph-name="period.ss01" horiz-adv-x="234" 
d="M62 -9q-21 0 -35 13.5t-14 34.5q0 18 9 32t23 22t29 8q21 0 35 -14t14 -37q0 -25 -18 -42t-43 -17z" />
    <glyph glyph-name="comma.ss01" horiz-adv-x="233" 
d="M-18 -136l9 39q28 9 47.5 31.5t29.5 67.5h23q-7 -4 -14.5 -6.5t-15.5 -2.5q-21 0 -34 12.5t-13 34.5q0 15 7 29t20 22.5t30 8.5q20 0 34 -13t14 -45q0 -34 -17 -72t-47.5 -67.5t-72.5 -38.5z" />
    <glyph glyph-name="colon.ss01" horiz-adv-x="234" 
d="M62 -9q-21 0 -35 13.5t-14 34.5q0 18 9 32t23 22t29 8q21 0 35 -14t14 -37q0 -25 -18 -42t-43 -17zM150 371q-21 0 -35 13.5t-14 34.5q0 18 9 32t23 22t29 8q21 0 35 -14t14 -37q0 -25 -18 -42t-43 -17z" />
    <glyph glyph-name="semicolon.ss01" horiz-adv-x="240" 
d="M-11 -136l9 39q28 9 47.5 31.5t29.5 67.5h23q-7 -4 -14.5 -6.5t-15.5 -2.5q-21 0 -34 12.5t-13 34.5q0 15 7 29t20 22.5t30 8.5q20 0 34 -13t14 -45q0 -34 -17 -72t-47.5 -67.5t-72.5 -38.5zM150 371q-21 0 -35 13.5t-14 34.5q0 18 9 32t23 22t29 8q21 0 35 -14t14 -37
q0 -25 -18 -42t-43 -17z" />
    <glyph glyph-name="ellipsis.ss01" horiz-adv-x="592" 
d="M62 -9q-21 0 -35 13.5t-14 34.5q0 18 9 32t23 22t29 8q21 0 35 -14t14 -37q0 -25 -18 -42t-43 -17zM241 -9q-21 0 -35 13.5t-14 34.5q0 18 9 32t23 22t29 8q21 0 35 -14t14 -37q0 -25 -18 -42t-43 -17zM420 -9q-21 0 -35 13.5t-14 34.5q0 18 9 32t23 22t29 8q21 0 35 -14
t14 -37q0 -25 -18 -42t-43 -17z" />
    <glyph glyph-name="exclam.ss01" horiz-adv-x="253" 
d="M86 205l112 535h81l-137 -535h-56zM72 -9q-21 0 -35 13.5t-14 34.5q0 18 9 32t23 22t29 8q21 0 35 -14t14 -37q0 -25 -18 -42t-43 -17z" />
    <glyph glyph-name="exclamdown.ss01" horiz-adv-x="265" 
d="M-14 -205l129 511h57l-105 -511h-81zM187 520q22 0 35.5 -13.5t13.5 -34.5q0 -18 -8.5 -32t-22 -22t-29.5 -8q-21 0 -35.5 14t-14.5 36q0 26 18.5 43t42.5 17z" />
    <glyph glyph-name="question.ss01" horiz-adv-x="477" 
d="M197 204q14 65 38 109.5t52 75.5t56 54.5t51 45t37.5 45.5t14.5 57q0 47 -30 69.5t-77 22.5q-57 0 -98 -34.5t-61 -107.5h-73q16 68 49.5 114.5t82 70.5t107.5 24q51 0 90 -17t62 -51t23 -85q0 -43 -15 -73.5t-40 -55t-54 -48.5t-58.5 -52.5t-53 -68t-36.5 -95.5h-67z
M189 -9q-21 0 -35 13t-14 35q0 18 9 32t23 22t29 8q21 0 35 -14t14 -37q0 -25 -18 -42t-43 -17z" />
    <glyph glyph-name="questiondown.ss01" horiz-adv-x="476" 
d="M133 -215q-48 0 -87 16.5t-62 50t-23 82.5q0 43 14.5 75t39 57t53.5 48t57.5 49.5t52 61t35.5 81.5h68q-14 -56 -37 -96t-50.5 -68.5t-55.5 -51.5t-51 -44.5t-37 -46.5t-14 -60q0 -44 29.5 -66t75.5 -22q57 0 98 34t61 99h72q-15 -63 -48.5 -107.5t-81.5 -68t-109 -23.5z
M285 520q21 0 34.5 -13.5t13.5 -34.5q0 -18 -8.5 -32t-22 -22t-29.5 -8q-20 0 -34.5 14t-14.5 36q0 26 18.5 43t42.5 17z" />
    <glyph glyph-name="periodcentered.ss01" horiz-adv-x="111" 
d="M77 322q-21 0 -35 13.5t-14 34.5q0 18 9 32t23 22t29 8q21 0 35 -14t14 -37q0 -25 -18 -42t-43 -17z" />
    <glyph glyph-name="bullet.ss01" horiz-adv-x="302" 
d="M168 283q-33 0 -53.5 20.5t-20.5 51.5q0 28 13 49t34 32.5t44 11.5q31 0 52.5 -21t21.5 -54q0 -39 -28 -64.5t-63 -25.5z" />
    <glyph glyph-name="periodcentered.loclCAT.case" horiz-adv-x="97" 
d="M23 355l23 97h96l-22 -97h-97z" />
    <glyph glyph-name="bullet.case.ss01" horiz-adv-x="690" 
d="M342 99q-107 0 -176 67.5t-69 173.5q0 92 43.5 161.5t112.5 109t147 39.5q104 0 175.5 -70.5t71.5 -180.5q0 -129 -91.5 -214.5t-213.5 -85.5z" />
    <glyph glyph-name="periodcentered.loclCAT.case.ss01" horiz-adv-x="111" 
d="M83 346q-21 0 -35 13.5t-14 34.5q0 18 9 32t23 22t29 8q21 0 35 -14t14 -37q0 -25 -18 -42t-43 -17z" />
    <glyph glyph-name="hyphen.case" horiz-adv-x="432" 
d="M87 324l17 72h289l-17 -72h-289z" />
    <glyph glyph-name="endash.case" horiz-adv-x="512" 
d="M88 328l15 64h369l-15 -64h-369z" />
    <glyph glyph-name="emdash.case" horiz-adv-x="760" 
d="M88 328l15 64h617l-15 -64h-617z" />
    <glyph glyph-name="parenleft.case" horiz-adv-x="370" 
d="M191 -40q-52 73 -76.5 149t-24.5 153q0 92 32 181.5t95 170.5t155 146h66q-94 -72 -156.5 -155.5t-93.5 -172.5t-31 -179q0 -78 25 -152t75 -141h-66z" />
    <glyph glyph-name="parenright.case" horiz-adv-x="370" 
d="M227 760q52 -73 76.5 -149t24.5 -153q0 -91 -32 -181t-95 -170.5t-155 -146.5h-67q95 72 157.5 155.5t93.5 173t31 178.5q0 79 -25 153t-75 140h66z" />
    <glyph glyph-name="braceleft.case" horiz-adv-x="370" 
d="M159 -40q-44 0 -70 20.5t-30.5 53.5t12.5 71l64 138q23 48 12 68t-53 20h-42l14 58h42q41 0 59.5 17.5t19.5 69.5l4 155q1 60 40.5 94.5t106.5 34.5h93l-13 -59h-85q-33 0 -53 -19.5t-21 -56.5l-1 -134q0 -41 -10.5 -68t-29 -42.5t-46.5 -22.5q34 -19 43.5 -53.5
t-19.5 -91.5l-58 -120q-17 -35 -5 -54.5t45 -19.5h82l-13 -59h-88z" />
    <glyph glyph-name="braceright.case" horiz-adv-x="370" 
d="M259 760q45 0 70.5 -20.5t30.5 -53.5t-14 -71l-64 -138q-22 -48 -11.5 -68t52.5 -20h42l-13 -58h-42q-41 0 -60 -17.5t-20 -69.5l-3 -155q-2 -60 -41 -94.5t-106 -34.5h-93l13 59h84q33 0 54 19.5t20 56.5l2 134q1 41 10.5 68t28.5 42.5t46 22.5q-34 20 -42.5 54t19.5 91
l58 120q17 35 5 54.5t-46 19.5h-82l14 59h88z" />
    <glyph glyph-name="bracketleft.case" horiz-adv-x="371" 
d="M18 -40l184 800h230l-13 -59h-161l-158 -682h161l-13 -59h-230z" />
    <glyph glyph-name="bracketright.case" horiz-adv-x="371" 
d="M401 760l-184 -800h-230l13 59h161l158 682h-162l14 59h230z" />
    <glyph glyph-name="quotesinglbase.ss01" horiz-adv-x="243" 
d="M-21 -116l9 38q29 6 53 26t34 69h23q-5 -4 -12.5 -6.5t-17.5 -2.5q-23 0 -36.5 14t-13.5 34q0 26 17 43t41 17q22 0 35.5 -12.5t13.5 -42.5q0 -27 -10 -56.5t-28.5 -55.5t-45.5 -43.5t-62 -21.5z" />
    <glyph glyph-name="quotedblbase.ss01" horiz-adv-x="395" 
d="M-21 -116l9 38q29 6 53 26t34 69h23q-5 -4 -12.5 -6.5t-17.5 -2.5q-23 0 -36.5 14t-13.5 34q0 26 17 43t41 17q22 0 35.5 -12.5t13.5 -42.5q0 -27 -10 -56.5t-28.5 -55.5t-45.5 -43.5t-62 -21.5zM132 -116l9 38q29 6 53 26t34 69h23q-5 -4 -12.5 -6.5t-17.5 -2.5
q-23 0 -36.5 14t-13.5 34q0 26 17 43t41 17q22 0 35.5 -12.5t13.5 -42.5q0 -27 -10 -56.5t-28.5 -55.5t-45.5 -43.5t-62 -21.5z" />
    <glyph glyph-name="quotedblleft.ss01" horiz-adv-x="395" 
d="M191 502q-22 0 -35 13t-13 43q0 27 9.5 56t28.5 55.5t46 44t61 21.5l-8 -39q-29 -5 -53 -25.5t-35 -69.5h-23q6 4 14 6.5t16 2.5q24 0 37.5 -13.5t13.5 -34.5q0 -25 -17 -42.5t-42 -17.5zM343 502q-22 0 -35 13t-13 43q0 27 9.5 56t28.5 55.5t46 44t61 21.5l-8 -39
q-29 -5 -53 -25.5t-35 -69.5h-23q6 4 14 6.5t16 2.5q24 0 37.5 -13.5t13.5 -34.5q0 -25 -17 -42.5t-42 -17.5z" />
    <glyph glyph-name="quotedblright.ss01" horiz-adv-x="395" 
d="M125 518l9 38q29 6 53 26t34 69h23q-5 -4 -12.5 -6.5t-17.5 -2.5q-23 0 -36.5 14t-13.5 34q0 26 17 43t41 17q22 0 35.5 -12.5t13.5 -42.5q0 -27 -10 -56.5t-28.5 -55.5t-45.5 -43.5t-62 -21.5zM277 518l9 38q29 6 53 26t34 69h23q-5 -4 -12.5 -6.5t-17.5 -2.5
q-23 0 -36.5 14t-13.5 34q0 26 17 43t41 17q22 0 35.5 -12.5t13.5 -42.5q0 -27 -10 -56.5t-28.5 -55.5t-45.5 -43.5t-62 -21.5z" />
    <glyph glyph-name="quoteleft.ss01" horiz-adv-x="243" 
d="M191 502q-22 0 -35 13t-13 43q0 27 9.5 56t28.5 55.5t46 44t61 21.5l-8 -39q-29 -5 -53 -25.5t-35 -69.5h-23q6 4 14 6.5t16 2.5q24 0 37.5 -13.5t13.5 -34.5q0 -25 -17 -42.5t-42 -17.5z" />
    <glyph glyph-name="quoteright.ss01" horiz-adv-x="233" 
d="M123 518l9 38q29 6 53 26t34 69h23q-5 -4 -12.5 -6.5t-17.5 -2.5q-23 0 -36.5 14t-13.5 34q0 26 17 43t41 17q22 0 35.5 -12.5t13.5 -42.5q0 -27 -10 -56.5t-28.5 -55.5t-45.5 -43.5t-62 -21.5z" />
    <glyph glyph-name="ampersand.ss11" horiz-adv-x="620" 
d="M197 0q-53 0 -91.5 24.5t-58.5 66t-20 90.5q0 46 17.5 85.5t49 70t74 47t92.5 16.5l-2 -21q-38 0 -66 20t-43.5 53.5t-15.5 74.5q0 59 29.5 104.5t82.5 72t123 26.5q34 0 71.5 -6.5t64.5 -21.5l-14 -62q-24 13 -57.5 20t-63.5 7q-55 0 -91 -21t-53.5 -54.5t-17.5 -71.5
q0 -31 12 -56.5t35 -40.5t54 -15h328l-15 -62h-345q-49 0 -87.5 -20t-61 -56t-22.5 -88t27.5 -85.5t82.5 -33.5h187l-14 -63h-191zM350 0l125 542h76l-125 -542h-76z" />
    <glyph glyph-name="cent.ss12" horiz-adv-x="456" 
d="M195 -10q-50 0 -86 23.5t-56 67.5t-20 108q0 52 13 101t36.5 91t55.5 73t70.5 48.5t81.5 17.5q41 0 70.5 -16t48 -43.5t26 -61t2.5 -67.5h-67q4 33 -4 61.5t-27.5 47t-54.5 18.5q-30 0 -56.5 -14.5t-49 -41t-38.5 -60.5t-25 -74.5t-9 -82.5q0 -67 25.5 -101t70.5 -34
q46 0 82 33t53 94h66q-23 -86 -77.5 -137t-130.5 -51zM124 -109l29 124l6 19l101 442l4 21l27 119h60l-27 -120l-6 -20l-103 -443l-2 -17l-29 -125h-60z" />
    <glyph glyph-name="dollar.ss12" horiz-adv-x="502" 
d="M238 -9q-57 0 -99 19t-67.5 52.5t-35.5 77t-5 91.5h71q-3 -33 3 -64.5t22.5 -57t45 -40t69.5 -14.5q62 0 99.5 35.5t37.5 98.5q0 35 -16 62t-49 51l-90 72q-48 33 -72.5 72t-24.5 95q0 55 26.5 98t74 68t111.5 25q50 0 86 -17t57.5 -47t30 -69.5t3.5 -84.5h-71
q5 44 -5 79t-37 55t-73 20q-41 0 -70.5 -15t-45 -41.5t-15.5 -62.5t17.5 -62t51.5 -52l92 -71q46 -33 68.5 -74t22.5 -95q0 -63 -26.5 -108.5t-74.5 -70.5t-112 -25zM146 -109l29 124l6 19l151 656l3 21l28 119h61l-29 -120l-6 -20l-152 -657l-2 -17l-28 -125h-61z" />
    <glyph glyph-name="plus.tf" horiz-adv-x="548" 
d="M216 153l101 437h69l-101 -437h-69zM88 340l14 62h412l-15 -62h-411z" />
    <glyph glyph-name="minus.tf" horiz-adv-x="548" 
d="M88 340l14 62h412l-15 -62h-411z" />
    <glyph glyph-name="multiply.tf" horiz-adv-x="548" 
d="M416 177l-282 351l52 38l282 -351zM112 176l-44 48l421 343l44 -48z" />
    <glyph glyph-name="divide.tf" horiz-adv-x="548" 
d="M88 340l14 62h412l-15 -62h-411zM333 483q-21 0 -35 13.5t-14 34.5q0 26 18.5 44t42.5 18q21 0 35 -14t14 -36q0 -27 -18.5 -43.5t-42.5 -16.5zM257 150q-22 0 -36 14t-14 35q0 26 18.5 43.5t43.5 17.5q21 0 35 -14t14 -35q0 -28 -18.5 -44.5t-42.5 -16.5z" />
    <glyph glyph-name="equal.tf" horiz-adv-x="548" 
d="M112 440l14 62h411l-15 -62h-410zM66 240l14 62h410l-14 -62h-410z" />
    <glyph glyph-name="greater.tf" horiz-adv-x="548" 
d="M51 177l16 72l412 139l-5 -26l-350 130l14 63l393 -150l-15 -68z" />
    <glyph glyph-name="less.tf" horiz-adv-x="548" 
d="M489 565l-16 -72l-395 -139l5 26l333 -130l-14 -63l-376 150l15 68z" />
    <glyph glyph-name="percent.tf" horiz-adv-x="548" 
d="M-7 0l550 720h64l-551 -720h-63zM355 -9q-39 0 -65 31.5t-26 89.5q0 32 9 70.5t27.5 74.5t45.5 59t64 23q40 0 66 -31t26 -88q0 -32 -9 -71.5t-27.5 -75t-46 -59t-64.5 -23.5zM360 45q21 0 36 20t25.5 49.5t15.5 59t5 49.5q0 29 -10.5 45t-26.5 16q-21 0 -35.5 -20
t-25 -49t-15 -59t-4.5 -51q0 -28 10 -44t25 -16zM186 382q-40 0 -65.5 32t-25.5 89q0 32 9 71t27.5 74.5t45.5 58.5t64 23q40 0 66 -31t26 -88q0 -31 -9 -70.5t-27.5 -75.5t-46 -59.5t-64.5 -23.5zM191 437q21 0 36 19.5t25.5 49t15 59t4.5 49.5q0 30 -10 45.5t-26 15.5
q-21 0 -36 -19.5t-25 -49t-15 -59.5t-5 -51q0 -28 10 -43.5t26 -15.5z" />
    <glyph glyph-name="perthousand.tf" horiz-adv-x="548" 
d="M68 282l-6 53l471 151l6 -54zM195 -10q-31 0 -54.5 25.5t-23.5 78.5q0 32 9 69t26.5 71.5t43 56t56.5 21.5q32 0 52.5 -25t20.5 -79q0 -32 -8.5 -69.5t-25 -71.5t-41 -55.5t-55.5 -21.5zM198 41q14 0 26 12.5t22 32.5t17 43t11 45.5t4 37.5q0 24 -8 36.5t-22 12.5
q-13 0 -25 -12.5t-22 -33t-17 -44t-11 -45.5t-4 -37q0 -23 7.5 -35.5t21.5 -12.5zM341 -10q-31 0 -51.5 25.5t-20.5 78.5q0 25 5.5 54.5t16 58.5t26 52.5t36.5 38t46 14.5q31 0 54.5 -25t23.5 -79q0 -32 -9 -69.5t-27 -71.5t-43 -55.5t-57 -21.5zM345 41q13 0 25.5 12.5
t22 32.5t17 43t11 45.5t3.5 37.5q0 24 -8 36.5t-21 12.5q-14 0 -26 -12.5t-22 -33t-17 -44t-10.5 -45.5t-3.5 -37q0 -23 7.5 -35.5t21.5 -12.5zM200 408q-32 0 -55.5 25.5t-23.5 78.5q0 32 9.5 69t27 71.5t42.5 56t57 21.5t55.5 -25t23.5 -79q0 -32 -9.5 -69.5t-27.5 -71.5
t-43 -55.5t-56 -21.5zM203 459q14 0 26 12.5t21.5 32.5t17 43.5t11 45.5t3.5 37q0 24 -7.5 36.5t-21.5 12.5t-26 -12.5t-22 -33t-16.5 -44t-10.5 -45.5t-4 -37q0 -23 7.5 -35.5t21.5 -12.5z" />
    <glyph glyph-name="uni030C.alt" horiz-adv-x="0" 
d="M162 503h-45l50 217h71z" />
    <glyph glyph-name="uni0308.ss01" horiz-adv-x="0" 
d="M200 605q-20 0 -33 14t-13 35q0 24 17.5 41t41.5 17q21 0 33.5 -12.5t12.5 -33.5q0 -25 -17.5 -43t-41.5 -18zM407 605q-19 0 -32 14t-13 35q0 24 17.5 41t41.5 17q21 0 33.5 -12.5t12.5 -33.5q0 -25 -17.5 -43t-42.5 -18z" />
    <glyph glyph-name="uni0307.ss01" horiz-adv-x="0" 
d="M199 605q-20 0 -32.5 14t-12.5 35q0 16 8 29t21.5 21t29.5 8q19 0 32 -12.5t13 -33.5q0 -16 -8 -30t-21.5 -22.5t-29.5 -8.5z" />
    <glyph glyph-name="uni0312.ss01" horiz-adv-x="0" 
d="M199 576q-21 0 -34.5 14t-13.5 44q0 25 10 50.5t28 48t42 38.5t53 22l-9 -38q-28 -11 -47 -31t-26 -50h-23q14 9 30 9q20 0 33.5 -13t13.5 -35q0 -25 -16.5 -42t-40.5 -17z" />
    <glyph glyph-name="uni0326.ss01" horiz-adv-x="0" 
d="M-53 -284l8 39q29 10 47.5 30.5t25.5 49.5h23q-14 -9 -30 -9q-20 0 -33.5 13t-13.5 35q0 26 16.5 43t40.5 17q21 0 34.5 -14t13.5 -44q0 -25 -10 -50.5t-28 -48t-42 -38.5t-52 -23z" />
    <glyph glyph-name="dieresis.ss01" horiz-adv-x="434" 
d="M200 605q-20 0 -33 14t-13 35q0 24 17.5 41t41.5 17q21 0 33.5 -12.5t12.5 -33.5q0 -25 -17.5 -43t-41.5 -18zM407 605q-19 0 -32 14t-13 35q0 24 17.5 41t41.5 17q21 0 33.5 -12.5t12.5 -33.5q0 -25 -17.5 -43t-42.5 -18z" />
    <glyph glyph-name="dotaccent.ss01" horiz-adv-x="225" 
d="M199 605q-20 0 -32.5 14t-12.5 35q0 16 8 29t21.5 21t29.5 8q19 0 32 -12.5t13 -33.5q0 -16 -8 -30t-21.5 -22.5t-29.5 -8.5z" />
    </font>
</defs>
</svg>
