<?xml version="1.0" standalone="no"?>
<!DOCTYPE svg PUBLIC "-//W3C//DTD SVG 1.1//EN" "http://www.w3.org/Graphics/SVG/1.1/DTD/svg11.dtd" >
<svg xmlns="http://www.w3.org/2000/svg" xmlns:xlink="http://www.w3.org/1999/xlink" version="1.1">
<metadata>
Created by FontForge 20201107 at Wed Apr 12 12:05:17 2023
 By 
Copyright 2022 The Instrument Sans Project Authors (https://github.com/Instrument/instrument-sans)
</metadata>
<defs>
<font id="InstrumentSansCondensed-SemiBold" horiz-adv-x="469" >
  <font-face 
    font-family="Instrument Sans Condensed SemiBold"
    font-weight="600"
    font-stretch="condensed"
    units-per-em="1000"
    panose-1="0 0 0 0 0 0 0 0 0 0"
    ascent="800"
    descent="-200"
    x-height="510"
    cap-height="720"
    bbox="-60 -317 1628 986"
    underline-thickness="38"
    underline-position="-199"
    unicode-range="U+0020-2212"
  />
<missing-glyph horiz-adv-x="509" 
d="M57 0v720h396v-720h-396zM175 94h160v532h-160v-532z" />
    <glyph glyph-name="f_f_i" unicode="ffi" horiz-adv-x="717" 
d="M71 0v590q0 69 36.5 104.5t99.5 35.5q18 0 29.5 -1.5t21.5 -4.5v-96q-4 2 -11.5 3t-16.5 1q-21 0 -32.5 -12t-11.5 -35v-585h-115zM311 0v590q0 69 36.5 104.5t99.5 35.5q16 0 27 -1.5t21 -4.5v-96q-5 2 -11.5 3t-14.5 1q-21 0 -32 -11.5t-11 -35.5v-585h-115zM549 0v510
h115v-510h-115zM11 419v91h579v-91h-579zM550 596v124h121v-124h-121z" />
    <glyph glyph-name="f_f_l" unicode="ffl" horiz-adv-x="715" 
d="M311 0v580q0 69 37.5 104.5t105.5 35.5h140v-98h-118q-26 0 -38 -14t-12 -39v-569h-115zM71 0v580q0 69 37.5 104.5t105.5 35.5q18 0 29.5 -1.5t21.5 -4.5v-96q-5 2 -12.5 3t-16.5 1q-26 0 -38 -14t-12 -39v-569h-115zM11 412v98h479v-98h-479zM549 0v720h115v-720h-115z
" />
    <glyph glyph-name="f_i" unicode="fi" horiz-adv-x="466" 
d="M71 0v590q0 69 36.5 104.5t99.5 35.5q16 0 27 -1.5t21 -4.5v-96q-5 2 -11.5 3t-14.5 1q-21 0 -32 -11.5t-11 -35.5v-585h-115zM309 0v510h115v-510h-115zM11 412v98h339v-98h-339zM310 596v124h121v-124h-121z" />
    <glyph glyph-name="f_l" unicode="fl" horiz-adv-x="475" 
d="M71 0v580q0 70 37.5 105t105.5 35h140v-98h-118q-26 0 -38 -14t-12 -39v-569h-115zM11 412v98h239v-98h-239zM309 0v720h115v-720h-115z" />
    <glyph glyph-name="w_w_w.liga" unicode="www" horiz-adv-x="1654" 
d="M139 0l-113 510h113l67 -383h-11l77 383h107l78 -383h-11l77 383h108l78 -383h-11l77 383h107l78 -383h-10l77 383h107l78 -383h-11l77 383h108l78 -383h-11l65 383h110l-114 -510h-115l-75 377h12l-73 -377h-116l-74 377h12l-74 -377h-115l-75 377h12l-74 -377h-115
l-75 377h12l-73 -377h-116l-74 377h12l-75 -377h-116z" />
    <glyph glyph-name="hyphen_greater.liga" unicode="&#x2d;&#x3e;" horiz-adv-x="650" 
d="M60 410h487l-42 -42l-322 322h138l328 -330l-328 -330h-138l322 322l42 -42h-487v100z" />
    <glyph glyph-name="less_hyphen.liga" unicode="&#x3c;&#x2d;" horiz-adv-x="650" 
d="M649 310h-488l43 42l321 -322h-137l-328 330l328 330h137l-321 -322l-43 42h488v-100z" />
    <glyph glyph-name=".notdef" horiz-adv-x="509" 
d="M57 0v720h396v-720h-396zM175 94h160v532h-160v-532z" />
    <glyph glyph-name=".null" horiz-adv-x="0" 
 />
    <glyph glyph-name="nonmarkingreturn" horiz-adv-x="333" 
 />
    <glyph glyph-name="space" unicode=" " horiz-adv-x="143" 
 />
    <glyph glyph-name="exclam" unicode="!" horiz-adv-x="249" 
d="M79 236l-19 504h129l-18 -504h-92zM57 0v136h135v-136h-135z" />
    <glyph glyph-name="quotedbl" unicode="&#x22;" horiz-adv-x="391" 
d="M87 463l-28 115q-9 39 -13.5 63.5t-4.5 44.5q0 17 6.5 31t20.5 23.5t36 9.5t36 -9.5t20.5 -23.5t6.5 -31q0 -20 -4.5 -44.5t-13.5 -63.5l-28 -115h-34zM270 463l-28 115q-9 39 -13.5 63.5t-4.5 44.5q0 17 6.5 31t20.5 23.5t36 9.5t36 -9.5t20.5 -23.5t6.5 -31
q0 -20 -4.5 -44.5t-13.5 -63.5l-28 -115h-34z" />
    <glyph glyph-name="numbersign" unicode="#" horiz-adv-x="484" 
d="M44 0l100 720h100l-100 -720h-100zM240 0l100 720h100l-100 -720h-100zM40 509h429v-94h-429v94zM15 315h429v-94h-429v94z" />
    <glyph glyph-name="dollar" unicode="$" horiz-adv-x="437" 
d="M181 696v134h93v-134h-93zM274 20v-129h-93v129h93zM228 -10q-98 0 -149.5 63.5t-51.5 176.5h111q0 -70 25.5 -108t69.5 -38q33 0 52 21t19 61q0 33 -16 63t-53 58l-81 63q-53 42 -79 92t-26 108q0 57 22 97.5t62 61.5t96 21q88 0 134.5 -55.5t46.5 -160.5h-109
q0 64 -19 93t-56 29q-30 0 -47.5 -18.5t-17.5 -55.5q0 -34 16.5 -61.5t51.5 -55.5l80 -63q57 -44 81.5 -96.5t24.5 -111.5q0 -87 -50.5 -135.5t-136.5 -48.5z" />
    <glyph glyph-name="percent" unicode="%" horiz-adv-x="621" 
d="M48 0l444 720h85l-444 -720h-85zM458 -10q-36 0 -65.5 19t-47 58t-17.5 98t17.5 97.5t47 57.5t65.5 19q37 0 66.5 -19t47 -57.5t17.5 -97.5t-18 -98t-47.5 -58t-65.5 -19zM458 63q27 0 43 26.5t16 76.5q0 49 -16 74.5t-43 25.5t-43 -25.5t-16 -74.5q0 -51 16 -77t43 -26z
M162 381q-36 0 -65.5 19t-47 58t-17.5 98t17.5 97.5t46.5 57.5t66 19t66 -19t46.5 -57.5t17.5 -97.5t-17.5 -98t-47 -58t-65.5 -19zM162 454q27 0 43 26.5t16 76.5q0 49 -16 74.5t-43 25.5q-28 0 -43.5 -26t-15.5 -74q0 -50 16 -76.5t43 -26.5z" />
    <glyph glyph-name="ampersand" unicode="&#x26;" horiz-adv-x="581" 
d="M445 0l-291 421q-22 33 -35.5 58.5t-19.5 48.5t-6 46q0 46 22 81t61 55t90 20q50 0 88 -19t59.5 -53t21.5 -79q0 -60 -42 -110.5t-132 -95.5l-34 77q55 29 80.5 59t25.5 65q0 32 -17.5 49.5t-49.5 17.5q-31 0 -49 -17.5t-18 -47.5q0 -16 4.5 -32t14 -34t24.5 -39
l331 -471h-128zM242 -10q-65 0 -114.5 25t-77 70t-27.5 106q0 74 45.5 134.5t132.5 107.5l52 -70q-41 -23 -68 -46.5t-39.5 -51.5t-12.5 -62q0 -60 33 -91.5t87 -31.5q41 0 75.5 19t59.5 57t38.5 96t13.5 136h103q0 -81 -16 -145.5t-45 -112t-67.5 -78.5t-82.5 -46.5
t-90 -15.5z" />
    <glyph glyph-name="quotesingle" unicode="'" horiz-adv-x="208" 
d="M87 463l-28 115q-9 39 -13.5 63.5t-4.5 44.5q0 17 6.5 31t20.5 23.5t36 9.5t36 -9.5t20.5 -23.5t6.5 -31q0 -20 -4.5 -44.5t-13.5 -63.5l-28 -115h-34z" />
    <glyph glyph-name="parenleft" unicode="(" horiz-adv-x="363" 
d="M225 -110q-81 101 -121.5 208t-40.5 222q0 113 41 221t121 209h104q-77 -101 -117.5 -209t-40.5 -221q0 -115 40 -222t118 -208h-104z" />
    <glyph glyph-name="parenright" unicode=")" horiz-adv-x="363" 
d="M137 750q82 -100 122 -207.5t40 -222.5q0 -113 -40 -221t-122 -209h-104q78 101 118 209t40 221q0 115 -39.5 222.5t-118.5 207.5h104z" />
    <glyph glyph-name="asterisk" unicode="*" horiz-adv-x="395" 
d="M147 420l24 114l-88 -78l-50 88l111 36l-111 36l50 88l88 -78l-24 114h100l-23 -114l87 78l50 -88l-111 -36l111 -36l-50 -88l-87 78l23 -114h-100z" />
    <glyph glyph-name="plus" unicode="+" horiz-adv-x="544" 
d="M229 140v463h88v-463h-88zM53 329v84h438v-84h-438z" />
    <glyph glyph-name="comma" unicode="," horiz-adv-x="232" 
d="M48 -150v59q40 12 54.5 36t14.5 65l45 -10h-114v136h136v-100q0 -68 -33.5 -117.5t-102.5 -68.5z" />
    <glyph glyph-name="hyphen" unicode="-" horiz-adv-x="357" 
d="M51 221v102h256v-102h-256z" />
    <glyph glyph-name="period" unicode="." horiz-adv-x="232" 
d="M48 0v136h136v-136h-136z" />
    <glyph glyph-name="slash" unicode="/" horiz-adv-x="292" 
d="M38 -73l118 836h98l-118 -836h-98z" />
    <glyph glyph-name="zero" unicode="0" horiz-adv-x="484" 
d="M242 -10q-63 0 -110 39t-73 121.5t-26 212.5q0 128 25.5 209.5t72.5 119.5t110 38q65 0 112 -38t72.5 -119.5t25.5 -210.5q0 -130 -26 -212t-72.5 -121t-110.5 -39zM241 84q27 0 47 26t32 87.5t12 166.5q0 104 -11.5 163t-32 84t-47.5 25q-26 0 -46 -24.5t-31.5 -83.5
t-11.5 -164t11.5 -166.5t31.5 -87.5t46 -26z" />
    <glyph glyph-name="one" unicode="1" horiz-adv-x="330" 
d="M159 0v646l25 -42q-15 -30 -40.5 -55t-58.5 -41.5t-68 -23.5v119q40 9 72.5 26t57.5 40t42 51h84v-720h-114z" />
    <glyph glyph-name="two" unicode="2" horiz-adv-x="419" 
d="M37 0v80q59 81 103.5 149t74 124.5t44 103.5t14.5 87q0 47 -16 70t-49 23q-39 0 -59 -31t-20 -92h-108q0 101 52 158.5t141 57.5q82 0 129 -48.5t47 -133.5q0 -45 -16.5 -98t-47.5 -114.5t-76 -131t-103 -148.5l-21 35h273v-91h-362z" />
    <glyph glyph-name="three" unicode="3" horiz-adv-x="436" 
d="M217 -10q-61 0 -104.5 27.5t-66.5 80t-23 127.5h109q0 -73 21 -107.5t62 -34.5q37 0 58 29t21 85q0 62 -23 97.5t-72 35.5h-49v91h47q44 0 65 32t21 86q0 49 -18 73.5t-52 24.5q-36 0 -55 -29.5t-19 -93.5h-109q0 67 23.5 115.5t67 74.5t100.5 26q53 0 92.5 -22.5
t62 -63.5t22.5 -98q0 -51 -19 -91t-51 -63t-73 -23l-2 21q46 0 81.5 -25t56 -69.5t20.5 -102.5q0 -61 -24 -107t-67.5 -71t-102.5 -25z" />
    <glyph glyph-name="four" unicode="4" horiz-adv-x="436" 
d="M242 0v180l6 20v378l35 -1l-172 -366l-11 20h323v-91h-410v87l231 493h112v-720h-114z" />
    <glyph glyph-name="five" unicode="5" horiz-adv-x="446" 
d="M223 -10q-92 0 -142 60t-50 166h108q0 -67 22 -100t61 -33q37 0 58 34.5t21 114.5q0 81 -19.5 116t-59.5 35q-29 0 -48 -15t-26 -45h-91l16 397h316v-91h-260l51 49l-10 -257l-26 -4q12 23 38 38.5t67 15.5q54 0 92 -28t58.5 -80.5t20.5 -126.5q0 -81 -24 -135.5
t-68 -82.5t-105 -28z" />
    <glyph glyph-name="six" unicode="6" horiz-adv-x="462" 
d="M240 -10q-100 0 -153.5 88t-53.5 269q0 129 24 213.5t72.5 127t120.5 42.5q81 0 126.5 -51t48.5 -145h-108q-3 53 -21.5 78t-50.5 25q-50 0 -72 -66t-22 -217v-26l-26 7q9 40 28 65.5t47 38.5t64 13q53 0 91 -27t59 -77t21 -120q0 -74 -24.5 -127.5t-68 -82t-102.5 -28.5
zM236 83q38 0 59.5 35.5t21.5 107.5q0 73 -21.5 108t-60.5 35t-61 -34.5t-22 -105.5q0 -48 10.5 -80.5t29.5 -49t44 -16.5z" />
    <glyph glyph-name="seven" unicode="7" horiz-adv-x="407" 
d="M105 0q11 186 57.5 348.5t136.5 303.5l56 -23h-342v91h381v-85q-51 -92 -86.5 -192t-56.5 -210.5t-28 -232.5h-118z" />
    <glyph glyph-name="eight" unicode="8" horiz-adv-x="450" 
d="M225 -10q-59 0 -104 25.5t-69.5 72t-24.5 108.5q0 55 20 99t54 69.5t76 25.5l7 -21q-42 0 -74.5 22t-50.5 60.5t-18 89.5q0 57 23 99.5t64.5 66t96.5 23.5t96.5 -23.5t64.5 -66t23 -99.5q0 -51 -18 -89.5t-50 -60.5t-75 -22l7 21q42 0 76.5 -25.5t54 -69.5t19.5 -99
q0 -62 -24.5 -108.5t-69 -72t-104.5 -25.5zM225 83q38 0 59.5 32.5t21.5 90.5t-21.5 91.5t-59.5 33.5t-59.5 -33.5t-21.5 -91.5q0 -59 21.5 -91t59.5 -32zM225 420q32 0 50.5 29.5t18.5 79.5q0 52 -18.5 80t-51.5 28q-31 0 -49.5 -28t-18.5 -80q0 -50 19 -79.5t50 -29.5z
" />
    <glyph glyph-name="nine" unicode="9" horiz-adv-x="462" 
d="M222 -10q-51 0 -92 24.5t-66 72.5t-27 119h109q2 -68 25.5 -95.5t54.5 -27.5q23 0 39 12.5t26.5 43.5t15 86t4.5 141v26l26 5q-8 -40 -27.5 -66t-47.5 -39t-64 -13q-52 0 -90.5 27t-59.5 76t-21 116q0 71 24 123t68.5 80.5t106.5 28.5q105 0 154 -90t49 -271
q0 -138 -22 -221.5t-67 -120.5t-118 -37zM227 362q39 0 61 33t22 102q0 45 -10 76.5t-29 47.5t-45 16q-39 0 -60 -34.5t-21 -102.5q0 -69 21 -103.5t61 -34.5z" />
    <glyph glyph-name="colon" unicode=":" horiz-adv-x="232" 
d="M48 0v136h136v-136h-136zM48 351v136h136v-136h-136z" />
    <glyph glyph-name="semicolon" unicode=";" horiz-adv-x="232" 
d="M48 -150v59q40 12 54.5 36t14.5 65l45 -10h-114v136h136v-100q0 -68 -33.5 -117.5t-102.5 -68.5zM48 351v136h136v-136h-136z" />
    <glyph glyph-name="less" unicode="&#x3c;" horiz-adv-x="544" 
d="M491 567v-91l-343 -116v23l343 -114v-90l-438 150v84z" />
    <glyph glyph-name="equal" unicode="=" horiz-adv-x="544" 
d="M53 429v84h438v-84h-438zM53 229v84h438v-84h-438z" />
    <glyph glyph-name="greater" unicode="&#x3e;" horiz-adv-x="544" 
d="M53 175v91l343 116v-23l-343 114v90l438 -150v-84z" />
    <glyph glyph-name="question" unicode="?" horiz-adv-x="411" 
d="M149 236q0 54 9 93.5t22.5 69t28.5 52.5t28.5 43t22.5 41.5t9 48.5q0 36 -14.5 54.5t-43.5 18.5q-34 0 -52 -25.5t-18 -80.5h-108q0 63 22.5 107.5t64 68t96.5 23.5q53 0 91 -21t58 -58t20 -86q0 -36 -9 -63.5t-24 -51t-31.5 -46t-31.5 -49t-24 -60t-9 -79.5h-107zM134 0
v136h136v-136h-136z" />
    <glyph glyph-name="at" unicode="@" horiz-adv-x="768" 
d="M385 -10q-107 0 -186.5 41.5t-122.5 117t-43 177.5q0 84 29 157.5t82 129t126.5 86.5t162.5 31q92 0 159.5 -36t105 -101t37.5 -154q0 -59 -17 -111t-47 -92t-68 -62.5t-79 -22.5q-29 0 -53 11.5t-37.5 34t-11.5 53.5l20 -4q-32 -55 -66 -74.5t-65 -19.5q-45 0 -76 33
t-31 100q0 48 14 98.5t39 93t58 69t74 26.5t62.5 -28.5t21.5 -76.5h-11l22 88h91l-74 -275q-6 -24 1 -38.5t28 -14.5q23 0 45.5 16t40 43.5t28 64t10.5 77.5q0 69 -26.5 119.5t-76.5 78.5t-122 28q-71 0 -129 -24.5t-99 -69t-64 -104t-23 -129.5q0 -81 32 -140t93 -92
t145 -33q53 0 101.5 13t85.5 31l27 -63q-40 -24 -95 -38.5t-118 -14.5zM341 231q24 0 43.5 20.5t33.5 52t21.5 64.5t7.5 59q0 32 -12 48.5t-32 16.5q-23 0 -42.5 -19.5t-33 -50t-21.5 -64t-8 -60.5q0 -34 11.5 -50.5t31.5 -16.5z" />
    <glyph glyph-name="A" unicode="A" horiz-adv-x="476" 
d="M16 0l146 720h88l-124 -720h-110zM341 0l-123 720h96l146 -720h-119zM109 268h258v-93h-258v93z" />
    <glyph glyph-name="B" unicode="B" horiz-adv-x="458" 
d="M147 0v90h73q43 0 67.5 31t24.5 86q0 60 -26 93t-71 33h-68v88h64q42 0 65 26t23 78t-22 78.5t-63 26.5h-67v90h85q81 0 132 -49t51 -133q0 -53 -19.5 -91t-52 -58t-74.5 -20v21q46 0 82 -24t57.5 -67.5t21.5 -102.5t-24 -103.5t-66.5 -68.5t-99.5 -24h-93zM57 0v720h118
v-720h-118z" />
    <glyph glyph-name="C" unicode="C" horiz-adv-x="489" 
d="M253 -10q-52 0 -93.5 24.5t-69.5 71.5t-42.5 116t-14.5 159q0 89 15 158t43 116t69.5 71t94.5 24q65 0 110.5 -34t69.5 -98.5t24 -155.5h-117q0 98 -22.5 145t-66.5 47q-33 0 -55.5 -27.5t-33.5 -87t-11 -155.5q0 -97 11.5 -158.5t34 -90.5t55.5 -29q42 0 64.5 48.5
t22.5 143.5h118q0 -90 -24.5 -154.5t-70.5 -99t-111 -34.5z" />
    <glyph glyph-name="D" unicode="D" horiz-adv-x="519" 
d="M125 0v94h101q48 0 79 28.5t46 88.5t15 153q0 92 -15 149.5t-45.5 85t-79.5 27.5h-95v94h95q81 0 139.5 -40.5t89.5 -120.5t31 -197t-31.5 -198t-89.5 -122.5t-138 -41.5h-102zM57 0v720h118v-720h-118z" />
    <glyph glyph-name="E" unicode="E" horiz-adv-x="418" 
d="M57 0v720h118v-720h-118zM119 0v94h257v-94h-257zM119 326v93h238v-93h-238zM119 626v94h249v-94h-249z" />
    <glyph glyph-name="F" unicode="F" horiz-adv-x="387" 
d="M57 0v720h118v-720h-118zM119 295v94h222v-94h-222zM119 626v94h233v-94h-233z" />
    <glyph glyph-name="G" unicode="G" horiz-adv-x="502" 
d="M269 -10q-78 0 -131 40t-79 120t-26 201q0 123 26.5 207t77.5 128t125 44q63 0 107 -30.5t67 -88t23 -139.5h-117q0 84 -20.5 123t-62.5 39q-36 0 -59.5 -29.5t-35 -91t-11.5 -157.5q0 -98 13 -157.5t40.5 -86t71.5 -26.5q21 0 36.5 5.5t26.5 16.5l118 -31
q-28 -41 -78.5 -64t-111.5 -23zM341 75v250l31 -31h-117v94h204v-311z" />
    <glyph glyph-name="H" unicode="H" horiz-adv-x="509" 
d="M57 0v720h118v-720h-118zM335 0v720h118v-720h-118zM119 422h271v-94h-271v94z" />
    <glyph glyph-name="I" unicode="I" horiz-adv-x="231" 
d="M57 0v720h118v-720h-118z" />
    <glyph glyph-name="J" unicode="J" horiz-adv-x="304" 
d="M86 -10q-27 0 -45.5 3.5t-30.5 9.5v92q9 -4 23.5 -6.5t28.5 -2.5q34 0 53 13.5t19 43.5v577h118v-592q0 -74 -46.5 -106t-119.5 -32z" />
    <glyph glyph-name="K" unicode="K" horiz-adv-x="491" 
d="M57 0v720h118v-720h-118zM161 374l173 346h124l-180 -346h-117zM348 0l-191 374h121l200 -374h-130z" />
    <glyph glyph-name="L" unicode="L" horiz-adv-x="385" 
d="M57 0v720h118v-720h-118zM119 0v94h231v-94h-231z" />
    <glyph glyph-name="M" unicode="M" horiz-adv-x="693" 
d="M57 0v720h167l160 -676h-74l158 676h168v-720h-115v622l15 -1l-145 -621h-96l-146 621l15 1v-622h-107z" />
    <glyph glyph-name="N" unicode="N" horiz-adv-x="514" 
d="M57 0v720h140l179 -613l-27 -2v615h109v-720h-141l-178 613l26 2v-615h-108z" />
    <glyph glyph-name="O" unicode="O" horiz-adv-x="524" 
d="M262 -10q-55 0 -97.5 24.5t-71.5 72t-44.5 117t-15.5 159.5q0 118 26.5 200t77.5 124.5t124 42.5q75 0 126 -42.5t77.5 -124.5t26.5 -201q0 -90 -15.5 -159t-44.5 -116.5t-71.5 -72t-97.5 -24.5zM261 86q37 0 61.5 30.5t36.5 92t12 155.5q0 93 -12 152.5t-36.5 88.5
t-61.5 29q-36 0 -60.5 -29t-36 -88.5t-11.5 -152.5q0 -94 12 -155.5t36 -92t60 -30.5z" />
    <glyph glyph-name="P" unicode="P" horiz-adv-x="457" 
d="M57 0v720h166q65 0 112.5 -27t73 -76.5t25.5 -117.5q0 -67 -25 -116t-72.5 -76t-113.5 -27h-77v94h74q47 0 71.5 32t24.5 94q0 63 -24.5 94.5t-71.5 31.5h-45v-626h-118z" />
    <glyph glyph-name="Q" unicode="Q" horiz-adv-x="531" 
d="M275 -10q-82 0 -136 43t-80 126.5t-26 203.5q0 118 26.5 200t77.5 124.5t124 42.5q75 0 126 -42.5t77.5 -124.5t26.5 -201q0 -80 -14 -144.5t-46 -109t-87 -67.5zM261 86q37 0 61.5 30.5t36.5 92t12 155.5q0 93 -12 152.5t-36.5 88.5t-61.5 29q-36 0 -60.5 -29t-36 -88.5
t-11.5 -152.5q0 -94 12 -155.5t36 -92t60 -30.5zM275 -10l-13 77l250 27v-94q-36 0 -66.5 -1.5t-58.5 -3.5t-55.5 -3.5t-56.5 -1.5z" />
    <glyph glyph-name="R" unicode="R" horiz-adv-x="457" 
d="M57 0v720h166q61 0 106 -26.5t70 -73.5t25 -108t-24.5 -107.5t-70 -73t-106.5 -26.5h-77v89h71q42 0 67 32t25 85q0 52 -25 83.5t-67 31.5h-42v-626h-118zM322 0l-173 374h116l187 -374h-130z" />
    <glyph glyph-name="S" unicode="S" horiz-adv-x="441" 
d="M228 -10q-98 0 -149.5 63.5t-51.5 176.5h111q0 -70 25.5 -108t69.5 -38q33 0 52 21t19 61q0 33 -16 63t-53 58l-81 63q-53 42 -79 92t-26 108q0 57 22 97.5t62 61.5t96 21q88 0 134.5 -55.5t46.5 -160.5h-109q0 64 -19 93t-56 29q-30 0 -47.5 -18.5t-17.5 -55.5
q0 -34 16.5 -61.5t51.5 -55.5l80 -63q57 -44 81.5 -96.5t24.5 -111.5q0 -87 -50.5 -135.5t-136.5 -48.5z" />
    <glyph glyph-name="T" unicode="T" horiz-adv-x="425" 
d="M153 0v626h-140v94h398v-94h-140v-626h-118z" />
    <glyph glyph-name="U" unicode="U" horiz-adv-x="491" 
d="M245 -10q-94 0 -143.5 57t-49.5 154v519h118v-543q0 -46 20 -68.5t55 -22.5q36 0 56 22t20 69v543h118v-519q0 -97 -49.5 -154t-144.5 -57z" />
    <glyph glyph-name="V" unicode="V" horiz-adv-x="476" 
d="M162 0l-146 720h119l111 -637h-7l110 637h111l-146 -720h-152z" />
    <glyph glyph-name="W" unicode="W" horiz-adv-x="660" 
d="M117 0l-91 720h112l66 -670h-14l79 670h126l80 -670h-15l67 670h107l-91 -720h-146l-77 667h21l-78 -667h-146z" />
    <glyph glyph-name="X" unicode="X" horiz-adv-x="461" 
d="M325 0l-130 328l-167 392h124l118 -297l180 -423h-125zM220 436l112 284h114l-181 -424zM245 296l-120 -296h-114l189 437z" />
    <glyph glyph-name="Y" unicode="Y" horiz-adv-x="488" 
d="M185 0v316l-176 404h130l141 -363h-55l139 363h115l-176 -404v-316h-118z" />
    <glyph glyph-name="Z" unicode="Z" horiz-adv-x="453" 
d="M49 0v84l228 564l18 -22h-237v94h346v-71l-236 -577l-19 22h259v-94h-359z" />
    <glyph glyph-name="bracketleft" unicode="[" horiz-adv-x="363" 
d="M73 -108v858h246v-90h-138v-678h138v-90h-246z" />
    <glyph glyph-name="backslash" unicode="\" horiz-adv-x="292" 
d="M38 763h98l118 -836h-98z" />
    <glyph glyph-name="bracketright" unicode="]" horiz-adv-x="363" 
d="M289 750v-858h-246v90h138v678h-138v90h246z" />
    <glyph glyph-name="asciicircum" unicode="^" horiz-adv-x="544" 
d="M179 491h-81l123 249h102l123 -249h-81l-117 208h48z" />
    <glyph glyph-name="underscore" unicode="_" horiz-adv-x="349" 
d="M0 -142v92h349v-92h-349z" />
    <glyph glyph-name="grave" unicode="`" horiz-adv-x="354" 
d="M183 583l-123 157h141l72 -157h-90z" />
    <glyph glyph-name="a" unicode="a" horiz-adv-x="408" 
d="M267 0q-6 18 -8.5 39.5t-2.5 45.5h-5v281q0 35 -12.5 51t-36.5 16q-27 0 -41 -20t-14 -55h-101q0 71 44 116.5t121 45.5q72 0 111.5 -40t39.5 -113v-282q0 -21 2 -42.5t8 -42.5h-105zM145 -10q-48 0 -79 35t-31 95q0 54 25.5 91.5t88.5 68.5l129 65v-88l-70 -37
q-33 -17 -48 -38.5t-15 -49.5q0 -27 13.5 -41t35.5 -14q25 0 41 17.5t16 44.5l10 -63q-15 -44 -45 -65t-71 -21z" />
    <glyph glyph-name="b" unicode="b" 
d="M276 -10q-44 0 -80.5 29t-44.5 84l6 2v-105h-106v720h114v-310l-7 3q10 52 46 79.5t80 27.5q49 0 83.5 -31t53 -88.5t18.5 -138.5q0 -84 -20 -145t-56.5 -94t-86.5 -33zM241 84q39 0 59.5 42.5t20.5 129.5q0 88 -20.5 129t-59.5 41t-60 -42.5t-21 -129.5t21 -128.5
t60 -41.5z" />
    <glyph glyph-name="c" unicode="c" horiz-adv-x="407" 
d="M210 -10q-54 0 -95.5 31t-65 90.5t-23.5 144.5q0 86 24.5 144.5t67.5 89t97 30.5q50 0 88 -23.5t59.5 -69.5t21.5 -114h-103q0 62 -17 88.5t-46 26.5q-22 0 -39 -16t-26.5 -53.5t-9.5 -101.5q0 -65 9.5 -103.5t26 -55t37.5 -16.5q29 0 47 27.5t18 87.5h103
q0 -67 -23 -113t-62.5 -70t-88.5 -24z" />
    <glyph glyph-name="d" unicode="d" 
d="M308 0v100l8 -3q-11 -52 -47 -79.5t-83 -27.5q-49 0 -84 31t-54 88.5t-19 138.5q0 85 20 145.5t56.5 93.5t86.5 33q45 0 81.5 -29t44.5 -84l-15 -2v315h115v-720h-110zM228 84q39 0 60 42.5t21 129.5q0 88 -21 129t-60 41t-60 -42.5t-21 -129.5t21 -128.5t60 -41.5z" />
    <glyph glyph-name="e" unicode="e" horiz-adv-x="427" 
d="M218 -10q-58 0 -101.5 33t-67 92.5t-23.5 140.5q0 82 24.5 141t69.5 91t106 32q57 0 95.5 -29t59 -85.5t20.5 -139.5v-20.5t-2 -18.5h-302v79h232l-28 -34q-1 86 -20 123.5t-57 37.5q-40 0 -61 -43t-21 -134t20 -135t60 -44q31 0 48 22t22 63h102q-11 -76 -55 -124
t-121 -48z" />
    <glyph glyph-name="f" unicode="f" horiz-adv-x="285" 
d="M71 0v590q0 69 38 104.5t111 35.5q18 0 30 -1.5t22 -4.5v-89q-5 2 -12.5 3t-16.5 1q-29 0 -43 -14t-14 -40v-585h-115zM11 419v91h255v-91h-255z" />
    <glyph glyph-name="g" unicode="g" 
d="M232 -215q-80 0 -128.5 44t-52.5 117h107q2 -29 21.5 -45.5t50.5 -16.5q35 0 54 21.5t19 61.5v148l7 -1q-6 -49 -39 -79t-81 -30q-49 0 -85 31t-56 88t-20 135q0 81 21 139.5t59 90t90 31.5q50 0 81.5 -29.5t37.5 -82.5h-7v102h107v-521q0 -97 -48.5 -150.5t-137.5 -53.5
zM228 99q39 0 60 41t21 124t-21 122.5t-60 39.5q-38 0 -59.5 -41t-21.5 -124q0 -81 21 -121.5t60 -40.5z" />
    <glyph glyph-name="h" unicode="h" horiz-adv-x="455" 
d="M51 0v720h114v-720h-114zM294 0v364q0 33 -13 47.5t-39 14.5q-24 0 -41.5 -12.5t-26.5 -33t-9 -45.5l-15 79q20 51 56 78.5t87 27.5q54 0 85 -34.5t31 -95.5v-390h-115z" />
    <glyph glyph-name="i" unicode="i" horiz-adv-x="216" 
d="M51 0v510h114v-510h-114zM46 593v127h124v-127h-124z" />
    <glyph glyph-name="j" unicode="j" horiz-adv-x="216" 
d="M32 -215q-18 0 -30 1.5t-22 4.5v89l12.5 -2.5t16.5 -1.5q19 0 30.5 8.5t11.5 28.5v597h114v-605q0 -56 -33.5 -88t-99.5 -32zM46 593v127h124v-127h-124z" />
    <glyph glyph-name="k" unicode="k" horiz-adv-x="426" 
d="M51 0v720h114v-720h-114zM291 0l-137 265l131 245h120l-154 -267l1 46l163 -289h-124z" />
    <glyph glyph-name="l" unicode="l" horiz-adv-x="216" 
d="M51 0v720h114v-720h-114z" />
    <glyph glyph-name="m" unicode="m" horiz-adv-x="679" 
d="M51 0v510h109v-96h5v-414h-114zM284 0v368q0 30 -11.5 44t-34.5 14t-39 -11.5t-25 -32t-9 -47.5l-15 79q20 54 55 80t83 26q51 0 81 -34.5t30 -95.5v-390h-115zM517 0v368q0 30 -11.5 44t-34.5 14q-22 0 -38.5 -11.5t-25 -31.5t-8.5 -48l-19 81q22 53 57 78.5t83 25.5
q50 0 81 -34.5t31 -95.5v-390h-115z" />
    <glyph glyph-name="n" unicode="n" horiz-adv-x="455" 
d="M51 0v510h109v-96h5v-414h-114zM294 0v364q0 33 -13 47.5t-39 14.5q-24 0 -41.5 -12.5t-26.5 -33t-9 -45.5l-15 79q20 51 56 78.5t87 27.5q54 0 85 -34.5t31 -95.5v-390h-115z" />
    <glyph glyph-name="o" unicode="o" horiz-adv-x="451" 
d="M225 -10q-60 0 -105.5 33.5t-69.5 94t-24 139.5q0 80 24.5 139t69 91.5t105.5 32.5q62 0 106.5 -32.5t69 -91.5t24.5 -139q0 -79 -24.5 -139.5t-69 -94t-106.5 -33.5zM225 82q26 0 44 18.5t28 57.5t10 99q0 89 -21.5 130t-60.5 41q-38 0 -59.5 -41t-21.5 -130
q0 -60 10 -99t28 -57.5t43 -18.5z" />
    <glyph glyph-name="p" unicode="p" 
d="M276 -10q-44 0 -80.5 29t-44.5 84l14 2v-310h-114v715h109v-100l-7 3q10 52 46.5 79.5t84.5 27.5q49 0 83.5 -31t53 -88.5t18.5 -138.5q0 -84 -20 -145t-56.5 -94t-86.5 -33zM241 84q40 0 60 42.5t20 129.5q0 88 -20 129t-60 41t-60.5 -42.5t-20.5 -129.5t20.5 -128.5
t60.5 -41.5z" />
    <glyph glyph-name="q" unicode="q" 
d="M303 -205v305l13 -3q-11 -52 -47 -79.5t-83 -27.5q-49 0 -84 31t-54 88.5t-19 138.5q0 85 20 145.5t57.5 93.5t89.5 33q46 0 80 -29t42 -84l-10 -2v105h110v-715h-115zM228 84q40 0 60.5 42.5t20.5 129.5q0 88 -20.5 129t-60.5 41t-60.5 -42.5t-20.5 -129.5t20.5 -128.5
t60.5 -41.5z" />
    <glyph glyph-name="r" unicode="r" horiz-adv-x="300" 
d="M51 0v510h109v-119h5v-391h-114zM165 303l-16 85q17 70 46 101t70 31q11 0 20 -3v-114q-3 1 -9 1.5t-15 0.5q-44 0 -70 -25t-26 -77z" />
    <glyph glyph-name="s" unicode="s" horiz-adv-x="353" 
d="M183 -10q-74 0 -115 44t-45 123h94q3 -40 21 -60.5t47 -20.5q24 0 37 12.5t13 36.5q0 19 -10 36t-42 37l-59 37q-40 26 -62 61t-22 84q0 62 39 101t103 39q67 0 104.5 -39.5t41.5 -111.5h-94q-3 35 -15.5 50t-33.5 15t-33.5 -12t-12.5 -35q0 -18 10.5 -34.5t38.5 -34.5
l64 -40q37 -23 59.5 -61t22.5 -87q0 -63 -40 -101.5t-111 -38.5z" />
    <glyph glyph-name="t" unicode="t" horiz-adv-x="298" 
d="M219 -10q-72 0 -107 34.5t-35 104.5v477l114 50v-526q0 -25 13.5 -37t42.5 -12q11 0 20.5 2t16.5 6v-88q-10 -6 -27.5 -8.5t-37.5 -2.5zM11 419v91h270v-91h-270z" />
    <glyph glyph-name="u" unicode="u" horiz-adv-x="447" 
d="M160 -10q-34 0 -60 14.5t-39.5 43t-13.5 68.5v394h114v-369q0 -28 13 -42.5t36 -14.5q22 0 38 12.5t25 33t9 43.5l15 -79q-19 -49 -54 -76.5t-83 -27.5zM288 0v95h-6v415h115v-510h-109z" />
    <glyph glyph-name="v" unicode="v" horiz-adv-x="413" 
d="M149 0l-133 510h118l86 -435h-22l85 435h114l-133 -510h-115z" />
    <glyph glyph-name="w" unicode="w" horiz-adv-x="647" 
d="M139 0l-113 510h113l67 -383h-11l77 383h107l78 -383h-11l65 383h110l-113 -510h-116l-74 377h12l-75 -377h-116z" />
    <glyph glyph-name="x" unicode="x" horiz-adv-x="411" 
d="M277 0l-100 223l-148 287h119l89 -203l158 -307h-118zM187 303l92 207h113l-154 -300zM221 201l-92 -201h-113l153 294z" />
    <glyph glyph-name="y" unicode="y" horiz-adv-x="413" 
d="M99 -205l77 287l19 28l89 400h113l-190 -715h-108zM171 -9l-155 519h122l103 -444z" />
    <glyph glyph-name="z" unicode="z" horiz-adv-x="381" 
d="M33 0v81l190 357l16 -19h-197v91h306v-68l-198 -370l-16 19h218v-91h-319z" />
    <glyph glyph-name="braceleft" unicode="{" horiz-adv-x="363" 
d="M224 -109q-51 0 -83 18t-44 51.5t-4 80.5l26 147q9 48 -6 68t-57 20h-33v89h33q42 0 57 20t6 68l-26 148q-8 47 4 80t44 51t83 18h95v-90h-75q-28 0 -42.5 -15t-8.5 -44l23 -128q12 -59 -0.5 -98t-54.5 -54q42 -16 54.5 -55t0.5 -98l-23 -128q-6 -28 8.5 -43.5
t42.5 -15.5h75v-90h-95z" />
    <glyph glyph-name="bar" unicode="|" horiz-adv-x="213" 
d="M57 -130v920h100v-920h-100z" />
    <glyph glyph-name="braceright" unicode="}" horiz-adv-x="363" 
d="M139 750q50 0 82 -18t44.5 -51t3.5 -80l-26 -148q-8 -48 7 -68t57 -20h32v-89h-32q-42 0 -57 -20t-7 -68l26 -147q9 -47 -3.5 -80.5t-44.5 -51.5t-82 -18h-96v90h76q28 0 42.5 15.5t8.5 43.5l-24 128q-11 60 1.5 98.5t53.5 53.5q-41 16 -53.5 55t-1.5 98l24 128
q6 29 -8.5 44t-42.5 15h-76v90h96z" />
    <glyph glyph-name="asciitilde" unicode="~" horiz-adv-x="544" 
d="M358 285q31 0 57 14t42.5 44t18.5 77h-70q-2 -26 -14 -39t-32 -13q-19 0 -38 9t-39.5 21.5t-44 22t-51.5 9.5q-31 0 -56.5 -14t-42 -43.5t-18.5 -77.5h70q2 26 13.5 39t32.5 13q19 0 37.5 -9t38.5 -21.5t43.5 -22t52.5 -9.5z" />
    <glyph glyph-name="uni00A0" unicode="&#xa0;" horiz-adv-x="143" 
 />
    <glyph glyph-name="exclamdown" unicode="&#xa1;" horiz-adv-x="249" 
d="M60 -204l19 478h92l18 -478h-129zM192 510v-136h-135v136h135z" />
    <glyph glyph-name="cent" unicode="&#xa2;" horiz-adv-x="407" 
d="M164 482v134h93v-134h-93zM257 20v-129h-93v129h93zM210 -10q-54 0 -95.5 31t-65 90.5t-23.5 144.5q0 86 24.5 144.5t67.5 89t97 30.5q50 0 88 -23.5t59.5 -69.5t21.5 -114h-103q0 62 -17 88.5t-46 26.5q-22 0 -39 -16t-26.5 -53.5t-9.5 -101.5q0 -65 9.5 -103.5t26 -55
t37.5 -16.5q29 0 47 27.5t18 87.5h103q0 -67 -23 -113t-62.5 -70t-88.5 -24z" />
    <glyph glyph-name="sterling" unicode="&#xa3;" horiz-adv-x="435" 
d="M30 0v101q35 61 48 107.5t13 84.5q0 37 -9 68.5t-21.5 61.5t-21.5 62t-9 71q0 52 22 91t62.5 61t95.5 22q58 0 101 -24.5t67.5 -71.5t24.5 -113h-109q0 55 -20.5 85.5t-56.5 30.5q-34 0 -52 -21t-18 -64q0 -31 7.5 -59.5t18 -57t18.5 -61t8 -71.5q0 -45 -16.5 -102.5
t-59.5 -132.5l-13 33h274v-101h-354zM9 299v85h319v-85h-319z" />
    <glyph glyph-name="yen" unicode="&#xa5;" horiz-adv-x="448" 
d="M165 0v309l-156 411h130l129 -389h-71l127 389h115l-156 -411v-309h-118zM28 252v85h393v-85h-393zM197 385h-169v85h146zM294 470h127v-85h-155z" />
    <glyph glyph-name="section" unicode="&#xa7;" horiz-adv-x="357" 
d="M181 227l2 59q24 0 37 12.5t13 36.5q0 19 -10 36t-42 37l-59 37q-40 26 -62 61t-22 84q0 62 39 101t103 39q67 0 104.5 -39.5t41.5 -111.5h-94q-3 35 -15.5 50t-33.5 15t-33.5 -12t-12.5 -35q0 -18 10.5 -34.5t38.5 -34.5l64 -40q37 -23 59.5 -54t22.5 -79q0 -56 -40 -92
t-111 -36zM179 -30q-67 0 -104.5 39.5t-42.5 112.5h95q2 -35 15 -50.5t34 -15.5t33.5 12.5t12.5 34.5q0 19 -10.5 35.5t-38.5 33.5l-64 40q-37 24 -59.5 54.5t-22.5 78.5q0 54 40 91.5t111 37.5l-3 -60q-23 0 -36.5 -12.5t-13.5 -35.5q0 -20 11 -36.5t42 -37.5l59 -37
q40 -26 61.5 -61t21.5 -84q0 -62 -39 -101t-102 -39z" />
    <glyph glyph-name="dieresis" unicode="&#xa8;" horiz-adv-x="444" 
d="M262 595v125h122v-125h-122zM60 595v125h122v-125h-122z" />
    <glyph glyph-name="copyright" unicode="&#xa9;" horiz-adv-x="817" 
d="M408 -15q-78 0 -146 29t-119.5 80.5t-80.5 119.5t-29 146t29 146t80.5 119.5t119.5 80.5t146 29t146 -29t119.5 -80.5t80.5 -119.5t29 -146t-29 -146t-80.5 -119.5t-119.5 -80.5t-146 -29zM408 41q66 0 123.5 25t101 69t68 102t24.5 123t-24.5 123t-68 102t-101 69
t-123.5 25q-65 0 -122.5 -25t-101 -69t-68.5 -102t-25 -123t25 -123t68.5 -102t101 -69t122.5 -25zM415 140q-62 0 -110 28.5t-75 78.5t-27 114t27 113t75 77.5t109 28.5q77 0 129.5 -45t62.5 -118h-77q-7 45 -38 71t-77 26q-59 0 -95.5 -42t-36.5 -110q0 -70 37 -113
t96 -43q44 0 75 26.5t39 70.5h78q-11 -74 -63.5 -118.5t-128.5 -44.5z" />
    <glyph glyph-name="ordfeminine" unicode="&#xaa;" horiz-adv-x="281" 
d="M173 418q-4 11 -5.5 25t-1.5 26h-2v165q0 16 -6 24.5t-18 8.5q-13 0 -20.5 -9.5t-7.5 -25.5h-71q0 42 27.5 70t75.5 28q45 0 69.5 -24.5t24.5 -70.5v-166q0 -13 2 -26t5 -25h-72zM100 412q-27 0 -46 21t-19 57q0 32 14.5 56t52.5 43l80 41v-64l-49 -27q-11 -5 -17 -13.5
t-6 -22.5q0 -13 6.5 -20.5t18.5 -7.5q13 0 21 7.5t8 19.5l5 -40q-9 -25 -26 -37.5t-43 -12.5z" />
    <glyph glyph-name="guillemotleft" unicode="&#xab;" horiz-adv-x="447" 
d="M140 68l-102 183l102 183h96l-98 -183l98 -183h-96zM303 68l-102 183l102 183h96l-98 -183l98 -183h-96z" />
    <glyph glyph-name="registered" unicode="&#xae;" horiz-adv-x="817" 
d="M408 -15q-78 0 -146 29t-119.5 80.5t-80.5 119.5t-29 146t29 146t80.5 119.5t119.5 80.5t146 29t146 -29t119.5 -80.5t80.5 -119.5t29 -146t-29 -146t-80.5 -119.5t-119.5 -80.5t-146 -29zM408 41q66 0 123.5 25t101 69t68 102t24.5 123t-24.5 123t-68 102t-101 69
t-123.5 25q-65 0 -122.5 -25t-101 -69t-68.5 -102t-25 -123t25 -123t68.5 -102t101 -69t122.5 -25zM252 145v430h185q69 0 108 -31.5t39 -86.5q0 -88 -115 -112l2 16q50 2 78 -23t28 -71v-71q0 -10 1 -22.5t4 -28.5h-79q-2 9 -3 21.5t-1 29.5v51q0 40 -19 60t-58 20h-134v62
h145q35 0 54 16t19 45q0 30 -19 45t-54 15h-104v-365h-77z" />
    <glyph glyph-name="macron" unicode="&#xaf;" horiz-adv-x="411" 
d="M60 630v82h280v-82h-280z" />
    <glyph glyph-name="degree" unicode="&#xb0;" horiz-adv-x="373" 
d="M187 449q-40 0 -73 19.5t-52 52.5t-19 72t19 71.5t52 51.5t73 19q41 0 73 -19t50.5 -51.5t18.5 -71.5t-18.5 -72t-50.5 -52.5t-73 -19.5zM188 502q37 0 62.5 26.5t25.5 64.5q0 37 -25.5 63t-62.5 26q-39 0 -65 -26t-26 -63q0 -38 26 -64.5t65 -26.5z" />
    <glyph glyph-name="acute" unicode="&#xb4;" horiz-adv-x="354" 
d="M150 583h-90l72 157h141z" />
    <glyph glyph-name="paragraph" unicode="&#xb6;" horiz-adv-x="536" 
d="M245 -130v456h-26q-57 0 -101.5 24.5t-69.5 68.5t-25 101q0 59 25 104t70 70.5t104 25.5h257v-850h-88v765h-58v-765h-88z" />
    <glyph glyph-name="periodcentered" unicode="&#xb7;" horiz-adv-x="136" 
d="M0 306v136h136v-136h-136z" />
    <glyph glyph-name="cedilla" unicode="&#xb8;" horiz-adv-x="301" 
d="M163 -215q-46 0 -73.5 24t-29.5 64h65q2 -13 13 -21.5t26 -8.5t24.5 8t9.5 22q0 18 -18 29.5t-57 14.5l17 95h62l-9 -53q35 -10 53.5 -33.5t18.5 -53.5q0 -40 -28.5 -63.5t-73.5 -23.5z" />
    <glyph glyph-name="ordmasculine" unicode="&#xba;" horiz-adv-x="317" 
d="M159 412q-38 0 -66 20t-44 56t-16 84q0 73 34.5 115.5t91.5 42.5t91 -42.5t34 -115.5q0 -72 -34.5 -116t-90.5 -44zM159 483q19 0 29.5 20.5t10.5 68.5q0 47 -10.5 67t-29.5 20q-20 0 -30 -20t-10 -67q0 -48 10 -68.5t30 -20.5z" />
    <glyph glyph-name="guillemotright" unicode="&#xbb;" horiz-adv-x="447" 
d="M307 434l102 -183l-102 -183h-95l98 183l-98 183h95zM144 434l102 -183l-102 -183h-96l98 183l-98 183h96z" />
    <glyph glyph-name="questiondown" unicode="&#xbf;" horiz-adv-x="411" 
d="M195 -215q-52 0 -90 21t-58.5 58.5t-20.5 85.5q0 37 9.5 63.5t24 48t31.5 42t31.5 44t24 54t9.5 72.5h107q0 -50 -9 -86.5t-22.5 -63t-28.5 -46.5t-29 -38.5t-22.5 -38.5t-8.5 -46q0 -35 14.5 -53t41.5 -18q34 0 51 25.5t17 74.5h112q0 -62 -23 -107t-64.5 -68.5
t-96.5 -23.5zM277 510v-135h-136v135h136z" />
    <glyph glyph-name="Agrave" unicode="&#xc0;" horiz-adv-x="476" 
d="M16 0l146 720h88l-124 -720h-110zM341 0l-123 720h96l146 -720h-119zM109 268h258v-93h-258v93zM227 793l-123 157h141l72 -157h-90z" />
    <glyph glyph-name="Aacute" unicode="&#xc1;" horiz-adv-x="476" 
d="M16 0l146 720h88l-124 -720h-110zM341 0l-123 720h96l146 -720h-119zM109 268h258v-93h-258v93zM249 793h-90l72 157h141z" />
    <glyph glyph-name="Acircumflex" unicode="&#xc2;" horiz-adv-x="476" 
d="M16 0l146 720h88l-124 -720h-110zM341 0l-123 720h96l146 -720h-119zM109 268h258v-93h-258v93zM79 793l105 157h106l106 -157h-82l-120 124h86l-119 -124h-82z" />
    <glyph glyph-name="Atilde" unicode="&#xc3;" horiz-adv-x="476" 
d="M16 0l146 720h88l-124 -720h-110zM341 0l-123 720h96l146 -720h-119zM109 268h258v-93h-258v93zM301 811q-25 0 -42.5 7.5t-30 17.5t-25 17.5t-27.5 7.5t-25 -10t-10 -33h-69q0 38 12.5 66.5t36 44.5t55.5 16q26 0 42.5 -7.5t28.5 -17.5t23.5 -17.5t27.5 -7.5
q15 0 25.5 10t10.5 34h68q0 -38 -12.5 -67t-35.5 -45t-53 -16z" />
    <glyph glyph-name="Adieresis" unicode="&#xc4;" horiz-adv-x="476" 
d="M16 0l146 720h88l-124 -720h-110zM341 0l-123 720h96l146 -720h-119zM109 268h258v-93h-258v93zM278 805v125h122v-125h-122zM76 805v125h122v-125h-122z" />
    <glyph glyph-name="Aring" unicode="&#xc5;" horiz-adv-x="476" 
d="M16 0l146 720h88l-124 -720h-110zM341 0l-123 720h96l146 -720h-119zM109 268h258v-93h-258v93zM238 771q-46 0 -77 31.5t-31 76.5q0 44 31 75.5t77 31.5t76.5 -31.5t30.5 -75.5q0 -45 -30.5 -76.5t-76.5 -31.5zM239 830q20 0 32.5 14.5t12.5 34.5t-13 34t-33 14
q-21 0 -34 -14t-13 -34t13 -34.5t35 -14.5z" />
    <glyph glyph-name="AE" unicode="&#xc6;" horiz-adv-x="694" 
d="M16 0l146 720h97l-132 -720h-111zM333 0v720h118v-720h-118zM395 0v94h257v-94h-257zM171 326v93h462v-93h-462zM186 626v94h458v-94h-458z" />
    <glyph glyph-name="Ccedilla" unicode="&#xc7;" horiz-adv-x="489" 
d="M253 -10q-52 0 -93.5 24.5t-69.5 71.5t-42.5 116t-14.5 159q0 89 15 158t43 116t69.5 71t94.5 24q65 0 110.5 -34t69.5 -98.5t24 -155.5h-117q0 98 -22.5 145t-66.5 47q-33 0 -55.5 -27.5t-33.5 -87t-11 -155.5q0 -97 11.5 -158.5t34 -90.5t55.5 -29q42 0 64.5 48.5
t22.5 143.5h118q0 -90 -24.5 -154.5t-70.5 -99t-111 -34.5zM247 -215q-46 0 -73.5 24t-29.5 64h65q2 -13 13 -21.5t26 -8.5t24.5 8t9.5 22q0 18 -18 29.5t-57 14.5l17 95h62l-9 -53q35 -10 53.5 -33.5t18.5 -53.5q0 -40 -28.5 -63.5t-73.5 -23.5z" />
    <glyph glyph-name="Egrave" unicode="&#xc8;" horiz-adv-x="418" 
d="M57 0v720h118v-720h-118zM119 0v94h257v-94h-257zM119 326v93h238v-93h-238zM119 626v94h249v-94h-249zM208 793l-123 157h141l72 -157h-90z" />
    <glyph glyph-name="Eacute" unicode="&#xc9;" horiz-adv-x="418" 
d="M57 0v720h118v-720h-118zM119 0v94h257v-94h-257zM119 326v93h238v-93h-238zM119 626v94h249v-94h-249zM231 793h-90l72 157h141z" />
    <glyph glyph-name="Ecircumflex" unicode="&#xca;" horiz-adv-x="418" 
d="M57 0v720h118v-720h-118zM119 0v94h257v-94h-257zM119 326v93h238v-93h-238zM119 626v94h249v-94h-249zM60 793l105 157h106l106 -157h-82l-120 124h86l-119 -124h-82z" />
    <glyph glyph-name="Edieresis" unicode="&#xcb;" horiz-adv-x="418" 
d="M57 0v720h118v-720h-118zM119 0v94h257v-94h-257zM119 326v93h238v-93h-238zM119 626v94h249v-94h-249zM259 805v125h122v-125h-122zM57 805v125h122v-125h-122z" />
    <glyph glyph-name="Igrave" unicode="&#xcc;" horiz-adv-x="231" 
d="M57 0v720h118v-720h-118zM105 793l-123 157h141l72 -157h-90z" />
    <glyph glyph-name="Iacute" unicode="&#xcd;" horiz-adv-x="231" 
d="M57 0v720h118v-720h-118zM127 793h-90l72 157h141z" />
    <glyph glyph-name="Icircumflex" unicode="&#xce;" horiz-adv-x="231" 
d="M57 0v720h118v-720h-118zM-43 793l105 157h106l106 -157h-82l-120 124h86l-119 -124h-82z" />
    <glyph glyph-name="Idieresis" unicode="&#xcf;" horiz-adv-x="231" 
d="M57 0v720h118v-720h-118zM155 805v125h122v-125h-122zM-47 805v125h122v-125h-122z" />
    <glyph glyph-name="Eth" unicode="&#xd0;" horiz-adv-x="526" 
d="M7 315v93h273v-93h-273zM132 0v94h101q48 0 79 28.5t46 88.5t15 153q0 92 -15 149.5t-46 85t-79 27.5h-95v94h95q81 0 139 -40.5t89.5 -120.5t31.5 -197t-32 -198t-89.5 -122.5t-137.5 -41.5h-102zM63 0v720h118v-720h-118z" />
    <glyph glyph-name="Ntilde" unicode="&#xd1;" horiz-adv-x="514" 
d="M57 0v720h140l179 -613l-27 -2v615h109v-720h-141l-178 613l26 2v-615h-108zM321 811q-25 0 -42.5 7.5t-30 17.5t-25 17.5t-27.5 7.5t-25 -10t-10 -33h-69q0 38 12.5 66.5t36 44.5t55.5 16q26 0 42.5 -7.5t28.5 -17.5t23.5 -17.5t27.5 -7.5q15 0 25.5 10t10.5 34h68
q0 -38 -12.5 -67t-35.5 -45t-53 -16z" />
    <glyph glyph-name="Ograve" unicode="&#xd2;" horiz-adv-x="524" 
d="M262 -10q-55 0 -97.5 24.5t-71.5 72t-44.5 117t-15.5 159.5q0 118 26.5 200t77.5 124.5t124 42.5q75 0 126 -42.5t77.5 -124.5t26.5 -201q0 -90 -15.5 -159t-44.5 -116.5t-71.5 -72t-97.5 -24.5zM261 86q37 0 61.5 30.5t36.5 92t12 155.5q0 93 -12 152.5t-36.5 88.5
t-61.5 29q-36 0 -60.5 -29t-36 -88.5t-11.5 -152.5q0 -94 12 -155.5t36 -92t60 -30.5zM251 793l-123 157h141l72 -157h-90z" />
    <glyph glyph-name="Oacute" unicode="&#xd3;" horiz-adv-x="524" 
d="M262 -10q-55 0 -97.5 24.5t-71.5 72t-44.5 117t-15.5 159.5q0 118 26.5 200t77.5 124.5t124 42.5q75 0 126 -42.5t77.5 -124.5t26.5 -201q0 -90 -15.5 -159t-44.5 -116.5t-71.5 -72t-97.5 -24.5zM261 86q37 0 61.5 30.5t36.5 92t12 155.5q0 93 -12 152.5t-36.5 88.5
t-61.5 29q-36 0 -60.5 -29t-36 -88.5t-11.5 -152.5q0 -94 12 -155.5t36 -92t60 -30.5zM273 793h-90l72 157h141z" />
    <glyph glyph-name="Ocircumflex" unicode="&#xd4;" horiz-adv-x="524" 
d="M262 -10q-55 0 -97.5 24.5t-71.5 72t-44.5 117t-15.5 159.5q0 118 26.5 200t77.5 124.5t124 42.5q75 0 126 -42.5t77.5 -124.5t26.5 -201q0 -90 -15.5 -159t-44.5 -116.5t-71.5 -72t-97.5 -24.5zM261 86q37 0 61.5 30.5t36.5 92t12 155.5q0 93 -12 152.5t-36.5 88.5
t-61.5 29q-36 0 -60.5 -29t-36 -88.5t-11.5 -152.5q0 -94 12 -155.5t36 -92t60 -30.5zM103 793l105 157h106l106 -157h-82l-120 124h86l-119 -124h-82z" />
    <glyph glyph-name="Otilde" unicode="&#xd5;" horiz-adv-x="524" 
d="M262 -10q-55 0 -97.5 24.5t-71.5 72t-44.5 117t-15.5 159.5q0 118 26.5 200t77.5 124.5t124 42.5q75 0 126 -42.5t77.5 -124.5t26.5 -201q0 -90 -15.5 -159t-44.5 -116.5t-71.5 -72t-97.5 -24.5zM261 86q37 0 61.5 30.5t36.5 92t12 155.5q0 93 -12 152.5t-36.5 88.5
t-61.5 29q-36 0 -60.5 -29t-36 -88.5t-11.5 -152.5q0 -94 12 -155.5t36 -92t60 -30.5zM325 811q-25 0 -42.5 7.5t-30 17.5t-25 17.5t-27.5 7.5t-25 -10t-10 -33h-69q0 38 12.5 66.5t36 44.5t55.5 16q26 0 42.5 -7.5t28.5 -17.5t23.5 -17.5t27.5 -7.5q15 0 25.5 10t10.5 34
h68q0 -38 -12.5 -67t-35.5 -45t-53 -16z" />
    <glyph glyph-name="Odieresis" unicode="&#xd6;" horiz-adv-x="524" 
d="M262 -10q-55 0 -97.5 24.5t-71.5 72t-44.5 117t-15.5 159.5q0 118 26.5 200t77.5 124.5t124 42.5q75 0 126 -42.5t77.5 -124.5t26.5 -201q0 -90 -15.5 -159t-44.5 -116.5t-71.5 -72t-97.5 -24.5zM261 86q37 0 61.5 30.5t36.5 92t12 155.5q0 93 -12 152.5t-36.5 88.5
t-61.5 29q-36 0 -60.5 -29t-36 -88.5t-11.5 -152.5q0 -94 12 -155.5t36 -92t60 -30.5zM302 805v125h122v-125h-122zM100 805v125h122v-125h-122z" />
    <glyph glyph-name="multiply" unicode="&#xd7;" horiz-adv-x="544" 
d="M425 159l-365 366l60 60l365 -366zM120 159l-60 60l365 366l60 -60z" />
    <glyph glyph-name="Oslash" unicode="&#xd8;" horiz-adv-x="524" 
d="M77 -10l-65 42l435 698l65 -42zM262 -10q-55 0 -97.5 24.5t-71.5 72t-44.5 117t-15.5 159.5q0 118 26.5 200t77.5 124.5t124 42.5q75 0 126 -42.5t77.5 -124.5t26.5 -201q0 -90 -15.5 -159t-44.5 -116.5t-71.5 -72t-97.5 -24.5zM261 86q37 0 61.5 30.5t36.5 92t12 155.5
q0 93 -12 152.5t-36.5 88.5t-61.5 29q-36 0 -60.5 -29t-36 -88.5t-11.5 -152.5q0 -94 12 -155.5t36 -92t60 -30.5z" />
    <glyph glyph-name="Ugrave" unicode="&#xd9;" horiz-adv-x="491" 
d="M245 -10q-94 0 -143.5 57t-49.5 154v519h118v-543q0 -46 20 -68.5t55 -22.5q36 0 56 22t20 69v543h118v-519q0 -97 -49.5 -154t-144.5 -57zM234 793l-123 157h141l72 -157h-90z" />
    <glyph glyph-name="Uacute" unicode="&#xda;" horiz-adv-x="491" 
d="M245 -10q-94 0 -143.5 57t-49.5 154v519h118v-543q0 -46 20 -68.5t55 -22.5q36 0 56 22t20 69v543h118v-519q0 -97 -49.5 -154t-144.5 -57zM257 793h-90l72 157h141z" />
    <glyph glyph-name="Ucircumflex" unicode="&#xdb;" horiz-adv-x="491" 
d="M245 -10q-94 0 -143.5 57t-49.5 154v519h118v-543q0 -46 20 -68.5t55 -22.5q36 0 56 22t20 69v543h118v-519q0 -97 -49.5 -154t-144.5 -57zM86 793l105 157h106l106 -157h-82l-120 124h86l-119 -124h-82z" />
    <glyph glyph-name="Udieresis" unicode="&#xdc;" horiz-adv-x="491" 
d="M245 -10q-94 0 -143.5 57t-49.5 154v519h118v-543q0 -46 20 -68.5t55 -22.5q36 0 56 22t20 69v543h118v-519q0 -97 -49.5 -154t-144.5 -57zM285 805v125h122v-125h-122zM83 805v125h122v-125h-122z" />
    <glyph glyph-name="Yacute" unicode="&#xdd;" horiz-adv-x="488" 
d="M185 0v316l-176 404h130l141 -363h-55l139 363h115l-176 -404v-316h-118zM255 793h-90l72 157h141z" />
    <glyph glyph-name="Thorn" unicode="&#xde;" horiz-adv-x="457" 
d="M146 163v94h64q50 0 78 26.5t28 86.5t-28 86.5t-78 26.5h-64v94h67q62 0 112 -24.5t79.5 -70.5t29.5 -112q0 -65 -29.5 -111.5t-79.5 -71t-112 -24.5h-67zM57 0v720h118v-720h-118z" />
    <glyph glyph-name="germandbls" unicode="&#xdf;" horiz-adv-x="478" 
d="M263 -10q-15 0 -29 2.5t-26 7.5v89q8 -4 18 -6t21 -2q40 0 61 30.5t21 93.5q0 66 -22 100.5t-67 34.5h-25v92h19q23 0 39 12t23.5 35t7.5 57q0 51 -17 77t-50 26q-35 0 -53.5 -26.5t-18.5 -83.5v-529h-114v534q0 91 47.5 143.5t137.5 52.5q57 0 98 -24t63.5 -65.5
t22.5 -94.5q0 -48 -18 -86t-47.5 -59.5t-64.5 -21.5l-2 21q46 0 81.5 -25.5t56 -70.5t20.5 -106q0 -64 -23.5 -111t-64.5 -72t-95 -25z" />
    <glyph glyph-name="agrave" unicode="&#xe0;" horiz-adv-x="408" 
d="M267 0q-6 18 -8.5 39.5t-2.5 45.5h-5v281q0 35 -12.5 51t-36.5 16q-27 0 -41 -20t-14 -55h-101q0 71 44 116.5t121 45.5q72 0 111.5 -40t39.5 -113v-282q0 -21 2 -42.5t8 -42.5h-105zM145 -10q-48 0 -79 35t-31 95q0 54 25.5 91.5t88.5 68.5l129 65v-88l-70 -37
q-33 -17 -48 -38.5t-15 -49.5q0 -27 13.5 -41t35.5 -14q25 0 41 17.5t16 44.5l10 -63q-15 -44 -45 -65t-71 -21zM193 583l-123 157h141l72 -157h-90z" />
    <glyph glyph-name="aacute" unicode="&#xe1;" horiz-adv-x="408" 
d="M267 0q-6 18 -8.5 39.5t-2.5 45.5h-5v281q0 35 -12.5 51t-36.5 16q-27 0 -41 -20t-14 -55h-101q0 71 44 116.5t121 45.5q72 0 111.5 -40t39.5 -113v-282q0 -21 2 -42.5t8 -42.5h-105zM145 -10q-48 0 -79 35t-31 95q0 54 25.5 91.5t88.5 68.5l129 65v-88l-70 -37
q-33 -17 -48 -38.5t-15 -49.5q0 -27 13.5 -41t35.5 -14q25 0 41 17.5t16 44.5l10 -63q-15 -44 -45 -65t-71 -21zM216 583h-90l72 157h141z" />
    <glyph glyph-name="acircumflex" unicode="&#xe2;" horiz-adv-x="408" 
d="M267 0q-6 18 -8.5 39.5t-2.5 45.5h-5v281q0 35 -12.5 51t-36.5 16q-27 0 -41 -20t-14 -55h-101q0 71 44 116.5t121 45.5q72 0 111.5 -40t39.5 -113v-282q0 -21 2 -42.5t8 -42.5h-105zM145 -10q-48 0 -79 35t-31 95q0 54 25.5 91.5t88.5 68.5l129 65v-88l-70 -37
q-33 -17 -48 -38.5t-15 -49.5q0 -27 13.5 -41t35.5 -14q25 0 41 17.5t16 44.5l10 -63q-15 -44 -45 -65t-71 -21zM45 583l105 157h106l106 -157h-82l-120 124h86l-119 -124h-82z" />
    <glyph glyph-name="atilde" unicode="&#xe3;" horiz-adv-x="408" 
d="M267 0q-6 18 -8.5 39.5t-2.5 45.5h-5v281q0 35 -12.5 51t-36.5 16q-27 0 -41 -20t-14 -55h-101q0 71 44 116.5t121 45.5q72 0 111.5 -40t39.5 -113v-282q0 -21 2 -42.5t8 -42.5h-105zM145 -10q-48 0 -79 35t-31 95q0 54 25.5 91.5t88.5 68.5l129 65v-88l-70 -37
q-33 -17 -48 -38.5t-15 -49.5q0 -27 13.5 -41t35.5 -14q25 0 41 17.5t16 44.5l10 -63q-15 -44 -45 -65t-71 -21zM268 601q-25 0 -42.5 7.5t-30 17.5t-25 17.5t-27.5 7.5t-25 -10t-10 -33h-69q0 38 12.5 66.5t36 44.5t55.5 16q26 0 42.5 -7.5t28.5 -17.5t23.5 -17.5
t27.5 -7.5q15 0 25.5 10t10.5 34h68q0 -38 -12.5 -67t-35.5 -45t-53 -16z" />
    <glyph glyph-name="adieresis" unicode="&#xe4;" horiz-adv-x="408" 
d="M267 0q-6 18 -8.5 39.5t-2.5 45.5h-5v281q0 35 -12.5 51t-36.5 16q-27 0 -41 -20t-14 -55h-101q0 71 44 116.5t121 45.5q72 0 111.5 -40t39.5 -113v-282q0 -21 2 -42.5t8 -42.5h-105zM145 -10q-48 0 -79 35t-31 95q0 54 25.5 91.5t88.5 68.5l129 65v-88l-70 -37
q-33 -17 -48 -38.5t-15 -49.5q0 -27 13.5 -41t35.5 -14q25 0 41 17.5t16 44.5l10 -63q-15 -44 -45 -65t-71 -21zM244 595v125h122v-125h-122zM42 595v125h122v-125h-122z" />
    <glyph glyph-name="aring" unicode="&#xe5;" horiz-adv-x="408" 
d="M267 0q-6 18 -8.5 39.5t-2.5 45.5h-5v281q0 35 -12.5 51t-36.5 16q-27 0 -41 -20t-14 -55h-101q0 71 44 116.5t121 45.5q72 0 111.5 -40t39.5 -113v-282q0 -21 2 -42.5t8 -42.5h-105zM145 -10q-48 0 -79 35t-31 95q0 54 25.5 91.5t88.5 68.5l129 65v-88l-70 -37
q-33 -17 -48 -38.5t-15 -49.5q0 -27 13.5 -41t35.5 -14q25 0 41 17.5t16 44.5l10 -63q-15 -44 -45 -65t-71 -21zM204 561q-46 0 -77 31.5t-31 76.5q0 44 31 75.5t77 31.5t76.5 -31.5t30.5 -75.5q0 -45 -30.5 -76.5t-76.5 -31.5zM205 620q20 0 32.5 14.5t12.5 34.5t-13 34
t-33 14q-21 0 -34 -14t-13 -34t13 -34.5t35 -14.5z" />
    <glyph glyph-name="ae" unicode="&#xe6;" horiz-adv-x="644" 
d="M259 112v254q0 35 -12.5 51t-37.5 16q-28 0 -43 -20t-15 -55h-101q0 71 44 116.5t123 45.5q74 0 113.5 -40t39.5 -113v-255h-111zM166 -10q-58 0 -94.5 36.5t-36.5 96.5q0 57 31.5 100.5t112.5 65.5l107 29v-81l-70 -19q-38 -11 -54.5 -31.5t-16.5 -49.5t15 -44.5
t38 -15.5q17 0 31 8t22 23.5t8 37.5l70 -33q-28 -72 -69.5 -97.5t-93.5 -25.5zM440 -10q-55 0 -94.5 33t-60.5 92.5t-21 140.5q0 82 21.5 141t62.5 91t100 32q54 0 92 -29t58 -85.5t20 -139.5q0 -11 -0.5 -20.5t-1.5 -18.5h-291v79h220l-23 -34q0 86 -18 123.5t-56 37.5
q-25 0 -42.5 -19t-26.5 -58t-9 -100q0 -91 19.5 -135t55.5 -44q28 0 45 22t21 63h100q-11 -76 -54.5 -124t-116.5 -48z" />
    <glyph glyph-name="ccedilla" unicode="&#xe7;" horiz-adv-x="407" 
d="M210 -10q-54 0 -95.5 31t-65 90.5t-23.5 144.5q0 86 24.5 144.5t67.5 89t97 30.5q50 0 88 -23.5t59.5 -69.5t21.5 -114h-103q0 62 -17 88.5t-46 26.5q-22 0 -39 -16t-26.5 -53.5t-9.5 -101.5q0 -65 9.5 -103.5t26 -55t37.5 -16.5q29 0 47 27.5t18 87.5h103
q0 -67 -23 -113t-62.5 -70t-88.5 -24zM205 -215q-46 0 -73.5 24t-29.5 64h65q2 -13 13 -21.5t26 -8.5t24.5 8t9.5 22q0 18 -18 29.5t-57 14.5l17 95h62l-9 -53q35 -10 53.5 -33.5t18.5 -53.5q0 -40 -28.5 -63.5t-73.5 -23.5z" />
    <glyph glyph-name="egrave" unicode="&#xe8;" horiz-adv-x="427" 
d="M218 -10q-58 0 -101.5 33t-67 92.5t-23.5 140.5q0 82 24.5 141t69.5 91t106 32q57 0 95.5 -29t59 -85.5t20.5 -139.5v-20.5t-2 -18.5h-302v79h232l-28 -34q-1 86 -20 123.5t-57 37.5q-40 0 -61 -43t-21 -134t20 -135t60 -44q31 0 48 22t22 63h102q-11 -76 -55 -124
t-121 -48zM214 583l-123 157h141l72 -157h-90z" />
    <glyph glyph-name="eacute" unicode="&#xe9;" horiz-adv-x="427" 
d="M218 -10q-58 0 -101.5 33t-67 92.5t-23.5 140.5q0 82 24.5 141t69.5 91t106 32q57 0 95.5 -29t59 -85.5t20.5 -139.5v-20.5t-2 -18.5h-302v79h232l-28 -34q-1 86 -20 123.5t-57 37.5q-40 0 -61 -43t-21 -134t20 -135t60 -44q31 0 48 22t22 63h102q-11 -76 -55 -124
t-121 -48zM236 583h-90l72 157h141z" />
    <glyph glyph-name="ecircumflex" unicode="&#xea;" horiz-adv-x="427" 
d="M218 -10q-58 0 -101.5 33t-67 92.5t-23.5 140.5q0 82 24.5 141t69.5 91t106 32q57 0 95.5 -29t59 -85.5t20.5 -139.5v-20.5t-2 -18.5h-302v79h232l-28 -34q-1 86 -20 123.5t-57 37.5q-40 0 -61 -43t-21 -134t20 -135t60 -44q31 0 48 22t22 63h102q-11 -76 -55 -124
t-121 -48zM66 583l105 157h106l106 -157h-82l-120 124h86l-119 -124h-82z" />
    <glyph glyph-name="edieresis" unicode="&#xeb;" horiz-adv-x="427" 
d="M218 -10q-58 0 -101.5 33t-67 92.5t-23.5 140.5q0 82 24.5 141t69.5 91t106 32q57 0 95.5 -29t59 -85.5t20.5 -139.5v-20.5t-2 -18.5h-302v79h232l-28 -34q-1 86 -20 123.5t-57 37.5q-40 0 -61 -43t-21 -134t20 -135t60 -44q31 0 48 22t22 63h102q-11 -76 -55 -124
t-121 -48zM265 595v125h122v-125h-122zM63 595v125h122v-125h-122z" />
    <glyph glyph-name="igrave" unicode="&#xec;" horiz-adv-x="216" 
d="M51 0v510h114v-510h-114zM97 583l-123 157h141l72 -157h-90z" />
    <glyph glyph-name="iacute" unicode="&#xed;" horiz-adv-x="216" 
d="M51 0v510h114v-510h-114zM119 583h-90l72 157h141z" />
    <glyph glyph-name="icircumflex" unicode="&#xee;" horiz-adv-x="216" 
d="M51 0v510h114v-510h-114zM-51 583l105 157h106l106 -157h-82l-120 124h86l-119 -124h-82z" />
    <glyph glyph-name="idieresis" unicode="&#xef;" horiz-adv-x="216" 
d="M51 0v510h114v-510h-114zM148 595v125h122v-125h-122zM-54 595v125h122v-125h-122z" />
    <glyph glyph-name="eth" unicode="&#xf0;" horiz-adv-x="458" 
d="M226 -10q-62 0 -106.5 29.5t-68.5 88.5t-24 146q0 84 24 139.5t66 83.5t94 28q36 0 61 -14t41 -40t24 -63l-26 -45v18q0 101 -31.5 164t-88.5 92.5t-134 29.5l22 83q73 0 136.5 -24.5t111.5 -76t75 -131.5t27 -191q0 -151 -49 -234t-154 -83zM228 83q27 0 46 17.5
t29 55.5t10 99t-9.5 97.5t-28.5 53.5t-46 17q-41 0 -62.5 -39t-21.5 -131q0 -61 9.5 -98.5t28 -54.5t45.5 -17zM135 523l-38 60l251 171l39 -59z" />
    <glyph glyph-name="ntilde" unicode="&#xf1;" horiz-adv-x="455" 
d="M51 0v510h109v-96h5v-414h-114zM294 0v364q0 33 -13 47.5t-39 14.5q-24 0 -41.5 -12.5t-26.5 -33t-9 -45.5l-15 79q20 51 56 78.5t87 27.5q54 0 85 -34.5t31 -95.5v-390h-115zM305 601q-25 0 -42.5 7.5t-30 17.5t-25 17.5t-27.5 7.5t-25 -10t-10 -33h-69q0 38 12.5 66.5
t36 44.5t55.5 16q26 0 42.5 -7.5t28.5 -17.5t23.5 -17.5t27.5 -7.5q15 0 25.5 10t10.5 34h68q0 -38 -12.5 -67t-35.5 -45t-53 -16z" />
    <glyph glyph-name="ograve" unicode="&#xf2;" horiz-adv-x="451" 
d="M225 -10q-60 0 -105.5 33.5t-69.5 94t-24 139.5q0 80 24.5 139t69 91.5t105.5 32.5q62 0 106.5 -32.5t69 -91.5t24.5 -139q0 -79 -24.5 -139.5t-69 -94t-106.5 -33.5zM225 82q26 0 44 18.5t28 57.5t10 99q0 89 -21.5 130t-60.5 41q-38 0 -59.5 -41t-21.5 -130
q0 -60 10 -99t28 -57.5t43 -18.5zM214 583l-123 157h141l72 -157h-90z" />
    <glyph glyph-name="oacute" unicode="&#xf3;" horiz-adv-x="451" 
d="M225 -10q-60 0 -105.5 33.5t-69.5 94t-24 139.5q0 80 24.5 139t69 91.5t105.5 32.5q62 0 106.5 -32.5t69 -91.5t24.5 -139q0 -79 -24.5 -139.5t-69 -94t-106.5 -33.5zM225 82q26 0 44 18.5t28 57.5t10 99q0 89 -21.5 130t-60.5 41q-38 0 -59.5 -41t-21.5 -130
q0 -60 10 -99t28 -57.5t43 -18.5zM237 583h-90l72 157h141z" />
    <glyph glyph-name="ocircumflex" unicode="&#xf4;" horiz-adv-x="451" 
d="M225 -10q-60 0 -105.5 33.5t-69.5 94t-24 139.5q0 80 24.5 139t69 91.5t105.5 32.5q62 0 106.5 -32.5t69 -91.5t24.5 -139q0 -79 -24.5 -139.5t-69 -94t-106.5 -33.5zM225 82q26 0 44 18.5t28 57.5t10 99q0 89 -21.5 130t-60.5 41q-38 0 -59.5 -41t-21.5 -130
q0 -60 10 -99t28 -57.5t43 -18.5zM66 583l105 157h106l106 -157h-82l-120 124h86l-119 -124h-82z" />
    <glyph glyph-name="otilde" unicode="&#xf5;" horiz-adv-x="451" 
d="M225 -10q-60 0 -105.5 33.5t-69.5 94t-24 139.5q0 80 24.5 139t69 91.5t105.5 32.5q62 0 106.5 -32.5t69 -91.5t24.5 -139q0 -79 -24.5 -139.5t-69 -94t-106.5 -33.5zM225 82q26 0 44 18.5t28 57.5t10 99q0 89 -21.5 130t-60.5 41q-38 0 -59.5 -41t-21.5 -130
q0 -60 10 -99t28 -57.5t43 -18.5zM289 601q-25 0 -42.5 7.5t-30 17.5t-25 17.5t-27.5 7.5t-25 -10t-10 -33h-69q0 38 12.5 66.5t36 44.5t55.5 16q26 0 42.5 -7.5t28.5 -17.5t23.5 -17.5t27.5 -7.5q15 0 25.5 10t10.5 34h68q0 -38 -12.5 -67t-35.5 -45t-53 -16z" />
    <glyph glyph-name="odieresis" unicode="&#xf6;" horiz-adv-x="451" 
d="M225 -10q-60 0 -105.5 33.5t-69.5 94t-24 139.5q0 80 24.5 139t69 91.5t105.5 32.5q62 0 106.5 -32.5t69 -91.5t24.5 -139q0 -79 -24.5 -139.5t-69 -94t-106.5 -33.5zM225 82q26 0 44 18.5t28 57.5t10 99q0 89 -21.5 130t-60.5 41q-38 0 -59.5 -41t-21.5 -130
q0 -60 10 -99t28 -57.5t43 -18.5zM265 595v125h122v-125h-122zM63 595v125h122v-125h-122z" />
    <glyph glyph-name="divide" unicode="&#xf7;" horiz-adv-x="544" 
d="M53 329v84h438v-84h-438zM272 485q-26 0 -44 17.5t-18 45.5q0 27 18 44.5t45 17.5q24 0 43 -17.5t19 -44.5q0 -29 -19 -46t-44 -17zM272 133q-26 0 -44 17.5t-18 45.5q0 27 18 44.5t45 17.5q24 0 43 -17.5t19 -44.5q0 -29 -19 -46t-44 -17z" />
    <glyph glyph-name="oslash" unicode="&#xf8;" horiz-adv-x="451" 
d="M225 -10q-60 0 -105.5 33.5t-69.5 94t-24 139.5q0 80 24.5 139t69 91.5t105.5 32.5q62 0 106.5 -32.5t69 -91.5t24.5 -139q0 -79 -24.5 -139.5t-69 -94t-106.5 -33.5zM225 73q29 0 47.5 20t28.5 60.5t10 103.5q0 94 -22 137t-64 43q-41 0 -63 -43t-22 -137
q0 -63 10 -103.5t29 -60.5t46 -20zM84 -7l-58 46l341 478l58 -46z" />
    <glyph glyph-name="ugrave" unicode="&#xf9;" horiz-adv-x="447" 
d="M160 -10q-34 0 -60 14.5t-39.5 43t-13.5 68.5v394h114v-369q0 -28 13 -42.5t36 -14.5q22 0 38 12.5t25 33t9 43.5l15 -79q-19 -49 -54 -76.5t-83 -27.5zM288 0v95h-6v415h115v-510h-109zM213 583l-123 157h141l72 -157h-90z" />
    <glyph glyph-name="uacute" unicode="&#xfa;" horiz-adv-x="447" 
d="M160 -10q-34 0 -60 14.5t-39.5 43t-13.5 68.5v394h114v-369q0 -28 13 -42.5t36 -14.5q22 0 38 12.5t25 33t9 43.5l15 -79q-19 -49 -54 -76.5t-83 -27.5zM288 0v95h-6v415h115v-510h-109zM235 583h-90l72 157h141z" />
    <glyph glyph-name="ucircumflex" unicode="&#xfb;" horiz-adv-x="447" 
d="M160 -10q-34 0 -60 14.5t-39.5 43t-13.5 68.5v394h114v-369q0 -28 13 -42.5t36 -14.5q22 0 38 12.5t25 33t9 43.5l15 -79q-19 -49 -54 -76.5t-83 -27.5zM288 0v95h-6v415h115v-510h-109zM65 583l105 157h106l106 -157h-82l-120 124h86l-119 -124h-82z" />
    <glyph glyph-name="udieresis" unicode="&#xfc;" horiz-adv-x="447" 
d="M160 -10q-34 0 -60 14.5t-39.5 43t-13.5 68.5v394h114v-369q0 -28 13 -42.5t36 -14.5q22 0 38 12.5t25 33t9 43.5l15 -79q-19 -49 -54 -76.5t-83 -27.5zM288 0v95h-6v415h115v-510h-109zM263 595v125h122v-125h-122zM61 595v125h122v-125h-122z" />
    <glyph glyph-name="yacute" unicode="&#xfd;" horiz-adv-x="413" 
d="M99 -205l77 287l19 28l89 400h113l-190 -715h-108zM171 -9l-155 519h122l103 -444zM225 583h-90l72 157h141z" />
    <glyph glyph-name="thorn" unicode="&#xfe;" 
d="M276 -10q-44 0 -80.5 29t-44.5 84l14 2v-310h-114v925h114v-310l-12 3q10 52 46.5 79.5t84.5 27.5q49 0 83.5 -31t53 -88.5t18.5 -138.5q0 -84 -20 -145t-56.5 -94t-86.5 -33zM241 84q40 0 60 42.5t20 129.5q0 88 -20 129t-60 41t-60.5 -42.5t-20.5 -129.5t20.5 -128.5
t60.5 -41.5z" />
    <glyph glyph-name="ydieresis" unicode="&#xff;" horiz-adv-x="413" 
d="M99 -205l77 287l19 28l89 400h113l-190 -715h-108zM171 -9l-155 519h122l103 -444zM253 595v125h122v-125h-122zM51 595v125h122v-125h-122z" />
    <glyph glyph-name="Amacron" unicode="&#x100;" horiz-adv-x="476" 
d="M16 0l146 720h88l-124 -720h-110zM341 0l-123 720h96l146 -720h-119zM109 268h258v-93h-258v93zM97 840v82h280v-82h-280z" />
    <glyph glyph-name="amacron" unicode="&#x101;" horiz-adv-x="408" 
d="M267 0q-6 18 -8.5 39.5t-2.5 45.5h-5v281q0 35 -12.5 51t-36.5 16q-27 0 -41 -20t-14 -55h-101q0 71 44 116.5t121 45.5q72 0 111.5 -40t39.5 -113v-282q0 -21 2 -42.5t8 -42.5h-105zM145 -10q-48 0 -79 35t-31 95q0 54 25.5 91.5t88.5 68.5l129 65v-88l-70 -37
q-33 -17 -48 -38.5t-15 -49.5q0 -27 13.5 -41t35.5 -14q25 0 41 17.5t16 44.5l10 -63q-15 -44 -45 -65t-71 -21zM64 630v82h280v-82h-280z" />
    <glyph glyph-name="Abreve" unicode="&#x102;" horiz-adv-x="476" 
d="M16 0l146 720h88l-124 -720h-110zM341 0l-123 720h96l146 -720h-119zM109 268h258v-93h-258v93zM238 786q-39 0 -73 19t-54.5 55.5t-20.5 89.5h75q0 -32 18.5 -55.5t54.5 -23.5q35 0 54 23.5t19 55.5h74q0 -53 -20.5 -89.5t-54 -55.5t-72.5 -19z" />
    <glyph glyph-name="abreve" unicode="&#x103;" horiz-adv-x="408" 
d="M267 0q-6 18 -8.5 39.5t-2.5 45.5h-5v281q0 35 -12.5 51t-36.5 16q-27 0 -41 -20t-14 -55h-101q0 71 44 116.5t121 45.5q72 0 111.5 -40t39.5 -113v-282q0 -21 2 -42.5t8 -42.5h-105zM145 -10q-48 0 -79 35t-31 95q0 54 25.5 91.5t88.5 68.5l129 65v-88l-70 -37
q-33 -17 -48 -38.5t-15 -49.5q0 -27 13.5 -41t35.5 -14q25 0 41 17.5t16 44.5l10 -63q-15 -44 -45 -65t-71 -21zM205 576q-39 0 -73 19t-54.5 55.5t-20.5 89.5h75q0 -32 18.5 -55.5t54.5 -23.5q35 0 54 23.5t19 55.5h74q0 -53 -20.5 -89.5t-54 -55.5t-72.5 -19z" />
    <glyph glyph-name="Aogonek" unicode="&#x104;" horiz-adv-x="476" 
d="M16 0l146 720h88l-124 -720h-110zM341 0l-123 720h96l146 -720h-119zM109 268h258v-93h-258v93zM391 -216q-42 0 -65 22t-23 59q0 44 34 83t86 69l37 -17q-44 -36 -67 -66.5t-23 -59.5q0 -17 9 -24.5t21 -7.5q18 0 36 15l27 -50q-14 -11 -32 -17t-40 -6z" />
    <glyph glyph-name="aogonek" unicode="&#x105;" horiz-adv-x="408" 
d="M267 0q-6 18 -8.5 39.5t-2.5 45.5h-5v281q0 35 -12.5 51t-36.5 16q-27 0 -41 -20t-14 -55h-101q0 71 44 116.5t121 45.5q72 0 111.5 -40t39.5 -113v-282q0 -21 2 -42.5t8 -42.5h-105zM145 -10q-48 0 -79 35t-31 95q0 54 25.5 91.5t88.5 68.5l129 65v-88l-70 -37
q-33 -17 -48 -38.5t-15 -49.5q0 -27 13.5 -41t35.5 -14q25 0 41 17.5t16 44.5l10 -63q-15 -44 -45 -65t-71 -21zM303 -216q-42 0 -65 22t-23 59q0 44 34 83t86 69l37 -17q-44 -36 -67 -66.5t-23 -59.5q0 -17 9 -24.5t21 -7.5q18 0 36 15l27 -50q-14 -11 -32 -17t-40 -6z" />
    <glyph glyph-name="Cacute" unicode="&#x106;" horiz-adv-x="489" 
d="M253 -10q-52 0 -93.5 24.5t-69.5 71.5t-42.5 116t-14.5 159q0 89 15 158t43 116t69.5 71t94.5 24q65 0 110.5 -34t69.5 -98.5t24 -155.5h-117q0 98 -22.5 145t-66.5 47q-33 0 -55.5 -27.5t-33.5 -87t-11 -155.5q0 -97 11.5 -158.5t34 -90.5t55.5 -29q42 0 64.5 48.5
t22.5 143.5h118q0 -90 -24.5 -154.5t-70.5 -99t-111 -34.5zM266 793h-90l72 157h141z" />
    <glyph glyph-name="cacute" unicode="&#x107;" horiz-adv-x="407" 
d="M210 -10q-54 0 -95.5 31t-65 90.5t-23.5 144.5q0 86 24.5 144.5t67.5 89t97 30.5q50 0 88 -23.5t59.5 -69.5t21.5 -114h-103q0 62 -17 88.5t-46 26.5q-22 0 -39 -16t-26.5 -53.5t-9.5 -101.5q0 -65 9.5 -103.5t26 -55t37.5 -16.5q29 0 47 27.5t18 87.5h103
q0 -67 -23 -113t-62.5 -70t-88.5 -24zM226 583h-90l72 157h141z" />
    <glyph glyph-name="Cdotaccent" unicode="&#x10a;" horiz-adv-x="489" 
d="M253 -10q-52 0 -93.5 24.5t-69.5 71.5t-42.5 116t-14.5 159q0 89 15 158t43 116t69.5 71t94.5 24q65 0 110.5 -34t69.5 -98.5t24 -155.5h-117q0 98 -22.5 145t-66.5 47q-33 0 -55.5 -27.5t-33.5 -87t-11 -155.5q0 -97 11.5 -158.5t34 -90.5t55.5 -29q42 0 64.5 48.5
t22.5 143.5h118q0 -90 -24.5 -154.5t-70.5 -99t-111 -34.5zM193 803v127h124v-127h-124z" />
    <glyph glyph-name="cdotaccent" unicode="&#x10b;" horiz-adv-x="407" 
d="M210 -10q-54 0 -95.5 31t-65 90.5t-23.5 144.5q0 86 24.5 144.5t67.5 89t97 30.5q50 0 88 -23.5t59.5 -69.5t21.5 -114h-103q0 62 -17 88.5t-46 26.5q-22 0 -39 -16t-26.5 -53.5t-9.5 -101.5q0 -65 9.5 -103.5t26 -55t37.5 -16.5q29 0 47 27.5t18 87.5h103
q0 -67 -23 -113t-62.5 -70t-88.5 -24zM152 593v127h124v-127h-124z" />
    <glyph glyph-name="Ccaron" unicode="&#x10c;" horiz-adv-x="489" 
d="M253 -10q-52 0 -93.5 24.5t-69.5 71.5t-42.5 116t-14.5 159q0 89 15 158t43 116t69.5 71t94.5 24q65 0 110.5 -34t69.5 -98.5t24 -155.5h-117q0 98 -22.5 145t-66.5 47q-33 0 -55.5 -27.5t-33.5 -87t-11 -155.5q0 -97 11.5 -158.5t34 -90.5t55.5 -29q42 0 64.5 48.5
t22.5 143.5h118q0 -90 -24.5 -154.5t-70.5 -99t-111 -34.5zM202 793l-105 157h82l119 -124h-86l120 124h82l-106 -157h-106z" />
    <glyph glyph-name="ccaron" unicode="&#x10d;" horiz-adv-x="407" 
d="M210 -10q-54 0 -95.5 31t-65 90.5t-23.5 144.5q0 86 24.5 144.5t67.5 89t97 30.5q50 0 88 -23.5t59.5 -69.5t21.5 -114h-103q0 62 -17 88.5t-46 26.5q-22 0 -39 -16t-26.5 -53.5t-9.5 -101.5q0 -65 9.5 -103.5t26 -55t37.5 -16.5q29 0 47 27.5t18 87.5h103
q0 -67 -23 -113t-62.5 -70t-88.5 -24zM161 583l-105 157h82l119 -124h-86l120 124h82l-106 -157h-106z" />
    <glyph glyph-name="Dcaron" unicode="&#x10e;" horiz-adv-x="519" 
d="M125 0v94h101q48 0 79 28.5t46 88.5t15 153q0 92 -15 149.5t-45.5 85t-79.5 27.5h-95v94h95q81 0 139.5 -40.5t89.5 -120.5t31 -197t-31.5 -198t-89.5 -122.5t-138 -41.5h-102zM57 0v720h118v-720h-118zM207 793l-105 157h82l119 -124h-86l120 124h82l-106 -157h-106z
" />
    <glyph glyph-name="dcaron" unicode="&#x10f;" horiz-adv-x="554" 
d="M308 0v100l8 -3q-11 -52 -47 -79.5t-83 -27.5q-49 0 -84 31t-54 88.5t-19 138.5q0 85 20 145.5t56.5 93.5t86.5 33q45 0 81.5 -29t44.5 -84l-15 -2v315h115v-720h-110zM228 84q39 0 60 42.5t21 129.5q0 88 -21 129t-60 41t-60 -42.5t-21 -129.5t21 -128.5t60 -41.5z
M537 490h-73v230h99z" />
    <glyph glyph-name="Dcroat" unicode="&#x110;" horiz-adv-x="526" 
d="M7 315v93h273v-93h-273zM132 0v94h101q48 0 79 28.5t46 88.5t15 153q0 92 -15 149.5t-46 85t-79 27.5h-95v94h95q81 0 139 -40.5t89.5 -120.5t31.5 -197t-32 -198t-89.5 -122.5t-137.5 -41.5h-102zM63 0v720h118v-720h-118z" />
    <glyph glyph-name="dcroat" unicode="&#x111;" 
d="M175 584v78h294v-78h-294zM308 0v100l8 -3q-11 -52 -47 -79.5t-83 -27.5q-49 0 -84 31t-54 88.5t-19 138.5q0 85 20 145.5t56.5 93.5t86.5 33q45 0 81.5 -29t44.5 -84l-15 -2v315h115v-720h-110zM228 84q39 0 60 42.5t21 129.5q0 88 -21 129t-60 41t-60 -42.5t-21 -129.5
t21 -128.5t60 -41.5z" />
    <glyph glyph-name="Emacron" unicode="&#x112;" horiz-adv-x="418" 
d="M57 0v720h118v-720h-118zM119 0v94h257v-94h-257zM119 326v93h238v-93h-238zM119 626v94h249v-94h-249zM79 840v82h280v-82h-280z" />
    <glyph glyph-name="emacron" unicode="&#x113;" horiz-adv-x="427" 
d="M218 -10q-58 0 -101.5 33t-67 92.5t-23.5 140.5q0 82 24.5 141t69.5 91t106 32q57 0 95.5 -29t59 -85.5t20.5 -139.5v-20.5t-2 -18.5h-302v79h232l-28 -34q-1 86 -20 123.5t-57 37.5q-40 0 -61 -43t-21 -134t20 -135t60 -44q31 0 48 22t22 63h102q-11 -76 -55 -124
t-121 -48zM84 630v82h280v-82h-280z" />
    <glyph glyph-name="Edotaccent" unicode="&#x116;" horiz-adv-x="418" 
d="M57 0v720h118v-720h-118zM119 0v94h257v-94h-257zM119 326v93h238v-93h-238zM119 626v94h249v-94h-249zM157 803v127h124v-127h-124z" />
    <glyph glyph-name="edotaccent" unicode="&#x117;" horiz-adv-x="427" 
d="M218 -10q-58 0 -101.5 33t-67 92.5t-23.5 140.5q0 82 24.5 141t69.5 91t106 32q57 0 95.5 -29t59 -85.5t20.5 -139.5v-20.5t-2 -18.5h-302v79h232l-28 -34q-1 86 -20 123.5t-57 37.5q-40 0 -61 -43t-21 -134t20 -135t60 -44q31 0 48 22t22 63h102q-11 -76 -55 -124
t-121 -48zM163 593v127h124v-127h-124z" />
    <glyph glyph-name="Eogonek" unicode="&#x118;" horiz-adv-x="418" 
d="M57 0v720h118v-720h-118zM119 0v94h257v-94h-257zM119 326v93h238v-93h-238zM119 626v94h249v-94h-249zM267 -216q-42 0 -65 22t-23 59q0 44 34 83t86 69l37 -17q-44 -36 -67 -66.5t-23 -59.5q0 -17 9 -24.5t21 -7.5q18 0 36 15l27 -50q-14 -11 -32 -17t-40 -6z" />
    <glyph glyph-name="eogonek" unicode="&#x119;" horiz-adv-x="427" 
d="M218 -10q-58 0 -101.5 33t-67 92.5t-23.5 140.5q0 82 24.5 141t69.5 91t106 32q57 0 95.5 -29t59 -85.5t20.5 -139.5v-20.5t-2 -18.5h-302v79h232l-28 -34q-1 86 -20 123.5t-57 37.5q-40 0 -61 -43t-21 -134t20 -135t60 -44q31 0 48 22t22 63h102q-11 -76 -55 -124
t-121 -48zM248 -196q-42 0 -65 22t-23 59q0 44 34 83t86 69l37 -17q-44 -36 -67 -66.5t-23 -59.5q0 -17 9 -24.5t21 -7.5q18 0 36 15l27 -50q-14 -11 -32 -17t-40 -6z" />
    <glyph glyph-name="Ecaron" unicode="&#x11a;" horiz-adv-x="418" 
d="M57 0v720h118v-720h-118zM119 0v94h257v-94h-257zM119 326v93h238v-93h-238zM119 626v94h249v-94h-249zM166 793l-105 157h82l119 -124h-86l120 124h82l-106 -157h-106z" />
    <glyph glyph-name="ecaron" unicode="&#x11b;" horiz-adv-x="427" 
d="M218 -10q-58 0 -101.5 33t-67 92.5t-23.5 140.5q0 82 24.5 141t69.5 91t106 32q57 0 95.5 -29t59 -85.5t20.5 -139.5v-20.5t-2 -18.5h-302v79h232l-28 -34q-1 86 -20 123.5t-57 37.5q-40 0 -61 -43t-21 -134t20 -135t60 -44q31 0 48 22t22 63h102q-11 -76 -55 -124
t-121 -48zM172 583l-105 157h82l119 -124h-86l120 124h82l-106 -157h-106z" />
    <glyph glyph-name="Gbreve" unicode="&#x11e;" horiz-adv-x="502" 
d="M269 -10q-78 0 -131 40t-79 120t-26 201q0 123 26.5 207t77.5 128t125 44q63 0 107 -30.5t67 -88t23 -139.5h-117q0 84 -20.5 123t-62.5 39q-36 0 -59.5 -29.5t-35 -91t-11.5 -157.5q0 -98 13 -157.5t40.5 -86t71.5 -26.5q21 0 36.5 5.5t26.5 16.5l118 -31
q-28 -41 -78.5 -64t-111.5 -23zM341 75v250l31 -31h-117v94h204v-311zM262 786q-39 0 -73 19t-54.5 55.5t-20.5 89.5h75q0 -32 18.5 -55.5t54.5 -23.5q35 0 54 23.5t19 55.5h74q0 -53 -20.5 -89.5t-54 -55.5t-72.5 -19z" />
    <glyph glyph-name="gbreve" unicode="&#x11f;" 
d="M232 -215q-80 0 -128.5 44t-52.5 117h107q2 -29 21.5 -45.5t50.5 -16.5q35 0 54 21.5t19 61.5v148l7 -1q-6 -49 -39 -79t-81 -30q-49 0 -85 31t-56 88t-20 135q0 81 21 139.5t59 90t90 31.5q50 0 81.5 -29.5t37.5 -82.5h-7v102h107v-521q0 -97 -48.5 -150.5t-137.5 -53.5
zM228 99q39 0 60 41t21 124t-21 122.5t-60 39.5q-38 0 -59.5 -41t-21.5 -124q0 -81 21 -121.5t60 -40.5zM228 576q-39 0 -73 19t-54.5 55.5t-20.5 89.5h75q0 -32 18.5 -55.5t54.5 -23.5q35 0 54 23.5t19 55.5h74q0 -53 -20.5 -89.5t-54 -55.5t-72.5 -19z" />
    <glyph glyph-name="Gdotaccent" unicode="&#x120;" horiz-adv-x="502" 
d="M269 -10q-78 0 -131 40t-79 120t-26 201q0 123 26.5 207t77.5 128t125 44q63 0 107 -30.5t67 -88t23 -139.5h-117q0 84 -20.5 123t-62.5 39q-36 0 -59.5 -29.5t-35 -91t-11.5 -157.5q0 -98 13 -157.5t40.5 -86t71.5 -26.5q21 0 36.5 5.5t26.5 16.5l118 -31
q-28 -41 -78.5 -64t-111.5 -23zM341 75v250l31 -31h-117v94h204v-311zM200 803v127h124v-127h-124z" />
    <glyph glyph-name="gdotaccent" unicode="&#x121;" 
d="M232 -215q-80 0 -128.5 44t-52.5 117h107q2 -29 21.5 -45.5t50.5 -16.5q35 0 54 21.5t19 61.5v148l7 -1q-6 -49 -39 -79t-81 -30q-49 0 -85 31t-56 88t-20 135q0 81 21 139.5t59 90t90 31.5q50 0 81.5 -29.5t37.5 -82.5h-7v102h107v-521q0 -97 -48.5 -150.5t-137.5 -53.5
zM228 99q39 0 60 41t21 124t-21 122.5t-60 39.5q-38 0 -59.5 -41t-21.5 -124q0 -81 21 -121.5t60 -40.5zM166 593v127h124v-127h-124z" />
    <glyph glyph-name="uni0122" unicode="&#x122;" horiz-adv-x="502" 
d="M269 -10q-78 0 -131 40t-79 120t-26 201q0 123 26.5 207t77.5 128t125 44q63 0 107 -30.5t67 -88t23 -139.5h-117q0 84 -20.5 123t-62.5 39q-36 0 -59.5 -29.5t-35 -91t-11.5 -157.5q0 -98 13 -157.5t40.5 -86t71.5 -26.5q21 0 36.5 5.5t26.5 16.5l118 -31
q-28 -41 -78.5 -64t-111.5 -23zM341 75v250l31 -31h-117v94h204v-311zM199 -317v54q32 6 47.5 24t15.5 52l42 -8h-105v122h125v-90q0 -62 -33 -102t-92 -52z" />
    <glyph glyph-name="uni0123" unicode="&#x123;" 
d="M232 -215q-80 0 -128.5 44t-52.5 117h107q2 -29 21.5 -45.5t50.5 -16.5q35 0 54 21.5t19 61.5v148l7 -1q-6 -49 -39 -79t-81 -30q-49 0 -85 31t-56 88t-20 135q0 81 21 139.5t59 90t90 31.5q50 0 81.5 -29.5t37.5 -82.5h-7v102h107v-521q0 -97 -48.5 -150.5t-137.5 -53.5
zM228 99q39 0 60 41t21 124t-21 122.5t-60 39.5q-38 0 -59.5 -41t-21.5 -124q0 -81 21 -121.5t60 -40.5zM165 583v90q0 62 33 102t92 52v-54q-32 -5 -47.5 -23.5t-15.5 -52.5l-42 8h105v-122h-125z" />
    <glyph glyph-name="Hbar" unicode="&#x126;" horiz-adv-x="523" 
d="M7 533v93h509v-93h-509zM63 0v720h118v-720h-118zM341 0v720h118v-720h-118zM125 422h272v-94h-272v94z" />
    <glyph glyph-name="hbar" unicode="&#x127;" horiz-adv-x="455" 
d="M0 584v78h294v-78h-294zM51 0v720h114v-720h-114zM294 0v364q0 33 -13 47.5t-38 14.5q-26 0 -43.5 -12.5t-26 -33t-8.5 -45.5l-15 79q20 51 56 78.5t87 27.5q54 0 85 -34.5t31 -95.5v-390h-115z" />
    <glyph glyph-name="Imacron" unicode="&#x12a;" horiz-adv-x="231" 
d="M57 0v720h118v-720h-118zM-25 840v82h280v-82h-280z" />
    <glyph glyph-name="imacron" unicode="&#x12b;" horiz-adv-x="216" 
d="M51 0v510h114v-510h-114zM-33 630v82h280v-82h-280z" />
    <glyph glyph-name="Iogonek" unicode="&#x12e;" horiz-adv-x="231" 
d="M57 0v720h118v-720h-118zM105 -216q-42 0 -65 22t-23 59q0 44 34 83t86 69l37 -17q-44 -36 -67 -66.5t-23 -59.5q0 -17 9 -24.5t21 -7.5q18 0 36 15l27 -50q-14 -11 -32 -17t-40 -6z" />
    <glyph glyph-name="iogonek" unicode="&#x12f;" horiz-adv-x="216" 
d="M51 0v510h114v-510h-114zM46 593v127h124v-127h-124zM96 -216q-42 0 -65 22t-23 59q0 44 34 83t86 69l37 -17q-44 -36 -67 -66.5t-23 -59.5q0 -17 9 -24.5t21 -7.5q18 0 36 15l27 -50q-14 -11 -32 -17t-40 -6z" />
    <glyph glyph-name="Idotaccent" unicode="&#x130;" horiz-adv-x="231" 
d="M57 0v720h118v-720h-118zM54 803v127h124v-127h-124z" />
    <glyph glyph-name="dotlessi" unicode="&#x131;" horiz-adv-x="216" 
d="M51 0v510h114v-510h-114z" />
    <glyph glyph-name="IJ" unicode="&#x132;" horiz-adv-x="535" 
d="M57 0v720h118v-720h-118zM317 -10q-27 0 -45.5 3.5t-30.5 9.5v92q9 -4 23.5 -6.5t28.5 -2.5q34 0 53 13.5t19 43.5v577h118v-592q0 -74 -46.5 -106t-119.5 -32z" />
    <glyph glyph-name="ij" unicode="&#x133;" horiz-adv-x="432" 
d="M51 0v510h114v-510h-114zM46 593v127h124v-127h-124zM248 -215q-18 0 -30 1.5t-22 4.5v89l12.5 -2.5t16.5 -1.5q19 0 30.5 8.5t11.5 28.5v597h114v-605q0 -56 -33.5 -88t-99.5 -32zM262 593v127h124v-127h-124z" />
    <glyph glyph-name="uni0136" unicode="&#x136;" horiz-adv-x="491" 
d="M57 0v720h118v-720h-118zM161 374l173 346h124l-180 -346h-117zM348 0l-191 374h121l200 -374h-130zM196 -317v54q32 6 47.5 24t15.5 52l42 -8h-105v122h125v-90q0 -62 -33 -102t-92 -52z" />
    <glyph glyph-name="uni0137" unicode="&#x137;" horiz-adv-x="426" 
d="M51 0v720h114v-720h-114zM291 0l-137 265l131 245h120l-154 -267l1 46l163 -289h-124zM164 -317v54q32 6 47.5 24t15.5 52l42 -8h-105v122h125v-90q0 -62 -33 -102t-92 -52z" />
    <glyph glyph-name="Lacute" unicode="&#x139;" horiz-adv-x="385" 
d="M57 0v720h118v-720h-118zM119 0v94h231v-94h-231zM126 793h-90l72 157h141z" />
    <glyph glyph-name="lacute" unicode="&#x13a;" horiz-adv-x="216" 
d="M51 0v720h114v-720h-114zM119 793h-90l72 157h141z" />
    <glyph glyph-name="uni013B" unicode="&#x13b;" horiz-adv-x="385" 
d="M57 0v720h118v-720h-118zM119 0v94h231v-94h-231zM145 -317v54q32 6 47.5 24t15.5 52l42 -8h-105v122h125v-90q0 -62 -33 -102t-92 -52z" />
    <glyph glyph-name="uni013C" unicode="&#x13c;" horiz-adv-x="216" 
d="M51 0v720h114v-720h-114zM45 -317v54q32 6 47.5 24t15.5 52l42 -8h-105v122h125v-90q0 -62 -33 -102t-92 -52z" />
    <glyph glyph-name="Lcaron" unicode="&#x13d;" horiz-adv-x="385" 
d="M57 0v720h118v-720h-118zM119 0v94h231v-94h-231zM338 490h-73v230h99z" />
    <glyph glyph-name="lcaron" unicode="&#x13e;" horiz-adv-x="302" 
d="M51 0v720h114v-720h-114zM284 490h-73v230h99z" />
    <glyph glyph-name="Lslash" unicode="&#x141;" horiz-adv-x="392" 
d="M126 328l-126 -62v90l125 62zM132 426l150 76v-90l-150 -76v90zM63 0v720h118v-720h-118zM125 0v94h232v-94h-232z" />
    <glyph glyph-name="lslash" unicode="&#x142;" horiz-adv-x="243" 
d="M125 338l-119 -59v82l119 58v-81zM125 427l111 56v-81l-111 -56v81zM64 0v720h115v-720h-115z" />
    <glyph glyph-name="Nacute" unicode="&#x143;" horiz-adv-x="514" 
d="M57 0v720h140l179 -613l-27 -2v615h109v-720h-141l-178 613l26 2v-615h-108zM269 793h-90l72 157h141z" />
    <glyph glyph-name="nacute" unicode="&#x144;" horiz-adv-x="455" 
d="M51 0v510h109v-96h5v-414h-114zM294 0v364q0 33 -13 47.5t-39 14.5q-24 0 -41.5 -12.5t-26.5 -33t-9 -45.5l-15 79q20 51 56 78.5t87 27.5q54 0 85 -34.5t31 -95.5v-390h-115zM253 583h-90l72 157h141z" />
    <glyph glyph-name="uni0145" unicode="&#x145;" horiz-adv-x="514" 
d="M57 0v720h140l179 -613l-27 -2v615h109v-720h-141l-178 613l26 2v-615h-108zM195 -317v54q32 6 47.5 24t15.5 52l42 -8h-105v122h125v-90q0 -62 -33 -102t-92 -52z" />
    <glyph glyph-name="uni0146" unicode="&#x146;" horiz-adv-x="455" 
d="M51 0v510h109v-96h5v-414h-114zM294 0v364q0 33 -13 47.5t-39 14.5q-24 0 -41.5 -12.5t-26.5 -33t-9 -45.5l-15 79q20 51 56 78.5t87 27.5q54 0 85 -34.5t31 -95.5v-390h-115zM168 -317v54q32 6 47.5 24t15.5 52l42 -8h-105v122h125v-90q0 -62 -33 -102t-92 -52z" />
    <glyph glyph-name="Ncaron" unicode="&#x147;" horiz-adv-x="514" 
d="M57 0v720h140l179 -613l-27 -2v615h109v-720h-141l-178 613l26 2v-615h-108zM204 793l-105 157h82l119 -124h-86l120 124h82l-106 -157h-106z" />
    <glyph glyph-name="ncaron" unicode="&#x148;" horiz-adv-x="455" 
d="M51 0v510h109v-96h5v-414h-114zM294 0v364q0 33 -13 47.5t-39 14.5q-24 0 -41.5 -12.5t-26.5 -33t-9 -45.5l-15 79q20 51 56 78.5t87 27.5q54 0 85 -34.5t31 -95.5v-390h-115zM188 583l-105 157h82l119 -124h-86l120 124h82l-106 -157h-106z" />
    <glyph glyph-name="Eng" unicode="&#x14a;" horiz-adv-x="514" 
d="M57 0v720h140l185 -539l-33 -2v541h109v-720h-112l-200 593l19 2v-595h-108zM314 -215q-23 0 -37.5 2t-27.5 6v94q8 -2 18 -4t20 -2q27 0 41.5 12t14.5 40v95h115v-107q0 -64 -35.5 -100t-108.5 -36z" />
    <glyph glyph-name="eng" unicode="&#x14b;" horiz-adv-x="455" 
d="M275 -215q-18 0 -29.5 1.5t-21.5 4.5v89l12.5 -2.5t15.5 -1.5q20 0 31 8.5t11 28.5v451q0 33 -13 47.5t-39 14.5q-24 0 -41.5 -12.5t-26.5 -33t-9 -45.5l-15 79q20 51 56 78.5t87 27.5q54 0 85 -34.5t31 -95.5v-485q0 -56 -33.5 -88t-100.5 -32zM51 0v510h109v-96h5v-414
h-114z" />
    <glyph glyph-name="Omacron" unicode="&#x14c;" horiz-adv-x="524" 
d="M262 -10q-55 0 -97.5 24.5t-71.5 72t-44.5 117t-15.5 159.5q0 118 26.5 200t77.5 124.5t124 42.5q75 0 126 -42.5t77.5 -124.5t26.5 -201q0 -90 -15.5 -159t-44.5 -116.5t-71.5 -72t-97.5 -24.5zM261 86q37 0 61.5 30.5t36.5 92t12 155.5q0 93 -12 152.5t-36.5 88.5
t-61.5 29q-36 0 -60.5 -29t-36 -88.5t-11.5 -152.5q0 -94 12 -155.5t36 -92t60 -30.5zM121 840v82h280v-82h-280z" />
    <glyph glyph-name="omacron" unicode="&#x14d;" horiz-adv-x="451" 
d="M225 -10q-60 0 -105.5 33.5t-69.5 94t-24 139.5q0 80 24.5 139t69 91.5t105.5 32.5q62 0 106.5 -32.5t69 -91.5t24.5 -139q0 -79 -24.5 -139.5t-69 -94t-106.5 -33.5zM225 82q26 0 44 18.5t28 57.5t10 99q0 89 -21.5 130t-60.5 41q-38 0 -59.5 -41t-21.5 -130
q0 -60 10 -99t28 -57.5t43 -18.5zM85 630v82h280v-82h-280z" />
    <glyph glyph-name="Ohungarumlaut" unicode="&#x150;" horiz-adv-x="524" 
d="M262 -10q-55 0 -97.5 24.5t-71.5 72t-44.5 117t-15.5 159.5q0 118 26.5 200t77.5 124.5t124 42.5q75 0 126 -42.5t77.5 -124.5t26.5 -201q0 -90 -15.5 -159t-44.5 -116.5t-71.5 -72t-97.5 -24.5zM261 86q37 0 61.5 30.5t36.5 92t12 155.5q0 93 -12 152.5t-36.5 88.5
t-61.5 29q-36 0 -60.5 -29t-36 -88.5t-11.5 -152.5q0 -94 12 -155.5t36 -92t60 -30.5zM208 793h-82l42 157h119zM380 793h-81l42 157h119z" />
    <glyph glyph-name="ohungarumlaut" unicode="&#x151;" horiz-adv-x="451" 
d="M225 -10q-60 0 -105.5 33.5t-69.5 94t-24 139.5q0 80 24.5 139t69 91.5t105.5 32.5q62 0 106.5 -32.5t69 -91.5t24.5 -139q0 -79 -24.5 -139.5t-69 -94t-106.5 -33.5zM225 82q26 0 44 18.5t28 57.5t10 99q0 89 -21.5 130t-60.5 41q-38 0 -59.5 -41t-21.5 -130
q0 -60 10 -99t28 -57.5t43 -18.5zM171 583h-82l42 157h119zM343 583h-81l42 157h119z" />
    <glyph glyph-name="OE" unicode="&#x152;" horiz-adv-x="691" 
d="M274 -10q-76 0 -130 42.5t-82.5 125.5t-28.5 203q0 119 28.5 201.5t82.5 125t130 42.5q41 0 71.5 -9.5t57.5 -30.5l-45 -82q-13 12 -33 19t-46 7q-44 0 -72 -29t-41 -89t-13 -155t13 -156t41 -90t72 -29q26 0 46 7t33 19l45 -82q-27 -21 -57.5 -30.5t-71.5 -9.5zM339 0
v720h302v-94h-184v-207h173v-93h-173v-232h192v-94h-310z" />
    <glyph glyph-name="oe" unicode="&#x153;" horiz-adv-x="668" 
d="M215 -10q-55 0 -98 33.5t-67 94t-24 139.5q0 80 24 139t66.5 91.5t98.5 32.5q57 0 96 -32.5t59.5 -91.5t20.5 -139q0 -79 -20.5 -139.5t-59.5 -94t-96 -33.5zM215 82q22 0 38 18.5t25 57.5t9 99t-8 97.5t-23 55.5t-41 18q-21 0 -37 -18t-25 -55.5t-9 -97.5t9 -99
t25 -57.5t37 -18.5zM469 -10q-53 0 -91 33t-58 92.5t-20 140.5q0 82 20.5 141t60 91t96.5 32q52 0 88.5 -29t56.5 -85.5t20 -139.5q0 -11 -0.5 -20.5t-1.5 -18.5h-282v79h211l-26 -34q-1 86 -18 123.5t-49 37.5q-23 0 -39.5 -19t-25 -58t-8.5 -100t8 -100.5t24 -59t38 -19.5
q23 0 39 22t20 63h103q-11 -76 -54 -124t-112 -48z" />
    <glyph glyph-name="Racute" unicode="&#x154;" horiz-adv-x="457" 
d="M57 0v720h166q61 0 106 -26.5t70 -73.5t25 -108t-24.5 -107.5t-70 -73t-106.5 -26.5h-77v89h71q42 0 67 32t25 85q0 52 -25 83.5t-67 31.5h-42v-626h-118zM322 0l-173 374h116l187 -374h-130zM240 793h-90l72 157h141z" />
    <glyph glyph-name="racute" unicode="&#x155;" horiz-adv-x="300" 
d="M51 0v510h109v-119h5v-391h-114zM165 303l-16 85q17 70 46 101t70 31q11 0 20 -3v-114q-3 1 -9 1.5t-15 0.5q-44 0 -70 -25t-26 -77zM176 583h-90l72 157h141z" />
    <glyph glyph-name="uni0156" unicode="&#x156;" horiz-adv-x="457" 
d="M57 0v720h166q61 0 106 -26.5t70 -73.5t25 -108t-24.5 -107.5t-70 -73t-106.5 -26.5h-77v89h71q42 0 67 32t25 85q0 52 -25 83.5t-67 31.5h-42v-626h-118zM322 0l-173 374h116l187 -374h-130zM166 -317v54q32 6 47.5 24t15.5 52l42 -8h-105v122h125v-90q0 -62 -33 -102
t-92 -52z" />
    <glyph glyph-name="uni0157" unicode="&#x157;" horiz-adv-x="300" 
d="M51 0v510h109v-119h5v-391h-114zM165 303l-16 85q17 70 46 101t70 31q11 0 20 -3v-114q-3 1 -9 1.5t-15 0.5q-44 0 -70 -25t-26 -77zM42 -317v54q32 6 47.5 24t15.5 52l42 -8h-105v122h125v-90q0 -62 -33 -102t-92 -52z" />
    <glyph glyph-name="Rcaron" unicode="&#x158;" horiz-adv-x="457" 
d="M57 0v720h166q61 0 106 -26.5t70 -73.5t25 -108t-24.5 -107.5t-70 -73t-106.5 -26.5h-77v89h71q42 0 67 32t25 85q0 52 -25 83.5t-67 31.5h-42v-626h-118zM322 0l-173 374h116l187 -374h-130zM175 793l-105 157h82l119 -124h-86l120 124h82l-106 -157h-106z" />
    <glyph glyph-name="rcaron" unicode="&#x159;" horiz-adv-x="300" 
d="M51 0v510h109v-119h5v-391h-114zM165 303l-16 85q17 70 46 101t70 31q11 0 20 -3v-114q-3 1 -9 1.5t-15 0.5q-44 0 -70 -25t-26 -77zM111 583l-105 157h82l119 -124h-86l120 124h82l-106 -157h-106z" />
    <glyph glyph-name="Sacute" unicode="&#x15a;" horiz-adv-x="441" 
d="M228 -10q-98 0 -149.5 63.5t-51.5 176.5h111q0 -70 25.5 -108t69.5 -38q33 0 52 21t19 61q0 33 -16 63t-53 58l-81 63q-53 42 -79 92t-26 108q0 57 22 97.5t62 61.5t96 21q88 0 134.5 -55.5t46.5 -160.5h-109q0 64 -19 93t-56 29q-30 0 -47.5 -18.5t-17.5 -55.5
q0 -34 16.5 -61.5t51.5 -55.5l80 -63q57 -44 81.5 -96.5t24.5 -111.5q0 -87 -50.5 -135.5t-136.5 -48.5zM241 793h-90l72 157h141z" />
    <glyph glyph-name="sacute" unicode="&#x15b;" horiz-adv-x="353" 
d="M183 -10q-74 0 -115 44t-45 123h94q3 -40 21 -60.5t47 -20.5q24 0 37 12.5t13 36.5q0 19 -10 36t-42 37l-59 37q-40 26 -62 61t-22 84q0 62 39 101t103 39q67 0 104.5 -39.5t41.5 -111.5h-94q-3 35 -15.5 50t-33.5 15t-33.5 -12t-12.5 -35q0 -18 10.5 -34.5t38.5 -34.5
l64 -40q37 -23 59.5 -61t22.5 -87q0 -63 -40 -101.5t-111 -38.5zM188 583h-90l72 157h141z" />
    <glyph glyph-name="Scedilla" unicode="&#x15e;" horiz-adv-x="441" 
d="M228 -10q-98 0 -149.5 63.5t-51.5 176.5h111q0 -70 25.5 -108t69.5 -38q33 0 52 21t19 61q0 33 -16 63t-53 58l-81 63q-53 42 -79 92t-26 108q0 57 22 97.5t62 61.5t96 21q88 0 134.5 -55.5t46.5 -160.5h-109q0 64 -19 93t-56 29q-30 0 -47.5 -18.5t-17.5 -55.5
q0 -34 16.5 -61.5t51.5 -55.5l80 -63q57 -44 81.5 -96.5t24.5 -111.5q0 -87 -50.5 -135.5t-136.5 -48.5zM222 -215q-46 0 -73.5 24t-29.5 64h65q2 -13 13 -21.5t26 -8.5t24.5 8t9.5 22q0 18 -18 29.5t-57 14.5l17 95h62l-9 -53q35 -10 53.5 -33.5t18.5 -53.5
q0 -40 -28.5 -63.5t-73.5 -23.5z" />
    <glyph glyph-name="scedilla" unicode="&#x15f;" horiz-adv-x="353" 
d="M183 -10q-74 0 -115 44t-45 123h94q3 -40 21 -60.5t47 -20.5q24 0 37 12.5t13 36.5q0 19 -10 36t-42 37l-59 37q-40 26 -62 61t-22 84q0 62 39 101t103 39q67 0 104.5 -39.5t41.5 -111.5h-94q-3 35 -15.5 50t-33.5 15t-33.5 -12t-12.5 -35q0 -18 10.5 -34.5t38.5 -34.5
l64 -40q37 -23 59.5 -61t22.5 -87q0 -63 -40 -101.5t-111 -38.5zM178 -215q-46 0 -73.5 24t-29.5 64h65q2 -13 13 -21.5t26 -8.5t24.5 8t9.5 22q0 18 -18 29.5t-57 14.5l17 95h62l-9 -53q35 -10 53.5 -33.5t18.5 -53.5q0 -40 -28.5 -63.5t-73.5 -23.5z" />
    <glyph glyph-name="Scaron" unicode="&#x160;" horiz-adv-x="441" 
d="M228 -10q-98 0 -149.5 63.5t-51.5 176.5h111q0 -70 25.5 -108t69.5 -38q33 0 52 21t19 61q0 33 -16 63t-53 58l-81 63q-53 42 -79 92t-26 108q0 57 22 97.5t62 61.5t96 21q88 0 134.5 -55.5t46.5 -160.5h-109q0 64 -19 93t-56 29q-30 0 -47.5 -18.5t-17.5 -55.5
q0 -34 16.5 -61.5t51.5 -55.5l80 -63q57 -44 81.5 -96.5t24.5 -111.5q0 -87 -50.5 -135.5t-136.5 -48.5zM177 793l-105 157h82l119 -124h-86l120 124h82l-106 -157h-106z" />
    <glyph glyph-name="scaron" unicode="&#x161;" horiz-adv-x="353" 
d="M183 -10q-74 0 -115 44t-45 123h94q3 -40 21 -60.5t47 -20.5q24 0 37 12.5t13 36.5q0 19 -10 36t-42 37l-59 37q-40 26 -62 61t-22 84q0 62 39 101t103 39q67 0 104.5 -39.5t41.5 -111.5h-94q-3 35 -15.5 50t-33.5 15t-33.5 -12t-12.5 -35q0 -18 10.5 -34.5t38.5 -34.5
l64 -40q37 -23 59.5 -61t22.5 -87q0 -63 -40 -101.5t-111 -38.5zM124 583l-105 157h82l119 -124h-86l120 124h82l-106 -157h-106z" />
    <glyph glyph-name="Tcaron" unicode="&#x164;" horiz-adv-x="425" 
d="M153 0v626h-140v94h398v-94h-140v-626h-118zM159 793l-105 157h82l119 -124h-86l120 124h82l-106 -157h-106z" />
    <glyph glyph-name="tcaron" unicode="&#x165;" horiz-adv-x="298" 
d="M219 -10q-72 0 -107 34.5t-35 104.5v477l114 50v-526q0 -25 13.5 -37t42.5 -12q11 0 20.5 2t16.5 6v-88q-10 -6 -27.5 -8.5t-37.5 -2.5zM11 419v91h270v-91h-270zM317 543h-73v230h99z" />
    <glyph glyph-name="Umacron" unicode="&#x16a;" horiz-adv-x="491" 
d="M245 -10q-94 0 -143.5 57t-49.5 154v519h118v-543q0 -46 20 -68.5t55 -22.5q36 0 56 22t20 69v543h118v-519q0 -97 -49.5 -154t-144.5 -57zM105 840v82h280v-82h-280z" />
    <glyph glyph-name="umacron" unicode="&#x16b;" horiz-adv-x="447" 
d="M160 -10q-34 0 -60 14.5t-39.5 43t-13.5 68.5v394h114v-369q0 -28 13 -42.5t36 -14.5q22 0 38 12.5t25 33t9 43.5l15 -79q-19 -49 -54 -76.5t-83 -27.5zM288 0v95h-6v415h115v-510h-109zM83 630v82h280v-82h-280z" />
    <glyph glyph-name="Ubreve" unicode="&#x16c;" horiz-adv-x="491" 
d="M245 -10q-94 0 -143.5 57t-49.5 154v519h118v-543q0 -46 20 -68.5t55 -22.5q36 0 56 22t20 69v543h118v-519q0 -97 -49.5 -154t-144.5 -57zM246 786q-39 0 -73 19t-54.5 55.5t-20.5 89.5h75q0 -32 18.5 -55.5t54.5 -23.5q35 0 54 23.5t19 55.5h74q0 -53 -20.5 -89.5
t-54 -55.5t-72.5 -19z" />
    <glyph glyph-name="ubreve" unicode="&#x16d;" horiz-adv-x="447" 
d="M160 -10q-34 0 -60 14.5t-39.5 43t-13.5 68.5v394h114v-369q0 -28 13 -42.5t36 -14.5q22 0 38 12.5t25 33t9 43.5l15 -79q-19 -49 -54 -76.5t-83 -27.5zM288 0v95h-6v415h115v-510h-109zM224 576q-39 0 -73 19t-54.5 55.5t-20.5 89.5h75q0 -32 18.5 -55.5t54.5 -23.5
q35 0 54 23.5t19 55.5h74q0 -53 -20.5 -89.5t-54 -55.5t-72.5 -19z" />
    <glyph glyph-name="Uring" unicode="&#x16e;" horiz-adv-x="491" 
d="M245 -10q-94 0 -143.5 57t-49.5 154v519h118v-543q0 -46 20 -68.5t55 -22.5q36 0 56 22t20 69v543h118v-519q0 -97 -49.5 -154t-144.5 -57zM245 771q-46 0 -77 31.5t-31 76.5q0 44 31 75.5t77 31.5t76.5 -31.5t30.5 -75.5q0 -45 -30.5 -76.5t-76.5 -31.5zM246 830
q20 0 32.5 14.5t12.5 34.5t-13 34t-33 14q-21 0 -34 -14t-13 -34t13 -34.5t35 -14.5z" />
    <glyph glyph-name="uring" unicode="&#x16f;" horiz-adv-x="447" 
d="M160 -10q-34 0 -60 14.5t-39.5 43t-13.5 68.5v394h114v-369q0 -28 13 -42.5t36 -14.5q22 0 38 12.5t25 33t9 43.5l15 -79q-19 -49 -54 -76.5t-83 -27.5zM288 0v95h-6v415h115v-510h-109zM224 561q-46 0 -77 31.5t-31 76.5q0 44 31 75.5t77 31.5t76.5 -31.5t30.5 -75.5
q0 -45 -30.5 -76.5t-76.5 -31.5zM225 620q20 0 32.5 14.5t12.5 34.5t-13 34t-33 14q-21 0 -34 -14t-13 -34t13 -34.5t35 -14.5z" />
    <glyph glyph-name="Uhungarumlaut" unicode="&#x170;" horiz-adv-x="491" 
d="M245 -10q-94 0 -143.5 57t-49.5 154v519h118v-543q0 -46 20 -68.5t55 -22.5q36 0 56 22t20 69v543h118v-519q0 -97 -49.5 -154t-144.5 -57zM191 793h-82l42 157h119zM363 793h-81l42 157h119z" />
    <glyph glyph-name="uhungarumlaut" unicode="&#x171;" horiz-adv-x="447" 
d="M160 -10q-34 0 -60 14.5t-39.5 43t-13.5 68.5v394h114v-369q0 -28 13 -42.5t36 -14.5q22 0 38 12.5t25 33t9 43.5l15 -79q-19 -49 -54 -76.5t-83 -27.5zM288 0v95h-6v415h115v-510h-109zM170 583h-82l42 157h119zM342 583h-81l42 157h119z" />
    <glyph glyph-name="Uogonek" unicode="&#x172;" horiz-adv-x="491" 
d="M245 -10q-94 0 -143.5 57t-49.5 154v519h118v-543q0 -46 20 -68.5t55 -22.5q36 0 56 22t20 69v543h118v-519q0 -97 -49.5 -154t-144.5 -57zM288 -196q-42 0 -65 22t-23 59q0 44 34 83t86 69l37 -17q-44 -36 -67 -66.5t-23 -59.5q0 -17 9 -24.5t21 -7.5q18 0 36 15l27 -50
q-14 -11 -32 -17t-40 -6z" />
    <glyph glyph-name="uogonek" unicode="&#x173;" horiz-adv-x="447" 
d="M160 -10q-34 0 -60 14.5t-39.5 43t-13.5 68.5v394h114v-369q0 -28 13 -42.5t36 -14.5q22 0 38 12.5t25 33t9 43.5l15 -79q-19 -49 -54 -76.5t-83 -27.5zM288 0v95h-6v415h115v-510h-109zM327 -216q-42 0 -65 22t-23 59q0 44 34 83t86 69l37 -17q-44 -36 -67 -66.5
t-23 -59.5q0 -17 9 -24.5t21 -7.5q18 0 36 15l27 -50q-14 -11 -32 -17t-40 -6z" />
    <glyph glyph-name="Wcircumflex" unicode="&#x174;" horiz-adv-x="660" 
d="M117 0l-91 720h112l66 -670h-14l79 670h126l80 -670h-15l67 670h107l-91 -720h-146l-77 667h21l-78 -667h-146zM171 793l105 157h106l106 -157h-82l-120 124h86l-119 -124h-82z" />
    <glyph glyph-name="wcircumflex" unicode="&#x175;" horiz-adv-x="647" 
d="M139 0l-113 510h113l67 -383h-11l77 383h107l78 -383h-11l65 383h110l-113 -510h-116l-74 377h12l-75 -377h-116zM165 583l105 157h106l106 -157h-82l-120 124h86l-119 -124h-82z" />
    <glyph glyph-name="Ycircumflex" unicode="&#x176;" horiz-adv-x="488" 
d="M185 0v316l-176 404h130l141 -363h-55l139 363h115l-176 -404v-316h-118zM85 793l105 157h106l106 -157h-82l-120 124h86l-119 -124h-82z" />
    <glyph glyph-name="ycircumflex" unicode="&#x177;" horiz-adv-x="413" 
d="M99 -205l77 287l19 28l89 400h113l-190 -715h-108zM171 -9l-155 519h122l103 -444zM54 583l105 157h106l106 -157h-82l-120 124h86l-119 -124h-82z" />
    <glyph glyph-name="Ydieresis" unicode="&#x178;" horiz-adv-x="488" 
d="M185 0v316l-176 404h130l141 -363h-55l139 363h115l-176 -404v-316h-118zM284 805v125h122v-125h-122zM82 805v125h122v-125h-122z" />
    <glyph glyph-name="Zacute" unicode="&#x179;" horiz-adv-x="453" 
d="M49 0v84l228 564l18 -22h-237v94h346v-71l-236 -577l-19 22h259v-94h-359zM238 793h-90l72 157h141z" />
    <glyph glyph-name="zacute" unicode="&#x17a;" horiz-adv-x="381" 
d="M33 0v81l190 357l16 -19h-197v91h306v-68l-198 -370l-16 19h218v-91h-319zM202 583h-90l72 157h141z" />
    <glyph glyph-name="Zdotaccent" unicode="&#x17b;" horiz-adv-x="453" 
d="M49 0v84l228 564l18 -22h-237v94h346v-71l-236 -577l-19 22h259v-94h-359zM165 803v127h124v-127h-124z" />
    <glyph glyph-name="zdotaccent" unicode="&#x17c;" horiz-adv-x="381" 
d="M33 0v81l190 357l16 -19h-197v91h306v-68l-198 -370l-16 19h218v-91h-319zM129 593v127h124v-127h-124z" />
    <glyph glyph-name="Zcaron" unicode="&#x17d;" horiz-adv-x="453" 
d="M49 0v84l228 564l18 -22h-237v94h346v-71l-236 -577l-19 22h259v-94h-359zM173 793l-105 157h82l119 -124h-86l120 124h82l-106 -157h-106z" />
    <glyph glyph-name="zcaron" unicode="&#x17e;" horiz-adv-x="381" 
d="M33 0v81l190 357l16 -19h-197v91h306v-68l-198 -370l-16 19h218v-91h-319zM138 583l-105 157h82l119 -124h-86l120 124h82l-106 -157h-106z" />
    <glyph glyph-name="uni01CD" unicode="&#x1cd;" horiz-adv-x="476" 
d="M16 0l146 720h88l-124 -720h-110zM341 0l-123 720h96l146 -720h-119zM109 268h258v-93h-258v93zM185 793l-105 157h82l119 -124h-86l120 124h82l-106 -157h-106z" />
    <glyph glyph-name="uni01CE" unicode="&#x1ce;" horiz-adv-x="408" 
d="M267 0q-6 18 -8.5 39.5t-2.5 45.5h-5v281q0 35 -12.5 51t-36.5 16q-27 0 -41 -20t-14 -55h-101q0 71 44 116.5t121 45.5q72 0 111.5 -40t39.5 -113v-282q0 -21 2 -42.5t8 -42.5h-105zM145 -10q-48 0 -79 35t-31 95q0 54 25.5 91.5t88.5 68.5l129 65v-88l-70 -37
q-33 -17 -48 -38.5t-15 -49.5q0 -27 13.5 -41t35.5 -14q25 0 41 17.5t16 44.5l10 -63q-15 -44 -45 -65t-71 -21zM151 583l-105 157h82l119 -124h-86l120 124h82l-106 -157h-106z" />
    <glyph glyph-name="uni0218" unicode="&#x218;" horiz-adv-x="441" 
d="M228 -10q-98 0 -149.5 63.5t-51.5 176.5h111q0 -70 25.5 -108t69.5 -38q33 0 52 21t19 61q0 33 -16 63t-53 58l-81 63q-53 42 -79 92t-26 108q0 57 22 97.5t62 61.5t96 21q88 0 134.5 -55.5t46.5 -160.5h-109q0 64 -19 93t-56 29q-30 0 -47.5 -18.5t-17.5 -55.5
q0 -34 16.5 -61.5t51.5 -55.5l80 -63q57 -44 81.5 -96.5t24.5 -111.5q0 -87 -50.5 -135.5t-136.5 -48.5zM167 -317v54q32 6 47.5 24t15.5 52l42 -8h-105v122h125v-90q0 -62 -33 -102t-92 -52z" />
    <glyph glyph-name="uni0219" unicode="&#x219;" horiz-adv-x="353" 
d="M183 -10q-74 0 -115 44t-45 123h94q3 -40 21 -60.5t47 -20.5q24 0 37 12.5t13 36.5q0 19 -10 36t-42 37l-59 37q-40 26 -62 61t-22 84q0 62 39 101t103 39q67 0 104.5 -39.5t41.5 -111.5h-94q-3 35 -15.5 50t-33.5 15t-33.5 -12t-12.5 -35q0 -18 10.5 -34.5t38.5 -34.5
l64 -40q37 -23 59.5 -61t22.5 -87q0 -63 -40 -101.5t-111 -38.5zM124 -317v54q32 6 47.5 24t15.5 52l42 -8h-105v122h125v-90q0 -62 -33 -102t-92 -52z" />
    <glyph glyph-name="uni021A" unicode="&#x21a;" horiz-adv-x="425" 
d="M153 0v626h-140v94h398v-94h-140v-626h-118zM150 -317v54q32 6 47.5 24t15.5 52l42 -8h-105v122h125v-90q0 -62 -33 -102t-92 -52z" />
    <glyph glyph-name="uni021B" unicode="&#x21b;" horiz-adv-x="298" 
d="M219 -10q-72 0 -107 34.5t-35 104.5v477l114 50v-526q0 -25 13.5 -37t42.5 -12q11 0 20.5 2t16.5 6v-88q-10 -6 -27.5 -8.5t-37.5 -2.5zM11 419v91h270v-91h-270zM129 -317v54q32 6 47.5 24t15.5 52l42 -8h-105v122h125v-90q0 -62 -33 -102t-92 -52z" />
    <glyph glyph-name="uni0237" unicode="&#x237;" horiz-adv-x="216" 
d="M32 -215q-18 0 -30 1.5t-22 4.5v89l12.5 -2.5t16.5 -1.5q19 0 30.5 8.5t11.5 28.5v597h114v-605q0 -56 -33.5 -88t-99.5 -32z" />
    <glyph glyph-name="circumflex" unicode="&#x2c6;" horiz-adv-x="433" 
d="M60 583l105 157h106l106 -157h-82l-120 124h86l-119 -124h-82z" />
    <glyph glyph-name="caron" unicode="&#x2c7;" horiz-adv-x="433" 
d="M165 583l-105 157h82l119 -124h-86l120 124h82l-106 -157h-106z" />
    <glyph glyph-name="breve" unicode="&#x2d8;" horiz-adv-x="408" 
d="M208 576q-39 0 -73 19t-54.5 55.5t-20.5 89.5h75q0 -32 18.5 -55.5t54.5 -23.5q35 0 54 23.5t19 55.5h74q0 -53 -20.5 -89.5t-54 -55.5t-72.5 -19z" />
    <glyph glyph-name="dotaccent" unicode="&#x2d9;" horiz-adv-x="244" 
d="M60 593v127h124v-127h-124z" />
    <glyph glyph-name="ring" unicode="&#x2da;" horiz-adv-x="335" 
d="M168 561q-46 0 -77 31.5t-31 76.5q0 44 31 75.5t77 31.5t76.5 -31.5t30.5 -75.5q0 -45 -30.5 -76.5t-76.5 -31.5zM169 620q20 0 32.5 14.5t12.5 34.5t-13 34t-33 14q-21 0 -34 -14t-13 -34t13 -34.5t35 -14.5z" />
    <glyph glyph-name="ogonek" unicode="&#x2db;" horiz-adv-x="269" 
d="M148 -216q-42 0 -65 22t-23 59q0 44 34 83t86 69l37 -17q-44 -36 -67 -66.5t-23 -59.5q0 -17 9 -24.5t21 -7.5q18 0 36 15l27 -50q-14 -11 -32 -17t-40 -6z" />
    <glyph glyph-name="tilde" unicode="&#x2dc;" horiz-adv-x="452" 
d="M289 601q-25 0 -42.5 7.5t-30 17.5t-25 17.5t-27.5 7.5t-25 -10t-10 -33h-69q0 38 12.5 66.5t36 44.5t55.5 16q26 0 42.5 -7.5t28.5 -17.5t23.5 -17.5t27.5 -7.5q15 0 25.5 10t10.5 34h68q0 -38 -12.5 -67t-35.5 -45t-53 -16z" />
    <glyph glyph-name="hungarumlaut" unicode="&#x2dd;" horiz-adv-x="414" 
d="M142 583h-82l42 157h119zM314 583h-81l42 157h119z" />
    <glyph glyph-name="gravecomb" unicode="&#x300;" horiz-adv-x="0" 
d="M183 583l-123 157h141l72 -157h-90z" />
    <glyph glyph-name="acutecomb" unicode="&#x301;" horiz-adv-x="0" 
d="M150 583h-90l72 157h141z" />
    <glyph glyph-name="uni0302" unicode="&#x302;" horiz-adv-x="0" 
d="M60 583l105 157h106l106 -157h-82l-120 124h86l-119 -124h-82z" />
    <glyph glyph-name="tildecomb" unicode="&#x303;" horiz-adv-x="0" 
d="M289 601q-25 0 -42.5 7.5t-30 17.5t-25 17.5t-27.5 7.5t-25 -10t-10 -33h-69q0 38 12.5 66.5t36 44.5t55.5 16q26 0 42.5 -7.5t28.5 -17.5t23.5 -17.5t27.5 -7.5q15 0 25.5 10t10.5 34h68q0 -38 -12.5 -67t-35.5 -45t-53 -16z" />
    <glyph glyph-name="uni0304" unicode="&#x304;" horiz-adv-x="0" 
d="M60 630v82h280v-82h-280z" />
    <glyph glyph-name="uni0306" unicode="&#x306;" horiz-adv-x="0" 
d="M208 576q-39 0 -73 19t-54.5 55.5t-20.5 89.5h75q0 -32 18.5 -55.5t54.5 -23.5q35 0 54 23.5t19 55.5h74q0 -53 -20.5 -89.5t-54 -55.5t-72.5 -19z" />
    <glyph glyph-name="uni0307" unicode="&#x307;" horiz-adv-x="0" 
d="M60 593v127h124v-127h-124z" />
    <glyph glyph-name="uni0308" unicode="&#x308;" horiz-adv-x="0" 
d="M262 595v125h122v-125h-122zM60 595v125h122v-125h-122z" />
    <glyph glyph-name="uni030A" unicode="&#x30a;" horiz-adv-x="0" 
d="M168 561q-46 0 -77 31.5t-31 76.5q0 44 31 75.5t77 31.5t76.5 -31.5t30.5 -75.5q0 -45 -30.5 -76.5t-76.5 -31.5zM169 620q20 0 32.5 14.5t12.5 34.5t-13 34t-33 14q-21 0 -34 -14t-13 -34t13 -34.5t35 -14.5z" />
    <glyph glyph-name="uni030B" unicode="&#x30b;" horiz-adv-x="0" 
d="M142 583h-82l42 157h119zM314 583h-81l42 157h119z" />
    <glyph glyph-name="uni030C" unicode="&#x30c;" horiz-adv-x="0" 
d="M165 583l-105 157h82l119 -124h-86l120 124h82l-106 -157h-106z" />
    <glyph glyph-name="uni0312" unicode="&#x312;" horiz-adv-x="0" 
d="M67 583v90q0 62 33 102t92 52v-54q-32 -5 -47.5 -23.5t-15.5 -52.5l-42 8h105v-122h-125z" />
    <glyph glyph-name="uni0326" unicode="&#x326;" horiz-adv-x="0" 
d="M67 -317v54q32 6 47.5 24t15.5 52l42 -8h-105v122h125v-90q0 -62 -33 -102t-92 -52z" />
    <glyph glyph-name="uni0327" unicode="&#x327;" horiz-adv-x="0" 
d="M163 -215q-46 0 -73.5 24t-29.5 64h65q2 -13 13 -21.5t26 -8.5t24.5 8t9.5 22q0 18 -18 29.5t-57 14.5l17 95h62l-9 -53q35 -10 53.5 -33.5t18.5 -53.5q0 -40 -28.5 -63.5t-73.5 -23.5z" />
    <glyph glyph-name="uni0328" unicode="&#x328;" horiz-adv-x="0" 
d="M148 -216q-42 0 -65 22t-23 59q0 44 34 83t86 69l37 -17q-44 -36 -67 -66.5t-23 -59.5q0 -17 9 -24.5t21 -7.5q18 0 36 15l27 -50q-14 -11 -32 -17t-40 -6z" />
    <glyph glyph-name="Wgrave" unicode="&#x1e80;" horiz-adv-x="660" 
d="M117 0l-91 720h112l66 -670h-14l79 670h126l80 -670h-15l67 670h107l-91 -720h-146l-77 667h21l-78 -667h-146zM319 793l-123 157h141l72 -157h-90z" />
    <glyph glyph-name="wgrave" unicode="&#x1e81;" horiz-adv-x="647" 
d="M139 0l-113 510h113l67 -383h-11l77 383h107l78 -383h-11l65 383h110l-113 -510h-116l-74 377h12l-75 -377h-116zM313 583l-123 157h141l72 -157h-90z" />
    <glyph glyph-name="Wacute" unicode="&#x1e82;" horiz-adv-x="660" 
d="M117 0l-91 720h112l66 -670h-14l79 670h126l80 -670h-15l67 670h107l-91 -720h-146l-77 667h21l-78 -667h-146zM342 793h-90l72 157h141z" />
    <glyph glyph-name="wacute" unicode="&#x1e83;" horiz-adv-x="647" 
d="M139 0l-113 510h113l67 -383h-11l77 383h107l78 -383h-11l65 383h110l-113 -510h-116l-74 377h12l-75 -377h-116zM335 583h-90l72 157h141z" />
    <glyph glyph-name="Wdieresis" unicode="&#x1e84;" horiz-adv-x="660" 
d="M117 0l-91 720h112l66 -670h-14l79 670h126l80 -670h-15l67 670h107l-91 -720h-146l-77 667h21l-78 -667h-146zM370 805v125h122v-125h-122zM168 805v125h122v-125h-122z" />
    <glyph glyph-name="wdieresis" unicode="&#x1e85;" horiz-adv-x="647" 
d="M139 0l-113 510h113l67 -383h-11l77 383h107l78 -383h-11l65 383h110l-113 -510h-116l-74 377h12l-75 -377h-116zM363 595v125h122v-125h-122zM161 595v125h122v-125h-122z" />
    <glyph glyph-name="uni1E9E" unicode="&#x1e9e;" horiz-adv-x="500" 
d="M287 -9q-20 0 -38 2.5t-31 6.5v92q12 -3 26 -5t31 -2q40 0 61 25.5t21 71.5q0 45 -24.5 84t-79.5 78l-30 22l142 276l7 -65q-18 27 -43 43.5t-62 16.5q-43 0 -67.5 -28t-24.5 -88v-521h-118v514q0 104 54 160.5t155 56.5q65 0 117.5 -25t91.5 -75l-135 -260l-33 65
q81 -54 124.5 -119t43.5 -142q0 -54 -22.5 -95.5t-64.5 -65t-101 -23.5z" />
    <glyph glyph-name="Ygrave" unicode="&#x1ef2;" horiz-adv-x="488" 
d="M185 0v316l-176 404h130l141 -363h-55l139 363h115l-176 -404v-316h-118zM233 793l-123 157h141l72 -157h-90z" />
    <glyph glyph-name="ygrave" unicode="&#x1ef3;" horiz-adv-x="413" 
d="M99 -205l77 287l19 28l89 400h113l-190 -715h-108zM171 -9l-155 519h122l103 -444zM202 583l-123 157h141l72 -157h-90z" />
    <glyph glyph-name="endash" unicode="&#x2013;" horiz-adv-x="451" 
d="M51 226v92h349v-92h-349z" />
    <glyph glyph-name="emdash" unicode="&#x2014;" horiz-adv-x="651" 
d="M51 226v92h549v-92h-549z" />
    <glyph glyph-name="quoteleft" unicode="&#x2018;" horiz-adv-x="232" 
d="M49 470v94q0 66 34.5 115t103.5 61v-58q-35 -5 -53 -29.5t-18 -65.5l-46 11h114v-128h-135z" />
    <glyph glyph-name="quoteright" unicode="&#x2019;" horiz-adv-x="232" 
d="M45 472v59q35 5 53 29.5t18 65.5l46 -11h-113v127h135v-94q0 -66 -35 -115t-104 -61z" />
    <glyph glyph-name="quotesinglbase" unicode="&#x201a;" horiz-adv-x="230" 
d="M45 -178v59q40 12 54.5 36t14.5 65l45 -10h-114v136h136v-100q0 -68 -33.5 -117.5t-102.5 -68.5z" />
    <glyph glyph-name="quotedblleft" unicode="&#x201c;" horiz-adv-x="416" 
d="M232 470v94q0 66 34.5 115t103.5 61v-58q-35 -5 -53 -29.5t-18 -65.5l-46 11h114v-128h-135zM49 470v94q0 66 34.5 115t103.5 61v-58q-35 -5 -53 -29.5t-18 -65.5l-46 11h114v-128h-135z" />
    <glyph glyph-name="quotedblright" unicode="&#x201d;" horiz-adv-x="416" 
d="M228 472v59q35 5 53 29.5t18 65.5l46 -11h-113v127h135v-94q0 -66 -35 -115t-104 -61zM45 472v59q35 5 53 29.5t18 65.5l46 -11h-113v127h135v-94q0 -66 -35 -115t-104 -61z" />
    <glyph glyph-name="quotedblbase" unicode="&#x201e;" horiz-adv-x="413" 
d="M228 -178v59q40 12 54.5 36t14.5 65l45 -10h-114v136h136v-100q0 -68 -33.5 -117.5t-102.5 -68.5zM45 -178v59q40 12 54.5 36t14.5 65l45 -10h-114v136h136v-100q0 -68 -33.5 -117.5t-102.5 -68.5z" />
    <glyph glyph-name="bullet" unicode="&#x2022;" horiz-adv-x="289" 
d="M48 266v193h193v-193h-193z" />
    <glyph glyph-name="ellipsis" unicode="&#x2026;" horiz-adv-x="606" 
d="M48 0v136h136v-136h-136zM235 0v136h136v-136h-136zM421 0v136h136v-136h-136z" />
    <glyph glyph-name="perthousand" unicode="&#x2030;" horiz-adv-x="747" 
d="M154 381q-34 0 -62.5 19t-45 58t-16.5 98t16.5 97.5t44.5 57.5t63 19q53 0 88.5 -42.5t35.5 -131.5q0 -59 -17 -98t-45 -58t-62 -19zM154 445q27 0 43 28.5t16 83.5q0 53 -16 81t-43 28t-43 -28t-16 -81q0 -55 16 -83.5t43 -28.5zM45 0l401 720h76l-400 -720h-77z
M410 -10q-33 0 -61.5 19t-45 58t-16.5 98t16.5 97.5t44.5 57.5t62 19q54 0 84.5 -42.5t30.5 -131.5t-31.5 -132t-83.5 -43zM411 54q26 0 42.5 28.5t16.5 83.5q0 53 -16 81t-43 28q-28 0 -43.5 -28t-15.5 -81q0 -55 15.5 -83.5t43.5 -28.5zM593 54q28 0 43.5 28.5t15.5 83.5
q0 54 -15.5 81.5t-43.5 27.5q-27 0 -43 -28t-16 -81q0 -55 16.5 -83.5t42.5 -28.5zM594 -10q-52 0 -83.5 43t-31.5 132t31 131.5t83 42.5q35 0 63 -19t44.5 -57t16.5 -98q0 -59 -16.5 -98t-44.5 -58t-62 -19z" />
    <glyph glyph-name="guilsinglleft" unicode="&#x2039;" horiz-adv-x="284" 
d="M140 68l-102 183l102 183h96l-98 -183l98 -183h-96z" />
    <glyph glyph-name="guilsinglright" unicode="&#x203a;" horiz-adv-x="284" 
d="M144 68h-96l98 183l-98 183h96l102 -183z" />
    <glyph glyph-name="Euro" unicode="&#x20ac;" horiz-adv-x="497" 
d="M280 -10q-53 0 -94 24.5t-69 71.5t-42.5 116t-14.5 159q0 89 14.5 158t43 116t70 71t94.5 24q52 0 91 -22t63.5 -64t30.5 -102h-114q-2 48 -21.5 70t-52.5 22t-55 -27.5t-33 -87t-11 -155.5q0 -97 11.5 -158.5t33.5 -90.5t55 -29q31 0 50 22.5t21 69.5h115
q-6 -59 -31 -101.5t-64 -64.5t-91 -22zM0 385l14 85h374l-14 -85h-374zM0 252l14 85h352l-14 -85h-352z" />
    <glyph glyph-name="trademark" unicode="&#x2122;" horiz-adv-x="624" 
d="M109 360v345h77v-345h-77zM43 656v64h208v-64h-208zM273 360v360h107l74 -338h-54l73 338h108v-360h-75v311h12l-66 -311h-54l-67 311h12v-311h-70z" />
    <glyph glyph-name="arrowleft" unicode="&#x2190;" horiz-adv-x="709" 
d="M649 310h-488l43 42l321 -322h-137l-328 330l328 330h137l-321 -322l-43 42h488v-100z" />
    <glyph glyph-name="arrowup" unicode="&#x2191;" horiz-adv-x="780" 
d="M340 66v487l42 -43l-322 -321v137l330 328l330 -328v-137l-322 321l42 43v-487h-100z" />
    <glyph glyph-name="arrowright" unicode="&#x2192;" horiz-adv-x="709" 
d="M60 410h487l-42 -42l-322 322h138l328 -330l-328 -330h-138l322 322l42 -42h-487v100z" />
    <glyph glyph-name="arrowdown" unicode="&#x2193;" horiz-adv-x="780" 
d="M340 654h100v-487l-42 43l322 321v-137l-330 -328l-330 328v137l322 -321l-42 -43v487z" />
    <glyph glyph-name="arrowboth" unicode="&#x2194;" horiz-adv-x="1082" 
d="M388 30l-328 330l328 330h137l-279 -280h590l-279 280h137l328 -330l-328 -330h-137l279 280h-590l279 -280h-137z" />
    <glyph glyph-name="arrowupdn" unicode="&#x2195;" horiz-adv-x="780" 
d="M390 -121l-330 328v137l280 -279v590l-280 -279v137l330 328l330 -328v-137l-280 279v-590l280 279v-137z" />
    <glyph glyph-name="uni2196" unicode="&#x2196;" horiz-adv-x="684" 
d="M443 189l-345 345l60 -1v-455l-98 97l2 466l465 1l97 -97l-455 -1v60l344 -345z" />
    <glyph glyph-name="uni2197" unicode="&#x2197;" horiz-adv-x="684" 
d="M171 259l345 345l-1 -60h-455l97 98l466 -2l1 -465l-97 -97l-1 454l60 1l-345 -345z" />
    <glyph glyph-name="uni2198" unicode="&#x2198;" horiz-adv-x="684" 
d="M241 531l345 -345l-60 1v455l98 -97l-2 -466l-465 -1l-97 97l455 1v-60l-344 345z" />
    <glyph glyph-name="uni2199" unicode="&#x2199;" horiz-adv-x="684" 
d="M513 461l-345 -345v60h456l-97 -98l-466 2l-1 465l97 97v-454l-60 -1l345 345z" />
    <glyph glyph-name="minus" unicode="&#x2212;" horiz-adv-x="544" 
d="M53 329v84h438v-84h-438z" />
    <glyph glyph-name="Adieresis.ss01" horiz-adv-x="476" 
d="M16 0l146 720h88l-124 -720h-110zM341 0l-123 720h96l146 -720h-119zM109 268h258v-93h-258v93zM137 805q-28 0 -47.5 20t-19.5 49q0 30 19.5 49t47.5 19q29 0 48 -19.5t19 -48.5q0 -30 -19 -49.5t-48 -19.5zM339 805q-29 0 -48.5 20t-19.5 49q0 30 20 49t48 19
t47.5 -19.5t19.5 -48.5q0 -30 -19.5 -49.5t-47.5 -19.5z" />
    <glyph glyph-name="Cdotaccent.ss01" horiz-adv-x="489" 
d="M253 -10q-52 0 -93.5 24.5t-69.5 71.5t-42.5 116t-14.5 159q0 89 15 158t43 116t69.5 71t94.5 24q65 0 110.5 -34t69.5 -98.5t24 -155.5h-117q0 98 -22.5 145t-66.5 47q-33 0 -55.5 -27.5t-33.5 -87t-11 -155.5q0 -97 11.5 -158.5t34 -90.5t55.5 -29q42 0 64.5 48.5
t22.5 143.5h118q0 -90 -24.5 -154.5t-70.5 -99t-111 -34.5zM255 798q-31 0 -52.5 22t-21.5 54q0 33 21.5 53.5t52.5 20.5q32 0 53 -20.5t21 -53.5q0 -32 -21 -54t-53 -22z" />
    <glyph glyph-name="Edieresis.ss01" horiz-adv-x="418" 
d="M57 0v720h118v-720h-118zM119 0v94h257v-94h-257zM119 326v93h238v-93h-238zM119 626v94h249v-94h-249zM118 805q-28 0 -47.5 20t-19.5 49q0 30 19.5 49t47.5 19q29 0 48 -19.5t19 -48.5q0 -30 -19 -49.5t-48 -19.5zM320 805q-29 0 -48.5 20t-19.5 49q0 30 20 49t48 19
t47.5 -19.5t19.5 -48.5q0 -30 -19.5 -49.5t-47.5 -19.5z" />
    <glyph glyph-name="Edotaccent.ss01" horiz-adv-x="418" 
d="M57 0v720h118v-720h-118zM119 0v94h257v-94h-257zM119 326v93h238v-93h-238zM119 626v94h249v-94h-249zM219 798q-31 0 -52.5 22t-21.5 54q0 33 21.5 53.5t52.5 20.5q32 0 53 -20.5t21 -53.5q0 -32 -21 -54t-53 -22z" />
    <glyph glyph-name="uni0122.ss01" horiz-adv-x="502" 
d="M269 -10q-78 0 -131 40t-79 120t-26 201q0 123 26.5 207t77.5 128t125 44q63 0 107 -30.5t67 -88t23 -139.5h-117q0 84 -20.5 123t-62.5 39q-36 0 -59.5 -29.5t-35 -91t-11.5 -157.5q0 -98 13 -157.5t40.5 -86t71.5 -26.5q21 0 36.5 5.5t26.5 16.5l118 -31
q-28 -41 -78.5 -64t-111.5 -23zM341 75v250l31 -31h-117v94h204v-311zM217 -317v54q32 7 48 25t16 51h35q-8 -6 -20 -10.5t-22 -4.5q-30 0 -50 18.5t-20 48.5q0 31 20.5 50t46.5 19q30 0 51 -22.5t21 -74.5q0 -39 -15 -71t-43.5 -53t-67.5 -30z" />
    <glyph glyph-name="Gdotaccent.ss01" horiz-adv-x="502" 
d="M269 -10q-78 0 -131 40t-79 120t-26 201q0 123 26.5 207t77.5 128t125 44q63 0 107 -30.5t67 -88t23 -139.5h-117q0 84 -20.5 123t-62.5 39q-36 0 -59.5 -29.5t-35 -91t-11.5 -157.5q0 -98 13 -157.5t40.5 -86t71.5 -26.5q21 0 36.5 5.5t26.5 16.5l118 -31
q-28 -41 -78.5 -64t-111.5 -23zM341 75v250l31 -31h-117v94h204v-311zM262 798q-31 0 -52.5 22t-21.5 54q0 33 21.5 53.5t52.5 20.5q32 0 53 -20.5t21 -53.5q0 -32 -21 -54t-53 -22z" />
    <glyph glyph-name="Idieresis.ss01" horiz-adv-x="231" 
d="M57 0v720h118v-720h-118zM14 805q-28 0 -47.5 20t-19.5 49q0 30 19.5 49t47.5 19q29 0 48 -19.5t19 -48.5q0 -30 -19 -49.5t-48 -19.5zM216 805q-29 0 -48.5 20t-19.5 49q0 30 20 49t48 19t47.5 -19.5t19.5 -48.5q0 -30 -19.5 -49.5t-47.5 -19.5z" />
    <glyph glyph-name="Idotaccent.ss01" horiz-adv-x="231" 
d="M57 0v720h118v-720h-118zM116 798q-31 0 -52.5 22t-21.5 54q0 33 21.5 53.5t52.5 20.5q32 0 53 -20.5t21 -53.5q0 -32 -21 -54t-53 -22z" />
    <glyph glyph-name="uni0136.ss01" horiz-adv-x="491" 
d="M57 0v720h118v-720h-118zM161 374l173 346h124l-180 -346h-117zM348 0l-191 374h121l200 -374h-130zM202 -317v54q32 7 48 25t16 51h35q-8 -6 -20 -10.5t-22 -4.5q-30 0 -50 18.5t-20 48.5q0 31 20.5 50t46.5 19q30 0 51 -22.5t21 -74.5q0 -39 -15 -71t-43.5 -53
t-67.5 -30z" />
    <glyph glyph-name="uni013B.ss01" horiz-adv-x="385" 
d="M57 0v720h118v-720h-118zM119 0v94h231v-94h-231zM151 -317v54q32 7 48 25t16 51h35q-8 -6 -20 -10.5t-22 -4.5q-30 0 -50 18.5t-20 48.5q0 31 20.5 50t46.5 19q30 0 51 -22.5t21 -74.5q0 -39 -15 -71t-43.5 -53t-67.5 -30z" />
    <glyph glyph-name="uni0145.ss01" horiz-adv-x="514" 
d="M57 0v720h140l179 -613l-27 -2v615h109v-720h-141l-178 613l26 2v-615h-108zM201 -317v54q32 7 48 25t16 51h35q-8 -6 -20 -10.5t-22 -4.5q-30 0 -50 18.5t-20 48.5q0 31 20.5 50t46.5 19q30 0 51 -22.5t21 -74.5q0 -39 -15 -71t-43.5 -53t-67.5 -30z" />
    <glyph glyph-name="Odieresis.ss01" horiz-adv-x="524" 
d="M262 -10q-55 0 -97.5 24.5t-71.5 72t-44.5 117t-15.5 159.5q0 118 26.5 200t77.5 124.5t124 42.5q75 0 126 -42.5t77.5 -124.5t26.5 -201q0 -90 -15.5 -159t-44.5 -116.5t-71.5 -72t-97.5 -24.5zM261 86q37 0 61.5 30.5t36.5 92t12 155.5q0 93 -12 152.5t-36.5 88.5
t-61.5 29q-36 0 -60.5 -29t-36 -88.5t-11.5 -152.5q0 -94 12 -155.5t36 -92t60 -30.5zM161 805q-28 0 -47.5 20t-19.5 49q0 30 19.5 49t47.5 19q29 0 48 -19.5t19 -48.5q0 -30 -19 -49.5t-48 -19.5zM363 805q-29 0 -48.5 20t-19.5 49q0 30 20 49t48 19t47.5 -19.5
t19.5 -48.5q0 -30 -19.5 -49.5t-47.5 -19.5z" />
    <glyph glyph-name="uni0156.ss01" horiz-adv-x="457" 
d="M57 0v720h166q61 0 106 -26.5t70 -73.5t25 -108t-24.5 -107.5t-70 -73t-106.5 -26.5h-77v89h71q42 0 67 32t25 85q0 52 -25 83.5t-67 31.5h-42v-626h-118zM322 0l-173 374h116l187 -374h-130zM172 -317v54q32 7 48 25t16 51h35q-8 -6 -20 -10.5t-22 -4.5q-30 0 -50 18.5
t-20 48.5q0 31 20.5 50t46.5 19q30 0 51 -22.5t21 -74.5q0 -39 -15 -71t-43.5 -53t-67.5 -30z" />
    <glyph glyph-name="uni0218.ss01" horiz-adv-x="441" 
d="M228 -10q-98 0 -149.5 63.5t-51.5 176.5h111q0 -70 25.5 -108t69.5 -38q33 0 52 21t19 61q0 33 -16 63t-53 58l-81 63q-53 42 -79 92t-26 108q0 57 22 97.5t62 61.5t96 21q88 0 134.5 -55.5t46.5 -160.5h-109q0 64 -19 93t-56 29q-30 0 -47.5 -18.5t-17.5 -55.5
q0 -34 16.5 -61.5t51.5 -55.5l80 -63q57 -44 81.5 -96.5t24.5 -111.5q0 -87 -50.5 -135.5t-136.5 -48.5zM173 -317v54q32 7 48 25t16 51h35q-8 -6 -20 -10.5t-22 -4.5q-30 0 -50 18.5t-20 48.5q0 31 20.5 50t46.5 19q30 0 51 -22.5t21 -74.5q0 -39 -15 -71t-43.5 -53
t-67.5 -30z" />
    <glyph glyph-name="uni021A.ss01" horiz-adv-x="425" 
d="M153 0v626h-140v94h398v-94h-140v-626h-118zM156 -317v54q32 7 48 25t16 51h35q-8 -6 -20 -10.5t-22 -4.5q-30 0 -50 18.5t-20 48.5q0 31 20.5 50t46.5 19q30 0 51 -22.5t21 -74.5q0 -39 -15 -71t-43.5 -53t-67.5 -30z" />
    <glyph glyph-name="Udieresis.ss01" horiz-adv-x="491" 
d="M245 -10q-94 0 -143.5 57t-49.5 154v519h118v-543q0 -46 20 -68.5t55 -22.5q36 0 56 22t20 69v543h118v-519q0 -97 -49.5 -154t-144.5 -57zM144 805q-28 0 -47.5 20t-19.5 49q0 30 19.5 49t47.5 19q29 0 48 -19.5t19 -48.5q0 -30 -19 -49.5t-48 -19.5zM346 805
q-29 0 -48.5 20t-19.5 49q0 30 20 49t48 19t47.5 -19.5t19.5 -48.5q0 -30 -19.5 -49.5t-47.5 -19.5z" />
    <glyph glyph-name="Ydieresis.ss01" horiz-adv-x="488" 
d="M185 0v316l-176 404h130l141 -363h-55l139 363h115l-176 -404v-316h-118zM143 805q-28 0 -47.5 20t-19.5 49q0 30 19.5 49t47.5 19q29 0 48 -19.5t19 -48.5q0 -30 -19 -49.5t-48 -19.5zM345 805q-29 0 -48.5 20t-19.5 49q0 30 20 49t48 19t47.5 -19.5t19.5 -48.5
q0 -30 -19.5 -49.5t-47.5 -19.5z" />
    <glyph glyph-name="Zdotaccent.ss01" horiz-adv-x="453" 
d="M49 0v84l228 564l18 -22h-237v94h346v-71l-236 -577l-19 22h259v-94h-359zM227 798q-31 0 -52.5 22t-21.5 54q0 33 21.5 53.5t52.5 20.5q32 0 53 -20.5t21 -53.5q0 -32 -21 -54t-53 -22z" />
    <glyph glyph-name="K.ss04" horiz-adv-x="491" 
d="M57 0v720h118v-720h-118zM92 267l249 453h124l-195 -333l-21 -9l-109 -194zM349 0l-164 427l105 19l188 -446h-129z" />
    <glyph glyph-name="uni0136.ss04" horiz-adv-x="491" 
d="M57 0v720h118v-720h-118zM92 267l249 453h124l-195 -333l-21 -9l-109 -194zM349 0l-164 427l105 19l188 -446h-129zM196 -317v54q32 6 47.5 24t15.5 52l42 -8h-105v122h125v-90q0 -62 -33 -102t-92 -52z" />
    <glyph glyph-name="R.ss05" horiz-adv-x="454" 
d="M57 0v720h177q63 0 105 -26.5t63.5 -70.5t21.5 -97q0 -72 -37.5 -120t-107.5 -69l3 41q74 -12 102 -51t28 -100v-227h-118v220q0 43 -20 64.5t-55 21.5h-73v94h74q40 0 63 31.5t23 86.5q0 53 -22.5 82.5t-63.5 29.5h-45v-630h-118z" />
    <glyph glyph-name="Racute.ss05" horiz-adv-x="454" 
d="M57 0v720h177q63 0 105 -26.5t63.5 -70.5t21.5 -97q0 -72 -37.5 -120t-107.5 -69l3 41q74 -12 102 -51t28 -100v-227h-118v220q0 43 -20 64.5t-55 21.5h-73v94h74q40 0 63 31.5t23 86.5q0 53 -22.5 82.5t-63.5 29.5h-45v-630h-118zM241 793h-90l72 157h141z" />
    <glyph glyph-name="Rcaron.ss05" horiz-adv-x="454" 
d="M57 0v720h177q63 0 105 -26.5t63.5 -70.5t21.5 -97q0 -72 -37.5 -120t-107.5 -69l3 41q74 -12 102 -51t28 -100v-227h-118v220q0 43 -20 64.5t-55 21.5h-73v94h74q40 0 63 31.5t23 86.5q0 53 -22.5 82.5t-63.5 29.5h-45v-630h-118zM176 793l-105 157h82l119 -124h-86
l120 124h82l-106 -157h-106z" />
    <glyph glyph-name="uni0156.ss05" horiz-adv-x="454" 
d="M57 0v720h177q63 0 105 -26.5t63.5 -70.5t21.5 -97q0 -72 -37.5 -120t-107.5 -69l3 41q74 -12 102 -51t28 -100v-227h-118v220q0 43 -20 64.5t-55 21.5h-73v94h74q40 0 63 31.5t23 86.5q0 53 -22.5 82.5t-63.5 29.5h-45v-630h-118zM167 -317v54q32 6 47.5 24t15.5 52
l42 -8h-105v122h125v-90q0 -62 -33 -102t-92 -52z" />
    <glyph glyph-name="M.ss06" horiz-adv-x="660" 
d="M38 0l45 720h129l140 -676h-43l138 676h129l46 -720h-115l-32 635l34 -1l-132 -634h-101l-132 634l33 1l-31 -635h-108z" />
    <glyph glyph-name="G.ss07" horiz-adv-x="501" 
d="M260 -10q-74 0 -124.5 43t-76.5 125t-26 199q0 121 27.5 204t78.5 126t123 43q63 0 107 -32t67 -90t23 -136h-117q0 52 -8.5 88t-26.5 55t-47 19q-34 0 -58 -28t-36.5 -88t-12.5 -157q0 -95 12 -156t35.5 -90t59.5 -29q35 0 54.5 24t28 80.5t8.5 156.5h117
q0 -126 -23 -205t-69 -115.5t-116 -36.5zM428 288h-169v94h209v-35z" />
    <glyph glyph-name="Gbreve.ss07" horiz-adv-x="501" 
d="M260 -10q-74 0 -124.5 43t-76.5 125t-26 199q0 121 27.5 204t78.5 126t123 43q63 0 107 -32t67 -90t23 -136h-117q0 52 -8.5 88t-26.5 55t-47 19q-34 0 -58 -28t-36.5 -88t-12.5 -157q0 -95 12 -156t35.5 -90t59.5 -29q35 0 54.5 24t28 80.5t8.5 156.5h117
q0 -126 -23 -205t-69 -115.5t-116 -36.5zM428 288h-169v94h209v-35zM262 786q-39 0 -73 19t-54.5 55.5t-20.5 89.5h75q0 -32 18.5 -55.5t54.5 -23.5q35 0 54 23.5t19 55.5h74q0 -53 -20.5 -89.5t-54 -55.5t-72.5 -19z" />
    <glyph glyph-name="uni0122.ss07" horiz-adv-x="501" 
d="M260 -10q-74 0 -124.5 43t-76.5 125t-26 199q0 121 27.5 204t78.5 126t123 43q63 0 107 -32t67 -90t23 -136h-117q0 52 -8.5 88t-26.5 55t-47 19q-34 0 -58 -28t-36.5 -88t-12.5 -157q0 -95 12 -156t35.5 -90t59.5 -29q35 0 54.5 24t28 80.5t8.5 156.5h117
q0 -126 -23 -205t-69 -115.5t-116 -36.5zM428 288h-169v94h209v-35zM199 -317v54q32 6 47.5 24t15.5 52l42 -8h-105v122h125v-90q0 -62 -33 -102t-92 -52z" />
    <glyph glyph-name="Gdotaccent.ss07" horiz-adv-x="501" 
d="M260 -10q-74 0 -124.5 43t-76.5 125t-26 199q0 121 27.5 204t78.5 126t123 43q63 0 107 -32t67 -90t23 -136h-117q0 52 -8.5 88t-26.5 55t-47 19q-34 0 -58 -28t-36.5 -88t-12.5 -157q0 -95 12 -156t35.5 -90t59.5 -29q35 0 54.5 24t28 80.5t8.5 156.5h117
q0 -126 -23 -205t-69 -115.5t-116 -36.5zM428 288h-169v94h209v-35zM200 803v127h124v-127h-124z" />
    <glyph glyph-name="J.ss08" horiz-adv-x="458" 
d="M223 -10q-59 0 -100.5 24t-63.5 70t-22 112h114q0 -62 20 -86t52 -24q21 0 35.5 9.5t22 29.5t7.5 49v546h118v-542q0 -55 -21 -97.5t-62 -66.5t-100 -24z" />
    <glyph glyph-name="Q.ss09" horiz-adv-x="524" 
d="M262 -10q-55 0 -97.5 24.5t-71.5 72t-44.5 117t-15.5 159.5q0 118 26.5 200t77.5 124.5t124 42.5q75 0 126 -42.5t77.5 -124.5t26.5 -201q0 -90 -15.5 -159t-44.5 -116.5t-71.5 -72t-97.5 -24.5zM261 79q27 0 48.5 11t35.5 41t21.5 86t7.5 147q0 93 -12.5 152.5t-38 88.5
t-62.5 29q-36 0 -61 -29t-37.5 -88.5t-12.5 -152.5q0 -97 12.5 -160t37.5 -94t61 -31zM227 182l82 47l165 -287l-82 -47z" />
    <glyph glyph-name="uni0136.ss01.ss04" horiz-adv-x="491" 
d="M57 0v720h118v-720h-118zM92 267l249 453h124l-195 -333l-21 -9l-109 -194zM349 0l-164 427l105 19l188 -446h-129zM202 -317v54q32 7 48 25t16 51h35q-8 -6 -20 -10.5t-22 -4.5q-30 0 -50 18.5t-20 48.5q0 31 20.5 50t46.5 19q30 0 51 -22.5t21 -74.5q0 -39 -15 -71
t-43.5 -53t-67.5 -30z" />
    <glyph glyph-name="uni0156.ss01.ss05" horiz-adv-x="454" 
d="M57 0v720h177q63 0 105 -26.5t63.5 -70.5t21.5 -97q0 -72 -37.5 -120t-107.5 -69l3 41q74 -12 102 -51t28 -100v-227h-118v220q0 43 -20 64.5t-55 21.5h-73v94h74q40 0 63 31.5t23 86.5q0 53 -22.5 82.5t-63.5 29.5h-45v-630h-118zM173 -317v54q32 7 48 25t16 51h35
q-8 -6 -20 -10.5t-22 -4.5q-30 0 -50 18.5t-20 48.5q0 31 20.5 50t46.5 19q30 0 51 -22.5t21 -74.5q0 -39 -15 -71t-43.5 -53t-67.5 -30z" />
    <glyph glyph-name="uni0122.ss01.ss07" horiz-adv-x="501" 
d="M260 -10q-74 0 -124.5 43t-76.5 125t-26 199q0 121 27.5 204t78.5 126t123 43q63 0 107 -32t67 -90t23 -136h-117q0 52 -8.5 88t-26.5 55t-47 19q-34 0 -58 -28t-36.5 -88t-12.5 -157q0 -95 12 -156t35.5 -90t59.5 -29q35 0 54.5 24t28 80.5t8.5 156.5h117
q0 -126 -23 -205t-69 -115.5t-116 -36.5zM428 288h-169v94h209v-35zM205 -317v54q32 7 48 25t16 51h35q-8 -6 -20 -10.5t-22 -4.5q-30 0 -50 18.5t-20 48.5q0 31 20.5 50t46.5 19q30 0 51 -22.5t21 -74.5q0 -39 -15 -71t-43.5 -53t-67.5 -30z" />
    <glyph glyph-name="Gdotaccent.ss01.ss07" horiz-adv-x="501" 
d="M260 -10q-74 0 -124.5 43t-76.5 125t-26 199q0 121 27.5 204t78.5 126t123 43q63 0 107 -32t67 -90t23 -136h-117q0 52 -8.5 88t-26.5 55t-47 19q-34 0 -58 -28t-36.5 -88t-12.5 -157q0 -95 12 -156t35.5 -90t59.5 -29q35 0 54.5 24t28 80.5t8.5 156.5h117
q0 -126 -23 -205t-69 -115.5t-116 -36.5zM428 288h-169v94h209v-35zM262 798q-31 0 -52.5 22t-21.5 54q0 33 21.5 53.5t52.5 20.5q32 0 53 -20.5t21 -53.5q0 -32 -21 -54t-53 -22z" />
    <glyph glyph-name="i.loclTRK" horiz-adv-x="216" 
d="M51 0v510h114v-510h-114zM46 593v127h124v-127h-124z" />
    <glyph glyph-name="adieresis.ss01" horiz-adv-x="408" 
d="M267 0q-6 18 -8.5 39.5t-2.5 45.5h-5v281q0 35 -12.5 51t-36.5 16q-27 0 -41 -20t-14 -55h-101q0 71 44 116.5t121 45.5q72 0 111.5 -40t39.5 -113v-282q0 -21 2 -42.5t8 -42.5h-105zM145 -10q-48 0 -79 35t-31 95q0 54 25.5 91.5t88.5 68.5l129 65v-88l-70 -37
q-33 -17 -48 -38.5t-15 -49.5q0 -27 13.5 -41t35.5 -14q25 0 41 17.5t16 44.5l10 -63q-15 -44 -45 -65t-71 -21zM103 595q-28 0 -47.5 20t-19.5 49q0 30 19.5 49t47.5 19q29 0 48 -19.5t19 -48.5q0 -30 -19 -49.5t-48 -19.5zM305 595q-29 0 -48.5 20t-19.5 49q0 30 20 49
t48 19t47.5 -19.5t19.5 -48.5q0 -30 -19.5 -49.5t-47.5 -19.5z" />
    <glyph glyph-name="cdotaccent.ss01" horiz-adv-x="407" 
d="M210 -10q-54 0 -95.5 31t-65 90.5t-23.5 144.5q0 86 24.5 144.5t67.5 89t97 30.5q50 0 88 -23.5t59.5 -69.5t21.5 -114h-103q0 62 -17 88.5t-46 26.5q-22 0 -39 -16t-26.5 -53.5t-9.5 -101.5q0 -65 9.5 -103.5t26 -55t37.5 -16.5q29 0 47 27.5t18 87.5h103
q0 -67 -23 -113t-62.5 -70t-88.5 -24zM214 588q-31 0 -52.5 22t-21.5 54q0 33 21.5 53.5t52.5 20.5q32 0 53 -20.5t21 -53.5q0 -32 -21 -54t-53 -22z" />
    <glyph glyph-name="edieresis.ss01" horiz-adv-x="427" 
d="M218 -10q-58 0 -101.5 33t-67 92.5t-23.5 140.5q0 82 24.5 141t69.5 91t106 32q57 0 95.5 -29t59 -85.5t20.5 -139.5v-20.5t-2 -18.5h-302v79h232l-28 -34q-1 86 -20 123.5t-57 37.5q-40 0 -61 -43t-21 -134t20 -135t60 -44q31 0 48 22t22 63h102q-11 -76 -55 -124
t-121 -48zM124 595q-28 0 -47.5 20t-19.5 49q0 30 19.5 49t47.5 19q29 0 48 -19.5t19 -48.5q0 -30 -19 -49.5t-48 -19.5zM326 595q-29 0 -48.5 20t-19.5 49q0 30 20 49t48 19t47.5 -19.5t19.5 -48.5q0 -30 -19.5 -49.5t-47.5 -19.5z" />
    <glyph glyph-name="edotaccent.ss01" horiz-adv-x="427" 
d="M218 -10q-58 0 -101.5 33t-67 92.5t-23.5 140.5q0 82 24.5 141t69.5 91t106 32q57 0 95.5 -29t59 -85.5t20.5 -139.5v-20.5t-2 -18.5h-302v79h232l-28 -34q-1 86 -20 123.5t-57 37.5q-40 0 -61 -43t-21 -134t20 -135t60 -44q31 0 48 22t22 63h102q-11 -76 -55 -124
t-121 -48zM225 588q-31 0 -52.5 22t-21.5 54q0 33 21.5 53.5t52.5 20.5q32 0 53 -20.5t21 -53.5q0 -32 -21 -54t-53 -22z" />
    <glyph glyph-name="uni0123.ss01" 
d="M232 -215q-80 0 -128.5 44t-52.5 117h107q2 -29 21.5 -45.5t50.5 -16.5q35 0 54 21.5t19 61.5v148l7 -1q-6 -49 -39 -79t-81 -30q-49 0 -85 31t-56 88t-20 135q0 81 21 139.5t59 90t90 31.5q50 0 81.5 -29.5t37.5 -82.5h-7v102h107v-521q0 -97 -48.5 -150.5t-137.5 -53.5
zM228 99q39 0 60 41t21 124t-21 122.5t-60 39.5q-38 0 -59.5 -41t-21.5 -124q0 -81 21 -121.5t60 -40.5zM230 576q-30 0 -51 22.5t-21 74.5q0 39 15 71t43 53.5t68 29.5v-54q-32 -5 -48 -23.5t-16 -52.5h-35q8 7 20 11t22 4q30 0 50 -18.5t20 -49.5q0 -30 -20.5 -49
t-46.5 -19z" />
    <glyph glyph-name="gdotaccent.ss01" 
d="M232 -215q-80 0 -128.5 44t-52.5 117h107q2 -29 21.5 -45.5t50.5 -16.5q35 0 54 21.5t19 61.5v148l7 -1q-6 -49 -39 -79t-81 -30q-49 0 -85 31t-56 88t-20 135q0 81 21 139.5t59 90t90 31.5q50 0 81.5 -29.5t37.5 -82.5h-7v102h107v-521q0 -97 -48.5 -150.5t-137.5 -53.5
zM228 99q39 0 60 41t21 124t-21 122.5t-60 39.5q-38 0 -59.5 -41t-21.5 -124q0 -81 21 -121.5t60 -40.5zM228 588q-31 0 -52.5 22t-21.5 54q0 33 21.5 53.5t52.5 20.5q32 0 53 -20.5t21 -53.5q0 -32 -21 -54t-53 -22z" />
    <glyph glyph-name="i.ss01" horiz-adv-x="216" 
d="M51 0v510h114v-510h-114zM108 588q-31 0 -52.5 22t-21.5 54q0 33 21.5 53.5t52.5 20.5q32 0 53 -20.5t21 -53.5q0 -32 -21 -54t-53 -22z" />
    <glyph glyph-name="idieresis.ss01" horiz-adv-x="216" 
d="M51 0v510h114v-510h-114zM7 595q-28 0 -47.5 20t-19.5 49q0 30 19.5 49t47.5 19q29 0 48 -19.5t19 -48.5q0 -30 -19 -49.5t-48 -19.5zM209 595q-29 0 -48.5 20t-19.5 49q0 30 20 49t48 19t47.5 -19.5t19.5 -48.5q0 -30 -19.5 -49.5t-47.5 -19.5z" />
    <glyph glyph-name="i.loclTRK.ss01" horiz-adv-x="216" 
d="M51 0v510h114v-510h-114zM108 588q-31 0 -52.5 22t-21.5 54q0 33 21.5 53.5t52.5 20.5q32 0 53 -20.5t21 -53.5q0 -32 -21 -54t-53 -22z" />
    <glyph glyph-name="ij.ss01" horiz-adv-x="432" 
d="M51 0v510h114v-510h-114zM108 588q-31 0 -52.5 22t-21.5 54q0 33 21.5 53.5t52.5 20.5q32 0 53 -20.5t21 -53.5q0 -32 -21 -54t-53 -22zM248 -215q-18 0 -30 1.5t-22 4.5v89l12.5 -2.5t16.5 -1.5q19 0 30.5 8.5t11.5 28.5v597h114v-605q0 -56 -33.5 -88t-99.5 -32z
M324 588q-31 0 -52.5 22t-21.5 54q0 33 21.5 53.5t52.5 20.5q32 0 53 -20.5t21 -53.5q0 -32 -21 -54t-53 -22z" />
    <glyph glyph-name="iogonek.ss01" horiz-adv-x="216" 
d="M51 0v510h114v-510h-114zM108 588q-31 0 -52.5 22t-21.5 54q0 33 21.5 53.5t52.5 20.5q32 0 53 -20.5t21 -53.5q0 -32 -21 -54t-53 -22zM96 -216q-42 0 -65 22t-23 59q0 44 34 83t86 69l37 -17q-44 -36 -67 -66.5t-23 -59.5q0 -17 9 -24.5t21 -7.5q18 0 36 15l27 -50
q-14 -11 -32 -17t-40 -6z" />
    <glyph glyph-name="j.ss01" horiz-adv-x="216" 
d="M32 -215q-18 0 -30 1.5t-22 4.5v89l12.5 -2.5t16.5 -1.5q19 0 30.5 8.5t11.5 28.5v597h114v-605q0 -56 -33.5 -88t-99.5 -32zM108 588q-31 0 -52.5 22t-21.5 54q0 33 21.5 53.5t52.5 20.5q32 0 53 -20.5t21 -53.5q0 -32 -21 -54t-53 -22z" />
    <glyph glyph-name="uni0137.ss01" horiz-adv-x="426" 
d="M51 0v720h114v-720h-114zM291 0l-137 265l131 245h120l-154 -267l1 46l163 -289h-124zM170 -317v54q32 7 48 25t16 51h35q-8 -6 -20 -10.5t-22 -4.5q-30 0 -50 18.5t-20 48.5q0 31 20.5 50t46.5 19q30 0 51 -22.5t21 -74.5q0 -39 -15 -71t-43.5 -53t-67.5 -30z" />
    <glyph glyph-name="uni013C.ss01" horiz-adv-x="216" 
d="M51 0v720h114v-720h-114zM51 -317v54q32 7 48 25t16 51h35q-8 -6 -20 -10.5t-22 -4.5q-30 0 -50 18.5t-20 48.5q0 31 20.5 50t46.5 19q30 0 51 -22.5t21 -74.5q0 -39 -15 -71t-43.5 -53t-67.5 -30z" />
    <glyph glyph-name="uni0146.ss01" horiz-adv-x="455" 
d="M51 0v510h109v-96h5v-414h-114zM294 0v364q0 33 -13 47.5t-39 14.5q-24 0 -41.5 -12.5t-26.5 -33t-9 -45.5l-15 79q20 51 56 78.5t87 27.5q54 0 85 -34.5t31 -95.5v-390h-115zM174 -317v54q32 7 48 25t16 51h35q-8 -6 -20 -10.5t-22 -4.5q-30 0 -50 18.5t-20 48.5
q0 31 20.5 50t46.5 19q30 0 51 -22.5t21 -74.5q0 -39 -15 -71t-43.5 -53t-67.5 -30z" />
    <glyph glyph-name="odieresis.ss01" horiz-adv-x="451" 
d="M225 -10q-60 0 -105.5 33.5t-69.5 94t-24 139.5q0 80 24.5 139t69 91.5t105.5 32.5q62 0 106.5 -32.5t69 -91.5t24.5 -139q0 -79 -24.5 -139.5t-69 -94t-106.5 -33.5zM225 82q26 0 44 18.5t28 57.5t10 99q0 89 -21.5 130t-60.5 41q-38 0 -59.5 -41t-21.5 -130
q0 -60 10 -99t28 -57.5t43 -18.5zM124 595q-28 0 -47.5 20t-19.5 49q0 30 19.5 49t47.5 19q29 0 48 -19.5t19 -48.5q0 -30 -19 -49.5t-48 -19.5zM326 595q-29 0 -48.5 20t-19.5 49q0 30 20 49t48 19t47.5 -19.5t19.5 -48.5q0 -30 -19.5 -49.5t-47.5 -19.5z" />
    <glyph glyph-name="uni0157.ss01" horiz-adv-x="300" 
d="M51 0v510h109v-119h5v-391h-114zM165 303l-16 85q17 70 46 101t70 31q11 0 20 -3v-114q-3 1 -9 1.5t-15 0.5q-44 0 -70 -25t-26 -77zM48 -317v54q32 7 48 25t16 51h35q-8 -6 -20 -10.5t-22 -4.5q-30 0 -50 18.5t-20 48.5q0 31 20.5 50t46.5 19q30 0 51 -22.5t21 -74.5
q0 -39 -15 -71t-43.5 -53t-67.5 -30z" />
    <glyph glyph-name="uni0219.ss01" horiz-adv-x="353" 
d="M183 -10q-74 0 -115 44t-45 123h94q3 -40 21 -60.5t47 -20.5q24 0 37 12.5t13 36.5q0 19 -10 36t-42 37l-59 37q-40 26 -62 61t-22 84q0 62 39 101t103 39q67 0 104.5 -39.5t41.5 -111.5h-94q-3 35 -15.5 50t-33.5 15t-33.5 -12t-12.5 -35q0 -18 10.5 -34.5t38.5 -34.5
l64 -40q37 -23 59.5 -61t22.5 -87q0 -63 -40 -101.5t-111 -38.5zM130 -317v54q32 7 48 25t16 51h35q-8 -6 -20 -10.5t-22 -4.5q-30 0 -50 18.5t-20 48.5q0 31 20.5 50t46.5 19q30 0 51 -22.5t21 -74.5q0 -39 -15 -71t-43.5 -53t-67.5 -30z" />
    <glyph glyph-name="uni021B.ss01" horiz-adv-x="298" 
d="M219 -10q-72 0 -107 34.5t-35 104.5v477l114 50v-526q0 -25 13.5 -37t42.5 -12q11 0 20.5 2t16.5 6v-88q-10 -6 -27.5 -8.5t-37.5 -2.5zM11 419v91h270v-91h-270zM135 -317v54q32 7 48 25t16 51h35q-8 -6 -20 -10.5t-22 -4.5q-30 0 -50 18.5t-20 48.5q0 31 20.5 50
t46.5 19q30 0 51 -22.5t21 -74.5q0 -39 -15 -71t-43.5 -53t-67.5 -30z" />
    <glyph glyph-name="udieresis.ss01" horiz-adv-x="447" 
d="M160 -10q-34 0 -60 14.5t-39.5 43t-13.5 68.5v394h114v-369q0 -28 13 -42.5t36 -14.5q22 0 38 12.5t25 33t9 43.5l15 -79q-19 -49 -54 -76.5t-83 -27.5zM288 0v95h-6v415h115v-510h-109zM122 595q-28 0 -47.5 20t-19.5 49q0 30 19.5 49t47.5 19q29 0 48 -19.5t19 -48.5
q0 -30 -19 -49.5t-48 -19.5zM324 595q-29 0 -48.5 20t-19.5 49q0 30 20 49t48 19t47.5 -19.5t19.5 -48.5q0 -30 -19.5 -49.5t-47.5 -19.5z" />
    <glyph glyph-name="wdieresis.ss01" horiz-adv-x="647" 
d="M139 0l-113 510h113l67 -383h-11l77 383h107l78 -383h-11l65 383h110l-113 -510h-116l-74 377h12l-75 -377h-116zM222 595q-28 0 -47.5 20t-19.5 49q0 30 19.5 49t47.5 19q29 0 48 -19.5t19 -48.5q0 -30 -19 -49.5t-48 -19.5zM424 595q-29 0 -48.5 20t-19.5 49
q0 30 20 49t48 19t47.5 -19.5t19.5 -48.5q0 -30 -19.5 -49.5t-47.5 -19.5z" />
    <glyph glyph-name="ydieresis.ss01" horiz-adv-x="413" 
d="M99 -205l77 287l19 28l89 400h113l-190 -715h-108zM171 -9l-155 519h122l103 -444zM112 595q-28 0 -47.5 20t-19.5 49q0 30 19.5 49t47.5 19q29 0 48 -19.5t19 -48.5q0 -30 -19 -49.5t-48 -19.5zM314 595q-29 0 -48.5 20t-19.5 49q0 30 20 49t48 19t47.5 -19.5
t19.5 -48.5q0 -30 -19.5 -49.5t-47.5 -19.5z" />
    <glyph glyph-name="zdotaccent.ss01" horiz-adv-x="381" 
d="M33 0v81l190 357l16 -19h-197v91h306v-68l-198 -370l-16 19h218v-91h-319zM191 588q-31 0 -52.5 22t-21.5 54q0 33 21.5 53.5t52.5 20.5q32 0 53 -20.5t21 -53.5q0 -32 -21 -54t-53 -22z" />
    <glyph glyph-name="a.ss02" 
d="M186 -10q-49 0 -84 31t-54 88.5t-19 138.5q0 85 20 145.5t56.5 93.5t86.5 33q45 0 81.5 -29t44.5 -84l-10 -2v105h110v-510h-110v100l8 -3q-11 -52 -47 -79.5t-83 -27.5zM228 84q40 0 60.5 42.5t20.5 129.5q0 88 -20.5 129t-60.5 41t-60.5 -42.5t-20.5 -129.5
t20.5 -128.5t60.5 -41.5z" />
    <glyph glyph-name="aacute.ss02" 
d="M186 -10q-49 0 -84 31t-54 88.5t-19 138.5q0 85 20 145.5t56.5 93.5t86.5 33q45 0 81.5 -29t44.5 -84l-10 -2v105h110v-510h-110v100l8 -3q-11 -52 -47 -79.5t-83 -27.5zM228 84q40 0 60.5 42.5t20.5 129.5q0 88 -20.5 129t-60.5 41t-60.5 -42.5t-20.5 -129.5
t20.5 -128.5t60.5 -41.5zM246 583h-90l72 157h141z" />
    <glyph glyph-name="abreve.ss02" 
d="M186 -10q-49 0 -84 31t-54 88.5t-19 138.5q0 85 20 145.5t56.5 93.5t86.5 33q45 0 81.5 -29t44.5 -84l-10 -2v105h110v-510h-110v100l8 -3q-11 -52 -47 -79.5t-83 -27.5zM228 84q40 0 60.5 42.5t20.5 129.5q0 88 -20.5 129t-60.5 41t-60.5 -42.5t-20.5 -129.5
t20.5 -128.5t60.5 -41.5zM235 576q-39 0 -73 19t-54.5 55.5t-20.5 89.5h75q0 -32 18.5 -55.5t54.5 -23.5q35 0 54 23.5t19 55.5h74q0 -53 -20.5 -89.5t-54 -55.5t-72.5 -19z" />
    <glyph glyph-name="uni01CE.ss02" 
d="M186 -10q-49 0 -84 31t-54 88.5t-19 138.5q0 85 20 145.5t56.5 93.5t86.5 33q45 0 81.5 -29t44.5 -84l-10 -2v105h110v-510h-110v100l8 -3q-11 -52 -47 -79.5t-83 -27.5zM228 84q40 0 60.5 42.5t20.5 129.5q0 88 -20.5 129t-60.5 41t-60.5 -42.5t-20.5 -129.5
t20.5 -128.5t60.5 -41.5zM181 583l-105 157h82l119 -124h-86l120 124h82l-106 -157h-106z" />
    <glyph glyph-name="acircumflex.ss02" 
d="M186 -10q-49 0 -84 31t-54 88.5t-19 138.5q0 85 20 145.5t56.5 93.5t86.5 33q45 0 81.5 -29t44.5 -84l-10 -2v105h110v-510h-110v100l8 -3q-11 -52 -47 -79.5t-83 -27.5zM228 84q40 0 60.5 42.5t20.5 129.5q0 88 -20.5 129t-60.5 41t-60.5 -42.5t-20.5 -129.5
t20.5 -128.5t60.5 -41.5zM76 583l105 157h106l106 -157h-82l-120 124h86l-119 -124h-82z" />
    <glyph glyph-name="adieresis.ss02" 
d="M186 -10q-49 0 -84 31t-54 88.5t-19 138.5q0 85 20 145.5t56.5 93.5t86.5 33q45 0 81.5 -29t44.5 -84l-10 -2v105h110v-510h-110v100l8 -3q-11 -52 -47 -79.5t-83 -27.5zM228 84q40 0 60.5 42.5t20.5 129.5q0 88 -20.5 129t-60.5 41t-60.5 -42.5t-20.5 -129.5
t20.5 -128.5t60.5 -41.5zM274 595v125h122v-125h-122zM72 595v125h122v-125h-122z" />
    <glyph glyph-name="agrave.ss02" 
d="M186 -10q-49 0 -84 31t-54 88.5t-19 138.5q0 85 20 145.5t56.5 93.5t86.5 33q45 0 81.5 -29t44.5 -84l-10 -2v105h110v-510h-110v100l8 -3q-11 -52 -47 -79.5t-83 -27.5zM228 84q40 0 60.5 42.5t20.5 129.5q0 88 -20.5 129t-60.5 41t-60.5 -42.5t-20.5 -129.5
t20.5 -128.5t60.5 -41.5zM224 583l-123 157h141l72 -157h-90z" />
    <glyph glyph-name="amacron.ss02" 
d="M186 -10q-49 0 -84 31t-54 88.5t-19 138.5q0 85 20 145.5t56.5 93.5t86.5 33q45 0 81.5 -29t44.5 -84l-10 -2v105h110v-510h-110v100l8 -3q-11 -52 -47 -79.5t-83 -27.5zM228 84q40 0 60.5 42.5t20.5 129.5q0 88 -20.5 129t-60.5 41t-60.5 -42.5t-20.5 -129.5
t20.5 -128.5t60.5 -41.5zM94 630v82h280v-82h-280z" />
    <glyph glyph-name="aogonek.ss02" 
d="M186 -10q-49 0 -84 31t-54 88.5t-19 138.5q0 85 20 145.5t56.5 93.5t86.5 33q45 0 81.5 -29t44.5 -84l-10 -2v105h110v-510h-110v100l8 -3q-11 -52 -47 -79.5t-83 -27.5zM228 84q40 0 60.5 42.5t20.5 129.5q0 88 -20.5 129t-60.5 41t-60.5 -42.5t-20.5 -129.5
t20.5 -128.5t60.5 -41.5zM349 -216q-42 0 -65 22t-23 59q0 44 34 83t86 69l37 -17q-44 -36 -67 -66.5t-23 -59.5q0 -17 9 -24.5t21 -7.5q18 0 36 15l27 -50q-14 -11 -32 -17t-40 -6z" />
    <glyph glyph-name="aring.ss02" 
d="M186 -10q-49 0 -84 31t-54 88.5t-19 138.5q0 85 20 145.5t56.5 93.5t86.5 33q45 0 81.5 -29t44.5 -84l-10 -2v105h110v-510h-110v100l8 -3q-11 -52 -47 -79.5t-83 -27.5zM228 84q40 0 60.5 42.5t20.5 129.5q0 88 -20.5 129t-60.5 41t-60.5 -42.5t-20.5 -129.5
t20.5 -128.5t60.5 -41.5zM235 561q-46 0 -77 31.5t-31 76.5q0 44 31 75.5t77 31.5t76.5 -31.5t30.5 -75.5q0 -45 -30.5 -76.5t-76.5 -31.5zM236 620q20 0 32.5 14.5t12.5 34.5t-13 34t-33 14q-21 0 -34 -14t-13 -34t13 -34.5t35 -14.5z" />
    <glyph glyph-name="atilde.ss02" 
d="M186 -10q-49 0 -84 31t-54 88.5t-19 138.5q0 85 20 145.5t56.5 93.5t86.5 33q45 0 81.5 -29t44.5 -84l-10 -2v105h110v-510h-110v100l8 -3q-11 -52 -47 -79.5t-83 -27.5zM228 84q40 0 60.5 42.5t20.5 129.5q0 88 -20.5 129t-60.5 41t-60.5 -42.5t-20.5 -129.5
t20.5 -128.5t60.5 -41.5zM298 601q-25 0 -42.5 7.5t-30 17.5t-25 17.5t-27.5 7.5t-25 -10t-10 -33h-69q0 38 12.5 66.5t36 44.5t55.5 16q26 0 42.5 -7.5t28.5 -17.5t23.5 -17.5t27.5 -7.5q15 0 25.5 10t10.5 34h68q0 -38 -12.5 -67t-35.5 -45t-53 -16z" />
    <glyph glyph-name="y.ss03" horiz-adv-x="420" 
d="M105 -215q-16 0 -27 1.5t-21 4.5v87q5 -1 12 -2t16 -1q24 0 45 14.5t28 49.5l32 141l27 49l82 381h105l-150 -583q-13 -55 -35.5 -85.5t-51 -43.5t-62.5 -13zM177 -7l-154 517h118l98 -431z" />
    <glyph glyph-name="yacute.ss03" horiz-adv-x="420" 
d="M105 -215q-16 0 -27 1.5t-21 4.5v87q5 -1 12 -2t16 -1q24 0 45 14.5t28 49.5l32 141l27 49l82 381h105l-150 -583q-13 -55 -35.5 -85.5t-51 -43.5t-62.5 -13zM177 -7l-154 517h118l98 -431zM222 583h-90l72 157h141z" />
    <glyph glyph-name="ycircumflex.ss03" horiz-adv-x="420" 
d="M105 -215q-16 0 -27 1.5t-21 4.5v87q5 -1 12 -2t16 -1q24 0 45 14.5t28 49.5l32 141l27 49l82 381h105l-150 -583q-13 -55 -35.5 -85.5t-51 -43.5t-62.5 -13zM177 -7l-154 517h118l98 -431zM52 583l105 157h106l106 -157h-82l-120 124h86l-119 -124h-82z" />
    <glyph glyph-name="ydieresis.ss03" horiz-adv-x="420" 
d="M105 -215q-16 0 -27 1.5t-21 4.5v87q5 -1 12 -2t16 -1q24 0 45 14.5t28 49.5l32 141l27 49l82 381h105l-150 -583q-13 -55 -35.5 -85.5t-51 -43.5t-62.5 -13zM177 -7l-154 517h118l98 -431zM250 595v125h122v-125h-122zM48 595v125h122v-125h-122z" />
    <glyph glyph-name="ygrave.ss03" horiz-adv-x="420" 
d="M105 -215q-16 0 -27 1.5t-21 4.5v87q5 -1 12 -2t16 -1q24 0 45 14.5t28 49.5l32 141l27 49l82 381h105l-150 -583q-13 -55 -35.5 -85.5t-51 -43.5t-62.5 -13zM177 -7l-154 517h118l98 -431zM200 583l-123 157h141l72 -157h-90z" />
    <glyph glyph-name="k.ss04" horiz-adv-x="426" 
d="M51 0v720h114v-720h-114zM147 235l138 275h120l-134 -240l-20 -10l-98 -159zM278 304l142 -304h-123l-118 271z" />
    <glyph glyph-name="uni0137.ss04" horiz-adv-x="426" 
d="M51 0v720h114v-720h-114zM147 235l138 275h120l-134 -240l-20 -10l-98 -159zM278 304l142 -304h-123l-118 271zM164 -317v54q32 6 47.5 24t15.5 52l42 -8h-105v122h125v-90q0 -62 -33 -102t-92 -52z" />
    <glyph glyph-name="adieresis.ss01.ss02" 
d="M186 -10q-49 0 -84 31t-54 88.5t-19 138.5q0 85 20 145.5t56.5 93.5t86.5 33q45 0 81.5 -29t44.5 -84l-10 -2v105h110v-510h-110v100l8 -3q-11 -52 -47 -79.5t-83 -27.5zM228 84q40 0 60.5 42.5t20.5 129.5q0 88 -20.5 129t-60.5 41t-60.5 -42.5t-20.5 -129.5
t20.5 -128.5t60.5 -41.5zM133 595q-28 0 -47.5 20t-19.5 49q0 30 19.5 49t47.5 19q29 0 48 -19.5t19 -48.5q0 -30 -19 -49.5t-48 -19.5zM335 595q-29 0 -48.5 20t-19.5 49q0 30 20 49t48 19t47.5 -19.5t19.5 -48.5q0 -30 -19.5 -49.5t-47.5 -19.5z" />
    <glyph glyph-name="ydieresis.ss01.ss03" horiz-adv-x="420" 
d="M105 -215q-16 0 -27 1.5t-21 4.5v87q5 -1 12 -2t16 -1q24 0 45 14.5t28 49.5l32 141l27 49l82 381h105l-150 -583q-13 -55 -35.5 -85.5t-51 -43.5t-62.5 -13zM177 -7l-154 517h118l98 -431zM109 595q-28 0 -47.5 20t-19.5 49q0 30 19.5 49t47.5 19q29 0 48 -19.5
t19 -48.5q0 -30 -19 -49.5t-48 -19.5zM311 595q-29 0 -48.5 20t-19.5 49q0 30 20 49t48 19t47.5 -19.5t19.5 -48.5q0 -30 -19.5 -49.5t-47.5 -19.5z" />
    <glyph glyph-name="uni0137.ss01.ss04" horiz-adv-x="426" 
d="M51 0v720h114v-720h-114zM147 235l138 275h120l-134 -240l-20 -10l-98 -159zM278 304l142 -304h-123l-118 271zM170 -317v54q32 7 48 25t16 51h35q-8 -6 -20 -10.5t-22 -4.5q-30 0 -50 18.5t-20 48.5q0 31 20.5 50t46.5 19q30 0 51 -22.5t21 -74.5q0 -39 -15 -71
t-43.5 -53t-67.5 -30z" />
    <glyph glyph-name="f_f_i.ss01" horiz-adv-x="715" 
d="M311 0v590q0 69 36.5 104.5t99.5 35.5q16 0 27 -1.5t21 -4.5v-96q-5 2 -11.5 3t-14.5 1q-21 0 -32 -11.5t-11 -35.5v-585h-115zM71 0v590q0 69 36.5 104.5t99.5 35.5q18 0 29.5 -1.5t21.5 -4.5v-96q-4 2 -11.5 3t-16.5 1q-21 0 -32.5 -12t-11.5 -35v-585h-115zM11 412v98
h579v-98h-579zM549 0v510h115v-510h-115zM611 579q-30 0 -50 20.5t-20 51.5t20 50.5t50 19.5t49.5 -19.5t19.5 -50.5t-19.5 -51.5t-49.5 -20.5z" />
    <glyph glyph-name="f_i.ss01" horiz-adv-x="486" 
d="M71 0v590q0 69 36.5 104.5t99.5 35.5q16 0 27 -1.5t21 -4.5v-96q-5 2 -11.5 3t-14.5 1q-21 0 -32 -11.5t-11 -35.5v-585h-115zM309 0v510h115v-510h-115zM371 585q-30 0 -50 21t-20 51q0 31 20 51t50 20t49.5 -20t19.5 -51t-19.5 -51.5t-49.5 -20.5zM11 412v98h339v-98
h-339z" />
    <glyph glyph-name="two.ss10" horiz-adv-x="419" 
d="M37 0v73q0 62 17 111t44 88.5t57 74t57 67t44 66.5t17 74q0 41 -16 62t-47 21q-39 0 -60 -30t-21 -93h-108q0 102 52 159t141 57q83 0 129.5 -48t46.5 -132q0 -46 -14.5 -83.5t-38 -69.5t-51.5 -61.5t-55 -59t-49 -61.5t-33.5 -70.5t-8.5 -84.5l-14 31h273v-91h-362z" />
    <glyph glyph-name="zero.tf" horiz-adv-x="500" 
d="M250 -10q-63 0 -110 39t-73 121.5t-26 212.5q0 128 25.5 209.5t72.5 119.5t110 38q65 0 112 -38t72.5 -119.5t25.5 -210.5q0 -130 -26 -212t-72.5 -121t-110.5 -39zM249 84q27 0 47 26t32 87.5t12 166.5q0 104 -11.5 163t-32 84t-47.5 25q-26 0 -46 -24.5t-31.5 -83.5
t-11.5 -164t11.5 -166.5t31.5 -87.5t46 -26z" />
    <glyph glyph-name="one.tf" horiz-adv-x="500" 
d="M219 33v613l25 -42q-15 -30 -40 -55t-57.5 -41.5t-69.5 -23.5v119q42 9 74 26t56.5 40t41.5 51h84v-687h-114zM69 0v91h397v-91h-397z" />
    <glyph glyph-name="two.tf" horiz-adv-x="500" 
d="M78 0v80q59 81 103.5 149t73.5 124.5t44 103.5t15 87q0 47 -16.5 70t-48.5 23q-39 0 -59 -31t-20 -92h-109q0 101 52.5 158.5t141.5 57.5q82 0 129 -48.5t47 -133.5q0 -45 -16.5 -98t-48 -114.5t-76 -131t-102.5 -148.5l-22 35h273v-91h-361z" />
    <glyph glyph-name="three.tf" horiz-adv-x="500" 
d="M249 -10q-61 0 -104.5 27.5t-66.5 80t-23 127.5h109q0 -73 21 -107.5t62 -34.5q37 0 58 29t21 85q0 62 -23 97.5t-72 35.5h-49v91h47q44 0 65 32t21 86q0 49 -18 73.5t-52 24.5q-36 0 -55 -29.5t-19 -93.5h-109q0 67 23.5 115.5t67 74.5t100.5 26q53 0 92.5 -22.5
t62 -63.5t22.5 -98q0 -51 -19 -91t-51 -63t-73 -23l-2 21q46 0 81.5 -25t56 -69.5t20.5 -102.5q0 -61 -24 -107t-67.5 -71t-102.5 -25z" />
    <glyph glyph-name="four.tf" horiz-adv-x="500" 
d="M273 0v180l6 20v378l35 -1l-171 -366l-12 20h324v-91h-411v87l231 493h113v-720h-115z" />
    <glyph glyph-name="five.tf" horiz-adv-x="500" 
d="M250 -10q-92 0 -142 60t-50 166h108q0 -67 22 -100t61 -33q37 0 58 34.5t21 114.5q0 81 -19.5 116t-59.5 35q-29 0 -48 -15t-26 -45h-91l16 397h316v-91h-260l51 49l-10 -257l-26 -4q12 23 38 38.5t67 15.5q54 0 92 -28t58.5 -80.5t20.5 -126.5q0 -81 -24 -135.5
t-68 -82.5t-105 -28z" />
    <glyph glyph-name="six.tf" horiz-adv-x="500" 
d="M259 -10q-100 0 -153.5 88t-53.5 269q0 129 24 213.5t72.5 127t120.5 42.5q81 0 126.5 -51t48.5 -145h-108q-3 53 -21.5 78t-50.5 25q-50 0 -72 -66t-22 -217v-26l-26 7q9 40 28 65.5t47 38.5t64 13q53 0 91 -27t59 -77t21 -120q0 -74 -24.5 -127.5t-68 -82t-102.5 -28.5
zM255 83q38 0 59.5 35.5t21.5 107.5q0 73 -21.5 108t-60.5 35t-61 -34.5t-22 -105.5q0 -48 10.5 -80.5t29.5 -49t44 -16.5z" />
    <glyph glyph-name="seven.tf" horiz-adv-x="500" 
d="M151 0q11 186 58 348.5t136 303.5l56 -23h-341v91h380v-85q-77 -137 -118.5 -295t-52.5 -340h-118z" />
    <glyph glyph-name="eight.tf" horiz-adv-x="500" 
d="M250 -10q-59 0 -104 25.5t-69.5 72t-24.5 108.5q0 55 20 99t54 69.5t76 25.5l7 -21q-42 0 -74.5 22t-50.5 60.5t-18 89.5q0 57 23 99.5t64.5 66t96.5 23.5t96.5 -23.5t64.5 -66t23 -99.5q0 -51 -18 -89.5t-50 -60.5t-75 -22l7 21q42 0 76.5 -25.5t54 -69.5t19.5 -99
q0 -62 -24.5 -108.5t-69 -72t-104.5 -25.5zM250 83q38 0 59.5 32.5t21.5 90.5t-21.5 91.5t-59.5 33.5t-59.5 -33.5t-21.5 -91.5q0 -59 21.5 -91t59.5 -32zM250 420q32 0 50.5 29.5t18.5 79.5q0 52 -18.5 80t-51.5 28q-31 0 -49.5 -28t-18.5 -80q0 -50 19 -79.5t50 -29.5z
" />
    <glyph glyph-name="nine.tf" horiz-adv-x="500" 
d="M241 -10q-51 0 -92 24.5t-66 72.5t-27 119h109q2 -68 25.5 -95.5t54.5 -27.5q23 0 39 12.5t26.5 43.5t15 86t4.5 141v26l26 5q-8 -40 -27.5 -66t-47.5 -39t-64 -13q-52 0 -90.5 27t-59.5 76t-21 116q0 71 24 123t68.5 80.5t106.5 28.5q105 0 154 -90t49 -271
q0 -138 -22 -221.5t-67 -120.5t-118 -37zM246 362q39 0 61 33t22 102q0 68 -22.5 104t-61.5 36t-60 -34.5t-21 -102.5q0 -69 21 -103.5t61 -34.5z" />
    <glyph glyph-name="two.tf.ss10" horiz-adv-x="500" 
d="M78 0v73q0 62 17 111t44 88.5t57 74t57 67t44 66.5t17 74q0 41 -16 62t-47 21q-40 0 -60.5 -30t-20.5 -93h-109q0 102 52.5 159t141.5 57q82 0 129 -48t47 -132q0 -46 -14.5 -83.5t-38 -69.5t-51.5 -61.5t-55 -59t-49 -61.5t-34 -70.5t-8 -84.5l-15 31h273v-91h-361z" />
    <glyph glyph-name="colon.case" horiz-adv-x="232" 
d="M48 133v136h136v-136h-136zM48 483v136h136v-136h-136z" />
    <glyph glyph-name="semicolon.case" horiz-adv-x="232" 
d="M48 -17v59q40 12 54.5 36t14.5 65l45 -10h-114v136h136v-100q0 -68 -33.5 -117.5t-102.5 -68.5zM48 483v136h136v-136h-136z" />
    <glyph glyph-name="exclam.case" horiz-adv-x="252" 
d="M80 236l-18 484h129l-19 -484h-92zM58 0v136h136v-136h-136z" />
    <glyph glyph-name="exclamdown.case" horiz-adv-x="249" 
d="M60 0l19 484h92l18 -484h-129zM192 720v-135h-135v135h135z" />
    <glyph glyph-name="question.case" horiz-adv-x="411" 
d="M149 236q0 51 9 89t22.5 66.5t28.5 50.5t28.5 42t22.5 41.5t9 48.5q0 29 -14.5 46t-43.5 17q-34 0 -52 -25.5t-18 -80.5h-108q0 63 22.5 107.5t64 68t96.5 23.5q53 0 91 -20.5t58 -55.5t20 -79q0 -36 -9 -63.5t-24 -50.5t-31.5 -45t-31.5 -47.5t-24 -57t-9 -75.5h-107z
M134 0v136h136v-136h-136z" />
    <glyph glyph-name="questiondown.case" horiz-adv-x="411" 
d="M195 -10q-52 0 -90 21.5t-58.5 59.5t-20.5 89q0 37 9.5 63.5t24 48t31.5 42t31.5 44t24 54t9.5 72.5h107q0 -50 -9 -86.5t-22.5 -63t-28.5 -46.5t-29 -38.5t-22.5 -38.5t-8.5 -46q0 -38 14.5 -56.5t41.5 -18.5q34 0 51 25t17 74h112q0 -62 -23 -106.5t-64.5 -68.5
t-96.5 -24zM277 720v-135h-136v135h136z" />
    <glyph glyph-name="bullet.case" horiz-adv-x="591" 
d="M48 133v495h495v-495h-495z" />
    <glyph glyph-name="periodcentered.loclCAT" horiz-adv-x="151" 
d="M75 296q-32 0 -53.5 21t-21.5 55q0 33 21.5 54t53.5 21q30 0 53 -21t23 -54q0 -34 -23 -55t-53 -21z" />
    <glyph glyph-name="period.ss01" horiz-adv-x="232" 
d="M116 -10q-32 0 -53.5 21t-21.5 55q0 33 21.5 54t53.5 21q30 0 53 -21t23 -54q0 -34 -23 -55t-53 -21z" />
    <glyph glyph-name="comma.ss01" horiz-adv-x="232" 
d="M55 -150v59q35 12 52 36t17 66h38q-8 -7 -21 -12t-25 -5q-32 0 -53.5 20.5t-21.5 52.5q0 33 22 53.5t51 20.5q32 0 55 -24.5t23 -80.5q0 -68 -36 -117.5t-101 -68.5z" />
    <glyph glyph-name="colon.ss01" horiz-adv-x="232" 
d="M116 -10q-32 0 -53.5 21t-21.5 55q0 33 21.5 54t53.5 21q30 0 53 -21t23 -54q0 -34 -23 -55t-53 -21zM116 341q-32 0 -53.5 21t-21.5 55q0 33 21.5 54t53.5 21q30 0 53 -21t23 -54q0 -34 -23 -55t-53 -21z" />
    <glyph glyph-name="semicolon.ss01" horiz-adv-x="234" 
d="M55 -150v59q35 12 52 36t17 66h38q-8 -7 -21 -12t-25 -5q-32 0 -53.5 20.5t-21.5 52.5q0 33 22 53.5t51 20.5q32 0 55 -24.5t23 -80.5q0 -68 -36 -117.5t-101 -68.5zM118 341q-32 0 -53.5 21t-21.5 55q0 33 21.5 54t53.5 21q30 0 53 -21t23 -54q0 -34 -23 -55t-53 -21z
" />
    <glyph glyph-name="ellipsis.ss01" horiz-adv-x="606" 
d="M116 -10q-32 0 -53.5 21t-21.5 55q0 33 21.5 54t53.5 21q30 0 53 -21t23 -54q0 -34 -23 -55t-53 -21zM303 -10q-32 0 -53.5 21t-21.5 55q0 33 21.5 54t53.5 21q30 0 53 -21t23 -54q0 -34 -23 -55t-53 -21zM489 -10q-32 0 -53.5 21t-21.5 55q0 33 21.5 54t53.5 21
q30 0 53 -21t23 -54q0 -34 -23 -55t-53 -21z" />
    <glyph glyph-name="exclam.ss01" horiz-adv-x="252" 
d="M80 236l-18 504h129l-19 -504h-92zM126 -10q-32 0 -53.5 21t-21.5 55q0 33 21.5 54t53.5 21q30 0 53 -21t23 -54q0 -34 -23 -55t-53 -21z" />
    <glyph glyph-name="exclamdown.ss01" horiz-adv-x="264" 
d="M68 -204l18 478h92l19 -478h-129zM132 520q32 0 54 -21t22 -55q0 -32 -22 -53.5t-54 -21.5q-29 0 -52 21.5t-23 53.5q0 34 23 55t52 21z" />
    <glyph glyph-name="question.ss01" horiz-adv-x="411" 
d="M149 236q0 54 9 93.5t22.5 69t28.5 52.5t28.5 43t22.5 41.5t9 48.5q0 36 -14.5 54.5t-43.5 18.5q-34 0 -52 -25.5t-18 -80.5h-108q0 63 22.5 107.5t64 68t96.5 23.5q53 0 91 -21t58 -58t20 -86q0 -36 -9 -63.5t-24 -51t-31.5 -46t-31.5 -49t-24 -60t-9 -79.5h-107z
M202 -10q-32 0 -53.5 21t-21.5 55q0 33 21.5 54t53.5 21q30 0 53 -21t23 -54q0 -34 -23 -55t-53 -21z" />
    <glyph glyph-name="questiondown.ss01" horiz-adv-x="411" 
d="M195 -215q-52 0 -90 21t-58.5 58.5t-20.5 85.5q0 37 9.5 63.5t24 48t31.5 42t31.5 44t24 54t9.5 72.5h107q0 -50 -9 -86.5t-22.5 -63t-28.5 -46.5t-29 -38.5t-22.5 -38.5t-8.5 -46q0 -35 14.5 -53t41.5 -18q34 0 51 25.5t17 74.5h112q0 -62 -23 -107t-64.5 -68.5
t-96.5 -23.5zM209 520q32 0 54 -21t22 -55q0 -32 -22 -53.5t-54 -21.5q-29 0 -52 21.5t-23 53.5q0 34 23 55t52 21z" />
    <glyph glyph-name="periodcentered.ss01" horiz-adv-x="151" 
d="M75 296q-32 0 -53.5 21t-21.5 55q0 33 21.5 54t53.5 21q30 0 53 -21t23 -54q0 -34 -23 -55t-53 -21z" />
    <glyph glyph-name="bullet.ss01" horiz-adv-x="311" 
d="M156 253q-46 0 -77 29.5t-31 77.5q0 46 31 77t77 31q41 0 74 -31t33 -77q0 -48 -33 -77.5t-74 -29.5z" />
    <glyph glyph-name="periodcentered.loclCAT.case" horiz-adv-x="136" 
d="M0 362v136h136v-136h-136z" />
    <glyph glyph-name="bullet.case.ss01" horiz-adv-x="648" 
d="M325 97q-118 0 -197.5 76.5t-79.5 200.5q0 118 79.5 196.5t197.5 78.5q107 0 191 -78t84 -197q0 -125 -84 -201t-191 -76z" />
    <glyph glyph-name="periodcentered.loclCAT.case.ss01" horiz-adv-x="151" 
d="M75 352q-32 0 -53.5 21t-21.5 55q0 33 21.5 54t53.5 21q30 0 53 -21t23 -54q0 -34 -23 -55t-53 -21z" />
    <glyph glyph-name="hyphen.case" horiz-adv-x="357" 
d="M51 309v102h256v-102h-256z" />
    <glyph glyph-name="endash.case" horiz-adv-x="451" 
d="M51 314v92h349v-92h-349z" />
    <glyph glyph-name="emdash.case" horiz-adv-x="651" 
d="M51 314v92h549v-92h-549z" />
    <glyph glyph-name="parenleft.case" horiz-adv-x="363" 
d="M225 -40q-54 63 -90 128t-54 133t-18 139q0 70 18 138t54 133.5t90 128.5h104q-77 -94 -117.5 -194.5t-40.5 -205.5q0 -106 40 -206t118 -194h-104z" />
    <glyph glyph-name="parenright.case" horiz-adv-x="363" 
d="M137 760q55 -62 91 -127.5t53.5 -133.5t17.5 -139q0 -70 -18 -138t-54 -133.5t-90 -128.5h-104q78 95 118 195t40 205q0 107 -39.5 206.5t-118.5 193.5h104z" />
    <glyph glyph-name="braceleft.case" horiz-adv-x="363" 
d="M224 -40q-51 0 -83.5 18t-45.5 51.5t-2 79.5l26 118q11 48 -5 68t-58 20h-33v89h33q42 0 57.5 20t5.5 68l-26 119q-10 47 2.5 80t45 51t83.5 18h95v-90h-75q-28 0 -43 -15t-8 -44l23 -99q10 -39 7 -69.5t-18.5 -51.5t-43.5 -31q28 -10 43.5 -31t18.5 -51.5t-7 -70.5
l-23 -98q-8 -28 7.5 -43.5t43.5 -15.5h75v-90h-95z" />
    <glyph glyph-name="braceright.case" horiz-adv-x="363" 
d="M139 760q50 0 83 -18t45.5 -51t1.5 -80l-26 -118q-10 -48 6 -68t58 -20h32v-89h-32q-42 0 -58 -20t-5 -68l25 -119q11 -46 -1.5 -79.5t-45.5 -51.5t-83 -18h-96v90h76q28 0 43 15.5t8 43.5l-23 99q-10 39 -7 69.5t18.5 51.5t42.5 31q-27 11 -43 31.5t-19 51.5t7 70l24 98
q7 29 -8 44t-43 15h-76v90h96z" />
    <glyph glyph-name="bracketleft.case" horiz-adv-x="363" 
d="M73 -40v800h246v-90h-138v-620h138v-90h-246z" />
    <glyph glyph-name="bracketright.case" horiz-adv-x="363" 
d="M289 760v-800h-246v90h138v620h-138v90h246z" />
    <glyph glyph-name="quotesinglbase.ss01" horiz-adv-x="245" 
d="M50 -162v59q40 4 59.5 27.5t19.5 67.5h38q-8 -7 -21 -12t-25 -5q-32 0 -53.5 20t-21.5 50q0 31 22 51t50 20q33 0 56 -24.5t23 -77.5q0 -69 -39 -116.5t-108 -59.5z" />
    <glyph glyph-name="quotedblbase.ss01" horiz-adv-x="429" 
d="M50 -162v59q40 4 59.5 27.5t19.5 67.5h38q-8 -7 -21 -12t-25 -5q-32 0 -53.5 20t-21.5 50q0 31 22 51t50 20q33 0 56 -24.5t23 -77.5q0 -69 -39 -116.5t-108 -59.5zM234 -162v59q40 4 59.5 27.5t19.5 67.5h38q-8 -7 -21 -12t-25 -5q-32 0 -53.5 20t-21.5 50q0 31 22 51
t50 20q33 0 56 -24.5t23 -77.5q0 -69 -39 -116.5t-108 -59.5z" />
    <glyph glyph-name="quotedblleft.ss01" horiz-adv-x="428" 
d="M127 462q-32 0 -55 24.5t-23 77.5q0 69 38.5 117t107.5 59v-58q-39 -5 -59 -28.5t-20 -66.5l-38 -1q9 7 21.5 12t24.5 5q32 0 54 -19.5t22 -50.5q0 -30 -22 -50.5t-51 -20.5zM310 462q-32 0 -55 24.5t-23 77.5q0 69 38.5 117t107.5 59v-58q-39 -5 -59 -28.5t-20 -66.5
l-38 -1q9 7 21.5 12t24.5 5q32 0 54 -19.5t22 -50.5q0 -30 -22 -50.5t-51 -20.5z" />
    <glyph glyph-name="quotedblright.ss01" horiz-adv-x="428" 
d="M50 472v59q40 4 59.5 27.5t19.5 67.5h38q-8 -7 -21 -12t-25 -5q-32 0 -53.5 20t-21.5 50q0 31 22 51t50 20q33 0 56 -24.5t23 -77.5q0 -69 -39 -116.5t-108 -59.5zM232 472v59q40 4 59.5 27.5t19.5 67.5h38q-8 -7 -21 -12t-25 -5q-32 0 -53.5 20t-21.5 50q0 31 22 51
t50 20q33 0 56 -24.5t23 -77.5q0 -69 -39 -116.5t-108 -59.5z" />
    <glyph glyph-name="quoteleft.ss01" horiz-adv-x="245" 
d="M127 462q-32 0 -55 24.5t-23 77.5q0 69 38.5 117t107.5 59v-58q-39 -5 -59 -28.5t-20 -66.5l-38 -1q9 7 21.5 12t24.5 5q32 0 54 -19.5t22 -50.5q0 -30 -22 -50.5t-51 -20.5z" />
    <glyph glyph-name="quoteright.ss01" horiz-adv-x="232" 
d="M45 472v59q40 4 59.5 27.5t19.5 67.5h38q-8 -7 -21 -12t-25 -5q-32 0 -53.5 20t-21.5 50q0 31 22 51t50 20q33 0 56 -24.5t23 -77.5q0 -69 -39 -116.5t-108 -59.5z" />
    <glyph glyph-name="ampersand.ss11" horiz-adv-x="523" 
d="M218 0q-57 0 -99.5 24t-66 68.5t-23.5 103.5t21 102.5t58 67.5t82 24l6 -21q-39 0 -71.5 21.5t-51.5 60.5t-19 92q0 84 52.5 135.5t142.5 51.5q26 0 47 -3t33 -9v-89q-11 5 -26.5 7.5t-33.5 2.5q-51 0 -75.5 -28t-24.5 -80t23.5 -81t65.5 -29h250v-88h-264
q-45 0 -71.5 -33t-26.5 -93q0 -54 24.5 -85.5t67.5 -31.5h124v-90h-144zM323 0v541h118v-541h-118z" />
    <glyph glyph-name="cent.ss12" horiz-adv-x="407" 
d="M210 -10q-54 0 -95.5 31t-65 90.5t-23.5 144.5q0 86 24.5 144.5t67.5 89t97 30.5q50 0 88 -23.5t59.5 -69.5t21.5 -114h-84q0 63 -19.5 96.5t-65.5 33.5q-49 0 -73 -44t-24 -142q0 -100 23.5 -145t72.5 -45q45 0 65.5 34.5t20.5 95.5h84q0 -67 -23 -113t-62.5 -70
t-88.5 -24zM164 -109v134l11 19v418l-11 26v128h93v-128l-11 -22v-421l11 -23v-131h-93z" />
    <glyph glyph-name="dollar.ss12" horiz-adv-x="437" 
d="M226 -10q-98 0 -149.5 63.5t-51.5 176.5h96q0 -70 27.5 -112t83.5 -42q44 0 65 22.5t21 67.5q0 33 -19 62t-65 65l-81 64q-54 42 -79.5 88.5t-25.5 104.5q0 57 21.5 97.5t62 61.5t95.5 21q88 0 134.5 -55.5t46.5 -160.5h-94q0 70 -20.5 100.5t-68.5 30.5q-42 0 -61.5 -20
t-19.5 -61q0 -34 20.5 -63.5t62.5 -62.5l81 -63q53 -41 79.5 -91.5t26.5 -109.5q0 -87 -50.5 -135.5t-137.5 -48.5zM181 -109v134l14 19v632l-14 26v128h93v-128l-14 -22v-635l14 -23v-131h-93z" />
    <glyph glyph-name="plus.tf" horiz-adv-x="500" 
d="M207 140v463h87v-463h-87zM53 329v84h394v-84h-394z" />
    <glyph glyph-name="minus.tf" horiz-adv-x="500" 
d="M53 329v84h394v-84h-394z" />
    <glyph glyph-name="multiply.tf" horiz-adv-x="500" 
d="M389 159l-336 366l58 60l336 -366zM111 159l-58 60l336 366l58 -60z" />
    <glyph glyph-name="divide.tf" horiz-adv-x="500" 
d="M53 329v84h394v-84h-394zM250 485q-25 0 -41.5 17.5t-16.5 45.5q0 27 16.5 44.5t41.5 17.5q23 0 40.5 -17.5t17.5 -44.5q0 -29 -18 -46t-40 -17zM250 133q-25 0 -41.5 17.5t-16.5 45.5q0 27 16.5 44.5t41.5 17.5q23 0 40.5 -17.5t17.5 -44.5q0 -29 -18 -46t-40 -17z" />
    <glyph glyph-name="equal.tf" horiz-adv-x="500" 
d="M47 429v84h406v-84h-406zM47 229v84h406v-84h-406z" />
    <glyph glyph-name="greater.tf" horiz-adv-x="500" 
d="M56 175v91l286 116v-23l-286 114v90l393 -150v-84z" />
    <glyph glyph-name="less.tf" horiz-adv-x="500" 
d="M491 567v-91l-343 -116v23l343 -114v-90l-438 150v84z" />
    <glyph glyph-name="percent.tf" horiz-adv-x="500" 
d="M60 0l309 720h68l-311 -720h-66zM360 -10q-28 0 -51 18.5t-36.5 55.5t-13.5 91t13.5 90.5t36.5 55t51 18.5q29 0 52.5 -18.5t37 -55t13.5 -90.5t-14 -91t-37.5 -55.5t-51.5 -18.5zM360 50q19 0 30 27t11 79q0 51 -11 77t-30 26t-29 -26.5t-10 -76.5q0 -52 10.5 -79
t28.5 -27zM139 401q-28 0 -51.5 19t-37 55.5t-13.5 90.5t13.5 90.5t37 55t51.5 18.5q29 0 52 -18.5t36.5 -55t13.5 -90.5q0 -55 -14 -91.5t-37 -55t-51 -18.5zM139 461q18 0 29 27t11 79q0 50 -10.5 76.5t-29.5 26.5q-18 0 -28.5 -26.5t-10.5 -76.5q0 -52 10.5 -79t28.5 -27
z" />
    <glyph glyph-name="perthousand.tf" horiz-adv-x="500" 
d="M57 278l-23 57l408 161l23 -57zM227 -10q-40 0 -67 39t-27 116t27 115.5t67 38.5t66.5 -40.5t26.5 -113.5q0 -74 -27 -114.5t-66 -40.5zM227 47q16 0 25.5 24t9.5 75q0 50 -9.5 73t-25.5 23t-24.5 -23.5t-8.5 -72.5q0 -51 9 -75t24 -24zM356 -10q-38 0 -64.5 41
t-26.5 114t26 113.5t65 40.5q42 0 69 -38.5t27 -115.5q0 -78 -28 -116.5t-68 -38.5zM356 47q16 0 25.5 24t9.5 75q0 50 -9.5 73t-25.5 23t-25 -23.5t-9 -72.5q0 -51 9.5 -75t24.5 -24zM149 417q-40 0 -67.5 40t-27.5 117q0 78 27 117t68 39t68.5 -39.5t27.5 -116.5
q0 -78 -28.5 -117.5t-67.5 -39.5zM149 474q16 0 25.5 24t9.5 77q0 51 -9.5 74.5t-25.5 23.5t-25 -23.5t-9 -74.5q0 -53 9 -77t25 -24z" />
    <glyph glyph-name="uni030C.alt" horiz-adv-x="0" 
d="M133 490h-73v230h99z" />
    <glyph glyph-name="uni0308.ss01" horiz-adv-x="0" 
d="M127 595q-28 0 -47.5 20t-19.5 49q0 30 19.5 49t47.5 19q29 0 48 -19.5t19 -48.5q0 -30 -19 -49.5t-48 -19.5zM329 595q-29 0 -48.5 20t-19.5 49q0 30 20 49t48 19t47.5 -19.5t19.5 -48.5q0 -30 -19.5 -49.5t-47.5 -19.5z" />
    <glyph glyph-name="uni0307.ss01" horiz-adv-x="0" 
d="M134 588q-31 0 -52.5 22t-21.5 54q0 33 21.5 53.5t52.5 20.5q32 0 53 -20.5t21 -53.5q0 -32 -21 -54t-53 -22z" />
    <glyph glyph-name="uni0312.ss01" horiz-adv-x="0" 
d="M132 576q-30 0 -51 22.5t-21 74.5q0 39 15 71t43 53.5t68 29.5v-54q-32 -5 -48 -23.5t-16 -52.5h-35q8 7 20 11t22 4q30 0 50 -18.5t20 -49.5q0 -30 -20.5 -49t-46.5 -19z" />
    <glyph glyph-name="uni0326.ss01" horiz-adv-x="0" 
d="M73 -317v54q32 7 48 25t16 51h35q-8 -6 -20 -10.5t-22 -4.5q-30 0 -50 18.5t-20 48.5q0 31 20.5 50t46.5 19q30 0 51 -22.5t21 -74.5q0 -39 -15 -71t-43.5 -53t-67.5 -30z" />
    <glyph glyph-name="dieresis.ss01" horiz-adv-x="456" 
d="M127 595q-28 0 -47.5 20t-19.5 49q0 30 19.5 49t47.5 19q29 0 48 -19.5t19 -48.5q0 -30 -19 -49.5t-48 -19.5zM329 595q-29 0 -48.5 20t-19.5 49q0 30 20 49t48 19t47.5 -19.5t19.5 -48.5q0 -30 -19.5 -49.5t-47.5 -19.5z" />
    <glyph glyph-name="dotaccent.ss01" horiz-adv-x="268" 
d="M134 588q-31 0 -52.5 22t-21.5 54q0 33 21.5 53.5t52.5 20.5q32 0 53 -20.5t21 -53.5q0 -32 -21 -54t-53 -22z" />
    </font>
</defs>
</svg>
