<?xml version="1.0" standalone="no"?>
<!DOCTYPE svg PUBLIC "-//W3C//DTD SVG 1.1//EN" "http://www.w3.org/Graphics/SVG/1.1/DTD/svg11.dtd" >
<svg xmlns="http://www.w3.org/2000/svg" xmlns:xlink="http://www.w3.org/1999/xlink" version="1.1">
<metadata>
Created by FontForge 20201107 at Wed Apr 12 12:05:17 2023
 By 
Copyright 2022 The Instrument Sans Project Authors (https://github.com/Instrument/instrument-sans)
</metadata>
<defs>
<font id="InstrumentSansCondensed-Italic" horiz-adv-x="448" >
  <font-face 
    font-family="Instrument Sans Condensed"
    font-weight="400"
    font-style="italic"
    font-stretch="condensed"
    units-per-em="1000"
    panose-1="0 0 0 0 0 0 0 0 0 0"
    ascent="800"
    descent="-200"
    x-height="510"
    cap-height="720"
    bbox="-125 -273 1622 986"
    underline-thickness="38"
    underline-position="-199"
    slope="-13"
    unicode-range="U+0020-2212"
  />
<missing-glyph horiz-adv-x="500" 
d="M12 0l165 720h359l-165 -720h-359zM96 62h219l137 596h-219z" />
    <glyph glyph-name="f_f_i" unicode="ffi" horiz-adv-x="690" 
d="M22 0l145 631q11 48 43 73.5t83 25.5q17 0 31.5 -2t24.5 -7l-13 -56q-4 2 -15 3.5t-21 1.5q-30 0 -46 -14t-22 -39l-142 -617h-68zM259 0l145 631q11 48 43 73.5t83 25.5q17 0 31.5 -2t24.5 -7l-13 -56q-4 2 -15 3.5t-21 1.5q-30 0 -46 -14t-22 -39l-142 -617h-68zM497 0
l118 510h68l-118 -510h-68zM58 452l13 58h572l-13 -58h-572zM635 634l20 86h84l-20 -86h-84z" />
    <glyph glyph-name="f_f_l" unicode="ffl" horiz-adv-x="688" 
d="M259 0l144 621q11 48 43 73.5t83 25.5h154l-13 -58h-134q-30 0 -46 -15t-22 -40l-141 -607h-68zM22 0l143 621q11 48 43 73.5t83 25.5q17 0 31.5 -2t24.5 -7l-13 -56q-4 2 -15 3.5t-21 1.5q-30 0 -46 -14t-22 -39l-140 -607h-68zM58 452l13 58h459l-13 -58h-459zM497 0
l166 720h68l-166 -720h-68z" />
    <glyph glyph-name="f_i" unicode="fi" horiz-adv-x="444" 
d="M21 0l145 631q11 48 43 73.5t83 25.5q17 0 31.5 -2t24.5 -7l-13 -56q-4 2 -15 3.5t-21 1.5q-30 0 -46 -14t-22 -39l-142 -617h-68zM259 0l118 510h68l-118 -510h-68zM58 452l13 58h334l-13 -58h-334zM397 634l20 86h84l-20 -86h-84z" />
    <glyph glyph-name="f_l" unicode="fl" horiz-adv-x="450" 
d="M21 0l144 621q11 48 43 73.5t83 25.5h154l-13 -58h-134q-30 0 -46 -15t-22 -40l-141 -607h-68zM58 452l13 58h221l-13 -58h-221zM259 0l166 720h68l-166 -720h-68z" />
    <glyph glyph-name="w_w_w.liga" unicode="www" horiz-adv-x="1593" 
d="M97 0l-8 510h67l-5 -415h-12l205 415h39l14 -415h-11l205 415h39l14 -415h-11l205 415h39l14 -415h-11l205 415h39l14 -415h-11l205 415h39l14 -415h-11l185 415h63l-244 -510h-46l-14 408h16l-203 -408h-46l-14 408h16l-203 -408h-46l-14 408h16l-203 -408h-46l-14 408
h16l-203 -408h-46l-14 408h16l-203 -408h-46z" />
    <glyph glyph-name="hyphen_greater.liga" unicode="&#x2d;&#x3e;" horiz-adv-x="657" 
d="M119 376h494l-18 -22l-320 322h86l328 -330l-328 -330h-86l320 322l18 -22h-494v60z" />
    <glyph glyph-name="less_hyphen.liga" unicode="&#x3c;&#x2d;" horiz-adv-x="650" 
d="M657 344h-494l18 22l320 -322h-86l-328 330l328 330h86l-320 -322l-18 22h494v-60z" />
    <glyph glyph-name=".notdef" horiz-adv-x="500" 
d="M12 0l165 720h359l-165 -720h-359zM96 62h219l137 596h-219z" />
    <glyph glyph-name=".null" horiz-adv-x="0" 
 />
    <glyph glyph-name="nonmarkingreturn" horiz-adv-x="333" 
 />
    <glyph glyph-name="space" unicode=" " horiz-adv-x="150" 
 />
    <glyph glyph-name="exclam" unicode="!" horiz-adv-x="231" 
d="M77 200l113 540h76l-137 -540h-52zM11 0l21 91h91l-21 -91h-91z" />
    <glyph glyph-name="quotedbl" unicode="&#x22;" horiz-adv-x="347" 
d="M143 498l6 96q3 43 4 69t5 44q3 14 10 23.5t17 14.5t22 5q14 0 22.5 -6t12 -15.5t3.5 -20.5q0 -10 -4.5 -26.5t-13.5 -40t-23 -54.5l-38 -89h-23zM294 498l6 96q3 43 4 69t5 44q3 14 10 23.5t17 14.5t22 5q14 0 22.5 -6t12 -15.5t3.5 -20.5q0 -10 -4.5 -26.5t-13.5 -40
t-23 -54.5l-38 -89h-23z" />
    <glyph glyph-name="numbersign" unicode="#" horiz-adv-x="460" 
d="M3 0l266 720h63l-266 -720h-63zM175 0l266 720h63l-266 -720h-63zM100 484h391l-14 -58h-391zM33 304h391l-13 -58h-391z" />
    <glyph glyph-name="dollar" unicode="$" horiz-adv-x="404" 
d="M284 696l31 134h56l-31 -134h-56zM196 20l-30 -129h-56l30 129h56zM179 -9q-54 0 -89 21t-52 56t-19.5 77t7.5 85h65q-7 -28 -8 -59t8 -58t30.5 -44t58.5 -17q50 0 81 36t31 102q0 33 -9.5 59.5t-31.5 52.5l-72 87q-25 31 -42 66.5t-17 81.5q0 56 24 99.5t65.5 68.5
t92.5 25q48 0 78.5 -19t44.5 -51t15 -70t-9 -76h-65q10 37 8 72.5t-21 58.5t-60 23q-32 0 -55 -16.5t-35 -44.5t-12 -64q0 -30 10.5 -55t33.5 -53l69 -83q29 -34 43.5 -73t14.5 -86q0 -64 -23 -109t-64.5 -69t-95.5 -24z" />
    <glyph glyph-name="percent" unicode="%" horiz-adv-x="621" 
d="M-14 0l627 720h74l-628 -720h-73zM419 -10q-32 0 -57.5 14.5t-39.5 42.5t-14 69q0 30 9 68.5t27.5 73.5t49.5 58t74 23q48 0 79 -31.5t31 -93.5q0 -30 -8.5 -68t-27.5 -74t-49.5 -59t-73.5 -23zM420 44q26 0 45 18t31 45.5t17.5 56t5.5 49.5q0 35 -14.5 53.5t-39.5 18.5
q-27 0 -45.5 -18t-30 -45.5t-16.5 -55.5t-5 -49q0 -35 13.5 -54t38.5 -19zM202 381q-32 0 -57.5 14.5t-39.5 42.5t-14 69q0 30 9 68.5t27.5 73.5t49.5 58t74 23q48 0 79 -31.5t31 -93.5q0 -30 -8.5 -68t-27.5 -74t-49.5 -59t-73.5 -23zM203 435q26 0 45 18t31 45.5t17.5 56
t5.5 49.5q0 35 -14.5 53.5t-39.5 18.5q-27 0 -45.5 -18t-30 -45.5t-16.5 -55.5t-5 -49q0 -35 13.5 -54t38.5 -19z" />
    <glyph glyph-name="ampersand" unicode="&#x26;" horiz-adv-x="549" 
d="M396 0l-202 439q-13 29 -20.5 57.5t-7.5 55.5q0 52 22 92t61.5 63t89.5 23q41 0 72.5 -15.5t49 -43t17.5 -64.5q0 -42 -24.5 -81t-71.5 -74t-116 -66l-15 51q54 26 89.5 50.5t52.5 51t17 56.5q0 34 -20.5 53.5t-57.5 19.5q-43 0 -69.5 -30.5t-26.5 -81.5q0 -23 6 -46.5
t19 -50.5l219 -459h-84zM201 -9q-39 0 -72.5 11.5t-58.5 34t-39 54.5t-14 72q0 64 32 116t84.5 91t112.5 63l19 -48q-57 -24 -96.5 -56t-59.5 -70.5t-20 -82.5q0 -46 18 -72.5t47 -37.5t61 -11q45 0 84 19t71.5 59.5t58 103.5t44.5 151h69q-20 -96 -53.5 -170t-78 -124.5
t-97.5 -76.5t-112 -26z" />
    <glyph glyph-name="quotesingle" unicode="'" horiz-adv-x="196" 
d="M143 498l6 96q3 43 4 69t5 44q3 14 10 23.5t17 14.5t22 5q14 0 22.5 -6t12 -15.5t3.5 -20.5q0 -10 -4.5 -26.5t-13.5 -40t-23 -54.5l-38 -89h-23z" />
    <glyph glyph-name="parenleft" unicode="(" horiz-adv-x="336" 
d="M155 -110q-42 76 -62 152.5t-20 153.5q0 102 32 200.5t94 188t150 165.5h59q-92 -84 -153 -178.5t-90.5 -193t-29.5 -195.5q0 -76 18.5 -150t58.5 -143h-57z" />
    <glyph glyph-name="parenright" unicode=")" horiz-adv-x="336" 
d="M211 750q42 -76 62 -152.5t20 -153.5q0 -102 -32 -200.5t-93.5 -188t-150.5 -165.5h-59q93 84 153.5 178.5t90 193t29.5 195.5q0 76 -18 150t-59 143h57z" />
    <glyph glyph-name="asterisk" unicode="*" horiz-adv-x="375" 
d="M200 442l47 128l-117 -67l-19 59l128 32l-106 61l44 52l80 -92l11 125h62l-47 -128l117 67l19 -59l-128 -32l106 -61l-44 -52l-80 92l-11 -125h-62z" />
    <glyph glyph-name="plus" unicode="+" horiz-adv-x="531" 
d="M211 153l101 437h62l-101 -437h-62zM80 342l13 58h411l-13 -58h-411z" />
    <glyph glyph-name="comma" unicode="," horiz-adv-x="213" 
d="M-28 -131l8 37q29 11 45.5 32.5t26.5 64.5l28 -3h-78l21 91h91l-20 -89q-13 -53 -41.5 -85.5t-80.5 -47.5z" />
    <glyph glyph-name="hyphen" unicode="-" horiz-adv-x="364" 
d="M60 238l16 68h236l-16 -68h-236z" />
    <glyph glyph-name="period" unicode="." horiz-adv-x="213" 
d="M2 0l21 91h91l-21 -91h-91z" />
    <glyph glyph-name="slash" unicode="/" horiz-adv-x="264" 
d="M-28 -60l298 810h63l-298 -810h-63z" />
    <glyph glyph-name="zero" unicode="0" horiz-adv-x="460" 
d="M186 -8q-40 0 -71.5 23t-49.5 68.5t-18 114.5q0 42 7 97t22 114.5t37.5 116t53 102.5t69.5 73t86 27q41 0 72.5 -22.5t49.5 -68t18 -115.5q0 -42 -7.5 -97.5t-22 -115t-37.5 -116t-53.5 -102t-69.5 -72.5t-86 -27zM191 53q33 0 60.5 26t50 70t39.5 97t28.5 107.5
t17.5 102.5t6 80q0 65 -21 98t-56 33q-33 0 -61 -26t-50.5 -70t-39 -97t-27.5 -107t-16.5 -102t-5.5 -80q0 -65 20.5 -98.5t54.5 -33.5z" />
    <glyph glyph-name="one" unicode="1" horiz-adv-x="296" 
d="M99 0l151 655l10 -16q-21 -20 -48 -37t-59 -28.5t-70 -14.5l16 71q43 3 76 16t59.5 32.5t47.5 41.5h51l-166 -720h-68z" />
    <glyph glyph-name="two" unicode="2" horiz-adv-x="404" 
d="M-10 0l14 59q81 86 147.5 160.5t114 138.5t73.5 119t26 103q0 42 -20.5 65t-58.5 23q-47 0 -77.5 -36t-46.5 -111h-66q21 104 72.5 156.5t124.5 52.5q44 0 75.5 -17t49 -48.5t17.5 -73.5q0 -53 -30 -118t-82 -136.5t-117.5 -145.5t-137.5 -146l-17 15h280l-14 -60h-327z
" />
    <glyph glyph-name="three" unicode="3" horiz-adv-x="411" 
d="M166 -9q-52 0 -85 22t-49 57t-18 74t7 73h67q-6 -23 -6 -51.5t8 -54t27 -42t53 -16.5q36 0 61 19.5t39.5 49t21 61.5t6.5 57q0 47 -20.5 77t-64.5 30h-52l14 60h52q48 0 79.5 24.5t47 62.5t15.5 78q0 48 -21 71t-58 23q-43 0 -77 -35.5t-49 -109.5h-66q22 106 74 156.5
t125 50.5q44 0 76 -17.5t49.5 -51t17.5 -81.5q0 -42 -13.5 -81.5t-40 -70t-63 -46.5t-83.5 -12l-1 21q60 -7 95 -48.5t35 -107.5q0 -35 -11 -76.5t-35 -79.5t-62.5 -62t-94.5 -24z" />
    <glyph glyph-name="four" unicode="4" horiz-adv-x="413" 
d="M189 0l42 180l4 20l87 378l12 -1l-263 -383l-15 26h331l-14 -60h-376l11 50l351 510h64l-166 -720h-68z" />
    <glyph glyph-name="five" unicode="5" horiz-adv-x="425" 
d="M168 -10q-51 0 -82.5 22t-46.5 56t-16.5 71.5t6.5 67.5h67q-9 -39 -4 -74.5t25 -57.5t56 -22q33 0 57.5 18t41.5 47t27.5 62.5t15 65.5t4.5 54q0 56 -24 81t-65 25q-36 0 -60.5 -16.5t-37.5 -41.5h-46l99 372h284l-14 -60h-233l17 18l-69 -257h-16q14 18 37.5 30.5
t59.5 12.5q41 0 72.5 -18.5t49.5 -55.5t18 -92q0 -33 -7.5 -74t-24 -82t-42.5 -75.5t-63 -55.5t-86 -21z" />
    <glyph glyph-name="six" unicode="6" horiz-adv-x="434" 
d="M191 -10q-44 0 -77.5 21.5t-51.5 65t-18 108.5q0 37 6.5 91t21 115.5t37.5 121t55.5 109t75 79t96.5 29.5t83 -29.5t37 -73t-1 -86.5h-67q7 28 4.5 57.5t-18 49.5t-49.5 20q-36 0 -71 -32.5t-64.5 -99t-52.5 -170.5l-7 -32h-7q22 53 58.5 81.5t84.5 28.5q42 0 72 -20.5
t46 -57.5t16 -88q0 -42 -12 -92t-37.5 -94.5t-65 -73t-94.5 -28.5zM193 52q38 0 64 25t41.5 62.5t22.5 76t7 64.5q0 34 -10 57t-28 35t-43 12q-39 0 -65.5 -24t-42.5 -59.5t-22.5 -72.5t-6.5 -63q0 -54 23 -83.5t60 -29.5z" />
    <glyph glyph-name="seven" unicode="7" horiz-adv-x="382" 
d="M54 0q49 170 131 342t214 347l24 -29h-313l14 60h349l-11 -48q-87 -116 -150 -228t-107 -222t-76 -222h-75z" />
    <glyph glyph-name="eight" unicode="8" horiz-adv-x="422" 
d="M174 -10q-49 0 -84 20.5t-54.5 58t-19.5 87.5q0 44 14.5 86.5t41 77t63 55t80.5 20.5l-4 -25q-32 0 -55 20t-35 52.5t-12 69.5q0 34 11 72t33.5 71t58.5 54t86 21q46 0 79 -18.5t51 -52t18 -78.5q0 -32 -10.5 -69.5t-32.5 -71t-56.5 -55t-82.5 -21.5l5 21q34 0 58.5 -20
t37.5 -54.5t13 -76.5q0 -38 -11.5 -80.5t-36.5 -79.5t-63.5 -60.5t-92.5 -23.5zM177 52q35 0 60 19.5t40 49t22 62t7 58.5q0 49 -22 78.5t-62 29.5q-35 0 -60.5 -20t-41.5 -50.5t-24 -63.5t-8 -60q0 -55 27.5 -79t61.5 -24zM258 407q30 0 52 16.5t37 42.5t22 55t7 53
q0 44 -21.5 69t-58.5 25q-32 0 -54.5 -17t-36 -43t-20 -54t-6.5 -50q0 -43 21.5 -70t57.5 -27z" />
    <glyph glyph-name="nine" unicode="9" horiz-adv-x="434" 
d="M153 -10q-57 0 -86.5 30.5t-36 78.5t6.5 100h67q-11 -38 -10.5 -71.5t17 -54.5t53.5 -21q38 0 70 33t59.5 102t50.5 177l7 32h7q-14 -35 -35.5 -59.5t-48.5 -37.5t-59 -13q-41 0 -70.5 20t-45.5 56.5t-16 84.5q0 41 12 89.5t37 92.5t64.5 72.5t93.5 28.5q45 0 78 -21
t51 -63.5t18 -105.5q0 -35 -6 -89t-19 -116t-35 -123t-53.5 -111t-73.5 -80.5t-97 -30.5zM234 346q39 0 65.5 23.5t42.5 59t22.5 71.5t6.5 60q0 50 -22.5 79t-60.5 29q-37 0 -62.5 -25t-41 -62t-22.5 -74.5t-7 -61.5q0 -31 10 -53t27.5 -34t41.5 -12z" />
    <glyph glyph-name="colon" unicode=":" horiz-adv-x="213" 
d="M2 0l21 91h91l-21 -91h-91zM90 380l21 91h91l-21 -91h-91z" />
    <glyph glyph-name="semicolon" unicode=";" horiz-adv-x="213" 
d="M-28 -131l8 37q29 11 45.5 32.5t26.5 64.5l28 -3h-78l21 91h91l-20 -89q-13 -53 -41.5 -85.5t-80.5 -47.5zM90 380l21 91h91l-21 -91h-91z" />
    <glyph glyph-name="less" unicode="&#x3c;" horiz-adv-x="531" 
d="M541 560l-15 -66l-395 -139l5 25l333 -130l-13 -58l-376 150l13 58z" />
    <glyph glyph-name="equal" unicode="=" horiz-adv-x="531" 
d="M104 442l13 58h411l-13 -58h-411zM58 242l13 58h411l-13 -58h-411z" />
    <glyph glyph-name="greater" unicode="&#x3e;" horiz-adv-x="531" 
d="M43 182l15 66l395 139l-5 -25l-333 130l13 58l376 -150l-13 -58z" />
    <glyph glyph-name="question" unicode="?" horiz-adv-x="393" 
d="M157 199q14 64 35.5 110.5t45.5 81t47.5 61.5t43 51t31 49.5t11.5 57.5q0 39 -19 59t-55 20q-46 0 -78 -35t-46 -103h-66q12 64 39.5 108t68 67.5t91.5 23.5q43 0 73 -15.5t46.5 -45.5t16.5 -72q0 -39 -12.5 -69t-33.5 -56.5t-46 -54t-50.5 -60.5t-47 -76.5t-35.5 -101.5
h-60zM102 0l21 91h91l-21 -91h-91z" />
    <glyph glyph-name="at" unicode="@" horiz-adv-x="743" 
d="M369 -9q-64 0 -121 18.5t-100 55t-67.5 90.5t-24.5 125q0 66 21.5 131t61 122.5t93.5 102t118.5 69.5t135.5 25q59 0 107 -17.5t82.5 -50t53.5 -76.5t19 -98t-19 -112.5t-53 -109.5t-80.5 -82.5t-100.5 -31.5q-36 0 -55.5 14.5t-23.5 39.5t4 55l13 -23q-34 -42 -69.5 -64
t-68.5 -22q-39 0 -62.5 29.5t-23.5 77.5q0 37 13.5 79t37.5 83.5t55 75t66.5 54t71.5 20.5q38 0 56 -19t21 -46.5t-6 -52.5l-13 -2l55 109h60l-137 -271q-16 -31 -19.5 -51t5 -29.5t28.5 -9.5q38 0 72.5 27t61.5 70.5t42.5 92.5t15.5 94q0 59 -27 104t-75.5 70.5
t-113.5 25.5q-76 0 -143.5 -34.5t-118 -92.5t-79.5 -128.5t-29 -142.5q0 -60 20 -105.5t55.5 -77t83 -47.5t102.5 -16q40 0 79.5 8t72.5 24l12 -42q-32 -19 -75 -28.5t-90 -9.5zM317 200q25 0 51 18.5t49.5 48.5t42 65t29 69t10.5 60q0 28 -12.5 45t-36.5 17q-32 0 -64 -27
t-58.5 -68.5t-42.5 -85.5t-16 -78q0 -28 12.5 -46t35.5 -18z" />
    <glyph glyph-name="A" unicode="A" 
d="M-35 0l320 720h60l-312 -720h-68zM297 0l20 720h58l-10 -720h-68zM110 275h234l-13 -60h-234z" />
    <glyph glyph-name="B" unicode="B" horiz-adv-x="433" 
d="M59 0l13 58h94q41 0 73.5 23.5t52 64t19.5 89.5q0 53 -24 83t-66 30h-75l12 58h86q36 0 65.5 22t47.5 59t18 81q0 47 -23 70.5t-70 23.5h-71l13 58h71q71 0 110.5 -38.5t39.5 -108.5q0 -48 -17 -88t-46.5 -69t-66.5 -42t-78 -6l6 21q67 -7 103.5 -47.5t36.5 -108.5
q0 -66 -28.5 -119t-78 -83.5t-112.5 -30.5h-105zM12 0l165 720h70l-165 -720h-70z" />
    <glyph glyph-name="C" unicode="C" horiz-adv-x="461" 
d="M199 -10q-47 0 -81 25.5t-51.5 73.5t-17.5 116q0 55 9 115t26 119t42.5 111t58.5 92.5t73 64t87 23.5q52 0 82.5 -26.5t44 -69.5t13 -91t-12.5 -92h-70q8 33 12 70.5t-1 70.5t-24 53.5t-56 20.5q-38 0 -71 -31t-59 -82t-44.5 -112t-28 -123.5t-9.5 -114.5
q0 -75 22.5 -112t63.5 -37q52 0 90 54t63 161h70q-19 -91 -53 -153.5t-79 -94t-99 -31.5z" />
    <glyph glyph-name="D" unicode="D" horiz-adv-x="495" 
d="M60 0l14 66h84q53 0 100 33t83 89.5t57 128t21 149.5q0 68 -11 110.5t-38.5 62t-77.5 19.5h-88l15 62h88q59 0 100 -27.5t62.5 -80.5t21.5 -132q0 -96 -27.5 -182.5t-75 -153.5t-107.5 -105.5t-126 -38.5h-95zM12 0l165 720h70l-165 -720h-70z" />
    <glyph glyph-name="E" unicode="E" horiz-adv-x="415" 
d="M11 0l166 720h70l-166 -720h-70zM53 0l14 62h253l-14 -62h-253zM132 344l14 62h231l-14 -62h-231zM204 658l15 62h245l-15 -62h-245z" />
    <glyph glyph-name="F" unicode="F" horiz-adv-x="381" 
d="M12 0l165 720h70l-165 -720h-70zM125 314l15 62h215l-15 -62h-215zM204 658l15 62h229l-15 -62h-229z" />
    <glyph glyph-name="G" unicode="G" horiz-adv-x="481" 
d="M219 -10q-57 0 -94.5 25.5t-56.5 73.5t-19 116q0 66 12.5 138.5t37.5 141t61 124t82.5 88.5t102.5 33q50 0 79.5 -24.5t43 -62.5t15 -81t-4.5 -81h-70q5 27 6.5 59t-4.5 60.5t-24 47t-53 18.5q-38 0 -71 -31t-59 -82t-44.5 -112t-28 -123.5t-9.5 -114.5q0 -75 24.5 -112
t77.5 -37q31 0 55.5 9.5t41.5 29.5l63 -28q-35 -39 -77.5 -57t-86.5 -18zM314 69l63 275l24 -31h-141l15 62h180l-72 -310z" />
    <glyph glyph-name="H" unicode="H" horiz-adv-x="500" 
d="M12 0l165 720h70l-165 -720h-70zM301 0l165 720h70l-165 -720h-70zM147 406h274l-14 -62h-274z" />
    <glyph glyph-name="I" unicode="I" horiz-adv-x="210" 
d="M11 0l166 720h70l-166 -720h-70z" />
    <glyph glyph-name="J" unicode="J" horiz-adv-x="307" 
d="M27 -10q-25 0 -44.5 3.5t-30.5 8.5l15 64q11 -5 31.5 -8.5t38.5 -3.5q46 0 72 18.5t37 65.5l134 582h70l-135 -587q-18 -79 -66.5 -111t-121.5 -32z" />
    <glyph glyph-name="K" unicode="K" horiz-adv-x="466" 
d="M11 0l166 720h70l-166 -720h-70zM150 374l302 346h85l-303 -346h-84zM315 0l-152 374h71l157 -374h-76z" />
    <glyph glyph-name="L" unicode="L" horiz-adv-x="375" 
d="M11 0l166 720h70l-166 -720h-70zM53 0l14 62h223l-14 -62h-223z" />
    <glyph glyph-name="M" unicode="M" horiz-adv-x="671" 
d="M11 0l166 720h101l19 -676h-27l330 676h108l-166 -720h-70l143 622l3 -1l-305 -621h-80l-19 621l3 1l-143 -622h-63z" />
    <glyph glyph-name="N" unicode="N" horiz-adv-x="505" 
d="M11 0l166 720h83l84 -606l-8 -2l140 608h66l-166 -720h-83l-84 606l8 2l-140 -608h-66z" />
    <glyph glyph-name="O" unicode="O" horiz-adv-x="500" 
d="M199 -10q-44 0 -77.5 26.5t-52 76t-18.5 119.5q0 101 24 194t65.5 166t95 115.5t112.5 42.5q48 0 81.5 -27.5t51.5 -79.5t17 -125q-2 -99 -26.5 -190.5t-65.5 -163t-94 -113t-113 -41.5zM212 54q39 0 77 39.5t69 106t49.5 149t18.5 167.5q0 48 -10.5 81.5t-31 51
t-50.5 17.5q-37 0 -74.5 -39.5t-68.5 -106t-49.5 -149t-18.5 -167.5q0 -47 10.5 -81t30.5 -51.5t48 -17.5z" />
    <glyph glyph-name="P" unicode="P" horiz-adv-x="434" 
d="M11 0l166 720h133q49 0 83.5 -22.5t53.5 -61.5t19 -89q0 -46 -16 -91t-46.5 -80.5t-74 -57t-98.5 -21.5h-104l14 62h100q43 0 72.5 19.5t47.5 49.5t26 62.5t8 57.5q0 47 -26 78.5t-76 31.5h-61l-151 -658h-70z" />
    <glyph glyph-name="Q" unicode="Q" horiz-adv-x="500" 
d="M202 -10q-47 0 -81 26.5t-52 76t-18 118.5q0 101 24 194.5t65.5 166.5t95 115.5t113.5 42.5q47 0 80.5 -26.5t51.5 -77t18 -121.5q0 -83 -16.5 -160.5t-48 -143t-75.5 -112.5t-98 -68zM213 54q39 0 77 39.5t69 106t49.5 149t18.5 167.5q0 48 -10.5 81.5t-31 51
t-50.5 17.5q-38 0 -75.5 -39.5t-68.5 -106t-49.5 -149t-18.5 -167.5q0 -47 10.5 -81t31 -51.5t48.5 -17.5zM202 -10v52l233 20l-14 -62q-37 0 -67 -1.5t-55.5 -3.5t-49 -3.5t-47.5 -1.5z" />
    <glyph glyph-name="R" unicode="R" horiz-adv-x="434" 
d="M11 0l166 720h137q50 0 83 -23t50 -61t16 -83q-1 -58 -29 -112.5t-81 -89t-128 -34.5h-93l15 62h82q53 0 89 23.5t54.5 61.5t19.5 83q1 46 -20.5 78.5t-74.5 32.5h-65l-151 -658h-70zM289 0l-150 374h70l156 -374h-76z" />
    <glyph glyph-name="S" unicode="S" horiz-adv-x="414" 
d="M179 -9q-54 0 -89 21t-52 56t-19.5 77t7.5 85h65q-7 -28 -8 -59t8 -58t30.5 -44t58.5 -17q50 0 81 36t31 102q0 33 -9.5 59.5t-31.5 52.5l-72 87q-25 31 -42 66.5t-17 81.5q0 56 24 99.5t65.5 68.5t92.5 25q48 0 78.5 -19t44.5 -51t15 -70t-9 -76h-65q10 37 8 72.5
t-21 58.5t-60 23q-32 0 -55 -16.5t-35 -44.5t-12 -64q0 -30 10.5 -55t33.5 -53l69 -83q29 -34 43.5 -73t14.5 -86q0 -64 -23 -109t-64.5 -69t-95.5 -24z" />
    <glyph glyph-name="T" unicode="T" horiz-adv-x="414" 
d="M113 0l151 658h-152l15 62h375l-15 -62h-153l-151 -658h-70z" />
    <glyph glyph-name="U" unicode="U" horiz-adv-x="476" 
d="M198 -9q-58 0 -95.5 27t-50.5 76t2 114l117 512h70l-120 -525q-10 -45 -4 -76t28 -47.5t59 -16.5q49 0 77 28.5t41 88.5l127 548h70l-127 -549q-20 -88 -68.5 -134t-125.5 -46z" />
    <glyph glyph-name="V" unicode="V" 
d="M120 0l11 720h69l-16 -668h-15l292 668h70l-321 -720h-90z" />
    <glyph glyph-name="W" unicode="W" horiz-adv-x="622" 
d="M77 0l64 720h70l-62 -639h-11l235 639h91l-61 -639h-10l233 639h69l-268 -720h-90l53 618h8l-231 -618h-90z" />
    <glyph glyph-name="X" unicode="X" horiz-adv-x="445" 
d="M294 0l-70 345l-76 375h70l61 -304l85 -416h-70zM252 425l194 295h74l-252 -381zM258 339l-222 -339h-74l280 425z" />
    <glyph glyph-name="Y" unicode="Y" horiz-adv-x="452" 
d="M132 0l77 336l-90 384h73l77 -336h-30l230 336h78l-268 -384l-77 -336h-70z" />
    <glyph glyph-name="Z" unicode="Z" horiz-adv-x="452" 
d="M3 0l12 52l402 637l18 -31h-270l15 62h316l-12 -52l-402 -637l-19 31h286l-14 -62h-332z" />
    <glyph glyph-name="bracketleft" unicode="[" horiz-adv-x="336" 
d="M-4 -108l198 858h206l-12 -54h-142l-173 -750h142l-13 -54h-206z" />
    <glyph glyph-name="backslash" unicode="\" horiz-adv-x="264" 
d="M159 750h58l-71 -810h-58z" />
    <glyph glyph-name="bracketright" unicode="]" horiz-adv-x="337" 
d="M371 750l-198 -858h-206l12 54h142l173 750h-142l13 54h206z" />
    <glyph glyph-name="asciicircum" unicode="^" horiz-adv-x="531" 
d="M218 491h-59l181 249h75l65 -249h-49l-69 208h21z" />
    <glyph glyph-name="underscore" unicode="_" horiz-adv-x="317" 
d="M-84 -112l14 62h316l-14 -62h-316z" />
    <glyph glyph-name="grave" unicode="`" horiz-adv-x="298" 
d="M268 583l-96 157h81l61 -157h-46z" />
    <glyph glyph-name="a" unicode="a" horiz-adv-x="389" 
d="M218 0q0 14 3 35t7 45h-7l66 291q5 21 4.5 42t-12.5 34.5t-42 13.5q-39 0 -62 -26.5t-34 -72.5h-63q17 77 60 117.5t112 40.5q56 0 80.5 -24t27.5 -61.5t-6 -76.5l-65 -285q-4 -21 -6.5 -39t-2.5 -34h-60zM106 -10q-45 0 -71.5 27.5t-26.5 77.5q0 42 18.5 76.5t53.5 61
t87 44.5l122 43l-13 -59l-94 -35q-55 -20 -80 -51t-25 -69q0 -29 15.5 -43.5t40.5 -14.5q38 0 66 28.5t40 81.5l-8 -81q-21 -44 -53.5 -65.5t-71.5 -21.5z" />
    <glyph glyph-name="b" unicode="b" 
d="M198 -10q-34 0 -60.5 15.5t-40 44.5t-10.5 68l6 6l-28 -124h-60l166 720h68l-71 -302l-5 8q22 46 58 70t77 24q58 0 89 -47.5t31 -123.5q0 -71 -17.5 -135.5t-47.5 -115t-70 -79.5t-85 -29zM192 52q33 0 61 23.5t49.5 64t33.5 92.5t12 108q0 58 -20 88t-60 30
q-34 0 -60 -22.5t-44 -58t-29.5 -76t-16.5 -77.5t-5 -61q0 -55 21.5 -83t57.5 -28z" />
    <glyph glyph-name="c" unicode="c" horiz-adv-x="384" 
d="M154 -10q-39 0 -67 19.5t-43 59.5t-15 101q0 53 11 104.5t32 95.5t49 78t62.5 53t72.5 19q41 0 66.5 -19t38 -49.5t14 -64.5t-7.5 -64h-65q7 29 7 61t-12.5 54.5t-45.5 22.5q-27 0 -50 -16.5t-42 -45t-32.5 -66t-20.5 -80t-7 -85.5q0 -59 15.5 -88.5t46.5 -29.5
q38 0 66.5 36t42.5 101h65q-20 -91 -65.5 -144t-115.5 -53z" />
    <glyph glyph-name="d" unicode="d" 
d="M262 0l22 94l-1 -10q-21 -46 -57 -70t-77 -24q-57 0 -88 47.5t-31 123.5q0 71 17.5 135.5t47.5 115t69.5 79.5t84.5 29q35 0 61 -15.5t40 -44t10 -68.5l-14 -6l77 334h68l-166 -720h-63zM179 52q34 0 60 22.5t44 58t29.5 76t16.5 77.5t5 61q0 56 -21.5 83.5t-57.5 27.5
q-43 0 -78 -39t-56 -102.5t-21 -138.5q0 -58 20 -92t59 -34z" />
    <glyph glyph-name="e" unicode="e" horiz-adv-x="402" 
d="M160 -10q-43 0 -73 20.5t-45.5 58.5t-15.5 91q0 36 8 83t25 95t44.5 89t66.5 66t91 25q38 0 64.5 -16t40.5 -48.5t14 -82.5q0 -35 -6 -73.5t-13 -57.5h-279l12 58h244l-37 -51q7 29 12.5 65.5t4 69.5t-16 54.5t-47.5 21.5q-34 0 -60.5 -22.5t-45 -58.5t-30 -77t-17 -79
t-5.5 -63q0 -52 19 -80t55 -28t63 28.5t43 83.5h64q-25 -84 -71.5 -128t-108.5 -44z" />
    <glyph glyph-name="f" unicode="f" horiz-adv-x="253" 
d="M22 0l145 631q11 48 43 73.5t83 25.5q17 0 31.5 -2t24.5 -7l-13 -56q-4 2 -15 3.5t-21 1.5q-30 0 -46.5 -14t-21.5 -39l-142 -617h-68zM58 452l13 58h221l-13 -58h-221z" />
    <glyph glyph-name="g" unicode="g" 
d="M137 -215q-58 0 -91 22t-45.5 55.5t-10.5 66.5h61q-1 -39 21.5 -61.5t71.5 -22.5q43 0 70 26.5t38 80.5l30 142l5 -10q-20 -46 -56 -70t-77 -24q-58 0 -90 49.5t-32 128.5q0 70 16.5 133t46 112.5t68 78t82.5 28.5q35 0 61.5 -15.5t40.5 -44t11 -68.5l-6 -6l26 124h60
l-118 -556q-17 -82 -64.5 -125.5t-118.5 -43.5zM183 52q34 0 59 22t42.5 57t28 74.5t15.5 76t5 61.5q0 58 -22 86.5t-59 28.5q-43 0 -77 -39t-53.5 -102.5t-19.5 -138.5q0 -58 21 -92t60 -34z" />
    <glyph glyph-name="h" unicode="h" horiz-adv-x="442" 
d="M5 0l166 720h68l-166 -720h-68zM255 0l86 377q9 40 -5.5 62t-51.5 22q-47 0 -84 -35.5t-51 -95.5l10 80q24 55 62.5 82.5t86.5 27.5q60 0 88 -40t14 -103l-87 -377h-68z" />
    <glyph glyph-name="i" unicode="i" horiz-adv-x="197" 
d="M6 0l117 510h68l-117 -510h-68zM141 634l18 86h84l-18 -86h-84z" />
    <glyph glyph-name="j" unicode="j" horiz-adv-x="196" 
d="M-69 -214q-9 0 -27 2.5t-29 8.5l13 54q5 -3 16 -5.5t25 -2.5q20 0 33 10.5t17 30.5l144 626h68l-147 -637q-9 -39 -38.5 -63.5t-74.5 -23.5zM141 634l18 86h84l-18 -86h-84z" />
    <glyph glyph-name="k" unicode="k" horiz-adv-x="399" 
d="M5 0l166 720h68l-166 -720h-68zM256 0l-134 265l230 245h84l-251 -264l-5 43l148 -289h-72z" />
    <glyph glyph-name="l" unicode="l" horiz-adv-x="196" 
d="M5 0l166 720h68l-166 -720h-68z" />
    <glyph glyph-name="m" unicode="m" horiz-adv-x="676" 
d="M6 0l117 510h63l-22 -96h5l-95 -414h-68zM247 0l86 377q9 40 -5 62t-48 22q-44 0 -80.5 -35.5t-49.5 -94.5l10 80q23 54 61 81.5t83 27.5q57 0 84.5 -40t13.5 -103l-87 -377h-68zM489 0l86 377q9 40 -5 62t-48 22q-44 0 -80.5 -35.5t-50.5 -95.5l-9 72q34 61 76.5 89.5
t87.5 28.5q38 0 63.5 -18.5t35 -50.5t-0.5 -74l-87 -377h-68z" />
    <glyph glyph-name="n" unicode="n" horiz-adv-x="443" 
d="M6 0l117 510h63l-22 -96h5l-95 -414h-68zM256 0l86 377q9 40 -6 62t-52 22q-47 0 -84 -35.5t-50 -94.5l10 80q23 54 61.5 81.5t86.5 27.5q60 0 88.5 -40t14.5 -103l-87 -377h-68z" />
    <glyph glyph-name="o" unicode="o" horiz-adv-x="432" 
d="M172 -10q-44 0 -76 22t-49 63.5t-17 99.5q0 69 18.5 131.5t51 110.5t74.5 75.5t88 27.5q44 0 75.5 -21.5t48.5 -62t17 -96.5q0 -70 -19 -133t-51.5 -112t-74 -77t-86.5 -28zM178 50q29 0 57 24t50 66t35 94.5t13 109.5q0 56 -20 86t-58 30q-30 0 -58 -23.5t-49.5 -64
t-34.5 -92.5t-13 -110t20.5 -89t57.5 -31z" />
    <glyph glyph-name="p" unicode="p" 
d="M198 -10q-34 0 -60.5 15.5t-40 44.5t-10.5 68l17 6l-75 -329h-71l165 715h63l-23 -92v8q22 46 58 70t77 24q58 0 89 -47.5t31 -123.5q0 -71 -17.5 -135.5t-47.5 -115t-70 -79.5t-85 -29zM192 52q33 0 61 23.5t49.5 64t33.5 92.5t12 108q0 58 -20 88t-60 30
q-34 0 -60 -22.5t-44 -58t-29.5 -76t-16.5 -77.5t-5 -61q0 -55 21.5 -83t57.5 -28z" />
    <glyph glyph-name="q" unicode="q" horiz-adv-x="449" 
d="M211 -205l68 299l4 -10q-21 -46 -57 -70t-77 -24q-57 0 -88 47.5t-31 123.5q0 71 17.5 135.5t47.5 115t69.5 79.5t84.5 29q35 0 61 -15.5t40 -44t10 -68.5l-9 -6l30 124h63l-165 -715h-68zM179 52q34 0 60 22.5t44 58t29.5 76t16.5 77.5t5 61q0 56 -21.5 83.5t-57.5 27.5
q-43 0 -78 -39t-56 -102.5t-21 -138.5q0 -58 20 -92t59 -34z" />
    <glyph glyph-name="r" unicode="r" horiz-adv-x="276" 
d="M5 0l118 510h63l-25 -106h5l-93 -404h-68zM151 339l1 73q32 54 64.5 81t69.5 27q7 0 16 -1.5t15 -4.5l-14 -65q-5 2 -13.5 3t-16.5 1q-44 0 -77 -29t-45 -85z" />
    <glyph glyph-name="s" unicode="s" horiz-adv-x="326" 
d="M123 -10q-50 0 -79.5 25.5t-38.5 63.5t0 75h61q-5 -24 -2 -48.5t18.5 -41t46.5 -16.5q38 0 57 24.5t19 61.5q0 23 -8 41t-26 36l-47 47q-24 24 -38 53.5t-14 66.5q0 42 18 73.5t50.5 49.5t74.5 18q50 0 74 -22.5t29.5 -56.5t-0.5 -68h-61q3 19 1.5 39.5t-12.5 35
t-39 14.5q-34 0 -52.5 -22.5t-18.5 -57.5q0 -20 8.5 -39t27.5 -38l48 -48q23 -23 36 -52t13 -64q0 -43 -19 -77t-51.5 -53.5t-75.5 -19.5z" />
    <glyph glyph-name="t" unicode="t" horiz-adv-x="269" 
d="M150 -10q-59 0 -86.5 33.5t-14.5 91.5l110 484l76 30l-120 -518q-7 -33 5 -48.5t45 -15.5q11 0 23 2t18 4l-14 -56q-10 -4 -19.5 -5.5t-22.5 -1.5zM58 452l13 58h239l-13 -58h-239z" />
    <glyph glyph-name="u" unicode="u" horiz-adv-x="434" 
d="M131 -10q-57 0 -85 40t-14 103l87 377h68l-86 -377q-9 -40 5.5 -62t48.5 -22q44 0 80.5 35.5t49.5 94.5l-10 -80q-23 -54 -61 -81.5t-83 -27.5zM251 0l23 96h-8l95 414h68l-118 -510h-60z" />
    <glyph glyph-name="v" unicode="v" horiz-adv-x="388" 
d="M112 0l-33 510h69l19 -435h-33l220 435h73l-269 -510h-46z" />
    <glyph glyph-name="w" unicode="w" horiz-adv-x="605" 
d="M97 0l-8 510h66l-5 -415h-18l208 415h44l14 -415h-18l185 415h69l-244 -510h-44l-14 408h16l-205 -408h-46z" />
    <glyph glyph-name="x" unicode="x" horiz-adv-x="386" 
d="M238 0l-64 242l-81 268h65l58 -222l87 -288h-65zM181 286l162 224h73l-208 -281zM204 228l-166 -228h-73l212 285z" />
    <glyph glyph-name="y" unicode="y" horiz-adv-x="388" 
d="M-20 -205l145 270l13 24l217 421h72l-375 -715h-72zM120 5l-41 505h70l26 -430z" />
    <glyph glyph-name="z" unicode="z" horiz-adv-x="346" 
d="M-29 0l11 48l314 431l16 -27h-226l14 58h272l-11 -48l-314 -431l-17 27h242l-13 -58h-288z" />
    <glyph glyph-name="braceleft" unicode="{" horiz-adv-x="336" 
d="M124 -108q-38 0 -62 17.5t-30 46.5t8 64l74 181q20 50 13 71.5t-49 21.5h-39l13 54h38q28 0 43 5.5t22.5 22.5t10.5 53l19 219q5 56 39 79t88 23h87l-11 -54h-75q-27 0 -45 -11.5t-20 -40.5l-17 -198q-5 -61 -23 -91t-59 -40q34 -19 38 -54.5t-19 -91.5l-65 -160
q-10 -25 -0.5 -44t36.5 -19h76l-14 -54h-77z" />
    <glyph glyph-name="bar" unicode="|" horiz-adv-x="201" 
d="M-18 -130l212 920h60l-212 -920h-60z" />
    <glyph glyph-name="braceright" unicode="}" horiz-adv-x="337" 
d="M243 750q39 0 62.5 -17.5t30 -46.5t-8.5 -64l-74 -181q-20 -50 -13 -71.5t49 -21.5h39l-13 -54h-38q-27 0 -42.5 -5t-23 -22.5t-10.5 -53.5l-19 -219q-4 -55 -38.5 -78.5t-88.5 -23.5h-87l11 54h75q27 0 45 12t20 40l17 198q5 61 23 91t59 40q-34 20 -37.5 55t18.5 91
l65 160q10 25 0.5 44t-36.5 19h-76l14 54h77z" />
    <glyph glyph-name="asciitilde" unicode="~" horiz-adv-x="531" 
d="M372 301q45 0 77 25.5t54 77.5h-54q-12 -26 -28.5 -38.5t-38.5 -12.5q-21 0 -40 9t-39 21.5t-43.5 21.5t-53.5 9q-44 0 -76 -25.5t-54 -77.5h54q12 26 28.5 38.5t38.5 12.5t41 -9t38.5 -21.5t42.5 -21.5t53 -9z" />
    <glyph glyph-name="uni00A0" unicode="&#xa0;" horiz-adv-x="150" 
 />
    <glyph glyph-name="exclamdown" unicode="&#xa1;" horiz-adv-x="231" 
d="M-25 -205l131 516h52l-107 -516h-76zM220 510l-21 -91h-91l21 91h91z" />
    <glyph glyph-name="cent" unicode="&#xa2;" horiz-adv-x="384" 
d="M236 482l31 134h56l-31 -134h-56zM186 20l-30 -129h-56l30 129h56zM154 -10q-39 0 -67 19.5t-43 59.5t-15 101q0 53 11 104.5t32 95.5t49 78t62.5 53t72.5 19q41 0 66.5 -19t38 -49.5t14 -64.5t-7.5 -64h-65q7 29 7 61t-12.5 54.5t-45.5 22.5q-27 0 -50 -16.5t-42 -45
t-32.5 -66t-20.5 -80t-7 -85.5q0 -59 15.5 -88.5t46.5 -29.5q38 0 66.5 36t42.5 101h65q-20 -91 -65.5 -144t-115.5 -53z" />
    <glyph glyph-name="sterling" unicode="&#xa3;" horiz-adv-x="415" 
d="M-28 0l14 62q33 49 58.5 94.5t40.5 90.5t15 91q0 25 -3.5 53l-7 56t-3.5 54q0 36 10 76t33 75t60.5 56.5t92.5 21.5q49 0 81.5 -18.5t51 -48t24.5 -64.5t2 -68h-67q3 29 -2.5 61t-26.5 54t-64 22q-37 0 -61.5 -17t-39 -44.5t-20.5 -58.5t-6 -59q0 -33 5 -74t5 -74
q0 -55 -19 -106.5t-49 -99t-65 -91.5l-17 18h303l-14 -62h-331zM20 314l14 58h301l-14 -58h-301z" />
    <glyph glyph-name="yen" unicode="&#xa5;" horiz-adv-x="412" 
d="M112 0l77 336l-70 384h73l57 -336h-30l210 336h78l-248 -384l-77 -336h-70zM30 272l13 58h361l-13 -58h-361zM218 392h-160l13 58h137zM306 450h126l-13 -58h-148z" />
    <glyph glyph-name="section" unicode="&#xa7;" horiz-adv-x="333" 
d="M155 211l6 48q31 0 52.5 10t32.5 29t11 47q0 23 -8 41t-26 36l-47 47q-26 26 -39 56t-13 64q0 42 18 73.5t50.5 49.5t74.5 18q40 0 65.5 -18t35.5 -51t2 -79h-61q8 45 -4.5 67.5t-44.5 22.5q-33 0 -52.5 -21.5t-19.5 -58.5q0 -21 9 -40t27 -37l48 -48q24 -24 36.5 -53.5
t12.5 -62.5q0 -65 -44.5 -102.5t-121.5 -37.5zM111 -33q-40 0 -65.5 18t-35.5 51t-2 79h61q-7 -43 6 -66.5t44 -23.5q32 0 51.5 22t19.5 58q0 21 -9 40t-27 37l-48 48q-24 24 -36.5 53.5t-12.5 62.5q0 65 44.5 102.5t121.5 37.5l-6 -48q-31 0 -52.5 -10t-32.5 -29t-11 -47
q0 -23 8 -41t26 -36l47 -47q26 -26 39 -56t13 -64q0 -41 -18 -73t-50.5 -50t-74.5 -18z" />
    <glyph glyph-name="dieresis" unicode="&#xa8;" horiz-adv-x="393" 
d="M336 634l20 86h84l-20 -86h-84zM147 634l20 86h84l-20 -86h-84z" />
    <glyph glyph-name="copyright" unicode="&#xa9;" horiz-adv-x="850" 
d="M449 -15q-78 0 -146 29t-119.5 80.5t-80.5 119.5t-29 146t29 146t80.5 119.5t119.5 80.5t146 29t146 -29t119.5 -80.5t80.5 -119.5t29 -146t-29 -146t-80.5 -119.5t-119.5 -80.5t-146 -29zM449 23q69 0 130 26.5t107 73t72 107.5t26 130t-26 130t-72 107.5t-107 73
t-130 26.5t-130 -26.5t-107 -73t-72 -107.5t-26 -130t26 -130t72 -107.5t107 -73t130 -26.5zM451 140q-59 0 -105 28.5t-72 78t-26 113.5t26 113.5t72 78t104 28.5q72 0 121.5 -43.5t59.5 -114.5h-49q-7 53 -42 83.5t-89 30.5q-69 0 -111 -49t-42 -127q0 -79 42 -127.5
t110 -48.5q56 0 91 31t42 83h49q-10 -72 -59 -115t-122 -43z" />
    <glyph glyph-name="ordfeminine" unicode="&#xaa;" horiz-adv-x="282" 
d="M220 418q-1 2 0.5 19.5t3.5 27.5l-4 1l40 174q3 14 -2.5 29t-27.5 15q-17 0 -28.5 -12.5t-18.5 -37.5h-49q11 47 36.5 71.5t68.5 24.5q37 0 54 -15.5t20.5 -38t-1.5 -45.5l-39 -172q-3 -13 -4.5 -24.5t-0.5 -16.5h-48zM154 412q-23 0 -41.5 15.5t-18.5 49.5
q0 35 23.5 62.5t69.5 46.5l80 34l-11 -46l-59 -28q-22 -10 -34.5 -23.5t-12.5 -33.5q0 -33 30 -33q17 0 30 13t19 36l-3 -46q-14 -23 -32.5 -35t-39.5 -12z" />
    <glyph glyph-name="guillemotleft" unicode="&#xab;" horiz-adv-x="414" 
d="M105 68l-59 193l138 173h66l-143 -185l53 -181h-55zM255 68l-59 193l138 173h66l-143 -185l53 -181h-55z" />
    <glyph glyph-name="registered" unicode="&#xae;" horiz-adv-x="850" 
d="M449 -15q-78 0 -146 29t-119.5 80.5t-80.5 119.5t-29 146t29 146t80.5 119.5t119.5 80.5t146 29t146 -29t119.5 -80.5t80.5 -119.5t29 -146t-29 -146t-80.5 -119.5t-119.5 -80.5t-146 -29zM449 23q69 0 130 26.5t107 73t72 107.5t26 130t-26 130t-72 107.5t-107 73
t-130 26.5t-130 -26.5t-107 -73t-72 -107.5t-26 -130t26 -130t72 -107.5t107 -73t130 -26.5zM309 145v430h159q67 0 106 -31.5t39 -85.5q0 -88 -115 -113l6 16q47 2 74.5 -23.5t27.5 -70.5v-71q0 -11 1 -23.5t4 -27.5h-50q-2 9 -3 22t-1 29v61q0 39 -22.5 59.5t-63.5 20.5
h-126v40h121q47 0 72.5 21t25.5 58t-25.5 56.5t-72.5 19.5h-108v-387h-49z" />
    <glyph glyph-name="macron" unicode="&#xaf;" horiz-adv-x="387" 
d="M151 647l11 48h267l-11 -48h-267z" />
    <glyph glyph-name="degree" unicode="&#xb0;" horiz-adv-x="386" 
d="M257 449q-38 0 -67 17.5t-45 47.5t-16 65q0 42 21.5 77.5t57.5 57t79 21.5q57 0 91.5 -37t34.5 -90q0 -41 -20.5 -77.5t-56 -59t-79.5 -22.5zM260 485q31 0 57.5 16.5t42.5 43.5t16 58q0 40 -23.5 68t-70.5 28q-31 0 -57.5 -16.5t-42.5 -43t-16 -58.5q0 -40 24.5 -68
t69.5 -28z" />
    <glyph glyph-name="acute" unicode="&#xb4;" horiz-adv-x="298" 
d="M190 583h-54l118 157h96z" />
    <glyph glyph-name="paragraph" unicode="&#xb6;" horiz-adv-x="501" 
d="M161 -130l105 456h-22q-48 0 -82.5 23.5t-53.5 62.5t-19 83q0 58 28.5 109t80 83.5t120.5 32.5h220l-196 -850h-55l184 796h-71l-184 -796h-55z" />
    <glyph glyph-name="periodcentered" unicode="&#xb7;" horiz-adv-x="91" 
d="M17 327l21 91h91l-21 -91h-91z" />
    <glyph glyph-name="cedilla" unicode="&#xb8;" horiz-adv-x="305" 
d="M56 -215q-28 0 -48 12.5t-30 31.5t-8 37h44q-1 -15 11.5 -27t35.5 -12q20 0 33 11.5t13 29.5q0 20 -16 33.5t-48 19.5l38 91h44l-25 -66q26 -10 40 -30.5t14 -44.5q0 -38 -25.5 -62t-72.5 -24z" />
    <glyph glyph-name="ordmasculine" unicode="&#xba;" horiz-adv-x="308" 
d="M202 412q-45 0 -69 32t-24 81q0 27 8 62t25 67.5t44 54t65 21.5q30 0 51 -14.5t32 -39.5t11 -59q0 -28 -8.5 -63t-25.5 -67.5t-44 -53.5t-65 -21zM206 461q23 0 39 18.5t25.5 45.5t14 54t4.5 44q0 29 -11 43.5t-31 14.5q-24 0 -40 -18.5t-25.5 -45.5t-13.5 -53.5
t-4 -42.5q0 -28 11.5 -44t30.5 -16z" />
    <glyph glyph-name="guillemotright" unicode="&#xbb;" horiz-adv-x="414" 
d="M307 434l59 -193l-138 -173h-66l143 185l-53 181h55zM157 434l59 -193l-138 -173h-66l143 185l-53 181h55z" />
    <glyph glyph-name="questiondown" unicode="&#xbf;" horiz-adv-x="392" 
d="M92 -215q-42 0 -72.5 15.5t-47.5 44t-17 67.5q0 40 12.5 71t33.5 57.5t46.5 53t51 57t47.5 69.5t35 91h60q-14 -58 -35.5 -100.5t-45.5 -74t-48 -57.5t-43.5 -49.5t-31 -50t-11.5 -60.5t19.5 -53.5t55.5 -19.5q47 0 78.5 35.5t45.5 102.5h66q-12 -63 -39.5 -107.5
t-67.5 -68t-92 -23.5zM297 511l-21 -91h-91l21 91h91z" />
    <glyph glyph-name="Agrave" unicode="&#xc0;" 
d="M-35 0l320 720h60l-312 -720h-68zM297 0l20 720h58l-10 -720h-68zM110 275h234l-13 -60h-234zM367 793l-96 157h81l61 -157h-46z" />
    <glyph glyph-name="Aacute" unicode="&#xc1;" 
d="M-35 0l320 720h60l-312 -720h-68zM297 0l20 720h58l-10 -720h-68zM110 275h234l-13 -60h-234zM335 793h-54l118 157h96z" />
    <glyph glyph-name="Acircumflex" unicode="&#xc2;" 
d="M-35 0l320 720h60l-312 -720h-68zM297 0l20 720h58l-10 -720h-68zM110 275h234l-13 -60h-234zM200 793l148 157h66l76 -157h-37l-99 137h58l-161 -137h-51z" />
    <glyph glyph-name="Atilde" unicode="&#xc3;" 
d="M-35 0l320 720h60l-312 -720h-68zM297 0l20 720h58l-10 -720h-68zM110 275h234l-13 -60h-234zM426 811q-25 0 -41.5 10.5t-29.5 24t-26 24t-30 10.5q-22 0 -33.5 -14t-19.5 -45h-42q9 38 22.5 62.5t33.5 36.5t45 12q26 0 42 -10.5t28 -24t24.5 -24t30.5 -10.5
q22 0 33.5 14t18.5 45h42q-13 -56 -37.5 -83.5t-60.5 -27.5z" />
    <glyph glyph-name="Adieresis" unicode="&#xc4;" 
d="M-35 0l320 720h60l-312 -720h-68zM297 0l20 720h58l-10 -720h-68zM110 275h234l-13 -60h-234zM410 844l20 86h84l-20 -86h-84zM221 844l20 86h84l-20 -86h-84z" />
    <glyph glyph-name="Aring" unicode="&#xc5;" 
d="M-35 0l320 720h60l-312 -720h-68zM297 0l20 720h58l-10 -720h-68zM110 275h234l-13 -60h-234zM355 771q-41 0 -69 27.5t-28 68.5q0 33 16 60t42.5 43t57.5 16q42 0 70 -27.5t28 -68.5q0 -31 -16.5 -58.5t-43 -44t-57.5 -16.5zM357 811q29 0 51 22t22 53q0 26 -16 43
t-42 17q-28 0 -50 -21.5t-22 -52.5q0 -27 16.5 -44t40.5 -17z" />
    <glyph glyph-name="AE" unicode="&#xc6;" horiz-adv-x="663" 
d="M-35 0l319 720h65l-314 -720h-70zM259 0l164 720h70l-164 -720h-70zM301 0l14 62h253l-14 -62h-253zM169 344l14 62h442l-14 -62h-442zM285 658l14 62h411l-14 -62h-411z" />
    <glyph glyph-name="Ccedilla" unicode="&#xc7;" horiz-adv-x="461" 
d="M199 -10q-47 0 -81 25.5t-51.5 73.5t-17.5 116q0 55 9 115t26 119t42.5 111t58.5 92.5t73 64t87 23.5q52 0 82.5 -26.5t44 -69.5t13 -91t-12.5 -92h-70q8 33 12 70.5t-1 70.5t-24 53.5t-56 20.5q-38 0 -71 -31t-59 -82t-44.5 -112t-28 -123.5t-9.5 -114.5
q0 -75 22.5 -112t63.5 -37q52 0 90 54t63 161h70q-19 -91 -53 -153.5t-79 -94t-99 -31.5zM144 -215q-28 0 -48 12.5t-30 31.5t-8 37h44q-1 -15 11.5 -27t35.5 -12q20 0 33 11.5t13 29.5q0 20 -16 33.5t-48 19.5l38 91h44l-25 -66q26 -10 40 -30.5t14 -44.5q0 -38 -25.5 -62
t-72.5 -24z" />
    <glyph glyph-name="Egrave" unicode="&#xc8;" horiz-adv-x="415" 
d="M11 0l166 720h70l-166 -720h-70zM53 0l14 62h253l-14 -62h-253zM132 344l14 62h231l-14 -62h-231zM204 658l15 62h245l-15 -62h-245zM362 793l-96 157h81l61 -157h-46z" />
    <glyph glyph-name="Eacute" unicode="&#xc9;" horiz-adv-x="415" 
d="M11 0l166 720h70l-166 -720h-70zM53 0l14 62h253l-14 -62h-253zM132 344l14 62h231l-14 -62h-231zM204 658l15 62h245l-15 -62h-245zM330 793h-54l118 157h96z" />
    <glyph glyph-name="Ecircumflex" unicode="&#xca;" horiz-adv-x="415" 
d="M11 0l166 720h70l-166 -720h-70zM53 0l14 62h253l-14 -62h-253zM132 344l14 62h231l-14 -62h-231zM204 658l15 62h245l-15 -62h-245zM195 793l148 157h66l76 -157h-37l-99 137h58l-161 -137h-51z" />
    <glyph glyph-name="Edieresis" unicode="&#xcb;" horiz-adv-x="415" 
d="M11 0l166 720h70l-166 -720h-70zM53 0l14 62h253l-14 -62h-253zM132 344l14 62h231l-14 -62h-231zM204 658l15 62h245l-15 -62h-245zM405 844l20 86h84l-20 -86h-84zM216 844l20 86h84l-20 -86h-84z" />
    <glyph glyph-name="Igrave" unicode="&#xcc;" horiz-adv-x="210" 
d="M11 0l166 720h70l-166 -720h-70zM249 793l-96 157h81l61 -157h-46z" />
    <glyph glyph-name="Iacute" unicode="&#xcd;" horiz-adv-x="210" 
d="M11 0l166 720h70l-166 -720h-70zM217 793h-54l118 157h96z" />
    <glyph glyph-name="Icircumflex" unicode="&#xce;" horiz-adv-x="210" 
d="M11 0l166 720h70l-166 -720h-70zM82 793l148 157h66l76 -157h-37l-99 137h58l-161 -137h-51z" />
    <glyph glyph-name="Idieresis" unicode="&#xcf;" horiz-adv-x="210" 
d="M11 0l166 720h70l-166 -720h-70zM292 844l20 86h84l-20 -86h-84zM103 844l20 86h84l-20 -86h-84z" />
    <glyph glyph-name="Eth" unicode="&#xd0;" horiz-adv-x="496" 
d="M18 331l14 58h267l-14 -58h-267zM60 0l14 66h84q53 0 100 33t83 89.5t57 128t21 149.5q0 68 -11 110.5t-38.5 62t-77.5 19.5h-88l15 62h88q59 0 100 -27.5t62.5 -80.5t21.5 -132q0 -96 -27.5 -182.5t-75 -153.5t-107.5 -105.5t-126 -38.5h-95zM12 0l165 720h70l-165 -720
h-70z" />
    <glyph glyph-name="Ntilde" unicode="&#xd1;" horiz-adv-x="505" 
d="M11 0l166 720h83l84 -606l-8 -2l140 608h66l-166 -720h-83l-84 606l8 2l-140 -608h-66zM456 811q-25 0 -41.5 10.5t-29.5 24t-26 24t-30 10.5q-22 0 -33.5 -14t-19.5 -45h-42q9 38 22.5 62.5t33.5 36.5t45 12q26 0 42 -10.5t28 -24t24.5 -24t30.5 -10.5q22 0 33.5 14
t18.5 45h42q-13 -56 -37.5 -83.5t-60.5 -27.5z" />
    <glyph glyph-name="Ograve" unicode="&#xd2;" horiz-adv-x="500" 
d="M199 -10q-44 0 -77.5 26.5t-52 76t-18.5 119.5q0 101 24 194t65.5 166t95 115.5t112.5 42.5q48 0 81.5 -27.5t51.5 -79.5t17 -125q-2 -99 -26.5 -190.5t-65.5 -163t-94 -113t-113 -41.5zM212 54q39 0 77 39.5t69 106t49.5 149t18.5 167.5q0 48 -10.5 81.5t-31 51
t-50.5 17.5q-37 0 -74.5 -39.5t-68.5 -106t-49.5 -149t-18.5 -167.5q0 -47 10.5 -81t30.5 -51.5t48 -17.5zM393 793l-96 157h81l61 -157h-46z" />
    <glyph glyph-name="Oacute" unicode="&#xd3;" horiz-adv-x="500" 
d="M199 -10q-44 0 -77.5 26.5t-52 76t-18.5 119.5q0 101 24 194t65.5 166t95 115.5t112.5 42.5q48 0 81.5 -27.5t51.5 -79.5t17 -125q-2 -99 -26.5 -190.5t-65.5 -163t-94 -113t-113 -41.5zM212 54q39 0 77 39.5t69 106t49.5 149t18.5 167.5q0 48 -10.5 81.5t-31 51
t-50.5 17.5q-37 0 -74.5 -39.5t-68.5 -106t-49.5 -149t-18.5 -167.5q0 -47 10.5 -81t30.5 -51.5t48 -17.5zM361 793h-54l118 157h96z" />
    <glyph glyph-name="Ocircumflex" unicode="&#xd4;" horiz-adv-x="500" 
d="M199 -10q-44 0 -77.5 26.5t-52 76t-18.5 119.5q0 101 24 194t65.5 166t95 115.5t112.5 42.5q48 0 81.5 -27.5t51.5 -79.5t17 -125q-2 -99 -26.5 -190.5t-65.5 -163t-94 -113t-113 -41.5zM212 54q39 0 77 39.5t69 106t49.5 149t18.5 167.5q0 48 -10.5 81.5t-31 51
t-50.5 17.5q-37 0 -74.5 -39.5t-68.5 -106t-49.5 -149t-18.5 -167.5q0 -47 10.5 -81t30.5 -51.5t48 -17.5zM226 793l148 157h66l76 -157h-37l-99 137h58l-161 -137h-51z" />
    <glyph glyph-name="Otilde" unicode="&#xd5;" horiz-adv-x="500" 
d="M199 -10q-44 0 -77.5 26.5t-52 76t-18.5 119.5q0 101 24 194t65.5 166t95 115.5t112.5 42.5q48 0 81.5 -27.5t51.5 -79.5t17 -125q-2 -99 -26.5 -190.5t-65.5 -163t-94 -113t-113 -41.5zM212 54q39 0 77 39.5t69 106t49.5 149t18.5 167.5q0 48 -10.5 81.5t-31 51
t-50.5 17.5q-37 0 -74.5 -39.5t-68.5 -106t-49.5 -149t-18.5 -167.5q0 -47 10.5 -81t30.5 -51.5t48 -17.5zM452 811q-25 0 -41.5 10.5t-29.5 24t-26 24t-30 10.5q-22 0 -33.5 -14t-19.5 -45h-42q9 38 22.5 62.5t33.5 36.5t45 12q26 0 42 -10.5t28 -24t24.5 -24t30.5 -10.5
q22 0 33.5 14t18.5 45h42q-13 -56 -37.5 -83.5t-60.5 -27.5z" />
    <glyph glyph-name="Odieresis" unicode="&#xd6;" horiz-adv-x="500" 
d="M199 -10q-44 0 -77.5 26.5t-52 76t-18.5 119.5q0 101 24 194t65.5 166t95 115.5t112.5 42.5q48 0 81.5 -27.5t51.5 -79.5t17 -125q-2 -99 -26.5 -190.5t-65.5 -163t-94 -113t-113 -41.5zM212 54q39 0 77 39.5t69 106t49.5 149t18.5 167.5q0 48 -10.5 81.5t-31 51
t-50.5 17.5q-37 0 -74.5 -39.5t-68.5 -106t-49.5 -149t-18.5 -167.5q0 -47 10.5 -81t30.5 -51.5t48 -17.5zM436 844l20 86h84l-20 -86h-84zM247 844l20 86h84l-20 -86h-84z" />
    <glyph glyph-name="multiply" unicode="&#xd7;" horiz-adv-x="531" 
d="M407 179l-275 350l46 35l275 -350zM107 179l-37 45l407 340l37 -45z" />
    <glyph glyph-name="Oslash" unicode="&#xd8;" horiz-adv-x="500" 
d="M67 -10l-42 24l408 716l42 -24zM199 -10q-44 0 -77.5 26.5t-52 76t-18.5 119.5q0 101 24 194t65.5 166t95 115.5t112.5 42.5q48 0 81.5 -27.5t51.5 -79.5t17 -125q-2 -99 -26.5 -190.5t-65.5 -163t-94 -113t-113 -41.5zM212 54q39 0 77 39.5t69 106t49.5 149t18.5 167.5
q0 48 -10.5 81.5t-31 51t-50.5 17.5q-37 0 -74.5 -39.5t-68.5 -106t-49.5 -149t-18.5 -167.5q0 -47 10.5 -81t30.5 -51.5t48 -17.5z" />
    <glyph glyph-name="Ugrave" unicode="&#xd9;" horiz-adv-x="476" 
d="M198 -9q-58 0 -95.5 27t-50.5 76t2 114l117 512h70l-120 -525q-10 -45 -4 -76t28 -47.5t59 -16.5q49 0 77 28.5t41 88.5l127 548h70l-127 -549q-20 -88 -68.5 -134t-125.5 -46zM382 793l-96 157h81l61 -157h-46z" />
    <glyph glyph-name="Uacute" unicode="&#xda;" horiz-adv-x="476" 
d="M198 -9q-58 0 -95.5 27t-50.5 76t2 114l117 512h70l-120 -525q-10 -45 -4 -76t28 -47.5t59 -16.5q49 0 77 28.5t41 88.5l127 548h70l-127 -549q-20 -88 -68.5 -134t-125.5 -46zM350 793h-54l118 157h96z" />
    <glyph glyph-name="Ucircumflex" unicode="&#xdb;" horiz-adv-x="476" 
d="M198 -9q-58 0 -95.5 27t-50.5 76t2 114l117 512h70l-120 -525q-10 -45 -4 -76t28 -47.5t59 -16.5q49 0 77 28.5t41 88.5l127 548h70l-127 -549q-20 -88 -68.5 -134t-125.5 -46zM215 793l148 157h66l76 -157h-37l-99 137h58l-161 -137h-51z" />
    <glyph glyph-name="Udieresis" unicode="&#xdc;" horiz-adv-x="476" 
d="M198 -9q-58 0 -95.5 27t-50.5 76t2 114l117 512h70l-120 -525q-10 -45 -4 -76t28 -47.5t59 -16.5q49 0 77 28.5t41 88.5l127 548h70l-127 -549q-20 -88 -68.5 -134t-125.5 -46zM425 844l20 86h84l-20 -86h-84zM236 844l20 86h84l-20 -86h-84z" />
    <glyph glyph-name="Yacute" unicode="&#xdd;" horiz-adv-x="452" 
d="M132 0l77 336l-90 384h73l77 -336h-30l230 336h78l-268 -384l-77 -336h-70zM338 793h-54l118 157h96z" />
    <glyph glyph-name="Thorn" unicode="&#xde;" horiz-adv-x="434" 
d="M97 170l14 62h79q62 0 100.5 26.5t56 66t17.5 77.5q0 46 -26 76t-76 30h-87l14 62h86q50 0 85.5 -23t54.5 -61.5t19 -84.5q0 -58 -31 -111t-87.5 -86.5t-135.5 -33.5h-83zM11 0l166 720h70l-166 -720h-70z" />
    <glyph glyph-name="germandbls" unicode="&#xdf;" horiz-adv-x="450" 
d="M194 -10q-11 0 -22.5 1.5t-23 5t-23.5 7.5l13 56q11 -4 27 -7.5t30 -3.5q37 0 66.5 24t47.5 66t18 96q1 53 -22.5 87.5t-61.5 34.5h-23l14 60h21q27 0 49.5 12.5t40 35.5t27 53.5t9.5 65.5q0 44 -18.5 66t-53.5 22q-42 0 -68.5 -29.5t-40.5 -90.5l-127 -552h-68l131 566
q19 80 64.5 122t112.5 42q32 0 57.5 -9.5t43.5 -27.5t27.5 -43.5t9.5 -57.5q0 -46 -15 -86.5t-41 -70.5t-59 -45.5t-70 -11.5l-1 22q61 -7 97 -51.5t35 -113.5q0 -70 -27.5 -125.5t-73 -87.5t-102.5 -32z" />
    <glyph glyph-name="agrave" unicode="&#xe0;" horiz-adv-x="389" 
d="M218 0q0 14 3 35t7 45h-7l66 291q5 21 4.5 42t-12.5 34.5t-42 13.5q-39 0 -62 -26.5t-34 -72.5h-63q17 77 60 117.5t112 40.5q56 0 80.5 -24t27.5 -61.5t-6 -76.5l-65 -285q-4 -21 -6.5 -39t-2.5 -34h-60zM106 -10q-45 0 -71.5 27.5t-26.5 77.5q0 42 18.5 76.5t53.5 61
t87 44.5l122 43l-13 -59l-94 -35q-55 -20 -80 -51t-25 -69q0 -29 15.5 -43.5t40.5 -14.5q38 0 66 28.5t40 81.5l-8 -81q-21 -44 -53.5 -65.5t-71.5 -21.5zM291 583l-96 157h81l61 -157h-46z" />
    <glyph glyph-name="aacute" unicode="&#xe1;" horiz-adv-x="389" 
d="M218 0q0 14 3 35t7 45h-7l66 291q5 21 4.5 42t-12.5 34.5t-42 13.5q-39 0 -62 -26.5t-34 -72.5h-63q17 77 60 117.5t112 40.5q56 0 80.5 -24t27.5 -61.5t-6 -76.5l-65 -285q-4 -21 -6.5 -39t-2.5 -34h-60zM106 -10q-45 0 -71.5 27.5t-26.5 77.5q0 42 18.5 76.5t53.5 61
t87 44.5l122 43l-13 -59l-94 -35q-55 -20 -80 -51t-25 -69q0 -29 15.5 -43.5t40.5 -14.5q38 0 66 28.5t40 81.5l-8 -81q-21 -44 -53.5 -65.5t-71.5 -21.5zM259 583h-54l118 157h96z" />
    <glyph glyph-name="acircumflex" unicode="&#xe2;" horiz-adv-x="389" 
d="M218 0q0 14 3 35t7 45h-7l66 291q5 21 4.5 42t-12.5 34.5t-42 13.5q-39 0 -62 -26.5t-34 -72.5h-63q17 77 60 117.5t112 40.5q56 0 80.5 -24t27.5 -61.5t-6 -76.5l-65 -285q-4 -21 -6.5 -39t-2.5 -34h-60zM106 -10q-45 0 -71.5 27.5t-26.5 77.5q0 42 18.5 76.5t53.5 61
t87 44.5l122 43l-13 -59l-94 -35q-55 -20 -80 -51t-25 -69q0 -29 15.5 -43.5t40.5 -14.5q38 0 66 28.5t40 81.5l-8 -81q-21 -44 -53.5 -65.5t-71.5 -21.5zM124 583l148 157h66l76 -157h-37l-99 137h58l-161 -137h-51z" />
    <glyph glyph-name="atilde" unicode="&#xe3;" horiz-adv-x="389" 
d="M218 0q0 14 3 35t7 45h-7l66 291q5 21 4.5 42t-12.5 34.5t-42 13.5q-39 0 -62 -26.5t-34 -72.5h-63q17 77 60 117.5t112 40.5q56 0 80.5 -24t27.5 -61.5t-6 -76.5l-65 -285q-4 -21 -6.5 -39t-2.5 -34h-60zM106 -10q-45 0 -71.5 27.5t-26.5 77.5q0 42 18.5 76.5t53.5 61
t87 44.5l122 43l-13 -59l-94 -35q-55 -20 -80 -51t-25 -69q0 -29 15.5 -43.5t40.5 -14.5q38 0 66 28.5t40 81.5l-8 -81q-21 -44 -53.5 -65.5t-71.5 -21.5zM350 601q-25 0 -41.5 10.5t-29.5 24t-26 24t-30 10.5q-22 0 -33.5 -14t-19.5 -45h-42q9 38 22.5 62.5t33.5 36.5
t45 12q26 0 42 -10.5t28 -24t24.5 -24t30.5 -10.5q22 0 33.5 14t18.5 45h42q-13 -56 -37.5 -83.5t-60.5 -27.5z" />
    <glyph glyph-name="adieresis" unicode="&#xe4;" horiz-adv-x="389" 
d="M218 0q0 14 3 35t7 45h-7l66 291q5 21 4.5 42t-12.5 34.5t-42 13.5q-39 0 -62 -26.5t-34 -72.5h-63q17 77 60 117.5t112 40.5q56 0 80.5 -24t27.5 -61.5t-6 -76.5l-65 -285q-4 -21 -6.5 -39t-2.5 -34h-60zM106 -10q-45 0 -71.5 27.5t-26.5 77.5q0 42 18.5 76.5t53.5 61
t87 44.5l122 43l-13 -59l-94 -35q-55 -20 -80 -51t-25 -69q0 -29 15.5 -43.5t40.5 -14.5q38 0 66 28.5t40 81.5l-8 -81q-21 -44 -53.5 -65.5t-71.5 -21.5zM334 634l20 86h84l-20 -86h-84zM145 634l20 86h84l-20 -86h-84z" />
    <glyph glyph-name="aring" unicode="&#xe5;" horiz-adv-x="389" 
d="M218 0q0 14 3 35t7 45h-7l66 291q5 21 4.5 42t-12.5 34.5t-42 13.5q-39 0 -62 -26.5t-34 -72.5h-63q17 77 60 117.5t112 40.5q56 0 80.5 -24t27.5 -61.5t-6 -76.5l-65 -285q-4 -21 -6.5 -39t-2.5 -34h-60zM106 -10q-45 0 -71.5 27.5t-26.5 77.5q0 42 18.5 76.5t53.5 61
t87 44.5l122 43l-13 -59l-94 -35q-55 -20 -80 -51t-25 -69q0 -29 15.5 -43.5t40.5 -14.5q38 0 66 28.5t40 81.5l-8 -81q-21 -44 -53.5 -65.5t-71.5 -21.5zM279 561q-41 0 -69 27.5t-28 68.5q0 33 16 60t42.5 43t57.5 16q42 0 70 -27.5t28 -68.5q0 -31 -16.5 -58.5t-43 -44
t-57.5 -16.5zM281 601q29 0 51 22t22 53q0 26 -16 43t-42 17q-28 0 -50 -21.5t-22 -52.5q0 -27 16.5 -44t40.5 -17z" />
    <glyph glyph-name="ae" unicode="&#xe6;" horiz-adv-x="615" 
d="M232 126l55 245q5 21 4 42t-12.5 34.5t-41.5 13.5q-39 0 -62 -26.5t-34 -72.5h-63q17 77 60 117.5t112 40.5q56 0 80.5 -24t27.5 -61.5t-6 -76.5l-54 -239zM117 -10q-48 0 -78.5 27.5t-30.5 77.5q0 42 18.5 76.5t53.5 61t87 44.5l122 43l-13 -59l-94 -35q-55 -20 -80 -51
t-25 -69q0 -29 15.5 -43.5t40.5 -14.5q38 0 66 28t40 80l41 -42q-27 -55 -64.5 -89.5t-98.5 -34.5zM379 -10q-40 0 -68.5 20.5t-44 58.5t-15.5 91q0 36 8 83t25 95t44 89t64.5 66t87.5 25q35 0 60.5 -16t39 -48.5t13.5 -82.5q0 -35 -6 -73.5t-13 -57.5h-267l12 58h232
l-37 -51q7 29 12.5 65.5t4.5 69.5t-14 54.5t-44 21.5q-33 0 -58 -22.5t-43 -58.5t-29 -77t-16.5 -79t-5.5 -63q0 -52 18.5 -80t49.5 -28q32 0 58 28.5t42 83.5h64q-25 -84 -70.5 -128t-103.5 -44z" />
    <glyph glyph-name="ccedilla" unicode="&#xe7;" horiz-adv-x="384" 
d="M154 -10q-39 0 -67 19.5t-43 59.5t-15 101q0 53 11 104.5t32 95.5t49 78t62.5 53t72.5 19q41 0 66.5 -19t38 -49.5t14 -64.5t-7.5 -64h-65q7 29 7 61t-12.5 54.5t-45.5 22.5q-27 0 -50 -16.5t-42 -45t-32.5 -66t-20.5 -80t-7 -85.5q0 -59 15.5 -88.5t46.5 -29.5
q38 0 66.5 36t42.5 101h65q-20 -91 -65.5 -144t-115.5 -53zM103 -215q-28 0 -48 12.5t-30 31.5t-8 37h44q-1 -15 11.5 -27t35.5 -12q20 0 33 11.5t13 29.5q0 20 -16 33.5t-48 19.5l38 91h44l-25 -66q26 -10 40 -30.5t14 -44.5q0 -38 -25.5 -62t-72.5 -24z" />
    <glyph glyph-name="egrave" unicode="&#xe8;" horiz-adv-x="402" 
d="M160 -10q-43 0 -73 20.5t-45.5 58.5t-15.5 91q0 36 8 83t25 95t44.5 89t66.5 66t91 25q38 0 64.5 -16t40.5 -48.5t14 -82.5q0 -35 -6 -73.5t-13 -57.5h-279l12 58h244l-37 -51q7 29 12.5 65.5t4 69.5t-16 54.5t-47.5 21.5q-34 0 -60.5 -22.5t-45 -58.5t-30 -77t-17 -79
t-5.5 -63q0 -52 19 -80t55 -28t63 28.5t43 83.5h64q-25 -84 -71.5 -128t-108.5 -44zM308 583l-96 157h81l61 -157h-46z" />
    <glyph glyph-name="eacute" unicode="&#xe9;" horiz-adv-x="402" 
d="M160 -10q-43 0 -73 20.5t-45.5 58.5t-15.5 91q0 36 8 83t25 95t44.5 89t66.5 66t91 25q38 0 64.5 -16t40.5 -48.5t14 -82.5q0 -35 -6 -73.5t-13 -57.5h-279l12 58h244l-37 -51q7 29 12.5 65.5t4 69.5t-16 54.5t-47.5 21.5q-34 0 -60.5 -22.5t-45 -58.5t-30 -77t-17 -79
t-5.5 -63q0 -52 19 -80t55 -28t63 28.5t43 83.5h64q-25 -84 -71.5 -128t-108.5 -44zM276 583h-54l118 157h96z" />
    <glyph glyph-name="ecircumflex" unicode="&#xea;" horiz-adv-x="402" 
d="M160 -10q-43 0 -73 20.5t-45.5 58.5t-15.5 91q0 36 8 83t25 95t44.5 89t66.5 66t91 25q38 0 64.5 -16t40.5 -48.5t14 -82.5q0 -35 -6 -73.5t-13 -57.5h-279l12 58h244l-37 -51q7 29 12.5 65.5t4 69.5t-16 54.5t-47.5 21.5q-34 0 -60.5 -22.5t-45 -58.5t-30 -77t-17 -79
t-5.5 -63q0 -52 19 -80t55 -28t63 28.5t43 83.5h64q-25 -84 -71.5 -128t-108.5 -44zM141 583l148 157h66l76 -157h-37l-99 137h58l-161 -137h-51z" />
    <glyph glyph-name="edieresis" unicode="&#xeb;" horiz-adv-x="402" 
d="M160 -10q-43 0 -73 20.5t-45.5 58.5t-15.5 91q0 36 8 83t25 95t44.5 89t66.5 66t91 25q38 0 64.5 -16t40.5 -48.5t14 -82.5q0 -35 -6 -73.5t-13 -57.5h-279l12 58h244l-37 -51q7 29 12.5 65.5t4 69.5t-16 54.5t-47.5 21.5q-34 0 -60.5 -22.5t-45 -58.5t-30 -77t-17 -79
t-5.5 -63q0 -52 19 -80t55 -28t63 28.5t43 83.5h64q-25 -84 -71.5 -128t-108.5 -44zM351 634l20 86h84l-20 -86h-84zM162 634l20 86h84l-20 -86h-84z" />
    <glyph glyph-name="igrave" unicode="&#xec;" horiz-adv-x="197" 
d="M6 0l117 510h68l-117 -510h-68zM194 583l-96 157h81l61 -157h-46z" />
    <glyph glyph-name="iacute" unicode="&#xed;" horiz-adv-x="197" 
d="M6 0l117 510h68l-117 -510h-68zM162 583h-54l118 157h96z" />
    <glyph glyph-name="icircumflex" unicode="&#xee;" horiz-adv-x="197" 
d="M6 0l117 510h68l-117 -510h-68zM27 583l148 157h66l76 -157h-37l-99 137h58l-161 -137h-51z" />
    <glyph glyph-name="idieresis" unicode="&#xef;" horiz-adv-x="197" 
d="M6 0l117 510h68l-117 -510h-68zM237 634l20 86h84l-20 -86h-84zM48 634l20 86h84l-20 -86h-84z" />
    <glyph glyph-name="eth" unicode="&#xf0;" horiz-adv-x="432" 
d="M165 -8q-42 0 -75 19t-52 57t-19 94q0 34 8.5 79t25.5 91t43.5 85.5t63 64t82.5 24.5q38 0 64.5 -17t40 -48.5t11.5 -73.5l-17 -12l2 8q15 57 13.5 111t-23.5 97.5t-66 70t-115 28.5l28 58q88 -4 139.5 -43t74.5 -102.5t23 -143.5q0 -45 -8 -103t-25.5 -118.5t-47 -111.5
t-71.5 -82.5t-100 -31.5zM171 53q35 0 61.5 20.5t45.5 54t30 72t16.5 75t5.5 62.5q0 31 -7 55t-24 38.5t-46 14.5q-37 0 -64.5 -21.5t-46.5 -56t-31 -73.5t-17 -74.5t-5 -58.5q0 -55 22.5 -81.5t59.5 -26.5zM196 553l-23 40l240 149l22 -40z" />
    <glyph glyph-name="ntilde" unicode="&#xf1;" horiz-adv-x="443" 
d="M6 0l117 510h63l-22 -96h5l-95 -414h-68zM256 0l86 377q9 40 -6 62t-52 22q-47 0 -84 -35.5t-50 -94.5l10 80q23 54 61.5 81.5t86.5 27.5q60 0 88.5 -40t14.5 -103l-87 -377h-68zM390 601q-25 0 -41.5 10.5t-29.5 24t-26 24t-30 10.5q-22 0 -33.5 -14t-19.5 -45h-42
q9 38 22.5 62.5t33.5 36.5t45 12q26 0 42 -10.5t28 -24t24.5 -24t30.5 -10.5q22 0 33.5 14t18.5 45h42q-13 -56 -37.5 -83.5t-60.5 -27.5z" />
    <glyph glyph-name="ograve" unicode="&#xf2;" horiz-adv-x="432" 
d="M172 -10q-44 0 -76 22t-49 63.5t-17 99.5q0 69 18.5 131.5t51 110.5t74.5 75.5t88 27.5q44 0 75.5 -21.5t48.5 -62t17 -96.5q0 -70 -19 -133t-51.5 -112t-74 -77t-86.5 -28zM178 50q29 0 57 24t50 66t35 94.5t13 109.5q0 56 -20 86t-58 30q-30 0 -58 -23.5t-49.5 -64
t-34.5 -92.5t-13 -110t20.5 -89t57.5 -31zM311 583l-96 157h81l61 -157h-46z" />
    <glyph glyph-name="oacute" unicode="&#xf3;" horiz-adv-x="432" 
d="M172 -10q-44 0 -76 22t-49 63.5t-17 99.5q0 69 18.5 131.5t51 110.5t74.5 75.5t88 27.5q44 0 75.5 -21.5t48.5 -62t17 -96.5q0 -70 -19 -133t-51.5 -112t-74 -77t-86.5 -28zM178 50q29 0 57 24t50 66t35 94.5t13 109.5q0 56 -20 86t-58 30q-30 0 -58 -23.5t-49.5 -64
t-34.5 -92.5t-13 -110t20.5 -89t57.5 -31zM279 583h-54l118 157h96z" />
    <glyph glyph-name="ocircumflex" unicode="&#xf4;" horiz-adv-x="432" 
d="M172 -10q-44 0 -76 22t-49 63.5t-17 99.5q0 69 18.5 131.5t51 110.5t74.5 75.5t88 27.5q44 0 75.5 -21.5t48.5 -62t17 -96.5q0 -70 -19 -133t-51.5 -112t-74 -77t-86.5 -28zM178 50q29 0 57 24t50 66t35 94.5t13 109.5q0 56 -20 86t-58 30q-30 0 -58 -23.5t-49.5 -64
t-34.5 -92.5t-13 -110t20.5 -89t57.5 -31zM144 583l148 157h66l76 -157h-37l-99 137h58l-161 -137h-51z" />
    <glyph glyph-name="otilde" unicode="&#xf5;" horiz-adv-x="432" 
d="M172 -10q-44 0 -76 22t-49 63.5t-17 99.5q0 69 18.5 131.5t51 110.5t74.5 75.5t88 27.5q44 0 75.5 -21.5t48.5 -62t17 -96.5q0 -70 -19 -133t-51.5 -112t-74 -77t-86.5 -28zM178 50q29 0 57 24t50 66t35 94.5t13 109.5q0 56 -20 86t-58 30q-30 0 -58 -23.5t-49.5 -64
t-34.5 -92.5t-13 -110t20.5 -89t57.5 -31zM370 601q-25 0 -41.5 10.5t-29.5 24t-26 24t-30 10.5q-22 0 -33.5 -14t-19.5 -45h-42q9 38 22.5 62.5t33.5 36.5t45 12q26 0 42 -10.5t28 -24t24.5 -24t30.5 -10.5q22 0 33.5 14t18.5 45h42q-13 -56 -37.5 -83.5t-60.5 -27.5z" />
    <glyph glyph-name="odieresis" unicode="&#xf6;" horiz-adv-x="432" 
d="M172 -10q-44 0 -76 22t-49 63.5t-17 99.5q0 69 18.5 131.5t51 110.5t74.5 75.5t88 27.5q44 0 75.5 -21.5t48.5 -62t17 -96.5q0 -70 -19 -133t-51.5 -112t-74 -77t-86.5 -28zM178 50q29 0 57 24t50 66t35 94.5t13 109.5q0 56 -20 86t-58 30q-30 0 -58 -23.5t-49.5 -64
t-34.5 -92.5t-13 -110t20.5 -89t57.5 -31zM354 634l20 86h84l-20 -86h-84zM165 634l20 86h84l-20 -86h-84z" />
    <glyph glyph-name="divide" unicode="&#xf7;" horiz-adv-x="531" 
d="M80 342l13 58h411l-13 -58h-411zM324 485q-20 0 -33.5 13t-13.5 33q0 26 18.5 42.5t41.5 16.5q19 0 32.5 -13.5t13.5 -33.5q0 -28 -18.5 -43t-40.5 -15zM248 153q-20 0 -33.5 13t-13.5 33q0 26 18.5 42.5t41.5 16.5q19 0 32.5 -13.5t13.5 -33.5q0 -28 -18.5 -43
t-40.5 -15z" />
    <glyph glyph-name="oslash" unicode="&#xf8;" horiz-adv-x="432" 
d="M172 -10q-44 0 -76 22t-49 63.5t-17 99.5q0 69 18.5 131.5t51 110.5t74.5 75.5t88 27.5q44 0 75.5 -21.5t48.5 -62t17 -96.5q0 -70 -19 -133t-51.5 -112t-74 -77t-86.5 -28zM178 50q29 0 57 24t50 66t35 94.5t13 109.5q0 56 -20 86t-58 30q-30 0 -58 -23.5t-49.5 -64
t-34.5 -92.5t-13 -110t20.5 -89t57.5 -31zM20 -10l-36 28l428 502l36 -28z" />
    <glyph glyph-name="ugrave" unicode="&#xf9;" horiz-adv-x="434" 
d="M131 -10q-57 0 -85 40t-14 103l87 377h68l-86 -377q-9 -40 5.5 -62t48.5 -22q44 0 80.5 35.5t49.5 94.5l-10 -80q-23 -54 -61 -81.5t-83 -27.5zM251 0l23 96h-8l95 414h68l-118 -510h-60zM313 583l-96 157h81l61 -157h-46z" />
    <glyph glyph-name="uacute" unicode="&#xfa;" horiz-adv-x="434" 
d="M131 -10q-57 0 -85 40t-14 103l87 377h68l-86 -377q-9 -40 5.5 -62t48.5 -22q44 0 80.5 35.5t49.5 94.5l-10 -80q-23 -54 -61 -81.5t-83 -27.5zM251 0l23 96h-8l95 414h68l-118 -510h-60zM281 583h-54l118 157h96z" />
    <glyph glyph-name="ucircumflex" unicode="&#xfb;" horiz-adv-x="434" 
d="M131 -10q-57 0 -85 40t-14 103l87 377h68l-86 -377q-9 -40 5.5 -62t48.5 -22q44 0 80.5 35.5t49.5 94.5l-10 -80q-23 -54 -61 -81.5t-83 -27.5zM251 0l23 96h-8l95 414h68l-118 -510h-60zM146 583l148 157h66l76 -157h-37l-99 137h58l-161 -137h-51z" />
    <glyph glyph-name="udieresis" unicode="&#xfc;" horiz-adv-x="434" 
d="M131 -10q-57 0 -85 40t-14 103l87 377h68l-86 -377q-9 -40 5.5 -62t48.5 -22q44 0 80.5 35.5t49.5 94.5l-10 -80q-23 -54 -61 -81.5t-83 -27.5zM251 0l23 96h-8l95 414h68l-118 -510h-60zM356 634l20 86h84l-20 -86h-84zM167 634l20 86h84l-20 -86h-84z" />
    <glyph glyph-name="yacute" unicode="&#xfd;" horiz-adv-x="388" 
d="M-20 -205l145 270l13 24l217 421h72l-375 -715h-72zM120 5l-41 505h70l26 -430zM258 583h-54l118 157h96z" />
    <glyph glyph-name="thorn" unicode="&#xfe;" 
d="M198 -10q-34 0 -60.5 15.5t-40 44.5t-10.5 68l14 6l-75 -329h-68l213 925h68l-71 -302l-5 8q22 46 58 70t77 24q58 0 89 -47.5t31 -123.5q0 -71 -17.5 -135.5t-47.5 -115t-70 -79.5t-85 -29zM192 52q33 0 61 23.5t49.5 64t33.5 92.5t12 108q0 58 -20 88t-60 30
q-34 0 -60 -22.5t-44 -58t-29.5 -76t-16.5 -77.5t-5 -61q0 -55 21.5 -83t57.5 -28z" />
    <glyph glyph-name="ydieresis" unicode="&#xff;" horiz-adv-x="388" 
d="M-20 -205l145 270l13 24l217 421h72l-375 -715h-72zM120 5l-41 505h70l26 -430zM333 634l20 86h84l-20 -86h-84zM144 634l20 86h84l-20 -86h-84z" />
    <glyph glyph-name="Amacron" unicode="&#x100;" 
d="M-35 0l320 720h60l-312 -720h-68zM297 0l20 720h58l-10 -720h-68zM110 275h234l-13 -60h-234zM227 857l11 48h267l-11 -48h-267z" />
    <glyph glyph-name="amacron" unicode="&#x101;" horiz-adv-x="389" 
d="M218 0q0 14 3 35t7 45h-7l66 291q5 21 4.5 42t-12.5 34.5t-42 13.5q-39 0 -62 -26.5t-34 -72.5h-63q17 77 60 117.5t112 40.5q56 0 80.5 -24t27.5 -61.5t-6 -76.5l-65 -285q-4 -21 -6.5 -39t-2.5 -34h-60zM106 -10q-45 0 -71.5 27.5t-26.5 77.5q0 42 18.5 76.5t53.5 61
t87 44.5l122 43l-13 -59l-94 -35q-55 -20 -80 -51t-25 -69q0 -29 15.5 -43.5t40.5 -14.5q38 0 66 28.5t40 81.5l-8 -81q-21 -44 -53.5 -65.5t-71.5 -21.5zM151 647l11 48h267l-11 -48h-267z" />
    <glyph glyph-name="Abreve" unicode="&#x102;" 
d="M-35 0l320 720h60l-312 -720h-68zM297 0l20 720h58l-10 -720h-68zM110 275h234l-13 -60h-234zM358 789q-39 0 -63.5 16.5t-36.5 41.5t-13.5 53t5.5 50h41q-6 -19 -2 -44.5t22 -44t55 -18.5q40 0 69 26t40 81h41q-17 -87 -62 -124t-96 -37z" />
    <glyph glyph-name="abreve" unicode="&#x103;" horiz-adv-x="389" 
d="M218 0q0 14 3 35t7 45h-7l66 291q5 21 4.5 42t-12.5 34.5t-42 13.5q-39 0 -62 -26.5t-34 -72.5h-63q17 77 60 117.5t112 40.5q56 0 80.5 -24t27.5 -61.5t-6 -76.5l-65 -285q-4 -21 -6.5 -39t-2.5 -34h-60zM106 -10q-45 0 -71.5 27.5t-26.5 77.5q0 42 18.5 76.5t53.5 61
t87 44.5l122 43l-13 -59l-94 -35q-55 -20 -80 -51t-25 -69q0 -29 15.5 -43.5t40.5 -14.5q38 0 66 28.5t40 81.5l-8 -81q-21 -44 -53.5 -65.5t-71.5 -21.5zM282 579q-39 0 -63.5 16.5t-36.5 41.5t-13.5 53t5.5 50h41q-6 -19 -2 -44.5t22 -44t55 -18.5q40 0 69 26t40 81h41
q-17 -87 -62 -124t-96 -37z" />
    <glyph glyph-name="Aogonek" unicode="&#x104;" 
d="M-35 0l320 720h60l-312 -720h-68zM297 0l20 720h58l-10 -720h-68zM110 275h234l-13 -60h-234zM260 -216q-33 0 -52.5 17.5t-19.5 47.5q0 48 47 92.5t117 76.5l13 -18q-54 -36 -91.5 -69t-37.5 -71q0 -18 10 -26t23 -8q16 0 36 14l17 -34q-15 -10 -30 -16t-32 -6z" />
    <glyph glyph-name="aogonek" unicode="&#x105;" horiz-adv-x="389" 
d="M218 0q0 14 3 35t7 45h-7l66 291q5 21 4.5 42t-12.5 34.5t-42 13.5q-39 0 -62 -26.5t-34 -72.5h-63q17 77 60 117.5t112 40.5q56 0 80.5 -24t27.5 -61.5t-6 -76.5l-65 -285q-4 -21 -6.5 -39t-2.5 -34h-60zM106 -10q-45 0 -71.5 27.5t-26.5 77.5q0 42 18.5 76.5t53.5 61
t87 44.5l122 43l-13 -59l-94 -35q-55 -20 -80 -51t-25 -69q0 -29 15.5 -43.5t40.5 -14.5q38 0 66 28.5t40 81.5l-8 -81q-21 -44 -53.5 -65.5t-71.5 -21.5zM174 -216q-33 0 -52.5 17.5t-19.5 47.5q0 48 47 92.5t117 76.5l13 -18q-54 -36 -91.5 -69t-37.5 -71q0 -18 10 -26
t23 -8q16 0 36 14l17 -34q-15 -10 -30 -16t-32 -6z" />
    <glyph glyph-name="Cacute" unicode="&#x106;" horiz-adv-x="461" 
d="M199 -10q-47 0 -81 25.5t-51.5 73.5t-17.5 116q0 55 9 115t26 119t42.5 111t58.5 92.5t73 64t87 23.5q52 0 82.5 -26.5t44 -69.5t13 -91t-12.5 -92h-70q8 33 12 70.5t-1 70.5t-24 53.5t-56 20.5q-38 0 -71 -31t-59 -82t-44.5 -112t-28 -123.5t-9.5 -114.5
q0 -75 22.5 -112t63.5 -37q52 0 90 54t63 161h70q-19 -91 -53 -153.5t-79 -94t-99 -31.5zM334 793h-54l118 157h96z" />
    <glyph glyph-name="cacute" unicode="&#x107;" horiz-adv-x="384" 
d="M154 -10q-39 0 -67 19.5t-43 59.5t-15 101q0 53 11 104.5t32 95.5t49 78t62.5 53t72.5 19q41 0 66.5 -19t38 -49.5t14 -64.5t-7.5 -64h-65q7 29 7 61t-12.5 54.5t-45.5 22.5q-27 0 -50 -16.5t-42 -45t-32.5 -66t-20.5 -80t-7 -85.5q0 -59 15.5 -88.5t46.5 -29.5
q38 0 66.5 36t42.5 101h65q-20 -91 -65.5 -144t-115.5 -53zM271 583h-54l118 157h96z" />
    <glyph glyph-name="Cdotaccent" unicode="&#x10a;" horiz-adv-x="461" 
d="M199 -10q-47 0 -81 25.5t-51.5 73.5t-17.5 116q0 55 9 115t26 119t42.5 111t58.5 92.5t73 64t87 23.5q52 0 82.5 -26.5t44 -69.5t13 -91t-12.5 -92h-70q8 33 12 70.5t-1 70.5t-24 53.5t-56 20.5q-38 0 -71 -31t-59 -82t-44.5 -112t-28 -123.5t-9.5 -114.5
q0 -75 22.5 -112t63.5 -37q52 0 90 54t63 161h70q-19 -91 -53 -153.5t-79 -94t-99 -31.5zM313 844l18 86h84l-18 -86h-84z" />
    <glyph glyph-name="cdotaccent" unicode="&#x10b;" horiz-adv-x="384" 
d="M154 -10q-39 0 -67 19.5t-43 59.5t-15 101q0 53 11 104.5t32 95.5t49 78t62.5 53t72.5 19q41 0 66.5 -19t38 -49.5t14 -64.5t-7.5 -64h-65q7 29 7 61t-12.5 54.5t-45.5 22.5q-27 0 -50 -16.5t-42 -45t-32.5 -66t-20.5 -80t-7 -85.5q0 -59 15.5 -88.5t46.5 -29.5
q38 0 66.5 36t42.5 101h65q-20 -91 -65.5 -144t-115.5 -53zM250 634l18 86h84l-18 -86h-84z" />
    <glyph glyph-name="Ccaron" unicode="&#x10c;" horiz-adv-x="461" 
d="M199 -10q-47 0 -81 25.5t-51.5 73.5t-17.5 116q0 55 9 115t26 119t42.5 111t58.5 92.5t73 64t87 23.5q52 0 82.5 -26.5t44 -69.5t13 -91t-12.5 -92h-70q8 33 12 70.5t-1 70.5t-24 53.5t-56 20.5q-38 0 -71 -31t-59 -82t-44.5 -112t-28 -123.5t-9.5 -114.5
q0 -75 22.5 -112t63.5 -37q52 0 90 54t63 161h70q-19 -91 -53 -153.5t-79 -94t-99 -31.5zM313 793l-76 157h37l99 -137h-58l161 137h51l-148 -157h-66z" />
    <glyph glyph-name="ccaron" unicode="&#x10d;" horiz-adv-x="384" 
d="M154 -10q-39 0 -67 19.5t-43 59.5t-15 101q0 53 11 104.5t32 95.5t49 78t62.5 53t72.5 19q41 0 66.5 -19t38 -49.5t14 -64.5t-7.5 -64h-65q7 29 7 61t-12.5 54.5t-45.5 22.5q-27 0 -50 -16.5t-42 -45t-32.5 -66t-20.5 -80t-7 -85.5q0 -59 15.5 -88.5t46.5 -29.5
q38 0 66.5 36t42.5 101h65q-20 -91 -65.5 -144t-115.5 -53zM250 583l-76 157h37l99 -137h-58l161 137h51l-148 -157h-66z" />
    <glyph glyph-name="Dcaron" unicode="&#x10e;" horiz-adv-x="495" 
d="M60 0l14 66h84q53 0 100 33t83 89.5t57 128t21 149.5q0 68 -11 110.5t-38.5 62t-77.5 19.5h-88l15 62h88q59 0 100 -27.5t62.5 -80.5t21.5 -132q0 -96 -27.5 -182.5t-75 -153.5t-107.5 -105.5t-126 -38.5h-95zM12 0l165 720h70l-165 -720h-70zM314 793l-76 157h37
l99 -137h-58l161 137h51l-148 -157h-66z" />
    <glyph glyph-name="dcaron" unicode="&#x10f;" horiz-adv-x="477" 
d="M262 0l22 94l-1 -10q-21 -46 -57 -70t-77 -24q-57 0 -88 47.5t-31 123.5q0 71 17.5 135.5t47.5 115t69.5 79.5t84.5 29q35 0 61 -15.5t40 -44t10 -68.5l-14 -6l77 334h68l-166 -720h-63zM179 52q34 0 60 22.5t44 58t29.5 76t16.5 77.5t5 61q0 56 -21.5 83.5t-57.5 27.5
q-43 0 -78 -39t-56 -102.5t-21 -138.5q0 -58 20 -92t59 -34zM531 503h-40l50 217h66z" />
    <glyph glyph-name="Dcroat" unicode="&#x110;" horiz-adv-x="496" 
d="M18 331l14 58h267l-14 -58h-267zM60 0l14 66h84q53 0 100 33t83 89.5t57 128t21 149.5q0 68 -11 110.5t-38.5 62t-77.5 19.5h-88l15 62h88q59 0 100 -27.5t62.5 -80.5t21.5 -132q0 -96 -27.5 -182.5t-75 -153.5t-107.5 -105.5t-126 -38.5h-95zM12 0l165 720h70l-165 -720
h-70z" />
    <glyph glyph-name="dcroat" unicode="&#x111;" 
d="M259 595l11 48h267l-11 -48h-267zM262 0l22 94l-1 -10q-21 -46 -57 -70t-77 -24q-57 0 -88 47.5t-31 123.5q0 71 17.5 135.5t47.5 115t69.5 79.5t84.5 29q35 0 61 -15.5t40 -44t10 -68.5l-14 -6l77 334h68l-166 -720h-63zM179 52q34 0 60 22.5t44 58t29.5 76t16.5 77.5
t5 61q0 56 -21.5 83.5t-57.5 27.5q-43 0 -78 -39t-56 -102.5t-21 -138.5q0 -58 20 -92t59 -34z" />
    <glyph glyph-name="Emacron" unicode="&#x112;" horiz-adv-x="415" 
d="M11 0l166 720h70l-166 -720h-70zM53 0l14 62h253l-14 -62h-253zM132 344l14 62h231l-14 -62h-231zM204 658l15 62h245l-15 -62h-245zM222 857l11 48h267l-11 -48h-267z" />
    <glyph glyph-name="emacron" unicode="&#x113;" horiz-adv-x="402" 
d="M160 -10q-43 0 -73 20.5t-45.5 58.5t-15.5 91q0 36 8 83t25 95t44.5 89t66.5 66t91 25q38 0 64.5 -16t40.5 -48.5t14 -82.5q0 -35 -6 -73.5t-13 -57.5h-279l12 58h244l-37 -51q7 29 12.5 65.5t4 69.5t-16 54.5t-47.5 21.5q-34 0 -60.5 -22.5t-45 -58.5t-30 -77t-17 -79
t-5.5 -63q0 -52 19 -80t55 -28t63 28.5t43 83.5h64q-25 -84 -71.5 -128t-108.5 -44zM168 647l11 48h267l-11 -48h-267z" />
    <glyph glyph-name="Edotaccent" unicode="&#x116;" horiz-adv-x="415" 
d="M11 0l166 720h70l-166 -720h-70zM53 0l14 62h253l-14 -62h-253zM132 344l14 62h231l-14 -62h-231zM204 658l15 62h245l-15 -62h-245zM309 844l18 86h84l-18 -86h-84z" />
    <glyph glyph-name="edotaccent" unicode="&#x117;" horiz-adv-x="402" 
d="M160 -10q-43 0 -73 20.5t-45.5 58.5t-15.5 91q0 36 8 83t25 95t44.5 89t66.5 66t91 25q38 0 64.5 -16t40.5 -48.5t14 -82.5q0 -35 -6 -73.5t-13 -57.5h-279l12 58h244l-37 -51q7 29 12.5 65.5t4 69.5t-16 54.5t-47.5 21.5q-34 0 -60.5 -22.5t-45 -58.5t-30 -77t-17 -79
t-5.5 -63q0 -52 19 -80t55 -28t63 28.5t43 83.5h64q-25 -84 -71.5 -128t-108.5 -44zM255 634l18 86h84l-18 -86h-84z" />
    <glyph glyph-name="Eogonek" unicode="&#x118;" horiz-adv-x="415" 
d="M11 0l166 720h70l-166 -720h-70zM53 0l14 62h253l-14 -62h-253zM132 344l14 62h231l-14 -62h-231zM204 658l15 62h245l-15 -62h-245zM161 -216q-33 0 -52.5 17.5t-19.5 47.5q0 48 47 92.5t117 76.5l13 -18q-54 -36 -91.5 -69t-37.5 -71q0 -18 10 -26t23 -8q16 0 36 14
l17 -34q-15 -10 -30 -16t-32 -6z" />
    <glyph glyph-name="eogonek" unicode="&#x119;" horiz-adv-x="402" 
d="M160 -10q-43 0 -73 20.5t-45.5 58.5t-15.5 91q0 36 8 83t25 95t44.5 89t66.5 66t91 25q38 0 64.5 -16t40.5 -48.5t14 -82.5q0 -35 -6 -73.5t-13 -57.5h-279l12 58h244l-37 -51q7 29 12.5 65.5t4 69.5t-16 54.5t-47.5 21.5q-34 0 -60.5 -22.5t-45 -58.5t-30 -77t-17 -79
t-5.5 -63q0 -52 19 -80t55 -28t63 28.5t43 83.5h64q-25 -84 -71.5 -128t-108.5 -44zM135 -196q-33 0 -52.5 17.5t-19.5 47.5q0 48 47 92.5t117 76.5l13 -18q-54 -36 -91.5 -69t-37.5 -71q0 -18 10 -26t23 -8q16 0 36 14l17 -34q-15 -10 -30 -16t-32 -6z" />
    <glyph glyph-name="Ecaron" unicode="&#x11a;" horiz-adv-x="415" 
d="M11 0l166 720h70l-166 -720h-70zM53 0l14 62h253l-14 -62h-253zM132 344l14 62h231l-14 -62h-231zM204 658l15 62h245l-15 -62h-245zM309 793l-76 157h37l99 -137h-58l161 137h51l-148 -157h-66z" />
    <glyph glyph-name="ecaron" unicode="&#x11b;" horiz-adv-x="402" 
d="M160 -10q-43 0 -73 20.5t-45.5 58.5t-15.5 91q0 36 8 83t25 95t44.5 89t66.5 66t91 25q38 0 64.5 -16t40.5 -48.5t14 -82.5q0 -35 -6 -73.5t-13 -57.5h-279l12 58h244l-37 -51q7 29 12.5 65.5t4 69.5t-16 54.5t-47.5 21.5q-34 0 -60.5 -22.5t-45 -58.5t-30 -77t-17 -79
t-5.5 -63q0 -52 19 -80t55 -28t63 28.5t43 83.5h64q-25 -84 -71.5 -128t-108.5 -44zM255 583l-76 157h37l99 -137h-58l161 137h51l-148 -157h-66z" />
    <glyph glyph-name="Gbreve" unicode="&#x11e;" horiz-adv-x="481" 
d="M219 -10q-57 0 -94.5 25.5t-56.5 73.5t-19 116q0 66 12.5 138.5t37.5 141t61 124t82.5 88.5t102.5 33q50 0 79.5 -24.5t43 -62.5t15 -81t-4.5 -81h-70q5 27 6.5 59t-4.5 60.5t-24 47t-53 18.5q-38 0 -71 -31t-59 -82t-44.5 -112t-28 -123.5t-9.5 -114.5q0 -75 24.5 -112
t77.5 -37q31 0 55.5 9.5t41.5 29.5l63 -28q-35 -39 -77.5 -57t-86.5 -18zM314 69l63 275l24 -31h-141l15 62h180l-72 -310zM386 789q-39 0 -63.5 16.5t-36.5 41.5t-13.5 53t5.5 50h41q-6 -19 -2 -44.5t22 -44t55 -18.5q40 0 69 26t40 81h41q-17 -87 -62 -124t-96 -37z" />
    <glyph glyph-name="gbreve" unicode="&#x11f;" 
d="M137 -215q-58 0 -91 22t-45.5 55.5t-10.5 66.5h61q-1 -39 21.5 -61.5t71.5 -22.5q43 0 70 26.5t38 80.5l30 142l5 -10q-20 -46 -56 -70t-77 -24q-58 0 -90 49.5t-32 128.5q0 70 16.5 133t46 112.5t68 78t82.5 28.5q35 0 61.5 -15.5t40.5 -44t11 -68.5l-6 -6l26 124h60
l-118 -556q-17 -82 -64.5 -125.5t-118.5 -43.5zM183 52q34 0 59 22t42.5 57t28 74.5t15.5 76t5 61.5q0 58 -22 86.5t-59 28.5q-43 0 -77 -39t-53.5 -102.5t-19.5 -138.5q0 -58 21 -92t60 -34zM296 579q-39 0 -63.5 16.5t-36.5 41.5t-13.5 53t5.5 50h41q-6 -19 -2 -44.5
t22 -44t55 -18.5q40 0 69 26t40 81h41q-17 -87 -62 -124t-96 -37z" />
    <glyph glyph-name="Gdotaccent" unicode="&#x120;" horiz-adv-x="481" 
d="M219 -10q-57 0 -94.5 25.5t-56.5 73.5t-19 116q0 66 12.5 138.5t37.5 141t61 124t82.5 88.5t102.5 33q50 0 79.5 -24.5t43 -62.5t15 -81t-4.5 -81h-70q5 27 6.5 59t-4.5 60.5t-24 47t-53 18.5q-38 0 -71 -31t-59 -82t-44.5 -112t-28 -123.5t-9.5 -114.5q0 -75 24.5 -112
t77.5 -37q31 0 55.5 9.5t41.5 29.5l63 -28q-35 -39 -77.5 -57t-86.5 -18zM314 69l63 275l24 -31h-141l15 62h180l-72 -310zM342 844l18 86h84l-18 -86h-84z" />
    <glyph glyph-name="gdotaccent" unicode="&#x121;" 
d="M137 -215q-58 0 -91 22t-45.5 55.5t-10.5 66.5h61q-1 -39 21.5 -61.5t71.5 -22.5q43 0 70 26.5t38 80.5l30 142l5 -10q-20 -46 -56 -70t-77 -24q-58 0 -90 49.5t-32 128.5q0 70 16.5 133t46 112.5t68 78t82.5 28.5q35 0 61.5 -15.5t40.5 -44t11 -68.5l-6 -6l26 124h60
l-118 -556q-17 -82 -64.5 -125.5t-118.5 -43.5zM183 52q34 0 59 22t42.5 57t28 74.5t15.5 76t5 61.5q0 58 -22 86.5t-59 28.5q-43 0 -77 -39t-53.5 -102.5t-19.5 -138.5q0 -58 21 -92t60 -34zM252 634l18 86h84l-18 -86h-84z" />
    <glyph glyph-name="uni0122" unicode="&#x122;" horiz-adv-x="481" 
d="M219 -10q-57 0 -94.5 25.5t-56.5 73.5t-19 116q0 66 12.5 138.5t37.5 141t61 124t82.5 88.5t102.5 33q50 0 79.5 -24.5t43 -62.5t15 -81t-4.5 -81h-70q5 27 6.5 59t-4.5 60.5t-24 47t-53 18.5q-38 0 -71 -31t-59 -82t-44.5 -112t-28 -123.5t-9.5 -114.5q0 -75 24.5 -112
t77.5 -37q31 0 55.5 9.5t41.5 29.5l63 -28q-35 -39 -77.5 -57t-86.5 -18zM314 69l63 275l24 -31h-141l15 62h180l-72 -310zM81 -273l9 37q29 9 46 28t24 49l26 -4h-80l22 92h95l-19 -80q-12 -53 -41.5 -80.5t-81.5 -41.5z" />
    <glyph glyph-name="uni0123" unicode="&#x123;" 
d="M137 -215q-58 0 -91 22t-45.5 55.5t-10.5 66.5h61q-1 -39 21.5 -61.5t71.5 -22.5q43 0 70 26.5t38 80.5l30 142l5 -10q-20 -46 -56 -70t-77 -24q-58 0 -90 49.5t-32 128.5q0 70 16.5 133t46 112.5t68 78t82.5 28.5q35 0 61.5 -15.5t40.5 -44t11 -68.5l-6 -6l26 124h60
l-118 -556q-17 -82 -64.5 -125.5t-118.5 -43.5zM183 52q34 0 59 22t42.5 57t28 74.5t15.5 76t5 61.5q0 58 -22 86.5t-59 28.5q-43 0 -77 -39t-53.5 -102.5t-19.5 -138.5q0 -58 21 -92t60 -34zM236 581l21 89q11 45 40 72.5t81 40.5l-9 -37q-30 -9 -46.5 -28t-24.5 -49l-26 4
h80l-21 -92h-95z" />
    <glyph glyph-name="Hbar" unicode="&#x126;" horiz-adv-x="500" 
d="M68 546l13 58h499l-13 -58h-499zM12 0l165 720h70l-165 -720h-70zM301 0l165 720h70l-165 -720h-70zM147 406h274l-14 -62h-274z" />
    <glyph glyph-name="hbar" unicode="&#x127;" horiz-adv-x="442" 
d="M79 595l11 48h267l-11 -48h-267zM5 0l166 720h68l-166 -720h-68zM255 0l86 377q9 40 -5.5 62t-51.5 22q-47 0 -84 -35.5t-51 -95.5l10 80q24 55 62.5 82.5t86.5 27.5q60 0 88 -40t14 -103l-87 -377h-68z" />
    <glyph glyph-name="Imacron" unicode="&#x12a;" horiz-adv-x="210" 
d="M11 0l166 720h70l-166 -720h-70zM109 857l11 48h267l-11 -48h-267z" />
    <glyph glyph-name="imacron" unicode="&#x12b;" horiz-adv-x="197" 
d="M6 0l117 510h68l-117 -510h-68zM54 647l11 48h267l-11 -48h-267z" />
    <glyph glyph-name="Iogonek" unicode="&#x12e;" horiz-adv-x="210" 
d="M11 0l166 720h70l-166 -720h-70zM-24 -216q-33 0 -52.5 17.5t-19.5 47.5q0 48 47 92.5t117 76.5l13 -18q-54 -36 -91.5 -69t-37.5 -71q0 -18 10 -26t23 -8q16 0 36 14l17 -34q-15 -10 -30 -16t-32 -6z" />
    <glyph glyph-name="iogonek" unicode="&#x12f;" horiz-adv-x="197" 
d="M6 0l117 510h68l-117 -510h-68zM141 634l18 86h84l-18 -86h-84zM-31 -216q-33 0 -52.5 17.5t-19.5 47.5q0 48 47 92.5t117 76.5l13 -18q-54 -36 -91.5 -69t-37.5 -71q0 -18 10 -26t23 -8q16 0 36 14l17 -34q-15 -10 -30 -16t-32 -6z" />
    <glyph glyph-name="Idotaccent" unicode="&#x130;" horiz-adv-x="210" 
d="M11 0l166 720h70l-166 -720h-70zM196 844l18 86h84l-18 -86h-84z" />
    <glyph glyph-name="dotlessi" unicode="&#x131;" horiz-adv-x="197" 
d="M6 0l117 510h68l-117 -510h-68z" />
    <glyph glyph-name="IJ" unicode="&#x132;" horiz-adv-x="517" 
d="M11 0l166 720h70l-166 -720h-70zM237 -10q-25 0 -44.5 3.5t-30.5 8.5l15 64q11 -5 31.5 -8.5t38.5 -3.5q46 0 72 18.5t37 65.5l134 582h70l-135 -587q-18 -79 -66.5 -111t-121.5 -32z" />
    <glyph glyph-name="ij" unicode="&#x133;" horiz-adv-x="393" 
d="M6 0l117 510h68l-117 -510h-68zM141 634l18 86h84l-18 -86h-84zM128 -214q-9 0 -27 2.5t-29 8.5l13 54q5 -3 16 -5.5t25 -2.5q20 0 33 10.5t17 30.5l144 626h68l-147 -637q-9 -39 -38.5 -63.5t-74.5 -23.5zM338 634l18 86h84l-18 -86h-84z" />
    <glyph glyph-name="uni0136" unicode="&#x136;" horiz-adv-x="466" 
d="M11 0l166 720h70l-166 -720h-70zM150 374l302 346h85l-303 -346h-84zM315 0l-152 374h71l157 -374h-76zM83 -273l9 37q29 9 46 28t24 49l26 -4h-80l22 92h95l-19 -80q-12 -53 -41.5 -80.5t-81.5 -41.5z" />
    <glyph glyph-name="uni0137" unicode="&#x137;" horiz-adv-x="399" 
d="M5 0l166 720h68l-166 -720h-68zM256 0l-134 265l230 245h84l-251 -264l-5 43l148 -289h-72zM50 -273l9 37q29 9 46 28t24 49l26 -4h-80l22 92h95l-19 -80q-12 -53 -41.5 -80.5t-81.5 -41.5z" />
    <glyph glyph-name="Lacute" unicode="&#x139;" horiz-adv-x="375" 
d="M11 0l166 720h70l-166 -720h-70zM53 0l14 62h223l-14 -62h-223zM217 793h-54l118 157h96z" />
    <glyph glyph-name="lacute" unicode="&#x13a;" horiz-adv-x="196" 
d="M5 0l166 720h68l-166 -720h-68zM210 793h-54l118 157h96z" />
    <glyph glyph-name="uni013B" unicode="&#x13b;" horiz-adv-x="375" 
d="M11 0l166 720h70l-166 -720h-70zM53 0l14 62h223l-14 -62h-223zM38 -273l9 37q29 9 46 28t24 49l26 -4h-80l22 92h95l-19 -80q-12 -53 -41.5 -80.5t-81.5 -41.5z" />
    <glyph glyph-name="uni013C" unicode="&#x13c;" horiz-adv-x="196" 
d="M5 0l166 720h68l-166 -720h-68zM-72 -273l9 37q29 9 46 28t24 49l26 -4h-80l22 92h95l-19 -80q-12 -53 -41.5 -80.5t-81.5 -41.5z" />
    <glyph glyph-name="Lcaron" unicode="&#x13d;" horiz-adv-x="375" 
d="M11 0l166 720h70l-166 -720h-70zM53 0l14 62h223l-14 -62h-223zM365 503h-40l50 217h66z" />
    <glyph glyph-name="lcaron" unicode="&#x13e;" horiz-adv-x="225" 
d="M5 0l166 720h68l-166 -720h-68zM279 503h-40l50 217h66z" />
    <glyph glyph-name="Lslash" unicode="&#x141;" horiz-adv-x="375" 
d="M123 345l-114 -53l14 60l112 52zM136 408l167 79l-13 -60l-166 -78zM11 0l166 720h70l-166 -720h-70zM53 0l14 62h223l-14 -62h-223z" />
    <glyph glyph-name="lslash" unicode="&#x142;" horiz-adv-x="196" 
d="M123 355l-113 -53l12 54l112 52zM135 412l110 52l-12 -54l-109 -51zM5 0l166 720h68l-166 -720h-68z" />
    <glyph glyph-name="Nacute" unicode="&#x143;" horiz-adv-x="505" 
d="M11 0l166 720h83l84 -606l-8 -2l140 608h66l-166 -720h-83l-84 606l8 2l-140 -608h-66zM365 793h-54l118 157h96z" />
    <glyph glyph-name="nacute" unicode="&#x144;" horiz-adv-x="443" 
d="M6 0l117 510h63l-22 -96h5l-95 -414h-68zM256 0l86 377q9 40 -6 62t-52 22q-47 0 -84 -35.5t-50 -94.5l10 80q23 54 61.5 81.5t86.5 27.5q60 0 88.5 -40t14.5 -103l-87 -377h-68zM299 583h-54l118 157h96z" />
    <glyph glyph-name="uni0145" unicode="&#x145;" horiz-adv-x="505" 
d="M11 0l166 720h83l84 -606l-8 -2l140 608h66l-166 -720h-83l-84 606l8 2l-140 -608h-66zM83 -273l9 37q29 9 46 28t24 49l26 -4h-80l22 92h95l-19 -80q-12 -53 -41.5 -80.5t-81.5 -41.5z" />
    <glyph glyph-name="uni0146" unicode="&#x146;" horiz-adv-x="443" 
d="M6 0l117 510h63l-22 -96h5l-95 -414h-68zM256 0l86 377q9 40 -6 62t-52 22q-47 0 -84 -35.5t-50 -94.5l10 80q23 54 61.5 81.5t86.5 27.5q60 0 88.5 -40t14.5 -103l-87 -377h-68zM52 -273l9 37q29 9 46 28t24 49l26 -4h-80l22 92h95l-19 -80q-12 -53 -41.5 -80.5
t-81.5 -41.5z" />
    <glyph glyph-name="Ncaron" unicode="&#x147;" horiz-adv-x="505" 
d="M11 0l166 720h83l84 -606l-8 -2l140 608h66l-166 -720h-83l-84 606l8 2l-140 -608h-66zM344 793l-76 157h37l99 -137h-58l161 137h51l-148 -157h-66z" />
    <glyph glyph-name="ncaron" unicode="&#x148;" horiz-adv-x="443" 
d="M6 0l117 510h63l-22 -96h5l-95 -414h-68zM256 0l86 377q9 40 -6 62t-52 22q-47 0 -84 -35.5t-50 -94.5l10 80q23 54 61.5 81.5t86.5 27.5q60 0 88.5 -40t14.5 -103l-87 -377h-68zM278 583l-76 157h37l99 -137h-58l161 137h51l-148 -157h-66z" />
    <glyph glyph-name="Eng" unicode="&#x14a;" horiz-adv-x="505" 
d="M11 0l166 720h80l109 -606l-30 -2l140 608h66l-166 -720h-60l-109 606l10 2l-140 -608h-66zM217 -215q-25 0 -36 1.5t-24 5.5l14 63q11 -3 22 -4.5t27 -1.5q25 0 43 16.5t28 60.5l27 120l58 -46l-19 -84q-15 -63 -49.5 -97t-90.5 -34z" />
    <glyph glyph-name="eng" unicode="&#x14b;" horiz-adv-x="442" 
d="M181 -214q-9 0 -27 2.5t-29 8.5l13 54q5 -3 16 -5.5t25 -2.5q20 0 33 10.5t17 30.5l112 493q9 40 -5.5 62t-51.5 22q-47 0 -84 -35.5t-50 -94.5l10 80q23 54 61.5 81.5t86.5 27.5q60 0 88 -40t14 -103l-116 -504q-9 -39 -38.5 -63.5t-74.5 -23.5zM6 0l117 510h63l-22 -96
h5l-95 -414h-68z" />
    <glyph glyph-name="Omacron" unicode="&#x14c;" horiz-adv-x="500" 
d="M199 -10q-44 0 -77.5 26.5t-52 76t-18.5 119.5q0 101 24 194t65.5 166t95 115.5t112.5 42.5q48 0 81.5 -27.5t51.5 -79.5t17 -125q-2 -99 -26.5 -190.5t-65.5 -163t-94 -113t-113 -41.5zM212 54q39 0 77 39.5t69 106t49.5 149t18.5 167.5q0 48 -10.5 81.5t-31 51
t-50.5 17.5q-37 0 -74.5 -39.5t-68.5 -106t-49.5 -149t-18.5 -167.5q0 -47 10.5 -81t30.5 -51.5t48 -17.5zM253 857l11 48h267l-11 -48h-267z" />
    <glyph glyph-name="omacron" unicode="&#x14d;" horiz-adv-x="432" 
d="M172 -10q-44 0 -76 22t-49 63.5t-17 99.5q0 69 18.5 131.5t51 110.5t74.5 75.5t88 27.5q44 0 75.5 -21.5t48.5 -62t17 -96.5q0 -70 -19 -133t-51.5 -112t-74 -77t-86.5 -28zM178 50q29 0 57 24t50 66t35 94.5t13 109.5q0 56 -20 86t-58 30q-30 0 -58 -23.5t-49.5 -64
t-34.5 -92.5t-13 -110t20.5 -89t57.5 -31zM171 647l11 48h267l-11 -48h-267z" />
    <glyph glyph-name="Ohungarumlaut" unicode="&#x150;" horiz-adv-x="500" 
d="M199 -10q-44 0 -77.5 26.5t-52 76t-18.5 119.5q0 101 24 194t65.5 166t95 115.5t112.5 42.5q48 0 81.5 -27.5t51.5 -79.5t17 -125q-2 -99 -26.5 -190.5t-65.5 -163t-94 -113t-113 -41.5zM212 54q39 0 77 39.5t69 106t49.5 149t18.5 167.5q0 48 -10.5 81.5t-31 51
t-50.5 17.5q-37 0 -74.5 -39.5t-68.5 -106t-49.5 -149t-18.5 -167.5q0 -47 10.5 -81t30.5 -51.5t48 -17.5zM304 793h-49l92 157h87zM456 793h-49l92 157h87z" />
    <glyph glyph-name="ohungarumlaut" unicode="&#x151;" horiz-adv-x="432" 
d="M172 -10q-44 0 -76 22t-49 63.5t-17 99.5q0 69 18.5 131.5t51 110.5t74.5 75.5t88 27.5q44 0 75.5 -21.5t48.5 -62t17 -96.5q0 -70 -19 -133t-51.5 -112t-74 -77t-86.5 -28zM178 50q29 0 57 24t50 66t35 94.5t13 109.5q0 56 -20 86t-58 30q-30 0 -58 -23.5t-49.5 -64
t-34.5 -92.5t-13 -110t20.5 -89t57.5 -31zM222 583h-49l92 157h87zM374 583h-49l92 157h87z" />
    <glyph glyph-name="OE" unicode="&#x152;" horiz-adv-x="665" 
d="M210 -10q-49 0 -85 24.5t-55 76.5t-19 132q0 74 15.5 147.5t44 138t69 114.5t91 78.5t108.5 28.5q21 0 43.5 -4.5t41.5 -17.5l-18 -81q-10 17 -31.5 28t-48.5 11q-42 0 -79 -27.5t-67 -74t-52 -105t-33.5 -122.5t-11.5 -125q0 -78 23 -118t76 -40q19 0 37.5 5t35 13.5
t29.5 20.5l-19 -81q-26 -13 -50.5 -17.5t-44.5 -4.5zM271 0l166 720h277l-15 -62h-207l-58 -252h193l-14 -62h-193l-65 -282h215l-14 -62h-285z" />
    <glyph glyph-name="oe" unicode="&#x153;" horiz-adv-x="652" 
d="M162 -10q-39 0 -69 22t-46.5 63.5t-16.5 99.5q0 69 18.5 131.5t50 110.5t71 75.5t82.5 27.5q39 0 66 -21.5t41 -62t14 -96.5q0 -70 -17 -133t-46.5 -112t-67.5 -77t-80 -28zM168 50q26 0 51.5 24t46.5 66t34 94.5t13 109.5q0 56 -19 86t-49 30q-34 0 -60.5 -23.5
t-45.5 -64t-29 -92.5t-10 -110t19 -89t49 -31zM419 -10q-38 0 -63.5 20.5t-38 58.5t-12.5 91q0 36 7 83t22 95t40 89t61 66t85 25q34 0 58.5 -16t38 -48.5t13.5 -82.5q0 -35 -6 -73.5t-13 -57.5h-260l12 58h225l-37 -51q7 29 12.5 65.5t5 69.5t-13 54.5t-42.5 21.5
q-31 0 -55.5 -22.5t-42 -58.5t-28.5 -77t-16.5 -79t-5.5 -63q0 -52 18 -80t46 -28q29 0 55 28.5t42 83.5h64q-25 -84 -70 -128t-101 -44z" />
    <glyph glyph-name="Racute" unicode="&#x154;" horiz-adv-x="434" 
d="M11 0l166 720h137q50 0 83 -23t50 -61t16 -83q-1 -58 -29 -112.5t-81 -89t-128 -34.5h-93l15 62h82q53 0 89 23.5t54.5 61.5t19.5 83q1 46 -20.5 78.5t-74.5 32.5h-65l-151 -658h-70zM289 0l-150 374h70l156 -374h-76zM329 793h-54l118 157h96z" />
    <glyph glyph-name="racute" unicode="&#x155;" horiz-adv-x="276" 
d="M5 0l118 510h63l-25 -106h5l-93 -404h-68zM151 339l1 73q32 54 64.5 81t69.5 27q7 0 16 -1.5t15 -4.5l-14 -65q-5 2 -13.5 3t-16.5 1q-44 0 -77 -29t-45 -85zM222 583h-54l118 157h96z" />
    <glyph glyph-name="uni0156" unicode="&#x156;" horiz-adv-x="434" 
d="M11 0l166 720h137q50 0 83 -23t50 -61t16 -83q-1 -58 -29 -112.5t-81 -89t-128 -34.5h-93l15 62h82q53 0 89 23.5t54.5 61.5t19.5 83q1 46 -20.5 78.5t-74.5 32.5h-65l-151 -658h-70zM289 0l-150 374h70l156 -374h-76zM47 -273l9 37q29 9 46 28t24 49l26 -4h-80l22 92h95
l-19 -80q-12 -53 -41.5 -80.5t-81.5 -41.5z" />
    <glyph glyph-name="uni0157" unicode="&#x157;" horiz-adv-x="276" 
d="M5 0l118 510h63l-25 -106h5l-93 -404h-68zM151 339l1 73q32 54 64.5 81t69.5 27q7 0 16 -1.5t15 -4.5l-14 -65q-5 2 -13.5 3t-16.5 1q-44 0 -77 -29t-45 -85zM-73 -273l9 37q29 9 46 28t24 49l26 -4h-80l22 92h95l-19 -80q-12 -53 -41.5 -80.5t-81.5 -41.5z" />
    <glyph glyph-name="Rcaron" unicode="&#x158;" horiz-adv-x="434" 
d="M11 0l166 720h137q50 0 83 -23t50 -61t16 -83q-1 -58 -29 -112.5t-81 -89t-128 -34.5h-93l15 62h82q53 0 89 23.5t54.5 61.5t19.5 83q1 46 -20.5 78.5t-74.5 32.5h-65l-151 -658h-70zM289 0l-150 374h70l156 -374h-76zM308 793l-76 157h37l99 -137h-58l161 137h51
l-148 -157h-66z" />
    <glyph glyph-name="rcaron" unicode="&#x159;" horiz-adv-x="276" 
d="M5 0l118 510h63l-25 -106h5l-93 -404h-68zM151 339l1 73q32 54 64.5 81t69.5 27q7 0 16 -1.5t15 -4.5l-14 -65q-5 2 -13.5 3t-16.5 1q-44 0 -77 -29t-45 -85zM201 583l-76 157h37l99 -137h-58l161 137h51l-148 -157h-66z" />
    <glyph glyph-name="Sacute" unicode="&#x15a;" horiz-adv-x="414" 
d="M179 -9q-54 0 -89 21t-52 56t-19.5 77t7.5 85h65q-7 -28 -8 -59t8 -58t30.5 -44t58.5 -17q50 0 81 36t31 102q0 33 -9.5 59.5t-31.5 52.5l-72 87q-25 31 -42 66.5t-17 81.5q0 56 24 99.5t65.5 68.5t92.5 25q48 0 78.5 -19t44.5 -51t15 -70t-9 -76h-65q10 37 8 72.5
t-21 58.5t-60 23q-32 0 -55 -16.5t-35 -44.5t-12 -64q0 -30 10.5 -55t33.5 -53l69 -83q29 -34 43.5 -73t14.5 -86q0 -64 -23 -109t-64.5 -69t-95.5 -24zM309 793h-54l118 157h96z" />
    <glyph glyph-name="sacute" unicode="&#x15b;" horiz-adv-x="326" 
d="M123 -10q-50 0 -79.5 25.5t-38.5 63.5t0 75h61q-5 -24 -2 -48.5t18.5 -41t46.5 -16.5q38 0 57 24.5t19 61.5q0 23 -8 41t-26 36l-47 47q-24 24 -38 53.5t-14 66.5q0 42 18 73.5t50.5 49.5t74.5 18q50 0 74 -22.5t29.5 -56.5t-0.5 -68h-61q3 19 1.5 39.5t-12.5 35
t-39 14.5q-34 0 -52.5 -22.5t-18.5 -57.5q0 -20 8.5 -39t27.5 -38l48 -48q23 -23 36 -52t13 -64q0 -43 -19 -77t-51.5 -53.5t-75.5 -19.5zM226 583h-54l118 157h96z" />
    <glyph glyph-name="Scedilla" unicode="&#x15e;" horiz-adv-x="414" 
d="M179 -9q-54 0 -89 21t-52 56t-19.5 77t7.5 85h65q-7 -28 -8 -59t8 -58t30.5 -44t58.5 -17q50 0 81 36t31 102q0 33 -9.5 59.5t-31.5 52.5l-72 87q-25 31 -42 66.5t-17 81.5q0 56 24 99.5t65.5 68.5t92.5 25q48 0 78.5 -19t44.5 -51t15 -70t-9 -76h-65q10 37 8 72.5
t-21 58.5t-60 23q-32 0 -55 -16.5t-35 -44.5t-12 -64q0 -30 10.5 -55t33.5 -53l69 -83q29 -34 43.5 -73t14.5 -86q0 -64 -23 -109t-64.5 -69t-95.5 -24zM132 -215q-28 0 -48 12.5t-30 31.5t-8 37h44q-1 -15 11.5 -27t35.5 -12q20 0 33 11.5t13 29.5q0 20 -16 33.5t-48 19.5
l38 91h44l-25 -66q26 -10 40 -30.5t14 -44.5q0 -38 -25.5 -62t-72.5 -24z" />
    <glyph glyph-name="scedilla" unicode="&#x15f;" horiz-adv-x="326" 
d="M123 -10q-50 0 -79.5 25.5t-38.5 63.5t0 75h61q-5 -24 -2 -48.5t18.5 -41t46.5 -16.5q38 0 57 24.5t19 61.5q0 23 -8 41t-26 36l-47 47q-24 24 -38 53.5t-14 66.5q0 42 18 73.5t50.5 49.5t74.5 18q50 0 74 -22.5t29.5 -56.5t-0.5 -68h-61q3 19 1.5 39.5t-12.5 35
t-39 14.5q-34 0 -52.5 -22.5t-18.5 -57.5q0 -20 8.5 -39t27.5 -38l48 -48q23 -23 36 -52t13 -64q0 -43 -19 -77t-51.5 -53.5t-75.5 -19.5zM69 -215q-28 0 -48 12.5t-30 31.5t-8 37h44q-1 -15 11.5 -27t35.5 -12q20 0 33 11.5t13 29.5q0 20 -16 33.5t-48 19.5l38 91h44
l-25 -66q26 -10 40 -30.5t14 -44.5q0 -38 -25.5 -62t-72.5 -24z" />
    <glyph glyph-name="Scaron" unicode="&#x160;" horiz-adv-x="414" 
d="M179 -9q-54 0 -89 21t-52 56t-19.5 77t7.5 85h65q-7 -28 -8 -59t8 -58t30.5 -44t58.5 -17q50 0 81 36t31 102q0 33 -9.5 59.5t-31.5 52.5l-72 87q-25 31 -42 66.5t-17 81.5q0 56 24 99.5t65.5 68.5t92.5 25q48 0 78.5 -19t44.5 -51t15 -70t-9 -76h-65q10 37 8 72.5
t-21 58.5t-60 23q-32 0 -55 -16.5t-35 -44.5t-12 -64q0 -30 10.5 -55t33.5 -53l69 -83q29 -34 43.5 -73t14.5 -86q0 -64 -23 -109t-64.5 -69t-95.5 -24zM288 793l-76 157h37l99 -137h-58l161 137h51l-148 -157h-66z" />
    <glyph glyph-name="scaron" unicode="&#x161;" horiz-adv-x="326" 
d="M123 -10q-50 0 -79.5 25.5t-38.5 63.5t0 75h61q-5 -24 -2 -48.5t18.5 -41t46.5 -16.5q38 0 57 24.5t19 61.5q0 23 -8 41t-26 36l-47 47q-24 24 -38 53.5t-14 66.5q0 42 18 73.5t50.5 49.5t74.5 18q50 0 74 -22.5t29.5 -56.5t-0.5 -68h-61q3 19 1.5 39.5t-12.5 35
t-39 14.5q-34 0 -52.5 -22.5t-18.5 -57.5q0 -20 8.5 -39t27.5 -38l48 -48q23 -23 36 -52t13 -64q0 -43 -19 -77t-51.5 -53.5t-75.5 -19.5zM205 583l-76 157h37l99 -137h-58l161 137h51l-148 -157h-66z" />
    <glyph glyph-name="Tcaron" unicode="&#x164;" horiz-adv-x="414" 
d="M113 0l151 658h-152l15 62h375l-15 -62h-153l-151 -658h-70zM298 793l-76 157h37l99 -137h-58l161 137h51l-148 -157h-66z" />
    <glyph glyph-name="tcaron" unicode="&#x165;" horiz-adv-x="269" 
d="M150 -10q-59 0 -86.5 33.5t-14.5 91.5l110 484l76 30l-120 -518q-7 -33 5 -48.5t45 -15.5q11 0 23 2t18 4l-14 -56q-10 -4 -19.5 -5.5t-22.5 -1.5zM58 452l13 58h239l-13 -58h-239zM335 543h-40l50 217h66z" />
    <glyph glyph-name="Umacron" unicode="&#x16a;" horiz-adv-x="476" 
d="M198 -9q-58 0 -95.5 27t-50.5 76t2 114l117 512h70l-120 -525q-10 -45 -4 -76t28 -47.5t59 -16.5q49 0 77 28.5t41 88.5l127 548h70l-127 -549q-20 -88 -68.5 -134t-125.5 -46zM242 857l11 48h267l-11 -48h-267z" />
    <glyph glyph-name="umacron" unicode="&#x16b;" horiz-adv-x="434" 
d="M131 -10q-57 0 -85 40t-14 103l87 377h68l-86 -377q-9 -40 5.5 -62t48.5 -22q44 0 80.5 35.5t49.5 94.5l-10 -80q-23 -54 -61 -81.5t-83 -27.5zM251 0l23 96h-8l95 414h68l-118 -510h-60zM173 647l11 48h267l-11 -48h-267z" />
    <glyph glyph-name="Ubreve" unicode="&#x16c;" horiz-adv-x="476" 
d="M198 -9q-58 0 -95.5 27t-50.5 76t2 114l117 512h70l-120 -525q-10 -45 -4 -76t28 -47.5t59 -16.5q49 0 77 28.5t41 88.5l127 548h70l-127 -549q-20 -88 -68.5 -134t-125.5 -46zM373 789q-39 0 -63.5 16.5t-36.5 41.5t-13.5 53t5.5 50h41q-6 -19 -2 -44.5t22 -44t55 -18.5
q40 0 69 26t40 81h41q-17 -87 -62 -124t-96 -37z" />
    <glyph glyph-name="ubreve" unicode="&#x16d;" horiz-adv-x="434" 
d="M131 -10q-57 0 -85 40t-14 103l87 377h68l-86 -377q-9 -40 5.5 -62t48.5 -22q44 0 80.5 35.5t49.5 94.5l-10 -80q-23 -54 -61 -81.5t-83 -27.5zM251 0l23 96h-8l95 414h68l-118 -510h-60zM304 579q-39 0 -63.5 16.5t-36.5 41.5t-13.5 53t5.5 50h41q-6 -19 -2 -44.5
t22 -44t55 -18.5q40 0 69 26t40 81h41q-17 -87 -62 -124t-96 -37z" />
    <glyph glyph-name="Uring" unicode="&#x16e;" horiz-adv-x="476" 
d="M198 -9q-58 0 -95.5 27t-50.5 76t2 114l117 512h70l-120 -525q-10 -45 -4 -76t28 -47.5t59 -16.5q49 0 77 28.5t41 88.5l127 548h70l-127 -549q-20 -88 -68.5 -134t-125.5 -46zM370 771q-41 0 -69 27.5t-28 68.5q0 33 16 60t42.5 43t57.5 16q42 0 70 -27.5t28 -68.5
q0 -31 -16.5 -58.5t-43 -44t-57.5 -16.5zM372 811q29 0 51 22t22 53q0 26 -16 43t-42 17q-28 0 -50 -21.5t-22 -52.5q0 -27 16.5 -44t40.5 -17z" />
    <glyph glyph-name="uring" unicode="&#x16f;" horiz-adv-x="434" 
d="M131 -10q-57 0 -85 40t-14 103l87 377h68l-86 -377q-9 -40 5.5 -62t48.5 -22q44 0 80.5 35.5t49.5 94.5l-10 -80q-23 -54 -61 -81.5t-83 -27.5zM251 0l23 96h-8l95 414h68l-118 -510h-60zM301 561q-41 0 -69 27.5t-28 68.5q0 33 16 60t42.5 43t57.5 16q42 0 70 -27.5
t28 -68.5q0 -31 -16.5 -58.5t-43 -44t-57.5 -16.5zM303 601q29 0 51 22t22 53q0 26 -16 43t-42 17q-28 0 -50 -21.5t-22 -52.5q0 -27 16.5 -44t40.5 -17z" />
    <glyph glyph-name="Uhungarumlaut" unicode="&#x170;" horiz-adv-x="476" 
d="M198 -9q-58 0 -95.5 27t-50.5 76t2 114l117 512h70l-120 -525q-10 -45 -4 -76t28 -47.5t59 -16.5q49 0 77 28.5t41 88.5l127 548h70l-127 -549q-20 -88 -68.5 -134t-125.5 -46zM293 793h-49l92 157h87zM445 793h-49l92 157h87z" />
    <glyph glyph-name="uhungarumlaut" unicode="&#x171;" horiz-adv-x="434" 
d="M131 -10q-57 0 -85 40t-14 103l87 377h68l-86 -377q-9 -40 5.5 -62t48.5 -22q44 0 80.5 35.5t49.5 94.5l-10 -80q-23 -54 -61 -81.5t-83 -27.5zM251 0l23 96h-8l95 414h68l-118 -510h-60zM224 583h-49l92 157h87zM376 583h-49l92 157h87z" />
    <glyph glyph-name="Uogonek" unicode="&#x172;" horiz-adv-x="476" 
d="M198 -9q-58 0 -95.5 27t-50.5 76t2 114l117 512h70l-120 -525q-10 -45 -4 -76t28 -47.5t59 -16.5q49 0 77 28.5t41 88.5l127 548h70l-127 -549q-20 -88 -68.5 -134t-125.5 -46zM181 -196q-33 0 -52.5 17.5t-19.5 47.5q0 48 47 92.5t117 76.5l13 -18q-54 -36 -91.5 -69
t-37.5 -71q0 -18 10 -26t23 -8q16 0 36 14l17 -34q-15 -10 -30 -16t-32 -6z" />
    <glyph glyph-name="uogonek" unicode="&#x173;" horiz-adv-x="434" 
d="M131 -10q-57 0 -85 40t-14 103l87 377h68l-86 -377q-9 -40 5.5 -62t48.5 -22q44 0 80.5 35.5t49.5 94.5l-10 -80q-23 -54 -61 -81.5t-83 -27.5zM251 0l23 96h-8l95 414h68l-118 -510h-60zM206 -216q-33 0 -52.5 17.5t-19.5 47.5q0 48 47 92.5t117 76.5l13 -18
q-54 -36 -91.5 -69t-37.5 -71q0 -18 10 -26t23 -8q16 0 36 14l17 -34q-15 -10 -30 -16t-32 -6z" />
    <glyph glyph-name="Wcircumflex" unicode="&#x174;" horiz-adv-x="622" 
d="M77 0l64 720h70l-62 -639h-11l235 639h91l-61 -639h-10l233 639h69l-268 -720h-90l53 618h8l-231 -618h-90zM288 793l148 157h66l76 -157h-37l-99 137h58l-161 -137h-51z" />
    <glyph glyph-name="wcircumflex" unicode="&#x175;" horiz-adv-x="605" 
d="M97 0l-8 510h66l-5 -415h-18l208 415h44l14 -415h-18l185 415h69l-244 -510h-44l-14 408h16l-205 -408h-46zM232 583l148 157h66l76 -157h-37l-99 137h58l-161 -137h-51z" />
    <glyph glyph-name="Ycircumflex" unicode="&#x176;" horiz-adv-x="452" 
d="M132 0l77 336l-90 384h73l77 -336h-30l230 336h78l-268 -384l-77 -336h-70zM203 793l148 157h66l76 -157h-37l-99 137h58l-161 -137h-51z" />
    <glyph glyph-name="ycircumflex" unicode="&#x177;" horiz-adv-x="388" 
d="M-20 -205l145 270l13 24l217 421h72l-375 -715h-72zM120 5l-41 505h70l26 -430zM123 583l148 157h66l76 -157h-37l-99 137h58l-161 -137h-51z" />
    <glyph glyph-name="Ydieresis" unicode="&#x178;" horiz-adv-x="452" 
d="M132 0l77 336l-90 384h73l77 -336h-30l230 336h78l-268 -384l-77 -336h-70zM413 844l20 86h84l-20 -86h-84zM224 844l20 86h84l-20 -86h-84z" />
    <glyph glyph-name="Zacute" unicode="&#x179;" horiz-adv-x="452" 
d="M3 0l12 52l402 637l18 -31h-270l15 62h316l-12 -52l-402 -637l-19 31h286l-14 -62h-332zM338 793h-54l118 157h96z" />
    <glyph glyph-name="zacute" unicode="&#x17a;" horiz-adv-x="346" 
d="M-29 0l11 48l314 431l16 -27h-226l14 58h272l-11 -48l-314 -431l-17 27h242l-13 -58h-288zM237 583h-54l118 157h96z" />
    <glyph glyph-name="Zdotaccent" unicode="&#x17b;" horiz-adv-x="452" 
d="M3 0l12 52l402 637l18 -31h-270l15 62h316l-12 -52l-402 -637l-19 31h286l-14 -62h-332zM317 844l18 86h84l-18 -86h-84z" />
    <glyph glyph-name="zdotaccent" unicode="&#x17c;" horiz-adv-x="346" 
d="M-29 0l11 48l314 431l16 -27h-226l14 58h272l-11 -48l-314 -431l-17 27h242l-13 -58h-288zM216 634l18 86h84l-18 -86h-84z" />
    <glyph glyph-name="Zcaron" unicode="&#x17d;" horiz-adv-x="452" 
d="M3 0l12 52l402 637l18 -31h-270l15 62h316l-12 -52l-402 -637l-19 31h286l-14 -62h-332zM317 793l-76 157h37l99 -137h-58l161 137h51l-148 -157h-66z" />
    <glyph glyph-name="zcaron" unicode="&#x17e;" horiz-adv-x="346" 
d="M-29 0l11 48l314 431l16 -27h-226l14 58h272l-11 -48l-314 -431l-17 27h242l-13 -58h-288zM216 583l-76 157h37l99 -137h-58l161 137h51l-148 -157h-66z" />
    <glyph glyph-name="uni01CD" unicode="&#x1cd;" 
d="M-35 0l320 720h60l-312 -720h-68zM297 0l20 720h58l-10 -720h-68zM110 275h234l-13 -60h-234zM314 793l-76 157h37l99 -137h-58l161 137h51l-148 -157h-66z" />
    <glyph glyph-name="uni01CE" unicode="&#x1ce;" horiz-adv-x="389" 
d="M218 0q0 14 3 35t7 45h-7l66 291q5 21 4.5 42t-12.5 34.5t-42 13.5q-39 0 -62 -26.5t-34 -72.5h-63q17 77 60 117.5t112 40.5q56 0 80.5 -24t27.5 -61.5t-6 -76.5l-65 -285q-4 -21 -6.5 -39t-2.5 -34h-60zM106 -10q-45 0 -71.5 27.5t-26.5 77.5q0 42 18.5 76.5t53.5 61
t87 44.5l122 43l-13 -59l-94 -35q-55 -20 -80 -51t-25 -69q0 -29 15.5 -43.5t40.5 -14.5q38 0 66 28.5t40 81.5l-8 -81q-21 -44 -53.5 -65.5t-71.5 -21.5zM238 583l-76 157h37l99 -137h-58l161 137h51l-148 -157h-66z" />
    <glyph glyph-name="uni0218" unicode="&#x218;" horiz-adv-x="414" 
d="M179 -9q-54 0 -89 21t-52 56t-19.5 77t7.5 85h65q-7 -28 -8 -59t8 -58t30.5 -44t58.5 -17q50 0 81 36t31 102q0 33 -9.5 59.5t-31.5 52.5l-72 87q-25 31 -42 66.5t-17 81.5q0 56 24 99.5t65.5 68.5t92.5 25q48 0 78.5 -19t44.5 -51t15 -70t-9 -76h-65q10 37 8 72.5
t-21 58.5t-60 23q-32 0 -55 -16.5t-35 -44.5t-12 -64q0 -30 10.5 -55t33.5 -53l69 -83q29 -34 43.5 -73t14.5 -86q0 -64 -23 -109t-64.5 -69t-95.5 -24zM64 -273l9 37q29 9 46 28t24 49l26 -4h-80l22 92h95l-19 -80q-12 -53 -41.5 -80.5t-81.5 -41.5z" />
    <glyph glyph-name="uni0219" unicode="&#x219;" horiz-adv-x="326" 
d="M123 -10q-50 0 -79.5 25.5t-38.5 63.5t0 75h61q-5 -24 -2 -48.5t18.5 -41t46.5 -16.5q38 0 57 24.5t19 61.5q0 23 -8 41t-26 36l-47 47q-24 24 -38 53.5t-14 66.5q0 42 18 73.5t50.5 49.5t74.5 18q50 0 74 -22.5t29.5 -56.5t-0.5 -68h-61q3 19 1.5 39.5t-12.5 35
t-39 14.5q-34 0 -52.5 -22.5t-18.5 -57.5q0 -20 8.5 -39t27.5 -38l48 -48q23 -23 36 -52t13 -64q0 -43 -19 -77t-51.5 -53.5t-75.5 -19.5zM1 -273l9 37q29 9 46 28t24 49l26 -4h-80l22 92h95l-19 -80q-12 -53 -41.5 -80.5t-81.5 -41.5z" />
    <glyph glyph-name="uni021A" unicode="&#x21a;" horiz-adv-x="414" 
d="M113 0l151 658h-152l15 62h375l-15 -62h-153l-151 -658h-70zM37 -273l9 37q29 9 46 28t24 49l26 -4h-80l22 92h95l-19 -80q-12 -53 -41.5 -80.5t-81.5 -41.5z" />
    <glyph glyph-name="uni021B" unicode="&#x21b;" horiz-adv-x="269" 
d="M150 -10q-59 0 -86.5 33.5t-14.5 91.5l110 484l76 30l-120 -518q-7 -33 5 -48.5t45 -15.5q11 0 23 2t18 4l-14 -56q-10 -4 -19.5 -5.5t-22.5 -1.5zM58 452l13 58h239l-13 -58h-239zM3 -273l9 37q29 9 46 28t24 49l26 -4h-80l22 92h95l-19 -80q-12 -53 -41.5 -80.5
t-81.5 -41.5z" />
    <glyph glyph-name="uni0237" unicode="&#x237;" horiz-adv-x="196" 
d="M-69 -214q-9 0 -27 2.5t-29 8.5l13 54q5 -3 16 -5.5t25 -2.5q20 0 33 10.5t17 30.5l144 626h68l-147 -637q-9 -39 -38.5 -63.5t-74.5 -23.5z" />
    <glyph glyph-name="circumflex" unicode="&#x2c6;" horiz-adv-x="410" 
d="M136 583l148 157h66l76 -157h-37l-99 137h58l-161 -137h-51z" />
    <glyph glyph-name="caron" unicode="&#x2c7;" horiz-adv-x="410" 
d="M248 583l-76 157h37l99 -137h-58l161 137h51l-148 -157h-66z" />
    <glyph glyph-name="breve" unicode="&#x2d8;" horiz-adv-x="386" 
d="M280 579q-39 0 -63.5 16.5t-36.5 41.5t-13.5 53t5.5 50h41q-6 -19 -2 -44.5t22 -44t55 -18.5q40 0 69 26t40 81h41q-17 -87 -62 -124t-96 -37z" />
    <glyph glyph-name="dotaccent" unicode="&#x2d9;" horiz-adv-x="206" 
d="M149 634l18 86h84l-18 -86h-84z" />
    <glyph glyph-name="ring" unicode="&#x2da;" horiz-adv-x="335" 
d="M253 561q-41 0 -69 27.5t-28 68.5q0 33 16 60t42.5 43t57.5 16q42 0 70 -27.5t28 -68.5q0 -31 -16.5 -58.5t-43 -44t-57.5 -16.5zM255 601q29 0 51 22t22 53q0 26 -16 43t-42 17q-28 0 -50 -21.5t-22 -52.5q0 -27 16.5 -44t40.5 -17z" />
    <glyph glyph-name="ogonek" unicode="&#x2db;" horiz-adv-x="267" 
d="M41 -216q-33 0 -52.5 17.5t-19.5 47.5q0 48 47 92.5t117 76.5l13 -18q-54 -36 -91.5 -69t-37.5 -71q0 -18 10 -26t23 -8q16 0 36 14l17 -34q-15 -10 -30 -16t-32 -6z" />
    <glyph glyph-name="tilde" unicode="&#x2dc;" horiz-adv-x="416" 
d="M364 601q-25 0 -41.5 10.5t-29.5 24t-26 24t-30 10.5q-22 0 -33.5 -14t-19.5 -45h-42q9 38 22.5 62.5t33.5 36.5t45 12q26 0 42 -10.5t28 -24t24.5 -24t30.5 -10.5q22 0 33.5 14t18.5 45h42q-13 -56 -37.5 -83.5t-60.5 -27.5z" />
    <glyph glyph-name="hungarumlaut" unicode="&#x2dd;" horiz-adv-x="415" 
d="M185 583h-49l92 157h87zM337 583h-49l92 157h87z" />
    <glyph glyph-name="gravecomb" unicode="&#x300;" horiz-adv-x="0" 
d="M268 583l-96 157h81l61 -157h-46z" />
    <glyph glyph-name="acutecomb" unicode="&#x301;" horiz-adv-x="0" 
d="M190 583h-54l118 157h96z" />
    <glyph glyph-name="uni0302" unicode="&#x302;" horiz-adv-x="0" 
d="M136 583l148 157h66l76 -157h-37l-99 137h58l-161 -137h-51z" />
    <glyph glyph-name="tildecomb" unicode="&#x303;" horiz-adv-x="0" 
d="M364 601q-25 0 -41.5 10.5t-29.5 24t-26 24t-30 10.5q-22 0 -33.5 -14t-19.5 -45h-42q9 38 22.5 62.5t33.5 36.5t45 12q26 0 42 -10.5t28 -24t24.5 -24t30.5 -10.5q22 0 33.5 14t18.5 45h42q-13 -56 -37.5 -83.5t-60.5 -27.5z" />
    <glyph glyph-name="uni0304" unicode="&#x304;" horiz-adv-x="0" 
d="M151 647l11 48h267l-11 -48h-267z" />
    <glyph glyph-name="uni0306" unicode="&#x306;" horiz-adv-x="0" 
d="M280 579q-39 0 -63.5 16.5t-36.5 41.5t-13.5 53t5.5 50h41q-6 -19 -2 -44.5t22 -44t55 -18.5q40 0 69 26t40 81h41q-17 -87 -62 -124t-96 -37z" />
    <glyph glyph-name="uni0307" unicode="&#x307;" horiz-adv-x="0" 
d="M149 634l18 86h84l-18 -86h-84z" />
    <glyph glyph-name="uni0308" unicode="&#x308;" horiz-adv-x="0" 
d="M336 634l20 86h84l-20 -86h-84zM147 634l20 86h84l-20 -86h-84z" />
    <glyph glyph-name="uni030A" unicode="&#x30a;" horiz-adv-x="0" 
d="M253 561q-41 0 -69 27.5t-28 68.5q0 33 16 60t42.5 43t57.5 16q42 0 70 -27.5t28 -68.5q0 -31 -16.5 -58.5t-43 -44t-57.5 -16.5zM255 601q29 0 51 22t22 53q0 26 -16 43t-42 17q-28 0 -50 -21.5t-22 -52.5q0 -27 16.5 -44t40.5 -17z" />
    <glyph glyph-name="uni030B" unicode="&#x30b;" horiz-adv-x="0" 
d="M185 583h-49l92 157h87zM337 583h-49l92 157h87z" />
    <glyph glyph-name="uni030C" unicode="&#x30c;" horiz-adv-x="0" 
d="M248 583l-76 157h37l99 -137h-58l161 137h51l-148 -157h-66z" />
    <glyph glyph-name="uni0312" unicode="&#x312;" horiz-adv-x="0" 
d="M135 581l21 89q11 45 40 72.5t81 40.5l-9 -37q-30 -9 -46.5 -28t-24.5 -49l-26 4h80l-21 -92h-95z" />
    <glyph glyph-name="uni0326" unicode="&#x326;" horiz-adv-x="0" 
d="M-62 -273l9 37q29 9 46 28t24 49l26 -4h-80l22 92h95l-19 -80q-12 -53 -41.5 -80.5t-81.5 -41.5z" />
    <glyph glyph-name="uni0327" unicode="&#x327;" horiz-adv-x="0" 
d="M56 -215q-28 0 -48 12.5t-30 31.5t-8 37h44q-1 -15 11.5 -27t35.5 -12q20 0 33 11.5t13 29.5q0 20 -16 33.5t-48 19.5l38 91h44l-25 -66q26 -10 40 -30.5t14 -44.5q0 -38 -25.5 -62t-72.5 -24z" />
    <glyph glyph-name="uni0328" unicode="&#x328;" horiz-adv-x="0" 
d="M41 -216q-33 0 -52.5 17.5t-19.5 47.5q0 48 47 92.5t117 76.5l13 -18q-54 -36 -91.5 -69t-37.5 -71q0 -18 10 -26t23 -8q16 0 36 14l17 -34q-15 -10 -30 -16t-32 -6z" />
    <glyph glyph-name="Wgrave" unicode="&#x1e80;" horiz-adv-x="622" 
d="M77 0l64 720h70l-62 -639h-11l235 639h91l-61 -639h-10l233 639h69l-268 -720h-90l53 618h8l-231 -618h-90zM455 793l-96 157h81l61 -157h-46z" />
    <glyph glyph-name="wgrave" unicode="&#x1e81;" horiz-adv-x="605" 
d="M97 0l-8 510h66l-5 -415h-18l208 415h44l14 -415h-18l185 415h69l-244 -510h-44l-14 408h16l-205 -408h-46zM399 583l-96 157h81l61 -157h-46z" />
    <glyph glyph-name="Wacute" unicode="&#x1e82;" horiz-adv-x="622" 
d="M77 0l64 720h70l-62 -639h-11l235 639h91l-61 -639h-10l233 639h69l-268 -720h-90l53 618h8l-231 -618h-90zM423 793h-54l118 157h96z" />
    <glyph glyph-name="wacute" unicode="&#x1e83;" horiz-adv-x="605" 
d="M97 0l-8 510h66l-5 -415h-18l208 415h44l14 -415h-18l185 415h69l-244 -510h-44l-14 408h16l-205 -408h-46zM367 583h-54l118 157h96z" />
    <glyph glyph-name="Wdieresis" unicode="&#x1e84;" horiz-adv-x="622" 
d="M77 0l64 720h70l-62 -639h-11l235 639h91l-61 -639h-10l233 639h69l-268 -720h-90l53 618h8l-231 -618h-90zM498 844l20 86h84l-20 -86h-84zM309 844l20 86h84l-20 -86h-84z" />
    <glyph glyph-name="wdieresis" unicode="&#x1e85;" horiz-adv-x="605" 
d="M97 0l-8 510h66l-5 -415h-18l208 415h44l14 -415h-18l185 415h69l-244 -510h-44l-14 408h16l-205 -408h-46zM442 634l20 86h84l-20 -86h-84zM253 634l20 86h84l-20 -86h-84z" />
    <glyph glyph-name="uni1E9E" unicode="&#x1e9e;" horiz-adv-x="479" 
d="M239 -10q-17 0 -35.5 2.5t-35 7t-30.5 9.5l14 62q17 -7 41 -13t45 -6q35 0 62 19.5t42.5 53t15.5 75.5q0 41 -18 81t-57 80l-23 24l201 247v-58q-16 45 -47.5 70t-75.5 25q-102 0 -135 -143l-121 -526h-70l122 533q23 98 76 148t135 50q65 0 111.5 -31t71.5 -90
l-200 -244l-10 59q59 -48 86 -104t27 -115q0 -62 -25.5 -111t-69 -77t-97.5 -28z" />
    <glyph glyph-name="Ygrave" unicode="&#x1ef2;" horiz-adv-x="452" 
d="M132 0l77 336l-90 384h73l77 -336h-30l230 336h78l-268 -384l-77 -336h-70zM370 793l-96 157h81l61 -157h-46z" />
    <glyph glyph-name="ygrave" unicode="&#x1ef3;" horiz-adv-x="388" 
d="M-20 -205l145 270l13 24l217 421h72l-375 -715h-72zM120 5l-41 505h70l26 -430zM290 583l-96 157h81l61 -157h-46z" />
    <glyph glyph-name="endash" unicode="&#x2013;" horiz-adv-x="444" 
d="M61 241l14 62h316l-14 -62h-316z" />
    <glyph glyph-name="emdash" unicode="&#x2014;" horiz-adv-x="644" 
d="M61 241l14 62h516l-14 -62h-516z" />
    <glyph glyph-name="quoteleft" unicode="&#x2018;" horiz-adv-x="214" 
d="M124 521l20 89q12 53 43.5 85t83.5 45l-8 -37q-28 -8 -47 -29t-30 -65l-30 6h78l-19 -94h-91z" />
    <glyph glyph-name="quoteright" unicode="&#x2019;" horiz-adv-x="213" 
d="M116 523l8 37q29 8 48 29.5t29 64.5l30 -6h-78l19 94h91l-20 -89q-12 -53 -43 -85t-84 -45z" />
    <glyph glyph-name="quotesinglbase" unicode="&#x201a;" horiz-adv-x="207" 
d="M-35 -131l8 37q29 11 45.5 32.5t26.5 64.5l28 -3h-78l21 91h91l-20 -89q-13 -53 -41.5 -85.5t-80.5 -47.5z" />
    <glyph glyph-name="quotedblleft" unicode="&#x201c;" horiz-adv-x="364" 
d="M274 521l20 89q12 53 43.5 85t83.5 45l-8 -37q-28 -8 -47 -29t-30 -65l-30 6h78l-19 -94h-91zM124 521l20 89q12 53 43.5 85t83.5 45l-8 -37q-28 -8 -47 -29t-30 -65l-30 6h78l-19 -94h-91z" />
    <glyph glyph-name="quotedblright" unicode="&#x201d;" horiz-adv-x="363" 
d="M266 523l8 37q29 8 48 29.5t29 64.5l30 -6h-78l19 94h91l-20 -89q-12 -53 -43 -85t-84 -45zM116 523l8 37q29 8 48 29.5t29 64.5l30 -6h-78l19 94h91l-20 -89q-12 -53 -43 -85t-84 -45z" />
    <glyph glyph-name="quotedblbase" unicode="&#x201e;" horiz-adv-x="357" 
d="M115 -131l8 37q29 11 45.5 32.5t26.5 64.5l28 -3h-78l21 91h91l-20 -89q-13 -53 -41.5 -85.5t-80.5 -47.5zM-35 -131l8 37q29 11 45.5 32.5t26.5 64.5l28 -3h-78l21 91h91l-20 -89q-13 -53 -41.5 -85.5t-80.5 -47.5z" />
    <glyph glyph-name="bullet" unicode="&#x2022;" horiz-adv-x="258" 
d="M70 295l32 137h136l-31 -137h-137z" />
    <glyph glyph-name="ellipsis" unicode="&#x2026;" horiz-adv-x="533" 
d="M2 0l21 91h91l-21 -91h-91zM162 0l21 91h91l-21 -91h-91zM322 0l21 91h91l-21 -91h-91z" />
    <glyph glyph-name="perthousand" unicode="&#x2030;" horiz-adv-x="784" 
d="M197 381q-42 0 -72 32.5t-30 93.5q0 30 8.5 68.5t26.5 73.5t46 58t67 23q44 0 73.5 -32t29.5 -93q0 -30 -8.5 -68t-26.5 -74t-46.5 -59t-67.5 -23zM200 435q21 0 37 18t27.5 45t17 56t5.5 50q0 33 -12.5 52.5t-34.5 19.5q-21 0 -37 -17.5t-26.5 -44.5t-16 -55.5
t-5.5 -50.5q0 -34 12.5 -53.5t32.5 -19.5zM-4 0l590 720h66l-590 -720h-66zM404 -10q-42 0 -72 32.5t-30 93.5q0 30 8.5 68.5t26.5 73.5t46 58t67 23q44 0 73.5 -32t29.5 -93q0 -30 -8.5 -68t-26.5 -74t-46.5 -59t-67.5 -23zM407 44q21 0 37 18t27.5 45t17 56t5.5 50
q0 33 -12.5 52.5t-34.5 19.5q-21 0 -37 -17.5t-26.5 -44.5t-16 -55.5t-5.5 -50.5q0 -34 12.5 -53.5t32.5 -19.5zM591 44q21 0 37 18t27.5 45t17 56t5.5 50q0 33 -12.5 52.5t-34.5 19.5q-21 0 -37 -17.5t-26.5 -44.5t-16 -55.5t-5.5 -50.5q0 -34 12.5 -53.5t32.5 -19.5z
M588 -10q-42 0 -72 32.5t-30 93.5q0 30 8.5 68.5t26.5 73.5t46 58t67 23q44 0 73.5 -32t29.5 -93q0 -30 -8.5 -68t-26.5 -74t-46.5 -59t-67.5 -23z" />
    <glyph glyph-name="guilsinglleft" unicode="&#x2039;" horiz-adv-x="264" 
d="M105 68l-59 193l138 173h66l-143 -185l53 -181h-55z" />
    <glyph glyph-name="guilsinglright" unicode="&#x203a;" horiz-adv-x="264" 
d="M74 68h-62l144 187l-55 179h57l60 -183z" />
    <glyph glyph-name="Euro" unicode="&#x20ac;" horiz-adv-x="470" 
d="M224 -10q-49 0 -83.5 25.5t-52.5 74.5t-18 118q0 43 8 97.5t24 113.5t40 114t57 99.5t74.5 71t92.5 26.5q42 0 70 -18t43.5 -46t21 -58.5t3.5 -56.5h-69q2 28 -4.5 54.5t-23 43.5t-47.5 17q-37 0 -67.5 -25.5t-55 -67.5t-42 -93t-29.5 -104t-18 -100t-6 -79q0 -46 10 -78
t30 -49t49 -17q25 0 47 12.5t39 38t27 65.5h69q-17 -61 -45.5 -101t-65 -59t-78.5 -19zM32 392l23 58h361l-23 -58h-361zM4 272l23 58h341l-23 -58h-341z" />
    <glyph glyph-name="trademark" unicode="&#x2122;" horiz-adv-x="611" 
d="M188 360v348h53v-348h-53zM116 675v45h196v-45h-196zM344 360v360h75l82 -338h-31l81 338h76v-360h-52v311h6l-74 -311h-46l-75 311h6v-311h-48z" />
    <glyph glyph-name="arrowleft" unicode="&#x2190;" horiz-adv-x="696" 
d="M657 344h-494l18 22l320 -322h-86l-328 330l328 330h86l-320 -322l-18 22h494v-60z" />
    <glyph glyph-name="arrowup" unicode="&#x2191;" horiz-adv-x="800" 
d="M374 75v494l22 -18l-322 -320v86l330 328l330 -328v-86l-322 320l22 18v-494h-60z" />
    <glyph glyph-name="arrowright" unicode="&#x2192;" horiz-adv-x="697" 
d="M88 376h494l-18 -22l-320 322h86l328 -330l-328 -330h-86l320 322l18 -22h-494v60z" />
    <glyph glyph-name="arrowdown" unicode="&#x2193;" horiz-adv-x="800" 
d="M414 645h60v-494l-22 18l322 320v-86l-330 -328l-330 328v86l322 -320l-22 -18v494z" />
    <glyph glyph-name="arrowboth" unicode="&#x2194;" horiz-adv-x="990" 
d="M412 30l-328 330l328 330h86l-298 -300h638l-298 300h86l328 -330l-328 -330h-86l298 300h-638l298 -300h-86z" />
    <glyph glyph-name="arrowupdn" unicode="&#x2195;" horiz-adv-x="829" 
d="M439 -75l-330 328v86l300 -298v638l-300 -298v86l330 328l330 -328v-86l-300 298v-638l300 298v-86z" />
    <glyph glyph-name="uni2196" unicode="&#x2196;" horiz-adv-x="659" 
d="M528 207l-349 350l28 3l-1 -454l-61 60l2 466l465 1l61 -61l-454 -1l3 28l349 -349z" />
    <glyph glyph-name="uni2197" unicode="&#x2197;" horiz-adv-x="741" 
d="M230 230l350 349l3 -28l-454 1l60 61l466 -2l1 -465l-61 -61l-1 454l28 -3l-349 -349z" />
    <glyph glyph-name="uni2198" unicode="&#x2198;" horiz-adv-x="660" 
d="M180 513l349 -350l-28 -3l1 454l61 -60l-2 -466l-465 -1l-61 61l454 1l-3 -28l-349 349z" />
    <glyph glyph-name="uni2199" unicode="&#x2199;" horiz-adv-x="741" 
d="M560 490l-350 -349l-3 28l454 -1l-60 -61l-466 2l-1 465l61 61l1 -454l-28 3l349 349z" />
    <glyph glyph-name="minus" unicode="&#x2212;" horiz-adv-x="531" 
d="M80 342l13 58h411l-13 -58h-411z" />
    <glyph glyph-name="Adieresis.ss01" 
d="M-35 0l320 720h60l-312 -720h-68zM297 0l20 720h58l-10 -720h-68zM110 275h234l-13 -60h-234zM263 814q-19 0 -31.5 13t-12.5 33q0 23 16.5 39t39.5 16q20 0 32 -11.5t12 -31.5q0 -24 -16.5 -41t-39.5 -17zM451 814q-19 0 -31.5 13t-12.5 33q0 23 16.5 39t39.5 16
q20 0 32 -11.5t12 -31.5q0 -24 -16.5 -41t-39.5 -17z" />
    <glyph glyph-name="Cdotaccent.ss01" horiz-adv-x="461" 
d="M199 -10q-47 0 -81 25.5t-51.5 73.5t-17.5 116q0 55 9 115t26 119t42.5 111t58.5 92.5t73 64t87 23.5q52 0 82.5 -26.5t44 -69.5t13 -91t-12.5 -92h-70q8 33 12 70.5t-1 70.5t-24 53.5t-56 20.5q-38 0 -71 -31t-59 -82t-44.5 -112t-28 -123.5t-9.5 -114.5
q0 -75 22.5 -112t63.5 -37q52 0 90 54t63 161h70q-19 -91 -53 -153.5t-79 -94t-99 -31.5zM356 814q-19 0 -31 13t-12 34q0 15 7.5 27t20 19.5t27.5 7.5q19 0 31 -11.5t12 -31.5q0 -16 -7.5 -29t-20 -21t-27.5 -8z" />
    <glyph glyph-name="Edieresis.ss01" horiz-adv-x="415" 
d="M11 0l166 720h70l-166 -720h-70zM53 0l14 62h253l-14 -62h-253zM132 344l14 62h231l-14 -62h-231zM204 658l15 62h245l-15 -62h-245zM258 814q-19 0 -31.5 13t-12.5 33q0 23 16.5 39t39.5 16q20 0 32 -11.5t12 -31.5q0 -24 -16.5 -41t-39.5 -17zM446 814q-19 0 -31.5 13
t-12.5 33q0 23 16.5 39t39.5 16q20 0 32 -11.5t12 -31.5q0 -24 -16.5 -41t-39.5 -17z" />
    <glyph glyph-name="Edotaccent.ss01" horiz-adv-x="415" 
d="M11 0l166 720h70l-166 -720h-70zM53 0l14 62h253l-14 -62h-253zM132 344l14 62h231l-14 -62h-231zM204 658l15 62h245l-15 -62h-245zM352 814q-19 0 -31 13t-12 34q0 15 7.5 27t20 19.5t27.5 7.5q19 0 31 -11.5t12 -31.5q0 -16 -7.5 -29t-20 -21t-27.5 -8z" />
    <glyph glyph-name="uni0122.ss01" horiz-adv-x="481" 
d="M219 -10q-57 0 -94.5 25.5t-56.5 73.5t-19 116q0 66 12.5 138.5t37.5 141t61 124t82.5 88.5t102.5 33q50 0 79.5 -24.5t43 -62.5t15 -81t-4.5 -81h-70q5 27 6.5 59t-4.5 60.5t-24 47t-53 18.5q-38 0 -71 -31t-59 -82t-44.5 -112t-28 -123.5t-9.5 -114.5q0 -75 24.5 -112
t77.5 -37q31 0 55.5 9.5t41.5 29.5l63 -28q-35 -39 -77.5 -57t-86.5 -18zM314 69l63 275l24 -31h-141l15 62h180l-72 -310zM103 -273l8 37q26 12 44 30t25 46h23q-13 -9 -29 -9q-18 0 -31 12.5t-13 34.5q0 25 16 40.5t38 15.5q18 0 31.5 -12.5t13.5 -41.5q0 -22 -8.5 -45.5
t-25 -45t-39.5 -38t-53 -24.5z" />
    <glyph glyph-name="Gdotaccent.ss01" horiz-adv-x="481" 
d="M219 -10q-57 0 -94.5 25.5t-56.5 73.5t-19 116q0 66 12.5 138.5t37.5 141t61 124t82.5 88.5t102.5 33q50 0 79.5 -24.5t43 -62.5t15 -81t-4.5 -81h-70q5 27 6.5 59t-4.5 60.5t-24 47t-53 18.5q-38 0 -71 -31t-59 -82t-44.5 -112t-28 -123.5t-9.5 -114.5q0 -75 24.5 -112
t77.5 -37q31 0 55.5 9.5t41.5 29.5l63 -28q-35 -39 -77.5 -57t-86.5 -18zM314 69l63 275l24 -31h-141l15 62h180l-72 -310zM385 814q-19 0 -31 13t-12 34q0 15 7.5 27t20 19.5t27.5 7.5q19 0 31 -11.5t12 -31.5q0 -16 -7.5 -29t-20 -21t-27.5 -8z" />
    <glyph glyph-name="Idieresis.ss01" horiz-adv-x="210" 
d="M11 0l166 720h70l-166 -720h-70zM145 814q-19 0 -31.5 13t-12.5 33q0 23 16.5 39t39.5 16q20 0 32 -11.5t12 -31.5q0 -24 -16.5 -41t-39.5 -17zM333 814q-19 0 -31.5 13t-12.5 33q0 23 16.5 39t39.5 16q20 0 32 -11.5t12 -31.5q0 -24 -16.5 -41t-39.5 -17z" />
    <glyph glyph-name="Idotaccent.ss01" horiz-adv-x="210" 
d="M11 0l166 720h70l-166 -720h-70zM239 814q-19 0 -31 13t-12 34q0 15 7.5 27t20 19.5t27.5 7.5q19 0 31 -11.5t12 -31.5q0 -16 -7.5 -29t-20 -21t-27.5 -8z" />
    <glyph glyph-name="uni0136.ss01" horiz-adv-x="466" 
d="M11 0l166 720h70l-166 -720h-70zM150 374l302 346h85l-303 -346h-84zM315 0l-152 374h71l157 -374h-76zM88 -273l8 37q26 12 44 30t25 46h23q-13 -9 -29 -9q-18 0 -31 12.5t-13 34.5q0 25 16 40.5t38 15.5q18 0 31.5 -12.5t13.5 -41.5q0 -22 -8.5 -45.5t-25 -45
t-39.5 -38t-53 -24.5z" />
    <glyph glyph-name="uni013B.ss01" horiz-adv-x="375" 
d="M11 0l166 720h70l-166 -720h-70zM53 0l14 62h223l-14 -62h-223zM43 -273l8 37q26 12 44 30t25 46h23q-13 -9 -29 -9q-18 0 -31 12.5t-13 34.5q0 25 16 40.5t38 15.5q18 0 31.5 -12.5t13.5 -41.5q0 -22 -8.5 -45.5t-25 -45t-39.5 -38t-53 -24.5z" />
    <glyph glyph-name="uni0145.ss01" horiz-adv-x="505" 
d="M11 0l166 720h83l84 -606l-8 -2l140 608h66l-166 -720h-83l-84 606l8 2l-140 -608h-66zM88 -273l8 37q26 12 44 30t25 46h23q-13 -9 -29 -9q-18 0 -31 12.5t-13 34.5q0 25 16 40.5t38 15.5q18 0 31.5 -12.5t13.5 -41.5q0 -22 -8.5 -45.5t-25 -45t-39.5 -38t-53 -24.5z
" />
    <glyph glyph-name="Odieresis.ss01" horiz-adv-x="500" 
d="M199 -10q-44 0 -77.5 26.5t-52 76t-18.5 119.5q0 101 24 194t65.5 166t95 115.5t112.5 42.5q48 0 81.5 -27.5t51.5 -79.5t17 -125q-2 -99 -26.5 -190.5t-65.5 -163t-94 -113t-113 -41.5zM212 54q39 0 77 39.5t69 106t49.5 149t18.5 167.5q0 48 -10.5 81.5t-31 51
t-50.5 17.5q-37 0 -74.5 -39.5t-68.5 -106t-49.5 -149t-18.5 -167.5q0 -47 10.5 -81t30.5 -51.5t48 -17.5zM289 814q-19 0 -31.5 13t-12.5 33q0 23 16.5 39t39.5 16q20 0 32 -11.5t12 -31.5q0 -24 -16.5 -41t-39.5 -17zM477 814q-19 0 -31.5 13t-12.5 33q0 23 16.5 39
t39.5 16q20 0 32 -11.5t12 -31.5q0 -24 -16.5 -41t-39.5 -17z" />
    <glyph glyph-name="uni0156.ss01" horiz-adv-x="434" 
d="M11 0l166 720h137q50 0 83 -23t50 -61t16 -83q-1 -58 -29 -112.5t-81 -89t-128 -34.5h-93l15 62h82q53 0 89 23.5t54.5 61.5t19.5 83q1 46 -20.5 78.5t-74.5 32.5h-65l-151 -658h-70zM289 0l-150 374h70l156 -374h-76zM72 -273l8 37q26 12 44 30t25 46h23q-13 -9 -29 -9
q-18 0 -31 12.5t-13 34.5q0 25 16 40.5t38 15.5q18 0 31.5 -12.5t13.5 -41.5q0 -22 -8.5 -45.5t-25 -45t-39.5 -38t-53 -24.5z" />
    <glyph glyph-name="uni0218.ss01" horiz-adv-x="414" 
d="M179 -9q-54 0 -89 21t-52 56t-19.5 77t7.5 85h65q-7 -28 -8 -59t8 -58t30.5 -44t58.5 -17q50 0 81 36t31 102q0 33 -9.5 59.5t-31.5 52.5l-72 87q-25 31 -42 66.5t-17 81.5q0 56 24 99.5t65.5 68.5t92.5 25q48 0 78.5 -19t44.5 -51t15 -70t-9 -76h-65q10 37 8 72.5
t-21 58.5t-60 23q-32 0 -55 -16.5t-35 -44.5t-12 -64q0 -30 10.5 -55t33.5 -53l69 -83q29 -34 43.5 -73t14.5 -86q0 -64 -23 -109t-64.5 -69t-95.5 -24zM69 -273l8 37q26 12 44 30t25 46h23q-13 -9 -29 -9q-18 0 -31 12.5t-13 34.5q0 25 16 40.5t38 15.5q18 0 31.5 -12.5
t13.5 -41.5q0 -22 -8.5 -45.5t-25 -45t-39.5 -38t-53 -24.5z" />
    <glyph glyph-name="uni021A.ss01" horiz-adv-x="414" 
d="M113 0l151 658h-152l15 62h375l-15 -62h-153l-151 -658h-70zM42 -273l8 37q26 12 44 30t25 46h23q-13 -9 -29 -9q-18 0 -31 12.5t-13 34.5q0 25 16 40.5t38 15.5q18 0 31.5 -12.5t13.5 -41.5q0 -22 -8.5 -45.5t-25 -45t-39.5 -38t-53 -24.5z" />
    <glyph glyph-name="Udieresis.ss01" horiz-adv-x="476" 
d="M198 -9q-58 0 -95.5 27t-50.5 76t2 114l117 512h70l-120 -525q-10 -45 -4 -76t28 -47.5t59 -16.5q49 0 77 28.5t41 88.5l127 548h70l-127 -549q-20 -88 -68.5 -134t-125.5 -46zM278 814q-19 0 -31.5 13t-12.5 33q0 23 16.5 39t39.5 16q20 0 32 -11.5t12 -31.5
q0 -24 -16.5 -41t-39.5 -17zM466 814q-19 0 -31.5 13t-12.5 33q0 23 16.5 39t39.5 16q20 0 32 -11.5t12 -31.5q0 -24 -16.5 -41t-39.5 -17z" />
    <glyph glyph-name="Ydieresis.ss01" horiz-adv-x="452" 
d="M132 0l77 336l-90 384h73l77 -336h-30l230 336h78l-268 -384l-77 -336h-70zM266 814q-19 0 -31.5 13t-12.5 33q0 23 16.5 39t39.5 16q20 0 32 -11.5t12 -31.5q0 -24 -16.5 -41t-39.5 -17zM454 814q-19 0 -31.5 13t-12.5 33q0 23 16.5 39t39.5 16q20 0 32 -11.5t12 -31.5
q0 -24 -16.5 -41t-39.5 -17z" />
    <glyph glyph-name="Zdotaccent.ss01" horiz-adv-x="452" 
d="M3 0l12 52l402 637l18 -31h-270l15 62h316l-12 -52l-402 -637l-19 31h286l-14 -62h-332zM360 814q-19 0 -31 13t-12 34q0 15 7.5 27t20 19.5t27.5 7.5q19 0 31 -11.5t12 -31.5q0 -16 -7.5 -29t-20 -21t-27.5 -8z" />
    <glyph glyph-name="K.ss04" horiz-adv-x="466" 
d="M11 0l166 720h70l-166 -720h-70zM86 267l366 453h85l-276 -333l-12 -9l-161 -194zM313 0l-96 404l64 19l110 -423h-78z" />
    <glyph glyph-name="uni0136.ss04" horiz-adv-x="466" 
d="M11 0l166 720h70l-166 -720h-70zM86 267l366 453h85l-276 -333l-12 -9l-161 -194zM313 0l-96 404l64 19l110 -423h-78zM83 -273l9 37q29 9 46 28t24 49l26 -4h-80l22 92h95l-19 -80q-12 -53 -41.5 -80.5t-81.5 -41.5z" />
    <glyph glyph-name="R.ss05" horiz-adv-x="430" 
d="M11 0l166 720h135q50 0 83 -20t49.5 -55t16.5 -80q0 -51 -20.5 -99.5t-60.5 -83.5t-97 -47l-5 22q52 -9 73.5 -35t23 -61.5t-7.5 -74.5l-43 -186h-70l45 199q7 29 5.5 57t-19 46.5t-59.5 18.5h-93l14 58h99q43 0 75.5 26.5t51 66.5t18.5 81q0 44 -24.5 74.5t-71.5 30.5
h-63l-151 -658h-70z" />
    <glyph glyph-name="Racute.ss05" horiz-adv-x="430" 
d="M11 0l166 720h135q50 0 83 -20t49.5 -55t16.5 -80q0 -51 -20.5 -99.5t-60.5 -83.5t-97 -47l-5 22q52 -9 73.5 -35t23 -61.5t-7.5 -74.5l-43 -186h-70l45 199q7 29 5.5 57t-19 46.5t-59.5 18.5h-93l14 58h99q43 0 75.5 26.5t51 66.5t18.5 81q0 44 -24.5 74.5t-71.5 30.5
h-63l-151 -658h-70zM332 793h-54l118 157h96z" />
    <glyph glyph-name="Rcaron.ss05" horiz-adv-x="430" 
d="M11 0l166 720h135q50 0 83 -20t49.5 -55t16.5 -80q0 -51 -20.5 -99.5t-60.5 -83.5t-97 -47l-5 22q52 -9 73.5 -35t23 -61.5t-7.5 -74.5l-43 -186h-70l45 199q7 29 5.5 57t-19 46.5t-59.5 18.5h-93l14 58h99q43 0 75.5 26.5t51 66.5t18.5 81q0 44 -24.5 74.5t-71.5 30.5
h-63l-151 -658h-70zM311 793l-76 157h37l99 -137h-58l161 137h51l-148 -157h-66z" />
    <glyph glyph-name="uni0156.ss05" horiz-adv-x="430" 
d="M11 0l166 720h135q50 0 83 -20t49.5 -55t16.5 -80q0 -51 -20.5 -99.5t-60.5 -83.5t-97 -47l-5 22q52 -9 73.5 -35t23 -61.5t-7.5 -74.5l-43 -186h-70l45 199q7 29 5.5 57t-19 46.5t-59.5 18.5h-93l14 58h99q43 0 75.5 26.5t51 66.5t18.5 81q0 44 -24.5 74.5t-71.5 30.5
h-63l-151 -658h-70zM50 -273l9 37q29 9 46 28t24 49l26 -4h-80l22 92h95l-19 -80q-12 -53 -41.5 -80.5t-81.5 -41.5z" />
    <glyph glyph-name="M.ss06" horiz-adv-x="645" 
d="M-9 0l196 720h95l-1 -676h-17l310 676h98l-136 -720h-71l118 622l9 -1l-285 -621h-93l1 621l9 1l-168 -622h-65z" />
    <glyph glyph-name="G.ss07" horiz-adv-x="471" 
d="M202 -10q-53 0 -88 25t-51.5 71.5t-16.5 110.5q0 42 7 96.5t22 114.5t38.5 117t56.5 102.5t76 73t97 27.5q50 0 81.5 -22.5t46 -59t15.5 -80t-9 -85.5h-69q7 29 9.5 61t-4 59.5t-24.5 45t-52 17.5q-40 0 -72 -25.5t-56.5 -67.5t-42 -93.5t-29 -104.5t-17 -100t-5.5 -79
q0 -66 21 -103t70 -37q38 0 69 27t58.5 94.5t53.5 187.5l67 -8q-30 -135 -66 -215t-81.5 -115t-104.5 -35zM405 313h-136l15 62h175l-5 -20z" />
    <glyph glyph-name="Gbreve.ss07" horiz-adv-x="471" 
d="M202 -10q-53 0 -88 25t-51.5 71.5t-16.5 110.5q0 42 7 96.5t22 114.5t38.5 117t56.5 102.5t76 73t97 27.5q50 0 81.5 -22.5t46 -59t15.5 -80t-9 -85.5h-69q7 29 9.5 61t-4 59.5t-24.5 45t-52 17.5q-40 0 -72 -25.5t-56.5 -67.5t-42 -93.5t-29 -104.5t-17 -100t-5.5 -79
q0 -66 21 -103t70 -37q38 0 69 27t58.5 94.5t53.5 187.5l67 -8q-30 -135 -66 -215t-81.5 -115t-104.5 -35zM405 313h-136l15 62h175l-5 -20zM366 789q-39 0 -63.5 16.5t-36.5 41.5t-13.5 53t5.5 50h41q-6 -19 -2 -44.5t22 -44t55 -18.5q40 0 69 26t40 81h41
q-17 -87 -62 -124t-96 -37z" />
    <glyph glyph-name="uni0122.ss07" horiz-adv-x="471" 
d="M202 -10q-53 0 -88 25t-51.5 71.5t-16.5 110.5q0 42 7 96.5t22 114.5t38.5 117t56.5 102.5t76 73t97 27.5q50 0 81.5 -22.5t46 -59t15.5 -80t-9 -85.5h-69q7 29 9.5 61t-4 59.5t-24.5 45t-52 17.5q-40 0 -72 -25.5t-56.5 -67.5t-42 -93.5t-29 -104.5t-17 -100t-5.5 -79
q0 -66 21 -103t70 -37q38 0 69 27t58.5 94.5t53.5 187.5l67 -8q-30 -135 -66 -215t-81.5 -115t-104.5 -35zM405 313h-136l15 62h175l-5 -20zM89 -273l9 37q29 9 46 28t24 49l26 -4h-80l22 92h95l-19 -80q-12 -53 -41.5 -80.5t-81.5 -41.5z" />
    <glyph glyph-name="Gdotaccent.ss07" horiz-adv-x="471" 
d="M202 -10q-53 0 -88 25t-51.5 71.5t-16.5 110.5q0 42 7 96.5t22 114.5t38.5 117t56.5 102.5t76 73t97 27.5q50 0 81.5 -22.5t46 -59t15.5 -80t-9 -85.5h-69q7 29 9.5 61t-4 59.5t-24.5 45t-52 17.5q-40 0 -72 -25.5t-56.5 -67.5t-42 -93.5t-29 -104.5t-17 -100t-5.5 -79
q0 -66 21 -103t70 -37q38 0 69 27t58.5 94.5t53.5 187.5l67 -8q-30 -135 -66 -215t-81.5 -115t-104.5 -35zM405 313h-136l15 62h175l-5 -20zM322 844l18 86h84l-18 -86h-84z" />
    <glyph glyph-name="J.ss08" horiz-adv-x="437" 
d="M164 -10q-40 0 -69 15.5t-47 43t-22.5 63t4.5 74.5h67q-8 -41 -1.5 -71t26 -45.5t51.5 -15.5q42 0 69 28.5t42 92.5l126 545h70l-129 -557q-21 -91 -68 -132t-119 -41z" />
    <glyph glyph-name="Q.ss09" horiz-adv-x="500" 
d="M200 -10q-44 0 -78 26.5t-52.5 76t-18.5 119.5q0 101 23.5 194t65 166t95.5 115.5t114 42.5q45 0 78 -27.5t51 -79.5t18 -125q0 -99 -24 -190.5t-65.5 -163t-94.5 -113t-112 -41.5zM213 54q38 0 75 39.5t68 106t49.5 149t18.5 167.5q0 48 -10.5 81.5t-30.5 51t-48 17.5
q-38 0 -75.5 -39.5t-68.5 -106t-49.5 -149t-18.5 -167.5q0 -47 10.5 -81t31 -51.5t48.5 -17.5zM224 179l59 21l87 -252l-59 -21z" />
    <glyph glyph-name="uni0136.ss01.ss04" horiz-adv-x="466" 
d="M11 0l166 720h70l-166 -720h-70zM86 267l366 453h85l-276 -333l-12 -9l-161 -194zM313 0l-96 404l64 19l110 -423h-78zM88 -273l8 37q26 12 44 30t25 46h23q-13 -9 -29 -9q-18 0 -31 12.5t-13 34.5q0 25 16 40.5t38 15.5q18 0 31.5 -12.5t13.5 -41.5q0 -22 -8.5 -45.5
t-25 -45t-39.5 -38t-53 -24.5z" />
    <glyph glyph-name="uni0156.ss01.ss05" horiz-adv-x="430" 
d="M11 0l166 720h135q50 0 83 -20t49.5 -55t16.5 -80q0 -51 -20.5 -99.5t-60.5 -83.5t-97 -47l-5 22q52 -9 73.5 -35t23 -61.5t-7.5 -74.5l-43 -186h-70l45 199q7 29 5.5 57t-19 46.5t-59.5 18.5h-93l14 58h99q43 0 75.5 26.5t51 66.5t18.5 81q0 44 -24.5 74.5t-71.5 30.5
h-63l-151 -658h-70zM55 -273l8 37q26 12 44 30t25 46h23q-13 -9 -29 -9q-18 0 -31 12.5t-13 34.5q0 25 16 40.5t38 15.5q18 0 31.5 -12.5t13.5 -41.5q0 -22 -8.5 -45.5t-25 -45t-39.5 -38t-53 -24.5z" />
    <glyph glyph-name="uni0122.ss01.ss07" horiz-adv-x="471" 
d="M202 -10q-53 0 -88 25t-51.5 71.5t-16.5 110.5q0 42 7 96.5t22 114.5t38.5 117t56.5 102.5t76 73t97 27.5q50 0 81.5 -22.5t46 -59t15.5 -80t-9 -85.5h-69q7 29 9.5 61t-4 59.5t-24.5 45t-52 17.5q-40 0 -72 -25.5t-56.5 -67.5t-42 -93.5t-29 -104.5t-17 -100t-5.5 -79
q0 -66 21 -103t70 -37q38 0 69 27t58.5 94.5t53.5 187.5l67 -8q-30 -135 -66 -215t-81.5 -115t-104.5 -35zM405 313h-136l15 62h175l-5 -20zM89 -273l8 37q26 12 44 30t25 46h23q-13 -9 -29 -9q-18 0 -31 12.5t-13 34.5q0 25 16 40.5t38 15.5q18 0 31.5 -12.5t13.5 -41.5
q0 -22 -8.5 -45.5t-25 -45t-39.5 -38t-53 -24.5z" />
    <glyph glyph-name="Gdotaccent.ss01.ss07" horiz-adv-x="471" 
d="M202 -10q-53 0 -88 25t-51.5 71.5t-16.5 110.5q0 42 7 96.5t22 114.5t38.5 117t56.5 102.5t76 73t97 27.5q50 0 81.5 -22.5t46 -59t15.5 -80t-9 -85.5h-69q7 29 9.5 61t-4 59.5t-24.5 45t-52 17.5q-40 0 -72 -25.5t-56.5 -67.5t-42 -93.5t-29 -104.5t-17 -100t-5.5 -79
q0 -66 21 -103t70 -37q38 0 69 27t58.5 94.5t53.5 187.5l67 -8q-30 -135 -66 -215t-81.5 -115t-104.5 -35zM405 313h-136l15 62h175l-5 -20zM365 814q-19 0 -31 13t-12 34q0 15 7.5 27t20 19.5t27.5 7.5q19 0 31 -11.5t12 -31.5q0 -16 -7.5 -29t-20 -21t-27.5 -8z" />
    <glyph glyph-name="i.loclTRK" horiz-adv-x="197" 
d="M6 0l117 510h68l-117 -510h-68zM141 634l18 86h84l-18 -86h-84z" />
    <glyph glyph-name="adieresis.ss01" horiz-adv-x="389" 
d="M218 0q0 14 3 35t7 45h-7l66 291q5 21 4.5 42t-12.5 34.5t-42 13.5q-39 0 -62 -26.5t-34 -72.5h-63q17 77 60 117.5t112 40.5q56 0 80.5 -24t27.5 -61.5t-6 -76.5l-65 -285q-4 -21 -6.5 -39t-2.5 -34h-60zM106 -10q-45 0 -71.5 27.5t-26.5 77.5q0 42 18.5 76.5t53.5 61
t87 44.5l122 43l-13 -59l-94 -35q-55 -20 -80 -51t-25 -69q0 -29 15.5 -43.5t40.5 -14.5q38 0 66 28.5t40 81.5l-8 -81q-21 -44 -53.5 -65.5t-71.5 -21.5zM187 604q-19 0 -31.5 13t-12.5 33q0 23 16.5 39t39.5 16q20 0 32 -11.5t12 -31.5q0 -24 -16.5 -41t-39.5 -17z
M375 604q-19 0 -31.5 13t-12.5 33q0 23 16.5 39t39.5 16q20 0 32 -11.5t12 -31.5q0 -24 -16.5 -41t-39.5 -17z" />
    <glyph glyph-name="cdotaccent.ss01" horiz-adv-x="384" 
d="M154 -10q-39 0 -67 19.5t-43 59.5t-15 101q0 53 11 104.5t32 95.5t49 78t62.5 53t72.5 19q41 0 66.5 -19t38 -49.5t14 -64.5t-7.5 -64h-65q7 29 7 61t-12.5 54.5t-45.5 22.5q-27 0 -50 -16.5t-42 -45t-32.5 -66t-20.5 -80t-7 -85.5q0 -59 15.5 -88.5t46.5 -29.5
q38 0 66.5 36t42.5 101h65q-20 -91 -65.5 -144t-115.5 -53zM293 604q-19 0 -31 13t-12 34q0 15 7.5 27t20 19.5t27.5 7.5q19 0 31 -11.5t12 -31.5q0 -16 -7.5 -29t-20 -21t-27.5 -8z" />
    <glyph glyph-name="edieresis.ss01" horiz-adv-x="402" 
d="M160 -10q-43 0 -73 20.5t-45.5 58.5t-15.5 91q0 36 8 83t25 95t44.5 89t66.5 66t91 25q38 0 64.5 -16t40.5 -48.5t14 -82.5q0 -35 -6 -73.5t-13 -57.5h-279l12 58h244l-37 -51q7 29 12.5 65.5t4 69.5t-16 54.5t-47.5 21.5q-34 0 -60.5 -22.5t-45 -58.5t-30 -77t-17 -79
t-5.5 -63q0 -52 19 -80t55 -28t63 28.5t43 83.5h64q-25 -84 -71.5 -128t-108.5 -44zM204 604q-19 0 -31.5 13t-12.5 33q0 23 16.5 39t39.5 16q20 0 32 -11.5t12 -31.5q0 -24 -16.5 -41t-39.5 -17zM392 604q-19 0 -31.5 13t-12.5 33q0 23 16.5 39t39.5 16q20 0 32 -11.5
t12 -31.5q0 -24 -16.5 -41t-39.5 -17z" />
    <glyph glyph-name="edotaccent.ss01" horiz-adv-x="402" 
d="M160 -10q-43 0 -73 20.5t-45.5 58.5t-15.5 91q0 36 8 83t25 95t44.5 89t66.5 66t91 25q38 0 64.5 -16t40.5 -48.5t14 -82.5q0 -35 -6 -73.5t-13 -57.5h-279l12 58h244l-37 -51q7 29 12.5 65.5t4 69.5t-16 54.5t-47.5 21.5q-34 0 -60.5 -22.5t-45 -58.5t-30 -77t-17 -79
t-5.5 -63q0 -52 19 -80t55 -28t63 28.5t43 83.5h64q-25 -84 -71.5 -128t-108.5 -44zM298 604q-19 0 -31 13t-12 34q0 15 7.5 27t20 19.5t27.5 7.5q19 0 31 -11.5t12 -31.5q0 -16 -7.5 -29t-20 -21t-27.5 -8z" />
    <glyph glyph-name="uni0123.ss01" 
d="M137 -215q-58 0 -91 22t-45.5 55.5t-10.5 66.5h61q-1 -39 21.5 -61.5t71.5 -22.5q43 0 70 26.5t38 80.5l30 142l5 -10q-20 -46 -56 -70t-77 -24q-58 0 -90 49.5t-32 128.5q0 70 16.5 133t46 112.5t68 78t82.5 28.5q35 0 61.5 -15.5t40.5 -44t11 -68.5l-6 -6l26 124h60
l-118 -556q-17 -82 -64.5 -125.5t-118.5 -43.5zM183 52q34 0 59 22t42.5 57t28 74.5t15.5 76t5 61.5q0 58 -22 86.5t-59 28.5q-43 0 -77 -39t-53.5 -102.5t-19.5 -138.5q0 -58 21 -92t60 -34zM292 576q-19 0 -32.5 13t-13.5 41q0 22 8.5 45.5t25 45t40 38t53.5 24.5l-8 -37
q-26 -12 -44.5 -29.5t-25.5 -46.5h-22q14 9 29 9q18 0 31 -12.5t13 -34.5q0 -25 -15.5 -40.5t-38.5 -15.5z" />
    <glyph glyph-name="gdotaccent.ss01" 
d="M137 -215q-58 0 -91 22t-45.5 55.5t-10.5 66.5h61q-1 -39 21.5 -61.5t71.5 -22.5q43 0 70 26.5t38 80.5l30 142l5 -10q-20 -46 -56 -70t-77 -24q-58 0 -90 49.5t-32 128.5q0 70 16.5 133t46 112.5t68 78t82.5 28.5q35 0 61.5 -15.5t40.5 -44t11 -68.5l-6 -6l26 124h60
l-118 -556q-17 -82 -64.5 -125.5t-118.5 -43.5zM183 52q34 0 59 22t42.5 57t28 74.5t15.5 76t5 61.5q0 58 -22 86.5t-59 28.5q-43 0 -77 -39t-53.5 -102.5t-19.5 -138.5q0 -58 21 -92t60 -34zM295 604q-19 0 -31 13t-12 34q0 15 7.5 27t20 19.5t27.5 7.5q19 0 31 -11.5
t12 -31.5q0 -16 -7.5 -29t-20 -21t-27.5 -8z" />
    <glyph glyph-name="i.ss01" horiz-adv-x="197" 
d="M6 0l117 510h68l-117 -510h-68zM184 604q-19 0 -31 13t-12 34q0 15 7.5 27t20 19.5t27.5 7.5q19 0 31 -11.5t12 -31.5q0 -16 -7.5 -29t-20 -21t-27.5 -8z" />
    <glyph glyph-name="idieresis.ss01" horiz-adv-x="197" 
d="M6 0l117 510h68l-117 -510h-68zM90 604q-19 0 -31.5 13t-12.5 33q0 23 16.5 39t39.5 16q20 0 32 -11.5t12 -31.5q0 -24 -16.5 -41t-39.5 -17zM278 604q-19 0 -31.5 13t-12.5 33q0 23 16.5 39t39.5 16q20 0 32 -11.5t12 -31.5q0 -24 -16.5 -41t-39.5 -17z" />
    <glyph glyph-name="i.loclTRK.ss01" horiz-adv-x="197" 
d="M6 0l117 510h68l-117 -510h-68zM184 604q-19 0 -31 13t-12 34q0 15 7.5 27t20 19.5t27.5 7.5q19 0 31 -11.5t12 -31.5q0 -16 -7.5 -29t-20 -21t-27.5 -8z" />
    <glyph glyph-name="ij.ss01" horiz-adv-x="393" 
d="M6 0l117 510h68l-117 -510h-68zM184 604q-19 0 -31 13t-12 34q0 15 7.5 27t20 19.5t27.5 7.5q19 0 31 -11.5t12 -31.5q0 -16 -7.5 -29t-20 -21t-27.5 -8zM128 -214q-9 0 -27 2.5t-29 8.5l13 54q5 -3 16 -5.5t25 -2.5q20 0 33 10.5t17 30.5l144 626h68l-147 -637
q-9 -39 -38.5 -63.5t-74.5 -23.5zM381 604q-19 0 -31 13t-12 34q0 15 7.5 27t20 19.5t27.5 7.5q19 0 31 -11.5t12 -31.5q0 -16 -7.5 -29t-20 -21t-27.5 -8z" />
    <glyph glyph-name="iogonek.ss01" horiz-adv-x="197" 
d="M6 0l117 510h68l-117 -510h-68zM184 604q-19 0 -31 13t-12 34q0 15 7.5 27t20 19.5t27.5 7.5q19 0 31 -11.5t12 -31.5q0 -16 -7.5 -29t-20 -21t-27.5 -8zM-31 -216q-33 0 -52.5 17.5t-19.5 47.5q0 48 47 92.5t117 76.5l13 -18q-54 -36 -91.5 -69t-37.5 -71q0 -18 10 -26
t23 -8q16 0 36 14l17 -34q-15 -10 -30 -16t-32 -6z" />
    <glyph glyph-name="j.ss01" horiz-adv-x="196" 
d="M-69 -214q-9 0 -27 2.5t-29 8.5l13 54q5 -3 16 -5.5t25 -2.5q20 0 33 10.5t17 30.5l144 626h68l-147 -637q-9 -39 -38.5 -63.5t-74.5 -23.5zM184 604q-19 0 -31 13t-12 34q0 15 7.5 27t20 19.5t27.5 7.5q19 0 31 -11.5t12 -31.5q0 -16 -7.5 -29t-20 -21t-27.5 -8z" />
    <glyph glyph-name="uni0137.ss01" horiz-adv-x="399" 
d="M5 0l166 720h68l-166 -720h-68zM256 0l-134 265l230 245h84l-251 -264l-5 43l148 -289h-72zM55 -273l8 37q26 12 44 30t25 46h23q-13 -9 -29 -9q-18 0 -31 12.5t-13 34.5q0 25 16 40.5t38 15.5q18 0 31.5 -12.5t13.5 -41.5q0 -22 -8.5 -45.5t-25 -45t-39.5 -38t-53 -24.5
z" />
    <glyph glyph-name="uni013C.ss01" horiz-adv-x="196" 
d="M5 0l166 720h68l-166 -720h-68zM-67 -273l8 37q26 12 44 30t25 46h23q-13 -9 -29 -9q-18 0 -31 12.5t-13 34.5q0 25 16 40.5t38 15.5q18 0 31.5 -12.5t13.5 -41.5q0 -22 -8.5 -45.5t-25 -45t-39.5 -38t-53 -24.5z" />
    <glyph glyph-name="uni0146.ss01" horiz-adv-x="443" 
d="M6 0l117 510h63l-22 -96h5l-95 -414h-68zM256 0l86 377q9 40 -6 62t-52 22q-47 0 -84 -35.5t-50 -94.5l10 80q23 54 61.5 81.5t86.5 27.5q60 0 88.5 -40t14.5 -103l-87 -377h-68zM57 -273l8 37q26 12 44 30t25 46h23q-13 -9 -29 -9q-18 0 -31 12.5t-13 34.5q0 25 16 40.5
t38 15.5q18 0 31.5 -12.5t13.5 -41.5q0 -22 -8.5 -45.5t-25 -45t-39.5 -38t-53 -24.5z" />
    <glyph glyph-name="odieresis.ss01" horiz-adv-x="432" 
d="M172 -10q-44 0 -76 22t-49 63.5t-17 99.5q0 69 18.5 131.5t51 110.5t74.5 75.5t88 27.5q44 0 75.5 -21.5t48.5 -62t17 -96.5q0 -70 -19 -133t-51.5 -112t-74 -77t-86.5 -28zM178 50q29 0 57 24t50 66t35 94.5t13 109.5q0 56 -20 86t-58 30q-30 0 -58 -23.5t-49.5 -64
t-34.5 -92.5t-13 -110t20.5 -89t57.5 -31zM207 604q-19 0 -31.5 13t-12.5 33q0 23 16.5 39t39.5 16q20 0 32 -11.5t12 -31.5q0 -24 -16.5 -41t-39.5 -17zM395 604q-19 0 -31.5 13t-12.5 33q0 23 16.5 39t39.5 16q20 0 32 -11.5t12 -31.5q0 -24 -16.5 -41t-39.5 -17z" />
    <glyph glyph-name="uni0157.ss01" horiz-adv-x="276" 
d="M5 0l118 510h63l-25 -106h5l-93 -404h-68zM151 339l1 73q32 54 64.5 81t69.5 27q7 0 16 -1.5t15 -4.5l-14 -65q-5 2 -13.5 3t-16.5 1q-44 0 -77 -29t-45 -85zM-68 -273l8 37q26 12 44 30t25 46h23q-13 -9 -29 -9q-18 0 -31 12.5t-13 34.5q0 25 16 40.5t38 15.5
q18 0 31.5 -12.5t13.5 -41.5q0 -22 -8.5 -45.5t-25 -45t-39.5 -38t-53 -24.5z" />
    <glyph glyph-name="uni0219.ss01" horiz-adv-x="326" 
d="M123 -10q-50 0 -79.5 25.5t-38.5 63.5t0 75h61q-5 -24 -2 -48.5t18.5 -41t46.5 -16.5q38 0 57 24.5t19 61.5q0 23 -8 41t-26 36l-47 47q-24 24 -38 53.5t-14 66.5q0 42 18 73.5t50.5 49.5t74.5 18q50 0 74 -22.5t29.5 -56.5t-0.5 -68h-61q3 19 1.5 39.5t-12.5 35
t-39 14.5q-34 0 -52.5 -22.5t-18.5 -57.5q0 -20 8.5 -39t27.5 -38l48 -48q23 -23 36 -52t13 -64q0 -43 -19 -77t-51.5 -53.5t-75.5 -19.5zM6 -273l8 37q26 12 44 30t25 46h23q-13 -9 -29 -9q-18 0 -31 12.5t-13 34.5q0 25 16 40.5t38 15.5q18 0 31.5 -12.5t13.5 -41.5
q0 -22 -8.5 -45.5t-25 -45t-39.5 -38t-53 -24.5z" />
    <glyph glyph-name="uni021B.ss01" horiz-adv-x="269" 
d="M150 -10q-59 0 -86.5 33.5t-14.5 91.5l110 484l76 30l-120 -518q-7 -33 5 -48.5t45 -15.5q11 0 23 2t18 4l-14 -56q-10 -4 -19.5 -5.5t-22.5 -1.5zM58 452l13 58h239l-13 -58h-239zM8 -273l8 37q26 12 44 30t25 46h23q-13 -9 -29 -9q-18 0 -31 12.5t-13 34.5
q0 25 16 40.5t38 15.5q18 0 31.5 -12.5t13.5 -41.5q0 -22 -8.5 -45.5t-25 -45t-39.5 -38t-53 -24.5z" />
    <glyph glyph-name="udieresis.ss01" horiz-adv-x="434" 
d="M131 -10q-57 0 -85 40t-14 103l87 377h68l-86 -377q-9 -40 5.5 -62t48.5 -22q44 0 80.5 35.5t49.5 94.5l-10 -80q-23 -54 -61 -81.5t-83 -27.5zM251 0l23 96h-8l95 414h68l-118 -510h-60zM209 604q-19 0 -31.5 13t-12.5 33q0 23 16.5 39t39.5 16q20 0 32 -11.5t12 -31.5
q0 -24 -16.5 -41t-39.5 -17zM397 604q-19 0 -31.5 13t-12.5 33q0 23 16.5 39t39.5 16q20 0 32 -11.5t12 -31.5q0 -24 -16.5 -41t-39.5 -17z" />
    <glyph glyph-name="wdieresis.ss01" horiz-adv-x="605" 
d="M97 0l-8 510h66l-5 -415h-18l208 415h44l14 -415h-18l185 415h69l-244 -510h-44l-14 408h16l-205 -408h-46zM295 604q-19 0 -31.5 13t-12.5 33q0 23 16.5 39t39.5 16q20 0 32 -11.5t12 -31.5q0 -24 -16.5 -41t-39.5 -17zM483 604q-19 0 -31.5 13t-12.5 33q0 23 16.5 39
t39.5 16q20 0 32 -11.5t12 -31.5q0 -24 -16.5 -41t-39.5 -17z" />
    <glyph glyph-name="ydieresis.ss01" horiz-adv-x="388" 
d="M-20 -205l145 270l13 24l217 421h72l-375 -715h-72zM120 5l-41 505h70l26 -430zM186 604q-19 0 -31.5 13t-12.5 33q0 23 16.5 39t39.5 16q20 0 32 -11.5t12 -31.5q0 -24 -16.5 -41t-39.5 -17zM374 604q-19 0 -31.5 13t-12.5 33q0 23 16.5 39t39.5 16q20 0 32 -11.5
t12 -31.5q0 -24 -16.5 -41t-39.5 -17z" />
    <glyph glyph-name="zdotaccent.ss01" horiz-adv-x="346" 
d="M-29 0l11 48l314 431l16 -27h-226l14 58h272l-11 -48l-314 -431l-17 27h242l-13 -58h-288zM259 604q-19 0 -31 13t-12 34q0 15 7.5 27t20 19.5t27.5 7.5q19 0 31 -11.5t12 -31.5q0 -16 -7.5 -29t-20 -21t-27.5 -8z" />
    <glyph glyph-name="a.ss02" 
d="M149 -10q-57 0 -88 47.5t-31 123.5q0 71 17.5 135.5t47.5 115t69.5 79.5t84.5 29q35 0 61 -15.5t40 -44t10 -68.5l-9 -6l29 124h63l-118 -510h-63l22 94l-1 -10q-21 -46 -57 -70t-77 -24zM179 52q34 0 60 22.5t44 58t29.5 76t16.5 77.5t5 61q0 56 -21.5 83.5t-57.5 27.5
q-43 0 -78 -39t-56 -102.5t-21 -138.5q0 -58 20 -92t59 -34z" />
    <glyph glyph-name="aacute.ss02" 
d="M149 -10q-57 0 -88 47.5t-31 123.5q0 71 17.5 135.5t47.5 115t69.5 79.5t84.5 29q35 0 61 -15.5t40 -44t10 -68.5l-9 -6l29 124h63l-118 -510h-63l22 94l-1 -10q-21 -46 -57 -70t-77 -24zM179 52q34 0 60 22.5t44 58t29.5 76t16.5 77.5t5 61q0 56 -21.5 83.5t-57.5 27.5
q-43 0 -78 -39t-56 -102.5t-21 -138.5q0 -58 20 -92t59 -34zM289 583h-54l118 157h96z" />
    <glyph glyph-name="abreve.ss02" 
d="M149 -10q-57 0 -88 47.5t-31 123.5q0 71 17.5 135.5t47.5 115t69.5 79.5t84.5 29q35 0 61 -15.5t40 -44t10 -68.5l-9 -6l29 124h63l-118 -510h-63l22 94l-1 -10q-21 -46 -57 -70t-77 -24zM179 52q34 0 60 22.5t44 58t29.5 76t16.5 77.5t5 61q0 56 -21.5 83.5t-57.5 27.5
q-43 0 -78 -39t-56 -102.5t-21 -138.5q0 -58 20 -92t59 -34zM312 579q-39 0 -63.5 16.5t-36.5 41.5t-13.5 53t5.5 50h41q-6 -19 -2 -44.5t22 -44t55 -18.5q40 0 69 26t40 81h41q-17 -87 -62 -124t-96 -37z" />
    <glyph glyph-name="uni01CE.ss02" 
d="M149 -10q-57 0 -88 47.5t-31 123.5q0 71 17.5 135.5t47.5 115t69.5 79.5t84.5 29q35 0 61 -15.5t40 -44t10 -68.5l-9 -6l29 124h63l-118 -510h-63l22 94l-1 -10q-21 -46 -57 -70t-77 -24zM179 52q34 0 60 22.5t44 58t29.5 76t16.5 77.5t5 61q0 56 -21.5 83.5t-57.5 27.5
q-43 0 -78 -39t-56 -102.5t-21 -138.5q0 -58 20 -92t59 -34zM268 583l-76 157h37l99 -137h-58l161 137h51l-148 -157h-66z" />
    <glyph glyph-name="acircumflex.ss02" 
d="M149 -10q-57 0 -88 47.5t-31 123.5q0 71 17.5 135.5t47.5 115t69.5 79.5t84.5 29q35 0 61 -15.5t40 -44t10 -68.5l-9 -6l29 124h63l-118 -510h-63l22 94l-1 -10q-21 -46 -57 -70t-77 -24zM179 52q34 0 60 22.5t44 58t29.5 76t16.5 77.5t5 61q0 56 -21.5 83.5t-57.5 27.5
q-43 0 -78 -39t-56 -102.5t-21 -138.5q0 -58 20 -92t59 -34zM154 583l148 157h66l76 -157h-37l-99 137h58l-161 -137h-51z" />
    <glyph glyph-name="adieresis.ss02" 
d="M149 -10q-57 0 -88 47.5t-31 123.5q0 71 17.5 135.5t47.5 115t69.5 79.5t84.5 29q35 0 61 -15.5t40 -44t10 -68.5l-9 -6l29 124h63l-118 -510h-63l22 94l-1 -10q-21 -46 -57 -70t-77 -24zM179 52q34 0 60 22.5t44 58t29.5 76t16.5 77.5t5 61q0 56 -21.5 83.5t-57.5 27.5
q-43 0 -78 -39t-56 -102.5t-21 -138.5q0 -58 20 -92t59 -34zM364 634l20 86h84l-20 -86h-84zM175 634l20 86h84l-20 -86h-84z" />
    <glyph glyph-name="agrave.ss02" 
d="M149 -10q-57 0 -88 47.5t-31 123.5q0 71 17.5 135.5t47.5 115t69.5 79.5t84.5 29q35 0 61 -15.5t40 -44t10 -68.5l-9 -6l29 124h63l-118 -510h-63l22 94l-1 -10q-21 -46 -57 -70t-77 -24zM179 52q34 0 60 22.5t44 58t29.5 76t16.5 77.5t5 61q0 56 -21.5 83.5t-57.5 27.5
q-43 0 -78 -39t-56 -102.5t-21 -138.5q0 -58 20 -92t59 -34zM321 583l-96 157h81l61 -157h-46z" />
    <glyph glyph-name="amacron.ss02" 
d="M149 -10q-57 0 -88 47.5t-31 123.5q0 71 17.5 135.5t47.5 115t69.5 79.5t84.5 29q35 0 61 -15.5t40 -44t10 -68.5l-9 -6l29 124h63l-118 -510h-63l22 94l-1 -10q-21 -46 -57 -70t-77 -24zM179 52q34 0 60 22.5t44 58t29.5 76t16.5 77.5t5 61q0 56 -21.5 83.5t-57.5 27.5
q-43 0 -78 -39t-56 -102.5t-21 -138.5q0 -58 20 -92t59 -34zM181 647l11 48h267l-11 -48h-267z" />
    <glyph glyph-name="aogonek.ss02" 
d="M149 -10q-57 0 -88 47.5t-31 123.5q0 71 17.5 135.5t47.5 115t69.5 79.5t84.5 29q35 0 61 -15.5t40 -44t10 -68.5l-9 -6l29 124h63l-118 -510h-63l22 94l-1 -10q-21 -46 -57 -70t-77 -24zM179 52q34 0 60 22.5t44 58t29.5 76t16.5 77.5t5 61q0 56 -21.5 83.5t-57.5 27.5
q-43 0 -78 -39t-56 -102.5t-21 -138.5q0 -58 20 -92t59 -34zM221 -216q-33 0 -52.5 17.5t-19.5 47.5q0 48 47 92.5t117 76.5l13 -18q-54 -36 -91.5 -69t-37.5 -71q0 -18 10 -26t23 -8q16 0 36 14l17 -34q-15 -10 -30 -16t-32 -6z" />
    <glyph glyph-name="aring.ss02" 
d="M149 -10q-57 0 -88 47.5t-31 123.5q0 71 17.5 135.5t47.5 115t69.5 79.5t84.5 29q35 0 61 -15.5t40 -44t10 -68.5l-9 -6l29 124h63l-118 -510h-63l22 94l-1 -10q-21 -46 -57 -70t-77 -24zM179 52q34 0 60 22.5t44 58t29.5 76t16.5 77.5t5 61q0 56 -21.5 83.5t-57.5 27.5
q-43 0 -78 -39t-56 -102.5t-21 -138.5q0 -58 20 -92t59 -34zM309 561q-41 0 -69 27.5t-28 68.5q0 33 16 60t42.5 43t57.5 16q42 0 70 -27.5t28 -68.5q0 -31 -16.5 -58.5t-43 -44t-57.5 -16.5zM311 601q29 0 51 22t22 53q0 26 -16 43t-42 17q-28 0 -50 -21.5t-22 -52.5
q0 -27 16.5 -44t40.5 -17z" />
    <glyph glyph-name="atilde.ss02" 
d="M149 -10q-57 0 -88 47.5t-31 123.5q0 71 17.5 135.5t47.5 115t69.5 79.5t84.5 29q35 0 61 -15.5t40 -44t10 -68.5l-9 -6l29 124h63l-118 -510h-63l22 94l-1 -10q-21 -46 -57 -70t-77 -24zM179 52q34 0 60 22.5t44 58t29.5 76t16.5 77.5t5 61q0 56 -21.5 83.5t-57.5 27.5
q-43 0 -78 -39t-56 -102.5t-21 -138.5q0 -58 20 -92t59 -34zM380 601q-25 0 -41.5 10.5t-29.5 24t-26 24t-30 10.5q-22 0 -33.5 -14t-19.5 -45h-42q9 38 22.5 62.5t33.5 36.5t45 12q26 0 42 -10.5t28 -24t24.5 -24t30.5 -10.5q22 0 33.5 14t18.5 45h42q-13 -56 -37.5 -83.5
t-60.5 -27.5z" />
    <glyph glyph-name="y.ss03" horiz-adv-x="388" 
d="M-15 -215q-16 0 -24 1.5t-13 3.5l12 54q5 -1 11.5 -2.5t17.5 -1.5q21 0 34 7.5t26 32.5l90 183l15 32l202 415h71l-324 -652q-13 -27 -30.5 -43t-39 -23t-48.5 -7zM120 5l-41 505h70l26 -430z" />
    <glyph glyph-name="yacute.ss03" horiz-adv-x="388" 
d="M-15 -215q-16 0 -24 1.5t-13 3.5l12 54q5 -1 11.5 -2.5t17.5 -1.5q21 0 34 7.5t26 32.5l90 183l15 32l202 415h71l-324 -652q-13 -27 -30.5 -43t-39 -23t-48.5 -7zM120 5l-41 505h70l26 -430zM264 583h-54l118 157h96z" />
    <glyph glyph-name="ycircumflex.ss03" horiz-adv-x="388" 
d="M-15 -215q-16 0 -24 1.5t-13 3.5l12 54q5 -1 11.5 -2.5t17.5 -1.5q21 0 34 7.5t26 32.5l90 183l15 32l202 415h71l-324 -652q-13 -27 -30.5 -43t-39 -23t-48.5 -7zM120 5l-41 505h70l26 -430zM129 583l148 157h66l76 -157h-37l-99 137h58l-161 -137h-51z" />
    <glyph glyph-name="ydieresis.ss03" horiz-adv-x="388" 
d="M-15 -215q-16 0 -24 1.5t-13 3.5l12 54q5 -1 11.5 -2.5t17.5 -1.5q21 0 34 7.5t26 32.5l90 183l15 32l202 415h71l-324 -652q-13 -27 -30.5 -43t-39 -23t-48.5 -7zM120 5l-41 505h70l26 -430zM339 634l20 86h84l-20 -86h-84zM150 634l20 86h84l-20 -86h-84z" />
    <glyph glyph-name="ygrave.ss03" horiz-adv-x="388" 
d="M-15 -215q-16 0 -24 1.5t-13 3.5l12 54q5 -1 11.5 -2.5t17.5 -1.5q21 0 34 7.5t26 32.5l90 183l15 32l202 415h71l-324 -652q-13 -27 -30.5 -43t-39 -23t-48.5 -7zM120 5l-41 505h70l26 -430zM296 583l-96 157h81l61 -157h-46z" />
    <glyph glyph-name="k.ss04" horiz-adv-x="399" 
d="M5 0l166 720h68l-166 -720h-68zM115 235l239 275h82l-209 -233l-12 -4l-121 -132zM242 304l86 -304h-68l-75 280z" />
    <glyph glyph-name="uni0137.ss04" horiz-adv-x="399" 
d="M5 0l166 720h68l-166 -720h-68zM115 235l239 275h82l-209 -233l-12 -4l-121 -132zM242 304l86 -304h-68l-75 280zM50 -273l9 37q29 9 46 28t24 49l26 -4h-80l22 92h95l-19 -80q-12 -53 -41.5 -80.5t-81.5 -41.5z" />
    <glyph glyph-name="adieresis.ss01.ss02" 
d="M149 -10q-57 0 -88 47.5t-31 123.5q0 71 17.5 135.5t47.5 115t69.5 79.5t84.5 29q35 0 61 -15.5t40 -44t10 -68.5l-9 -6l29 124h63l-118 -510h-63l22 94l-1 -10q-21 -46 -57 -70t-77 -24zM179 52q34 0 60 22.5t44 58t29.5 76t16.5 77.5t5 61q0 56 -21.5 83.5t-57.5 27.5
q-43 0 -78 -39t-56 -102.5t-21 -138.5q0 -58 20 -92t59 -34zM217 604q-19 0 -31.5 13t-12.5 33q0 23 16.5 39t39.5 16q20 0 32 -11.5t12 -31.5q0 -24 -16.5 -41t-39.5 -17zM405 604q-19 0 -31.5 13t-12.5 33q0 23 16.5 39t39.5 16q20 0 32 -11.5t12 -31.5q0 -24 -16.5 -41
t-39.5 -17z" />
    <glyph glyph-name="ydieresis.ss01.ss03" horiz-adv-x="388" 
d="M-15 -215q-16 0 -24 1.5t-13 3.5l12 54q5 -1 11.5 -2.5t17.5 -1.5q21 0 34 7.5t26 32.5l90 183l15 32l202 415h71l-324 -652q-13 -27 -30.5 -43t-39 -23t-48.5 -7zM120 5l-41 505h70l26 -430zM192 604q-19 0 -31.5 13t-12.5 33q0 23 16.5 39t39.5 16q20 0 32 -11.5
t12 -31.5q0 -24 -16.5 -41t-39.5 -17zM380 604q-19 0 -31.5 13t-12.5 33q0 23 16.5 39t39.5 16q20 0 32 -11.5t12 -31.5q0 -24 -16.5 -41t-39.5 -17z" />
    <glyph glyph-name="uni0137.ss01.ss04" horiz-adv-x="399" 
d="M5 0l166 720h68l-166 -720h-68zM115 235l239 275h82l-209 -233l-12 -4l-121 -132zM242 304l86 -304h-68l-75 280zM55 -273l8 37q26 12 44 30t25 46h23q-13 -9 -29 -9q-18 0 -31 12.5t-13 34.5q0 25 16 40.5t38 15.5q18 0 31.5 -12.5t13.5 -41.5q0 -22 -8.5 -45.5t-25 -45
t-39.5 -38t-53 -24.5z" />
    <glyph glyph-name="f_f_i.ss01" horiz-adv-x="689" 
d="M259 0l145 631q11 48 43 73.5t83 25.5q17 0 31.5 -2t24.5 -7l-13 -56q-4 2 -15 3.5t-21 1.5q-30 0 -46 -14t-22 -39l-142 -617h-68zM22 0l145 631q11 48 43 73.5t83 25.5q17 0 31.5 -2t24.5 -7l-13 -56q-4 2 -15 3.5t-21 1.5q-30 0 -46 -14t-22 -39l-142 -617h-68z
M58 452l13 58h572l-13 -58h-572zM497 0l118 510h68l-118 -510h-68zM675 604q-20 0 -32 13t-12 32q0 26 17 41t39 15q20 0 32 -12t12 -31q0 -25 -17 -41.5t-39 -16.5z" />
    <glyph glyph-name="f_i.ss01" horiz-adv-x="459" 
d="M21 0l145 631q11 48 43 73.5t83 25.5q17 0 31.5 -2t24.5 -7l-13 -56q-4 2 -15 3.5t-21 1.5q-30 0 -46 -14t-22 -39l-142 -617h-68zM259 0l118 510h68l-118 -510h-68zM437 604q-20 0 -32 13t-12 32q0 26 17 41t39 15q20 0 32 -12t12 -31q0 -25 -17 -41.5t-39 -16.5z
M58 452l13 58h334l-13 -58h-334z" />
    <glyph glyph-name="two.ss10" horiz-adv-x="404" 
d="M-10 0l19 81q13 56 39 100.5t60 80t70.5 66t71.5 59t63.5 57.5t45 62t16.5 74q0 44 -20 66t-58 22q-49 0 -84.5 -36.5t-51.5 -110.5h-66q21 101 76.5 154t132.5 53q44 0 75.5 -17.5t48.5 -50t17 -78.5q0 -49 -18.5 -88.5t-49 -72.5t-68 -63.5t-76.5 -61.5t-74 -66
t-60.5 -78t-36.5 -98l-10 6h279l-14 -60h-327z" />
    <glyph glyph-name="zero.tf" horiz-adv-x="500" 
d="M206 -10q-40 0 -71.5 23.5t-49.5 69.5t-18 115q0 42 7 97t22 115t37.5 116.5t53 102.5t69.5 73.5t86 27.5q41 0 72.5 -23t49.5 -69t18 -116q0 -42 -7.5 -97.5t-22 -115.5t-37.5 -116.5t-53.5 -102.5t-69.5 -73t-86 -27zM213 52q32 0 59.5 26.5t49 70t38 97t28 108t17 103
t5.5 81.5q0 63 -20 96.5t-56 33.5q-33 0 -60.5 -26.5t-49 -70t-37.5 -97t-26.5 -108t-16 -102.5t-5.5 -81q0 -64 19.5 -97.5t54.5 -33.5z" />
    <glyph glyph-name="one.tf" horiz-adv-x="500" 
d="M191 27l142 621l10 -17q-21 -19 -51 -36t-66.5 -27.5t-79.5 -13.5l16 71q48 3 86 15.5t67 33t50 46.5h52l-158 -695zM19 0l14 60h390l-14 -60h-390z" />
    <glyph glyph-name="two.tf" horiz-adv-x="500" 
d="M38 0l14 59q81 86 147.5 160.5t114 138.5t73.5 119t26 103q0 42 -20.5 65t-58.5 23q-47 0 -77.5 -36t-46.5 -111h-66q21 104 72.5 156.5t124.5 52.5q65 0 103.5 -38t38.5 -101q0 -53 -30 -118t-82 -136.5t-117.5 -145.5t-137.5 -146l-17 15h280l-14 -60h-327z" />
    <glyph glyph-name="three.tf" horiz-adv-x="500" 
d="M210 -9q-52 0 -85 22t-49 57t-18 74t7 73h67q-6 -23 -6 -51.5t8 -54t27 -42t53 -16.5q36 0 61 19.5t39.5 49t21 61.5t6.5 57q0 47 -20.5 77t-64.5 30h-52l14 60h52q48 0 79.5 24.5t47 62.5t15.5 78q0 48 -21 71t-58 23q-43 0 -77 -35.5t-49 -109.5h-66q22 106 74 156.5
t125 50.5q44 0 76 -17.5t49.5 -51t17.5 -81.5q0 -42 -13.5 -81.5t-40 -70t-63 -46.5t-83.5 -12l-1 21q60 -7 95 -48.5t35 -107.5q0 -35 -11 -76.5t-35 -79.5t-62.5 -62t-94.5 -24z" />
    <glyph glyph-name="four.tf" horiz-adv-x="500" 
d="M231 0l42 180l4 20l87 378l12 -1l-263 -383l-15 26h331l-14 -60h-376l11 50l351 510h64l-166 -720h-68z" />
    <glyph glyph-name="five.tf" horiz-adv-x="500" 
d="M205 -10q-51 0 -82.5 22t-46.5 56t-16.5 71.5t6.5 67.5h67q-9 -39 -4 -74.5t25 -57.5t56 -22q33 0 57.5 18t41.5 47t27.5 62.5t15 65.5t4.5 54q0 56 -24 81t-65 25q-36 0 -60.5 -16.5t-37.5 -41.5h-46l99 372h284l-14 -60h-233l17 18l-69 -257h-16q14 18 37.5 30.5
t59.5 12.5q41 0 72.5 -18.5t49.5 -55.5t18 -92q0 -33 -7.5 -74t-24 -82t-42.5 -75.5t-63 -55.5t-86 -21z" />
    <glyph glyph-name="six.tf" horiz-adv-x="500" 
d="M224 -10q-44 0 -77.5 21.5t-51.5 65t-18 108.5q0 37 6.5 91t21 115.5t37.5 121t55.5 109t75 79t96.5 29.5q41 0 67 -17.5t39.5 -45.5t16 -61t-3.5 -65h-67q7 28 4.5 57.5t-18 49.5t-49.5 20q-36 0 -71 -32.5t-64.5 -99t-52.5 -170.5l-7 -32h-7q15 35 36 59.5t48 37.5
t59 13q42 0 72 -20.5t46 -57.5t16 -88q0 -42 -12 -92t-37.5 -94.5t-65 -73t-94.5 -28.5zM226 52q38 0 64 25t41.5 62.5t22.5 76t7 64.5q0 34 -10 57t-28 35t-43 12q-39 0 -65.5 -24t-42.5 -59.5t-22.5 -72.5t-6.5 -63q0 -54 23 -83.5t60 -29.5z" />
    <glyph glyph-name="seven.tf" horiz-adv-x="500" 
d="M113 0q33 114 79 228t112 229.5t159 231.5l20 -29h-314l14 60h350l-11 -48q-130 -174 -208.5 -339.5t-125.5 -332.5h-75z" />
    <glyph glyph-name="eight.tf" horiz-adv-x="500" 
d="M213 -10q-48 0 -83.5 20.5t-55 58t-19.5 87.5q0 44 14.5 86.5t41 77t63 55t80.5 20.5l-4 -25q-32 0 -55 20t-35 52.5t-12 69.5q0 34 11 72t33.5 71t58.5 54t86 21q46 0 79 -18.5t51 -52t18 -78.5q0 -32 -10.5 -69.5t-32.5 -71t-56.5 -55t-82.5 -21.5l5 21q34 0 58.5 -20
t37.5 -54.5t13 -76.5q0 -38 -11.5 -80.5t-36.5 -79.5t-63.5 -60.5t-92.5 -23.5zM216 52q35 0 60 19.5t40 49t22 62t7 58.5q0 33 -10 57t-28.5 37.5t-45.5 13.5q-35 0 -60.5 -20t-41.5 -50.5t-24 -63.5t-8 -60q0 -37 12.5 -59.5t33 -33t43.5 -10.5zM297 407q30 0 52 16.5
t37 42.5t22 55t7 53q0 44 -21.5 69t-58.5 25q-32 0 -54.5 -17t-36 -43t-20 -54t-6.5 -50q0 -43 21.5 -70t57.5 -27z" />
    <glyph glyph-name="nine.tf" horiz-adv-x="500" 
d="M186 -10q-43 0 -70 17.5t-40.5 47.5t-14.5 67.5t9 76.5h67q-11 -38 -10.5 -71.5t17.5 -54.5t53 -21q38 0 70 33t59.5 102t50.5 177l7 32h7q-14 -35 -35.5 -59.5t-48.5 -37.5t-59 -13q-31 0 -55.5 11.5t-41.5 33t-26 51t-9 65.5q0 41 12 89.5t37 92.5t64.5 72.5t93.5 28.5
q45 0 78 -21t51 -63.5t18 -105.5q0 -35 -6 -89t-19 -116t-35 -123t-53.5 -111t-73.5 -80.5t-97 -30.5zM267 346q39 0 65.5 23.5t42.5 59t22.5 71.5t6.5 60q0 50 -22.5 79t-60.5 29q-37 0 -62.5 -25t-41 -62t-22.5 -74.5t-7 -61.5q0 -31 10 -53t27.5 -34t41.5 -12z" />
    <glyph glyph-name="two.tf.ss10" horiz-adv-x="500" 
d="M39 0l19 81q13 56 39 100.5t60 80t70.5 66t71.5 59t63.5 57.5t45 62t16.5 74q0 44 -20 66t-58 22q-49 0 -84.5 -36.5t-51.5 -110.5h-66q21 101 76.5 154t132.5 53q44 0 75.5 -17.5t48.5 -50t17 -78.5q0 -49 -18.5 -88.5t-49 -72.5t-68 -63.5t-76.5 -61.5t-74 -66
t-60.5 -78t-36.5 -98l-10 6h278l-14 -60h-326z" />
    <glyph glyph-name="colon.case" horiz-adv-x="213" 
d="M34 138l21 91h91l-21 -91h-91zM122 518l21 91h91l-21 -91h-91z" />
    <glyph glyph-name="semicolon.case" horiz-adv-x="214" 
d="M4 7l8 37q29 11 45.5 32.5t26.5 64.5l28 -3h-78l21 91h91l-20 -89q-13 -53 -41.5 -85.5t-80.5 -47.5zM122 518l21 91h91l-21 -91h-91z" />
    <glyph glyph-name="exclam.case" horiz-adv-x="233" 
d="M78 200l108 520h76l-132 -520h-52zM12 0l21 91h91l-21 -91h-91z" />
    <glyph glyph-name="exclamdown.case" horiz-adv-x="231" 
d="M18 0l132 520h52l-108 -520h-76zM268 720l-21 -91h-91l21 91h91z" />
    <glyph glyph-name="question.case" horiz-adv-x="394" 
d="M157 199q13 57 33 99.5t44 75.5t47.5 60t43 51t31.5 49.5t12 55.5q0 36 -20 57t-58 21q-48 0 -77 -35t-43 -102h-68q13 65 40 109t66.5 67t89.5 23q45 0 76.5 -17t47.5 -47t16 -68q0 -39 -12.5 -69.5t-33.5 -56.5t-46 -52.5t-50 -57t-46 -70.5t-33 -93h-60zM96 0l21 91
h91l-21 -91h-91z" />
    <glyph glyph-name="questiondown.case" horiz-adv-x="393" 
d="M144 -9q-45 0 -76.5 17t-47.5 47t-16 68q0 39 12.5 69.5t33.5 56.5t46 52.5t50 57t46 70.5t33 93h60q-13 -57 -33 -99.5t-44 -75.5t-47.5 -60t-43 -51t-31.5 -49t-12 -56q0 -36 20 -57t58 -21q48 0 77.5 35t42.5 102h68q-12 -64 -39.5 -108.5t-67 -67.5t-89.5 -23z
M346 720l-21 -91h-91l21 91h91z" />
    <glyph glyph-name="bullet.case" horiz-adv-x="532" 
d="M44 180l95 410h409l-94 -410h-410z" />
    <glyph glyph-name="periodcentered.loclCAT" horiz-adv-x="105" 
d="M73 318q-20 0 -33 13t-13 34q0 17 8.5 30t22 20.5t27.5 7.5q20 0 33 -13.5t13 -35.5q0 -25 -17.5 -40.5t-40.5 -15.5z" />
    <glyph glyph-name="period.ss01" horiz-adv-x="213" 
d="M51 -9q-20 0 -33 13t-13 34q0 17 8.5 30t22 20.5t27.5 7.5q20 0 33 -13.5t13 -35.5q0 -25 -17.5 -40.5t-40.5 -15.5z" />
    <glyph glyph-name="comma.ss01" horiz-adv-x="213" 
d="M-24 -131l8 37q26 8 45 30.5t29 65.5h22q-7 -4 -14 -6.5t-15 -2.5q-19 0 -32 11.5t-13 33.5q0 15 6.5 28t19 21.5t29.5 8.5q18 0 31.5 -12t13.5 -43q0 -32 -16 -69t-45 -66t-69 -37z" />
    <glyph glyph-name="colon.ss01" horiz-adv-x="213" 
d="M51 -9q-20 0 -33 13t-13 34q0 17 8.5 30t22 20.5t27.5 7.5q20 0 33 -13.5t13 -35.5q0 -25 -17.5 -40.5t-40.5 -15.5zM139 371q-20 0 -33 13t-13 34q0 17 8.5 30t22 20.5t27.5 7.5q20 0 33 -13.5t13 -35.5q0 -25 -17.5 -40.5t-40.5 -15.5z" />
    <glyph glyph-name="semicolon.ss01" horiz-adv-x="220" 
d="M-17 -131l8 37q26 8 45 30.5t29 65.5h22q-7 -4 -14 -6.5t-15 -2.5q-19 0 -32 11.5t-13 33.5q0 15 6.5 28t19 21.5t29.5 8.5q18 0 31.5 -12t13.5 -43q0 -32 -16 -69t-45 -66t-69 -37zM139 371q-20 0 -33 13t-13 34q0 17 8.5 30t22 20.5t27.5 7.5q20 0 33 -13.5t13 -35.5
q0 -25 -17.5 -40.5t-40.5 -15.5z" />
    <glyph glyph-name="ellipsis.ss01" horiz-adv-x="533" 
d="M51 -9q-20 0 -33 13t-13 34q0 17 8.5 30t22 20.5t27.5 7.5q20 0 33 -13.5t13 -35.5q0 -25 -17.5 -40.5t-40.5 -15.5zM211 -9q-20 0 -33 13t-13 34q0 17 8.5 30t22 20.5t27.5 7.5q20 0 33 -13.5t13 -35.5q0 -25 -17.5 -40.5t-40.5 -15.5zM371 -9q-20 0 -33 13t-13 34
q0 17 8.5 30t22 20.5t27.5 7.5q20 0 33 -13.5t13 -35.5q0 -25 -17.5 -40.5t-40.5 -15.5z" />
    <glyph glyph-name="exclam.ss01" horiz-adv-x="233" 
d="M77 200l113 540h76l-137 -540h-52zM61 -9q-20 0 -33 13t-13 34q0 17 8.5 30t22 20.5t27.5 7.5q20 0 33 -13.5t13 -35.5q0 -25 -17.5 -40.5t-40.5 -15.5z" />
    <glyph glyph-name="exclamdown.ss01" horiz-adv-x="245" 
d="M-21 -205l131 516h52l-107 -516h-76zM178 520q20 0 33 -13t13 -34q0 -17 -8.5 -30t-21.5 -20.5t-28 -7.5q-19 0 -32.5 13.5t-13.5 35.5q0 26 18 41t40 15z" />
    <glyph glyph-name="question.ss01" horiz-adv-x="394" 
d="M157 199q14 64 35.5 110.5t45.5 81t47.5 61.5t43 51t31 49.5t11.5 57.5q0 39 -19 59t-55 20q-46 0 -78 -35t-46 -103h-66q12 64 39.5 108t68 67.5t91.5 23.5q43 0 73 -15.5t46.5 -45.5t16.5 -72q0 -39 -12.5 -69t-33.5 -56.5t-46 -54t-50.5 -60.5t-47 -76.5t-35.5 -101.5
h-60zM145 -9q-20 0 -33 13t-13 34q0 17 8.5 30t22 20.5t27.5 7.5q20 0 33 -13.5t13 -35.5q0 -25 -17.5 -40.5t-40.5 -15.5z" />
    <glyph glyph-name="questiondown.ss01" horiz-adv-x="392" 
d="M92 -215q-42 0 -72.5 15.5t-47.5 44t-17 67.5q0 40 12.5 71t33.5 57.5t46.5 53t51 57t47.5 69.5t35 91h60q-14 -58 -35.5 -100.5t-45.5 -74t-48 -57.5t-43.5 -49.5t-31 -50t-11.5 -60.5t19.5 -53.5t55.5 -19.5q47 0 78.5 35.5t45.5 102.5h66q-12 -63 -39.5 -107.5
t-67.5 -68t-92 -23.5zM249 520q20 0 33 -13t13 -34q0 -17 -8.5 -30t-21.5 -20.5t-28 -7.5q-19 0 -32.5 13.5t-13.5 35.5q0 26 18 41t40 15z" />
    <glyph glyph-name="periodcentered.ss01" horiz-adv-x="105" 
d="M73 318q-20 0 -33 13t-13 34q0 17 8.5 30t22 20.5t27.5 7.5q20 0 33 -13.5t13 -35.5q0 -25 -17.5 -40.5t-40.5 -15.5z" />
    <glyph glyph-name="bullet.ss01" horiz-adv-x="279" 
d="M155 282q-31 0 -50 19.5t-19 50.5q0 26 12.5 45.5t32.5 30.5t42 11q29 0 49 -20.5t20 -52.5q0 -39 -27 -61.5t-60 -22.5z" />
    <glyph glyph-name="periodcentered.loclCAT.case" horiz-adv-x="91" 
d="M24 357l21 91h91l-21 -91h-91z" />
    <glyph glyph-name="bullet.case.ss01" horiz-adv-x="595" 
d="M298 140q-92 0 -149.5 58.5t-57.5 152.5q0 77 38 135.5t97.5 92t125.5 33.5q87 0 147 -61.5t60 -158.5q0 -115 -80 -183.5t-181 -68.5z" />
    <glyph glyph-name="periodcentered.loclCAT.case.ss01" horiz-adv-x="105" 
d="M80 348q-20 0 -33 13t-13 34q0 17 8.5 30t22 20.5t27.5 7.5q20 0 33 -13.5t13 -35.5q0 -25 -17.5 -40.5t-40.5 -15.5z" />
    <glyph glyph-name="hyphen.case" horiz-adv-x="364" 
d="M80 326l16 68h236l-16 -68h-236z" />
    <glyph glyph-name="endash.case" horiz-adv-x="444" 
d="M81 329l14 62h316l-14 -62h-316z" />
    <glyph glyph-name="emdash.case" horiz-adv-x="644" 
d="M81 329l14 62h516l-14 -62h-516z" />
    <glyph glyph-name="parenleft.case" horiz-adv-x="336" 
d="M170 -40q-44 73 -65.5 145t-21.5 146q0 92 30.5 182.5t90.5 173.5t146 153h59q-87 -75 -145.5 -160.5t-88.5 -176.5t-30 -183q0 -73 20.5 -143.5t62.5 -136.5h-58z" />
    <glyph glyph-name="parenright.case" horiz-adv-x="336" 
d="M214 760q44 -73 65.5 -145t21.5 -146q0 -92 -30.5 -182.5t-90 -173.5t-146.5 -153h-59q87 75 146 160.5t88.5 177t29.5 182.5q0 74 -20.5 144t-62.5 136h58z" />
    <glyph glyph-name="braceleft.case" horiz-adv-x="336" 
d="M127 -40q-36 0 -58.5 16.5t-27 45t10.5 63.5l70 161q23 51 14.5 69t-50.5 18h-38l12 54h38q41 0 56 16.5t18 70.5l9 176q3 56 37.5 83t89.5 27h94l-12 -54h-83q-27 0 -44 -16t-19 -45l-7 -153q-2 -41 -10.5 -68t-25 -42.5t-44.5 -22.5q34 -19 39.5 -53.5t-20.5 -91.5
l-62 -140q-12 -28 -1.5 -44t38.5 -16h79l-12 -54h-91z" />
    <glyph glyph-name="braceright.case" horiz-adv-x="336" 
d="M257 760q37 0 59 -16.5t27 -44.5t-11 -64l-70 -161q-22 -51 -14 -69t50 -18h38l-12 -54h-38q-41 0 -56 -16.5t-18 -70.5l-9 -176q-3 -55 -37.5 -82.5t-89.5 -27.5h-94l12 54h83q27 0 44.5 16.5t18.5 44.5l7 153q2 41 10.5 68t25.5 43t44 22q-34 20 -39 54t20 91l62 140
q12 28 1.5 44t-38.5 16h-79l12 54h91z" />
    <glyph glyph-name="bracketleft.case" horiz-adv-x="337" 
d="M13 -40l184 800h206l-12 -54h-142l-160 -692h142l-12 -54h-206z" />
    <glyph glyph-name="bracketright.case" horiz-adv-x="337" 
d="M372 760l-184 -800h-206l12 54h142l160 692h-142l12 54h206z" />
    <glyph glyph-name="quotesinglbase.ss01" horiz-adv-x="221" 
d="M-29 -110l8 37q26 5 50 24.5t35 70.5h22q-5 -4 -12.5 -6.5t-15.5 -2.5q-22 0 -34.5 13.5t-12.5 32.5q0 27 17 42t36 15q22 0 34.5 -11.5t12.5 -38.5q0 -28 -10 -57t-28.5 -55t-44 -43t-57.5 -21z" />
    <glyph glyph-name="quotedblbase.ss01" horiz-adv-x="371" 
d="M-29 -110l8 37q26 5 50 24.5t35 70.5h22q-5 -4 -12.5 -6.5t-15.5 -2.5q-22 0 -34.5 13.5t-12.5 32.5q0 27 17 42t36 15q22 0 34.5 -11.5t12.5 -38.5q0 -28 -10 -57t-28.5 -55t-44 -43t-57.5 -21zM121 -110l8 37q26 5 50 24.5t35 70.5h22q-5 -4 -12.5 -6.5t-15.5 -2.5
q-22 0 -34.5 13.5t-12.5 32.5q0 27 17 42t36 15q22 0 34.5 -11.5t12.5 -38.5q0 -28 -10 -57t-28.5 -55t-44 -43t-57.5 -21z" />
    <glyph glyph-name="quotedblleft.ss01" horiz-adv-x="370" 
d="M184 513q-22 0 -34.5 11.5t-12.5 38.5q0 28 10 57t28.5 55t44 43t57.5 21l-8 -37q-25 -4 -49.5 -24t-35.5 -71h-22q5 4 13 6.5t15 2.5q22 0 34.5 -13.5t12.5 -32.5q0 -27 -16.5 -42t-36.5 -15zM334 513q-22 0 -34.5 11.5t-12.5 38.5q0 28 10 57t28.5 55t44 43t57.5 21
l-8 -37q-25 -4 -49.5 -24t-35.5 -71h-22q5 4 13 6.5t15 2.5q22 0 34.5 -13.5t12.5 -32.5q0 -27 -16.5 -42t-36.5 -15z" />
    <glyph glyph-name="quotedblright.ss01" horiz-adv-x="371" 
d="M117 524l8 37q26 5 50 24.5t35 70.5h22q-5 -4 -12.5 -6.5t-15.5 -2.5q-22 0 -34.5 13.5t-12.5 32.5q0 27 17 42t36 15q22 0 34.5 -11.5t12.5 -38.5q0 -28 -10 -57t-28.5 -55t-44 -43t-57.5 -21zM267 524l8 37q26 5 50 24.5t35 70.5h22q-5 -4 -12.5 -6.5t-15.5 -2.5
q-22 0 -34.5 13.5t-12.5 32.5q0 27 17 42t36 15q22 0 34.5 -11.5t12.5 -38.5q0 -28 -10 -57t-28.5 -55t-44 -43t-57.5 -21z" />
    <glyph glyph-name="quoteleft.ss01" horiz-adv-x="220" 
d="M184 513q-22 0 -34.5 11.5t-12.5 38.5q0 28 10 57t28.5 55t44 43t57.5 21l-8 -37q-25 -4 -49.5 -24t-35.5 -71h-22q5 4 13 6.5t15 2.5q22 0 34.5 -13.5t12.5 -32.5q0 -27 -16.5 -42t-36.5 -15z" />
    <glyph glyph-name="quoteright.ss01" horiz-adv-x="213" 
d="M117 524l8 37q26 5 50 24.5t35 70.5h22q-5 -4 -12.5 -6.5t-15.5 -2.5q-22 0 -34.5 13.5t-12.5 32.5q0 27 17 42t36 15q22 0 34.5 -11.5t12.5 -38.5q0 -28 -10 -57t-28.5 -55t-44 -43t-57.5 -21z" />
    <glyph glyph-name="ampersand.ss11" horiz-adv-x="511" 
d="M170 0q-43 0 -75.5 21.5t-51 60t-18.5 88.5q0 48 17.5 90t49 73.5t72.5 49t89 17.5l-5 -21q-36 0 -63 17t-41.5 48.5t-14.5 73.5q0 61 27 109t74.5 75.5t107.5 27.5q30 0 59 -6.5t49 -17.5l-13 -57q-19 11 -45.5 17t-49.5 6q-40 0 -72 -20.5t-50.5 -56t-18.5 -80.5
q0 -33 10.5 -57.5t30.5 -38t46 -13.5h246l-14 -58h-261q-47 0 -82.5 -22.5t-55.5 -62t-20 -92.5t23 -83t63 -30h143l-13 -58h-143zM281 0l121 526h70l-121 -526h-70z" />
    <glyph glyph-name="cent.ss12" horiz-adv-x="384" 
d="M154 -10q-39 0 -67 19.5t-43 59.5t-15 101q0 53 11 104.5t32 95.5t49 78t62.5 53t72.5 19q41 0 66.5 -19t38 -49.5t14 -64.5t-7.5 -64h-60q7 32 6 65t-15 55.5t-47 22.5q-27 0 -50.5 -17t-43.5 -46.5t-34 -67.5t-22 -81t-8 -86q0 -64 18.5 -94t49.5 -30q38 0 69 36.5
t45 106.5h60q-20 -91 -65.5 -144t-115.5 -53zM88 -109l29 125l7 17l102 444l2 20l27 119h56l-27 -118l-7 -18l-104 -449l-1 -16l-28 -124h-56z" />
    <glyph glyph-name="dollar.ss12" horiz-adv-x="404" 
d="M179 -9q-54 0 -89 21t-52 56t-19.5 77t7.5 85h63q-7 -28 -7.5 -59.5t8.5 -59.5t31 -45.5t59 -17.5q50 0 83.5 38t33.5 104q0 33 -12 59.5t-34 52.5l-72 87q-25 31 -42 68t-17 91q0 50 22 91.5t63 66t97 24.5q48 0 78.5 -19t44.5 -51t15 -70t-9 -76h-63q10 40 7.5 76.5
t-22 59.5t-60.5 23q-35 0 -59 -16t-36.5 -43t-12.5 -61q0 -37 13.5 -63.5t36.5 -54.5l69 -83q29 -34 43.5 -73t14.5 -86q0 -64 -23 -109t-64.5 -69t-95.5 -24zM101 -109l29 125l7 17l152 658l1 20l28 119h56l-28 -118l-7 -18l-153 -663l-1 -16l-28 -124h-56z" />
    <glyph glyph-name="plus.tf" horiz-adv-x="500" 
d="M194 153l101 437h65l-101 -437h-65zM80 342l13 58h380l-13 -58h-380z" />
    <glyph glyph-name="minus.tf" horiz-adv-x="500" 
d="M80 342l13 58h380l-13 -58h-380z" />
    <glyph glyph-name="multiply.tf" horiz-adv-x="500" 
d="M387 179l-264 350l44 35l264 -350zM99 179l-36 45l391 340l36 -45z" />
    <glyph glyph-name="divide.tf" horiz-adv-x="500" 
d="M80 342l13 58h380l-13 -58h-380zM309 485q-20 0 -33.5 13t-13.5 33q0 26 18.5 42.5t41.5 16.5q19 0 32.5 -13.5t13.5 -33.5q0 -28 -18.5 -43t-40.5 -15zM233 153q-20 0 -33.5 13t-13.5 33q0 26 18.5 42.5t41.5 16.5q19 0 32.5 -13.5t13.5 -33.5q0 -28 -18.5 -43
t-40.5 -15z" />
    <glyph glyph-name="equal.tf" horiz-adv-x="500" 
d="M104 442l13 58h379l-13 -58h-379zM58 242l13 58h379l-13 -58h-379z" />
    <glyph glyph-name="greater.tf" horiz-adv-x="500" 
d="M38 182l15 66l395 139l-5 -25l-333 130l13 58l376 -150l-13 -58z" />
    <glyph glyph-name="less.tf" horiz-adv-x="500" 
d="M488 560l-15 -66l-395 -139l5 25l333 -130l-13 -58l-376 150l13 58z" />
    <glyph glyph-name="percent.tf" horiz-adv-x="500" 
d="M10 0l475 720h55l-476 -720h-54zM314 -8q-34 0 -55.5 28.5t-21.5 80.5q0 29 8 66t24.5 72t41 58t58.5 23t56 -28t22 -79q0 -29 -8 -67t-24.5 -73t-41.5 -58t-59 -23zM321 45q18 0 31.5 18.5t23 46.5t14 56.5t4.5 47.5q0 23 -8.5 37.5t-22.5 14.5q-18 0 -31.5 -18
t-23 -44.5t-14 -55t-4.5 -49.5q0 -24 8.5 -39t22.5 -15zM179 402q-34 0 -55.5 28.5t-21.5 80.5q0 29 8 66t24.5 72t41 58t58.5 23t56 -28t22 -79q0 -29 -8 -67t-24.5 -73t-41.5 -58t-59 -23zM186 455q18 0 31.5 18.5t23 46.5t14 56.5t4.5 47.5q0 23 -8.5 37.5t-22.5 14.5
q-18 0 -31.5 -18t-23 -44.5t-14 -55t-4.5 -49.5q0 -24 8.5 -39t22.5 -15z" />
    <glyph glyph-name="perthousand.tf" horiz-adv-x="500" 
d="M74 282l-7 46l416 151l8 -47zM180 -10q-26 0 -42.5 21t-16.5 65q0 25 7 64t21.5 78.5t38 66t56.5 26.5q26 0 36.5 -20.5t10.5 -65.5q0 -25 -5 -64.5t-17.5 -78.5t-34 -65.5t-54.5 -26.5zM185 36q13 0 24 16.5t19.5 42.5t14.5 54t9 51.5t3 34.5q0 14 -4 22t-12 8
q-13 0 -24 -17t-20 -43t-15 -54.5t-9 -51.5t-3 -33q0 -13 4 -21.5t13 -8.5zM287 -10q-26 0 -36.5 21t-10.5 65q0 20 3 49.5t10.5 62t20.5 60.5t32 45.5t45 17.5t42.5 -20.5t16.5 -65.5q0 -25 -7 -64.5t-22 -78.5t-38 -65.5t-56 -26.5zM292 36q13 0 24 16.5t19.5 42.5
t14.5 54t9 51.5t3 34.5q0 14 -4 22t-12 8q-13 0 -24 -17t-20 -43t-15 -54.5t-9 -51.5t-3 -33q0 -13 4 -21.5t13 -8.5zM202 409q-26 0 -42.5 21t-16.5 65q0 25 7 64t21.5 78.5t38 66t56.5 26.5q26 0 42.5 -20.5t16.5 -65.5q0 -25 -7 -64.5t-22 -78.5t-38 -65.5t-56 -26.5z
M207 455q13 0 24 16.5t19.5 42.5t14.5 54t9 51.5t3 34.5q0 14 -4 22t-12 8q-13 0 -24 -17t-20 -43t-15 -54.5t-9 -51.5t-3 -33q0 -13 4 -21.5t13 -8.5z" />
    <glyph glyph-name="uni030C.alt" horiz-adv-x="0" 
d="M157 503h-40l50 217h66z" />
    <glyph glyph-name="uni0308.ss01" horiz-adv-x="0" 
d="M197 604q-19 0 -31.5 13t-12.5 33q0 23 16.5 39t39.5 16q20 0 32 -11.5t12 -31.5q0 -24 -16.5 -41t-39.5 -17zM385 604q-19 0 -31.5 13t-12.5 33q0 23 16.5 39t39.5 16q20 0 32 -11.5t12 -31.5q0 -24 -16.5 -41t-39.5 -17z" />
    <glyph glyph-name="uni0307.ss01" horiz-adv-x="0" 
d="M196 604q-19 0 -31 13t-12 34q0 15 7.5 27t20 19.5t27.5 7.5q19 0 31 -11.5t12 -31.5q0 -16 -7.5 -29t-20 -21t-27.5 -8z" />
    <glyph glyph-name="uni0312.ss01" horiz-adv-x="0" 
d="M196 576q-19 0 -32.5 13t-13.5 41q0 22 8.5 45.5t25 45t40 38t53.5 24.5l-8 -37q-26 -12 -44.5 -29.5t-25.5 -46.5h-22q14 9 29 9q18 0 31 -12.5t13 -34.5q0 -25 -15.5 -40.5t-38.5 -15.5z" />
    <glyph glyph-name="uni0326.ss01" horiz-adv-x="0" 
d="M-52 -273l8 37q26 12 44 30t25 46h23q-13 -9 -29 -9q-18 0 -31 12.5t-13 34.5q0 25 16 40.5t38 15.5q18 0 31.5 -12.5t13.5 -41.5q0 -22 -8.5 -45.5t-25 -45t-39.5 -38t-53 -24.5z" />
    <glyph glyph-name="dieresis.ss01" horiz-adv-x="409" 
d="M197 604q-19 0 -31.5 13t-12.5 33q0 23 16.5 39t39.5 16q20 0 32 -11.5t12 -31.5q0 -24 -16.5 -41t-39.5 -17zM385 604q-19 0 -31.5 13t-12.5 33q0 23 16.5 39t39.5 16q20 0 32 -11.5t12 -31.5q0 -24 -16.5 -41t-39.5 -17z" />
    <glyph glyph-name="dotaccent.ss01" horiz-adv-x="219" 
d="M196 604q-19 0 -31 13t-12 34q0 15 7.5 27t20 19.5t27.5 7.5q19 0 31 -11.5t12 -31.5q0 -16 -7.5 -29t-20 -21t-27.5 -8z" />
    </font>
</defs>
</svg>
