<?xml version="1.0" standalone="no"?>
<!DOCTYPE svg PUBLIC "-//W3C//DTD SVG 1.1//EN" "http://www.w3.org/Graphics/SVG/1.1/DTD/svg11.dtd" >
<svg xmlns="http://www.w3.org/2000/svg" xmlns:xlink="http://www.w3.org/1999/xlink" version="1.1">
<metadata>
Created by FontForge 20201107 at Wed Apr 12 12:05:17 2023
 By 
Copyright 2022 The Instrument Sans Project Authors (https://github.com/Instrument/instrument-sans)
</metadata>
<defs>
<font id="InstrumentSansCondensed-SemiBoldItalic" horiz-adv-x="500" >
  <font-face 
    font-family="Instrument Sans Condensed SemiBold"
    font-weight="600"
    font-style="italic"
    font-stretch="condensed"
    units-per-em="1000"
    panose-1="0 0 0 0 0 0 0 0 0 0"
    ascent="800"
    descent="-200"
    x-height="510"
    cap-height="720"
    bbox="-125 -317 1687 986"
    underline-thickness="38"
    underline-position="-199"
    slope="-13"
    unicode-range="U+0020-2212"
  />
<missing-glyph horiz-adv-x="509" 
d="M-1 0l165 720h395l-165 -720h-395zM138 94h159l122 532h-159z" />
    <glyph glyph-name="f_f_i" unicode="ffi" horiz-adv-x="718" 
d="M13 0l139 605q15 61 53 93t100 32q13 0 30 -2.5t31 -8.5l-21 -88q-4 2 -12 3t-15 1q-25 0 -37 -11.5t-18 -35.5l-135 -588h-115zM252 0l139 605q15 61 53 93t100 32q13 0 30 -2.5t31 -8.5l-21 -88q-4 2 -12 3t-15 1q-25 0 -37 -11.5t-18 -35.5l-135 -588h-115zM490 0
l118 510h115l-118 -510h-115zM49 419l21 91h579l-21 -91h-579zM628 596l29 124h121l-28 -124h-122z" />
    <glyph glyph-name="f_f_l" unicode="ffl" horiz-adv-x="715" 
d="M252 0l138 595q15 61 53 93t100 32h140l-20 -94h-107q-25 0 -37 -12t-18 -36l-134 -578h-115zM13 0l137 595q15 61 53 93t100 32q13 0 30 -2.5t31 -8.5l-21 -88q-4 2 -12 3t-15 1q-25 0 -37 -11.5t-18 -35.5l-133 -578h-115zM49 419l21 91h479l-21 -91h-479zM490 0
l166 720h115l-166 -720h-115z" />
    <glyph glyph-name="f_i" unicode="fi" horiz-adv-x="456" 
d="M12 0l139 605q15 61 53 93t100 32q13 0 30 -2.5t31 -8.5l-21 -88q-4 2 -12 3t-15 1q-25 0 -37 -11.5t-18 -35.5l-135 -588h-115zM250 0l118 510h115l-118 -510h-115zM49 419l21 91h339l-21 -91h-339zM388 596l29 124h121l-28 -124h-122z" />
    <glyph glyph-name="f_l" unicode="fl" horiz-adv-x="475" 
d="M12 0l138 595q15 61 53 93t100 32h140l-20 -94h-107q-25 0 -37 -12t-18 -36l-134 -578h-115zM49 419l21 91h239l-21 -91h-239zM250 0l166 720h115l-166 -720h-115z" />
    <glyph glyph-name="w_w_w.liga" unicode="www" horiz-adv-x="1654" 
d="M80 0l5 510h113l-22 -383h-15l166 383h111l-11 -383h-14l165 383h111l-10 -383h-15l166 383h111l-11 -383h-14l166 383h111l-11 -383h-14l165 383h111l-10 -383h-15l154 383h114l-232 -510h-115l12 377h12l-160 -377h-116l12 377h12l-160 -377h-115l12 377h12l-161 -377
h-115l12 377h12l-160 -377h-116l12 377h12l-161 -377h-116z" />
    <glyph glyph-name="hyphen_greater.liga" unicode="&#x2d;&#x3e;" horiz-adv-x="662" 
d="M128 393h487l-43 -42l-321 322h137l328 -330l-328 -330h-137l321 322l43 -42h-487v100z" />
    <glyph glyph-name="less_hyphen.liga" unicode="&#x3c;&#x2d;" horiz-adv-x="650" 
d="M676 327h-487l43 42l321 -322h-137l-328 330l328 330h137l-321 -322l-43 42h487v-100z" />
    <glyph glyph-name=".notdef" horiz-adv-x="509" 
d="M-1 0l165 720h395l-165 -720h-395zM138 94h159l122 532h-159z" />
    <glyph glyph-name=".null" horiz-adv-x="0" 
 />
    <glyph glyph-name="nonmarkingreturn" horiz-adv-x="333" 
 />
    <glyph glyph-name="space" unicode=" " horiz-adv-x="143" 
 />
    <glyph glyph-name="exclam" unicode="!" horiz-adv-x="249" 
d="M74 236l98 504h129l-135 -504h-92zM-2 0l31 136h135l-31 -136h-135z" />
    <glyph glyph-name="quotedbl" unicode="&#x22;" horiz-adv-x="391" 
d="M136 463l-1 121q0 24 0.5 41t1.5 35q1 21 9 42t24 34.5t42 13.5q20 0 32.5 -8.5t17.5 -21t5 -27.5q0 -12 -6 -30t-16 -41t-22 -49l-54 -110h-33zM319 463l-1 121q0 24 0.5 41t1.5 35q1 21 9 42t24 34.5t42 13.5q20 0 32.5 -8.5t17.5 -21t5 -27.5q0 -12 -6 -30t-16 -41
t-22 -49l-54 -110h-33z" />
    <glyph glyph-name="numbersign" unicode="#" horiz-adv-x="484" 
d="M-18 0l266 720h105l-266 -720h-105zM178 0l266 720h105l-266 -720h-105zM99 509h429l-22 -94h-429zM29 315h428l-21 -94h-429z" />
    <glyph glyph-name="dollar" unicode="$" horiz-adv-x="437" 
d="M275 696l31 134h94l-31 -134h-94zM226 20l-30 -129h-93l30 129h93zM188 -10q-56 0 -94 20.5t-58 55t-23.5 77.5t8.5 87h109q-6 -21 -7 -46.5t5.5 -48t23.5 -37t47 -14.5q38 0 60 29.5t22 74.5q0 26 -8 50.5t-31 48.5l-62 71q-31 35 -49.5 75.5t-18.5 86.5
q0 56 23.5 103.5t68.5 76.5t111 29q52 0 85.5 -19t50.5 -50t19 -69t-8 -77h-107q7 26 7 54t-13 47.5t-46 19.5q-26 0 -43.5 -14.5t-25.5 -36.5t-8 -44q0 -27 10 -49.5t32 -46.5l61 -70q33 -38 49.5 -81t16.5 -95q0 -56 -23.5 -103.5t-69.5 -76t-114 -28.5z" />
    <glyph glyph-name="percent" unicode="%" horiz-adv-x="621" 
d="M-12 0l610 720h87l-610 -720h-87zM418 -10q-30 0 -54.5 14.5t-38.5 42.5t-14 69q0 31 9 69t27.5 73t48 58t71.5 23q46 0 76.5 -31.5t30.5 -93.5q0 -30 -8.5 -68t-27 -74t-48.5 -59t-72 -23zM424 63q21 0 36 16t24.5 39t14 47t4.5 41q0 29 -12 44.5t-31 15.5
q-21 0 -36 -16t-24 -39t-13.5 -46.5t-4.5 -40.5q0 -29 11.5 -45t30.5 -16zM203 381q-31 0 -55.5 14.5t-38.5 42.5t-14 69q0 31 9 69t27.5 73t48 58t71.5 23q46 0 76.5 -31.5t30.5 -93.5q0 -30 -8.5 -68t-27 -74t-48.5 -59t-71 -23zM208 454q21 0 36.5 16t24.5 39t13.5 47
t4.5 41q0 29 -11.5 44.5t-31.5 15.5q-21 0 -36 -16t-24 -39t-13.5 -46.5t-4.5 -40.5q0 -29 11.5 -45t30.5 -16z" />
    <glyph glyph-name="ampersand" unicode="&#x26;" horiz-adv-x="580" 
d="M389 0l-194 434q-15 36 -22.5 66t-7.5 54q0 49 24 89t65.5 63.5t95.5 23.5q42 0 78.5 -16t59 -46.5t22.5 -76.5q0 -51 -29.5 -92.5t-79 -73t-112.5 -54.5l-17 80q44 18 73.5 38t45.5 43.5t16 49.5q0 28 -16.5 43.5t-45.5 15.5q-34 0 -54 -23t-20 -61q0 -19 5 -39t16 -44
l222 -474h-125zM218 -10q-43 0 -80.5 12t-66.5 35t-45.5 56t-16.5 76q0 65 32 116t86 89t118 62l35 -75q-50 -19 -86 -45t-55 -59.5t-19 -75.5q0 -34 14.5 -56.5t40 -33.5t59.5 -11q40 0 76 21t66.5 61t54.5 97t41 129h102q-20 -91 -55 -164t-81.5 -125.5t-102.5 -80.5
t-117 -28z" />
    <glyph glyph-name="quotesingle" unicode="'" horiz-adv-x="208" 
d="M136 463l-1 121q0 24 0.5 41t1.5 35q1 21 9 42t24 34.5t42 13.5q20 0 32.5 -8.5t17.5 -21t5 -27.5q0 -12 -6 -30t-16 -41t-22 -49l-54 -110h-33z" />
    <glyph glyph-name="parenleft" unicode="(" horiz-adv-x="363" 
d="M144 -110q-39 75 -58.5 151.5t-19.5 152.5q0 101 32 199.5t93 188.5t148 168h102q-88 -87 -148 -180.5t-90.5 -191t-30.5 -198.5q0 -76 18.5 -150.5t54.5 -139.5h-101z" />
    <glyph glyph-name="parenright" unicode=")" horiz-adv-x="363" 
d="M249 750q39 -75 58 -151t19 -153q0 -101 -31.5 -199.5t-92.5 -188.5t-148 -168h-102q88 87 147.5 180.5t90 191.5t30.5 198q0 76 -18 150.5t-55 139.5h102z" />
    <glyph glyph-name="asterisk" unicode="*" horiz-adv-x="398" 
d="M189 422l49 117l-103 -67l-30 93l117 22l-100 50l69 81l68 -88l3 110h97l-49 -117l104 67l30 -93l-118 -22l100 -50l-68 -81l-68 88l-3 -110h-98z" />
    <glyph glyph-name="plus" unicode="+" horiz-adv-x="544" 
d="M201 140l107 463h91l-107 -463h-91zM70 329l20 84h437l-19 -84h-438z" />
    <glyph glyph-name="comma" unicode="," horiz-adv-x="232" 
d="M-45 -150l14 59q43 12 62.5 36t29.5 65l43 -10h-114l31 136h135l-27 -119q-15 -66 -56 -107t-118 -60z" />
    <glyph glyph-name="hyphen" unicode="-" horiz-adv-x="357" 
d="M43 221l24 102h256l-24 -102h-256z" />
    <glyph glyph-name="period" unicode="." horiz-adv-x="232" 
d="M-10 0l31 136h135l-31 -136h-135z" />
    <glyph glyph-name="slash" unicode="/" horiz-adv-x="292" 
d="M-37 -73l306 836h102l-306 -836h-102z" />
    <glyph glyph-name="zero" unicode="0" horiz-adv-x="484" 
d="M200 -9q-45 0 -80.5 23.5t-56 71.5t-20.5 123q0 40 6.5 93.5t20.5 112t37 114t55 101t74.5 72.5t95.5 27q48 0 83.5 -24.5t55.5 -72t20 -119.5q0 -39 -7 -93t-21.5 -112.5t-37.5 -114.5t-55 -102t-74.5 -73t-95.5 -27zM208 86q26 0 49 25.5t41.5 68t33.5 93.5t25 103
t15.5 96t5.5 71q0 47 -14.5 69t-37.5 22q-26 0 -49 -26t-42.5 -69t-34 -95t-24.5 -103.5t-15 -95t-5 -69.5q0 -47 15 -68.5t37 -21.5z" />
    <glyph glyph-name="one" unicode="1" horiz-adv-x="330" 
d="M100 0l147 648l16 -45q-21 -28 -52 -49.5t-66 -34t-71 -15.5l27 118q40 4 75 17t65.5 33.5t54.5 47.5h84l-166 -720h-114z" />
    <glyph glyph-name="two" unicode="2" horiz-adv-x="419" 
d="M-22 0l19 80q76 76 139 148.5t109 138.5t71 119t25 91q0 28 -14 44t-42 16q-36 0 -59.5 -29.5t-38.5 -93.5h-106q22 109 79.5 162.5t137.5 53.5q48 0 83.5 -17.5t56 -50t20.5 -78.5q0 -51 -28 -115t-77 -135.5t-113.5 -144.5t-138.5 -143l-14 45h273l-20 -91h-362z" />
    <glyph glyph-name="three" unicode="3" horiz-adv-x="436" 
d="M183 -9q-54 0 -90 20t-57 53.5t-25.5 75.5t5.5 85h107q-4 -25 -4.5 -50t6 -45.5t20.5 -33t40 -12.5q29 0 48.5 16.5t30.5 41t16 51.5t5 48q0 43 -17.5 66t-54.5 23h-49l21 91h47q40 0 66 22t38.5 55.5t12.5 66.5q0 37 -15.5 54.5t-43.5 17.5q-34 0 -58 -29t-37 -94h-106
q20 107 76 161t137 54q50 0 86 -19.5t56.5 -54t20.5 -81.5q0 -40 -14.5 -79t-40 -70t-59 -47.5t-72.5 -12.5l3 20q54 -6 85 -48t31 -106q0 -36 -11.5 -78t-37 -78.5t-67 -60t-99.5 -23.5z" />
    <glyph glyph-name="four" unicode="4" horiz-adv-x="436" 
d="M184 0l42 180l12 20l87 378l38 -1l-255 -366l-13 20h322l-21 -91h-409l20 87l345 493h112l-166 -720h-114z" />
    <glyph glyph-name="five" unicode="5" horiz-adv-x="446" 
d="M183 -10q-49 0 -84 19t-55 51t-25.5 72.5t3.5 83.5h106q-7 -31 -3.5 -61.5t19 -50.5t45.5 -20q24 0 42.5 13t31.5 36t21.5 50t12.5 55.5t4 52.5q0 48 -15.5 70t-46.5 22q-24 0 -43.5 -13t-31.5 -39h-89l105 389h316l-21 -91h-260l63 49l-70 -257l-27 7q14 19 37 31t59 12
q46 0 77.5 -20.5t48.5 -59t17 -92.5q0 -34 -8 -75.5t-25 -82.5t-44.5 -75.5t-67 -55t-92.5 -20.5z" />
    <glyph glyph-name="six" unicode="6" horiz-adv-x="462" 
d="M204 -10q-50 0 -87 23t-57 70.5t-20 117.5q0 38 6.5 91.5t21.5 113t38.5 117t57.5 104.5t78.5 75t102.5 28q59 0 92 -30t44 -74.5t2 -91.5h-106q4 21 2 45t-14 41t-39 17q-28 0 -54 -26.5t-49 -86.5t-45 -160l-5 -26l-23 10q24 52 59.5 78t81.5 26q44 0 75.5 -20.5
t48.5 -58t17 -90.5q0 -44 -13 -94.5t-41 -95.5t-71 -74t-103 -29zM204 83q31 0 52 23t34 57t19 68t6 56q0 28 -8 46t-21 27t-32 9q-30 0 -51 -21.5t-34 -53.5t-19 -65.5t-6 -56.5q0 -44 17 -66.5t43 -22.5z" />
    <glyph glyph-name="seven" unicode="7" horiz-adv-x="407" 
d="M46 0q54 186 136 348.5t197 303.5l62 -23h-341l21 91h380l-20 -85q-72 -92 -130.5 -192t-104.5 -210.5t-82 -232.5h-118z" />
    <glyph glyph-name="eight" unicode="8" horiz-adv-x="450" 
d="M192 -10q-51 0 -92 21t-65 59.5t-24 90.5q0 39 13.5 80t39.5 76t62.5 56.5t83.5 21.5l2 -20q-34 0 -58 18t-37 48.5t-13 69.5t13 77.5t39.5 70.5t64.5 51.5t88 19.5q51 0 88 -20.5t57.5 -56.5t20.5 -84q0 -37 -13 -74t-37.5 -66.5t-58.5 -47.5t-77 -18l12 19
q34 0 58.5 -20.5t38 -55t13.5 -77.5q0 -42 -14.5 -84.5t-42.5 -77.5t-68.5 -56t-93.5 -21zM192 83q28 0 47.5 17.5t31.5 45t17.5 55.5t5.5 49q0 37 -16.5 59.5t-44.5 22.5t-48 -18.5t-32 -45.5t-18 -55.5t-6 -48.5q0 -41 18.5 -61t44.5 -20zM272 420q23 0 39.5 16t27.5 40.5
t16 49.5t5 43q0 32 -14.5 50t-38.5 18t-40.5 -16t-27 -39.5t-15 -48t-4.5 -42.5q0 -32 14.5 -51.5t37.5 -19.5z" />
    <glyph glyph-name="nine" unicode="9" horiz-adv-x="462" 
d="M169 -10q-60 0 -93.5 31t-43 80t2.5 105h106q-7 -31 -6.5 -59t13 -46t39.5 -18q29 0 53.5 27.5t47 90t45.5 166.5l5 26l23 -10q-16 -34 -37 -57t-47 -35t-57 -12q-43 0 -74.5 20.5t-49 57.5t-17.5 87q0 41 13.5 90.5t41 93.5t70.5 73t103 29q50 0 87 -23t57 -68t20 -113
q0 -37 -6.5 -90.5t-20.5 -114t-37.5 -119t-57 -106.5t-78 -77t-102.5 -29zM257 362q30 0 51 21.5t34 53.5t19 64.5t6 53.5q0 39 -17 60.5t-43 21.5q-31 0 -52 -22t-34 -54.5t-19 -65.5t-6 -55q0 -25 8 -42.5t21.5 -26.5t31.5 -9z" />
    <glyph glyph-name="colon" unicode=":" horiz-adv-x="232" 
d="M-10 0l31 136h135l-31 -136h-135zM71 351l31 136h135l-31 -136h-135z" />
    <glyph glyph-name="semicolon" unicode=";" horiz-adv-x="232" 
d="M-45 -150l14 59q43 12 62.5 36t29.5 65l43 -10h-114l31 136h135l-27 -119q-15 -66 -56 -107t-118 -60zM71 351l31 136h135l-31 -136h-135z" />
    <glyph glyph-name="less" unicode="&#x3c;" horiz-adv-x="544" 
d="M562 567l-22 -97l-370 -116l5 23l317 -114l-20 -84l-403 150l20 84z" />
    <glyph glyph-name="equal" unicode="=" horiz-adv-x="544" 
d="M94 429l20 84h437l-19 -84h-438zM48 229l20 84h437l-19 -84h-438z" />
    <glyph glyph-name="greater" unicode="&#x3e;" horiz-adv-x="544" 
d="M36 175l21 97l370 116l-5 -23l-317 114l20 84l403 -150l-20 -84z" />
    <glyph glyph-name="question" unicode="?" horiz-adv-x="411" 
d="M145 236q13 60 32.5 104t42.5 76.5t45 57t40 45.5t29 41.5t11 45.5q0 26 -12.5 38.5t-35.5 12.5q-30 0 -53.5 -25t-35.5 -81h-106q12 68 42.5 111.5t73 65.5t90.5 22q46 0 80 -17t53.5 -49t19.5 -77q0 -37 -12 -65t-31.5 -51.5t-43.5 -47t-47.5 -52t-43 -66t-31.5 -89.5
h-107zM80 0l31 136h135l-31 -136h-135z" />
    <glyph glyph-name="at" unicode="@" horiz-adv-x="768" 
d="M388 -10q-67 0 -128 18.5t-108 55t-74 91.5t-27 130q0 63 20.5 126.5t59 121t93 102t122.5 70t146 25.5q62 0 114 -17t90.5 -50t60 -79t21.5 -104q0 -56 -19.5 -114t-54.5 -106.5t-82.5 -78.5t-103.5 -30q-37 0 -61 14.5t-32 39.5t1 58l12 -23q-40 -46 -75.5 -67
t-65.5 -21q-36 0 -62.5 27t-26.5 75q0 33 13 75t35.5 84.5t53 78t66 58t72.5 22.5q36 0 53 -19t20 -45.5t-3 -51.5l-14 2l47 97h96l-133 -260q-12 -22 -12.5 -37t9 -23t27.5 -8q30 0 58 22t51 58t36.5 78t13.5 82q0 62 -29.5 103.5t-78 62.5t-108.5 21q-77 0 -141.5 -32
t-111 -85t-71.5 -117t-25 -128q0 -58 20 -100.5t55 -71.5t81.5 -43.5t100.5 -14.5q38 0 75 7t69 17l12 -66q-33 -15 -72.5 -22.5t-84.5 -7.5zM339 231q22 0 43 16.5t40 43t33.5 56t22.5 56.5t8 45q0 19 -9 31.5t-28 12.5q-28 0 -54 -24t-47 -60.5t-33.5 -72.5t-12.5 -60
q0 -21 10.5 -32.5t26.5 -11.5z" />
    <glyph glyph-name="A" unicode="A" horiz-adv-x="476" 
d="M-43 0l310 720h94l-289 -720h-115zM284 0l41 720h95l-19 -720h-117zM111 268h258l-21 -93h-258z" />
    <glyph glyph-name="B" unicode="B" horiz-adv-x="458" 
d="M90 0l21 90h76q33 0 58.5 19t40 52.5t14.5 75.5q0 46 -18.5 71t-53.5 25h-59l19 88h65q31 0 56 17.5t40 48t15 66.5q0 37 -17 57t-50 20h-63l21 90h78q67 0 107 -41.5t40 -110.5q0 -44 -16 -82t-44 -67t-62.5 -43t-71.5 -9l6 21q58 -7 92 -48t34 -107q0 -67 -31 -120
t-85 -83t-123 -30h-89zM-1 0l165 720h118l-165 -720h-118z" />
    <glyph glyph-name="C" unicode="C" horiz-adv-x="489" 
d="M210 -10q-55 0 -92.5 26t-56.5 76t-19 122q0 46 8 101.5t24.5 113.5t41.5 111.5t60 96.5t79 68t99 25q58 0 92 -27.5t50 -72t16.5 -94.5t-11.5 -94h-117q7 25 11 57.5t1.5 63.5t-16 51t-42.5 20q-34 0 -62 -31.5t-49 -82t-35.5 -109t-22 -114t-7.5 -95.5q0 -56 15 -85.5
t47 -29.5q38 0 69 47t54 144h117q-22 -97 -59 -161t-86 -95.5t-109 -31.5z" />
    <glyph glyph-name="D" unicode="D" horiz-adv-x="519" 
d="M65 0l24 95h90q45 0 85.5 31t71.5 83.5t49 121t18 143.5q0 53 -9.5 86.5t-31.5 49.5t-59 16h-83l6 94h97q62 0 106 -28.5t67.5 -83.5t23.5 -135q0 -96 -27.5 -181.5t-75 -151t-109.5 -103t-132 -37.5h-111zM-1 0l165 720h118l-165 -720h-118z" />
    <glyph glyph-name="E" unicode="E" horiz-adv-x="418" 
d="M-2 0l166 720h118l-166 -720h-118zM60 0l21 94h258l-22 -94h-257zM135 326l21 93h238l-21 -93h-238zM204 626l22 94h249l-21 -94h-250z" />
    <glyph glyph-name="F" unicode="F" horiz-adv-x="387" 
d="M-1 0l165 720h118l-165 -720h-118zM128 295l22 94h222l-23 -94h-221zM204 626l22 94h233l-22 -94h-233z" />
    <glyph glyph-name="G" unicode="G" horiz-adv-x="502" 
d="M224 -10q-63 0 -103 27t-59.5 79t-18.5 126q1 55 12.5 123t35.5 135.5t61 124t87.5 91t115.5 34.5q53 0 86 -24t50 -62.5t20 -84t-4 -87.5h-116q5 26 6.5 54.5t-3 52.5t-17.5 39.5t-39 15.5q-34 0 -61.5 -31.5t-48.5 -82t-35.5 -109t-22 -114t-7.5 -95.5q-1 -60 17 -88
t57 -28q24 0 42 7.5t32 25.5l109 -32q-41 -51 -91.5 -74t-104.5 -23zM302 82l56 243l24 -31h-117l21 94h204l-70 -301z" />
    <glyph glyph-name="H" unicode="H" horiz-adv-x="509" 
d="M-1 0l165 720h118l-165 -720h-118zM276 0l165 720h118l-165 -720h-118zM158 422h271l-22 -94h-271z" />
    <glyph glyph-name="I" unicode="I" horiz-adv-x="231" 
d="M-2 0l166 720h118l-166 -720h-118z" />
    <glyph glyph-name="J" unicode="J" horiz-adv-x="304" 
d="M30 -10q-29 0 -47.5 3.5t-29.5 9.5l21 92q9 -3 23.5 -6t30.5 -3q34 0 54 14.5t28 52.5l131 567h118l-135 -582q-18 -81 -66.5 -114.5t-127.5 -33.5z" />
    <glyph glyph-name="K" unicode="K" horiz-adv-x="491" 
d="M-2 0l166 720h118l-166 -720h-118zM176 367l254 353h135l-260 -346zM297 0l-105 374h113l114 -374h-122z" />
    <glyph glyph-name="L" unicode="L" horiz-adv-x="385" 
d="M-2 0l166 720h118l-166 -720h-118zM60 0l21 94h232l-22 -94h-231z" />
    <glyph glyph-name="M" unicode="M" horiz-adv-x="693" 
d="M-2 0l166 720h164l4 -676h-76l314 676h173l-166 -720h-115l143 622l15 -1l-288 -621h-96l-3 621l15 1l-143 -622h-107z" />
    <glyph glyph-name="N" unicode="N" horiz-adv-x="514" 
d="M-2 0l166 720h138l37 -613l-24 -2l141 615h109l-166 -720h-139l-38 613l26 2l-142 -615h-108z" />
    <glyph glyph-name="O" unicode="O" horiz-adv-x="524" 
d="M216 -9q-50 0 -88.5 27t-60 78.5t-21.5 124.5q0 103 24 194.5t66.5 162t98.5 111t120 40.5q53 0 92 -27.5t60.5 -81t19.5 -129.5q-1 -100 -26 -190t-68 -160t-98 -110t-119 -40zM229 87q34 0 66 38t58.5 101t42 140t15.5 154q0 36 -8 61.5t-23.5 38.5t-37.5 13
q-33 0 -65 -37.5t-58 -101t-41.5 -140t-15.5 -155.5q0 -35 8 -60t23 -38.5t36 -13.5z" />
    <glyph glyph-name="P" unicode="P" horiz-adv-x="457" 
d="M-2 0l166 720h163q51 0 87.5 -22.5t56.5 -63.5t20 -96q0 -53 -18 -99.5t-51.5 -82t-79.5 -56t-102 -20.5h-88l21 94h69q32 0 56 14.5t41 38.5t25.5 53t8.5 59q0 41 -18 64t-54 23h-41l-144 -626h-118z" />
    <glyph glyph-name="Q" unicode="Q" horiz-adv-x="531" 
d="M217 -10q-51 0 -89.5 27t-60 79t-21.5 125q0 102 24 194t67 162.5t99 111t120 40.5q53 0 91.5 -27.5t60 -80t20.5 -127.5q0 -82 -18.5 -157t-50.5 -136.5t-76.5 -104t-98.5 -58.5zM229 87q34 0 67 37.5t59 101t41.5 140t15.5 153.5q0 37 -8 62.5t-23.5 38.5t-37.5 13
q-33 0 -65.5 -37.5t-58.5 -101t-41.5 -140t-15.5 -155.5q0 -35 8 -60.5t23 -38.5t36 -13zM217 -10v77l257 27l-21 -94q-36 0 -67 -1.5t-58.5 -3.5t-55 -3.5t-55.5 -1.5z" />
    <glyph glyph-name="R" unicode="R" horiz-adv-x="457" 
d="M-2 0l166 720h161q53 0 89.5 -23t56 -63t18.5 -91q-1 -64 -31.5 -118.5t-84.5 -87t-123 -32.5h-93l21 89h72q36 0 63.5 20.5t43.5 53.5t16 72q1 38 -16 62t-52 24h-45l-144 -626h-118zM270 0l-86 374h108l101 -374h-123z" />
    <glyph glyph-name="S" unicode="S" horiz-adv-x="441" 
d="M188 -10q-56 0 -94 20.5t-58 55t-23.5 77.5t8.5 87h109q-6 -21 -7 -46.5t5.5 -48t23.5 -37t47 -14.5q38 0 60 29.5t22 74.5q0 26 -8 50.5t-31 48.5l-62 71q-31 35 -49.5 75.5t-18.5 86.5q0 56 23.5 103.5t68.5 76.5t111 29q52 0 85.5 -19t50.5 -50t19 -69t-8 -77h-107
q7 26 7 54t-13 47.5t-46 19.5q-26 0 -43.5 -14.5t-25.5 -36.5t-8 -44q0 -27 10 -49.5t32 -46.5l61 -70q33 -38 49.5 -81t16.5 -95q0 -56 -23.5 -103.5t-69.5 -76t-114 -28.5z" />
    <glyph glyph-name="T" unicode="T" horiz-adv-x="425" 
d="M94 0l144 626h-139l21 94h399l-23 -94h-140l-144 -626h-118z" />
    <glyph glyph-name="U" unicode="U" horiz-adv-x="491" 
d="M210 -10q-65 0 -107.5 29t-58 81.5t0.5 121.5l114 498h118l-123 -534q-6 -31 -1.5 -53t21 -34t41.5 -12q35 0 56 20.5t30 62.5l127 550h118l-125 -538q-21 -94 -74.5 -143t-136.5 -49z" />
    <glyph glyph-name="V" unicode="V" horiz-adv-x="476" 
d="M103 0l20 720h117l-35 -637h-11l257 637h116l-312 -720h-152z" />
    <glyph glyph-name="W" unicode="W" horiz-adv-x="660" 
d="M58 0l75 720h113l-88 -670h-20l234 670h130l-75 -670h-18l221 670h111l-257 -720h-146l76 667h21l-231 -667h-146z" />
    <glyph glyph-name="X" unicode="X" horiz-adv-x="461" 
d="M271 0l-56 328l-80 392h120l49 -297l87 -423h-120zM257 436l174 284h122l-275 -424zM258 296l-183 -296h-123l285 437z" />
    <glyph glyph-name="Y" unicode="Y" horiz-adv-x="488" 
d="M126 0l72 316l-82 404h124l57 -363h-58l223 363h124l-270 -404l-72 -316h-118z" />
    <glyph glyph-name="Z" unicode="Z" horiz-adv-x="453" 
d="M-10 0l19 84l349 564l22 -22h-238l23 94h346l-17 -71l-359 -577l-23 22h258l-21 -94h-359z" />
    <glyph glyph-name="bracketleft" unicode="[" horiz-adv-x="363" 
d="M-11 -108l198 858h246l-20 -90h-138l-157 -678h138l-21 -90h-246z" />
    <glyph glyph-name="backslash" unicode="\" horiz-adv-x="292" 
d="M156 763h95l-73 -836h-95z" />
    <glyph glyph-name="bracketright" unicode="]" horiz-adv-x="363" 
d="M404 750l-198 -858h-246l20 90h138l157 678h-138l21 90h246z" />
    <glyph glyph-name="asciicircum" unicode="^" horiz-adv-x="544" 
d="M241 491h-89l181 249h102l65 -249h-73l-69 208h48z" />
    <glyph glyph-name="underscore" unicode="_" horiz-adv-x="350" 
d="M-91 -142l21 92h349l-21 -92h-349z" />
    <glyph glyph-name="grave" unicode="`" horiz-adv-x="333" 
d="M268 583l-96 157h128l49 -157h-81z" />
    <glyph glyph-name="a" unicode="a" horiz-adv-x="408" 
d="M209 0q-2 18 0.5 38.5t6.5 42.5l-5 1l63 276q3 17 3.5 34t-7.5 29.5t-30 12.5q-27 0 -44 -19.5t-26 -56.5h-100q17 79 64.5 120.5t122.5 41.5q60 0 90.5 -25t38 -64.5t-2.5 -82.5l-64 -277q-4 -19 -6 -36t0 -35h-104zM99 -10q-45 0 -70.5 28t-25.5 79q0 42 17.5 77
t51.5 61.5t84 44.5l140 51l-19 -84l-73 -28q-45 -18 -67.5 -42t-22.5 -56q0 -21 12.5 -33t33.5 -12q24 0 40.5 16t23.5 44l-6 -68q-21 -38 -51 -58t-68 -20z" />
    <glyph glyph-name="b" unicode="b" horiz-adv-x="469" 
d="M229 -10q-32 0 -58 15t-40 44t-11 68l6 -2l-28 -115h-106l166 720h114l-69 -302l-7 7q20 46 57 70.5t78 24.5q54 0 85 -47t31 -123q0 -70 -17.5 -135t-47.5 -115.5t-69.5 -80t-83.5 -29.5zM205 84q26 0 48.5 21t39.5 56.5t26.5 80.5t9.5 91q0 43 -15 68t-41 25
q-27 0 -47.5 -19t-35 -49t-23.5 -64.5t-13 -66.5t-4 -53q0 -45 15.5 -67.5t39.5 -22.5z" />
    <glyph glyph-name="c" unicode="c" horiz-adv-x="407" 
d="M168 -10q-44 0 -78 21t-52 63t-18 103q0 45 10 92.5t30 92t49 80t68 56.5t86 21q49 0 78.5 -19t44.5 -50.5t17 -67.5t-6 -69h-102q6 22 7 49t-8 46t-36 19q-25 0 -45 -19t-34 -49t-23.5 -65.5t-14.5 -69.5t-5 -60q0 -44 13 -63.5t34 -19.5q28 0 50 29t35 87h102
q-22 -102 -76.5 -154.5t-125.5 -52.5z" />
    <glyph glyph-name="d" unicode="d" horiz-adv-x="469" 
d="M249 0l22 93l1 -8q-21 -46 -58 -70.5t-77 -24.5q-54 0 -85 47t-31 123q0 71 17.5 135.5t47.5 115t69.5 80t83.5 29.5q32 0 58 -15t40 -43.5t11 -68.5l-13 2l75 325h115l-166 -720h-110zM195 84q27 0 47 19t35 49t23.5 64.5t13 66.5t4.5 53q0 46 -15 68t-41 22
q-33 0 -61 -35.5t-45 -92t-17 -119.5q0 -42 15 -68.5t41 -26.5z" />
    <glyph glyph-name="e" unicode="e" horiz-adv-x="427" 
d="M179 -10q-50 0 -85.5 23t-55 66t-19.5 100q0 38 9 83t27.5 90t47.5 83t70 60.5t95 22.5q46 0 78.5 -19t50 -55t17.5 -90q0 -34 -6.5 -69t-16.5 -58h-296l17 79h227l-35 -43q5 22 9 51t2 55.5t-14 44t-38 17.5q-30 0 -51.5 -21.5t-37 -55.5t-25 -72t-13.5 -71t-4 -53
q0 -41 14.5 -61t42.5 -20t48 20.5t34 64.5h102q-27 -83 -76.5 -127.5t-117.5 -44.5z" />
    <glyph glyph-name="f" unicode="f" horiz-adv-x="285" 
d="M13 0l139 605q15 61 54 93t106 32q18 0 36 -2.5t31 -8.5l-20 -88q-6 2 -14 3t-16 1q-30 0 -45.5 -12t-20.5 -35l-135 -588h-115zM49 419l21 91h255l-21 -91h-255z" />
    <glyph glyph-name="g" unicode="g" horiz-adv-x="469" 
d="M147 -215q-63 0 -101 24t-53 61t-10 76h106q-2 -26 15 -44t51 -18q31 0 52 18.5t30 57.5l31 133l6 -8q-20 -46 -57 -70.5t-78 -24.5q-54 0 -85.5 48t-31.5 124q0 71 17 135t47 114.5t69 79.5t83 29q33 0 58.5 -15t40 -43.5t11.5 -68.5l-5 2l26 115h106l-121 -541
q-20 -89 -75 -136.5t-132 -47.5zM197 84q27 0 47 18.5t34.5 48.5t23 64.5t12.5 66t4 53.5q0 47 -15 69t-41 22q-34 0 -62 -35.5t-44 -92t-16 -119.5q0 -42 15.5 -68.5t41.5 -26.5z" />
    <glyph glyph-name="h" unicode="h" horiz-adv-x="455" 
d="M-8 0l166 720h114l-166 -720h-114zM235 0l83 360q8 35 -3 52.5t-40 17.5q-32 0 -56.5 -25t-35.5 -72l2 76q25 55 65.5 83t89.5 28q57 0 84 -39.5t13 -102.5l-87 -378h-115z" />
    <glyph glyph-name="i" unicode="i" horiz-adv-x="217" 
d="M-7 0l117 510h114l-117 -510h-114zM123 593l27 127h124l-27 -127h-124z" />
    <glyph glyph-name="j" unicode="j" horiz-adv-x="216" 
d="M-54 -215q-12 0 -33.5 2.5t-37.5 10.5l20 86q5 -3 14 -5.5t20 -2.5q17 0 28 9t15 26l138 599h114l-143 -618q-11 -51 -45.5 -79t-89.5 -28zM123 593l27 127h124l-27 -127h-124z" />
    <glyph glyph-name="k" unicode="k" horiz-adv-x="426" 
d="M-8 0l166 720h114l-166 -720h-114zM240 0l-84 265l178 245h130l-207 -267l-5 46l104 -289h-116z" />
    <glyph glyph-name="l" unicode="l" horiz-adv-x="216" 
d="M-8 0l166 720h114l-166 -720h-114z" />
    <glyph glyph-name="m" unicode="m" horiz-adv-x="679" 
d="M-7 0l117 510h109l-22 -96h5l-95 -414h-114zM225 0l83 360q8 35 -2 52.5t-35 17.5q-30 0 -53.5 -25t-33.5 -71l2 76q24 54 64 82t85 28q55 0 80.5 -39.5t11.5 -102.5l-87 -378h-115zM458 0l83 360q8 35 -2 52.5t-35 17.5q-29 0 -52.5 -25.5t-35.5 -72.5l-11 73
q34 58 74 86.5t88 28.5q37 0 61 -18t33.5 -50t-0.5 -74l-88 -378h-115z" />
    <glyph glyph-name="n" unicode="n" horiz-adv-x="456" 
d="M-7 0l117 510h109l-22 -96h5l-95 -414h-114zM235 0l83 360q8 35 -3 52.5t-40 17.5q-32 0 -56.5 -25t-34.5 -71l2 76q24 54 64.5 82t89.5 28q57 0 84.5 -39.5t13.5 -102.5l-88 -378h-115z" />
    <glyph glyph-name="o" unicode="o" horiz-adv-x="451" 
d="M183 -10q-46 0 -82.5 22t-57.5 66.5t-21 110.5q0 65 18.5 125t51.5 106t78 73t99 27q49 0 85 -23.5t55.5 -67.5t19.5 -105q0 -66 -18.5 -126t-52.5 -107t-78.5 -74t-96.5 -27zM191 82q25 0 47 22.5t39 60.5t27 82.5t10 87.5q0 47 -14 70t-40 23q-25 0 -47.5 -22.5
t-39 -59.5t-26.5 -82t-10 -89q0 -47 14.5 -70t39.5 -23z" />
    <glyph glyph-name="p" unicode="p" horiz-adv-x="468" 
d="M229 -10q-32 0 -58 15t-40 44t-11 68l15 -2l-75 -320h-115l165 715h109l-21 -92l-2 7q20 46 57 70.5t78 24.5q54 0 85 -47t31 -123q0 -70 -17.5 -135t-47.5 -115.5t-69.5 -80t-83.5 -29.5zM205 84q26 0 48.5 21t39.5 56.5t26.5 80.5t9.5 91q0 43 -15 68t-41 25
q-27 0 -47.5 -19t-35 -49t-23.5 -64.5t-13 -66.5t-4 -53q0 -45 15.5 -67.5t39.5 -22.5z" />
    <glyph glyph-name="q" unicode="q" horiz-adv-x="469" 
d="M198 -205l68 298l6 -8q-21 -46 -58 -70.5t-77 -24.5q-54 0 -85 47t-31 123q0 71 17.5 135.5t47.5 115t69.5 80t83.5 29.5q32 0 58 -15t40 -43.5t11 -68.5l-8 2l28 115h109l-165 -715h-114zM195 84q27 0 47 19t35 49t23.5 64.5t13 66.5t4.5 53q0 46 -15 68t-41 22
q-33 0 -61 -35.5t-45 -92t-17 -119.5q0 -42 15 -68.5t41 -26.5z" />
    <glyph glyph-name="r" unicode="r" horiz-adv-x="300" 
d="M-8 0l118 510h109l-27 -119h5l-91 -391h-114zM178 312l4 85q30 66 62.5 94.5t69.5 28.5q7 0 15 -1t15 -5l-26 -112q-6 2 -18 3.5t-19 1.5q-37 0 -64.5 -22.5t-38.5 -72.5z" />
    <glyph glyph-name="s" unicode="s" horiz-adv-x="353" 
d="M140 -10q-52 0 -87 22.5t-48.5 60.5t-4.5 85h94q-3 -19 0.5 -38t16 -31.5t37.5 -12.5q28 0 43 16.5t15 42.5q0 19 -9 35t-28 32l-44 39q-30 25 -44.5 53t-14.5 65q0 46 21 82.5t58 57.5t85 21q45 0 74 -19.5t40.5 -53t4.5 -78.5h-94q3 16 1 30.5t-11 24t-29 9.5
q-24 0 -37.5 -16t-13.5 -41q0 -16 7.5 -29.5t24.5 -29.5l50 -43q28 -24 43 -55t15 -70q0 -47 -20.5 -83t-58 -56t-86.5 -20z" />
    <glyph glyph-name="t" unicode="t" horiz-adv-x="298" 
d="M164 -10q-71 0 -100 39t-13 111l107 466l126 50l-121 -524q-5 -26 5.5 -38.5t38.5 -12.5q10 0 20 2t18 5l-21 -88q-11 -5 -25.5 -7.5t-34.5 -2.5zM49 419l21 91h269l-21 -91h-269z" />
    <glyph glyph-name="u" unicode="u" horiz-adv-x="447" 
d="M112 -10q-55 0 -81.5 39.5t-12.5 102.5l88 378h114l-83 -360q-8 -34 3 -52t37 -18q30 0 53.5 25t33.5 71l-2 -76q-24 -54 -63.5 -82t-86.5 -28zM229 0l23 96h-6l95 414h115l-118 -510h-109z" />
    <glyph glyph-name="v" unicode="v" horiz-adv-x="413" 
d="M90 0l-15 510h117l-15 -435h-27l186 435h120l-251 -510h-115z" />
    <glyph glyph-name="w" unicode="w" horiz-adv-x="647" 
d="M80 0l5 510h112l-22 -383h-16l166 383h112l-10 -383h-16l153 383h116l-231 -510h-115l12 377h11l-162 -377h-115z" />
    <glyph glyph-name="x" unicode="x" horiz-adv-x="411" 
d="M225 0l-51 225l-86 285h112l45 -204l91 -306h-111zM192 303l138 207h121l-220 -300zM214 201l-135 -201h-122l218 294z" />
    <glyph glyph-name="y" unicode="y" horiz-adv-x="413" 
d="M-15 -205l144 287l25 28l182 400h120l-355 -715h-116zM109 -9l-34 519h119v-444z" />
    <glyph glyph-name="z" unicode="z" horiz-adv-x="381" 
d="M-26 0l19 81l264 357l20 -19h-197l21 91h306l-16 -68l-275 -370l-20 19h218l-21 -91h-319z" />
    <glyph glyph-name="braceleft" unicode="{" horiz-adv-x="363" 
d="M145 -109q-50 0 -78.5 22.5t-33.5 59.5t14 82l59 139q17 40 6.5 61.5t-51.5 21.5h-33l21 89h32q28 0 45.5 7t27.5 27t12 58l11 159q5 72 46.5 102.5t114.5 30.5h95l-20 -90h-75q-27 0 -44.5 -13t-19.5 -42l-10 -147q-3 -61 -24 -97t-66 -51q38 -19 40.5 -58t-18.5 -89
l-51 -121q-11 -27 -1.5 -44t35.5 -17h77l-22 -90h-89z" />
    <glyph glyph-name="bar" unicode="|" horiz-adv-x="214" 
d="M-31 -130l212 920h100l-212 -920h-100z" />
    <glyph glyph-name="braceright" unicode="}" horiz-adv-x="363" 
d="M248 750q51 0 79 -22t33 -59t-14 -82l-59 -140q-17 -40 -6.5 -61.5t51.5 -21.5h33l-21 -89h-32q-27 0 -45 -7t-28 -26.5t-12 -57.5l-11 -159q-4 -71 -46 -102.5t-115 -31.5h-95l20 90h75q27 0 45 13t19 42l10 147q3 62 24.5 97.5t65.5 50.5q-38 20 -40.5 59t18.5 88
l51 121q11 27 1.5 44t-35.5 17h-77l22 90h89z" />
    <glyph glyph-name="asciitilde" unicode="~" horiz-adv-x="544" 
d="M367 285q51 0 89 32t58 103h-75q-8 -26 -23 -39t-35 -13q-19 0 -35 9t-33 21.5t-38 22t-50 9.5q-50 0 -88 -32t-58 -103h74q8 26 23 39t36 13q19 0 35 -9t32.5 -21.5t37.5 -22t50 -9.5z" />
    <glyph glyph-name="uni00A0" unicode="&#xa0;" horiz-adv-x="143" 
 />
    <glyph glyph-name="exclamdown" unicode="&#xa1;" horiz-adv-x="249" 
d="M-44 -204l129 478h92l-92 -478h-129zM251 510l-31 -136h-135l31 136h135z" />
    <glyph glyph-name="cent" unicode="&#xa2;" horiz-adv-x="407" 
d="M229 482l31 134h94l-31 -134h-94zM217 20l-30 -129h-94l30 129h94zM168 -10q-44 0 -78 21t-52 63t-18 103q0 45 10 92.5t30 92t49 80t68 56.5t86 21q49 0 78.5 -19t44.5 -50.5t17 -67.5t-6 -69h-102q6 22 7 49t-8 46t-36 19q-25 0 -45 -19t-34 -49t-23.5 -65.5
t-14.5 -69.5t-5 -60q0 -44 13 -63.5t34 -19.5q28 0 50 29t35 87h102q-22 -102 -76.5 -154.5t-125.5 -52.5z" />
    <glyph glyph-name="sterling" unicode="&#xa3;" horiz-adv-x="436" 
d="M-28 0l23 101q37 53 61.5 96.5t36 81t11.5 71.5q0 32 -3 61t-6.5 56t-3.5 51q0 42 13 80.5t38.5 68t62.5 46.5t86 17q45 0 78.5 -15.5t55 -43.5t31.5 -66t9 -84h-106q1 33 -4.5 59.5t-21 41.5t-43.5 15q-21 0 -37 -10.5t-26.5 -28.5t-15.5 -41t-5 -49q0 -27 4 -63t4 -79
q0 -47 -15.5 -95.5t-44.5 -96.5t-71 -93l-10 20h277l-24 -101h-354zM19 299l20 85h320l-20 -85h-320z" />
    <glyph glyph-name="yen" unicode="&#xa5;" horiz-adv-x="448" 
d="M106 0l72 316l-62 404h124l37 -363h-58l203 363h124l-250 -404l-72 -316h-118zM27 252l19 85h393l-19 -85h-393zM227 385h-169l20 85h145zM343 470h128l-20 -85h-155z" />
    <glyph glyph-name="section" unicode="&#xa7;" horiz-adv-x="357" 
d="M169 227l8 59q26 0 43.5 7t26 20t8.5 32t-8.5 34.5t-28.5 32.5l-44 39q-31 27 -45 55t-14 64q0 46 21.5 82t58.5 57t84 21q44 0 73 -18.5t41.5 -52.5t4.5 -80h-94q6 31 -4 47.5t-34 16.5t-37.5 -15t-13.5 -41q0 -17 7 -30.5t25 -28.5l50 -44q30 -25 43.5 -52.5
t13.5 -61.5q0 -67 -49.5 -105t-135.5 -38zM124 -30q-44 0 -73.5 19t-41.5 52.5t-4 79.5h93q-5 -30 5 -47t34 -17q23 0 37 15.5t14 41.5q0 17 -7.5 30t-24.5 29l-50 43q-30 25 -44 53t-14 62q0 66 50 104t136 38l-8 -59q-26 0 -43.5 -6.5t-26 -19.5t-8.5 -33q0 -18 8.5 -33.5
t27.5 -33.5l45 -39q30 -26 44 -54.5t14 -63.5q0 -46 -21 -82.5t-58 -57.5t-84 -21z" />
    <glyph glyph-name="dieresis" unicode="&#xa8;" horiz-adv-x="444" 
d="M340 595l29 125h122l-29 -125h-122zM138 595l29 125h122l-29 -125h-122z" />
    <glyph glyph-name="copyright" unicode="&#xa9;" horiz-adv-x="837" 
d="M442 -15q-78 0 -146 29t-119.5 80.5t-80.5 119.5t-29 146t29 146t80.5 119.5t119.5 80.5t146 29t146 -29t119.5 -80.5t80.5 -119.5t29 -146t-29 -146t-80.5 -119.5t-119.5 -80.5t-146 -29zM442 41q66 0 123.5 25t101 69t68 102t24.5 123t-24.5 123t-68 102t-101 69
t-123.5 25q-65 0 -122.5 -25t-101 -69t-68.5 -102t-25 -123t25 -123t68.5 -102t101 -69t122.5 -25zM449 140q-62 0 -110 28.5t-75 78.5t-27 114t27 113t75 77.5t109 28.5q77 0 129.5 -45t62.5 -118h-77q-7 45 -38 71t-77 26q-59 0 -95.5 -42t-36.5 -110q0 -70 37 -113
t96 -43q44 0 75 26.5t39 70.5h78q-11 -74 -63.5 -118.5t-128.5 -44.5z" />
    <glyph glyph-name="ordfeminine" unicode="&#xaa;" horiz-adv-x="281" 
d="M211 418q-1 9 0.5 22.5t4.5 26.5h-3l38 164q3 14 -0.5 25t-19.5 11q-13 0 -20.5 -9.5t-12.5 -25.5h-69q10 46 38 72t73 26q39 0 59 -16t25.5 -40.5t-0.5 -50.5l-38 -165q-2 -9 -3 -21t0 -19h-72zM150 412q-26 0 -43.5 18t-17.5 48q0 35 21.5 62.5t69.5 48.5l88 36
l-14 -63l-54 -27q-17 -8 -24.5 -18.5t-7.5 -22.5q0 -23 22 -23q11 0 19.5 8t12.5 24l-4 -41q-13 -25 -30.5 -37.5t-37.5 -12.5z" />
    <glyph glyph-name="guillemotleft" unicode="&#xab;" horiz-adv-x="447" 
d="M99 68l-59 195l135 171h102l-143 -188l53 -178h-88zM262 68l-59 195l135 171h102l-143 -188l53 -178h-88z" />
    <glyph glyph-name="registered" unicode="&#xae;" horiz-adv-x="837" 
d="M442 -15q-78 0 -146 29t-119.5 80.5t-80.5 119.5t-29 146t29 146t80.5 119.5t119.5 80.5t146 29t146 -29t119.5 -80.5t80.5 -119.5t29 -146t-29 -146t-80.5 -119.5t-119.5 -80.5t-146 -29zM442 41q66 0 123.5 25t101 69t68 102t24.5 123t-24.5 123t-68 102t-101 69
t-123.5 25q-65 0 -122.5 -25t-101 -69t-68.5 -102t-25 -123t25 -123t68.5 -102t101 -69t122.5 -25zM286 145v430h185q69 0 108 -31.5t39 -86.5q0 -88 -115 -112l2 16q50 2 78 -23t28 -71v-71q0 -10 1 -22.5t4 -28.5h-79q-2 9 -3 21.5t-1 29.5v51q0 40 -19 60t-58 20h-134v62
h145q35 0 54 16t19 45q0 30 -19 45t-54 15h-104v-365h-77z" />
    <glyph glyph-name="macron" unicode="&#xaf;" horiz-adv-x="400" 
d="M147 630l18 82h281l-18 -82h-281z" />
    <glyph glyph-name="degree" unicode="&#xb0;" horiz-adv-x="373" 
d="M249 449q-37 0 -66 17.5t-45 47t-16 65.5q0 41 21.5 76.5t57 57.5t79.5 22q57 0 91.5 -37t34.5 -90q0 -41 -20.5 -77.5t-56 -59t-80.5 -22.5zM254 502q26 0 48.5 13.5t36.5 36.5t14 50q0 34 -21.5 57t-58.5 23q-25 0 -47.5 -14t-36 -36.5t-13.5 -49.5q0 -34 21 -57
t57 -23z" />
    <glyph glyph-name="acute" unicode="&#xb4;" horiz-adv-x="333" 
d="M226 583h-90l95 157h154z" />
    <glyph glyph-name="paragraph" unicode="&#xb6;" horiz-adv-x="536" 
d="M156 -130l105 456h-22q-48 0 -82.5 23.5t-53.5 62.5t-19 83q0 58 28 109t80.5 83.5t125.5 32.5h268l-196 -850h-88l176 765h-57l-177 -765h-88z" />
    <glyph glyph-name="periodcentered" unicode="&#xb7;" horiz-adv-x="136" 
d="M12 306l31 136h135l-31 -136h-135z" />
    <glyph glyph-name="cedilla" unicode="&#xb8;" horiz-adv-x="326" 
d="M69 -215q-32 0 -55 12.5t-34.5 32.5t-7.5 43h64q-1 -11 9 -20.5t27 -9.5t26.5 9.5t9.5 22.5q0 17 -14.5 28.5t-47.5 18.5l38 90h61l-21 -57q24 -11 38 -31.5t14 -45.5q0 -39 -29 -66t-78 -27z" />
    <glyph glyph-name="ordmasculine" unicode="&#xba;" horiz-adv-x="317" 
d="M210 412q-49 0 -77.5 33t-28.5 87q0 29 8.5 63t26.5 64.5t46.5 50.5t67.5 20q33 0 57 -15t37 -41.5t13 -62.5q0 -29 -9 -63t-27.5 -65.5t-46.5 -51t-67 -19.5zM215 484q17 0 29 16t19.5 39t10.5 45t3 34q0 21 -8.5 30.5t-20.5 9.5q-17 0 -28.5 -16t-19 -39.5t-10.5 -45.5
t-3 -34q0 -19 7.5 -29t20.5 -10z" />
    <glyph glyph-name="guillemotright" unicode="&#xbb;" horiz-adv-x="447" 
d="M346 434l59 -195l-134 -171h-102l143 188l-53 178h87zM183 434l59 -195l-135 -171h-102l143 188l-53 178h88z" />
    <glyph glyph-name="questiondown" unicode="&#xbf;" horiz-adv-x="411" 
d="M109 -215q-46 0 -80.5 17t-54.5 48.5t-20 75.5q0 38 12 66t31.5 51t43 45.5t47 48t43.5 59t31 78.5h106q-12 -54 -32 -93.5t-42 -69t-44 -53t-40 -43.5t-28.5 -41.5t-10.5 -46.5q0 -24 13 -36.5t36 -12.5q31 0 54.5 25t34.5 81h106q-13 -67 -43 -111t-72 -66t-91 -22z
M330 510l-31 -135h-135l31 135h135z" />
    <glyph glyph-name="Agrave" unicode="&#xc0;" horiz-adv-x="476" 
d="M-43 0l310 720h94l-289 -720h-115zM284 0l41 720h95l-19 -720h-117zM111 268h258l-21 -93h-258zM354 793l-96 157h128l49 -157h-81z" />
    <glyph glyph-name="Aacute" unicode="&#xc1;" horiz-adv-x="476" 
d="M-43 0l310 720h94l-289 -720h-115zM284 0l41 720h95l-19 -720h-117zM111 268h258l-21 -93h-258zM367 793h-90l95 157h154z" />
    <glyph glyph-name="Acircumflex" unicode="&#xc2;" horiz-adv-x="476" 
d="M-43 0l310 720h94l-289 -720h-115zM284 0l41 720h95l-19 -720h-117zM111 268h258l-21 -93h-258zM197 793l141 157h106l70 -157h-73l-91 124h86l-148 -124h-91z" />
    <glyph glyph-name="Atilde" unicode="&#xc3;" horiz-adv-x="476" 
d="M-43 0l310 720h94l-289 -720h-115zM284 0l41 720h95l-19 -720h-117zM111 268h258l-21 -93h-258zM433 811q-22 0 -39 7.5t-31 17.5t-27.5 17.5t-28.5 7.5q-17 0 -27 -10t-16 -33h-69q9 38 24 66.5t39.5 44.5t59.5 16q24 0 40 -7.5t29 -17.5t26 -17.5t29 -7.5q17 0 27.5 10
t15.5 34h68q-13 -58 -40.5 -93t-79.5 -35z" />
    <glyph glyph-name="Adieresis" unicode="&#xc4;" horiz-adv-x="476" 
d="M-43 0l310 720h94l-289 -720h-115zM284 0l41 720h95l-19 -720h-117zM111 268h258l-21 -93h-258zM397 805l29 125h122l-29 -125h-122zM195 805l29 125h122l-29 -125h-122z" />
    <glyph glyph-name="Aring" unicode="&#xc5;" horiz-adv-x="476" 
d="M-43 0l310 720h94l-289 -720h-115zM284 0l41 720h95l-19 -720h-117zM111 268h258l-21 -93h-258zM364 771q-41 0 -69 27.5t-28 68.5q0 33 16 60t42.5 43t57.5 16q42 0 70 -27.5t28 -68.5q0 -31 -16.5 -58.5t-43 -44t-57.5 -16.5zM368 830q21 0 36.5 16t15.5 39
q0 17 -11 29.5t-29 12.5q-20 0 -36 -15.5t-16 -38.5q0 -19 11.5 -31t28.5 -12z" />
    <glyph glyph-name="AE" unicode="&#xc6;" horiz-adv-x="694" 
d="M-43 0l310 720h104l-296 -720h-118zM274 0l164 720h118l-164 -720h-118zM336 0l21 94h258l-22 -94h-257zM186 326l22 93h462l-22 -93h-462zM270 626l21 94h458l-21 -94h-458z" />
    <glyph glyph-name="Ccedilla" unicode="&#xc7;" horiz-adv-x="489" 
d="M210 -10q-55 0 -92.5 26t-56.5 76t-19 122q0 46 8 101.5t24.5 113.5t41.5 111.5t60 96.5t79 68t99 25q58 0 92 -27.5t50 -72t16.5 -94.5t-11.5 -94h-117q7 25 11 57.5t1.5 63.5t-16 51t-42.5 20q-34 0 -62 -31.5t-49 -82t-35.5 -109t-22 -114t-7.5 -95.5q0 -56 15 -85.5
t47 -29.5q38 0 69 47t54 144h117q-22 -97 -59 -161t-86 -95.5t-109 -31.5zM156 -215q-32 0 -55 12.5t-34.5 32.5t-7.5 43h64q-1 -11 9 -20.5t27 -9.5t26.5 9.5t9.5 22.5q0 17 -14.5 28.5t-47.5 18.5l38 90h61l-21 -57q24 -11 38 -31.5t14 -45.5q0 -39 -29 -66t-78 -27z" />
    <glyph glyph-name="Egrave" unicode="&#xc8;" horiz-adv-x="418" 
d="M-2 0l166 720h118l-166 -720h-118zM60 0l21 94h258l-22 -94h-257zM135 326l21 93h238l-21 -93h-238zM204 626l22 94h249l-21 -94h-250zM341 793l-96 157h128l49 -157h-81z" />
    <glyph glyph-name="Eacute" unicode="&#xc9;" horiz-adv-x="418" 
d="M-2 0l166 720h118l-166 -720h-118zM60 0l21 94h258l-22 -94h-257zM135 326l21 93h238l-21 -93h-238zM204 626l22 94h249l-21 -94h-250zM355 793h-90l95 157h154z" />
    <glyph glyph-name="Ecircumflex" unicode="&#xca;" horiz-adv-x="418" 
d="M-2 0l166 720h118l-166 -720h-118zM60 0l21 94h258l-22 -94h-257zM135 326l21 93h238l-21 -93h-238zM204 626l22 94h249l-21 -94h-250zM184 793l141 157h106l70 -157h-73l-91 124h86l-148 -124h-91z" />
    <glyph glyph-name="Edieresis" unicode="&#xcb;" horiz-adv-x="418" 
d="M-2 0l166 720h118l-166 -720h-118zM60 0l21 94h258l-22 -94h-257zM135 326l21 93h238l-21 -93h-238zM204 626l22 94h249l-21 -94h-250zM385 805l29 125h122l-29 -125h-122zM183 805l29 125h122l-29 -125h-122z" />
    <glyph glyph-name="Igrave" unicode="&#xcc;" horiz-adv-x="231" 
d="M-2 0l166 720h118l-166 -720h-118zM238 793l-96 157h128l49 -157h-81z" />
    <glyph glyph-name="Iacute" unicode="&#xcd;" horiz-adv-x="231" 
d="M-2 0l166 720h118l-166 -720h-118zM251 793h-90l95 157h154z" />
    <glyph glyph-name="Icircumflex" unicode="&#xce;" horiz-adv-x="231" 
d="M-2 0l166 720h118l-166 -720h-118zM81 793l141 157h106l70 -157h-73l-91 124h86l-148 -124h-91z" />
    <glyph glyph-name="Idieresis" unicode="&#xcf;" horiz-adv-x="231" 
d="M-2 0l166 720h118l-166 -720h-118zM281 805l29 125h122l-29 -125h-122zM79 805l29 125h122l-29 -125h-122z" />
    <glyph glyph-name="Eth" unicode="&#xd0;" horiz-adv-x="526" 
d="M14 315l21 93h274l-21 -93h-274zM72 0l24 95h90q45 0 85.5 31t71.5 83.5t49 121t18 143.5q0 53 -10 86.5t-31.5 49.5t-58.5 16h-83l6 94h97q62 0 106 -28.5t67 -83.5t23 -135q0 -96 -27 -181.5t-75 -151t-109.5 -103t-131.5 -37.5h-111zM5 0l165 720h118l-165 -720h-118z
" />
    <glyph glyph-name="Ntilde" unicode="&#xd1;" horiz-adv-x="514" 
d="M-2 0l166 720h138l37 -613l-24 -2l141 615h109l-166 -720h-139l-38 613l26 2l-142 -615h-108zM459 811q-22 0 -39 7.5t-31 17.5t-27.5 17.5t-28.5 7.5q-17 0 -27 -10t-16 -33h-69q9 38 24 66.5t39.5 44.5t59.5 16q24 0 40 -7.5t29 -17.5t26 -17.5t29 -7.5q17 0 27.5 10
t15.5 34h68q-13 -58 -40.5 -93t-79.5 -35z" />
    <glyph glyph-name="Ograve" unicode="&#xd2;" horiz-adv-x="524" 
d="M216 -9q-50 0 -88.5 27t-60 78.5t-21.5 124.5q0 103 24 194.5t66.5 162t98.5 111t120 40.5q53 0 92 -27.5t60.5 -81t19.5 -129.5q-1 -100 -26 -190t-68 -160t-98 -110t-119 -40zM229 87q34 0 66 38t58.5 101t42 140t15.5 154q0 36 -8 61.5t-23.5 38.5t-37.5 13
q-33 0 -65 -37.5t-58 -101t-41.5 -140t-15.5 -155.5q0 -35 8 -60t23 -38.5t36 -13.5zM384 793l-96 157h128l49 -157h-81z" />
    <glyph glyph-name="Oacute" unicode="&#xd3;" horiz-adv-x="524" 
d="M216 -9q-50 0 -88.5 27t-60 78.5t-21.5 124.5q0 103 24 194.5t66.5 162t98.5 111t120 40.5q53 0 92 -27.5t60.5 -81t19.5 -129.5q-1 -100 -26 -190t-68 -160t-98 -110t-119 -40zM229 87q34 0 66 38t58.5 101t42 140t15.5 154q0 36 -8 61.5t-23.5 38.5t-37.5 13
q-33 0 -65 -37.5t-58 -101t-41.5 -140t-15.5 -155.5q0 -35 8 -60t23 -38.5t36 -13.5zM397 793h-90l95 157h154z" />
    <glyph glyph-name="Ocircumflex" unicode="&#xd4;" horiz-adv-x="524" 
d="M216 -9q-50 0 -88.5 27t-60 78.5t-21.5 124.5q0 103 24 194.5t66.5 162t98.5 111t120 40.5q53 0 92 -27.5t60.5 -81t19.5 -129.5q-1 -100 -26 -190t-68 -160t-98 -110t-119 -40zM229 87q34 0 66 38t58.5 101t42 140t15.5 154q0 36 -8 61.5t-23.5 38.5t-37.5 13
q-33 0 -65 -37.5t-58 -101t-41.5 -140t-15.5 -155.5q0 -35 8 -60t23 -38.5t36 -13.5zM227 793l141 157h106l70 -157h-73l-91 124h86l-148 -124h-91z" />
    <glyph glyph-name="Otilde" unicode="&#xd5;" horiz-adv-x="524" 
d="M216 -9q-50 0 -88.5 27t-60 78.5t-21.5 124.5q0 103 24 194.5t66.5 162t98.5 111t120 40.5q53 0 92 -27.5t60.5 -81t19.5 -129.5q-1 -100 -26 -190t-68 -160t-98 -110t-119 -40zM229 87q34 0 66 38t58.5 101t42 140t15.5 154q0 36 -8 61.5t-23.5 38.5t-37.5 13
q-33 0 -65 -37.5t-58 -101t-41.5 -140t-15.5 -155.5q0 -35 8 -60t23 -38.5t36 -13.5zM463 811q-22 0 -39 7.5t-31 17.5t-27.5 17.5t-28.5 7.5q-17 0 -27 -10t-16 -33h-69q9 38 24 66.5t39.5 44.5t59.5 16q24 0 40 -7.5t29 -17.5t26 -17.5t29 -7.5q17 0 27.5 10t15.5 34h68
q-13 -58 -40.5 -93t-79.5 -35z" />
    <glyph glyph-name="Odieresis" unicode="&#xd6;" horiz-adv-x="524" 
d="M216 -9q-50 0 -88.5 27t-60 78.5t-21.5 124.5q0 103 24 194.5t66.5 162t98.5 111t120 40.5q53 0 92 -27.5t60.5 -81t19.5 -129.5q-1 -100 -26 -190t-68 -160t-98 -110t-119 -40zM229 87q34 0 66 38t58.5 101t42 140t15.5 154q0 36 -8 61.5t-23.5 38.5t-37.5 13
q-33 0 -65 -37.5t-58 -101t-41.5 -140t-15.5 -155.5q0 -35 8 -60t23 -38.5t36 -13.5zM427 805l29 125h122l-29 -125h-122zM225 805l29 125h122l-29 -125h-122z" />
    <glyph glyph-name="multiply" unicode="&#xd7;" horiz-adv-x="544" 
d="M406 159l-285 368l66 53l285 -368zM107 159l-54 66l438 360l54 -65z" />
    <glyph glyph-name="Oslash" unicode="&#xd8;" horiz-adv-x="524" 
d="M77 -10l-65 42l435 698l65 -42zM216 -9q-50 0 -88.5 27t-60 78.5t-21.5 124.5q0 103 24 194.5t66.5 162t98.5 111t120 40.5q53 0 92 -27.5t60.5 -81t19.5 -129.5q-1 -100 -26 -190t-68 -160t-98 -110t-119 -40zM229 87q34 0 66 38t58.5 101t42 140t15.5 154q0 36 -8 61.5
t-23.5 38.5t-37.5 13q-33 0 -65 -37.5t-58 -101t-41.5 -140t-15.5 -155.5q0 -35 8 -60t23 -38.5t36 -13.5z" />
    <glyph glyph-name="Ugrave" unicode="&#xd9;" horiz-adv-x="491" 
d="M210 -10q-65 0 -107.5 29t-58 81.5t0.5 121.5l114 498h118l-123 -534q-6 -31 -1.5 -53t21 -34t41.5 -12q35 0 56 20.5t30 62.5l127 550h118l-125 -538q-21 -94 -74.5 -143t-136.5 -49zM367 793l-96 157h128l49 -157h-81z" />
    <glyph glyph-name="Uacute" unicode="&#xda;" horiz-adv-x="491" 
d="M210 -10q-65 0 -107.5 29t-58 81.5t0.5 121.5l114 498h118l-123 -534q-6 -31 -1.5 -53t21 -34t41.5 -12q35 0 56 20.5t30 62.5l127 550h118l-125 -538q-21 -94 -74.5 -143t-136.5 -49zM381 793h-90l95 157h154z" />
    <glyph glyph-name="Ucircumflex" unicode="&#xdb;" horiz-adv-x="491" 
d="M210 -10q-65 0 -107.5 29t-58 81.5t0.5 121.5l114 498h118l-123 -534q-6 -31 -1.5 -53t21 -34t41.5 -12q35 0 56 20.5t30 62.5l127 550h118l-125 -538q-21 -94 -74.5 -143t-136.5 -49zM210 793l141 157h106l70 -157h-73l-91 124h86l-148 -124h-91z" />
    <glyph glyph-name="Udieresis" unicode="&#xdc;" horiz-adv-x="491" 
d="M210 -10q-65 0 -107.5 29t-58 81.5t0.5 121.5l114 498h118l-123 -534q-6 -31 -1.5 -53t21 -34t41.5 -12q35 0 56 20.5t30 62.5l127 550h118l-125 -538q-21 -94 -74.5 -143t-136.5 -49zM411 805l29 125h122l-29 -125h-122zM209 805l29 125h122l-29 -125h-122z" />
    <glyph glyph-name="Yacute" unicode="&#xdd;" horiz-adv-x="488" 
d="M126 0l72 316l-82 404h124l57 -363h-58l223 363h124l-270 -404l-72 -316h-118zM379 793h-90l95 157h154z" />
    <glyph glyph-name="Thorn" unicode="&#xde;" horiz-adv-x="457" 
d="M127 163l21 94h59q44 0 74.5 20.5t47 53.5t16.5 70q0 38 -18.5 60t-54.5 22h-72l22 94h74q52 0 89 -22.5t57.5 -61.5t20.5 -89q0 -63 -33 -118t-90.5 -89t-134.5 -34h-78zM-2 0l166 720h118l-166 -720h-118z" />
    <glyph glyph-name="germandbls" unicode="&#xdf;" horiz-adv-x="478" 
d="M215 -10q-11 0 -22.5 1.5t-21.5 5t-21 8.5l20 86q8 -4 21 -6.5t25 -2.5q35 0 58 25.5t34.5 65t11.5 79.5q1 40 -16.5 64t-49.5 24h-22l21 92h15q25 0 43.5 13.5t31.5 35t19 46t6 46.5q0 32 -13.5 49t-39.5 17q-33 0 -53 -25.5t-32 -77.5l-124 -536h-114l127 553
q20 82 73.5 129.5t129.5 47.5q36 0 65.5 -10t51 -29.5t33.5 -47.5t12 -63q0 -37 -13 -74.5t-36 -68.5t-54 -48.5t-69 -14.5l3 21q56 -6 87 -49t31 -110q0 -64 -25 -120.5t-73.5 -91t-119.5 -34.5z" />
    <glyph glyph-name="agrave" unicode="&#xe0;" horiz-adv-x="408" 
d="M209 0q-2 18 0.5 38.5t6.5 42.5l-5 1l63 276q3 17 3.5 34t-7.5 29.5t-30 12.5q-27 0 -44 -19.5t-26 -56.5h-100q17 79 64.5 120.5t122.5 41.5q60 0 90.5 -25t38 -64.5t-2.5 -82.5l-64 -277q-4 -19 -6 -36t0 -35h-104zM99 -10q-45 0 -70.5 28t-25.5 79q0 42 17.5 77
t51.5 61.5t84 44.5l140 51l-19 -84l-73 -28q-45 -18 -67.5 -42t-22.5 -56q0 -21 12.5 -33t33.5 -12q24 0 40.5 16t23.5 44l-6 -68q-21 -38 -51 -58t-68 -20zM278 583l-96 157h128l49 -157h-81z" />
    <glyph glyph-name="aacute" unicode="&#xe1;" horiz-adv-x="408" 
d="M209 0q-2 18 0.5 38.5t6.5 42.5l-5 1l63 276q3 17 3.5 34t-7.5 29.5t-30 12.5q-27 0 -44 -19.5t-26 -56.5h-100q17 79 64.5 120.5t122.5 41.5q60 0 90.5 -25t38 -64.5t-2.5 -82.5l-64 -277q-4 -19 -6 -36t0 -35h-104zM99 -10q-45 0 -70.5 28t-25.5 79q0 42 17.5 77
t51.5 61.5t84 44.5l140 51l-19 -84l-73 -28q-45 -18 -67.5 -42t-22.5 -56q0 -21 12.5 -33t33.5 -12q24 0 40.5 16t23.5 44l-6 -68q-21 -38 -51 -58t-68 -20zM292 583h-90l95 157h154z" />
    <glyph glyph-name="acircumflex" unicode="&#xe2;" horiz-adv-x="408" 
d="M209 0q-2 18 0.5 38.5t6.5 42.5l-5 1l63 276q3 17 3.5 34t-7.5 29.5t-30 12.5q-27 0 -44 -19.5t-26 -56.5h-100q17 79 64.5 120.5t122.5 41.5q60 0 90.5 -25t38 -64.5t-2.5 -82.5l-64 -277q-4 -19 -6 -36t0 -35h-104zM99 -10q-45 0 -70.5 28t-25.5 79q0 42 17.5 77
t51.5 61.5t84 44.5l140 51l-19 -84l-73 -28q-45 -18 -67.5 -42t-22.5 -56q0 -21 12.5 -33t33.5 -12q24 0 40.5 16t23.5 44l-6 -68q-21 -38 -51 -58t-68 -20zM121 583l141 157h106l70 -157h-73l-91 124h86l-148 -124h-91z" />
    <glyph glyph-name="atilde" unicode="&#xe3;" horiz-adv-x="408" 
d="M209 0q-2 18 0.5 38.5t6.5 42.5l-5 1l63 276q3 17 3.5 34t-7.5 29.5t-30 12.5q-27 0 -44 -19.5t-26 -56.5h-100q17 79 64.5 120.5t122.5 41.5q60 0 90.5 -25t38 -64.5t-2.5 -82.5l-64 -277q-4 -19 -6 -36t0 -35h-104zM99 -10q-45 0 -70.5 28t-25.5 79q0 42 17.5 77
t51.5 61.5t84 44.5l140 51l-19 -84l-73 -28q-45 -18 -67.5 -42t-22.5 -56q0 -21 12.5 -33t33.5 -12q24 0 40.5 16t23.5 44l-6 -68q-21 -38 -51 -58t-68 -20zM358 601q-22 0 -39 7.5t-31 17.5t-27.5 17.5t-28.5 7.5q-17 0 -27 -10t-16 -33h-69q9 38 24 66.5t39.5 44.5
t59.5 16q24 0 40 -7.5t29 -17.5t26 -17.5t29 -7.5q17 0 27.5 10t15.5 34h68q-13 -58 -40.5 -93t-79.5 -35z" />
    <glyph glyph-name="adieresis" unicode="&#xe4;" horiz-adv-x="408" 
d="M209 0q-2 18 0.5 38.5t6.5 42.5l-5 1l63 276q3 17 3.5 34t-7.5 29.5t-30 12.5q-27 0 -44 -19.5t-26 -56.5h-100q17 79 64.5 120.5t122.5 41.5q60 0 90.5 -25t38 -64.5t-2.5 -82.5l-64 -277q-4 -19 -6 -36t0 -35h-104zM99 -10q-45 0 -70.5 28t-25.5 79q0 42 17.5 77
t51.5 61.5t84 44.5l140 51l-19 -84l-73 -28q-45 -18 -67.5 -42t-22.5 -56q0 -21 12.5 -33t33.5 -12q24 0 40.5 16t23.5 44l-6 -68q-21 -38 -51 -58t-68 -20zM322 595l29 125h122l-29 -125h-122zM120 595l29 125h122l-29 -125h-122z" />
    <glyph glyph-name="aring" unicode="&#xe5;" horiz-adv-x="408" 
d="M209 0q-2 18 0.5 38.5t6.5 42.5l-5 1l63 276q3 17 3.5 34t-7.5 29.5t-30 12.5q-27 0 -44 -19.5t-26 -56.5h-100q17 79 64.5 120.5t122.5 41.5q60 0 90.5 -25t38 -64.5t-2.5 -82.5l-64 -277q-4 -19 -6 -36t0 -35h-104zM99 -10q-45 0 -70.5 28t-25.5 79q0 42 17.5 77
t51.5 61.5t84 44.5l140 51l-19 -84l-73 -28q-45 -18 -67.5 -42t-22.5 -56q0 -21 12.5 -33t33.5 -12q24 0 40.5 16t23.5 44l-6 -68q-21 -38 -51 -58t-68 -20zM288 561q-41 0 -69 27.5t-28 68.5q0 33 16 60t42.5 43t57.5 16q42 0 70 -27.5t28 -68.5q0 -31 -16.5 -58.5t-43 -44
t-57.5 -16.5zM292 620q21 0 36.5 16t15.5 39q0 17 -11 29.5t-29 12.5q-20 0 -36 -15.5t-16 -38.5q0 -19 11.5 -31t28.5 -12z" />
    <glyph glyph-name="ae" unicode="&#xe6;" horiz-adv-x="644" 
d="M219 115l55 243q3 17 3.5 34t-7.5 29.5t-30 12.5q-27 0 -44 -19.5t-26 -56.5h-100q17 79 64.5 120.5t122.5 41.5q60 0 90.5 -25t38 -64.5t-2.5 -82.5l-56 -244zM116 -10q-50 0 -81.5 28t-31.5 79q0 42 17.5 77t51.5 61.5t84 44.5l140 51l-19 -84l-73 -28
q-45 -18 -67.5 -42t-22.5 -56q0 -21 12.5 -33t33.5 -12q24 0 40.5 15.5t23.5 43.5l69 -24q-37 -65 -79.5 -93t-97.5 -28zM399 -10q-47 0 -82 23t-54 66t-19 100q0 38 8.5 83t27 90t47.5 83t69 60.5t92 22.5q45 0 77 -19t49 -55t17 -90q0 -34 -6.5 -69t-16.5 -58h-288l16 79
h220l-35 -43q5 22 9 51t2.5 55.5t-12.5 44t-37 17.5q-28 0 -49 -21.5t-36 -55.5t-24 -72t-13.5 -71t-4.5 -53q0 -41 14.5 -61t39.5 -20q26 0 45 20.5t33 64.5h102q-27 -83 -76 -127.5t-115 -44.5z" />
    <glyph glyph-name="ccedilla" unicode="&#xe7;" horiz-adv-x="407" 
d="M168 -10q-44 0 -78 21t-52 63t-18 103q0 45 10 92.5t30 92t49 80t68 56.5t86 21q49 0 78.5 -19t44.5 -50.5t17 -67.5t-6 -69h-102q6 22 7 49t-8 46t-36 19q-25 0 -45 -19t-34 -49t-23.5 -65.5t-14.5 -69.5t-5 -60q0 -44 13 -63.5t34 -19.5q28 0 50 29t35 87h102
q-22 -102 -76.5 -154.5t-125.5 -52.5zM118 -215q-32 0 -55 12.5t-34.5 32.5t-7.5 43h64q-1 -11 9 -20.5t27 -9.5t26.5 9.5t9.5 22.5q0 17 -14.5 28.5t-47.5 18.5l38 90h61l-21 -57q24 -11 38 -31.5t14 -45.5q0 -39 -29 -66t-78 -27z" />
    <glyph glyph-name="egrave" unicode="&#xe8;" horiz-adv-x="427" 
d="M179 -10q-50 0 -85.5 23t-55 66t-19.5 100q0 38 9 83t27.5 90t47.5 83t70 60.5t95 22.5q46 0 78.5 -19t50 -55t17.5 -90q0 -34 -6.5 -69t-16.5 -58h-296l17 79h227l-35 -43q5 22 9 51t2 55.5t-14 44t-38 17.5q-30 0 -51.5 -21.5t-37 -55.5t-25 -72t-13.5 -71t-4 -53
q0 -41 14.5 -61t42.5 -20t48 20.5t34 64.5h102q-27 -83 -76.5 -127.5t-117.5 -44.5zM291 583l-96 157h128l49 -157h-81z" />
    <glyph glyph-name="eacute" unicode="&#xe9;" horiz-adv-x="427" 
d="M179 -10q-50 0 -85.5 23t-55 66t-19.5 100q0 38 9 83t27.5 90t47.5 83t70 60.5t95 22.5q46 0 78.5 -19t50 -55t17.5 -90q0 -34 -6.5 -69t-16.5 -58h-296l17 79h227l-35 -43q5 22 9 51t2 55.5t-14 44t-38 17.5q-30 0 -51.5 -21.5t-37 -55.5t-25 -72t-13.5 -71t-4 -53
q0 -41 14.5 -61t42.5 -20t48 20.5t34 64.5h102q-27 -83 -76.5 -127.5t-117.5 -44.5zM305 583h-90l95 157h154z" />
    <glyph glyph-name="ecircumflex" unicode="&#xea;" horiz-adv-x="427" 
d="M179 -10q-50 0 -85.5 23t-55 66t-19.5 100q0 38 9 83t27.5 90t47.5 83t70 60.5t95 22.5q46 0 78.5 -19t50 -55t17.5 -90q0 -34 -6.5 -69t-16.5 -58h-296l17 79h227l-35 -43q5 22 9 51t2 55.5t-14 44t-38 17.5q-30 0 -51.5 -21.5t-37 -55.5t-25 -72t-13.5 -71t-4 -53
q0 -41 14.5 -61t42.5 -20t48 20.5t34 64.5h102q-27 -83 -76.5 -127.5t-117.5 -44.5zM134 583l141 157h106l70 -157h-73l-91 124h86l-148 -124h-91z" />
    <glyph glyph-name="edieresis" unicode="&#xeb;" horiz-adv-x="427" 
d="M179 -10q-50 0 -85.5 23t-55 66t-19.5 100q0 38 9 83t27.5 90t47.5 83t70 60.5t95 22.5q46 0 78.5 -19t50 -55t17.5 -90q0 -34 -6.5 -69t-16.5 -58h-296l17 79h227l-35 -43q5 22 9 51t2 55.5t-14 44t-38 17.5q-30 0 -51.5 -21.5t-37 -55.5t-25 -72t-13.5 -71t-4 -53
q0 -41 14.5 -61t42.5 -20t48 20.5t34 64.5h102q-27 -83 -76.5 -127.5t-117.5 -44.5zM335 595l29 125h122l-29 -125h-122zM133 595l29 125h122l-29 -125h-122z" />
    <glyph glyph-name="igrave" unicode="&#xec;" horiz-adv-x="217" 
d="M-7 0l117 510h114l-117 -510h-114zM182 583l-96 157h128l49 -157h-81z" />
    <glyph glyph-name="iacute" unicode="&#xed;" horiz-adv-x="217" 
d="M-7 0l117 510h114l-117 -510h-114zM195 583h-90l95 157h154z" />
    <glyph glyph-name="icircumflex" unicode="&#xee;" horiz-adv-x="217" 
d="M-7 0l117 510h114l-117 -510h-114zM25 583l141 157h106l70 -157h-73l-91 124h86l-148 -124h-91z" />
    <glyph glyph-name="idieresis" unicode="&#xef;" horiz-adv-x="217" 
d="M-7 0l117 510h114l-117 -510h-114zM226 595l29 125h122l-29 -125h-122zM24 595l29 125h122l-29 -125h-122z" />
    <glyph glyph-name="eth" unicode="&#xf0;" horiz-adv-x="458" 
d="M185 -9q-49 0 -86.5 21t-58 62t-20.5 103q0 36 8.5 80t26 88t45 80.5t65.5 59t88 22.5q40 0 64 -16t35 -45t11 -70l-36 -42l4 18q14 60 14 112.5t-20 93t-63.5 64t-114.5 25.5l40 80q88 -2 146.5 -36t88.5 -98.5t30 -158.5q0 -43 -8 -100t-26 -117t-49 -111t-76 -83
t-108 -32zM193 84q28 0 49 19.5t36.5 50.5t24.5 66t13.5 66.5t4.5 51.5q0 28 -6.5 46.5t-19.5 28.5t-31 10q-27 0 -48 -19.5t-36.5 -50.5t-25.5 -66.5t-15 -67.5t-5 -53q0 -40 16.5 -61t42.5 -21zM206 530l-24 63l286 145l24 -63z" />
    <glyph glyph-name="ntilde" unicode="&#xf1;" horiz-adv-x="456" 
d="M-7 0l117 510h109l-22 -96h5l-95 -414h-114zM235 0l83 360q8 35 -3 52.5t-40 17.5q-32 0 -56.5 -25t-34.5 -71l2 76q24 54 64.5 82t89.5 28q57 0 84.5 -39.5t13.5 -102.5l-88 -378h-115zM395 601q-22 0 -39 7.5t-31 17.5t-27.5 17.5t-28.5 7.5q-17 0 -27 -10t-16 -33h-69
q9 38 24 66.5t39.5 44.5t59.5 16q24 0 40 -7.5t29 -17.5t26 -17.5t29 -7.5q17 0 27.5 10t15.5 34h68q-13 -58 -40.5 -93t-79.5 -35z" />
    <glyph glyph-name="ograve" unicode="&#xf2;" horiz-adv-x="451" 
d="M183 -10q-46 0 -82.5 22t-57.5 66.5t-21 110.5q0 65 18.5 125t51.5 106t78 73t99 27q49 0 85 -23.5t55.5 -67.5t19.5 -105q0 -66 -18.5 -126t-52.5 -107t-78.5 -74t-96.5 -27zM191 82q25 0 47 22.5t39 60.5t27 82.5t10 87.5q0 47 -14 70t-40 23q-25 0 -47.5 -22.5
t-39 -59.5t-26.5 -82t-10 -89q0 -47 14.5 -70t39.5 -23zM298 583l-96 157h128l49 -157h-81z" />
    <glyph glyph-name="oacute" unicode="&#xf3;" horiz-adv-x="451" 
d="M183 -10q-46 0 -82.5 22t-57.5 66.5t-21 110.5q0 65 18.5 125t51.5 106t78 73t99 27q49 0 85 -23.5t55.5 -67.5t19.5 -105q0 -66 -18.5 -126t-52.5 -107t-78.5 -74t-96.5 -27zM191 82q25 0 47 22.5t39 60.5t27 82.5t10 87.5q0 47 -14 70t-40 23q-25 0 -47.5 -22.5
t-39 -59.5t-26.5 -82t-10 -89q0 -47 14.5 -70t39.5 -23zM311 583h-90l95 157h154z" />
    <glyph glyph-name="ocircumflex" unicode="&#xf4;" horiz-adv-x="451" 
d="M183 -10q-46 0 -82.5 22t-57.5 66.5t-21 110.5q0 65 18.5 125t51.5 106t78 73t99 27q49 0 85 -23.5t55.5 -67.5t19.5 -105q0 -66 -18.5 -126t-52.5 -107t-78.5 -74t-96.5 -27zM191 82q25 0 47 22.5t39 60.5t27 82.5t10 87.5q0 47 -14 70t-40 23q-25 0 -47.5 -22.5
t-39 -59.5t-26.5 -82t-10 -89q0 -47 14.5 -70t39.5 -23zM141 583l141 157h106l70 -157h-73l-91 124h86l-148 -124h-91z" />
    <glyph glyph-name="otilde" unicode="&#xf5;" horiz-adv-x="451" 
d="M183 -10q-46 0 -82.5 22t-57.5 66.5t-21 110.5q0 65 18.5 125t51.5 106t78 73t99 27q49 0 85 -23.5t55.5 -67.5t19.5 -105q0 -66 -18.5 -126t-52.5 -107t-78.5 -74t-96.5 -27zM191 82q25 0 47 22.5t39 60.5t27 82.5t10 87.5q0 47 -14 70t-40 23q-25 0 -47.5 -22.5
t-39 -59.5t-26.5 -82t-10 -89q0 -47 14.5 -70t39.5 -23zM377 601q-22 0 -39 7.5t-31 17.5t-27.5 17.5t-28.5 7.5q-17 0 -27 -10t-16 -33h-69q9 38 24 66.5t39.5 44.5t59.5 16q24 0 40 -7.5t29 -17.5t26 -17.5t29 -7.5q17 0 27.5 10t15.5 34h68q-13 -58 -40.5 -93t-79.5 -35z
" />
    <glyph glyph-name="odieresis" unicode="&#xf6;" horiz-adv-x="451" 
d="M183 -10q-46 0 -82.5 22t-57.5 66.5t-21 110.5q0 65 18.5 125t51.5 106t78 73t99 27q49 0 85 -23.5t55.5 -67.5t19.5 -105q0 -66 -18.5 -126t-52.5 -107t-78.5 -74t-96.5 -27zM191 82q25 0 47 22.5t39 60.5t27 82.5t10 87.5q0 47 -14 70t-40 23q-25 0 -47.5 -22.5
t-39 -59.5t-26.5 -82t-10 -89q0 -47 14.5 -70t39.5 -23zM341 595l29 125h122l-29 -125h-122zM139 595l29 125h122l-29 -125h-122z" />
    <glyph glyph-name="divide" unicode="&#xf7;" horiz-adv-x="544" 
d="M70 329l20 84h437l-19 -84h-438zM333 485q-25 0 -40.5 15.5t-15.5 40.5q0 29 20 49t49 20q25 0 41 -16t16 -40q0 -30 -21 -49.5t-49 -19.5zM251 133q-24 0 -39.5 15.5t-15.5 40.5q0 29 20 49t48 20q25 0 41.5 -16t16.5 -40q0 -30 -21 -49.5t-50 -19.5z" />
    <glyph glyph-name="oslash" unicode="&#xf8;" horiz-adv-x="451" 
d="M183 -10q-46 0 -82.5 22t-57.5 66.5t-21 110.5q0 65 18.5 125t51.5 106t78 73t99 27q49 0 85 -23.5t55.5 -67.5t19.5 -105q0 -66 -18.5 -126t-52.5 -107t-78.5 -74t-96.5 -27zM189 73q25 0 49.5 24t43.5 64t30 86.5t11 91.5q0 50 -17.5 74t-43.5 24t-50 -24t-43 -63
t-30 -86t-11 -93q0 -50 17.5 -74t43.5 -24zM21 -7l-47 52l456 472l47 -52z" />
    <glyph glyph-name="ugrave" unicode="&#xf9;" horiz-adv-x="447" 
d="M112 -10q-55 0 -81.5 39.5t-12.5 102.5l88 378h114l-83 -360q-8 -34 3 -52t37 -18q30 0 53.5 25t33.5 71l-2 -76q-24 -54 -63.5 -82t-86.5 -28zM229 0l23 96h-6l95 414h115l-118 -510h-109zM298 583l-96 157h128l49 -157h-81z" />
    <glyph glyph-name="uacute" unicode="&#xfa;" horiz-adv-x="447" 
d="M112 -10q-55 0 -81.5 39.5t-12.5 102.5l88 378h114l-83 -360q-8 -34 3 -52t37 -18q30 0 53.5 25t33.5 71l-2 -76q-24 -54 -63.5 -82t-86.5 -28zM229 0l23 96h-6l95 414h115l-118 -510h-109zM311 583h-90l95 157h154z" />
    <glyph glyph-name="ucircumflex" unicode="&#xfb;" horiz-adv-x="447" 
d="M112 -10q-55 0 -81.5 39.5t-12.5 102.5l88 378h114l-83 -360q-8 -34 3 -52t37 -18q30 0 53.5 25t33.5 71l-2 -76q-24 -54 -63.5 -82t-86.5 -28zM229 0l23 96h-6l95 414h115l-118 -510h-109zM141 583l141 157h106l70 -157h-73l-91 124h86l-148 -124h-91z" />
    <glyph glyph-name="udieresis" unicode="&#xfc;" horiz-adv-x="447" 
d="M112 -10q-55 0 -81.5 39.5t-12.5 102.5l88 378h114l-83 -360q-8 -34 3 -52t37 -18q30 0 53.5 25t33.5 71l-2 -76q-24 -54 -63.5 -82t-86.5 -28zM229 0l23 96h-6l95 414h115l-118 -510h-109zM341 595l29 125h122l-29 -125h-122zM139 595l29 125h122l-29 -125h-122z" />
    <glyph glyph-name="yacute" unicode="&#xfd;" horiz-adv-x="413" 
d="M-15 -205l144 287l25 28l182 400h120l-355 -715h-116zM109 -9l-34 519h119v-444zM301 583h-90l95 157h154z" />
    <glyph glyph-name="thorn" unicode="&#xfe;" horiz-adv-x="468" 
d="M229 -10q-32 0 -58 15t-40 44t-11 68l14 -2l-75 -320h-114l213 925h114l-69 -302l-7 7q20 46 57 70.5t78 24.5q54 0 85 -47t31 -123q0 -70 -17.5 -135t-47.5 -115.5t-69.5 -80t-83.5 -29.5zM205 84q26 0 48.5 21t39.5 56.5t26.5 80.5t9.5 91q0 43 -15 68t-41 25
q-27 0 -47.5 -19t-35 -49t-23.5 -64.5t-13 -66.5t-4 -53q0 -45 15.5 -67.5t39.5 -22.5z" />
    <glyph glyph-name="ydieresis" unicode="&#xff;" horiz-adv-x="413" 
d="M-15 -205l144 287l25 28l182 400h120l-355 -715h-116zM109 -9l-34 519h119v-444zM331 595l29 125h122l-29 -125h-122zM129 595l29 125h122l-29 -125h-122z" />
    <glyph glyph-name="Amacron" unicode="&#x100;" horiz-adv-x="476" 
d="M-43 0l310 720h94l-289 -720h-115zM284 0l41 720h95l-19 -720h-117zM111 268h258l-21 -93h-258zM226 840l18 82h281l-18 -82h-281z" />
    <glyph glyph-name="amacron" unicode="&#x101;" horiz-adv-x="408" 
d="M209 0q-2 18 0.5 38.5t6.5 42.5l-5 1l63 276q3 17 3.5 34t-7.5 29.5t-30 12.5q-27 0 -44 -19.5t-26 -56.5h-100q17 79 64.5 120.5t122.5 41.5q60 0 90.5 -25t38 -64.5t-2.5 -82.5l-64 -277q-4 -19 -6 -36t0 -35h-104zM99 -10q-45 0 -70.5 28t-25.5 79q0 42 17.5 77
t51.5 61.5t84 44.5l140 51l-19 -84l-73 -28q-45 -18 -67.5 -42t-22.5 -56q0 -21 12.5 -33t33.5 -12q24 0 40.5 16t23.5 44l-6 -68q-21 -38 -51 -58t-68 -20zM150 630l18 82h281l-18 -82h-281z" />
    <glyph glyph-name="Abreve" unicode="&#x102;" horiz-adv-x="476" 
d="M-43 0l310 720h94l-289 -720h-115zM284 0l41 720h95l-19 -720h-117zM111 268h258l-21 -93h-258zM367 786q-42 0 -69 16.5t-41.5 42.5t-17 54t4.5 51h73q-5 -15 -0.5 -34t20 -32.5t42.5 -13.5q33 0 56.5 21t30.5 59h73q-16 -86 -64.5 -125t-107.5 -39z" />
    <glyph glyph-name="abreve" unicode="&#x103;" horiz-adv-x="408" 
d="M209 0q-2 18 0.5 38.5t6.5 42.5l-5 1l63 276q3 17 3.5 34t-7.5 29.5t-30 12.5q-27 0 -44 -19.5t-26 -56.5h-100q17 79 64.5 120.5t122.5 41.5q60 0 90.5 -25t38 -64.5t-2.5 -82.5l-64 -277q-4 -19 -6 -36t0 -35h-104zM99 -10q-45 0 -70.5 28t-25.5 79q0 42 17.5 77
t51.5 61.5t84 44.5l140 51l-19 -84l-73 -28q-45 -18 -67.5 -42t-22.5 -56q0 -21 12.5 -33t33.5 -12q24 0 40.5 16t23.5 44l-6 -68q-21 -38 -51 -58t-68 -20zM292 576q-42 0 -69 16.5t-41.5 42.5t-17 54t4.5 51h73q-5 -15 -0.5 -34t20 -32.5t42.5 -13.5q33 0 56.5 21t30.5 59
h73q-16 -86 -64.5 -125t-107.5 -39z" />
    <glyph glyph-name="Aogonek" unicode="&#x104;" horiz-adv-x="476" 
d="M-43 0l310 720h94l-289 -720h-115zM284 0l41 720h95l-19 -720h-117zM111 268h258l-21 -93h-258zM298 -216q-41 0 -63.5 19t-22.5 52q0 49 45 91t111 75l33 -21q-53 -39 -86 -69t-33 -60q0 -14 8 -21.5t20 -7.5q15 0 33 11l14 -54q-14 -7 -28 -11t-31 -4z" />
    <glyph glyph-name="aogonek" unicode="&#x105;" horiz-adv-x="408" 
d="M209 0q-2 18 0.5 38.5t6.5 42.5l-5 1l63 276q3 17 3.5 34t-7.5 29.5t-30 12.5q-27 0 -44 -19.5t-26 -56.5h-100q17 79 64.5 120.5t122.5 41.5q60 0 90.5 -25t38 -64.5t-2.5 -82.5l-64 -277q-4 -19 -6 -36t0 -35h-104zM99 -10q-45 0 -70.5 28t-25.5 79q0 42 17.5 77
t51.5 61.5t84 44.5l140 51l-19 -84l-73 -28q-45 -18 -67.5 -42t-22.5 -56q0 -21 12.5 -33t33.5 -12q24 0 40.5 16t23.5 44l-6 -68q-21 -38 -51 -58t-68 -20zM212 -216q-41 0 -63.5 19t-22.5 52q0 49 45 91t111 75l33 -21q-53 -39 -86 -69t-33 -60q0 -14 8 -21.5t20 -7.5
q15 0 33 11l14 -54q-14 -7 -28 -11t-31 -4z" />
    <glyph glyph-name="Cacute" unicode="&#x106;" horiz-adv-x="489" 
d="M210 -10q-55 0 -92.5 26t-56.5 76t-19 122q0 46 8 101.5t24.5 113.5t41.5 111.5t60 96.5t79 68t99 25q58 0 92 -27.5t50 -72t16.5 -94.5t-11.5 -94h-117q7 25 11 57.5t1.5 63.5t-16 51t-42.5 20q-34 0 -62 -31.5t-49 -82t-35.5 -109t-22 -114t-7.5 -95.5q0 -56 15 -85.5
t47 -29.5q38 0 69 47t54 144h117q-22 -97 -59 -161t-86 -95.5t-109 -31.5zM371 793h-90l95 157h154z" />
    <glyph glyph-name="cacute" unicode="&#x107;" horiz-adv-x="407" 
d="M168 -10q-44 0 -78 21t-52 63t-18 103q0 45 10 92.5t30 92t49 80t68 56.5t86 21q49 0 78.5 -19t44.5 -50.5t17 -67.5t-6 -69h-102q6 22 7 49t-8 46t-36 19q-25 0 -45 -19t-34 -49t-23.5 -65.5t-14.5 -69.5t-5 -60q0 -44 13 -63.5t34 -19.5q28 0 50 29t35 87h102
q-22 -102 -76.5 -154.5t-125.5 -52.5zM296 583h-90l95 157h154z" />
    <glyph glyph-name="Cdotaccent" unicode="&#x10a;" horiz-adv-x="489" 
d="M210 -10q-55 0 -92.5 26t-56.5 76t-19 122q0 46 8 101.5t24.5 113.5t41.5 111.5t60 96.5t79 68t99 25q58 0 92 -27.5t50 -72t16.5 -94.5t-11.5 -94h-117q7 25 11 57.5t1.5 63.5t-16 51t-42.5 20q-34 0 -62 -31.5t-49 -82t-35.5 -109t-22 -114t-7.5 -95.5q0 -56 15 -85.5
t47 -29.5q38 0 69 47t54 144h117q-22 -97 -59 -161t-86 -95.5t-109 -31.5zM299 803l27 127h124l-27 -127h-124z" />
    <glyph glyph-name="cdotaccent" unicode="&#x10b;" horiz-adv-x="407" 
d="M168 -10q-44 0 -78 21t-52 63t-18 103q0 45 10 92.5t30 92t49 80t68 56.5t86 21q49 0 78.5 -19t44.5 -50.5t17 -67.5t-6 -69h-102q6 22 7 49t-8 46t-36 19q-25 0 -45 -19t-34 -49t-23.5 -65.5t-14.5 -69.5t-5 -60q0 -44 13 -63.5t34 -19.5q28 0 50 29t35 87h102
q-22 -102 -76.5 -154.5t-125.5 -52.5zM223 593l27 127h124l-27 -127h-124z" />
    <glyph glyph-name="Ccaron" unicode="&#x10c;" horiz-adv-x="489" 
d="M210 -10q-55 0 -92.5 26t-56.5 76t-19 122q0 46 8 101.5t24.5 113.5t41.5 111.5t60 96.5t79 68t99 25q58 0 92 -27.5t50 -72t16.5 -94.5t-11.5 -94h-117q7 25 11 57.5t1.5 63.5t-16 51t-42.5 20q-34 0 -62 -31.5t-49 -82t-35.5 -109t-22 -114t-7.5 -95.5q0 -56 15 -85.5
t47 -29.5q38 0 69 47t54 144h117q-22 -97 -59 -161t-86 -95.5t-109 -31.5zM307 793l-69 157h74l91 -124h-86l148 124h90l-142 -157h-106z" />
    <glyph glyph-name="ccaron" unicode="&#x10d;" horiz-adv-x="407" 
d="M168 -10q-44 0 -78 21t-52 63t-18 103q0 45 10 92.5t30 92t49 80t68 56.5t86 21q49 0 78.5 -19t44.5 -50.5t17 -67.5t-6 -69h-102q6 22 7 49t-8 46t-36 19q-25 0 -45 -19t-34 -49t-23.5 -65.5t-14.5 -69.5t-5 -60q0 -44 13 -63.5t34 -19.5q28 0 50 29t35 87h102
q-22 -102 -76.5 -154.5t-125.5 -52.5zM231 583l-69 157h74l91 -124h-86l148 124h90l-142 -157h-106z" />
    <glyph glyph-name="Dcaron" unicode="&#x10e;" horiz-adv-x="519" 
d="M65 0l24 95h90q45 0 85.5 31t71.5 83.5t49 121t18 143.5q0 53 -9.5 86.5t-31.5 49.5t-59 16h-83l6 94h97q62 0 106 -28.5t67.5 -83.5t23.5 -135q0 -96 -27.5 -181.5t-75 -151t-109.5 -103t-132 -37.5h-111zM-1 0l165 720h118l-165 -720h-118zM306 793l-69 157h74l91 -124
h-86l148 124h90l-142 -157h-106z" />
    <glyph glyph-name="dcaron" unicode="&#x10f;" horiz-adv-x="554" 
d="M249 0l22 93l1 -8q-21 -46 -58 -70.5t-77 -24.5q-54 0 -85 47t-31 123q0 71 17.5 135.5t47.5 115t69.5 80t83.5 29.5q32 0 58 -15t40 -43.5t11 -68.5l-13 2l75 325h115l-166 -720h-110zM195 84q27 0 47 19t35 49t23.5 64.5t13 66.5t4.5 53q0 46 -15 68t-41 22
q-33 0 -61 -35.5t-45 -92t-17 -119.5q0 -42 15 -68.5t41 -26.5zM592 490h-74l53 230h99z" />
    <glyph glyph-name="Dcroat" unicode="&#x110;" horiz-adv-x="526" 
d="M14 315l21 93h274l-21 -93h-274zM72 0l24 95h90q45 0 85.5 31t71.5 83.5t49 121t18 143.5q0 53 -10 86.5t-31.5 49.5t-58.5 16h-83l6 94h97q62 0 106 -28.5t67 -83.5t23 -135q0 -96 -27 -181.5t-75 -151t-109.5 -103t-131.5 -37.5h-111zM5 0l165 720h118l-165 -720h-118z
" />
    <glyph glyph-name="dcroat" unicode="&#x111;" horiz-adv-x="469" 
d="M250 584l19 78h293l-18 -78h-294zM249 0l22 93l1 -8q-21 -46 -58 -70.5t-77 -24.5q-54 0 -85 47t-31 123q0 71 17.5 135.5t47.5 115t69.5 80t83.5 29.5q32 0 58 -15t40 -43.5t11 -68.5l-13 2l75 325h115l-166 -720h-110zM195 84q27 0 47 19t35 49t23.5 64.5t13 66.5
t4.5 53q0 46 -15 68t-41 22q-33 0 -61 -35.5t-45 -92t-17 -119.5q0 -42 15 -68.5t41 -26.5z" />
    <glyph glyph-name="Emacron" unicode="&#x112;" horiz-adv-x="418" 
d="M-2 0l166 720h118l-166 -720h-118zM60 0l21 94h258l-22 -94h-257zM135 326l21 93h238l-21 -93h-238zM204 626l22 94h249l-21 -94h-250zM213 840l18 82h281l-18 -82h-281z" />
    <glyph glyph-name="emacron" unicode="&#x113;" horiz-adv-x="427" 
d="M179 -10q-50 0 -85.5 23t-55 66t-19.5 100q0 38 9 83t27.5 90t47.5 83t70 60.5t95 22.5q46 0 78.5 -19t50 -55t17.5 -90q0 -34 -6.5 -69t-16.5 -58h-296l17 79h227l-35 -43q5 22 9 51t2 55.5t-14 44t-38 17.5q-30 0 -51.5 -21.5t-37 -55.5t-25 -72t-13.5 -71t-4 -53
q0 -41 14.5 -61t42.5 -20t48 20.5t34 64.5h102q-27 -83 -76.5 -127.5t-117.5 -44.5zM163 630l18 82h281l-18 -82h-281z" />
    <glyph glyph-name="Edotaccent" unicode="&#x116;" horiz-adv-x="418" 
d="M-2 0l166 720h118l-166 -720h-118zM60 0l21 94h258l-22 -94h-257zM135 326l21 93h238l-21 -93h-238zM204 626l22 94h249l-21 -94h-250zM282 803l27 127h124l-27 -127h-124z" />
    <glyph glyph-name="edotaccent" unicode="&#x117;" horiz-adv-x="427" 
d="M179 -10q-50 0 -85.5 23t-55 66t-19.5 100q0 38 9 83t27.5 90t47.5 83t70 60.5t95 22.5q46 0 78.5 -19t50 -55t17.5 -90q0 -34 -6.5 -69t-16.5 -58h-296l17 79h227l-35 -43q5 22 9 51t2 55.5t-14 44t-38 17.5q-30 0 -51.5 -21.5t-37 -55.5t-25 -72t-13.5 -71t-4 -53
q0 -41 14.5 -61t42.5 -20t48 20.5t34 64.5h102q-27 -83 -76.5 -127.5t-117.5 -44.5zM232 593l27 127h124l-27 -127h-124z" />
    <glyph glyph-name="Eogonek" unicode="&#x118;" horiz-adv-x="418" 
d="M-2 0l166 720h118l-166 -720h-118zM60 0l21 94h258l-22 -94h-257zM135 326l21 93h238l-21 -93h-238zM204 626l22 94h249l-21 -94h-250zM175 -216q-41 0 -63.5 19t-22.5 52q0 49 45 91t111 75l33 -21q-53 -39 -86 -69t-33 -60q0 -14 8 -21.5t20 -7.5q15 0 33 11l14 -54
q-14 -7 -28 -11t-31 -4z" />
    <glyph glyph-name="eogonek" unicode="&#x119;" horiz-adv-x="427" 
d="M179 -10q-50 0 -85.5 23t-55 66t-19.5 100q0 38 9 83t27.5 90t47.5 83t70 60.5t95 22.5q46 0 78.5 -19t50 -55t17.5 -90q0 -34 -6.5 -69t-16.5 -58h-296l17 79h227l-35 -43q5 22 9 51t2 55.5t-14 44t-38 17.5q-30 0 -51.5 -21.5t-37 -55.5t-25 -72t-13.5 -71t-4 -53
q0 -41 14.5 -61t42.5 -20t48 20.5t34 64.5h102q-27 -83 -76.5 -127.5t-117.5 -44.5zM161 -196q-41 0 -63.5 19t-22.5 52q0 49 45 91t111 75l33 -21q-53 -39 -86 -69t-33 -60q0 -14 8 -21.5t20 -7.5q15 0 33 11l14 -54q-14 -7 -28 -11t-31 -4z" />
    <glyph glyph-name="Ecaron" unicode="&#x11a;" horiz-adv-x="418" 
d="M-2 0l166 720h118l-166 -720h-118zM60 0l21 94h258l-22 -94h-257zM135 326l21 93h238l-21 -93h-238zM204 626l22 94h249l-21 -94h-250zM290 793l-69 157h74l91 -124h-86l148 124h90l-142 -157h-106z" />
    <glyph glyph-name="ecaron" unicode="&#x11b;" horiz-adv-x="427" 
d="M179 -10q-50 0 -85.5 23t-55 66t-19.5 100q0 38 9 83t27.5 90t47.5 83t70 60.5t95 22.5q46 0 78.5 -19t50 -55t17.5 -90q0 -34 -6.5 -69t-16.5 -58h-296l17 79h227l-35 -43q5 22 9 51t2 55.5t-14 44t-38 17.5q-30 0 -51.5 -21.5t-37 -55.5t-25 -72t-13.5 -71t-4 -53
q0 -41 14.5 -61t42.5 -20t48 20.5t34 64.5h102q-27 -83 -76.5 -127.5t-117.5 -44.5zM240 583l-69 157h74l91 -124h-86l148 124h90l-142 -157h-106z" />
    <glyph glyph-name="Gbreve" unicode="&#x11e;" horiz-adv-x="502" 
d="M224 -10q-63 0 -103 27t-59.5 79t-18.5 126q1 55 12.5 123t35.5 135.5t61 124t87.5 91t115.5 34.5q53 0 86 -24t50 -62.5t20 -84t-4 -87.5h-116q5 26 6.5 54.5t-3 52.5t-17.5 39.5t-39 15.5q-34 0 -61.5 -31.5t-48.5 -82t-35.5 -109t-22 -114t-7.5 -95.5q-1 -60 17 -88
t57 -28q24 0 42 7.5t32 25.5l109 -32q-41 -51 -91.5 -74t-104.5 -23zM302 82l56 243l24 -31h-117l21 94h204l-70 -301zM398 786q-42 0 -69 16.5t-41.5 42.5t-17 54t4.5 51h73q-5 -15 -0.5 -34t20 -32.5t42.5 -13.5q33 0 56.5 21t30.5 59h73q-16 -86 -64.5 -125t-107.5 -39z
" />
    <glyph glyph-name="gbreve" unicode="&#x11f;" horiz-adv-x="469" 
d="M147 -215q-63 0 -101 24t-53 61t-10 76h106q-2 -26 15 -44t51 -18q31 0 52 18.5t30 57.5l31 133l6 -8q-20 -46 -57 -70.5t-78 -24.5q-54 0 -85.5 48t-31.5 124q0 71 17 135t47 114.5t69 79.5t83 29q33 0 58.5 -15t40 -43.5t11.5 -68.5l-5 2l26 115h106l-121 -541
q-20 -89 -75 -136.5t-132 -47.5zM197 84q27 0 47 18.5t34.5 48.5t23 64.5t12.5 66t4 53.5q0 47 -15 69t-41 22q-34 0 -62 -35.5t-44 -92t-16 -119.5q0 -42 15.5 -68.5t41.5 -26.5zM314 576q-42 0 -69 16.5t-41.5 42.5t-17 54t4.5 51h73q-5 -15 -0.5 -34t20 -32.5t42.5 -13.5
q33 0 56.5 21t30.5 59h73q-16 -86 -64.5 -125t-107.5 -39z" />
    <glyph glyph-name="Gdotaccent" unicode="&#x120;" horiz-adv-x="502" 
d="M224 -10q-63 0 -103 27t-59.5 79t-18.5 126q1 55 12.5 123t35.5 135.5t61 124t87.5 91t115.5 34.5q53 0 86 -24t50 -62.5t20 -84t-4 -87.5h-116q5 26 6.5 54.5t-3 52.5t-17.5 39.5t-39 15.5q-34 0 -61.5 -31.5t-48.5 -82t-35.5 -109t-22 -114t-7.5 -95.5q-1 -60 17 -88
t57 -28q24 0 42 7.5t32 25.5l109 -32q-41 -51 -91.5 -74t-104.5 -23zM302 82l56 243l24 -31h-117l21 94h204l-70 -301zM325 803l27 127h124l-27 -127h-124z" />
    <glyph glyph-name="gdotaccent" unicode="&#x121;" horiz-adv-x="469" 
d="M147 -215q-63 0 -101 24t-53 61t-10 76h106q-2 -26 15 -44t51 -18q31 0 52 18.5t30 57.5l31 133l6 -8q-20 -46 -57 -70.5t-78 -24.5q-54 0 -85.5 48t-31.5 124q0 71 17 135t47 114.5t69 79.5t83 29q33 0 58.5 -15t40 -43.5t11.5 -68.5l-5 2l26 115h106l-121 -541
q-20 -89 -75 -136.5t-132 -47.5zM197 84q27 0 47 18.5t34.5 48.5t23 64.5t12.5 66t4 53.5q0 47 -15 69t-41 22q-34 0 -62 -35.5t-44 -92t-16 -119.5q0 -42 15.5 -68.5t41.5 -26.5zM241 593l27 127h124l-27 -127h-124z" />
    <glyph glyph-name="uni0122" unicode="&#x122;" horiz-adv-x="502" 
d="M224 -10q-63 0 -103 27t-59.5 79t-18.5 126q1 55 12.5 123t35.5 135.5t61 124t87.5 91t115.5 34.5q53 0 86 -24t50 -62.5t20 -84t-4 -87.5h-116q5 26 6.5 54.5t-3 52.5t-17.5 39.5t-39 15.5q-34 0 -61.5 -31.5t-48.5 -82t-35.5 -109t-22 -114t-7.5 -95.5q-1 -60 17 -88
t57 -28q24 0 42 7.5t32 25.5l109 -32q-41 -51 -91.5 -74t-104.5 -23zM302 82l56 243l24 -31h-117l21 94h204l-70 -301zM68 -317l12 54q33 6 53 24t28 52l40 -8h-105l28 122h125l-23 -100q-14 -66 -55.5 -99t-102.5 -45z" />
    <glyph glyph-name="uni0123" unicode="&#x123;" horiz-adv-x="469" 
d="M147 -215q-63 0 -101 24t-53 61t-10 76h106q-2 -26 15 -44t51 -18q31 0 52 18.5t30 57.5l31 133l6 -8q-20 -46 -57 -70.5t-78 -24.5q-54 0 -85.5 48t-31.5 124q0 71 17 135t47 114.5t69 79.5t83 29q33 0 58.5 -15t40 -43.5t11.5 -68.5l-5 2l26 115h106l-121 -541
q-20 -89 -75 -136.5t-132 -47.5zM197 84q27 0 47 18.5t34.5 48.5t23 64.5t12.5 66t4 53.5q0 47 -15 69t-41 22q-34 0 -62 -35.5t-44 -92t-16 -119.5q0 -42 15.5 -68.5t41.5 -26.5zM240 583l25 109q13 59 54 91t102 44l-12 -54q-34 -5 -53.5 -23.5t-27.5 -52.5l-41 8h105
l-27 -122h-125z" />
    <glyph glyph-name="Hbar" unicode="&#x126;" horiz-adv-x="523" 
d="M71 533l21 93h509l-21 -93h-509zM5 0l165 720h118l-165 -720h-118zM282 0l165 720h118l-165 -720h-118zM165 422h271l-22 -94h-271z" />
    <glyph glyph-name="hbar" unicode="&#x127;" horiz-adv-x="455" 
d="M76 584l19 78h293l-18 -78h-294zM-8 0l166 720h114l-166 -720h-114zM235 0l83 360q8 35 -3 52.5t-40 17.5q-32 0 -56.5 -25t-35.5 -72l2 76q25 55 65.5 83t89.5 28q57 0 84 -39.5t13 -102.5l-87 -378h-115z" />
    <glyph glyph-name="Imacron" unicode="&#x12a;" horiz-adv-x="231" 
d="M-2 0l166 720h118l-166 -720h-118zM110 840l18 82h281l-18 -82h-281z" />
    <glyph glyph-name="imacron" unicode="&#x12b;" horiz-adv-x="217" 
d="M-7 0l117 510h114l-117 -510h-114zM54 630l18 82h281l-18 -82h-281z" />
    <glyph glyph-name="Iogonek" unicode="&#x12e;" horiz-adv-x="231" 
d="M-2 0l166 720h118l-166 -720h-118zM13 -216q-41 0 -63.5 19t-22.5 52q0 49 45 91t111 75l33 -21q-53 -39 -86 -69t-33 -60q0 -14 8 -21.5t20 -7.5q15 0 33 11l14 -54q-14 -7 -28 -11t-31 -4z" />
    <glyph glyph-name="iogonek" unicode="&#x12f;" horiz-adv-x="217" 
d="M-7 0l117 510h114l-117 -510h-114zM123 593l27 127h124l-27 -127h-124zM5 -216q-41 0 -63.5 19t-22.5 52q0 49 45 91t111 75l33 -21q-53 -39 -86 -69t-33 -60q0 -14 8 -21.5t20 -7.5q15 0 33 11l14 -54q-14 -7 -28 -11t-31 -4z" />
    <glyph glyph-name="Idotaccent" unicode="&#x130;" horiz-adv-x="231" 
d="M-2 0l166 720h118l-166 -720h-118zM178 803l27 127h124l-27 -127h-124z" />
    <glyph glyph-name="dotlessi" unicode="&#x131;" horiz-adv-x="217" 
d="M-7 0l117 510h114l-117 -510h-114z" />
    <glyph glyph-name="IJ" unicode="&#x132;" horiz-adv-x="535" 
d="M-2 0l166 720h118l-166 -720h-118zM261 -10q-29 0 -47.5 3.5t-29.5 9.5l21 92q9 -3 23.5 -6t30.5 -3q34 0 54 14.5t28 52.5l131 567h118l-135 -582q-18 -81 -66.5 -114.5t-127.5 -33.5z" />
    <glyph glyph-name="ij" unicode="&#x133;" horiz-adv-x="433" 
d="M-7 0l117 510h114l-117 -510h-114zM123 593l27 127h124l-27 -127h-124zM163 -215q-12 0 -33.5 2.5t-37.5 10.5l20 86q5 -3 14 -5.5t20 -2.5q17 0 28 9t15 26l138 599h114l-143 -618q-11 -51 -45.5 -79t-89.5 -28zM340 593l27 127h124l-27 -127h-124z" />
    <glyph glyph-name="uni0136" unicode="&#x136;" horiz-adv-x="491" 
d="M-2 0l166 720h118l-166 -720h-118zM176 367l254 353h135l-260 -346zM297 0l-105 374h113l114 -374h-122zM64 -317l12 54q33 6 53 24t28 52l40 -8h-105l28 122h125l-23 -100q-14 -66 -55.5 -99t-102.5 -45z" />
    <glyph glyph-name="uni0137" unicode="&#x137;" horiz-adv-x="426" 
d="M-8 0l166 720h114l-166 -720h-114zM240 0l-84 265l178 245h130l-207 -267l-5 46l104 -289h-116zM32 -317l12 54q33 6 53 24t28 52l40 -8h-105l28 122h125l-23 -100q-14 -66 -55.5 -99t-102.5 -45z" />
    <glyph glyph-name="Lacute" unicode="&#x139;" horiz-adv-x="385" 
d="M-2 0l166 720h118l-166 -720h-118zM60 0l21 94h232l-22 -94h-231zM250 793h-90l95 157h154z" />
    <glyph glyph-name="lacute" unicode="&#x13a;" horiz-adv-x="216" 
d="M-8 0l166 720h114l-166 -720h-114zM243 793h-90l95 157h154z" />
    <glyph glyph-name="uni013B" unicode="&#x13b;" horiz-adv-x="385" 
d="M-2 0l166 720h118l-166 -720h-118zM60 0l21 94h232l-22 -94h-231zM13 -317l12 54q33 6 53 24t28 52l40 -8h-105l28 122h125l-23 -100q-14 -66 -55.5 -99t-102.5 -45z" />
    <glyph glyph-name="uni013C" unicode="&#x13c;" horiz-adv-x="216" 
d="M-8 0l166 720h114l-166 -720h-114zM-87 -317l12 54q33 6 53 24t28 52l40 -8h-105l28 122h125l-23 -100q-14 -66 -55.5 -99t-102.5 -45z" />
    <glyph glyph-name="Lcaron" unicode="&#x13d;" horiz-adv-x="385" 
d="M-2 0l166 720h118l-166 -720h-118zM60 0l21 94h232l-22 -94h-231zM393 490h-74l53 230h99z" />
    <glyph glyph-name="lcaron" unicode="&#x13e;" horiz-adv-x="302" 
d="M-8 0l166 720h114l-166 -720h-114zM339 490h-74l53 230h99z" />
    <glyph glyph-name="Lslash" unicode="&#x141;" horiz-adv-x="392" 
d="M144 328l-141 -62l21 90l140 62zM172 426l168 76l-21 -90l-167 -76zM4 0l166 720h118l-166 -720h-118zM66 0l22 94h231l-21 -94h-232z" />
    <glyph glyph-name="lslash" unicode="&#x142;" horiz-adv-x="243" 
d="M144 338l-132 -59l19 82l132 58zM164 427l125 56l-19 -81l-124 -56zM5 0l166 720h115l-166 -720h-115z" />
    <glyph glyph-name="Nacute" unicode="&#x143;" horiz-adv-x="514" 
d="M-2 0l166 720h138l37 -613l-24 -2l141 615h109l-166 -720h-139l-38 613l26 2l-142 -615h-108zM393 793h-90l95 157h154z" />
    <glyph glyph-name="nacute" unicode="&#x144;" horiz-adv-x="456" 
d="M-7 0l117 510h109l-22 -96h5l-95 -414h-114zM235 0l83 360q8 35 -3 52.5t-40 17.5q-32 0 -56.5 -25t-34.5 -71l2 76q24 54 64.5 82t89.5 28q57 0 84.5 -39.5t13.5 -102.5l-88 -378h-115zM329 583h-90l95 157h154z" />
    <glyph glyph-name="uni0145" unicode="&#x145;" horiz-adv-x="514" 
d="M-2 0l166 720h138l37 -613l-24 -2l141 615h109l-166 -720h-139l-38 613l26 2l-142 -615h-108zM63 -317l12 54q33 6 53 24t28 52l40 -8h-105l28 122h125l-23 -100q-14 -66 -55.5 -99t-102.5 -45z" />
    <glyph glyph-name="uni0146" unicode="&#x146;" horiz-adv-x="456" 
d="M-7 0l117 510h109l-22 -96h5l-95 -414h-114zM235 0l83 360q8 35 -3 52.5t-40 17.5q-32 0 -56.5 -25t-34.5 -71l2 76q24 54 64.5 82t89.5 28q57 0 84.5 -39.5t13.5 -102.5l-88 -378h-115zM37 -317l12 54q33 6 53 24t28 52l40 -8h-105l28 122h125l-23 -100
q-14 -66 -55.5 -99t-102.5 -45z" />
    <glyph glyph-name="Ncaron" unicode="&#x147;" horiz-adv-x="514" 
d="M-2 0l166 720h138l37 -613l-24 -2l141 615h109l-166 -720h-139l-38 613l26 2l-142 -615h-108zM328 793l-69 157h74l91 -124h-86l148 124h90l-142 -157h-106z" />
    <glyph glyph-name="ncaron" unicode="&#x148;" horiz-adv-x="456" 
d="M-7 0l117 510h109l-22 -96h5l-95 -414h-114zM235 0l83 360q8 35 -3 52.5t-40 17.5q-32 0 -56.5 -25t-34.5 -71l2 76q24 54 64.5 82t89.5 28q57 0 84.5 -39.5t13.5 -102.5l-88 -378h-115zM264 583l-69 157h74l91 -124h-86l148 124h90l-142 -157h-106z" />
    <glyph glyph-name="Eng" unicode="&#x14a;" horiz-adv-x="514" 
d="M-2 0l166 720h138l59 -539l-30 -2l124 541h109l-166 -720h-110l-63 593l18 2l-137 -595h-108zM212 -215q-29 0 -44 2t-26 6l21 94q7 -2 17.5 -4t24.5 -2q25 0 41 13t24 50l22 92l106 -36l-16 -67q-17 -73 -57 -110.5t-113 -37.5z" />
    <glyph glyph-name="eng" unicode="&#x14b;" horiz-adv-x="455" 
d="M190 -215q-13 0 -34.5 2.5t-37.5 10.5l20 86q5 -3 14 -5.5t20 -2.5q17 0 28 9t15 26l103 449q8 35 -3 52.5t-40 17.5q-32 0 -56.5 -25t-34.5 -71l2 76q24 54 64.5 82t89.5 28q57 0 84 -39.5t13 -102.5l-112 -486q-12 -51 -46 -79t-89 -28zM-7 0l117 510h109l-22 -96h5
l-95 -414h-114z" />
    <glyph glyph-name="Omacron" unicode="&#x14c;" horiz-adv-x="524" 
d="M216 -9q-50 0 -88.5 27t-60 78.5t-21.5 124.5q0 103 24 194.5t66.5 162t98.5 111t120 40.5q53 0 92 -27.5t60.5 -81t19.5 -129.5q-1 -100 -26 -190t-68 -160t-98 -110t-119 -40zM229 87q34 0 66 38t58.5 101t42 140t15.5 154q0 36 -8 61.5t-23.5 38.5t-37.5 13
q-33 0 -65 -37.5t-58 -101t-41.5 -140t-15.5 -155.5q0 -35 8 -60t23 -38.5t36 -13.5zM256 840l18 82h281l-18 -82h-281z" />
    <glyph glyph-name="omacron" unicode="&#x14d;" horiz-adv-x="451" 
d="M183 -10q-46 0 -82.5 22t-57.5 66.5t-21 110.5q0 65 18.5 125t51.5 106t78 73t99 27q49 0 85 -23.5t55.5 -67.5t19.5 -105q0 -66 -18.5 -126t-52.5 -107t-78.5 -74t-96.5 -27zM191 82q25 0 47 22.5t39 60.5t27 82.5t10 87.5q0 47 -14 70t-40 23q-25 0 -47.5 -22.5
t-39 -59.5t-26.5 -82t-10 -89q0 -47 14.5 -70t39.5 -23zM170 630l18 82h281l-18 -82h-281z" />
    <glyph glyph-name="Ohungarumlaut" unicode="&#x150;" horiz-adv-x="524" 
d="M216 -9q-50 0 -88.5 27t-60 78.5t-21.5 124.5q0 103 24 194.5t66.5 162t98.5 111t120 40.5q53 0 92 -27.5t60.5 -81t19.5 -129.5q-1 -100 -26 -190t-68 -160t-98 -110t-119 -40zM229 87q34 0 66 38t58.5 101t42 140t15.5 154q0 36 -8 61.5t-23.5 38.5t-37.5 13
q-33 0 -65 -37.5t-58 -101t-41.5 -140t-15.5 -155.5q0 -35 8 -60t23 -38.5t36 -13.5zM332 793h-82l67 157h130zM504 793h-81l66 157h131z" />
    <glyph glyph-name="ohungarumlaut" unicode="&#x151;" horiz-adv-x="451" 
d="M183 -10q-46 0 -82.5 22t-57.5 66.5t-21 110.5q0 65 18.5 125t51.5 106t78 73t99 27q49 0 85 -23.5t55.5 -67.5t19.5 -105q0 -66 -18.5 -126t-52.5 -107t-78.5 -74t-96.5 -27zM191 82q25 0 47 22.5t39 60.5t27 82.5t10 87.5q0 47 -14 70t-40 23q-25 0 -47.5 -22.5
t-39 -59.5t-26.5 -82t-10 -89q0 -47 14.5 -70t39.5 -23zM246 583h-82l67 157h130zM418 583h-81l66 157h131z" />
    <glyph glyph-name="OE" unicode="&#x152;" horiz-adv-x="692" 
d="M217 -10q-51 0 -89.5 26.5t-60 79t-21.5 129.5q0 79 16 154t45.5 138.5t70.5 111t92.5 74.5t111.5 27q42 0 70.5 -9.5t50.5 -30.5l-64 -82q-9 11 -28 18.5t-44 7.5q-36 0 -68 -25.5t-57 -69t-43 -99t-27.5 -117t-9.5 -121.5q0 -56 19 -86t62 -30q19 0 33.5 3.5t27 9
t21.5 13.5l27 -82q-32 -21 -64.5 -30.5t-70.5 -9.5zM281 0l166 720h302l-23 -94h-183l-48 -207h173l-22 -93h-172l-54 -232h192l-21 -94h-310z" />
    <glyph glyph-name="oe" unicode="&#x153;" horiz-adv-x="668" 
d="M173 -10q-41 0 -75.5 22t-55 66.5t-20.5 110.5q0 65 18 125t50.5 106t75.5 73t93 27q44 0 75.5 -23.5t48 -67.5t16.5 -105q0 -66 -17 -126t-47.5 -107t-72 -74t-89.5 -27zM181 82q21 0 41 22.5t36 60.5t26 82.5t10 87.5q0 47 -11.5 70t-32.5 23q-24 0 -44.5 -22.5
t-35.5 -59.5t-24 -82t-9 -89q0 -47 11.5 -70t32.5 -23zM430 -10q-45 0 -76 23t-47.5 66t-16.5 100q0 38 8 83t24.5 90t43 83t64.5 60.5t89 22.5q42 0 72.5 -19t47 -55t16.5 -90q0 -34 -6.5 -69t-16.5 -58h-276l17 79h207l-35 -43q6 22 10 51t3 55.5t-11 44t-33 17.5
q-27 0 -46.5 -21.5t-34 -55.5t-23.5 -72t-13 -71t-4 -53q0 -41 13.5 -61t33.5 -20q21 0 39.5 20.5t33.5 64.5h101q-27 -83 -75 -127.5t-109 -44.5z" />
    <glyph glyph-name="Racute" unicode="&#x154;" horiz-adv-x="457" 
d="M-2 0l166 720h161q53 0 89.5 -23t56 -63t18.5 -91q-1 -64 -31.5 -118.5t-84.5 -87t-123 -32.5h-93l21 89h72q36 0 63.5 20.5t43.5 53.5t16 72q1 38 -16 62t-52 24h-45l-144 -626h-118zM270 0l-86 374h108l101 -374h-123zM364 793h-90l95 157h154z" />
    <glyph glyph-name="racute" unicode="&#x155;" horiz-adv-x="300" 
d="M-8 0l118 510h109l-27 -119h5l-91 -391h-114zM178 312l4 85q30 66 62.5 94.5t69.5 28.5q7 0 15 -1t15 -5l-26 -112q-6 2 -18 3.5t-19 1.5q-37 0 -64.5 -22.5t-38.5 -72.5zM252 583h-90l95 157h154z" />
    <glyph glyph-name="uni0156" unicode="&#x156;" horiz-adv-x="457" 
d="M-2 0l166 720h161q53 0 89.5 -23t56 -63t18.5 -91q-1 -64 -31.5 -118.5t-84.5 -87t-123 -32.5h-93l21 89h72q36 0 63.5 20.5t43.5 53.5t16 72q1 38 -16 62t-52 24h-45l-144 -626h-118zM270 0l-86 374h108l101 -374h-123zM34 -317l12 54q33 6 53 24t28 52l40 -8h-105
l28 122h125l-23 -100q-14 -66 -55.5 -99t-102.5 -45z" />
    <glyph glyph-name="uni0157" unicode="&#x157;" horiz-adv-x="300" 
d="M-8 0l118 510h109l-27 -119h5l-91 -391h-114zM178 312l4 85q30 66 62.5 94.5t69.5 28.5q7 0 15 -1t15 -5l-26 -112q-6 2 -18 3.5t-19 1.5q-37 0 -64.5 -22.5t-38.5 -72.5zM-90 -317l12 54q33 6 53 24t28 52l40 -8h-105l28 122h125l-23 -100q-14 -66 -55.5 -99t-102.5 -45
z" />
    <glyph glyph-name="Rcaron" unicode="&#x158;" horiz-adv-x="457" 
d="M-2 0l166 720h161q53 0 89.5 -23t56 -63t18.5 -91q-1 -64 -31.5 -118.5t-84.5 -87t-123 -32.5h-93l21 89h72q36 0 63.5 20.5t43.5 53.5t16 72q1 38 -16 62t-52 24h-45l-144 -626h-118zM270 0l-86 374h108l101 -374h-123zM299 793l-69 157h74l91 -124h-86l148 124h90
l-142 -157h-106z" />
    <glyph glyph-name="rcaron" unicode="&#x159;" horiz-adv-x="300" 
d="M-8 0l118 510h109l-27 -119h5l-91 -391h-114zM178 312l4 85q30 66 62.5 94.5t69.5 28.5q7 0 15 -1t15 -5l-26 -112q-6 2 -18 3.5t-19 1.5q-37 0 -64.5 -22.5t-38.5 -72.5zM187 583l-69 157h74l91 -124h-86l148 124h90l-142 -157h-106z" />
    <glyph glyph-name="Sacute" unicode="&#x15a;" horiz-adv-x="441" 
d="M188 -10q-56 0 -94 20.5t-58 55t-23.5 77.5t8.5 87h109q-6 -21 -7 -46.5t5.5 -48t23.5 -37t47 -14.5q38 0 60 29.5t22 74.5q0 26 -8 50.5t-31 48.5l-62 71q-31 35 -49.5 75.5t-18.5 86.5q0 56 23.5 103.5t68.5 76.5t111 29q52 0 85.5 -19t50.5 -50t19 -69t-8 -77h-107
q7 26 7 54t-13 47.5t-46 19.5q-26 0 -43.5 -14.5t-25.5 -36.5t-8 -44q0 -27 10 -49.5t32 -46.5l61 -70q33 -38 49.5 -81t16.5 -95q0 -56 -23.5 -103.5t-69.5 -76t-114 -28.5zM354 793h-90l95 157h154z" />
    <glyph glyph-name="sacute" unicode="&#x15b;" horiz-adv-x="353" 
d="M140 -10q-52 0 -87 22.5t-48.5 60.5t-4.5 85h94q-3 -19 0.5 -38t16 -31.5t37.5 -12.5q28 0 43 16.5t15 42.5q0 19 -9 35t-28 32l-44 39q-30 25 -44.5 53t-14.5 65q0 46 21 82.5t58 57.5t85 21q45 0 74 -19.5t40.5 -53t4.5 -78.5h-94q3 16 1 30.5t-11 24t-29 9.5
q-24 0 -37.5 -16t-13.5 -41q0 -16 7.5 -29.5t24.5 -29.5l50 -43q28 -24 43 -55t15 -70q0 -47 -20.5 -83t-58 -56t-86.5 -20zM263 583h-90l95 157h154z" />
    <glyph glyph-name="Scedilla" unicode="&#x15e;" horiz-adv-x="441" 
d="M188 -10q-56 0 -94 20.5t-58 55t-23.5 77.5t8.5 87h109q-6 -21 -7 -46.5t5.5 -48t23.5 -37t47 -14.5q38 0 60 29.5t22 74.5q0 26 -8 50.5t-31 48.5l-62 71q-31 35 -49.5 75.5t-18.5 86.5q0 56 23.5 103.5t68.5 76.5t111 29q52 0 85.5 -19t50.5 -50t19 -69t-8 -77h-107
q7 26 7 54t-13 47.5t-46 19.5q-26 0 -43.5 -14.5t-25.5 -36.5t-8 -44q0 -27 10 -49.5t32 -46.5l61 -70q33 -38 49.5 -81t16.5 -95q0 -56 -23.5 -103.5t-69.5 -76t-114 -28.5zM136 -215q-32 0 -55 12.5t-34.5 32.5t-7.5 43h64q-1 -11 9 -20.5t27 -9.5t26.5 9.5t9.5 22.5
q0 17 -14.5 28.5t-47.5 18.5l38 90h61l-21 -57q24 -11 38 -31.5t14 -45.5q0 -39 -29 -66t-78 -27z" />
    <glyph glyph-name="scedilla" unicode="&#x15f;" horiz-adv-x="353" 
d="M140 -10q-52 0 -87 22.5t-48.5 60.5t-4.5 85h94q-3 -19 0.5 -38t16 -31.5t37.5 -12.5q28 0 43 16.5t15 42.5q0 19 -9 35t-28 32l-44 39q-30 25 -44.5 53t-14.5 65q0 46 21 82.5t58 57.5t85 21q45 0 74 -19.5t40.5 -53t4.5 -78.5h-94q3 16 1 30.5t-11 24t-29 9.5
q-24 0 -37.5 -16t-13.5 -41q0 -16 7.5 -29.5t24.5 -29.5l50 -43q28 -24 43 -55t15 -70q0 -47 -20.5 -83t-58 -56t-86.5 -20zM83 -215q-32 0 -55 12.5t-34.5 32.5t-7.5 43h64q-1 -11 9 -20.5t27 -9.5t26.5 9.5t9.5 22.5q0 17 -14.5 28.5t-47.5 18.5l38 90h61l-21 -57
q24 -11 38 -31.5t14 -45.5q0 -39 -29 -66t-78 -27z" />
    <glyph glyph-name="Scaron" unicode="&#x160;" horiz-adv-x="441" 
d="M188 -10q-56 0 -94 20.5t-58 55t-23.5 77.5t8.5 87h109q-6 -21 -7 -46.5t5.5 -48t23.5 -37t47 -14.5q38 0 60 29.5t22 74.5q0 26 -8 50.5t-31 48.5l-62 71q-31 35 -49.5 75.5t-18.5 86.5q0 56 23.5 103.5t68.5 76.5t111 29q52 0 85.5 -19t50.5 -50t19 -69t-8 -77h-107
q7 26 7 54t-13 47.5t-46 19.5q-26 0 -43.5 -14.5t-25.5 -36.5t-8 -44q0 -27 10 -49.5t32 -46.5l61 -70q33 -38 49.5 -81t16.5 -95q0 -56 -23.5 -103.5t-69.5 -76t-114 -28.5zM289 793l-69 157h74l91 -124h-86l148 124h90l-142 -157h-106z" />
    <glyph glyph-name="scaron" unicode="&#x161;" horiz-adv-x="353" 
d="M140 -10q-52 0 -87 22.5t-48.5 60.5t-4.5 85h94q-3 -19 0.5 -38t16 -31.5t37.5 -12.5q28 0 43 16.5t15 42.5q0 19 -9 35t-28 32l-44 39q-30 25 -44.5 53t-14.5 65q0 46 21 82.5t58 57.5t85 21q45 0 74 -19.5t40.5 -53t4.5 -78.5h-94q3 16 1 30.5t-11 24t-29 9.5
q-24 0 -37.5 -16t-13.5 -41q0 -16 7.5 -29.5t24.5 -29.5l50 -43q28 -24 43 -55t15 -70q0 -47 -20.5 -83t-58 -56t-86.5 -20zM199 583l-69 157h74l91 -124h-86l148 124h90l-142 -157h-106z" />
    <glyph glyph-name="Tcaron" unicode="&#x164;" horiz-adv-x="425" 
d="M94 0l144 626h-139l21 94h399l-23 -94h-140l-144 -626h-118zM283 793l-69 157h74l91 -124h-86l148 124h90l-142 -157h-106z" />
    <glyph glyph-name="tcaron" unicode="&#x165;" horiz-adv-x="298" 
d="M164 -10q-71 0 -100 39t-13 111l107 466l126 50l-121 -524q-5 -26 5.5 -38.5t38.5 -12.5q10 0 20 2t18 5l-21 -88q-11 -5 -25.5 -7.5t-34.5 -2.5zM49 419l21 91h269l-21 -91h-269zM385 543h-74l53 230h99z" />
    <glyph glyph-name="Umacron" unicode="&#x16a;" horiz-adv-x="491" 
d="M210 -10q-65 0 -107.5 29t-58 81.5t0.5 121.5l114 498h118l-123 -534q-6 -31 -1.5 -53t21 -34t41.5 -12q35 0 56 20.5t30 62.5l127 550h118l-125 -538q-21 -94 -74.5 -143t-136.5 -49zM239 840l18 82h281l-18 -82h-281z" />
    <glyph glyph-name="umacron" unicode="&#x16b;" horiz-adv-x="447" 
d="M112 -10q-55 0 -81.5 39.5t-12.5 102.5l88 378h114l-83 -360q-8 -34 3 -52t37 -18q30 0 53.5 25t33.5 71l-2 -76q-24 -54 -63.5 -82t-86.5 -28zM229 0l23 96h-6l95 414h115l-118 -510h-109zM170 630l18 82h281l-18 -82h-281z" />
    <glyph glyph-name="Ubreve" unicode="&#x16c;" horiz-adv-x="491" 
d="M210 -10q-65 0 -107.5 29t-58 81.5t0.5 121.5l114 498h118l-123 -534q-6 -31 -1.5 -53t21 -34t41.5 -12q35 0 56 20.5t30 62.5l127 550h118l-125 -538q-21 -94 -74.5 -143t-136.5 -49zM381 786q-42 0 -69 16.5t-41.5 42.5t-17 54t4.5 51h73q-5 -15 -0.5 -34t20 -32.5
t42.5 -13.5q33 0 56.5 21t30.5 59h73q-16 -86 -64.5 -125t-107.5 -39z" />
    <glyph glyph-name="ubreve" unicode="&#x16d;" horiz-adv-x="447" 
d="M112 -10q-55 0 -81.5 39.5t-12.5 102.5l88 378h114l-83 -360q-8 -34 3 -52t37 -18q30 0 53.5 25t33.5 71l-2 -76q-24 -54 -63.5 -82t-86.5 -28zM229 0l23 96h-6l95 414h115l-118 -510h-109zM311 576q-42 0 -69 16.5t-41.5 42.5t-17 54t4.5 51h73q-5 -15 -0.5 -34
t20 -32.5t42.5 -13.5q33 0 56.5 21t30.5 59h73q-16 -86 -64.5 -125t-107.5 -39z" />
    <glyph glyph-name="Uring" unicode="&#x16e;" horiz-adv-x="491" 
d="M210 -10q-65 0 -107.5 29t-58 81.5t0.5 121.5l114 498h118l-123 -534q-6 -31 -1.5 -53t21 -34t41.5 -12q35 0 56 20.5t30 62.5l127 550h118l-125 -538q-21 -94 -74.5 -143t-136.5 -49zM377 771q-41 0 -69 27.5t-28 68.5q0 33 16 60t42.5 43t57.5 16q42 0 70 -27.5
t28 -68.5q0 -31 -16.5 -58.5t-43 -44t-57.5 -16.5zM381 830q21 0 36.5 16t15.5 39q0 17 -11 29.5t-29 12.5q-20 0 -36 -15.5t-16 -38.5q0 -19 11.5 -31t28.5 -12z" />
    <glyph glyph-name="uring" unicode="&#x16f;" horiz-adv-x="447" 
d="M112 -10q-55 0 -81.5 39.5t-12.5 102.5l88 378h114l-83 -360q-8 -34 3 -52t37 -18q30 0 53.5 25t33.5 71l-2 -76q-24 -54 -63.5 -82t-86.5 -28zM229 0l23 96h-6l95 414h115l-118 -510h-109zM308 561q-41 0 -69 27.5t-28 68.5q0 33 16 60t42.5 43t57.5 16q42 0 70 -27.5
t28 -68.5q0 -31 -16.5 -58.5t-43 -44t-57.5 -16.5zM312 620q21 0 36.5 16t15.5 39q0 17 -11 29.5t-29 12.5q-20 0 -36 -15.5t-16 -38.5q0 -19 11.5 -31t28.5 -12z" />
    <glyph glyph-name="Uhungarumlaut" unicode="&#x170;" horiz-adv-x="491" 
d="M210 -10q-65 0 -107.5 29t-58 81.5t0.5 121.5l114 498h118l-123 -534q-6 -31 -1.5 -53t21 -34t41.5 -12q35 0 56 20.5t30 62.5l127 550h118l-125 -538q-21 -94 -74.5 -143t-136.5 -49zM315 793h-82l67 157h130zM487 793h-81l66 157h131z" />
    <glyph glyph-name="uhungarumlaut" unicode="&#x171;" horiz-adv-x="447" 
d="M112 -10q-55 0 -81.5 39.5t-12.5 102.5l88 378h114l-83 -360q-8 -34 3 -52t37 -18q30 0 53.5 25t33.5 71l-2 -76q-24 -54 -63.5 -82t-86.5 -28zM229 0l23 96h-6l95 414h115l-118 -510h-109zM246 583h-82l67 157h130zM418 583h-81l66 157h131z" />
    <glyph glyph-name="Uogonek" unicode="&#x172;" horiz-adv-x="491" 
d="M210 -10q-65 0 -107.5 29t-58 81.5t0.5 121.5l114 498h118l-123 -534q-6 -31 -1.5 -53t21 -34t41.5 -12q35 0 56 20.5t30 62.5l127 550h118l-125 -538q-21 -94 -74.5 -143t-136.5 -49zM200 -196q-41 0 -63.5 19t-22.5 52q0 49 45 91t111 75l33 -21q-53 -39 -86 -69
t-33 -60q0 -14 8 -21.5t20 -7.5q15 0 33 11l14 -54q-14 -7 -28 -11t-31 -4z" />
    <glyph glyph-name="uogonek" unicode="&#x173;" horiz-adv-x="447" 
d="M112 -10q-55 0 -81.5 39.5t-12.5 102.5l88 378h114l-83 -360q-8 -34 3 -52t37 -18q30 0 53.5 25t33.5 71l-2 -76q-24 -54 -63.5 -82t-86.5 -28zM229 0l23 96h-6l95 414h115l-118 -510h-109zM235 -216q-41 0 -63.5 19t-22.5 52q0 49 45 91t111 75l33 -21q-53 -39 -86 -69
t-33 -60q0 -14 8 -21.5t20 -7.5q15 0 33 11l14 -54q-14 -7 -28 -11t-31 -4z" />
    <glyph glyph-name="Wcircumflex" unicode="&#x174;" horiz-adv-x="660" 
d="M58 0l75 720h113l-88 -670h-20l234 670h130l-75 -670h-18l221 670h111l-257 -720h-146l76 667h21l-231 -667h-146zM295 793l141 157h106l70 -157h-73l-91 124h86l-148 -124h-91z" />
    <glyph glyph-name="wcircumflex" unicode="&#x175;" horiz-adv-x="647" 
d="M80 0l5 510h112l-22 -383h-16l166 383h112l-10 -383h-16l153 383h116l-231 -510h-115l12 377h11l-162 -377h-115zM241 583l141 157h106l70 -157h-73l-91 124h86l-148 -124h-91z" />
    <glyph glyph-name="Ycircumflex" unicode="&#x176;" horiz-adv-x="488" 
d="M126 0l72 316l-82 404h124l57 -363h-58l223 363h124l-270 -404l-72 -316h-118zM209 793l141 157h106l70 -157h-73l-91 124h86l-148 -124h-91z" />
    <glyph glyph-name="ycircumflex" unicode="&#x177;" horiz-adv-x="413" 
d="M-15 -205l144 287l25 28l182 400h120l-355 -715h-116zM109 -9l-34 519h119v-444zM130 583l141 157h106l70 -157h-73l-91 124h86l-148 -124h-91z" />
    <glyph glyph-name="Ydieresis" unicode="&#x178;" horiz-adv-x="488" 
d="M126 0l72 316l-82 404h124l57 -363h-58l223 363h124l-270 -404l-72 -316h-118zM410 805l29 125h122l-29 -125h-122zM208 805l29 125h122l-29 -125h-122z" />
    <glyph glyph-name="Zacute" unicode="&#x179;" horiz-adv-x="453" 
d="M-10 0l19 84l349 564l22 -22h-238l23 94h346l-17 -71l-359 -577l-23 22h258l-21 -94h-359zM362 793h-90l95 157h154z" />
    <glyph glyph-name="zacute" unicode="&#x17a;" horiz-adv-x="381" 
d="M-26 0l19 81l264 357l20 -19h-197l21 91h306l-16 -68l-275 -370l-20 19h218l-21 -91h-319zM278 583h-90l95 157h154z" />
    <glyph glyph-name="Zdotaccent" unicode="&#x17b;" horiz-adv-x="453" 
d="M-10 0l19 84l349 564l22 -22h-238l23 94h346l-17 -71l-359 -577l-23 22h258l-21 -94h-359zM289 803l27 127h124l-27 -127h-124z" />
    <glyph glyph-name="zdotaccent" unicode="&#x17c;" horiz-adv-x="381" 
d="M-26 0l19 81l264 357l20 -19h-197l21 91h306l-16 -68l-275 -370l-20 19h218l-21 -91h-319zM206 593l27 127h124l-27 -127h-124z" />
    <glyph glyph-name="Zcaron" unicode="&#x17d;" horiz-adv-x="453" 
d="M-10 0l19 84l349 564l22 -22h-238l23 94h346l-17 -71l-359 -577l-23 22h258l-21 -94h-359zM297 793l-69 157h74l91 -124h-86l148 124h90l-142 -157h-106z" />
    <glyph glyph-name="zcaron" unicode="&#x17e;" horiz-adv-x="381" 
d="M-26 0l19 81l264 357l20 -19h-197l21 91h306l-16 -68l-275 -370l-20 19h218l-21 -91h-319zM214 583l-69 157h74l91 -124h-86l148 124h90l-142 -157h-106z" />
    <glyph glyph-name="uni01CD" unicode="&#x1cd;" horiz-adv-x="476" 
d="M-43 0l310 720h94l-289 -720h-115zM284 0l41 720h95l-19 -720h-117zM111 268h258l-21 -93h-258zM302 793l-69 157h74l91 -124h-86l148 124h90l-142 -157h-106z" />
    <glyph glyph-name="uni01CE" unicode="&#x1ce;" horiz-adv-x="408" 
d="M209 0q-2 18 0.5 38.5t6.5 42.5l-5 1l63 276q3 17 3.5 34t-7.5 29.5t-30 12.5q-27 0 -44 -19.5t-26 -56.5h-100q17 79 64.5 120.5t122.5 41.5q60 0 90.5 -25t38 -64.5t-2.5 -82.5l-64 -277q-4 -19 -6 -36t0 -35h-104zM99 -10q-45 0 -70.5 28t-25.5 79q0 42 17.5 77
t51.5 61.5t84 44.5l140 51l-19 -84l-73 -28q-45 -18 -67.5 -42t-22.5 -56q0 -21 12.5 -33t33.5 -12q24 0 40.5 16t23.5 44l-6 -68q-21 -38 -51 -58t-68 -20zM227 583l-69 157h74l91 -124h-86l148 124h90l-142 -157h-106z" />
    <glyph glyph-name="uni0218" unicode="&#x218;" horiz-adv-x="441" 
d="M188 -10q-56 0 -94 20.5t-58 55t-23.5 77.5t8.5 87h109q-6 -21 -7 -46.5t5.5 -48t23.5 -37t47 -14.5q38 0 60 29.5t22 74.5q0 26 -8 50.5t-31 48.5l-62 71q-31 35 -49.5 75.5t-18.5 86.5q0 56 23.5 103.5t68.5 76.5t111 29q52 0 85.5 -19t50.5 -50t19 -69t-8 -77h-107
q7 26 7 54t-13 47.5t-46 19.5q-26 0 -43.5 -14.5t-25.5 -36.5t-8 -44q0 -27 10 -49.5t32 -46.5l61 -70q33 -38 49.5 -81t16.5 -95q0 -56 -23.5 -103.5t-69.5 -76t-114 -28.5zM45 -317l12 54q33 6 53 24t28 52l40 -8h-105l28 122h125l-23 -100q-14 -66 -55.5 -99t-102.5 -45z
" />
    <glyph glyph-name="uni0219" unicode="&#x219;" horiz-adv-x="353" 
d="M140 -10q-52 0 -87 22.5t-48.5 60.5t-4.5 85h94q-3 -19 0.5 -38t16 -31.5t37.5 -12.5q28 0 43 16.5t15 42.5q0 19 -9 35t-28 32l-44 39q-30 25 -44.5 53t-14.5 65q0 46 21 82.5t58 57.5t85 21q45 0 74 -19.5t40.5 -53t4.5 -78.5h-94q3 16 1 30.5t-11 24t-29 9.5
q-24 0 -37.5 -16t-13.5 -41q0 -16 7.5 -29.5t24.5 -29.5l50 -43q28 -24 43 -55t15 -70q0 -47 -20.5 -83t-58 -56t-86.5 -20zM-8 -317l12 54q33 6 53 24t28 52l40 -8h-105l28 122h125l-23 -100q-14 -66 -55.5 -99t-102.5 -45z" />
    <glyph glyph-name="uni021A" unicode="&#x21a;" horiz-adv-x="425" 
d="M94 0l144 626h-139l21 94h399l-23 -94h-140l-144 -626h-118zM18 -317l12 54q33 6 53 24t28 52l40 -8h-105l28 122h125l-23 -100q-14 -66 -55.5 -99t-102.5 -45z" />
    <glyph glyph-name="uni021B" unicode="&#x21b;" horiz-adv-x="298" 
d="M164 -10q-71 0 -100 39t-13 111l107 466l126 50l-121 -524q-5 -26 5.5 -38.5t38.5 -12.5q10 0 20 2t18 5l-21 -88q-11 -5 -25.5 -7.5t-34.5 -2.5zM49 419l21 91h269l-21 -91h-269zM-2 -317l12 54q33 6 53 24t28 52l40 -8h-105l28 122h125l-23 -100q-14 -66 -55.5 -99
t-102.5 -45z" />
    <glyph glyph-name="uni0237" unicode="&#x237;" horiz-adv-x="216" 
d="M-54 -215q-12 0 -33.5 2.5t-37.5 10.5l20 86q5 -3 14 -5.5t20 -2.5q17 0 28 9t15 26l138 599h114l-143 -618q-11 -51 -45.5 -79t-89.5 -28z" />
    <glyph glyph-name="circumflex" unicode="&#x2c6;" horiz-adv-x="437" 
d="M136 583l141 157h106l70 -157h-73l-91 124h86l-148 -124h-91z" />
    <glyph glyph-name="caron" unicode="&#x2c7;" horiz-adv-x="437" 
d="M241 583l-69 157h74l91 -124h-86l148 124h90l-142 -157h-106z" />
    <glyph glyph-name="breve" unicode="&#x2d8;" horiz-adv-x="415" 
d="M295 576q-42 0 -69 16.5t-41.5 42.5t-17 54t4.5 51h73q-5 -15 -0.5 -34t20 -32.5t42.5 -13.5q33 0 56.5 21t30.5 59h73q-16 -86 -64.5 -125t-107.5 -39z" />
    <glyph glyph-name="dotaccent" unicode="&#x2d9;" horiz-adv-x="247" 
d="M140 593l27 127h124l-27 -127h-124z" />
    <glyph glyph-name="ring" unicode="&#x2da;" horiz-adv-x="335" 
d="M253 561q-41 0 -69 27.5t-28 68.5q0 33 16 60t42.5 43t57.5 16q42 0 70 -27.5t28 -68.5q0 -31 -16.5 -58.5t-43 -44t-57.5 -16.5zM257 620q21 0 36.5 16t15.5 39q0 17 -11 29.5t-29 12.5q-20 0 -36 -15.5t-16 -38.5q0 -19 11.5 -31t28.5 -12z" />
    <glyph glyph-name="ogonek" unicode="&#x2db;" horiz-adv-x="280" 
d="M56 -216q-41 0 -63.5 19t-22.5 52q0 49 45 91t111 75l33 -21q-53 -39 -86 -69t-33 -60q0 -14 8 -21.5t20 -7.5q15 0 33 11l14 -54q-14 -7 -28 -11t-31 -4z" />
    <glyph glyph-name="tilde" unicode="&#x2dc;" horiz-adv-x="450" 
d="M379 601q-22 0 -39 7.5t-31 17.5t-27.5 17.5t-28.5 7.5q-17 0 -27 -10t-16 -33h-69q9 38 24 66.5t39.5 44.5t59.5 16q24 0 40 -7.5t29 -17.5t26 -17.5t29 -7.5q17 0 27.5 10t15.5 34h68q-13 -58 -40.5 -93t-79.5 -35z" />
    <glyph glyph-name="hungarumlaut" unicode="&#x2dd;" horiz-adv-x="454" 
d="M218 583h-82l67 157h130zM390 583h-81l66 157h131z" />
    <glyph glyph-name="gravecomb" unicode="&#x300;" horiz-adv-x="0" 
d="M268 583l-96 157h128l49 -157h-81z" />
    <glyph glyph-name="acutecomb" unicode="&#x301;" horiz-adv-x="0" 
d="M226 583h-90l95 157h154z" />
    <glyph glyph-name="uni0302" unicode="&#x302;" horiz-adv-x="0" 
d="M136 583l141 157h106l70 -157h-73l-91 124h86l-148 -124h-91z" />
    <glyph glyph-name="tildecomb" unicode="&#x303;" horiz-adv-x="0" 
d="M379 601q-22 0 -39 7.5t-31 17.5t-27.5 17.5t-28.5 7.5q-17 0 -27 -10t-16 -33h-69q9 38 24 66.5t39.5 44.5t59.5 16q24 0 40 -7.5t29 -17.5t26 -17.5t29 -7.5q17 0 27.5 10t15.5 34h68q-13 -58 -40.5 -93t-79.5 -35z" />
    <glyph glyph-name="uni0304" unicode="&#x304;" horiz-adv-x="0" 
d="M147 630l18 82h281l-18 -82h-281z" />
    <glyph glyph-name="uni0306" unicode="&#x306;" horiz-adv-x="0" 
d="M295 576q-42 0 -69 16.5t-41.5 42.5t-17 54t4.5 51h73q-5 -15 -0.5 -34t20 -32.5t42.5 -13.5q33 0 56.5 21t30.5 59h73q-16 -86 -64.5 -125t-107.5 -39z" />
    <glyph glyph-name="uni0307" unicode="&#x307;" horiz-adv-x="0" 
d="M140 593l27 127h124l-27 -127h-124z" />
    <glyph glyph-name="uni0308" unicode="&#x308;" horiz-adv-x="0" 
d="M340 595l29 125h122l-29 -125h-122zM138 595l29 125h122l-29 -125h-122z" />
    <glyph glyph-name="uni030A" unicode="&#x30a;" horiz-adv-x="0" 
d="M253 561q-41 0 -69 27.5t-28 68.5q0 33 16 60t42.5 43t57.5 16q42 0 70 -27.5t28 -68.5q0 -31 -16.5 -58.5t-43 -44t-57.5 -16.5zM257 620q21 0 36.5 16t15.5 39q0 17 -11 29.5t-29 12.5q-20 0 -36 -15.5t-16 -38.5q0 -19 11.5 -31t28.5 -12z" />
    <glyph glyph-name="uni030B" unicode="&#x30b;" horiz-adv-x="0" 
d="M218 583h-82l67 157h130zM390 583h-81l66 157h131z" />
    <glyph glyph-name="uni030C" unicode="&#x30c;" horiz-adv-x="0" 
d="M241 583l-69 157h74l91 -124h-86l148 124h90l-142 -157h-106z" />
    <glyph glyph-name="uni0312" unicode="&#x312;" horiz-adv-x="0" 
d="M136 583l25 109q13 59 54 91t102 44l-12 -54q-34 -5 -53.5 -23.5t-27.5 -52.5l-41 8h105l-27 -122h-125z" />
    <glyph glyph-name="uni0326" unicode="&#x326;" horiz-adv-x="0" 
d="M-72 -317l12 54q33 6 53 24t28 52l40 -8h-105l28 122h125l-23 -100q-14 -66 -55.5 -99t-102.5 -45z" />
    <glyph glyph-name="uni0327" unicode="&#x327;" horiz-adv-x="0" 
d="M69 -215q-32 0 -55 12.5t-34.5 32.5t-7.5 43h64q-1 -11 9 -20.5t27 -9.5t26.5 9.5t9.5 22.5q0 17 -14.5 28.5t-47.5 18.5l38 90h61l-21 -57q24 -11 38 -31.5t14 -45.5q0 -39 -29 -66t-78 -27z" />
    <glyph glyph-name="uni0328" unicode="&#x328;" horiz-adv-x="0" 
d="M56 -216q-41 0 -63.5 19t-22.5 52q0 49 45 91t111 75l33 -21q-53 -39 -86 -69t-33 -60q0 -14 8 -21.5t20 -7.5q15 0 33 11l14 -54q-14 -7 -28 -11t-31 -4z" />
    <glyph glyph-name="Wgrave" unicode="&#x1e80;" horiz-adv-x="660" 
d="M58 0l75 720h113l-88 -670h-20l234 670h130l-75 -670h-18l221 670h111l-257 -720h-146l76 667h21l-231 -667h-146zM452 793l-96 157h128l49 -157h-81z" />
    <glyph glyph-name="wgrave" unicode="&#x1e81;" horiz-adv-x="647" 
d="M80 0l5 510h112l-22 -383h-16l166 383h112l-10 -383h-16l153 383h116l-231 -510h-115l12 377h11l-162 -377h-115zM398 583l-96 157h128l49 -157h-81z" />
    <glyph glyph-name="Wacute" unicode="&#x1e82;" horiz-adv-x="660" 
d="M58 0l75 720h113l-88 -670h-20l234 670h130l-75 -670h-18l221 670h111l-257 -720h-146l76 667h21l-231 -667h-146zM466 793h-90l95 157h154z" />
    <glyph glyph-name="wacute" unicode="&#x1e83;" horiz-adv-x="647" 
d="M80 0l5 510h112l-22 -383h-16l166 383h112l-10 -383h-16l153 383h116l-231 -510h-115l12 377h11l-162 -377h-115zM411 583h-90l95 157h154z" />
    <glyph glyph-name="Wdieresis" unicode="&#x1e84;" horiz-adv-x="660" 
d="M58 0l75 720h113l-88 -670h-20l234 670h130l-75 -670h-18l221 670h111l-257 -720h-146l76 667h21l-231 -667h-146zM496 805l29 125h122l-29 -125h-122zM294 805l29 125h122l-29 -125h-122z" />
    <glyph glyph-name="wdieresis" unicode="&#x1e85;" horiz-adv-x="647" 
d="M80 0l5 510h112l-22 -383h-16l166 383h112l-10 -383h-16l153 383h116l-231 -510h-115l12 377h11l-162 -377h-115zM441 595l29 125h122l-29 -125h-122zM239 595l29 125h122l-29 -125h-122z" />
    <glyph glyph-name="uni1E9E" unicode="&#x1e9e;" horiz-adv-x="501" 
d="M248 -11q-16 0 -31.5 2.5t-29.5 6.5t-26 9l21 91q11 -5 27.5 -9t32.5 -4q29 0 51 15.5t35 43t13 63.5q0 35 -15.5 69t-51.5 70l-25 24l201 260l-8 -65q-12 34 -37 53t-61 19q-81 0 -106 -108l-121 -529h-118l122 535q23 96 79 146t144 50q73 0 128 -32t84 -91l-191 -245
l-21 68q59 -53 86.5 -108t27.5 -116q0 -63 -27.5 -112.5t-75 -77.5t-107.5 -28z" />
    <glyph glyph-name="Ygrave" unicode="&#x1ef2;" horiz-adv-x="488" 
d="M126 0l72 316l-82 404h124l57 -363h-58l223 363h124l-270 -404l-72 -316h-118zM366 793l-96 157h128l49 -157h-81z" />
    <glyph glyph-name="ygrave" unicode="&#x1ef3;" horiz-adv-x="413" 
d="M-15 -205l144 287l25 28l182 400h120l-355 -715h-116zM109 -9l-34 519h119v-444zM287 583l-96 157h128l49 -157h-81z" />
    <glyph glyph-name="endash" unicode="&#x2013;" horiz-adv-x="451" 
d="M44 226l21 92h349l-21 -92h-349z" />
    <glyph glyph-name="emdash" unicode="&#x2014;" horiz-adv-x="651" 
d="M44 226l21 92h549l-21 -92h-549z" />
    <glyph glyph-name="quoteleft" unicode="&#x2018;" horiz-adv-x="233" 
d="M99 470l24 109q16 67 58 107t118 54l-13 -58q-42 -8 -63 -31t-31 -65l-44 12h115l-29 -128h-135z" />
    <glyph glyph-name="quoteright" unicode="&#x2019;" horiz-adv-x="232" 
d="M95 472l14 59q43 7 63.5 30.5t29.5 64.5l44 -11h-114l29 127h135l-25 -109q-15 -66 -57 -106.5t-119 -54.5z" />
    <glyph glyph-name="quotesinglbase" unicode="&#x201a;" horiz-adv-x="230" 
d="M-55 -178l14 59q43 12 62.5 36t29.5 65l43 -10h-114l31 136h135l-27 -119q-15 -66 -56 -107t-118 -60z" />
    <glyph glyph-name="quotedblleft" unicode="&#x201c;" horiz-adv-x="416" 
d="M282 470l24 109q16 67 58 107t118 54l-13 -58q-42 -8 -63 -31t-31 -65l-44 12h115l-29 -128h-135zM99 470l24 109q16 67 58 107t118 54l-13 -58q-42 -8 -63 -31t-31 -65l-44 12h115l-29 -128h-135z" />
    <glyph glyph-name="quotedblright" unicode="&#x201d;" horiz-adv-x="416" 
d="M278 472l14 59q43 7 63.5 30.5t29.5 64.5l44 -11h-114l29 127h135l-25 -109q-15 -66 -57 -106.5t-119 -54.5zM95 472l14 59q43 7 63.5 30.5t29.5 64.5l44 -11h-114l29 127h135l-25 -109q-15 -66 -57 -106.5t-119 -54.5z" />
    <glyph glyph-name="quotedblbase" unicode="&#x201e;" horiz-adv-x="413" 
d="M129 -178l14 59q43 12 62.5 36t29.5 65l43 -10h-114l31 136h135l-27 -119q-15 -66 -56 -107t-118 -60zM-55 -178l14 59q43 12 62.5 36t29.5 65l43 -10h-114l31 136h135l-27 -119q-15 -66 -56 -107t-118 -60z" />
    <glyph glyph-name="bullet" unicode="&#x2022;" horiz-adv-x="289" 
d="M51 266l44 193h192l-44 -193h-192z" />
    <glyph glyph-name="ellipsis" unicode="&#x2026;" horiz-adv-x="606" 
d="M-10 0l31 136h135l-31 -136h-135zM177 0l31 136h135l-31 -136h-135zM363 0l31 136h135l-31 -136h-135z" />
    <glyph glyph-name="perthousand" unicode="&#x2030;" horiz-adv-x="755" 
d="M197 381q-41 0 -71 32.5t-30 93.5q0 31 8.5 69t26.5 73t46 58t67 23q42 0 72 -31.5t30 -93.5q0 -30 -8.5 -68t-26.5 -74t-46.5 -59t-67.5 -23zM201 448q19 0 33 17.5t23 43t13.5 51.5t4.5 43q0 29 -8.5 44.5t-27.5 15.5t-32.5 -17.5t-22.5 -43t-13 -51.5t-4 -43
q0 -29 8.5 -44.5t25.5 -15.5zM-6 0l567 720h78l-566 -720h-79zM386 -10q-41 0 -71 32.5t-30 93.5q0 31 8.5 69t26.5 73t46 58t67 23q42 0 72 -31.5t30 -93.5q0 -30 -8.5 -68t-26.5 -74t-46.5 -59t-67.5 -23zM390 57q19 0 33 17.5t23 43t13.5 51.5t4.5 43q0 29 -8.5 44.5
t-27.5 15.5t-32.5 -17.5t-22.5 -43t-13 -51.5t-4 -43q0 -29 8.5 -44.5t25.5 -15.5zM563 57q19 0 32.5 17.5t23 43t14 51.5t4.5 43q0 29 -8.5 44.5t-27.5 15.5t-32.5 -17.5t-22.5 -43t-13 -51.5t-4 -43q0 -29 8.5 -44.5t25.5 -15.5zM559 -10q-42 0 -72 32.5t-30 93.5
q0 31 8.5 69t27 73t46.5 58t67 23q42 0 72 -31.5t30 -93.5q0 -30 -8.5 -68t-26.5 -74t-46.5 -59t-67.5 -23z" />
    <glyph glyph-name="guilsinglleft" unicode="&#x2039;" horiz-adv-x="284" 
d="M99 68l-59 195l135 171h102l-143 -188l53 -178h-88z" />
    <glyph glyph-name="guilsinglright" unicode="&#x203a;" horiz-adv-x="284" 
d="M101 68h-96l145 188l-55 178h90l60 -183z" />
    <glyph glyph-name="Euro" unicode="&#x20ac;" horiz-adv-x="497" 
d="M238 -11q-56 0 -95.5 26.5t-59.5 77.5t-20 122q0 43 7.5 96.5t23.5 111.5t41 113t59.5 98.5t79 69.5t99.5 26q44 0 76 -16.5t51 -44.5t26.5 -61t4.5 -66h-112q3 26 -1.5 46.5t-16.5 33t-35 12.5q-32 0 -58.5 -25t-46.5 -66t-35 -90.5t-24.5 -99.5t-14 -92.5t-4.5 -68.5
q0 -35 7.5 -58.5t22 -35.5t35.5 -12q18 0 34.5 9t30 29.5t22.5 53.5h113q-21 -66 -52 -107.5t-71 -61.5t-87 -20zM30 385l34 85h374l-34 -85h-374zM-1 252l33 85h352l-33 -85h-352z" />
    <glyph glyph-name="trademark" unicode="&#x2122;" horiz-adv-x="624" 
d="M175 360v345h77v-345h-77zM109 656v64h208v-64h-208zM339 360v360h107l74 -338h-54l73 338h108v-360h-75v311h12l-66 -311h-54l-67 311h12v-311h-70z" />
    <glyph glyph-name="arrowleft" unicode="&#x2190;" horiz-adv-x="719" 
d="M676 327h-487l43 42l321 -322h-137l-328 330l328 330h137l-321 -322l-43 42h487v-100z" />
    <glyph glyph-name="arrowup" unicode="&#x2191;" horiz-adv-x="812" 
d="M357 66v487l42 -43l-322 -321v137l330 328l330 -328v-137l-322 321l42 43v-487h-100z" />
    <glyph glyph-name="arrowright" unicode="&#x2192;" horiz-adv-x="720" 
d="M92 393h487l-42 -42l-322 322h138l328 -330l-328 -330h-138l322 322l42 -42h-487v100z" />
    <glyph glyph-name="arrowdown" unicode="&#x2193;" horiz-adv-x="812" 
d="M404 654h100v-487l-42 43l322 321v-137l-330 -328l-330 328v137l322 -321l-42 -43v487z" />
    <glyph glyph-name="arrowboth" unicode="&#x2194;" horiz-adv-x="1082" 
d="M412 30l-328 330l328 330h137l-279 -280h590l-279 280h137l328 -330l-328 -330h-137l279 280h-590l279 -280h-137z" />
    <glyph glyph-name="arrowupdn" unicode="&#x2195;" horiz-adv-x="850" 
d="M450 -121l-330 328v137l280 -279v590l-280 -279v137l330 328l330 -328v-137l-280 279v-590l280 279v-137z" />
    <glyph glyph-name="uni2196" unicode="&#x2196;" horiz-adv-x="704" 
d="M533 200l-345 345h60l-1 -455l-97 97l2 465l465 2l97 -97l-454 -1l-1 60l345 -345z" />
    <glyph glyph-name="uni2197" unicode="&#x2197;" horiz-adv-x="769" 
d="M235 247l344 345v-60l-455 1l97 97l465 -2l2 -465l-97 -97v454l59 1l-344 -345z" />
    <glyph glyph-name="uni2198" unicode="&#x2198;" horiz-adv-x="705" 
d="M221 520l344 -345h-59v455l97 -97l-2 -465l-465 -2l-97 97l455 1v-60l-344 345z" />
    <glyph glyph-name="uni2199" unicode="&#x2199;" horiz-adv-x="769" 
d="M583 473l-344 -345v60l455 -1l-97 -97l-465 2l-2 465l97 97v-454l-59 -1l344 345z" />
    <glyph glyph-name="minus" unicode="&#x2212;" horiz-adv-x="544" 
d="M70 329l20 84h437l-19 -84h-438z" />
    <glyph glyph-name="Adieresis.ss01" horiz-adv-x="476" 
d="M-43 0l310 720h94l-289 -720h-115zM284 0l41 720h95l-19 -720h-117zM111 268h258l-21 -93h-258zM266 805q-26 0 -43 17.5t-17 44.5q0 31 22 53t52 22q28 0 44.5 -17t16.5 -44q0 -31 -22 -53.5t-53 -22.5zM465 805q-26 0 -43 17.5t-17 44.5q0 31 22 53t53 22q27 0 44 -17
t17 -44q0 -31 -22.5 -53.5t-53.5 -22.5z" />
    <glyph glyph-name="Cdotaccent.ss01" horiz-adv-x="489" 
d="M210 -10q-55 0 -92.5 26t-56.5 76t-19 122q0 46 8 101.5t24.5 113.5t41.5 111.5t60 96.5t79 68t99 25q58 0 92 -27.5t50 -72t16.5 -94.5t-11.5 -94h-117q7 25 11 57.5t1.5 63.5t-16 51t-42.5 20q-34 0 -62 -31.5t-49 -82t-35.5 -109t-22 -114t-7.5 -95.5q0 -56 15 -85.5
t47 -29.5q38 0 69 47t54 144h117q-22 -97 -59 -161t-86 -95.5t-109 -31.5zM381 798q-28 0 -46.5 19t-18.5 49q0 23 10.5 41.5t29.5 29.5t41 11q29 0 47.5 -17.5t18.5 -46.5q0 -23 -11.5 -42.5t-29.5 -31.5t-41 -12z" />
    <glyph glyph-name="Edieresis.ss01" horiz-adv-x="418" 
d="M-2 0l166 720h118l-166 -720h-118zM60 0l21 94h258l-22 -94h-257zM135 326l21 93h238l-21 -93h-238zM204 626l22 94h249l-21 -94h-250zM253 805q-26 0 -43 17.5t-17 44.5q0 31 22 53t52 22q28 0 44.5 -17t16.5 -44q0 -31 -22 -53.5t-53 -22.5zM452 805q-26 0 -43 17.5
t-17 44.5q0 31 22 53t53 22q27 0 44 -17t17 -44q0 -31 -22.5 -53.5t-53.5 -22.5z" />
    <glyph glyph-name="Edotaccent.ss01" horiz-adv-x="418" 
d="M-2 0l166 720h118l-166 -720h-118zM60 0l21 94h258l-22 -94h-257zM135 326l21 93h238l-21 -93h-238zM204 626l22 94h249l-21 -94h-250zM364 798q-28 0 -46.5 19t-18.5 49q0 23 10.5 41.5t29.5 29.5t41 11q29 0 47.5 -17.5t18.5 -46.5q0 -23 -11.5 -42.5t-29.5 -31.5
t-41 -12z" />
    <glyph glyph-name="uni0122.ss01" horiz-adv-x="502" 
d="M224 -10q-63 0 -103 27t-59.5 79t-18.5 126q1 55 12.5 123t35.5 135.5t61 124t87.5 91t115.5 34.5q53 0 86 -24t50 -62.5t20 -84t-4 -87.5h-116q5 26 6.5 54.5t-3 52.5t-17.5 39.5t-39 15.5q-34 0 -61.5 -31.5t-48.5 -82t-35.5 -109t-22 -114t-7.5 -95.5q-1 -60 17 -88
t57 -28q24 0 42 7.5t32 25.5l109 -32q-41 -51 -91.5 -74t-104.5 -23zM302 82l56 243l24 -31h-117l21 94h204l-70 -301zM85 -316l12 53q33 8 52.5 25t27.5 50l35 -4q-18 -10 -39 -10q-25 0 -42 16.5t-17 43.5q0 32 21.5 54t51.5 22q27 0 44 -18t17 -55q0 -30 -12 -59.5
t-34.5 -54t-51.5 -41.5t-65 -22z" />
    <glyph glyph-name="Gdotaccent.ss01" horiz-adv-x="502" 
d="M224 -10q-63 0 -103 27t-59.5 79t-18.5 126q1 55 12.5 123t35.5 135.5t61 124t87.5 91t115.5 34.5q53 0 86 -24t50 -62.5t20 -84t-4 -87.5h-116q5 26 6.5 54.5t-3 52.5t-17.5 39.5t-39 15.5q-34 0 -61.5 -31.5t-48.5 -82t-35.5 -109t-22 -114t-7.5 -95.5q-1 -60 17 -88
t57 -28q24 0 42 7.5t32 25.5l109 -32q-41 -51 -91.5 -74t-104.5 -23zM302 82l56 243l24 -31h-117l21 94h204l-70 -301zM407 798q-28 0 -46.5 19t-18.5 49q0 23 10.5 41.5t29.5 29.5t41 11q29 0 47.5 -17.5t18.5 -46.5q0 -23 -11.5 -42.5t-29.5 -31.5t-41 -12z" />
    <glyph glyph-name="Idieresis.ss01" horiz-adv-x="231" 
d="M-2 0l166 720h118l-166 -720h-118zM150 805q-26 0 -43 17.5t-17 44.5q0 31 22 53t52 22q28 0 44.5 -17t16.5 -44q0 -31 -22 -53.5t-53 -22.5zM349 805q-26 0 -43 17.5t-17 44.5q0 31 22 53t53 22q27 0 44 -17t17 -44q0 -31 -22.5 -53.5t-53.5 -22.5z" />
    <glyph glyph-name="Idotaccent.ss01" horiz-adv-x="231" 
d="M-2 0l166 720h118l-166 -720h-118zM260 798q-28 0 -46.5 19t-18.5 49q0 23 10.5 41.5t29.5 29.5t41 11q29 0 47.5 -17.5t18.5 -46.5q0 -23 -11.5 -42.5t-29.5 -31.5t-41 -12z" />
    <glyph glyph-name="uni0136.ss01" horiz-adv-x="491" 
d="M-2 0l166 720h118l-166 -720h-118zM176 367l254 353h135l-260 -346zM297 0l-105 374h113l114 -374h-122zM70 -316l12 53q33 8 52.5 25t27.5 50l35 -4q-18 -10 -39 -10q-25 0 -42 16.5t-17 43.5q0 32 21.5 54t51.5 22q27 0 44 -18t17 -55q0 -30 -12 -59.5t-34.5 -54
t-51.5 -41.5t-65 -22z" />
    <glyph glyph-name="uni013B.ss01" horiz-adv-x="385" 
d="M-2 0l166 720h118l-166 -720h-118zM60 0l21 94h232l-22 -94h-231zM19 -316l12 53q33 8 52.5 25t27.5 50l35 -4q-18 -10 -39 -10q-25 0 -42 16.5t-17 43.5q0 32 21.5 54t51.5 22q27 0 44 -18t17 -55q0 -30 -12 -59.5t-34.5 -54t-51.5 -41.5t-65 -22z" />
    <glyph glyph-name="uni0145.ss01" horiz-adv-x="514" 
d="M-2 0l166 720h138l37 -613l-24 -2l141 615h109l-166 -720h-139l-38 613l26 2l-142 -615h-108zM69 -316l12 53q33 8 52.5 25t27.5 50l35 -4q-18 -10 -39 -10q-25 0 -42 16.5t-17 43.5q0 32 21.5 54t51.5 22q27 0 44 -18t17 -55q0 -30 -12 -59.5t-34.5 -54t-51.5 -41.5
t-65 -22z" />
    <glyph glyph-name="Odieresis.ss01" horiz-adv-x="524" 
d="M216 -9q-50 0 -88.5 27t-60 78.5t-21.5 124.5q0 103 24 194.5t66.5 162t98.5 111t120 40.5q53 0 92 -27.5t60.5 -81t19.5 -129.5q-1 -100 -26 -190t-68 -160t-98 -110t-119 -40zM229 87q34 0 66 38t58.5 101t42 140t15.5 154q0 36 -8 61.5t-23.5 38.5t-37.5 13
q-33 0 -65 -37.5t-58 -101t-41.5 -140t-15.5 -155.5q0 -35 8 -60t23 -38.5t36 -13.5zM296 805q-26 0 -43 17.5t-17 44.5q0 31 22 53t52 22q28 0 44.5 -17t16.5 -44q0 -31 -22 -53.5t-53 -22.5zM495 805q-26 0 -43 17.5t-17 44.5q0 31 22 53t53 22q27 0 44 -17t17 -44
q0 -31 -22.5 -53.5t-53.5 -22.5z" />
    <glyph glyph-name="uni0156.ss01" horiz-adv-x="457" 
d="M-2 0l166 720h161q53 0 89.5 -23t56 -63t18.5 -91q-1 -64 -31.5 -118.5t-84.5 -87t-123 -32.5h-93l21 89h72q36 0 63.5 20.5t43.5 53.5t16 72q1 38 -16 62t-52 24h-45l-144 -626h-118zM270 0l-86 374h108l101 -374h-123zM60 -316l12 53q33 8 52.5 25t27.5 50l35 -4
q-18 -10 -39 -10q-25 0 -42 16.5t-17 43.5q0 32 21.5 54t51.5 22q27 0 44 -18t17 -55q0 -30 -12 -59.5t-34.5 -54t-51.5 -41.5t-65 -22z" />
    <glyph glyph-name="uni0218.ss01" horiz-adv-x="441" 
d="M188 -10q-56 0 -94 20.5t-58 55t-23.5 77.5t8.5 87h109q-6 -21 -7 -46.5t5.5 -48t23.5 -37t47 -14.5q38 0 60 29.5t22 74.5q0 26 -8 50.5t-31 48.5l-62 71q-31 35 -49.5 75.5t-18.5 86.5q0 56 23.5 103.5t68.5 76.5t111 29q52 0 85.5 -19t50.5 -50t19 -69t-8 -77h-107
q7 26 7 54t-13 47.5t-46 19.5q-26 0 -43.5 -14.5t-25.5 -36.5t-8 -44q0 -27 10 -49.5t32 -46.5l61 -70q33 -38 49.5 -81t16.5 -95q0 -56 -23.5 -103.5t-69.5 -76t-114 -28.5zM51 -316l12 53q33 8 52.5 25t27.5 50l35 -4q-18 -10 -39 -10q-25 0 -42 16.5t-17 43.5
q0 32 21.5 54t51.5 22q27 0 44 -18t17 -55q0 -30 -12 -59.5t-34.5 -54t-51.5 -41.5t-65 -22z" />
    <glyph glyph-name="uni021A.ss01" horiz-adv-x="425" 
d="M94 0l144 626h-139l21 94h399l-23 -94h-140l-144 -626h-118zM24 -316l12 53q33 8 52.5 25t27.5 50l35 -4q-18 -10 -39 -10q-25 0 -42 16.5t-17 43.5q0 32 21.5 54t51.5 22q27 0 44 -18t17 -55q0 -30 -12 -59.5t-34.5 -54t-51.5 -41.5t-65 -22z" />
    <glyph glyph-name="Udieresis.ss01" horiz-adv-x="491" 
d="M210 -10q-65 0 -107.5 29t-58 81.5t0.5 121.5l114 498h118l-123 -534q-6 -31 -1.5 -53t21 -34t41.5 -12q35 0 56 20.5t30 62.5l127 550h118l-125 -538q-21 -94 -74.5 -143t-136.5 -49zM279 805q-26 0 -43 17.5t-17 44.5q0 31 22 53t52 22q28 0 44.5 -17t16.5 -44
q0 -31 -22 -53.5t-53 -22.5zM478 805q-26 0 -43 17.5t-17 44.5q0 31 22 53t53 22q27 0 44 -17t17 -44q0 -31 -22.5 -53.5t-53.5 -22.5z" />
    <glyph glyph-name="Ydieresis.ss01" horiz-adv-x="488" 
d="M126 0l72 316l-82 404h124l57 -363h-58l223 363h124l-270 -404l-72 -316h-118zM278 805q-26 0 -43 17.5t-17 44.5q0 31 22 53t52 22q28 0 44.5 -17t16.5 -44q0 -31 -22 -53.5t-53 -22.5zM477 805q-26 0 -43 17.5t-17 44.5q0 31 22 53t53 22q27 0 44 -17t17 -44
q0 -31 -22.5 -53.5t-53.5 -22.5z" />
    <glyph glyph-name="Zdotaccent.ss01" horiz-adv-x="453" 
d="M-10 0l19 84l349 564l22 -22h-238l23 94h346l-17 -71l-359 -577l-23 22h258l-21 -94h-359zM371 798q-28 0 -46.5 19t-18.5 49q0 23 10.5 41.5t29.5 29.5t41 11q29 0 47.5 -17.5t18.5 -46.5q0 -23 -11.5 -42.5t-29.5 -31.5t-41 -12z" />
    <glyph glyph-name="K.ss04" horiz-adv-x="491" 
d="M-2 0l166 720h118l-166 -720h-118zM83 267l353 453h136l-272 -333l-23 -9l-154 -194zM296 0l-65 427l102 19l86 -446h-123z" />
    <glyph glyph-name="uni0136.ss04" horiz-adv-x="491" 
d="M-2 0l166 720h118l-166 -720h-118zM83 267l353 453h136l-272 -333l-23 -9l-154 -194zM296 0l-65 427l102 19l86 -446h-123zM64 -317l12 54q33 6 53 24t28 52l40 -8h-105l28 122h125l-23 -100q-14 -66 -55.5 -99t-102.5 -45z" />
    <glyph glyph-name="R.ss05" horiz-adv-x="454" 
d="M-2 0l166 720h169q55 0 89.5 -21t50.5 -56.5t16 -79.5q0 -50 -21 -97.5t-63.5 -82t-108.5 -45.5l13 26q50 -5 72.5 -26.5t26 -54t-5.5 -71.5l-49 -212h-118l49 216q5 21 4 41.5t-14 34.5t-43 14h-73l21 94h78q39 0 64 24t37 58.5t12 65.5q0 38 -16.5 60t-48.5 22h-44
l-145 -630h-118z" />
    <glyph glyph-name="Racute.ss05" horiz-adv-x="454" 
d="M-2 0l166 720h169q55 0 89.5 -21t50.5 -56.5t16 -79.5q0 -50 -21 -97.5t-63.5 -82t-108.5 -45.5l13 26q50 -5 72.5 -26.5t26 -54t-5.5 -71.5l-49 -212h-118l49 216q5 21 4 41.5t-14 34.5t-43 14h-73l21 94h78q39 0 64 24t37 58.5t12 65.5q0 38 -16.5 60t-48.5 22h-44
l-145 -630h-118zM365 793h-90l95 157h154z" />
    <glyph glyph-name="Rcaron.ss05" horiz-adv-x="454" 
d="M-2 0l166 720h169q55 0 89.5 -21t50.5 -56.5t16 -79.5q0 -50 -21 -97.5t-63.5 -82t-108.5 -45.5l13 26q50 -5 72.5 -26.5t26 -54t-5.5 -71.5l-49 -212h-118l49 216q5 21 4 41.5t-14 34.5t-43 14h-73l21 94h78q39 0 64 24t37 58.5t12 65.5q0 38 -16.5 60t-48.5 22h-44
l-145 -630h-118zM300 793l-69 157h74l91 -124h-86l148 124h90l-142 -157h-106z" />
    <glyph glyph-name="uni0156.ss05" horiz-adv-x="454" 
d="M-2 0l166 720h169q55 0 89.5 -21t50.5 -56.5t16 -79.5q0 -50 -21 -97.5t-63.5 -82t-108.5 -45.5l13 26q50 -5 72.5 -26.5t26 -54t-5.5 -71.5l-49 -212h-118l49 216q5 21 4 41.5t-14 34.5t-43 14h-73l21 94h78q39 0 64 24t37 58.5t12 65.5q0 38 -16.5 60t-48.5 22h-44
l-145 -630h-118zM35 -317l12 54q33 6 53 24t28 52l40 -8h-105l28 122h125l-23 -100q-14 -66 -55.5 -99t-102.5 -45z" />
    <glyph glyph-name="M.ss06" horiz-adv-x="660" 
d="M-21 0l211 720h129l-16 -676h-44l294 676h130l-120 -720h-113l114 635l34 -1l-278 -634h-101l13 634l35 1l-177 -635h-111z" />
    <glyph glyph-name="G.ss07" 
d="M215 -10q-56 0 -95 26t-58.5 76t-19.5 121q0 41 7 95t22.5 112t40 113t59.5 99t80.5 70.5t102.5 26.5q56 0 91 -23.5t51.5 -62t18.5 -84t-7 -87.5h-115q5 23 8.5 51t0 53t-16.5 41t-41 16q-33 0 -60 -25t-48 -66t-35.5 -90t-24.5 -99t-15 -91.5t-5 -66.5q0 -53 17 -81
t52 -28q32 0 57 26.5t47.5 86.5t43.5 161l115 -13q-27 -123 -65 -202t-88.5 -117t-119.5 -38zM435 288h-169l21 94h209l-8 -35z" />
    <glyph glyph-name="Gbreve.ss07" 
d="M215 -10q-56 0 -95 26t-58.5 76t-19.5 121q0 41 7 95t22.5 112t40 113t59.5 99t80.5 70.5t102.5 26.5q56 0 91 -23.5t51.5 -62t18.5 -84t-7 -87.5h-115q5 23 8.5 51t0 53t-16.5 41t-41 16q-33 0 -60 -25t-48 -66t-35.5 -90t-24.5 -99t-15 -91.5t-5 -66.5q0 -53 17 -81
t52 -28q32 0 57 26.5t47.5 86.5t43.5 161l115 -13q-27 -123 -65 -202t-88.5 -117t-119.5 -38zM435 288h-169l21 94h209l-8 -35zM380 786q-42 0 -69 16.5t-41.5 42.5t-17 54t4.5 51h73q-5 -15 -0.5 -34t20 -32.5t42.5 -13.5q33 0 56.5 21t30.5 59h73q-16 -86 -64.5 -125
t-107.5 -39z" />
    <glyph glyph-name="uni0122.ss07" 
d="M215 -10q-56 0 -95 26t-58.5 76t-19.5 121q0 41 7 95t22.5 112t40 113t59.5 99t80.5 70.5t102.5 26.5q56 0 91 -23.5t51.5 -62t18.5 -84t-7 -87.5h-115q5 23 8.5 51t0 53t-16.5 41t-41 16q-33 0 -60 -25t-48 -66t-35.5 -90t-24.5 -99t-15 -91.5t-5 -66.5q0 -53 17 -81
t52 -28q32 0 57 26.5t47.5 86.5t43.5 161l115 -13q-27 -123 -65 -202t-88.5 -117t-119.5 -38zM435 288h-169l21 94h209l-8 -35zM82 -317l12 54q33 6 53 24t28 52l40 -8h-105l28 122h125l-23 -100q-14 -66 -55.5 -99t-102.5 -45z" />
    <glyph glyph-name="Gdotaccent.ss07" 
d="M215 -10q-56 0 -95 26t-58.5 76t-19.5 121q0 41 7 95t22.5 112t40 113t59.5 99t80.5 70.5t102.5 26.5q56 0 91 -23.5t51.5 -62t18.5 -84t-7 -87.5h-115q5 23 8.5 51t0 53t-16.5 41t-41 16q-33 0 -60 -25t-48 -66t-35.5 -90t-24.5 -99t-15 -91.5t-5 -66.5q0 -53 17 -81
t52 -28q32 0 57 26.5t47.5 86.5t43.5 161l115 -13q-27 -123 -65 -202t-88.5 -117t-119.5 -38zM435 288h-169l21 94h209l-8 -35zM307 803l27 127h124l-27 -127h-124z" />
    <glyph glyph-name="J.ss08" horiz-adv-x="458" 
d="M180 -10q-51 0 -85 17.5t-52 47.5t-22.5 66.5t2.5 74.5h113q-6 -34 -3.5 -59t16 -38t39.5 -13q31 0 50.5 22t30.5 70l126 542h118l-129 -561q-19 -82 -71 -125.5t-133 -43.5z" />
    <glyph glyph-name="Q.ss09" horiz-adv-x="524" 
d="M217 -9q-51 0 -89.5 27t-60 78.5t-21.5 124.5q0 103 24 194.5t67 162t99 111t120 40.5q51 0 89 -27.5t59 -81t21 -129.5q0 -100 -24 -190t-67 -160t-98.5 -110t-118.5 -40zM229 79q39 0 71.5 37t57 99.5t38 140.5t13.5 161q0 37 -8 63t-22.5 39.5t-35.5 13.5
q-33 0 -65.5 -38t-58.5 -101.5t-41.5 -140.5t-15.5 -155q0 -39 8 -65.5t23 -40t36 -13.5zM215 196l89 33l99 -287l-90 -32z" />
    <glyph glyph-name="uni0136.ss01.ss04" horiz-adv-x="491" 
d="M-2 0l166 720h118l-166 -720h-118zM83 267l353 453h136l-272 -333l-23 -9l-154 -194zM296 0l-65 427l102 19l86 -446h-123zM70 -316l12 53q33 8 52.5 25t27.5 50l35 -4q-18 -10 -39 -10q-25 0 -42 16.5t-17 43.5q0 32 21.5 54t51.5 22q27 0 44 -18t17 -55
q0 -30 -12 -59.5t-34.5 -54t-51.5 -41.5t-65 -22z" />
    <glyph glyph-name="uni0156.ss01.ss05" horiz-adv-x="454" 
d="M-2 0l166 720h169q55 0 89.5 -21t50.5 -56.5t16 -79.5q0 -50 -21 -97.5t-63.5 -82t-108.5 -45.5l13 26q50 -5 72.5 -26.5t26 -54t-5.5 -71.5l-49 -212h-118l49 216q5 21 4 41.5t-14 34.5t-43 14h-73l21 94h78q39 0 64 24t37 58.5t12 65.5q0 38 -16.5 60t-48.5 22h-44
l-145 -630h-118zM41 -316l12 53q33 8 52.5 25t27.5 50l35 -4q-18 -10 -39 -10q-25 0 -42 16.5t-17 43.5q0 32 21.5 54t51.5 22q27 0 44 -18t17 -55q0 -30 -12 -59.5t-34.5 -54t-51.5 -41.5t-65 -22z" />
    <glyph glyph-name="uni0122.ss01.ss07" 
d="M215 -10q-56 0 -95 26t-58.5 76t-19.5 121q0 41 7 95t22.5 112t40 113t59.5 99t80.5 70.5t102.5 26.5q56 0 91 -23.5t51.5 -62t18.5 -84t-7 -87.5h-115q5 23 8.5 51t0 53t-16.5 41t-41 16q-33 0 -60 -25t-48 -66t-35.5 -90t-24.5 -99t-15 -91.5t-5 -66.5q0 -53 17 -81
t52 -28q32 0 57 26.5t47.5 86.5t43.5 161l115 -13q-27 -123 -65 -202t-88.5 -117t-119.5 -38zM435 288h-169l21 94h209l-8 -35zM85 -316l12 53q33 8 52.5 25t27.5 50l35 -4q-18 -10 -39 -10q-25 0 -42 16.5t-17 43.5q0 32 21.5 54t51.5 22q27 0 44 -18t17 -55
q0 -30 -12 -59.5t-34.5 -54t-51.5 -41.5t-65 -22z" />
    <glyph glyph-name="Gdotaccent.ss01.ss07" 
d="M215 -10q-56 0 -95 26t-58.5 76t-19.5 121q0 41 7 95t22.5 112t40 113t59.5 99t80.5 70.5t102.5 26.5q56 0 91 -23.5t51.5 -62t18.5 -84t-7 -87.5h-115q5 23 8.5 51t0 53t-16.5 41t-41 16q-33 0 -60 -25t-48 -66t-35.5 -90t-24.5 -99t-15 -91.5t-5 -66.5q0 -53 17 -81
t52 -28q32 0 57 26.5t47.5 86.5t43.5 161l115 -13q-27 -123 -65 -202t-88.5 -117t-119.5 -38zM435 288h-169l21 94h209l-8 -35zM389 798q-28 0 -46.5 19t-18.5 49q0 23 10.5 41.5t29.5 29.5t41 11q29 0 47.5 -17.5t18.5 -46.5q0 -23 -11.5 -42.5t-29.5 -31.5t-41 -12z" />
    <glyph glyph-name="i.loclTRK" horiz-adv-x="217" 
d="M-7 0l117 510h114l-117 -510h-114zM123 593l27 127h124l-27 -127h-124z" />
    <glyph glyph-name="adieresis.ss01" horiz-adv-x="408" 
d="M209 0q-2 18 0.5 38.5t6.5 42.5l-5 1l63 276q3 17 3.5 34t-7.5 29.5t-30 12.5q-27 0 -44 -19.5t-26 -56.5h-100q17 79 64.5 120.5t122.5 41.5q60 0 90.5 -25t38 -64.5t-2.5 -82.5l-64 -277q-4 -19 -6 -36t0 -35h-104zM99 -10q-45 0 -70.5 28t-25.5 79q0 42 17.5 77
t51.5 61.5t84 44.5l140 51l-19 -84l-73 -28q-45 -18 -67.5 -42t-22.5 -56q0 -21 12.5 -33t33.5 -12q24 0 40.5 16t23.5 44l-6 -68q-21 -38 -51 -58t-68 -20zM190 595q-26 0 -43 17.5t-17 44.5q0 31 22 53t52 22q28 0 44.5 -17t16.5 -44q0 -31 -22 -53.5t-53 -22.5zM389 595
q-26 0 -43 17.5t-17 44.5q0 31 22 53t53 22q27 0 44 -17t17 -44q0 -31 -22.5 -53.5t-53.5 -22.5z" />
    <glyph glyph-name="cdotaccent.ss01" horiz-adv-x="407" 
d="M168 -10q-44 0 -78 21t-52 63t-18 103q0 45 10 92.5t30 92t49 80t68 56.5t86 21q49 0 78.5 -19t44.5 -50.5t17 -67.5t-6 -69h-102q6 22 7 49t-8 46t-36 19q-25 0 -45 -19t-34 -49t-23.5 -65.5t-14.5 -69.5t-5 -60q0 -44 13 -63.5t34 -19.5q28 0 50 29t35 87h102
q-22 -102 -76.5 -154.5t-125.5 -52.5zM305 588q-28 0 -46.5 19t-18.5 49q0 23 10.5 41.5t29.5 29.5t41 11q29 0 47.5 -17.5t18.5 -46.5q0 -23 -11.5 -42.5t-29.5 -31.5t-41 -12z" />
    <glyph glyph-name="edieresis.ss01" horiz-adv-x="427" 
d="M179 -10q-50 0 -85.5 23t-55 66t-19.5 100q0 38 9 83t27.5 90t47.5 83t70 60.5t95 22.5q46 0 78.5 -19t50 -55t17.5 -90q0 -34 -6.5 -69t-16.5 -58h-296l17 79h227l-35 -43q5 22 9 51t2 55.5t-14 44t-38 17.5q-30 0 -51.5 -21.5t-37 -55.5t-25 -72t-13.5 -71t-4 -53
q0 -41 14.5 -61t42.5 -20t48 20.5t34 64.5h102q-27 -83 -76.5 -127.5t-117.5 -44.5zM203 595q-26 0 -43 17.5t-17 44.5q0 31 22 53t52 22q28 0 44.5 -17t16.5 -44q0 -31 -22 -53.5t-53 -22.5zM402 595q-26 0 -43 17.5t-17 44.5q0 31 22 53t53 22q27 0 44 -17t17 -44
q0 -31 -22.5 -53.5t-53.5 -22.5z" />
    <glyph glyph-name="edotaccent.ss01" horiz-adv-x="427" 
d="M179 -10q-50 0 -85.5 23t-55 66t-19.5 100q0 38 9 83t27.5 90t47.5 83t70 60.5t95 22.5q46 0 78.5 -19t50 -55t17.5 -90q0 -34 -6.5 -69t-16.5 -58h-296l17 79h227l-35 -43q5 22 9 51t2 55.5t-14 44t-38 17.5q-30 0 -51.5 -21.5t-37 -55.5t-25 -72t-13.5 -71t-4 -53
q0 -41 14.5 -61t42.5 -20t48 20.5t34 64.5h102q-27 -83 -76.5 -127.5t-117.5 -44.5zM314 588q-28 0 -46.5 19t-18.5 49q0 23 10.5 41.5t29.5 29.5t41 11q29 0 47.5 -17.5t18.5 -46.5q0 -23 -11.5 -42.5t-29.5 -31.5t-41 -12z" />
    <glyph glyph-name="uni0123.ss01" horiz-adv-x="469" 
d="M147 -215q-63 0 -101 24t-53 61t-10 76h106q-2 -26 15 -44t51 -18q31 0 52 18.5t30 57.5l31 133l6 -8q-20 -46 -57 -70.5t-78 -24.5q-54 0 -85.5 48t-31.5 124q0 71 17 135t47 114.5t69 79.5t83 29q33 0 58.5 -15t40 -43.5t11.5 -68.5l-5 2l26 115h106l-121 -541
q-20 -89 -75 -136.5t-132 -47.5zM197 84q27 0 47 18.5t34.5 48.5t23 64.5t12.5 66t4 53.5q0 47 -15 69t-41 22q-34 0 -62 -35.5t-44 -92t-16 -119.5q0 -42 15.5 -68.5t41.5 -26.5zM313 576q-27 0 -44 18.5t-17 54.5q0 30 12 59.5t34 54t52 41.5t65 22l-12 -53
q-33 -8 -53 -25t-27 -50l-35 4q18 10 39 10q25 0 42 -16.5t17 -43.5q0 -32 -21 -54t-52 -22z" />
    <glyph glyph-name="gdotaccent.ss01" horiz-adv-x="469" 
d="M147 -215q-63 0 -101 24t-53 61t-10 76h106q-2 -26 15 -44t51 -18q31 0 52 18.5t30 57.5l31 133l6 -8q-20 -46 -57 -70.5t-78 -24.5q-54 0 -85.5 48t-31.5 124q0 71 17 135t47 114.5t69 79.5t83 29q33 0 58.5 -15t40 -43.5t11.5 -68.5l-5 2l26 115h106l-121 -541
q-20 -89 -75 -136.5t-132 -47.5zM197 84q27 0 47 18.5t34.5 48.5t23 64.5t12.5 66t4 53.5q0 47 -15 69t-41 22q-34 0 -62 -35.5t-44 -92t-16 -119.5q0 -42 15.5 -68.5t41.5 -26.5zM323 588q-28 0 -46.5 19t-18.5 49q0 23 10.5 41.5t29.5 29.5t41 11q29 0 47.5 -17.5
t18.5 -46.5q0 -23 -11.5 -42.5t-29.5 -31.5t-41 -12z" />
    <glyph glyph-name="i.ss01" horiz-adv-x="217" 
d="M-7 0l117 510h114l-117 -510h-114zM205 588q-28 0 -46.5 19t-18.5 49q0 23 10.5 41.5t29.5 29.5t41 11q29 0 47.5 -17.5t18.5 -46.5q0 -23 -11.5 -42.5t-29.5 -31.5t-41 -12z" />
    <glyph glyph-name="idieresis.ss01" horiz-adv-x="217" 
d="M-7 0l117 510h114l-117 -510h-114zM94 595q-26 0 -43 17.5t-17 44.5q0 31 22 53t52 22q28 0 44.5 -17t16.5 -44q0 -31 -22 -53.5t-53 -22.5zM293 595q-26 0 -43 17.5t-17 44.5q0 31 22 53t53 22q27 0 44 -17t17 -44q0 -31 -22.5 -53.5t-53.5 -22.5z" />
    <glyph glyph-name="i.loclTRK.ss01" horiz-adv-x="217" 
d="M-7 0l117 510h114l-117 -510h-114zM205 588q-28 0 -46.5 19t-18.5 49q0 23 10.5 41.5t29.5 29.5t41 11q29 0 47.5 -17.5t18.5 -46.5q0 -23 -11.5 -42.5t-29.5 -31.5t-41 -12z" />
    <glyph glyph-name="ij.ss01" horiz-adv-x="433" 
d="M-7 0l117 510h114l-117 -510h-114zM205 588q-28 0 -46.5 19t-18.5 49q0 23 10.5 41.5t29.5 29.5t41 11q29 0 47.5 -17.5t18.5 -46.5q0 -23 -11.5 -42.5t-29.5 -31.5t-41 -12zM163 -215q-12 0 -33.5 2.5t-37.5 10.5l20 86q5 -3 14 -5.5t20 -2.5q17 0 28 9t15 26l138 599
h114l-143 -618q-11 -51 -45.5 -79t-89.5 -28zM422 588q-28 0 -46.5 19t-18.5 49q0 23 10.5 41.5t29.5 29.5t41 11q29 0 47.5 -17.5t18.5 -46.5q0 -23 -11.5 -42.5t-29.5 -31.5t-41 -12z" />
    <glyph glyph-name="iogonek.ss01" horiz-adv-x="217" 
d="M-7 0l117 510h114l-117 -510h-114zM205 588q-28 0 -46.5 19t-18.5 49q0 23 10.5 41.5t29.5 29.5t41 11q29 0 47.5 -17.5t18.5 -46.5q0 -23 -11.5 -42.5t-29.5 -31.5t-41 -12zM5 -216q-41 0 -63.5 19t-22.5 52q0 49 45 91t111 75l33 -21q-53 -39 -86 -69t-33 -60
q0 -14 8 -21.5t20 -7.5q15 0 33 11l14 -54q-14 -7 -28 -11t-31 -4z" />
    <glyph glyph-name="j.ss01" horiz-adv-x="216" 
d="M-54 -215q-12 0 -33.5 2.5t-37.5 10.5l20 86q5 -3 14 -5.5t20 -2.5q17 0 28 9t15 26l138 599h114l-143 -618q-11 -51 -45.5 -79t-89.5 -28zM205 588q-28 0 -46.5 19t-18.5 49q0 23 10.5 41.5t29.5 29.5t41 11q29 0 47.5 -17.5t18.5 -46.5q0 -23 -11.5 -42.5t-29.5 -31.5
t-41 -12z" />
    <glyph glyph-name="uni0137.ss01" horiz-adv-x="426" 
d="M-8 0l166 720h114l-166 -720h-114zM240 0l-84 265l178 245h130l-207 -267l-5 46l104 -289h-116zM38 -316l12 53q33 8 52.5 25t27.5 50l35 -4q-18 -10 -39 -10q-25 0 -42 16.5t-17 43.5q0 32 21.5 54t51.5 22q27 0 44 -18t17 -55q0 -30 -12 -59.5t-34.5 -54t-51.5 -41.5
t-65 -22z" />
    <glyph glyph-name="uni013C.ss01" horiz-adv-x="216" 
d="M-8 0l166 720h114l-166 -720h-114zM-81 -316l12 53q33 8 52.5 25t27.5 50l35 -4q-18 -10 -39 -10q-25 0 -42 16.5t-17 43.5q0 32 21.5 54t51.5 22q27 0 44 -18t17 -55q0 -30 -12 -59.5t-34.5 -54t-51.5 -41.5t-65 -22z" />
    <glyph glyph-name="uni0146.ss01" horiz-adv-x="456" 
d="M-7 0l117 510h109l-22 -96h5l-95 -414h-114zM235 0l83 360q8 35 -3 52.5t-40 17.5q-32 0 -56.5 -25t-34.5 -71l2 76q24 54 64.5 82t89.5 28q57 0 84.5 -39.5t13.5 -102.5l-88 -378h-115zM43 -316l12 53q33 8 52.5 25t27.5 50l35 -4q-18 -10 -39 -10q-25 0 -42 16.5
t-17 43.5q0 32 21.5 54t51.5 22q27 0 44 -18t17 -55q0 -30 -12 -59.5t-34.5 -54t-51.5 -41.5t-65 -22z" />
    <glyph glyph-name="odieresis.ss01" horiz-adv-x="451" 
d="M183 -10q-46 0 -82.5 22t-57.5 66.5t-21 110.5q0 65 18.5 125t51.5 106t78 73t99 27q49 0 85 -23.5t55.5 -67.5t19.5 -105q0 -66 -18.5 -126t-52.5 -107t-78.5 -74t-96.5 -27zM191 82q25 0 47 22.5t39 60.5t27 82.5t10 87.5q0 47 -14 70t-40 23q-25 0 -47.5 -22.5
t-39 -59.5t-26.5 -82t-10 -89q0 -47 14.5 -70t39.5 -23zM210 595q-26 0 -43 17.5t-17 44.5q0 31 22 53t52 22q28 0 44.5 -17t16.5 -44q0 -31 -22 -53.5t-53 -22.5zM409 595q-26 0 -43 17.5t-17 44.5q0 31 22 53t53 22q27 0 44 -17t17 -44q0 -31 -22.5 -53.5t-53.5 -22.5z
" />
    <glyph glyph-name="uni0157.ss01" horiz-adv-x="300" 
d="M-8 0l118 510h109l-27 -119h5l-91 -391h-114zM178 312l4 85q30 66 62.5 94.5t69.5 28.5q7 0 15 -1t15 -5l-26 -112q-6 2 -18 3.5t-19 1.5q-37 0 -64.5 -22.5t-38.5 -72.5zM-84 -316l12 53q33 8 52.5 25t27.5 50l35 -4q-18 -10 -39 -10q-25 0 -42 16.5t-17 43.5
q0 32 21.5 54t51.5 22q27 0 44 -18t17 -55q0 -30 -12 -59.5t-34.5 -54t-51.5 -41.5t-65 -22z" />
    <glyph glyph-name="uni0219.ss01" horiz-adv-x="353" 
d="M140 -10q-52 0 -87 22.5t-48.5 60.5t-4.5 85h94q-3 -19 0.5 -38t16 -31.5t37.5 -12.5q28 0 43 16.5t15 42.5q0 19 -9 35t-28 32l-44 39q-30 25 -44.5 53t-14.5 65q0 46 21 82.5t58 57.5t85 21q45 0 74 -19.5t40.5 -53t4.5 -78.5h-94q3 16 1 30.5t-11 24t-29 9.5
q-24 0 -37.5 -16t-13.5 -41q0 -16 7.5 -29.5t24.5 -29.5l50 -43q28 -24 43 -55t15 -70q0 -47 -20.5 -83t-58 -56t-86.5 -20zM-2 -316l12 53q33 8 52.5 25t27.5 50l35 -4q-18 -10 -39 -10q-25 0 -42 16.5t-17 43.5q0 32 21.5 54t51.5 22q27 0 44 -18t17 -55q0 -30 -12 -59.5
t-34.5 -54t-51.5 -41.5t-65 -22z" />
    <glyph glyph-name="uni021B.ss01" horiz-adv-x="298" 
d="M164 -10q-71 0 -100 39t-13 111l107 466l126 50l-121 -524q-5 -26 5.5 -38.5t38.5 -12.5q10 0 20 2t18 5l-21 -88q-11 -5 -25.5 -7.5t-34.5 -2.5zM49 419l21 91h269l-21 -91h-269zM4 -316l12 53q33 8 52.5 25t27.5 50l35 -4q-18 -10 -39 -10q-25 0 -42 16.5t-17 43.5
q0 32 21.5 54t51.5 22q27 0 44 -18t17 -55q0 -30 -12 -59.5t-34.5 -54t-51.5 -41.5t-65 -22z" />
    <glyph glyph-name="udieresis.ss01" horiz-adv-x="447" 
d="M112 -10q-55 0 -81.5 39.5t-12.5 102.5l88 378h114l-83 -360q-8 -34 3 -52t37 -18q30 0 53.5 25t33.5 71l-2 -76q-24 -54 -63.5 -82t-86.5 -28zM229 0l23 96h-6l95 414h115l-118 -510h-109zM210 595q-26 0 -43 17.5t-17 44.5q0 31 22 53t52 22q28 0 44.5 -17t16.5 -44
q0 -31 -22 -53.5t-53 -22.5zM409 595q-26 0 -43 17.5t-17 44.5q0 31 22 53t53 22q27 0 44 -17t17 -44q0 -31 -22.5 -53.5t-53.5 -22.5z" />
    <glyph glyph-name="wdieresis.ss01" horiz-adv-x="647" 
d="M80 0l5 510h112l-22 -383h-16l166 383h112l-10 -383h-16l153 383h116l-231 -510h-115l12 377h11l-162 -377h-115zM310 595q-26 0 -43 17.5t-17 44.5q0 31 22 53t52 22q28 0 44.5 -17t16.5 -44q0 -31 -22 -53.5t-53 -22.5zM509 595q-26 0 -43 17.5t-17 44.5q0 31 22 53
t53 22q27 0 44 -17t17 -44q0 -31 -22.5 -53.5t-53.5 -22.5z" />
    <glyph glyph-name="ydieresis.ss01" horiz-adv-x="413" 
d="M-15 -205l144 287l25 28l182 400h120l-355 -715h-116zM109 -9l-34 519h119v-444zM199 595q-26 0 -43 17.5t-17 44.5q0 31 22 53t52 22q28 0 44.5 -17t16.5 -44q0 -31 -22 -53.5t-53 -22.5zM398 595q-26 0 -43 17.5t-17 44.5q0 31 22 53t53 22q27 0 44 -17t17 -44
q0 -31 -22.5 -53.5t-53.5 -22.5z" />
    <glyph glyph-name="zdotaccent.ss01" horiz-adv-x="381" 
d="M-26 0l19 81l264 357l20 -19h-197l21 91h306l-16 -68l-275 -370l-20 19h218l-21 -91h-319zM288 588q-28 0 -46.5 19t-18.5 49q0 23 10.5 41.5t29.5 29.5t41 11q29 0 47.5 -17.5t18.5 -46.5q0 -23 -11.5 -42.5t-29.5 -31.5t-41 -12z" />
    <glyph glyph-name="a.ss02" horiz-adv-x="469" 
d="M137 -10q-54 0 -85 47t-31 123q0 71 17.5 135.5t47.5 115t69.5 80t83.5 29.5q32 0 58 -15t40 -43.5t11 -68.5l-8 2l27 115h110l-118 -510h-110l22 93l1 -8q-21 -46 -58 -70.5t-77 -24.5zM195 84q27 0 47 19t35 49t23.5 64.5t13 66.5t4.5 53q0 46 -15 68t-41 22
q-33 0 -61 -35.5t-45 -92t-17 -119.5q0 -42 15 -68.5t41 -26.5z" />
    <glyph glyph-name="aacute.ss02" horiz-adv-x="469" 
d="M137 -10q-54 0 -85 47t-31 123q0 71 17.5 135.5t47.5 115t69.5 80t83.5 29.5q32 0 58 -15t40 -43.5t11 -68.5l-8 2l27 115h110l-118 -510h-110l22 93l1 -8q-21 -46 -58 -70.5t-77 -24.5zM195 84q27 0 47 19t35 49t23.5 64.5t13 66.5t4.5 53q0 46 -15 68t-41 22
q-33 0 -61 -35.5t-45 -92t-17 -119.5q0 -42 15 -68.5t41 -26.5zM322 583h-90l95 157h154z" />
    <glyph glyph-name="abreve.ss02" horiz-adv-x="469" 
d="M137 -10q-54 0 -85 47t-31 123q0 71 17.5 135.5t47.5 115t69.5 80t83.5 29.5q32 0 58 -15t40 -43.5t11 -68.5l-8 2l27 115h110l-118 -510h-110l22 93l1 -8q-21 -46 -58 -70.5t-77 -24.5zM195 84q27 0 47 19t35 49t23.5 64.5t13 66.5t4.5 53q0 46 -15 68t-41 22
q-33 0 -61 -35.5t-45 -92t-17 -119.5q0 -42 15 -68.5t41 -26.5zM322 576q-42 0 -69 16.5t-41.5 42.5t-17 54t4.5 51h73q-5 -15 -0.5 -34t20 -32.5t42.5 -13.5q33 0 56.5 21t30.5 59h73q-16 -86 -64.5 -125t-107.5 -39z" />
    <glyph glyph-name="uni01CE.ss02" horiz-adv-x="469" 
d="M137 -10q-54 0 -85 47t-31 123q0 71 17.5 135.5t47.5 115t69.5 80t83.5 29.5q32 0 58 -15t40 -43.5t11 -68.5l-8 2l27 115h110l-118 -510h-110l22 93l1 -8q-21 -46 -58 -70.5t-77 -24.5zM195 84q27 0 47 19t35 49t23.5 64.5t13 66.5t4.5 53q0 46 -15 68t-41 22
q-33 0 -61 -35.5t-45 -92t-17 -119.5q0 -42 15 -68.5t41 -26.5zM258 583l-69 157h74l91 -124h-86l148 124h90l-142 -157h-106z" />
    <glyph glyph-name="acircumflex.ss02" horiz-adv-x="469" 
d="M137 -10q-54 0 -85 47t-31 123q0 71 17.5 135.5t47.5 115t69.5 80t83.5 29.5q32 0 58 -15t40 -43.5t11 -68.5l-8 2l27 115h110l-118 -510h-110l22 93l1 -8q-21 -46 -58 -70.5t-77 -24.5zM195 84q27 0 47 19t35 49t23.5 64.5t13 66.5t4.5 53q0 46 -15 68t-41 22
q-33 0 -61 -35.5t-45 -92t-17 -119.5q0 -42 15 -68.5t41 -26.5zM152 583l141 157h106l70 -157h-73l-91 124h86l-148 -124h-91z" />
    <glyph glyph-name="adieresis.ss02" horiz-adv-x="469" 
d="M137 -10q-54 0 -85 47t-31 123q0 71 17.5 135.5t47.5 115t69.5 80t83.5 29.5q32 0 58 -15t40 -43.5t11 -68.5l-8 2l27 115h110l-118 -510h-110l22 93l1 -8q-21 -46 -58 -70.5t-77 -24.5zM195 84q27 0 47 19t35 49t23.5 64.5t13 66.5t4.5 53q0 46 -15 68t-41 22
q-33 0 -61 -35.5t-45 -92t-17 -119.5q0 -42 15 -68.5t41 -26.5zM353 595l29 125h122l-29 -125h-122zM151 595l29 125h122l-29 -125h-122z" />
    <glyph glyph-name="agrave.ss02" horiz-adv-x="469" 
d="M137 -10q-54 0 -85 47t-31 123q0 71 17.5 135.5t47.5 115t69.5 80t83.5 29.5q32 0 58 -15t40 -43.5t11 -68.5l-8 2l27 115h110l-118 -510h-110l22 93l1 -8q-21 -46 -58 -70.5t-77 -24.5zM195 84q27 0 47 19t35 49t23.5 64.5t13 66.5t4.5 53q0 46 -15 68t-41 22
q-33 0 -61 -35.5t-45 -92t-17 -119.5q0 -42 15 -68.5t41 -26.5zM309 583l-96 157h128l49 -157h-81z" />
    <glyph glyph-name="amacron.ss02" horiz-adv-x="469" 
d="M137 -10q-54 0 -85 47t-31 123q0 71 17.5 135.5t47.5 115t69.5 80t83.5 29.5q32 0 58 -15t40 -43.5t11 -68.5l-8 2l27 115h110l-118 -510h-110l22 93l1 -8q-21 -46 -58 -70.5t-77 -24.5zM195 84q27 0 47 19t35 49t23.5 64.5t13 66.5t4.5 53q0 46 -15 68t-41 22
q-33 0 -61 -35.5t-45 -92t-17 -119.5q0 -42 15 -68.5t41 -26.5zM181 630l18 82h281l-18 -82h-281z" />
    <glyph glyph-name="aogonek.ss02" horiz-adv-x="469" 
d="M137 -10q-54 0 -85 47t-31 123q0 71 17.5 135.5t47.5 115t69.5 80t83.5 29.5q32 0 58 -15t40 -43.5t11 -68.5l-8 2l27 115h110l-118 -510h-110l22 93l1 -8q-21 -46 -58 -70.5t-77 -24.5zM195 84q27 0 47 19t35 49t23.5 64.5t13 66.5t4.5 53q0 46 -15 68t-41 22
q-33 0 -61 -35.5t-45 -92t-17 -119.5q0 -42 15 -68.5t41 -26.5zM257 -216q-41 0 -63.5 19t-22.5 52q0 49 45 91t111 75l33 -21q-53 -39 -86 -69t-33 -60q0 -14 8 -21.5t20 -7.5q15 0 33 11l14 -54q-14 -7 -28 -11t-31 -4z" />
    <glyph glyph-name="aring.ss02" horiz-adv-x="469" 
d="M137 -10q-54 0 -85 47t-31 123q0 71 17.5 135.5t47.5 115t69.5 80t83.5 29.5q32 0 58 -15t40 -43.5t11 -68.5l-8 2l27 115h110l-118 -510h-110l22 93l1 -8q-21 -46 -58 -70.5t-77 -24.5zM195 84q27 0 47 19t35 49t23.5 64.5t13 66.5t4.5 53q0 46 -15 68t-41 22
q-33 0 -61 -35.5t-45 -92t-17 -119.5q0 -42 15 -68.5t41 -26.5zM319 561q-41 0 -69 27.5t-28 68.5q0 33 16 60t42.5 43t57.5 16q42 0 70 -27.5t28 -68.5q0 -31 -16.5 -58.5t-43 -44t-57.5 -16.5zM323 620q21 0 36.5 16t15.5 39q0 17 -11 29.5t-29 12.5q-20 0 -36 -15.5
t-16 -38.5q0 -19 11.5 -31t28.5 -12z" />
    <glyph glyph-name="atilde.ss02" horiz-adv-x="469" 
d="M137 -10q-54 0 -85 47t-31 123q0 71 17.5 135.5t47.5 115t69.5 80t83.5 29.5q32 0 58 -15t40 -43.5t11 -68.5l-8 2l27 115h110l-118 -510h-110l22 93l1 -8q-21 -46 -58 -70.5t-77 -24.5zM195 84q27 0 47 19t35 49t23.5 64.5t13 66.5t4.5 53q0 46 -15 68t-41 22
q-33 0 -61 -35.5t-45 -92t-17 -119.5q0 -42 15 -68.5t41 -26.5zM388 601q-22 0 -39 7.5t-31 17.5t-27.5 17.5t-28.5 7.5q-17 0 -27 -10t-16 -33h-69q9 38 24 66.5t39.5 44.5t59.5 16q24 0 40 -7.5t29 -17.5t26 -17.5t29 -7.5q17 0 27.5 10t15.5 34h68q-13 -58 -40.5 -93
t-79.5 -35z" />
    <glyph glyph-name="y.ss03" horiz-adv-x="420" 
d="M-4 -215q-16 0 -26.5 1.5t-19.5 4.5l20 87q5 -1 11.5 -2t15.5 -1q24 0 43 10.5t32 39.5l70 155l34 49l170 381h117l-298 -610q-23 -48 -48 -72.5t-54 -33.5t-67 -9zM117 -7l-35 517h119v-431z" />
    <glyph glyph-name="yacute.ss03" horiz-adv-x="420" 
d="M-4 -215q-16 0 -26.5 1.5t-19.5 4.5l20 87q5 -1 11.5 -2t15.5 -1q24 0 43 10.5t32 39.5l70 155l34 49l170 381h117l-298 -610q-23 -48 -48 -72.5t-54 -33.5t-67 -9zM117 -7l-35 517h119v-431zM298 583h-90l95 157h154z" />
    <glyph glyph-name="ycircumflex.ss03" horiz-adv-x="420" 
d="M-4 -215q-16 0 -26.5 1.5t-19.5 4.5l20 87q5 -1 11.5 -2t15.5 -1q24 0 43 10.5t32 39.5l70 155l34 49l170 381h117l-298 -610q-23 -48 -48 -72.5t-54 -33.5t-67 -9zM117 -7l-35 517h119v-431zM128 583l141 157h106l70 -157h-73l-91 124h86l-148 -124h-91z" />
    <glyph glyph-name="ydieresis.ss03" horiz-adv-x="420" 
d="M-4 -215q-16 0 -26.5 1.5t-19.5 4.5l20 87q5 -1 11.5 -2t15.5 -1q24 0 43 10.5t32 39.5l70 155l34 49l170 381h117l-298 -610q-23 -48 -48 -72.5t-54 -33.5t-67 -9zM117 -7l-35 517h119v-431zM328 595l29 125h122l-29 -125h-122zM126 595l29 125h122l-29 -125h-122z" />
    <glyph glyph-name="ygrave.ss03" horiz-adv-x="420" 
d="M-4 -215q-16 0 -26.5 1.5t-19.5 4.5l20 87q5 -1 11.5 -2t15.5 -1q24 0 43 10.5t32 39.5l70 155l34 49l170 381h117l-298 -610q-23 -48 -48 -72.5t-54 -33.5t-67 -9zM117 -7l-35 517h119v-431zM285 583l-96 157h128l49 -157h-81z" />
    <glyph glyph-name="k.ss04" horiz-adv-x="426" 
d="M-8 0l166 720h114l-166 -720h-114zM142 235l194 275h128l-182 -240l-30 -10l-134 -159zM289 304l72 -304h-115l-56 271z" />
    <glyph glyph-name="uni0137.ss04" horiz-adv-x="426" 
d="M-8 0l166 720h114l-166 -720h-114zM142 235l194 275h128l-182 -240l-30 -10l-134 -159zM289 304l72 -304h-115l-56 271zM32 -317l12 54q33 6 53 24t28 52l40 -8h-105l28 122h125l-23 -100q-14 -66 -55.5 -99t-102.5 -45z" />
    <glyph glyph-name="adieresis.ss01.ss02" horiz-adv-x="469" 
d="M137 -10q-54 0 -85 47t-31 123q0 71 17.5 135.5t47.5 115t69.5 80t83.5 29.5q32 0 58 -15t40 -43.5t11 -68.5l-8 2l27 115h110l-118 -510h-110l22 93l1 -8q-21 -46 -58 -70.5t-77 -24.5zM195 84q27 0 47 19t35 49t23.5 64.5t13 66.5t4.5 53q0 46 -15 68t-41 22
q-33 0 -61 -35.5t-45 -92t-17 -119.5q0 -42 15 -68.5t41 -26.5zM221 595q-26 0 -43 17.5t-17 44.5q0 31 22 53t52 22q28 0 44.5 -17t16.5 -44q0 -31 -22 -53.5t-53 -22.5zM420 595q-26 0 -43 17.5t-17 44.5q0 31 22 53t53 22q27 0 44 -17t17 -44q0 -31 -22.5 -53.5
t-53.5 -22.5z" />
    <glyph glyph-name="ydieresis.ss01.ss03" horiz-adv-x="420" 
d="M-4 -215q-16 0 -26.5 1.5t-19.5 4.5l20 87q5 -1 11.5 -2t15.5 -1q24 0 43 10.5t32 39.5l70 155l34 49l170 381h117l-298 -610q-23 -48 -48 -72.5t-54 -33.5t-67 -9zM117 -7l-35 517h119v-431zM197 595q-26 0 -43 17.5t-17 44.5q0 31 22 53t52 22q28 0 44.5 -17t16.5 -44
q0 -31 -22 -53.5t-53 -22.5zM396 595q-26 0 -43 17.5t-17 44.5q0 31 22 53t53 22q27 0 44 -17t17 -44q0 -31 -22.5 -53.5t-53.5 -22.5z" />
    <glyph glyph-name="uni0137.ss01.ss04" horiz-adv-x="426" 
d="M-8 0l166 720h114l-166 -720h-114zM142 235l194 275h128l-182 -240l-30 -10l-134 -159zM289 304l72 -304h-115l-56 271zM38 -316l12 53q33 8 52.5 25t27.5 50l35 -4q-18 -10 -39 -10q-25 0 -42 16.5t-17 43.5q0 32 21.5 54t51.5 22q27 0 44 -18t17 -55q0 -30 -12 -59.5
t-34.5 -54t-51.5 -41.5t-65 -22z" />
    <glyph glyph-name="f_f_i.ss01" horiz-adv-x="705" 
d="M252 0l139 605q15 61 53 93t100 32q13 0 30 -2.5t31 -8.5l-21 -88q-4 2 -12 3t-15 1q-25 0 -37 -11.5t-18 -35.5l-135 -588h-115zM13 0l139 605q15 61 53 93t100 32q13 0 30 -2.5t31 -8.5l-21 -88q-4 2 -12 3t-15 1q-25 0 -37 -11.5t-18 -35.5l-135 -588h-115zM49 419
l21 91h579l-21 -91h-579zM490 0l118 510h115l-118 -510h-115zM694 579q-28 0 -46 18t-18 44q0 35 23.5 57.5t54.5 22.5q30 0 47 -17.5t17 -43.5q0 -33 -23 -57t-55 -24z" />
    <glyph glyph-name="f_i.ss01" horiz-adv-x="487" 
d="M12 0l139 605q15 61 53 93t100 32q13 0 30 -2.5t31 -8.5l-21 -88q-4 2 -12 3t-15 1q-25 0 -37 -11.5t-18 -35.5l-135 -588h-115zM250 0l118 510h115l-118 -510h-115zM454 579q-28 0 -46 18t-18 44q0 35 23.5 57.5t54.5 22.5q30 0 47 -17.5t17 -43.5q0 -33 -23 -57
t-55 -24zM49 419l21 91h339l-21 -91h-339z" />
    <glyph glyph-name="two.ss10" horiz-adv-x="419" 
d="M-23 0l23 97q11 51 35.5 92.5t56.5 76t66.5 65t67.5 59t60 56.5t42.5 59.5t15.5 67.5q0 32 -13.5 48t-41.5 16q-36 0 -62.5 -29t-39.5 -94h-107q22 107 78 161t140 54q45 0 82 -16.5t59 -51t22 -88.5q0 -50 -18 -90t-47.5 -74t-66 -65t-74 -61.5t-71 -64.5t-57 -74.5
t-32.5 -90.5l-8 38h273l-20 -91h-363z" />
    <glyph glyph-name="zero.tf" 
d="M209 -10q-44 0 -79.5 23.5t-56.5 72t-21 122.5q0 40 6 93.5t20 112.5t36.5 115t54 101.5t73.5 72.5t95 27q47 0 83.5 -24.5t57 -72.5t20.5 -119q0 -39 -6.5 -93t-20.5 -113t-37 -115.5t-55 -102t-74 -73t-96 -27.5zM216 84q26 0 48.5 26t41 69t32 94.5t23.5 103.5
t15 95.5t5 70.5q0 52 -14 72.5t-36 20.5q-25 0 -47 -26.5t-40 -69.5t-32 -95.5t-23.5 -104.5t-14.5 -95.5t-5 -70.5q0 -47 12.5 -68.5t34.5 -21.5z" />
    <glyph glyph-name="one.tf" 
d="M170 42l140 608l16 -44q-21 -28 -51.5 -49.5t-66 -34.5t-73.5 -15l26 118q44 4 79.5 16.5t64 33t51.5 45.5h85l-159 -690zM11 0l21 91h396l-20 -91h-397z" />
    <glyph glyph-name="two.tf" 
d="M19 0l18 80q77 76 140 148.5t109 138.5t71 119t25 91q0 28 -14.5 44t-42.5 16q-35 0 -58.5 -29.5t-38.5 -93.5h-107q23 109 80.5 162.5t137.5 53.5q70 0 114.5 -38.5t44.5 -107.5q0 -51 -27.5 -115t-77 -135.5t-114 -144.5t-138.5 -143l-13 45h273l-21 -91h-361z" />
    <glyph glyph-name="three.tf" 
d="M215 -9q-54 0 -90 20t-57 53.5t-25.5 75.5t5.5 85h107q-4 -25 -4.5 -50t6 -45.5t20.5 -33t40 -12.5q29 0 48.5 16.5t30.5 41t16 51.5t5 48q0 43 -17.5 66t-54.5 23h-49l21 91h47q40 0 66 22t38.5 55.5t12.5 66.5q0 37 -15.5 54.5t-43.5 17.5q-34 0 -58 -29t-37 -94h-106
q20 107 76 161t137 54q50 0 86 -19.5t56.5 -54t20.5 -81.5q0 -40 -14.5 -79t-40 -70t-59 -47.5t-72.5 -12.5l3 20q54 -6 85 -48t31 -106q0 -36 -11.5 -78t-37 -78.5t-67 -60t-99.5 -23.5z" />
    <glyph glyph-name="four.tf" 
d="M215 0l42 180l12 20l87 378l39 -1l-256 -366l-13 20h322l-20 -91h-410l20 87l345 493h113l-166 -720h-115z" />
    <glyph glyph-name="five.tf" 
d="M210 -10q-49 0 -84 19t-55 51t-25.5 72.5t3.5 83.5h106q-7 -31 -3.5 -61.5t19 -50.5t45.5 -20q24 0 42.5 13t31.5 36t21.5 50t12.5 55.5t4 52.5q0 48 -15.5 70t-46.5 22q-24 0 -43.5 -13t-31.5 -39h-89l105 389h316l-21 -91h-260l63 49l-70 -257l-27 7q14 19 37 31t59 12
q46 0 77.5 -20.5t48.5 -59t17 -92.5q0 -34 -8 -75.5t-25 -82.5t-44.5 -75.5t-67 -55t-92.5 -20.5z" />
    <glyph glyph-name="six.tf" 
d="M223 -10q-49 0 -86 23t-57 70.5t-20 117.5q0 38 6.5 91.5t21 113t38.5 117t57.5 104.5t78.5 75t102 28q45 0 74.5 -17.5t45.5 -46t20.5 -63t-1.5 -69.5h-107q5 21 3 45t-14 41t-39 17q-28 0 -54 -26.5t-49 -86.5t-45 -160l-6 -26l-22 10q16 34 37 57.5t47 35t56 11.5
q44 0 75.5 -20.5t48.5 -58t17 -90.5q0 -44 -13 -94.5t-41 -95.5t-71 -74t-103 -29zM223 83q31 0 52 23t34 57t19 68t6 56q0 28 -8 46t-21 27t-32 9q-30 0 -51 -21.5t-34 -53.5t-18.5 -65.5t-5.5 -56.5q0 -44 17 -66.5t42 -22.5z" />
    <glyph glyph-name="seven.tf" 
d="M92 0q37 124 84 237.5t108.5 217t141.5 197.5l35 -23h-315l21 91h381l-20 -85q-109 -137 -186.5 -295t-130.5 -340h-119z" />
    <glyph glyph-name="eight.tf" 
d="M217 -10q-51 0 -92 21t-65 59.5t-24 90.5q0 39 13.5 80t39.5 76t62.5 56.5t83.5 21.5l2 -20q-34 0 -58 18t-37 48.5t-13 69.5t13 77.5t39.5 70.5t64.5 51.5t88 19.5q51 0 88 -20.5t57.5 -56.5t20.5 -84q0 -37 -13 -74t-37.5 -66.5t-58.5 -47.5t-77 -18l12 19
q34 0 58.5 -20.5t38 -55t13.5 -77.5q0 -42 -14.5 -84.5t-42.5 -77.5t-68.5 -56t-93.5 -21zM217 83q28 0 47.5 17.5t31.5 45t17.5 55.5t5.5 49q0 25 -7.5 43t-21 28.5t-32.5 10.5q-28 0 -48 -18.5t-32 -45.5t-18 -55.5t-6 -48.5q0 -27 8.5 -45.5t23 -27t31.5 -8.5zM297 420
q23 0 39.5 16t27.5 40.5t16 49.5t5 43q0 32 -14.5 50t-38.5 18t-40.5 -16t-27 -39.5t-15 -48t-4.5 -42.5q0 -32 14.5 -51.5t37.5 -19.5z" />
    <glyph glyph-name="nine.tf" 
d="M188 -10q-45 0 -75 18t-46 48t-19 69t6 81h106q-7 -31 -6.5 -59t13 -46t39.5 -18q29 0 53.5 27.5t47 90t45.5 166.5l5 26l23 -10q-16 -34 -37 -57t-47 -35t-57 -12q-32 0 -58 11.5t-45 33.5t-28.5 52t-9.5 68q0 41 13.5 90.5t41 93.5t70.5 73t103 29q50 0 87 -23t57 -68
t20 -113q0 -37 -6.5 -90.5t-20.5 -114t-37.5 -119t-57 -106.5t-78 -77t-102.5 -29zM276 362q30 0 51 21.5t34 53.5t19 64.5t6 53.5q0 39 -17 60.5t-43 21.5q-31 0 -52 -22t-34 -54.5t-19 -65.5t-6 -55q0 -25 8 -42.5t21.5 -26.5t31.5 -9z" />
    <glyph glyph-name="two.tf.ss10" 
d="M18 0l23 97q11 51 35.5 92.5t56.5 76t66.5 65t67.5 59t60 56.5t42.5 59.5t15.5 67.5q0 32 -13.5 48t-41.5 16q-36 0 -62.5 -29t-39.5 -94h-107q22 107 78 161t140 54q45 0 82 -16.5t59 -51t22 -88.5q0 -50 -18 -90t-47.5 -74t-66 -65t-74 -61.5t-71 -64.5t-57 -74.5
t-32.5 -90.5l-8 38h273l-21 -91h-362z" />
    <glyph glyph-name="colon.case" horiz-adv-x="232" 
d="M21 133l31 136h135l-31 -136h-135zM102 483l31 136h135l-31 -136h-135z" />
    <glyph glyph-name="semicolon.case" horiz-adv-x="233" 
d="M-14 -17l14 59q43 12 62.5 36t29.5 65l43 -10h-114l31 136h135l-27 -119q-15 -66 -56 -107t-118 -60zM102 483l31 136h135l-31 -136h-135z" />
    <glyph glyph-name="exclam.case" horiz-adv-x="252" 
d="M76 236l93 484h130l-131 -484h-92zM0 0l31 136h135l-31 -136h-135z" />
    <glyph glyph-name="exclamdown.case" horiz-adv-x="248" 
d="M0 0l131 484h92l-94 -484h-129zM299 720l-31 -136h-135l31 136h135z" />
    <glyph glyph-name="question.case" horiz-adv-x="411" 
d="M145 236q12 50 30 89t40.5 70.5t44.5 56.5t40.5 47t29.5 43t11 44t-12 37t-38 14q-34 0 -54 -25t-32 -81h-108q13 68 42 112t71.5 65.5t94.5 21.5q45 0 79.5 -17t54 -48.5t19.5 -74.5q0 -36 -12 -65.5t-32 -54.5t-44 -49t-47 -51t-42 -59.5t-29 -74.5h-107zM76 0l31 136
h135l-31 -136h-135z" />
    <glyph glyph-name="questiondown.case" horiz-adv-x="412" 
d="M155 -10q-45 0 -79.5 17t-54 49t-19.5 74q0 37 12 66t32 54t44 49t47 51t42 59.5t29 75.5h107q-11 -51 -29.5 -90t-41 -70.5t-44.5 -56.5t-40.5 -47t-29.5 -43t-11 -44t12 -37t38 -14q34 0 54.5 25.5t31.5 80.5h108q-12 -68 -41.5 -111.5t-72 -65.5t-94.5 -22zM384 720
l-31 -136h-135l31 136h135z" />
    <glyph glyph-name="bullet.case" horiz-adv-x="591" 
d="M22 133l113 495h492l-113 -495h-492z" />
    <glyph glyph-name="periodcentered.loclCAT" horiz-adv-x="151" 
d="M93 296q-27 0 -46.5 18t-19.5 49q0 25 12 44t31 29.5t40 10.5q28 0 47.5 -19.5t19.5 -49.5q0 -36 -26 -59t-58 -23z" />
    <glyph glyph-name="period.ss01" horiz-adv-x="232" 
d="M63 -10q-27 0 -46.5 18t-19.5 49q0 25 12 44t31 29.5t40 10.5q28 0 47.5 -19.5t19.5 -49.5q0 -36 -26 -59t-58 -23z" />
    <glyph glyph-name="comma.ss01" horiz-adv-x="232" 
d="M-36 -150l13 58q37 13 59.5 36.5t31.5 64.5l37 -4q-10 -6 -22.5 -9t-24.5 -2q-21 1 -40.5 16.5t-19.5 48.5q0 23 10.5 41.5t29 29.5t41.5 11q27 0 45.5 -18t18.5 -61q0 -48 -24.5 -92.5t-65 -76.5t-89.5 -43z" />
    <glyph glyph-name="colon.ss01" horiz-adv-x="232" 
d="M63 -10q-27 0 -46.5 18t-19.5 49q0 25 12 44t31 29.5t40 10.5q28 0 47.5 -19.5t19.5 -49.5q0 -36 -26 -59t-58 -23zM144 341q-27 0 -46.5 18t-19.5 49q0 25 12 44t31 29.5t40 10.5q28 0 47.5 -19.5t19.5 -49.5q0 -36 -26 -59t-58 -23z" />
    <glyph glyph-name="semicolon.ss01" horiz-adv-x="240" 
d="M-28 -150l13 58q37 13 59.5 36.5t31.5 64.5l37 -4q-10 -6 -22.5 -9t-24.5 -2q-21 1 -40.5 16.5t-19.5 48.5q0 23 10.5 41.5t29 29.5t41.5 11q27 0 45.5 -18t18.5 -61q0 -48 -24.5 -92.5t-65 -76.5t-89.5 -43zM144 341q-27 0 -46.5 18t-19.5 49q0 25 12 44t31 29.5
t40 10.5q28 0 47.5 -19.5t19.5 -49.5q0 -36 -26 -59t-58 -23z" />
    <glyph glyph-name="ellipsis.ss01" horiz-adv-x="606" 
d="M63 -10q-27 0 -46.5 18t-19.5 49q0 25 12 44t31 29.5t40 10.5q28 0 47.5 -19.5t19.5 -49.5q0 -36 -26 -59t-58 -23zM250 -10q-27 0 -46.5 18t-19.5 49q0 25 12 44t31 29.5t40 10.5q28 0 47.5 -19.5t19.5 -49.5q0 -36 -26 -59t-58 -23zM436 -10q-27 0 -46.5 18t-19.5 49
q0 25 12 44t31 29.5t40 10.5q28 0 47.5 -19.5t19.5 -49.5q0 -36 -26 -59t-58 -23z" />
    <glyph glyph-name="exclam.ss01" horiz-adv-x="252" 
d="M76 236l97 504h130l-135 -504h-92zM73 -10q-27 0 -46.5 18t-19.5 49q0 25 12 44t31 29.5t40 10.5q28 0 47.5 -19.5t19.5 -49.5q0 -36 -26 -59t-58 -23z" />
    <glyph glyph-name="exclamdown.ss01" horiz-adv-x="264" 
d="M-38 -204l129 478h92l-92 -478h-129zM186 520q27 0 46 -18t19 -49q0 -24 -11.5 -43t-30.5 -30t-40 -11q-28 0 -48 19.5t-20 50.5q0 35 26 58t59 23z" />
    <glyph glyph-name="question.ss01" horiz-adv-x="411" 
d="M145 236q13 60 32.5 104t42.5 76.5t45 57t40 45.5t29 41.5t11 45.5q0 26 -12.5 38.5t-35.5 12.5q-30 0 -53.5 -25t-35.5 -81h-106q12 68 42.5 111.5t73 65.5t90.5 22q46 0 80 -17t53.5 -49t19.5 -77q0 -37 -12 -65t-31.5 -51.5t-43.5 -47t-47.5 -52t-43 -66t-31.5 -89.5
h-107zM149 -10q-27 0 -46.5 18t-19.5 49q0 25 12 44t31 29.5t40 10.5q28 0 47.5 -19.5t19.5 -49.5q0 -36 -26 -59t-58 -23z" />
    <glyph glyph-name="questiondown.ss01" horiz-adv-x="411" 
d="M109 -215q-46 0 -80.5 17t-54.5 48.5t-20 75.5q0 38 12 66t31.5 51t43 45.5t47 48t43.5 59t31 78.5h106q-12 -54 -32 -93.5t-42 -69t-44 -53t-40 -43.5t-28.5 -41.5t-10.5 -46.5q0 -24 13 -36.5t36 -12.5q31 0 54.5 25t34.5 81h106q-13 -67 -43 -111t-72 -66t-91 -22z
M257 520q27 0 46.5 -17.5t19.5 -49.5q0 -24 -12 -43t-30.5 -30t-40.5 -11q-27 0 -47 19.5t-20 50.5q0 36 26 58.5t58 22.5z" />
    <glyph glyph-name="periodcentered.ss01" horiz-adv-x="151" 
d="M93 296q-27 0 -46.5 18t-19.5 49q0 25 12 44t31 29.5t40 10.5q28 0 47.5 -19.5t19.5 -49.5q0 -36 -26 -59t-58 -23z" />
    <glyph glyph-name="bullet.ss01" horiz-adv-x="311" 
d="M167 253q-39 0 -66.5 25t-27.5 70q0 35 16.5 62t43.5 42.5t58 15.5q39 0 67 -28t28 -71q0 -52 -37 -84t-82 -32z" />
    <glyph glyph-name="periodcentered.loclCAT.case" horiz-adv-x="136" 
d="M25 362l31 136h135l-31 -136h-135z" />
    <glyph glyph-name="bullet.case.ss01" horiz-adv-x="649" 
d="M319 97q-101 0 -171.5 65.5t-70.5 179.5q0 89 43.5 158.5t112.5 109t146 39.5q103 0 174.5 -71.5t71.5 -182.5q0 -133 -94.5 -215.5t-211.5 -82.5z" />
    <glyph glyph-name="periodcentered.loclCAT.case.ss01" horiz-adv-x="151" 
d="M106 352q-27 0 -46.5 18t-19.5 49q0 25 12 44t31 29.5t40 10.5q28 0 47.5 -19.5t19.5 -49.5q0 -36 -26 -59t-58 -23z" />
    <glyph glyph-name="hyphen.case" horiz-adv-x="357" 
d="M63 309l24 102h256l-24 -102h-256z" />
    <glyph glyph-name="endash.case" horiz-adv-x="451" 
d="M64 314l22 92h349l-21 -92h-350z" />
    <glyph glyph-name="emdash.case" horiz-adv-x="651" 
d="M64 314l22 92h549l-21 -92h-550z" />
    <glyph glyph-name="parenleft.case" horiz-adv-x="363" 
d="M159 -40q-41 72 -61.5 145t-20.5 147q0 92 30 181.5t89 172.5t144 154h102q-83 -79 -141 -164t-88.5 -174.5t-30.5 -182.5q0 -73 20.5 -144.5t58.5 -134.5h-102z" />
    <glyph glyph-name="parenright.case" horiz-adv-x="363" 
d="M251 760q42 -72 62.5 -145t20.5 -147q0 -92 -30.5 -181.5t-89 -172.5t-143.5 -154h-103q84 79 142 164t88 174.5t30 182.5q0 74 -19.5 145t-59.5 134h102z" />
    <glyph glyph-name="braceleft.case" horiz-adv-x="363" 
d="M156 -40q-49 0 -78 22t-33.5 59t17.5 81l49 105q23 46 11.5 67t-53.5 21h-32l20 89h32q41 0 61 18.5t21 68.5l2 128q0 71 43.5 106t118.5 35h100l-20 -90h-81q-28 0 -46 -17.5t-18 -46.5v-108q1 -40 -9 -70t-29.5 -48.5t-49.5 -25.5q38 -20 43.5 -61t-23.5 -97l-43 -86
q-14 -28 -2.5 -44t39.5 -16h76l-21 -90h-95z" />
    <glyph glyph-name="braceright.case" horiz-adv-x="363" 
d="M254 760q50 0 78.5 -22t33.5 -58.5t-17 -81.5l-50 -105q-22 -46 -10.5 -67t52.5 -21h32l-20 -89h-32q-41 0 -61 -18.5t-20 -68.5l-2 -128q-1 -71 -44.5 -106t-117.5 -35h-101l20 90h82q28 0 46.5 17.5t17.5 46.5l-1 108q0 40 9.5 70t29.5 49t49 25q-37 20 -42.5 61
t23.5 97l42 86q15 28 3 44t-40 16h-75l20 90h95z" />
    <glyph glyph-name="bracketleft.case" horiz-adv-x="364" 
d="M6 -40l184 800h246l-20 -90h-138l-143 -620h138l-21 -90h-246z" />
    <glyph glyph-name="bracketright.case" horiz-adv-x="364" 
d="M405 760l-184 -800h-246l20 90h138l144 620h-138l20 90h246z" />
    <glyph glyph-name="quotesinglbase.ss01" horiz-adv-x="246" 
d="M-45 -161l12 57q43 7 68 29t35 66l37 -5q-10 -6 -22.5 -9t-24.5 -2q-25 1 -43.5 19t-18.5 46q0 34 23.5 55t53.5 21q28 0 48 -18t20 -57q0 -30 -12 -63.5t-36 -63t-59 -50t-81 -25.5z" />
    <glyph glyph-name="quotedblbase.ss01" horiz-adv-x="430" 
d="M-45 -161l12 57q43 7 68 29t35 66l37 -5q-10 -6 -22.5 -9t-24.5 -2q-25 1 -43.5 19t-18.5 46q0 34 23.5 55t53.5 21q28 0 48 -18t20 -57q0 -30 -12 -63.5t-36 -63t-59 -50t-81 -25.5zM139 -161l12 57q43 7 68 29t35 66l37 -5q-10 -6 -22.5 -9t-24.5 -2q-25 1 -43.5 19
t-18.5 46q0 34 23.5 55t53.5 21q28 0 48 -18t20 -57q0 -30 -12 -63.5t-36 -63t-59 -50t-81 -25.5z" />
    <glyph glyph-name="quotedblleft.ss01" horiz-adv-x="428" 
d="M187 462q-28 0 -48.5 18.5t-20.5 56.5q0 31 12.5 64t36.5 63t59 50t81 26l-13 -58q-42 -7 -67 -29t-35 -65l-37 4q9 6 22 9.5t24 1.5q26 -1 44.5 -19t18.5 -45q0 -34 -23.5 -55.5t-53.5 -21.5zM370 462q-28 0 -48.5 18.5t-20.5 56.5q0 31 12.5 64t36.5 63t59 50t81 26
l-13 -58q-42 -7 -67 -29t-35 -65l-37 4q9 6 22 9.5t24 1.5q26 -1 44.5 -19t18.5 -45q0 -34 -23.5 -55.5t-53.5 -21.5z" />
    <glyph glyph-name="quotedblright.ss01" horiz-adv-x="428" 
d="M101 473l12 57q43 7 68 29t35 66l37 -5q-10 -6 -22.5 -9t-24.5 -2q-25 1 -43.5 19t-18.5 46q0 34 23.5 55t53.5 21q28 0 48 -18t20 -57q0 -30 -12 -63.5t-36 -63t-59 -50t-81 -25.5zM284 473l12 57q43 7 68 29t35 66l37 -5q-10 -6 -22.5 -9t-24.5 -2q-25 1 -43.5 19
t-18.5 46q0 34 23.5 55t53.5 21q28 0 48 -18t20 -57q0 -30 -12 -63.5t-36 -63t-59 -50t-81 -25.5z" />
    <glyph glyph-name="quoteleft.ss01" horiz-adv-x="245" 
d="M187 462q-28 0 -48.5 18.5t-20.5 56.5q0 31 12.5 64t36.5 63t59 50t81 26l-13 -58q-42 -7 -67 -29t-35 -65l-37 4q9 6 22 9.5t24 1.5q26 -1 44.5 -19t18.5 -45q0 -34 -23.5 -55.5t-53.5 -21.5z" />
    <glyph glyph-name="quoteright.ss01" horiz-adv-x="232" 
d="M96 473l12 57q43 7 68 29t35 66l37 -5q-10 -6 -22.5 -9t-24.5 -2q-25 1 -43.5 19t-18.5 46q0 34 23.5 55t53.5 21q28 0 48 -18t20 -57q0 -30 -12 -63.5t-36 -63t-59 -50t-81 -25.5z" />
    <glyph glyph-name="ampersand.ss11" horiz-adv-x="523" 
d="M163 0q-45 0 -78.5 23t-51.5 61.5t-18 84.5q0 45 16 86t45.5 73.5t68.5 51.5t85 19l2 -22q-35 0 -61 17.5t-40.5 49t-14.5 73.5q0 59 26.5 107.5t74.5 77t112 28.5q32 0 60 -7t46 -17l-21 -85q-13 8 -33 13t-40 5q-36 0 -60.5 -20t-37.5 -50.5t-13 -62.5q0 -27 9 -46.5
t25 -29t37 -9.5h246l-21 -88h-261q-42 0 -71.5 -23.5t-45.5 -59t-16 -72.5q0 -39 18.5 -63.5t52.5 -24.5h121l-20 -90h-141zM264 0l125 541h118l-125 -541h-118z" />
    <glyph glyph-name="cent.ss12" horiz-adv-x="407" 
d="M168 -10q-44 0 -78 21t-52 63t-18 103q0 45 10 92.5t30 92t49 80t67.5 56.5t85.5 21q46 0 76 -19t45.5 -50.5t18.5 -67.5t-5 -69h-84q6 37 3 66t-17.5 46.5t-42.5 17.5q-31 0 -54.5 -19t-40.5 -49.5t-28 -66.5t-16 -71t-5 -61q0 -55 16 -82t48 -27q33 0 63.5 30t46.5 100
h84q-22 -102 -76.5 -154.5t-125.5 -52.5zM80 -109l31 134l15 19l97 418l-5 26l29 128h93l-29 -128l-16 -22l-97 -421l5 -23l-30 -131h-93z" />
    <glyph glyph-name="dollar.ss12" horiz-adv-x="437" 
d="M189 -10q-55 0 -92.5 20.5t-58 55t-25 77.5t7.5 87h94q-6 -27 -5.5 -54t10.5 -49.5t30 -36.5t52 -14q40 0 68.5 28t28.5 80q0 32 -13.5 60t-36.5 51l-69 73q-33 33 -50.5 74t-17.5 90q0 53 22 97.5t65.5 72t107.5 27.5q52 0 87 -19t53.5 -50t21.5 -69t-7 -77h-94
q7 30 4.5 60t-19 49.5t-53.5 19.5q-33 0 -53 -14.5t-29.5 -36.5t-9.5 -46q0 -31 14 -54.5t36 -47.5l71 -77q31 -34 48.5 -75t17.5 -92q0 -64 -24 -111t-70.5 -73t-111.5 -26zM97 -109l31 134l18 19l146 632l-8 26l30 128h93l-30 -128l-19 -22l-147 -635l9 -23l-30 -131h-93z
" />
    <glyph glyph-name="plus.tf" 
d="M179 140l107 463h89l-107 -463h-89zM70 329l20 84h393l-20 -84h-393z" />
    <glyph glyph-name="minus.tf" 
d="M70 329l20 84h393l-20 -84h-393z" />
    <glyph glyph-name="multiply.tf" 
d="M374 159l-258 368l64 53l257 -368zM104 159l-49 66l401 360l48 -65z" />
    <glyph glyph-name="divide.tf" 
d="M70 329l20 84h393l-20 -84h-393zM311 485q-25 0 -40.5 15.5t-15.5 40.5q0 29 20.5 49t48.5 20q25 0 41 -16t16 -40q0 -30 -20.5 -49.5t-49.5 -19.5zM230 133q-25 0 -40.5 15.5t-15.5 40.5q0 29 20 49t49 20q25 0 41 -16t16 -40q0 -30 -21 -49.5t-49 -19.5z" />
    <glyph glyph-name="equal.tf" 
d="M87 429l20 84h406l-20 -84h-406zM41 229l20 84h406l-20 -84h-406z" />
    <glyph glyph-name="greater.tf" 
d="M41 175l19 97l343 116l-5 -23l-289 114l19 84l367 -150l-18 -84z" />
    <glyph glyph-name="less.tf" 
d="M509 567l-22 -97l-370 -116l5 23l317 -114l-20 -84l-403 150l20 84z" />
    <glyph glyph-name="percent.tf" 
d="M1 0l475 720h68l-477 -720h-66zM314 -9q-34 0 -55.5 28.5t-21.5 80.5q0 29 8 66t24 72t40.5 58t58.5 23q33 0 55 -28t22 -79q0 -29 -8 -67t-24.5 -73t-41 -58t-57.5 -23zM320 50q16 0 28 19.5t20 47.5t12.5 55.5t4.5 42.5q0 19 -6 31t-17 12q-16 0 -28 -19.5t-20 -48
t-12.5 -56t-4.5 -43.5q0 -18 6 -29.5t17 -11.5zM180 402q-34 0 -55.5 28.5t-21.5 80.5q0 29 8 66t24.5 72t41 58t57.5 23t55 -28t22 -79q0 -29 -8 -67t-24.5 -73t-41 -58t-57.5 -23zM187 462q15 0 27 19t20.5 47t12.5 55.5t4 43.5q0 19 -6 30.5t-17 11.5q-16 0 -28 -19.5
t-20 -47.5t-12 -55.5t-4 -44.5q0 -18 5.5 -29t17.5 -11z" />
    <glyph glyph-name="perthousand.tf" 
d="M62 278l-10 57l446 161l10 -57zM173 -10q-33 0 -52.5 26t-19.5 73q0 26 7.5 62t23.5 71t41 58t58 23q34 0 48.5 -26t14.5 -71q0 -27 -6.5 -63.5t-20.5 -71.5t-37 -58t-57 -23zM180 48q12 0 22.5 13t18.5 33t13.5 42t8.5 42.5t3 31.5q0 16 -5 25.5t-15 9.5
q-13 0 -23 -13.5t-18 -34.5t-14 -43.5t-8.5 -42.5t-2.5 -31q0 -14 4.5 -23t15.5 -9zM300 -10q-33 0 -47 26t-14 73q0 20 3.5 48t12.5 57t23 54t34 40t46 15q34 0 53.5 -26t19.5 -71q0 -27 -8 -63.5t-24 -71.5t-40.5 -58t-58.5 -23zM307 48q12 0 22.5 13t18.5 33t13.5 42
t8.5 42.5t3 31.5q0 16 -5 25.5t-15 9.5q-13 0 -23 -13.5t-18 -34.5t-14 -43.5t-8.5 -42.5t-2.5 -31q0 -14 4.5 -23t15.5 -9zM193 417q-33 0 -52.5 26t-19.5 73q0 26 7.5 62t23.5 71t41 58t58 23q34 0 53.5 -26t19.5 -71q0 -27 -8 -63.5t-24 -71.5t-40.5 -58t-58.5 -23z
M200 475q12 0 22.5 13t18.5 33t13.5 42t8.5 42.5t3 31.5q0 16 -5 25.5t-15 9.5q-13 0 -23 -13.5t-18 -34.5t-14 -43.5t-8.5 -42.5t-2.5 -31q0 -14 4.5 -23t15.5 -9z" />
    <glyph glyph-name="uni030C.alt" horiz-adv-x="0" 
d="M188 490h-74l53 230h99z" />
    <glyph glyph-name="uni0308.ss01" horiz-adv-x="0" 
d="M215 595q-26 0 -43 17.5t-17 44.5q0 31 22 53t52 22q28 0 44.5 -17t16.5 -44q0 -31 -22 -53.5t-53 -22.5zM414 595q-26 0 -43 17.5t-17 44.5q0 31 22 53t53 22q27 0 44 -17t17 -44q0 -31 -22.5 -53.5t-53.5 -22.5z" />
    <glyph glyph-name="uni0307.ss01" horiz-adv-x="0" 
d="M220 588q-28 0 -46.5 19t-18.5 49q0 23 10.5 41.5t29.5 29.5t41 11q29 0 47.5 -17.5t18.5 -46.5q0 -23 -11.5 -42.5t-29.5 -31.5t-41 -12z" />
    <glyph glyph-name="uni0312.ss01" horiz-adv-x="0" 
d="M216 576q-27 0 -44 18.5t-17 54.5q0 30 12 59.5t34 54t52 41.5t65 22l-12 -53q-33 -8 -53 -25t-27 -50l-35 4q18 10 39 10q25 0 42 -16.5t17 -43.5q0 -32 -21 -54t-52 -22z" />
    <glyph glyph-name="uni0326.ss01" horiz-adv-x="0" 
d="M-59 -316l12 53q33 8 52.5 25t27.5 50l35 -4q-18 -10 -39 -10q-25 0 -42 16.5t-17 43.5q0 32 21.5 54t51.5 22q27 0 44 -18t17 -55q0 -30 -12 -59.5t-34.5 -54t-51.5 -41.5t-65 -22z" />
    <glyph glyph-name="dieresis.ss01" horiz-adv-x="456" 
d="M215 595q-26 0 -43 17.5t-17 44.5q0 31 22 53t52 22q28 0 44.5 -17t16.5 -44q0 -31 -22 -53.5t-53 -22.5zM414 595q-26 0 -43 17.5t-17 44.5q0 31 22 53t53 22q27 0 44 -17t17 -44q0 -31 -22.5 -53.5t-53.5 -22.5z" />
    <glyph glyph-name="dotaccent.ss01" horiz-adv-x="268" 
d="M220 588q-28 0 -46.5 19t-18.5 49q0 23 10.5 41.5t29.5 29.5t41 11q29 0 47.5 -17.5t18.5 -46.5q0 -23 -11.5 -42.5t-29.5 -31.5t-41 -12z" />
    </font>
</defs>
</svg>
